<?xml version="1.0" standalone="no"?>
<!DOCTYPE svg PUBLIC "-//W3C//DTD SVG 1.1//EN" "http://www.w3.org/Graphics/SVG/1.1/DTD/svg11.dtd" >
<svg xmlns="http://www.w3.org/2000/svg" xmlns:xlink="http://www.w3.org/1999/xlink" version="1.1">
<metadata>
Created by FontForge 20170731 at Sun Apr 14 21:27:19 2019
 By Aleksey,,,
Copyright (c) 2019 Monotype Imaging Inc. All rights reserved.
</metadata>
<defs>
<font id="HelveticaNowDisplay-ExtBlk" horiz-adv-x="0" >
  <font-face 
    font-family="HelveticaNowDisplay ExtraBlack"
    font-weight="950"
    font-stretch="normal"
    units-per-em="1000"
    panose-1="2 11 11 4 3 2 2 2 2 4"
    ascent="875"
    descent="-125"
    x-height="516"
    cap-height="712"
    bbox="-510 -358 1337 1068"
    underline-thickness="50"
    underline-position="-300"
    unicode-range="U+000D-FEFF"
  />
<missing-glyph horiz-adv-x="737" 
d="M697 0h-657v712h657v-712zM266 512v-312h205v312h-205z" />
    <glyph glyph-name="fi" unicode="fi" horiz-adv-x="709" 
d="M92 516v25q0 100 51.5 141t164.5 41q38 0 101 -5v-152q-31 3 -53 3q-34 0 -45 -10.5t-11 -42.5h109v-143h-109v-373h-208v373h-82v143h82zM465 558v156h208v-156h-208zM673 0h-208v516h208v-516z" />
    <glyph glyph-name="fl" unicode="fl" horiz-adv-x="704" 
d="M92 516v25q0 100 51.5 141t164.5 41q38 0 101 -5v-152q-31 3 -53 3q-34 0 -45 -10.5t-11 -42.5h109v-143h-109v-373h-208v373h-82v143h82zM460 0v712h208v-712h-208z" />
    <glyph glyph-name=".notdef" horiz-adv-x="737" 
d="M697 0h-657v712h657v-712zM266 512v-312h205v312h-205z" />
    <glyph glyph-name=".null" 
 />
    <glyph glyph-name="nonmarkingreturn" horiz-adv-x="333" 
 />
    <glyph glyph-name="NULL" 
 />
    <glyph glyph-name="NULL" 
 />
    <glyph glyph-name="CR" unicode="&#xd;" horiz-adv-x="225" 
 />
    <glyph glyph-name="space" unicode=" " horiz-adv-x="225" 
 />
    <glyph glyph-name="exclam" unicode="!" horiz-adv-x="299" 
d="M198 257h-95l-66 255v200h226v-200zM263 0h-227v220h227v-220z" />
    <glyph glyph-name="quotedbl" unicode="&#x22;" horiz-adv-x="570" 
d="M230 322h-152l-38 390h227zM493 322h-152l-38 390h227z" />
    <glyph glyph-name="numbersign" unicode="#" horiz-adv-x="763" 
d="M745 577l-34 -167h-81l-21 -106h80l-34 -167h-80l-28 -137h-180l28 137h-116l-28 -137h-180l28 137h-81l34 167h81l21 106h-80l34 167h81l27 135h180l-27 -135h116l27 135h180l-27 -135h80zM313 304h116l21 106h-116z" />
    <glyph glyph-name="dollar" unicode="$" horiz-adv-x="673" 
d="M661 236q0 -106 -73.5 -173.5t-204.5 -77.5v-101h-84v100q-134 9 -208 77t-79 180h223q4 -70 64 -81v111l-53 7q-106 15 -163.5 70t-57.5 152q0 87 55 149q64 72 219 78v101h84v-102q240 -19 259 -226h-209q-6 47 -50 59v-98l20 -3q132 -19 195 -73.5t63 -148.5zM250 516
q0 -33 49 -43v88q-49 -10 -49 -45zM383 256v-96q50 11 50 47q0 34 -50 49z" />
    <glyph glyph-name="percent" unicode="%" horiz-adv-x="944" 
d="M206 290q-186 0 -186 215q0 216 186 216q187 0 187 -216q0 -215 -187 -215zM342 0h-119l380 712h119zM207 402q25 0 35.5 21t10.5 82q0 62 -10.5 83t-35.5 21q-26 0 -36.5 -20.5t-10.5 -83.5q0 -61 10.5 -82t36.5 -21zM737 -9q-186 0 -186 215q0 216 186 216
q187 0 187 -216q0 -215 -187 -215zM738 103q25 0 35.5 21t10.5 82q0 62 -10.5 83t-35.5 21q-26 0 -36.5 -20.5t-10.5 -83.5q0 -61 10.5 -82t36.5 -21z" />
    <glyph glyph-name="ampersand" unicode="&#x26;" horiz-adv-x="755" 
d="M635 135l122 -135h-249l-21 24q-89 -39 -185 -39q-119 0 -202 60q-83 59 -83 165q0 63 36.5 114.5t100.5 72.5l-11 13q-51 57 -51 125q0 86 68 140q68 53 175 53q113 0 180 -53q65 -53 65 -132q0 -60 -38 -108t-111 -75l85 -94q18 42 21 99h180q-5 -133 -82 -230z
M349 574q-25 0 -38.5 -12t-13.5 -32q0 -21 16 -40l28 -31q61 25 61 71q0 19 -14.5 31.5t-38.5 12.5zM340 150q17 0 32 3l-119 134q-19 -25 -19 -56q0 -36 28 -58.5t78 -22.5z" />
    <glyph glyph-name="quotesingle" unicode="'" horiz-adv-x="307" 
d="M230 322h-152l-38 390h227z" />
    <glyph glyph-name="parenleft" unicode="(" horiz-adv-x="326" 
d="M321 -196h-189q-55 130 -78 239t-23 250q0 146 23 258q22 109 78 238h189q-81 -207 -81 -496q0 -267 81 -489z" />
    <glyph glyph-name="parenright" unicode=")" horiz-adv-x="326" 
d="M194 -196h-189q81 222 81 489q0 289 -81 496h189q56 -129 78 -238q23 -112 23 -258q0 -141 -23 -250t-78 -239z" />
    <glyph glyph-name="asterisk" unicode="*" horiz-adv-x="448" 
d="M224 390l-68 -90l-99 79l72 91l-119 38l42 118l108 -35v121h128v-121l108 35l42 -118l-119 -38l72 -91l-99 -79z" />
    <glyph glyph-name="plus" unicode="+" horiz-adv-x="528" 
d="M358 443h149v-172h-149v-152h-188v152h-149v172h149v151h188v-151z" />
    <glyph glyph-name="comma" unicode="," horiz-adv-x="299" 
d="M36 0v220h227v-225q0 -185 -196 -185h-31v106h32q65 0 65 73v11h-97z" />
    <glyph glyph-name="hyphen" unicode="-" horiz-adv-x="355" 
d="M334 193h-313v172h313v-172z" />
    <glyph glyph-name="period" unicode="." horiz-adv-x="299" 
d="M263 0h-227v220h227v-220z" />
    <glyph glyph-name="slash" unicode="/" horiz-adv-x="445" 
d="M195 0h-200l255 712h200z" />
    <glyph glyph-name="zero" unicode="0" horiz-adv-x="717" 
d="M609 80q-84 -96 -250 -96q-167 0 -249 96q-84 96 -84 276q0 181 84 276.5t249 95.5q164 0 248.5 -95.5t84.5 -276.5q0 -179 -83 -276zM359 164q51 0 75 44.5t24 147.5q0 102 -24.5 147t-74.5 45t-74.5 -45t-24.5 -147t24.5 -147t74.5 -45z" />
    <glyph glyph-name="one" unicode="1" horiz-adv-x="449" 
d="M233 712h176v-712h-226v388h-168v148h24q78 0 126 41.5t68 134.5z" />
    <glyph glyph-name="two" unicode="2" horiz-adv-x="686" 
d="M283 183h367v-183h-624v77q0 109 52 171q54 63 170 106l74 28q53 20 73 39t20 48q0 69 -90 69q-45 0 -66 -21t-24 -67h-211q8 135 90 206.5t230 71.5t225 -67q77 -68 77 -173q0 -161 -196 -233l-102 -38q-46 -16 -65 -34z" />
    <glyph glyph-name="three" unicode="3" horiz-adv-x="691" 
d="M526 382q67 -18 103 -62.5t36 -108.5q0 -99 -84 -163q-85 -64 -231 -64q-152 0 -234 72t-89 208h222q3 -53 25.5 -77t69.5 -24q87 0 87 63t-86 63h-50v150h50q86 0 86 57q0 56 -77 56t-82 -71h-221q13 247 307 247q136 0 212.5 -52t76.5 -143q0 -53 -32 -92.5t-89 -58.5z
" />
    <glyph glyph-name="four" unicode="4" horiz-adv-x="705" 
d="M595 304h78v-179h-78v-125h-221v125h-337v207l334 380h224v-408zM381 304v188l-166 -188h166z" />
    <glyph glyph-name="five" unicode="5" horiz-adv-x="648" 
d="M375 475q65 0 114.5 -20.5t78.5 -54.5t43 -73.5t14 -82.5q0 -123 -86 -191q-85 -69 -215 -69q-121 0 -203 61q-84 60 -96 169h211q16 -61 88 -61q44 0 68.5 24.5t24.5 66.5q0 41 -24.5 65.5t-68.5 24.5q-59 0 -83 -46h-209l76 424h489v-184h-319l-19 -82q56 29 116 29z
" />
    <glyph glyph-name="six" unicode="6" horiz-adv-x="662" 
d="M231 413q58 67 168 67q109 0 176 -67t67 -174q0 -120 -82 -187q-83 -68 -218 -68q-150 0 -231 89q-85 94 -85 279q0 183 82.5 279.5t238.5 96.5q121 0 192.5 -57t83.5 -161h-191q-16 63 -85 63q-54 0 -81.5 -38.5t-34.5 -121.5zM276 161q23 -26 66 -26t67 26q24 25 24 71
t-24 72q-24 25 -67 25q-44 0 -66 -25q-24 -26 -24 -72t24 -71z" />
    <glyph glyph-name="seven" unicode="7" horiz-adv-x="570" 
d="M15 528v184h540v-183q-69 -63 -107 -123q-40 -63 -62 -162q-24 -100 -24 -244h-234q0 157 61 300q62 146 149 228h-323z" />
    <glyph glyph-name="eight" unicode="8" horiz-adv-x="655" 
d="M535 372q109 -43 109 -170q0 -98 -84 -158q-86 -60 -228 -60q-143 0 -230 60t-87 158q0 127 112 170q-82 49 -82 156q0 93 77 146.5t210 53.5t207.5 -53t74.5 -147q0 -107 -79 -156zM394 558q-22 18 -64 18t-64 -18q-23 -20 -23 -52q0 -33 23 -51q22 -18 64 -18t64 18
q23 18 23 51q0 32 -23 52zM235 226q0 -75 95 -75t95 75q0 74 -95 74t-95 -74z" />
    <glyph glyph-name="nine" unicode="9" horiz-adv-x="662" 
d="M551 639q85 -94 85 -279q0 -183 -82.5 -279.5t-238.5 -96.5q-121 0 -192.5 57t-83.5 161h191q16 -63 85 -63q54 0 81.5 38.5t34.5 121.5q-58 -67 -168 -67q-109 0 -176 67t-67 174q0 120 82 187q83 68 218 68q150 0 231 -89zM253 409q24 -26 67 -26t67 26q23 26 23 71
q0 46 -23 72q-24 25 -67 25t-67 -25q-24 -26 -24 -72t24 -71z" />
    <glyph glyph-name="colon" unicode=":" horiz-adv-x="299" 
d="M263 308h-227v220h227v-220zM263 0h-227v220h227v-220z" />
    <glyph glyph-name="semicolon" unicode=";" horiz-adv-x="299" 
d="M36 308v220h227v-220h-227zM133 0h-97v220h227v-225q0 -185 -196 -185h-31v106h32q65 0 65 73v11z" />
    <glyph glyph-name="less" unicode="&#x3c;" horiz-adv-x="522" 
d="M506 629v-195l-61 -18q-103 -31 -214 -60q111 -29 214 -60l61 -18v-195l-486 173v200z" />
    <glyph glyph-name="equal" unicode="=" horiz-adv-x="527" 
d="M507 383h-486v161h486v-161zM507 168h-486v161h486v-161z" />
    <glyph glyph-name="greater" unicode="&#x3e;" horiz-adv-x="522" 
d="M16 434v195l486 -173v-200l-486 -173v195l61 18q103 31 214 60q-111 29 -214 60z" />
    <glyph glyph-name="question" unicode="?" horiz-adv-x="574" 
d="M377 270h-199q0 57 6 81q4 21 22 47q20 27 69 51q33 15 46 27t16 35q0 49 -54 49q-40 0 -52.5 -15.5t-12.5 -57.5h-206q1 241 281 241q122 0 196 -50q73 -51 73 -140q0 -107 -103 -170q-58 -36 -66 -43q-11 -9 -13.5 -19t-2.5 -36zM391 0h-227v220h227v-220z" />
    <glyph glyph-name="at" unicode="@" horiz-adv-x="924" 
d="M506 472v44h171v-248q0 -46 35 -46q54 0 54 118q0 123 -80.5 191.5t-224.5 68.5q-141 0 -221 -77.5t-80 -215.5q0 -152 82.5 -230.5t236.5 -78.5q116 0 212 41v-122q-96 -37 -219 -37q-215 0 -333 115q-120 115 -120 312q0 181 121 301q122 120 323 120q196 0 320 -107
q122 -108 122 -277q0 -118 -59 -194q-60 -76 -161 -76q-119 0 -155 84q-44 -75 -127 -75t-132.5 56.5t-49.5 166.5q0 104 53 163q52 58 130 58q63 0 102 -55zM414 242q12 -19 42 -19t41 18q11 19 11 67q0 44 -12 61.5t-41 17.5q-30 0 -41.5 -17.5t-11.5 -62.5t12 -65z" />
    <glyph glyph-name="A" unicode="A" horiz-adv-x="754" 
d="M763 0h-234l-28 93h-256l-28 -93h-226l241 712h276zM342 422l-49 -164h158l-49 164q-18 64 -30 106z" />
    <glyph glyph-name="B" unicode="B" horiz-adv-x="709" 
d="M573 382q55 -20 88.5 -68t33.5 -104q0 -100 -67.5 -155t-200.5 -55h-387v712h380q130 0 188 -52t58 -129q0 -106 -93 -149zM377 538h-111v-100h111q56 0 56 50t-56 50zM266 174h139q56 0 56 50t-56 50h-139v-100z" />
    <glyph glyph-name="C" unicode="C" horiz-adv-x="774" 
d="M388 -18q-164 0 -266 103q-103 102 -103 272q0 171 103 271t279 100q150 0 241.5 -76t116.5 -213h-233q-25 97 -130 97q-143 0 -143 -179q0 -91 38 -137t108 -46q104 0 128 96h231q-22 -128 -123 -207q-101 -81 -247 -81z" />
    <glyph glyph-name="D" unicode="D" horiz-adv-x="744" 
d="M40 712h336q349 0 349 -356t-352 -356h-333v712zM266 188h96q70 0 99.5 38t29.5 130t-29.5 130t-99.5 38h-96v-336z" />
    <glyph glyph-name="E" unicode="E" horiz-adv-x="649" 
d="M624 712v-194h-358v-70h331v-187h-331v-67h358v-194h-584v712h584z" />
    <glyph glyph-name="F" unicode="F" horiz-adv-x="623" 
d="M608 712v-194h-342v-82h327v-187h-327v-249h-226v712h568z" />
    <glyph glyph-name="G" unicode="G" horiz-adv-x="771" 
d="M396 258v157h345v-415h-146l-16 76q-71 -93 -218 -93q-160 0 -251 106q-91 104 -91 269t100 268q99 102 271 102q144 0 239 -71q94 -72 111 -191h-231q-25 70 -115 70q-66 0 -103.5 -44.5t-37.5 -137.5q0 -181 142 -181q100 0 127 85h-126z" />
    <glyph glyph-name="H" unicode="H" horiz-adv-x="737" 
d="M471 462v250h226v-712h-226v262h-205v-262h-226v712h226v-250h205z" />
    <glyph glyph-name="I" unicode="I" horiz-adv-x="306" 
d="M266 0h-226v712h226v-712z" />
    <glyph glyph-name="J" unicode="J" horiz-adv-x="595" 
d="M291 -16q-125 0 -199 65q-75 65 -75 173v70h220v-74q0 -23 13.5 -36t37.5 -13t37.5 13t13.5 36v494h226v-490q0 -108 -74 -173t-200 -65z" />
    <glyph glyph-name="K" unicode="K" horiz-adv-x="757" 
d="M766 0h-258l-157 267l-85 -100v-167h-226v712h226v-279l221 279h261l-249 -291z" />
    <glyph glyph-name="L" unicode="L" horiz-adv-x="587" 
d="M266 712v-518h306v-194h-532v712h226z" />
    <glyph glyph-name="M" unicode="M" horiz-adv-x="919" 
d="M477 442l54 270h348v-712h-220v202q0 147 5 272q-10 -51 -22 -97l-90 -377h-184l-92 377q-5 21 -9.5 40t-7.5 34t-4 17q5 -122 5 -266v-202h-220v712h348l56 -270l17 -85q11 64 16 85z" />
    <glyph glyph-name="N" unicode="N" horiz-adv-x="748" 
d="M488 596v116h220v-712h-235l-150 253q-38 63 -67 119q4 -100 4 -256v-116h-220v712h235l147 -253q27 -46 69 -134q-3 89 -3 271z" />
    <glyph glyph-name="O" unicode="O" horiz-adv-x="792" 
d="M396 -17q-170 0 -273 102q-104 101 -104 271q0 169 105 271q104 101 272 101q167 0 273 -101q104 -102 104 -271q0 -170 -104 -271q-105 -102 -273 -102zM292 220q38 -45 104 -45t105 45q38 44 38 136q0 89 -37.5 134.5t-105.5 45.5t-105.5 -45.5t-37.5 -134.5
q0 -92 39 -136z" />
    <glyph glyph-name="P" unicode="P" horiz-adv-x="683" 
d="M40 712h347q131 0 205 -68t74 -186t-74 -186t-205 -68h-121v-204h-226v712zM266 390h91q77 0 77 68t-77 68h-91v-136z" />
    <glyph glyph-name="Q" unicode="Q" horiz-adv-x="792" 
d="M773 356q0 -157 -89 -255l80 -86l-100 -96l-92 100q-76 -36 -176 -36q-170 0 -273 102q-104 101 -104 271q0 169 105 271q104 101 272 101q167 0 273 -101q104 -102 104 -271zM396 175q4 0 30 2l-68 74l102 91l67 -72q12 34 12 86q0 89 -37.5 134.5t-105.5 45.5
t-105.5 -45.5t-37.5 -134.5q0 -90 37.5 -135.5t105.5 -45.5z" />
    <glyph glyph-name="R" unicode="R" horiz-adv-x="695" 
d="M658 177l8 -105q5 -53 17 -72h-231q-12 23 -14 72l-3 71q-2 51 -21.5 70t-69.5 19h-78v-232h-226v712h351q274 0 274 -209q0 -128 -107 -170q48 -18 71.5 -55t28.5 -101zM266 396h90q78 0 78 71t-78 71h-90v-142z" />
    <glyph glyph-name="S" unicode="S" horiz-adv-x="677" 
d="M582 51q-85 -68 -242 -68t-240 68q-84 68 -88 183h223q4 -46 30 -64t79 -18q93 0 93 49q0 24 -22 37t-79 21l-86 12q-105 15 -163 71.5t-58 152.5q0 94 59 158q69 75 244 75q294 0 313 -235h-209q-4 35 -26 51.5t-70 16.5q-86 0 -86 -46q0 -39 67 -48l86 -12
q134 -19 196 -72t62 -148q0 -116 -83 -184z" />
    <glyph glyph-name="T" unicode="T" horiz-adv-x="650" 
d="M15 712h620v-194h-197v-518h-226v518h-197v194z" />
    <glyph glyph-name="U" unicode="U" horiz-adv-x="712" 
d="M598 56q-85 -73 -242 -73q-158 0 -241 73q-85 73 -85 206v450h226v-444q0 -93 100 -93t100 93v444h226v-450q0 -132 -84 -206z" />
    <glyph glyph-name="V" unicode="V" horiz-adv-x="729" 
d="M437 449l75 263h226l-230 -712h-276l-241 712h234l78 -263q48 -163 69 -242q34 136 65 242z" />
    <glyph glyph-name="W" unicode="W" horiz-adv-x="1011" 
d="M749 501l40 211h231l-188 -712h-242l-47 217q-15 65 -37 185q-19 -96 -38 -185l-47 -217h-242l-188 712h231l40 -211q0 -3 5 -29.5t17 -90t24 -131.5q34 183 47 251l42 211h217l42 -211q13 -68 47 -251q12 68 24 131.5t17 90t5 29.5z" />
    <glyph glyph-name="X" unicode="X" horiz-adv-x="739" 
d="M717 712l-224 -332l255 -380h-265l-39 65l-76 129q-31 -51 -83 -129l-43 -65h-251l262 365l-234 347h262l39 -62q38 -61 57 -92q2 4 27 44l30 48l39 62h244z" />
    <glyph glyph-name="Y" unicode="Y" horiz-adv-x="695" 
d="M421 622l42 90h241l-239 -441v-271h-226v271l-248 441h244l46 -90q47 -93 74 -153q31 77 66 153z" />
    <glyph glyph-name="Z" unicode="Z" horiz-adv-x="675" 
d="M499 197h151v-197h-625v174l197 215q106 114 123 131q-158 -2 -177 -2h-133v194h610v-170l-204 -219q-63 -69 -124 -128q162 2 182 2z" />
    <glyph glyph-name="bracketleft" unicode="[" horiz-adv-x="401" 
d="M386 -196h-346v985h346v-171h-151v-643h151v-171z" />
    <glyph glyph-name="backslash" unicode="\" horiz-adv-x="445" 
d="M450 0h-200l-255 712h200z" />
    <glyph glyph-name="bracketright" unicode="]" horiz-adv-x="401" 
d="M361 -196h-346v171h151v643h-151v171h346v-985z" />
    <glyph glyph-name="asciicircum" unicode="^" horiz-adv-x="425" 
d="M119 712h187l121 -278h-173l-33 102q-7 21 -8 27l-9 -27l-33 -102h-173z" />
    <glyph glyph-name="underscore" unicode="_" horiz-adv-x="539" 
d="M540 -168h-541v145h541v-145z" />
    <glyph glyph-name="grave" unicode="`" horiz-adv-x="500" 
d="M-16 559h-188l-148 154h247z" />
    <glyph glyph-name="a" unicode="a" horiz-adv-x="613" 
d="M595 0h-209q-14 27 -15 60q-45 -77 -166 -77q-88 0 -139 41t-51 118q0 71 47.5 110.5t149.5 49.5l94 9q33 3 47.5 12t14.5 27q0 38 -58 38q-31 0 -45.5 -11t-16.5 -40h-208q4 98 69 144.5t204 46.5q263 0 263 -165v-281q0 -44 19 -82zM287 113q81 0 81 84v34
q-10 -17 -45 -21l-48 -6q-49 -6 -49 -45q0 -46 61 -46z" />
    <glyph glyph-name="b" unicode="b" horiz-adv-x="635" 
d="M244 712v-263q51 79 153 79t162 -73q59 -74 59 -197q0 -122 -59 -196q-60 -74 -162 -74q-109 0 -159 89v-77h-202v712h208zM322 149q88 0 88 110q0 109 -88 109q-87 0 -87 -109q0 -110 87 -110z" />
    <glyph glyph-name="c" unicode="c" horiz-adv-x="598" 
d="M303 -12q-132 0 -209 74t-77 196q0 124 78 197q76 73 212 73q126 0 199 -61q72 -61 80 -159h-207q-13 60 -76 60q-42 0 -60 -26t-18 -84q0 -60 17.5 -85t59.5 -25q66 0 79 69h205q-10 -104 -85.5 -166.5t-197.5 -62.5z" />
    <glyph glyph-name="d" unicode="d" horiz-adv-x="635" 
d="M391 449v263h208v-712h-202v77q-50 -89 -159 -89q-102 0 -161 74q-60 74 -60 196q0 124 60 197q58 73 161 73q102 0 153 -79zM313 148q87 0 87 109q0 110 -87 110q-88 0 -88 -110q0 -109 88 -109z" />
    <glyph glyph-name="e" unicode="e" horiz-adv-x="609" 
d="M592 264q0 -29 -4 -58h-376q4 -79 99 -79q53 0 74 28h194q-23 -80 -95 -123.5t-177 -43.5q-135 0 -212.5 71.5t-77.5 196.5q0 123 78 198q79 74 211 74q129 0 208 -70q78 -71 78 -194zM303 390q-76 0 -88 -76h177q-7 76 -89 76z" />
    <glyph glyph-name="f" unicode="f" horiz-adv-x="429" 
d="M356 569q-34 0 -45 -10.5t-11 -42.5h109v-143h-109v-373h-208v373h-82v143h82v25q0 100 51.5 141t164.5 41q38 0 101 -5v-152q-31 3 -53 3z" />
    <glyph glyph-name="g" unicode="g" horiz-adv-x="645" 
d="M401 442v74h208v-493q0 -116 -76 -178t-215 -62q-271 0 -292 207h210q7 -61 80 -61q42 0 61.5 18.5t19.5 58.5v93q-53 -80 -162 -80q-101 0 -159 70q-59 70 -59 185q0 114 59 185q58 69 159 69q113 0 166 -86zM313 165q87 0 87 110q0 108 -87 108q-88 0 -88 -108
q0 -110 88 -110z" />
    <glyph glyph-name="h" unicode="h" horiz-adv-x="615" 
d="M403 528q176 0 176 -208v-320h-208v286q0 68 -59 68q-30 0 -49 -17.5t-19 -51.5v-285h-208v712h208v-269q49 85 159 85z" />
    <glyph glyph-name="i" unicode="i" horiz-adv-x="280" 
d="M244 558h-208v156h208v-156zM244 0h-208v516h208v-516z" />
    <glyph glyph-name="j" unicode="j" horiz-adv-x="280" 
d="M244 558h-208v156h208v-156zM25 -206q-16 0 -62 2v160h17q14 0 22 1.5t17 6t13 15.5t4 29v508h208v-538q0 -98 -51.5 -141t-167.5 -43z" />
    <glyph glyph-name="k" unicode="k" horiz-adv-x="633" 
d="M404 516h231l-201 -212l199 -304h-234l-102 171l-53 -54v-117h-208v712h208v-379z" />
    <glyph glyph-name="l" unicode="l" horiz-adv-x="280" 
d="M244 0h-208v712h208v-712z" />
    <glyph glyph-name="m" unicode="m" horiz-adv-x="924" 
d="M715 528q80 0 126.5 -48.5t46.5 -139.5v-340h-208v286q0 68 -53 68q-26 0 -43.5 -17.5t-17.5 -51.5v-285h-208v286q0 68 -53 68q-26 0 -43.5 -17.5t-17.5 -51.5v-285h-208v516h204v-88h2q46 100 158 100q111 0 149 -87h4q61 87 162 87z" />
    <glyph glyph-name="n" unicode="n" horiz-adv-x="615" 
d="M403 528q176 0 176 -208v-320h-208v286q0 68 -59 68q-30 0 -49 -17.5t-19 -51.5v-285h-208v516h204v-75h3q48 87 160 87z" />
    <glyph glyph-name="o" unicode="o" horiz-adv-x="620" 
d="M523 62q-82 -74 -213 -74q-132 0 -212 74q-81 74 -81 195t81 196q82 74 212 74t212 -74q81 -75 81 -196t-80 -195zM225 256q0 -108 85 -108t85 108q0 55 -22.5 83t-62.5 28q-85 0 -85 -111z" />
    <glyph glyph-name="p" unicode="p" horiz-adv-x="635" 
d="M397 528q102 0 162 -73q59 -74 59 -197q0 -122 -59 -196q-60 -74 -162 -74t-153 79v-271h-208v720h202v-77q50 89 159 89zM322 149q88 0 88 110q0 109 -88 109q-87 0 -87 -109q0 -110 87 -110z" />
    <glyph glyph-name="q" unicode="q" horiz-adv-x="637" 
d="M399 435v81h202v-720h-208v275q-50 -83 -155 -83q-102 0 -161 74q-60 74 -60 196q0 124 60 197q58 73 161 73q112 0 161 -93zM313 149q87 0 87 110q0 109 -87 109q-88 0 -88 -109q0 -110 88 -110z" />
    <glyph glyph-name="r" unicode="r" horiz-adv-x="436" 
d="M379 524q21 0 37 -3v-187h-48q-124 0 -124 -136v-198h-208v516h204v-102q27 110 139 110z" />
    <glyph glyph-name="s" unicode="s" horiz-adv-x="548" 
d="M270 -17q-250 0 -264 183h198q3 -27 20 -39t53 -12q63 0 63 30q0 23 -44 31l-101 14q-183 26 -183 165q0 84 66 128.5t190 44.5q246 0 257 -176h-187q-2 26 -18 37.5t-52 11.5q-59 0 -59 -28q0 -23 44 -31l101 -14q97 -14 142 -54t45 -109q0 -87 -71 -134.5t-200 -47.5z
" />
    <glyph glyph-name="t" unicode="t" horiz-adv-x="420" 
d="M400 516v-143h-107v-173q0 -29 12.5 -37.5t46.5 -8.5h38v-154q-50 -5 -88 -5q-116 0 -166.5 38t-50.5 125v215h-75v143h75v159h208v-159h107z" />
    <glyph glyph-name="u" unicode="u" horiz-adv-x="615" 
d="M371 231v285h208v-516h-204v75h-3q-48 -87 -160 -87q-176 0 -176 208v320h208v-286q0 -68 59 -68q30 0 49 17.5t19 51.5z" />
    <glyph glyph-name="v" unicode="v" horiz-adv-x="625" 
d="M371 368l42 148h214l-193 -516h-243l-193 516h222l43 -148q33 -113 54 -199q21 86 54 199z" />
    <glyph glyph-name="w" unicode="w" horiz-adv-x="913" 
d="M660 375l33 141h222l-170 -516h-206l-50 178q-21 74 -32 123q-15 -61 -33 -123l-50 -178h-206l-170 516h222l33 -141q3 -12 14 -62t20 -89q21 87 41 152l41 140h175l41 -140q20 -65 41 -152q9 39 20 89t14 62z" />
    <glyph glyph-name="x" unicode="x" horiz-adv-x="583" 
d="M577 516l-170 -247l178 -269h-229l-26 44q-18 30 -39 70q-10 -18 -19 -33t-15 -25.5t-6 -11.5l-26 -44h-227l181 270l-167 246h228l25 -40q11 -17 31 -51q20 34 31 51l25 40h225z" />
    <glyph glyph-name="y" unicode="y" horiz-adv-x="623" 
d="M385 422l27 94h213l-203 -524q-47 -122 -107 -160q-61 -38 -185 -38q-37 0 -91 2v160h94q63 0 63 49q0 17 -9 39l-189 472h222l28 -94q28 -99 66 -252q41 147 71 252z" />
    <glyph glyph-name="z" unicode="z" horiz-adv-x="523" 
d="M364 147h136v-147h-477v126l166 198l38 45h-70h-136v147h474v-112l-165 -198q-3 -4 -20 -24t-30 -36q19 1 84 1z" />
    <glyph glyph-name="braceleft" unicode="{" horiz-adv-x="404" 
d="M389 -196h-79q-105 0 -156 48.5t-51 151.5v145q0 61 -82 62v171q82 1 82 62v145q0 103 51 151.5t156 48.5h79v-168h-34q-35 0 -49.5 -14.5t-14.5 -49.5v-153q0 -52 -29.5 -78t-96.5 -28v-2q126 -4 126 -107v-154q0 -35 14.5 -49.5t49.5 -14.5h34v-167z" />
    <glyph glyph-name="bar" unicode="|" horiz-adv-x="249" 
d="M209 -205h-169v1002h169v-1002z" />
    <glyph glyph-name="braceright" unicode="}" horiz-adv-x="404" 
d="M94 -196h-79v167h34q35 0 49.5 14.5t14.5 49.5v154q0 103 126 107v2q-67 2 -96.5 28t-29.5 78v153q0 35 -14.5 49.5t-49.5 14.5h-34v168h79q105 0 156 -48.5t51 -151.5v-145q0 -61 82 -62v-171q-82 -1 -82 -62v-145q0 -103 -51 -151.5t-156 -48.5z" />
    <glyph glyph-name="asciitilde" unicode="~" horiz-adv-x="528" 
d="M353 252q-42 0 -105 29q-33 15 -51 15q-19 0 -29 -10t-14 -35h-133q0 97 39.5 151t115.5 54q48 0 104 -27q37 -17 52 -17q21 0 30 9.5t12 35.5h134q0 -96 -40 -150.5t-115 -54.5z" />
    <glyph glyph-name="uni00A0" unicode="&#xa0;" horiz-adv-x="225" 
 />
    <glyph glyph-name="exclamdown" unicode="&#xa1;" horiz-adv-x="299" 
d="M36 366v220h227v-220h-227zM37 74l66 255h95l65 -255v-200h-226v200z" />
    <glyph glyph-name="cent" unicode="&#xa2;" horiz-adv-x="598" 
d="M345 358v-201q27 15 36 60h205q-9 -95 -72.5 -155.5t-168.5 -71.5v-106h-80v106q-116 10 -182 82t-66 186t66 185.5t182 82.5v102h80v-102q107 -9 171 -68t70 -150h-207q-10 37 -34 50zM225 258q0 -87 40 -103v205q-40 -19 -40 -102z" />
    <glyph glyph-name="sterling" unicode="&#xa3;" horiz-adv-x="588" 
d="M341 274q0 -45 -23 -73h257v-201h-548v172q50 10 72.5 31t22.5 57q0 20 -7 48h-110v84h72q-34 67 -34 125q0 95 75 154q74 57 200 57q124 0 187 -59t71 -181h-206q-2 35 -13.5 50.5t-36.5 15.5q-47 0 -47 -50q0 -36 30 -95q2 -4 4 -7.5t3 -6.5l1 -3h172v-84h-145
q3 -18 3 -34z" />
    <glyph glyph-name="currency" unicode="&#xa4;" horiz-adv-x="589" 
d="M572 582l-72 -71q54 -68 54 -155q0 -88 -54 -155l72 -71l-56 -57l-75 75q-65 -42 -144 -42q-80 0 -147 44l-77 -77l-56 57l76 75q-52 65 -52 151t52 151l-76 75l56 57l77 -77q67 44 147 44q79 0 144 -42l75 75zM297 250q46 0 77 30t31 76t-31 76t-77 30q-45 0 -76 -30.5
t-31 -75.5t31 -75.5t76 -30.5z" />
    <glyph glyph-name="yen" unicode="&#xa5;" horiz-adv-x="695" 
d="M463 712h241l-215 -396h110v-84h-134v-71h134v-84h-134v-77h-226v77h-138v84h138v71h-138v84h113l-223 396h244l46 -90q47 -93 74 -153q31 77 66 153z" />
    <glyph glyph-name="brokenbar" unicode="&#xa6;" horiz-adv-x="249" 
d="M209 398h-169v399h169v-399zM209 -204h-169v399h169v-399z" />
    <glyph glyph-name="section" unicode="&#xa7;" horiz-adv-x="634" 
d="M622 236q0 -94 -110 -144q53 -47 53 -115q0 -86 -67.5 -133.5t-187.5 -47.5q-110 0 -173 48t-71 135h184q6 -54 59 -54q24 0 38.5 11t14.5 30q0 24 -29 41l-197 114q-124 72 -124 167q0 94 110 144q-53 47 -53 115q0 86 67.5 133.5t187.5 47.5q110 0 173 -48t71 -135
h-184q-6 54 -59 54q-24 0 -38.5 -11t-14.5 -30q0 -24 29 -41l197 -114q124 -72 124 -167zM263 244l115 -66q40 13 40 46q0 30 -47 56l-115 66q-40 -13 -40 -46q0 -30 47 -56z" />
    <glyph glyph-name="dieresis" unicode="&#xa8;" horiz-adv-x="500" 
d="M172 558h-196v156h196v-156zM424 558h-196v156h196v-156z" />
    <glyph glyph-name="copyright" unicode="&#xa9;" horiz-adv-x="803" 
d="M674 92q-110 -108 -273 -108t-272 108q-110 108 -110 264q0 157 110 265q110 107 272 107q163 0 273 -107q110 -108 110 -265q0 -156 -110 -264zM221 177q71 -72 181 -72t182 72q71 71 71 179q0 107 -71 180q-73 71 -182 71q-110 0 -181 -71q-72 -72 -72 -180t72 -179z
M404 163q-88 0 -140.5 52.5t-52.5 140.5t52.5 140.5t140.5 52.5q81 0 130.5 -43t53.5 -115h-132q-3 49 -52 49q-58 0 -58 -84t58 -84q54 0 56 56h130q-2 -75 -52.5 -120t-133.5 -45z" />
    <glyph glyph-name="ordfeminine" unicode="&#xaa;" horiz-adv-x="525" 
d="M495 262h-174q-7 21 -9 41q-40 -51 -132 -51q-77 0 -123.5 37t-46.5 105q0 66 43.5 100t139.5 42l72 6q24 2 32.5 8t8.5 20q0 15 -11.5 21t-39.5 6q-24 0 -33.5 -9t-11.5 -32h-177q4 83 59 124t172 41q218 0 218 -141v-232q0 -53 13 -86zM240 371q66 0 66 70v13
q-9 -11 -31 -12l-43 -4q-39 -4 -39 -33q0 -34 47 -34z" />
    <glyph glyph-name="guillemotleft" unicode="&#xab;" horiz-adv-x="460" 
d="M210 29l-170 139v198l170 139v-182l-68 -56l68 -55v-183zM250 366l170 139v-182l-68 -56l68 -55v-183l-170 139v198z" />
    <glyph glyph-name="logicalnot" unicode="&#xac;" horiz-adv-x="528" 
d="M21 301v172h486v-324h-188v152h-298z" />
    <glyph glyph-name="uni00AD" unicode="&#xad;" horiz-adv-x="355" 
d="M334 193h-313v172h313v-172z" />
    <glyph glyph-name="registered" unicode="&#xae;" horiz-adv-x="558" 
d="M88 653q78 75 191 75t191 -75q78 -77 78 -186t-78 -184q-77 -76 -191 -76t-191 76q-78 75 -78 184t78 186zM135 325q59 -57 144 -57q87 0 145 57t58 142q0 86 -58 143q-59 57 -145 57q-87 0 -145 -57t-58 -143q0 -85 59 -142zM392 403l2 -34q1 -22 10 -29h-81
q-6 11 -7 29l-2 28q-1 17 -7.5 23t-22.5 6h-33v-86h-78v258h127q46 0 71.5 -20.5t25.5 -57.5q0 -39 -34 -58q27 -15 29 -59zM251 535v-50h38q27 0 27 25t-27 25h-38z" />
    <glyph glyph-name="overscore" unicode="&#xaf;" horiz-adv-x="500" 
d="M387 561h-374v135h374v-135z" />
    <glyph glyph-name="degree" unicode="&#xb0;" horiz-adv-x="377" 
d="M317 431q-49 -48 -128 -48t-128 48q-51 48 -51 122q0 73 51 121q49 48 128 48t128 -48q50 -48 50 -121q0 -74 -50 -122zM189 493q26 0 42.5 16.5t16.5 43.5q0 26 -16.5 42t-42.5 16q-27 0 -43.5 -16t-16.5 -42q0 -27 16.5 -43.5t43.5 -16.5z" />
    <glyph glyph-name="plusminus" unicode="&#xb1;" horiz-adv-x="528" 
d="M358 594v-103h149v-169h-149v-107h-188v107h-149v169h149v103h188zM507 0h-486v172h486v-172z" />
    <glyph glyph-name="two.sups" unicode="&#xb2;" horiz-adv-x="374" 
d="M239 676l-19 -9q-29 -15 -40 -27h177v-112h-342v26q0 140 129 199l33 15q27 13 37.5 22.5t10.5 21.5q0 26 -31 26q-35 0 -38 -44h-130q4 75 48 115.5t120 40.5q79 0 122.5 -33t43.5 -93q0 -53 -26.5 -85t-94.5 -63z" />
    <glyph glyph-name="three.sups" unicode="&#xb3;" horiz-adv-x="381" 
d="M311 747q62 -27 62 -96q0 -60 -48 -96t-131 -36q-169 0 -178 159h129q1 -27 11.5 -37t34.5 -10q43 0 43 31t-42 31h-34v96h33q42 0 42 28q0 27 -39 27q-35 0 -40 -38h-129q7 144 170 144q79 0 123.5 -31t44.5 -84q0 -58 -52 -88z" />
    <glyph glyph-name="acute" unicode="&#xb4;" horiz-adv-x="500" 
d="M-158 559h-188l89 154h247z" />
    <glyph glyph-name="uni00B5" unicode="&#xb5;" horiz-adv-x="612" 
d="M368 230v286h208v-516h-204v59q-58 -67 -133 -70v-185h-203v712h208v-293q0 -59 57 -59q29 0 48 17t19 49z" />
    <glyph glyph-name="paragraph" unicode="&#xb6;" horiz-adv-x="636" 
d="M386 0h-150v363q-100 0 -159.5 45.5t-59.5 126.5q0 177 236 177h343v-712h-149v576h-61v-576z" />
    <glyph glyph-name="middot" unicode="&#xb7;" horiz-adv-x="299" 
d="M263 257h-227v220h227v-220z" />
    <glyph glyph-name="cedilla" unicode="&#xb8;" horiz-adv-x="500" 
d="M198 -42h9q57 0 89.5 -25t32.5 -68q0 -49 -43.5 -78.5t-124.5 -29.5q-34 0 -90 8v72q32 -5 54 -5q71 0 71 38q0 36 -56 36q-16 0 -36 -3v47l46 55h88z" />
    <glyph glyph-name="one.sups" unicode="&#xb9;" horiz-adv-x="259" 
d="M129 941h105v-413h-134v242h-85v92q90 0 114 79z" />
    <glyph glyph-name="ordmasculine" unicode="&#xba;" horiz-adv-x="516" 
d="M439 316q-67 -64 -182 -64t-180 64q-67 63 -67 170q0 108 66.5 171.5t180.5 63.5q115 0 182 -63.5t67 -171.5q0 -107 -67 -170zM257 393q69 0 69 94q0 93 -69 93q-67 0 -67 -93q0 -94 67 -94z" />
    <glyph glyph-name="guillemotright" unicode="&#xbb;" horiz-adv-x="460" 
d="M108 267l-68 56v182l170 -139v-198l-170 -139v183zM250 323v182l170 -139v-198l-170 -139v183l68 55z" />
    <glyph glyph-name="onequarter" unicode="&#xbc;" horiz-adv-x="755" 
d="M234 712v-413h-134v242h-85v92q90 0 114 79h105zM116 0l380 712h114l-380 -712h-114zM694 181h46v-108h-46v-73h-134v73h-173v128l171 212h136v-232zM563 181v97l-78 -97h78z" />
    <glyph glyph-name="onehalf" unicode="&#xbd;" horiz-adv-x="785" 
d="M234 712v-413h-134v242h-85v92q90 0 114 79h105zM114 0l380 712h114l-380 -712h-114zM650 148l-19 -9q-29 -15 -40 -27h177v-112h-342v26q0 140 129 199l33 15q27 13 37.5 22.5t10.5 21.5q0 26 -31 26q-35 0 -38 -44h-130q4 75 48 115.5t120 40.5q79 0 122.5 -33
t43.5 -93q0 -53 -26.5 -85t-94.5 -63z" />
    <glyph glyph-name="threequarters" unicode="&#xbe;" horiz-adv-x="859" 
d="M373 422q0 -60 -48 -96t-131 -36q-169 0 -178 159h129q1 -27 11.5 -37t34.5 -10q43 0 43 31t-42 31h-34v96h33q42 0 42 28q0 27 -39 27q-35 0 -40 -38h-129q7 144 170 144q79 0 123.5 -31t44.5 -84q0 -58 -52 -88q62 -27 62 -96zM219 0l380 712h114l-380 -712h-114z
M798 181h46v-108h-46v-73h-134v73h-173v128l171 212h136v-232zM667 181v97l-78 -97h78z" />
    <glyph glyph-name="questiondown" unicode="&#xbf;" horiz-adv-x="574" 
d="M410 366h-227v220h227v-220zM281 -142q-121 0 -195 50q-74 51 -74 140q0 107 103 170q58 36 66 43q11 9 13.5 19t2.5 36h199q0 -55 -5 -80q-6 -23 -23 -48q-20 -27 -69 -51q-33 -15 -46 -27t-16 -35q0 -49 54 -49q40 0 52.5 15.5t12.5 57.5h206q-1 -241 -281 -241z" />
    <glyph glyph-name="Agrave" unicode="&#xc0;" horiz-adv-x="754" 
d="M398 909l89 -154h-188l-148 154h247zM763 0h-234l-28 93h-256l-28 -93h-226l241 712h276zM342 422l-49 -164h158l-49 164q-18 64 -30 106z" />
    <glyph glyph-name="Aacute" unicode="&#xc1;" horiz-adv-x="754" 
d="M351 909h247l-148 -154h-188zM763 0h-234l-28 93h-256l-28 -93h-226l241 712h276zM342 422l-49 -164h158l-49 164q-18 64 -30 106z" />
    <glyph glyph-name="Acircumflex" unicode="&#xc2;" horiz-adv-x="754" 
d="M422 755l-45 63l-45 -63h-210l130 154h250l130 -154h-210zM763 0h-234l-28 93h-256l-28 -93h-226l241 712h276zM342 422l-49 -164h158l-49 164q-18 64 -30 106z" />
    <glyph glyph-name="Atilde" unicode="&#xc3;" horiz-adv-x="754" 
d="M317 799q-29 0 -30 -40h-129q0 86 34 129.5t90 43.5q42 0 92 -22q40 -18 63 -18q29 0 30 40h129q0 -84 -34.5 -128.5t-89.5 -44.5q-34 0 -91 23q-43 17 -64 17zM763 0h-234l-28 93h-256l-28 -93h-226l241 712h276zM342 422l-49 -164h158l-49 164q-18 64 -30 106z" />
    <glyph glyph-name="Adieresis" unicode="&#xc4;" horiz-adv-x="754" 
d="M153 909h196v-154h-196v154zM405 909h196v-154h-196v154zM763 0h-234l-28 93h-256l-28 -93h-226l241 712h276zM342 422l-49 -164h158l-49 164q-18 64 -30 106z" />
    <glyph glyph-name="Aring" unicode="&#xc5;" horiz-adv-x="754" 
d="M763 0h-234l-28 93h-256l-28 -93h-226l231 683q-25 40 -25 90q0 74 52 122q53 48 128 48t128 -48q52 -48 52 -122q0 -59 -34 -102zM422 818q-27 28 -69 12t-39 -57q0 -26 18.5 -43.5t44.5 -17.5t44.5 17.5t18.5 43.5q0 27 -18 45zM342 422l-49 -164h158l-49 164
q-18 64 -30 106z" />
    <glyph glyph-name="AE" unicode="&#xc6;" horiz-adv-x="1148" 
d="M1123 712v-194h-358v-70h331v-187h-331v-67h358v-194h-584v133h-250l-60 -133h-238l345 712h787zM478 547l-114 -249h175v249h-61z" />
    <glyph glyph-name="Ccedilla" unicode="&#xc7;" horiz-adv-x="774" 
d="M399 174q104 0 128 96h231q-20 -114 -104 -191q-83 -77 -209 -94l-39 -45h9q57 0 89.5 -25t32.5 -68q0 -49 -43.5 -78.5t-124.5 -29.5q-34 0 -90 8v72q32 -5 54 -5q71 0 71 38q0 36 -56 36q-16 0 -36 -3v47l43 51q-151 10 -243 112q-93 101 -93 262q0 171 103 271
t279 100q150 0 241.5 -76t116.5 -213h-233q-25 97 -130 97q-143 0 -143 -179q0 -91 38 -137t108 -46z" />
    <glyph glyph-name="Egrave" unicode="&#xc8;" horiz-adv-x="649" 
d="M358 909l89 -154h-188l-148 154h247zM624 712v-194h-358v-70h331v-187h-331v-67h358v-194h-584v712h584z" />
    <glyph glyph-name="Eacute" unicode="&#xc9;" horiz-adv-x="649" 
d="M311 909h247l-148 -154h-188zM624 712v-194h-358v-70h331v-187h-331v-67h358v-194h-584v712h584z" />
    <glyph glyph-name="Ecircumflex" unicode="&#xca;" horiz-adv-x="649" 
d="M382 755l-45 63l-45 -63h-210l130 154h250l130 -154h-210zM624 712v-194h-358v-70h331v-187h-331v-67h358v-194h-584v712h584z" />
    <glyph glyph-name="Edieresis" unicode="&#xcb;" horiz-adv-x="649" 
d="M113 909h196v-154h-196v154zM365 909h196v-154h-196v154zM624 712v-194h-358v-70h331v-187h-331v-67h358v-194h-584v712h584z" />
    <glyph glyph-name="Igrave" unicode="&#xcc;" horiz-adv-x="306" 
d="M263 755h-188l-148 154h247zM266 0h-226v712h226v-712z" />
    <glyph glyph-name="Iacute" unicode="&#xcd;" horiz-adv-x="306" 
d="M374 909l-148 -154h-188l89 154h247zM266 0h-226v712h226v-712z" />
    <glyph glyph-name="Icircumflex" unicode="&#xce;" horiz-adv-x="306" 
d="M198 755l-45 63l-45 -63h-210l130 154h250l130 -154h-210zM266 0h-226v712h226v-712z" />
    <glyph glyph-name="Idieresis" unicode="&#xcf;" horiz-adv-x="306" 
d="M125 755h-190v154h190v-154zM371 755h-190v154h190v-154zM266 0h-226v712h226v-712z" />
    <glyph glyph-name="Eth" unicode="&#xd0;" horiz-adv-x="781" 
d="M77 712h336q349 0 349 -356t-352 -356h-333v304h-77v105h77v303zM303 188h96q70 0 99.5 38t29.5 130t-29.5 130t-99.5 38h-96v-115h127v-105h-127v-116z" />
    <glyph glyph-name="Ntilde" unicode="&#xd1;" horiz-adv-x="748" 
d="M314 799q-29 0 -30 -40h-129q0 86 34 129.5t90 43.5q42 0 92 -22q41 -18 63 -18q29 0 30 40h129q0 -84 -34.5 -128.5t-89.5 -44.5q-34 0 -91 23q-43 17 -64 17zM488 596v116h220v-712h-235l-150 253q-38 63 -67 119q4 -100 4 -256v-116h-220v712h235l147 -253
q27 -46 69 -134q-3 89 -3 271z" />
    <glyph glyph-name="Ograve" unicode="&#xd2;" horiz-adv-x="792" 
d="M506 755h-188l-148 154h247zM396 -17q-170 0 -273 102q-104 101 -104 271q0 169 105 271q104 101 272 101q167 0 273 -101q104 -102 104 -271q0 -170 -104 -271q-105 -102 -273 -102zM292 220q38 -45 104 -45t105 45q38 44 38 136q0 89 -37.5 134.5t-105.5 45.5
t-105.5 -45.5t-37.5 -134.5q0 -92 39 -136z" />
    <glyph glyph-name="Oacute" unicode="&#xd3;" horiz-adv-x="792" 
d="M469 755h-188l89 154h247zM396 -17q-170 0 -273 102q-104 101 -104 271q0 169 105 271q104 101 272 101q167 0 273 -101q104 -102 104 -271q0 -170 -104 -271q-105 -102 -273 -102zM292 220q38 -45 104 -45t105 45q38 44 38 136q0 89 -37.5 134.5t-105.5 45.5
t-105.5 -45.5t-37.5 -134.5q0 -92 39 -136z" />
    <glyph glyph-name="Ocircumflex" unicode="&#xd4;" horiz-adv-x="792" 
d="M441 755l-45 63l-45 -63h-210l130 154h250l130 -154h-210zM124 627q104 101 272 101q167 0 273 -101q104 -102 104 -271q0 -170 -104 -271q-105 -102 -273 -102q-170 0 -273 102q-104 101 -104 271q0 169 105 271zM292 220q38 -45 104 -45t105 45q38 44 38 136
q0 89 -37.5 134.5t-105.5 45.5t-105.5 -45.5t-37.5 -134.5q0 -92 39 -136z" />
    <glyph glyph-name="Otilde" unicode="&#xd5;" horiz-adv-x="792" 
d="M306 759h-129q0 86 34 129.5t90 43.5q42 0 92 -22q41 -18 63 -18q29 0 30 40h129q0 -84 -34.5 -128.5t-89.5 -44.5q-34 0 -91 23q-43 17 -64 17q-29 0 -30 -40zM396 -17q-170 0 -273 102q-104 101 -104 271q0 169 105 271q104 101 272 101q167 0 273 -101
q104 -102 104 -271q0 -170 -104 -271q-105 -102 -273 -102zM292 220q38 -45 104 -45t105 45q38 44 38 136q0 89 -37.5 134.5t-105.5 45.5t-105.5 -45.5t-37.5 -134.5q0 -92 39 -136z" />
    <glyph glyph-name="Odieresis" unicode="&#xd6;" horiz-adv-x="792" 
d="M368 755h-196v154h196v-154zM620 755h-196v154h196v-154zM396 -17q-170 0 -273 102q-104 101 -104 271q0 169 105 271q104 101 272 101q167 0 273 -101q104 -102 104 -271q0 -170 -104 -271q-105 -102 -273 -102zM292 220q38 -45 104 -45t105 45q38 44 38 136
q0 89 -37.5 134.5t-105.5 45.5t-105.5 -45.5t-37.5 -134.5q0 -92 39 -136z" />
    <glyph glyph-name="multiply" unicode="&#xd7;" horiz-adv-x="526" 
d="M384 597l120 -120l-120 -119l120 -120l-120 -120l-121 120l-121 -120l-120 120l120 120l-120 119l120 120l121 -120z" />
    <glyph glyph-name="Oslash" unicode="&#xd8;" horiz-adv-x="788" 
d="M766 693l-79 -89q84 -96 84 -248q0 -170 -104 -271q-105 -102 -273 -102q-119 0 -210 53l-80 -90l-82 73l78 88q-83 100 -83 249q0 169 105 271q104 101 272 101q118 0 209 -53l81 91zM251 356q0 -38 7 -70l207 233q-29 17 -71 17q-68 0 -105.5 -45.5t-37.5 -134.5z
M394 175q68 0 105.5 45.5t37.5 135.5q0 38 -7 70l-208 -234q31 -17 72 -17z" />
    <glyph glyph-name="Ugrave" unicode="&#xd9;" horiz-adv-x="712" 
d="M466 755h-188l-148 154h247zM598 56q-85 -73 -242 -73q-158 0 -241 73q-85 73 -85 206v450h226v-444q0 -93 100 -93t100 93v444h226v-450q0 -132 -84 -206z" />
    <glyph glyph-name="Uacute" unicode="&#xda;" horiz-adv-x="712" 
d="M429 755h-188l89 154h247zM598 56q-85 -73 -242 -73q-158 0 -241 73q-85 73 -85 206v450h226v-444q0 -93 100 -93t100 93v444h226v-450q0 -132 -84 -206z" />
    <glyph glyph-name="Ucircumflex" unicode="&#xdb;" horiz-adv-x="712" 
d="M401 755l-45 63l-45 -63h-210l130 154h250l130 -154h-210zM456 268v444h226v-450q0 -133 -85 -206t-241 -73t-241 73t-85 206v450h226v-444q0 -93 100 -93t100 93z" />
    <glyph glyph-name="Udieresis" unicode="&#xdc;" horiz-adv-x="712" 
d="M328 755h-196v154h196v-154zM580 755h-196v154h196v-154zM598 56q-85 -73 -242 -73q-158 0 -241 73q-85 73 -85 206v450h226v-444q0 -93 100 -93t100 93v444h226v-450q0 -132 -84 -206z" />
    <glyph glyph-name="Yacute" unicode="&#xdd;" horiz-adv-x="695" 
d="M322 909h247l-148 -154h-188zM421 622l42 90h241l-239 -441v-271h-226v271l-248 441h244l46 -90q47 -93 74 -153q31 77 66 153z" />
    <glyph glyph-name="Thorn" unicode="&#xde;" horiz-adv-x="683" 
d="M266 611h121q131 0 205 -68t74 -186t-74 -186t-205 -68h-121v-103h-226v712h226v-101zM266 289h101q77 0 77 68t-77 68h-101v-136z" />
    <glyph glyph-name="germandbls" unicode="&#xdf;" horiz-adv-x="647" 
d="M510 399q120 -41 120 -177q0 -106 -72 -165t-207 -59q-32 0 -58 2v154q24 -2 34 -2q95 0 95 77q0 39 -24.5 56.5t-78.5 17.5h-26v135h26q74 0 74 61q0 31 -19.5 47.5t-54.5 16.5q-36 0 -55.5 -17.5t-19.5 -49.5v-496h-208v479q0 249 276 249q128 0 199 -51.5t71 -143.5
q0 -91 -72 -134z" />
    <glyph glyph-name="agrave" unicode="&#xe0;" horiz-adv-x="613" 
d="M338 713l89 -154h-188l-148 154h247zM595 0h-209q-14 27 -15 60q-45 -77 -166 -77q-88 0 -139 41t-51 118q0 71 47.5 110.5t149.5 49.5l94 9q33 3 47.5 12t14.5 27q0 38 -58 38q-31 0 -45.5 -11t-16.5 -40h-208q4 98 69 144.5t204 46.5q263 0 263 -165v-281q0 -44 19 -82
zM287 113q81 0 81 84v34q-10 -17 -45 -21l-48 -6q-49 -6 -49 -45q0 -46 61 -46z" />
    <glyph glyph-name="aacute" unicode="&#xe1;" horiz-adv-x="613" 
d="M281 713h247l-148 -154h-188zM595 0h-209q-14 27 -15 60q-45 -77 -166 -77q-88 0 -139 41t-51 118q0 71 47.5 110.5t149.5 49.5l94 9q33 3 47.5 12t14.5 27q0 38 -58 38q-31 0 -45.5 -11t-16.5 -40h-208q4 98 69 144.5t204 46.5q263 0 263 -165v-281q0 -44 19 -82z
M287 113q81 0 81 84v34q-10 -17 -45 -21l-48 -6q-49 -6 -49 -45q0 -46 61 -46z" />
    <glyph glyph-name="acircumflex" unicode="&#xe2;" horiz-adv-x="613" 
d="M352 559l-45 63l-45 -63h-210l130 153h250l130 -153h-210zM595 0h-209q-14 27 -15 60q-45 -77 -166 -77q-88 0 -139 41t-51 118q0 71 47.5 110.5t149.5 49.5l94 9q33 3 47.5 12t14.5 27q0 38 -58 38q-31 0 -45.5 -11t-16.5 -40h-208q4 98 69 144.5t204 46.5
q263 0 263 -165v-281q0 -44 19 -82zM287 113q81 0 81 84v34q-10 -17 -45 -21l-48 -6q-49 -6 -49 -45q0 -46 61 -46z" />
    <glyph glyph-name="atilde" unicode="&#xe3;" horiz-adv-x="613" 
d="M247 598q-29 0 -30 -40h-129q0 86 34 129.5t90 43.5q42 0 92 -22q40 -18 63 -18q29 0 30 40h129q0 -84 -34.5 -128.5t-89.5 -44.5q-37 0 -91 23q-39 17 -64 17zM595 0h-209q-14 27 -15 60q-45 -77 -166 -77q-88 0 -139 41t-51 118q0 71 47.5 110.5t149.5 49.5l94 9
q33 3 47.5 12t14.5 27q0 38 -58 38q-31 0 -45.5 -11t-16.5 -40h-208q4 98 69 144.5t204 46.5q263 0 263 -165v-281q0 -44 19 -82zM287 113q81 0 81 84v34q-10 -17 -45 -21l-48 -6q-49 -6 -49 -45q0 -46 61 -46z" />
    <glyph glyph-name="adieresis" unicode="&#xe4;" horiz-adv-x="613" 
d="M83 714h196v-156h-196v156zM335 714h196v-156h-196v156zM595 0h-209q-14 27 -15 60q-45 -77 -166 -77q-88 0 -139 41t-51 118q0 71 47.5 110.5t149.5 49.5l94 9q33 3 47.5 12t14.5 27q0 38 -58 38q-31 0 -45.5 -11t-16.5 -40h-208q4 98 69 144.5t204 46.5q263 0 263 -165
v-281q0 -44 19 -82zM287 113q81 0 81 84v34q-10 -17 -45 -21l-48 -6q-49 -6 -49 -45q0 -46 61 -46z" />
    <glyph glyph-name="aring" unicode="&#xe5;" horiz-adv-x="613" 
d="M435 595q-53 -48 -128 -48t-128 48q-52 46 -52 121q0 74 52 122q53 48 128 48t128 -48q52 -48 52 -122q0 -75 -52 -121zM352 761q-27 28 -69 12t-39 -57q0 -26 18.5 -43.5t44.5 -17.5t44.5 17.5t18.5 43.5q0 27 -18 45zM595 0h-209q-14 27 -15 60q-45 -77 -166 -77
q-88 0 -139 41t-51 118q0 71 47.5 110.5t149.5 49.5l94 9q33 3 47.5 12t14.5 27q0 38 -58 38q-31 0 -45.5 -11t-16.5 -40h-208q4 98 69 144.5t204 46.5q263 0 263 -165v-281q0 -44 19 -82zM287 113q81 0 81 84v34q-10 -17 -45 -21l-48 -6q-49 -6 -49 -45q0 -46 61 -46z" />
    <glyph glyph-name="ae" unicode="&#xe6;" horiz-adv-x="960" 
d="M943 264q0 -29 -4 -58h-376q2 -36 28.5 -57.5t70.5 -21.5q49 0 74 28h194q-25 -78 -100 -122.5t-178 -44.5q-126 0 -203 68q-77 -73 -213 -73q-221 0 -221 159q0 72 47 111t150 49l94 9q33 3 47.5 12t14.5 27q0 38 -58 38q-31 0 -45.5 -11t-16.5 -40h-205q7 191 261 191
q120 0 179 -45q71 45 174 45q129 0 208 -70q78 -71 78 -194zM654 390q-76 0 -88 -76h177q-7 76 -89 76zM287 113q81 0 81 84v34q-10 -17 -45 -21l-48 -6q-49 -6 -49 -45q0 -46 61 -46z" />
    <glyph glyph-name="ccedilla" unicode="&#xe7;" horiz-adv-x="598" 
d="M302 148q66 0 79 69h205q-8 -91 -67.5 -150.5t-157.5 -74.5l-39 -46h9q57 0 89.5 -25t32.5 -68q0 -49 -43.5 -78.5t-124.5 -29.5q-34 0 -90 8v72q32 -5 54 -5q71 0 71 38q0 36 -56 36q-16 0 -36 -3v47l43 51q-119 9 -186.5 80.5t-67.5 188.5q0 124 78 197q76 73 212 73
q126 0 199 -61q72 -61 80 -159h-207q-13 60 -76 60q-42 0 -60 -26t-18 -84q0 -60 17.5 -85t59.5 -25z" />
    <glyph glyph-name="egrave" unicode="&#xe8;" horiz-adv-x="609" 
d="M336 713l89 -154h-188l-148 154h247zM592 264q0 -29 -4 -58h-376q4 -79 99 -79q53 0 74 28h194q-23 -80 -95 -123.5t-177 -43.5q-135 0 -212.5 71.5t-77.5 196.5q0 123 78 198q79 74 211 74q129 0 208 -70q78 -71 78 -194zM303 390q-76 0 -88 -76h177q-7 76 -89 76z" />
    <glyph glyph-name="eacute" unicode="&#xe9;" horiz-adv-x="609" 
d="M279 713h247l-148 -154h-188zM592 264q0 -29 -4 -58h-376q4 -79 99 -79q53 0 74 28h194q-23 -80 -95 -123.5t-177 -43.5q-135 0 -212.5 71.5t-77.5 196.5q0 123 78 198q79 74 211 74q129 0 208 -70q78 -71 78 -194zM303 390q-76 0 -88 -76h177q-7 76 -89 76z" />
    <glyph glyph-name="ecircumflex" unicode="&#xea;" horiz-adv-x="609" 
d="M350 559l-45 63l-45 -63h-210l130 153h250l130 -153h-210zM592 264q0 -29 -4 -58h-376q4 -79 99 -79q53 0 74 28h194q-23 -80 -95 -123.5t-177 -43.5q-135 0 -212.5 71.5t-77.5 196.5q0 123 78 198q79 74 211 74q129 0 208 -70q78 -71 78 -194zM303 390q-76 0 -88 -76
h177q-7 76 -89 76z" />
    <glyph glyph-name="edieresis" unicode="&#xeb;" horiz-adv-x="609" 
d="M81 714h196v-156h-196v156zM333 714h196v-156h-196v156zM592 264q0 -29 -4 -58h-376q4 -79 99 -79q53 0 74 28h194q-23 -80 -95 -123.5t-177 -43.5q-135 0 -212.5 71.5t-77.5 196.5q0 123 78 198q79 74 211 74q129 0 208 -70q78 -71 78 -194zM303 390q-76 0 -88 -76h177
q-7 76 -89 76z" />
    <glyph glyph-name="igrave" unicode="&#xec;" horiz-adv-x="280" 
d="M260 559h-188l-148 154h247zM244 0h-208v516h208v-516z" />
    <glyph glyph-name="iacute" unicode="&#xed;" horiz-adv-x="280" 
d="M223 559h-188l89 154h247zM244 0h-208v516h208v-516z" />
    <glyph glyph-name="icircumflex" unicode="&#xee;" horiz-adv-x="280" 
d="M185 559l-45 69l-45 -69h-200l120 163h250l120 -163h-200zM244 0h-208v516h208v-516z" />
    <glyph glyph-name="idieresis" unicode="&#xef;" horiz-adv-x="280" 
d="M112 558h-190v156h190v-156zM358 558h-190v156h190v-156zM244 0h-208v516h208v-516z" />
    <glyph glyph-name="eth" unicode="&#xf0;" horiz-adv-x="622" 
d="M547 623l-81 -21q139 -155 139 -330q0 -135 -76.5 -209.5t-217.5 -74.5q-135 0 -215 72q-79 70 -79 190t77 188q76 67 187 67q47 0 80 -10q-23 31 -54 66l-185 -48v100l103 27l-83 72h208l36 -31l161 42v-100zM225 247q0 -104 86 -104t86 104q0 55 -23 83t-63 28
q-86 0 -86 -111z" />
    <glyph glyph-name="ntilde" unicode="&#xf1;" horiz-adv-x="615" 
d="M262 598q-29 0 -30 -40h-129q0 86 34 129.5t90 43.5q42 0 92 -22q41 -18 63 -18q29 0 30 40h129q0 -84 -34.5 -128.5t-89.5 -44.5q-37 0 -91 23q-39 17 -64 17zM403 528q176 0 176 -208v-320h-208v286q0 68 -59 68q-30 0 -49 -17.5t-19 -51.5v-285h-208v516h204v-75h3
q48 87 160 87z" />
    <glyph glyph-name="ograve" unicode="&#xf2;" horiz-adv-x="620" 
d="M429 559h-188l-148 154h247zM523 62q-82 -74 -213 -74q-132 0 -212 74q-81 74 -81 195t81 196q82 74 212 74t212 -74q81 -75 81 -196t-80 -195zM225 256q0 -108 85 -108t85 108q0 55 -22.5 83t-62.5 28q-85 0 -85 -111z" />
    <glyph glyph-name="oacute" unicode="&#xf3;" horiz-adv-x="620" 
d="M382 559h-188l89 154h247zM523 62q-82 -74 -213 -74q-132 0 -212 74q-81 74 -81 195t81 196q82 74 212 74t212 -74q81 -75 81 -196t-80 -195zM225 256q0 -108 85 -108t85 108q0 55 -22.5 83t-62.5 28q-85 0 -85 -111z" />
    <glyph glyph-name="ocircumflex" unicode="&#xf4;" horiz-adv-x="620" 
d="M354 559l-45 63l-45 -63h-210l130 153h250l130 -153h-210zM98 453q82 74 212 74t212 -74q81 -75 81 -196t-80 -195q-82 -74 -213 -74q-132 0 -212 74q-81 74 -81 195t81 196zM225 256q0 -108 85 -108t85 108q0 55 -22.5 83t-62.5 28q-85 0 -85 -111z" />
    <glyph glyph-name="otilde" unicode="&#xf5;" horiz-adv-x="620" 
d="M219 558h-129q0 86 34 129.5t90 43.5q42 0 92 -22q40 -18 63 -18q29 0 30 40h129q0 -84 -34.5 -128.5t-89.5 -44.5q-37 0 -91 23q-39 17 -64 17q-29 0 -30 -40zM523 62q-82 -74 -213 -74q-132 0 -212 74q-81 74 -81 195t81 196q82 74 212 74t212 -74q81 -75 81 -196
t-80 -195zM225 256q0 -108 85 -108t85 108q0 55 -22.5 83t-62.5 28q-85 0 -85 -111z" />
    <glyph glyph-name="odieresis" unicode="&#xf6;" horiz-adv-x="620" 
d="M281 558h-196v156h196v-156zM533 558h-196v156h196v-156zM523 62q-82 -74 -213 -74q-132 0 -212 74q-81 74 -81 195t81 196q82 74 212 74t212 -74q81 -75 81 -196t-80 -195zM225 256q0 -108 85 -108t85 108q0 55 -22.5 83t-62.5 28q-85 0 -85 -111z" />
    <glyph glyph-name="divide" unicode="&#xf7;" horiz-adv-x="528" 
d="M357 483h-186v147h186v-147zM507 271h-486v172h486v-172zM357 83h-186v147h186v-147z" />
    <glyph glyph-name="oslash" unicode="&#xf8;" horiz-adv-x="618" 
d="M592 509l-60 -67q70 -73 70 -185q0 -121 -80 -195q-82 -74 -212 -74q-85 0 -152 32l-64 -72l-66 58l59 66q-70 71 -70 185q0 121 81 196q82 74 212 74q84 0 151 -33l65 73zM216 256q0 -20 3 -35l132 148q-19 9 -42 9q-93 0 -93 -122zM309 137q94 0 94 119q0 20 -3 37
l-131 -148q18 -8 40 -8z" />
    <glyph glyph-name="ugrave" unicode="&#xf9;" horiz-adv-x="615" 
d="M339 713l89 -154h-188l-148 154h247zM371 231v285h208v-516h-204v75h-3q-48 -87 -160 -87q-176 0 -176 208v320h208v-286q0 -68 59 -68q30 0 49 17.5t19 51.5z" />
    <glyph glyph-name="uacute" unicode="&#xfa;" horiz-adv-x="615" 
d="M282 713h247l-148 -154h-188zM371 231v285h208v-516h-204v75h-3q-48 -87 -160 -87q-176 0 -176 208v320h208v-286q0 -68 59 -68q30 0 49 17.5t19 51.5z" />
    <glyph glyph-name="ucircumflex" unicode="&#xfb;" horiz-adv-x="615" 
d="M353 559l-45 63l-45 -63h-210l130 153h250l130 -153h-210zM371 231v285h208v-516h-204v75h-3q-48 -87 -160 -87q-176 0 -176 208v320h208v-286q0 -68 59 -68q30 0 49 17.5t19 51.5z" />
    <glyph glyph-name="udieresis" unicode="&#xfc;" horiz-adv-x="615" 
d="M84 714h196v-156h-196v156zM336 714h196v-156h-196v156zM371 231v285h208v-516h-204v75h-3q-48 -87 -160 -87q-176 0 -176 208v320h208v-286q0 -68 59 -68q30 0 49 17.5t19 51.5z" />
    <glyph glyph-name="yacute" unicode="&#xfd;" horiz-adv-x="623" 
d="M276 713h247l-148 -154h-188zM385 422l27 94h213l-203 -524q-47 -122 -107 -160q-61 -38 -185 -38q-37 0 -91 2v160h94q63 0 63 49q0 17 -9 39l-189 472h222l28 -94q28 -99 66 -252q41 147 71 252z" />
    <glyph glyph-name="thorn" unicode="&#xfe;" horiz-adv-x="635" 
d="M244 712v-263q51 79 153 79t162 -73q59 -74 59 -197q0 -122 -59 -196q-60 -74 -162 -74t-153 79v-271h-208v916h208zM322 149q88 0 88 110q0 109 -88 109q-87 0 -87 -109q0 -110 87 -110z" />
    <glyph glyph-name="ydieresis" unicode="&#xff;" horiz-adv-x="623" 
d="M78 714h196v-156h-196v156zM330 714h196v-156h-196v156zM385 422l27 94h213l-203 -524q-47 -122 -107 -160q-61 -38 -185 -38q-37 0 -91 2v160h94q63 0 63 49q0 17 -9 39l-189 472h222l28 -94q28 -99 66 -252q41 147 71 252z" />
    <glyph glyph-name="Amacron" unicode="&#x100;" horiz-adv-x="754" 
d="M190 892h374v-135h-374v135zM763 0h-234l-28 93h-256l-28 -93h-226l241 712h276zM342 422l-49 -164h158l-49 164q-18 64 -30 106z" />
    <glyph glyph-name="amacron" unicode="&#x101;" horiz-adv-x="613" 
d="M120 696h374v-135h-374v135zM595 0h-209q-14 27 -15 60q-45 -77 -166 -77q-88 0 -139 41t-51 118q0 71 47.5 110.5t149.5 49.5l94 9q33 3 47.5 12t14.5 27q0 38 -58 38q-31 0 -45.5 -11t-16.5 -40h-208q4 98 69 144.5t204 46.5q263 0 263 -165v-281q0 -44 19 -82z
M287 113q81 0 81 84v34q-10 -17 -45 -21l-48 -6q-49 -6 -49 -45q0 -46 61 -46z" />
    <glyph glyph-name="Abreve" unicode="&#x102;" horiz-adv-x="754" 
d="M516 789q-52 -41 -139 -41q-88 0 -138 41q-52 41 -59 117h145q3 -47 52 -47q47 0 52 47h145q-7 -76 -58 -117zM763 0h-234l-28 93h-256l-28 -93h-226l241 712h276zM342 422l-49 -164h158l-49 164q-18 64 -30 106z" />
    <glyph glyph-name="abreve" unicode="&#x103;" horiz-adv-x="613" 
d="M446 593q-52 -41 -139 -41q-88 0 -138 41q-52 41 -59 117h145q3 -47 52 -47q47 0 52 47h145q-7 -76 -58 -117zM595 0h-209q-14 27 -15 60q-45 -77 -166 -77q-88 0 -139 41t-51 118q0 71 47.5 110.5t149.5 49.5l94 9q33 3 47.5 12t14.5 27q0 38 -58 38q-31 0 -45.5 -11
t-16.5 -40h-208q4 98 69 144.5t204 46.5q263 0 263 -165v-281q0 -44 19 -82zM287 113q81 0 81 84v34q-10 -17 -45 -21l-48 -6q-49 -6 -49 -45q0 -46 61 -46z" />
    <glyph glyph-name="Aogonek" unicode="&#x104;" horiz-adv-x="754" 
d="M660 -91q0 -38 55 -38q19 0 48 7v-98q-37 -9 -80 -9q-79 0 -122.5 29t-43.5 80q0 36 27.5 68t83.5 52h-99l-28 93h-256l-28 -93h-226l241 712h276l255 -712q-103 -46 -103 -91zM342 422l-49 -164h158l-49 164q-18 64 -30 106z" />
    <glyph glyph-name="aogonek" unicode="&#x105;" horiz-adv-x="613" 
d="M492 -91q0 -38 55 -38q19 0 48 7v-98q-38 -9 -80 -9q-79 0 -122.5 29t-43.5 80q0 36 27.5 68t83.5 52h-74q-14 27 -15 60q-45 -77 -166 -77q-88 0 -139 41t-51 118q0 71 47.5 110.5t149.5 49.5l94 9q33 3 47.5 12t14.5 27q0 38 -58 38q-31 0 -45.5 -11t-16.5 -40h-208
q4 98 69 144.5t204 46.5q263 0 263 -165v-281q0 -44 19 -82q-103 -46 -103 -91zM287 113q81 0 81 84v34q-10 -17 -45 -21l-48 -6q-49 -6 -49 -45q0 -46 61 -46z" />
    <glyph glyph-name="Cacute" unicode="&#x106;" horiz-adv-x="774" 
d="M474 771h-188l89 154h247zM388 -18q-164 0 -266 103q-103 102 -103 272q0 171 103 271t279 100q150 0 241.5 -76t116.5 -213h-233q-25 97 -130 97q-143 0 -143 -179q0 -91 38 -137t108 -46q104 0 128 96h231q-22 -128 -123 -207q-101 -81 -247 -81z" />
    <glyph glyph-name="cacute" unicode="&#x107;" horiz-adv-x="598" 
d="M380 559h-188l89 154h247zM303 -12q-132 0 -209 74t-77 196q0 124 78 197q76 73 212 73q126 0 199 -61q72 -61 80 -159h-207q-13 60 -76 60q-42 0 -60 -26t-18 -84q0 -60 17.5 -85t59.5 -25q66 0 79 69h205q-10 -104 -85.5 -166.5t-197.5 -62.5z" />
    <glyph glyph-name="Ccircumflex" unicode="&#x108;" horiz-adv-x="774" 
d="M446 771l-45 63l-45 -63h-210l130 154h250l130 -154h-210zM399 174q104 0 128 96h231q-22 -128 -123 -207q-101 -81 -247 -81q-164 0 -266 103q-103 102 -103 272q0 171 103 271t279 100q150 0 241.5 -76t116.5 -213h-233q-25 97 -130 97q-143 0 -143 -179q0 -91 38 -137
t108 -46z" />
    <glyph glyph-name="ccircumflex" unicode="&#x109;" horiz-adv-x="598" 
d="M352 559l-45 63l-45 -63h-210l130 153h250l130 -153h-210zM302 148q66 0 79 69h205q-10 -104 -85.5 -166.5t-197.5 -62.5q-132 0 -209 74t-77 196q0 124 78 197q76 73 212 73q126 0 199 -61q72 -61 80 -159h-207q-13 60 -76 60q-42 0 -60 -26t-18 -84q0 -60 17.5 -85
t59.5 -25z" />
    <glyph glyph-name="Cdotaccent" unicode="&#x10a;" horiz-adv-x="774" 
d="M499 774h-196v150h196v-150zM388 -18q-164 0 -266 103q-103 102 -103 272q0 171 103 271t279 100q150 0 241.5 -76t116.5 -213h-233q-25 97 -130 97q-143 0 -143 -179q0 -91 38 -137t108 -46q104 0 128 96h231q-22 -128 -123 -207q-101 -81 -247 -81z" />
    <glyph glyph-name="cdotaccent" unicode="&#x10b;" horiz-adv-x="598" 
d="M411 558h-208v156h208v-156zM303 -12q-132 0 -209 74t-77 196q0 124 78 197q76 73 212 73q126 0 199 -61q72 -61 80 -159h-207q-13 60 -76 60q-42 0 -60 -26t-18 -84q0 -60 17.5 -85t59.5 -25q66 0 79 69h205q-10 -104 -85.5 -166.5t-197.5 -62.5z" />
    <glyph glyph-name="Ccaron" unicode="&#x10c;" horiz-adv-x="774" 
d="M656 924l-130 -153h-250l-130 153h210l45 -63l45 63h210zM399 174q104 0 128 96h231q-22 -128 -123 -207q-101 -81 -247 -81q-164 0 -266 103q-103 102 -103 272q0 171 103 271t279 100q150 0 241.5 -76t116.5 -213h-233q-25 97 -130 97q-143 0 -143 -179q0 -91 38 -137
t108 -46z" />
    <glyph glyph-name="ccaron" unicode="&#x10d;" horiz-adv-x="598" 
d="M562 712l-130 -153h-250l-130 153h210l45 -63l45 63h210zM302 148q66 0 79 69h205q-10 -104 -85.5 -166.5t-197.5 -62.5q-132 0 -209 74t-77 196q0 124 78 197q76 73 212 73q126 0 199 -61q72 -61 80 -159h-207q-13 60 -76 60q-42 0 -60 -26t-18 -84q0 -60 17.5 -85
t59.5 -25z" />
    <glyph glyph-name="Dcaron" unicode="&#x10e;" horiz-adv-x="744" 
d="M631 908l-130 -153h-250l-130 153h210l45 -63l45 63h210zM40 712h336q349 0 349 -356t-352 -356h-333v712zM266 188h96q70 0 99.5 38t29.5 130t-29.5 130t-99.5 38h-96v-336z" />
    <glyph glyph-name="dcaron" unicode="&#x10f;" horiz-adv-x="843" 
d="M391 449v263h208v-712h-202v77q-50 -89 -159 -89q-102 0 -161 74q-60 74 -60 196q0 124 60 197q58 73 161 73q102 0 153 -79zM637 529l24 183h192l-87 -183h-129zM313 148q87 0 87 109q0 110 -87 110q-88 0 -88 -110q0 -109 88 -109z" />
    <glyph glyph-name="Dcroat" unicode="&#x110;" horiz-adv-x="781" 
d="M77 712h336q349 0 349 -356t-352 -356h-333v304h-77v105h77v303zM303 188h96q70 0 99.5 38t29.5 130t-29.5 130t-99.5 38h-96v-115h127v-105h-127v-116z" />
    <glyph glyph-name="dslash" unicode="&#x111;" horiz-adv-x="681" 
d="M599 672h82v-105h-82v-567h-202v77q-50 -89 -159 -89q-102 0 -161 74q-60 74 -60 196q0 124 60 197q58 73 161 73q102 0 153 -79v118h-117v105h117v40h208v-40zM313 148q87 0 87 109q0 110 -87 110q-88 0 -88 -110q0 -109 88 -109z" />
    <glyph glyph-name="Emacron" unicode="&#x112;" horiz-adv-x="649" 
d="M150 892h374v-135h-374v135zM624 712v-194h-358v-70h331v-187h-331v-67h358v-194h-584v712h584z" />
    <glyph glyph-name="emacron" unicode="&#x113;" horiz-adv-x="609" 
d="M118 696h374v-135h-374v135zM592 264q0 -29 -4 -58h-376q4 -79 99 -79q53 0 74 28h194q-23 -80 -95 -123.5t-177 -43.5q-135 0 -212.5 71.5t-77.5 196.5q0 123 78 198q79 74 211 74q129 0 208 -70q78 -71 78 -194zM303 390q-76 0 -88 -76h177q-7 76 -89 76z" />
    <glyph glyph-name="Ebreve" unicode="&#x114;" horiz-adv-x="649" 
d="M476 789q-52 -41 -139 -41q-88 0 -138 41q-52 41 -59 117h145q3 -47 52 -47q47 0 52 47h145q-7 -76 -58 -117zM624 712v-194h-358v-70h331v-187h-331v-67h358v-194h-584v712h584z" />
    <glyph glyph-name="ebreve" unicode="&#x115;" horiz-adv-x="609" 
d="M444 593q-52 -41 -139 -41q-88 0 -138 41q-52 41 -59 117h145q3 -47 52 -47q47 0 52 47h145q-7 -76 -58 -117zM592 264q0 -29 -4 -58h-376q4 -79 99 -79q53 0 74 28h194q-23 -80 -95 -123.5t-177 -43.5q-135 0 -212.5 71.5t-77.5 196.5q0 123 78 198q79 74 211 74
q129 0 208 -70q78 -71 78 -194zM303 390q-76 0 -88 -76h177q-7 76 -89 76z" />
    <glyph glyph-name="Edotaccent" unicode="&#x116;" horiz-adv-x="649" 
d="M239 908h196v-150h-196v150zM624 712v-194h-358v-70h331v-187h-331v-67h358v-194h-584v712h584z" />
    <glyph glyph-name="edotaccent" unicode="&#x117;" horiz-adv-x="609" 
d="M201 714h208v-156h-208v156zM592 264q0 -29 -4 -58h-376q4 -79 99 -79q53 0 74 28h194q-23 -80 -95 -123.5t-177 -43.5q-135 0 -212.5 71.5t-77.5 196.5q0 123 78 198q79 74 211 74q129 0 208 -70q78 -71 78 -194zM303 390q-76 0 -88 -76h177q-7 76 -89 76z" />
    <glyph glyph-name="Eogonek" unicode="&#x118;" horiz-adv-x="649" 
d="M624 712v-194h-358v-70h331v-187h-331v-67h358v-194q-103 -46 -103 -91q0 -38 55 -38q19 0 48 7v-98q-38 -9 -80 -9q-79 0 -122.5 29t-43.5 80q0 36 27.5 68t83.5 52h-449v712h584z" />
    <glyph glyph-name="eogonek" unicode="&#x119;" horiz-adv-x="609" 
d="M592 264q0 -29 -4 -58h-376q4 -79 99 -79q53 0 74 28h194q-18 -62 -67 -103t-123 -56q-94 -43 -94 -87q0 -38 55 -38q19 0 48 7v-98q-38 -9 -80 -9q-79 0 -122.5 29t-43.5 80q0 71 92 112q-108 17 -167.5 85.5t-59.5 178.5q0 123 78 198q79 74 211 74q129 0 208 -70
q78 -71 78 -194zM303 390q-76 0 -88 -76h177q-7 76 -89 76z" />
    <glyph glyph-name="Ecaron" unicode="&#x11a;" horiz-adv-x="649" 
d="M592 908l-130 -153h-250l-130 153h210l45 -63l45 63h210zM624 712v-194h-358v-70h331v-187h-331v-67h358v-194h-584v712h584z" />
    <glyph glyph-name="ecaron" unicode="&#x11b;" horiz-adv-x="609" 
d="M560 712l-130 -153h-250l-130 153h210l45 -63l45 63h210zM592 264q0 -29 -4 -58h-376q4 -79 99 -79q53 0 74 28h194q-23 -80 -95 -123.5t-177 -43.5q-135 0 -212.5 71.5t-77.5 196.5q0 123 78 198q79 74 211 74q129 0 208 -70q78 -71 78 -194zM303 390q-76 0 -88 -76h177
q-7 76 -89 76z" />
    <glyph glyph-name="Gcircumflex" unicode="&#x11c;" horiz-adv-x="771" 
d="M435 771l-45 63l-45 -63h-210l130 154h250l130 -154h-210zM396 258v157h345v-415h-146l-16 76q-71 -93 -218 -93q-160 0 -251 106q-91 104 -91 269t100 268q99 102 271 102q144 0 239 -71q94 -72 111 -191h-231q-25 70 -115 70q-66 0 -103.5 -44.5t-37.5 -137.5
q0 -181 142 -181q100 0 127 85h-126z" />
    <glyph glyph-name="gcircumflex" unicode="&#x11d;" horiz-adv-x="645" 
d="M375 559l-45 63l-45 -63h-210l130 153h250l130 -153h-210zM401 442v74h208v-493q0 -116 -76 -178t-215 -62q-271 0 -292 207h210q7 -61 80 -61q42 0 61.5 18.5t19.5 58.5v93q-53 -80 -162 -80q-101 0 -159 70q-59 70 -59 185q0 114 59 185q58 69 159 69q113 0 166 -86z
M313 165q87 0 87 110q0 108 -87 108q-88 0 -88 -108q0 -110 88 -110z" />
    <glyph glyph-name="Gbreve" unicode="&#x11e;" horiz-adv-x="771" 
d="M529 805q-52 -41 -139 -41q-88 0 -138 41q-52 41 -59 117h145q3 -47 52 -47q47 0 52 47h145q-7 -76 -58 -117zM396 258v157h345v-415h-146l-16 76q-71 -93 -218 -93q-160 0 -251 106q-91 104 -91 269t100 268q99 102 271 102q144 0 239 -71q94 -72 111 -191h-231
q-25 70 -115 70q-66 0 -103.5 -44.5t-37.5 -137.5q0 -181 142 -181q100 0 127 85h-126z" />
    <glyph glyph-name="gbreve" unicode="&#x11f;" horiz-adv-x="645" 
d="M469 593q-52 -41 -139 -41q-88 0 -138 41q-52 41 -59 117h145q3 -47 52 -47q47 0 52 47h145q-7 -76 -58 -117zM401 442v74h208v-493q0 -116 -76 -178t-215 -62q-271 0 -292 207h210q7 -61 80 -61q42 0 61.5 18.5t19.5 58.5v93q-53 -80 -162 -80q-101 0 -159 70
q-59 70 -59 185q0 114 59 185q58 69 159 69q113 0 166 -86zM313 165q87 0 87 110q0 108 -87 108q-88 0 -88 -108q0 -110 88 -110z" />
    <glyph glyph-name="Gdotaccent" unicode="&#x120;" horiz-adv-x="771" 
d="M292 924h196v-150h-196v150zM396 258v157h345v-415h-146l-16 76q-71 -93 -218 -93q-160 0 -251 106q-91 104 -91 269t100 268q99 102 271 102q144 0 239 -71q94 -72 111 -191h-231q-25 70 -115 70q-66 0 -103.5 -44.5t-37.5 -137.5q0 -181 142 -181q100 0 127 85h-126z
" />
    <glyph glyph-name="gdotaccent" unicode="&#x121;" horiz-adv-x="645" 
d="M226 714h208v-156h-208v156zM401 442v74h208v-493q0 -116 -76 -178t-215 -62q-271 0 -292 207h210q7 -61 80 -61q42 0 61.5 18.5t19.5 58.5v93q-53 -80 -162 -80q-101 0 -159 70q-59 70 -59 185q0 114 59 185q58 69 159 69q113 0 166 -86zM313 165q87 0 87 110
q0 108 -87 108q-88 0 -88 -108q0 -110 88 -110z" />
    <glyph glyph-name="uni0122" unicode="&#x122;" horiz-adv-x="771" 
d="M396 258v157h345v-415h-146l-16 76q-71 -93 -218 -93q-160 0 -251 106q-91 104 -91 269t100 268q99 102 271 102q144 0 239 -71q94 -72 111 -191h-231q-25 70 -115 70q-66 0 -103.5 -44.5t-37.5 -137.5q0 -181 142 -181q100 0 127 85h-126zM379 -204h-75v131h172v-134
q0 -56 -33.5 -81.5t-103.5 -25.5h-35v63h35q40 0 40 42v5z" />
    <glyph glyph-name="uni0123" unicode="&#x123;" horiz-adv-x="645" 
d="M341 689h75v-131h-172v134q0 56 33.5 81.5t103.5 25.5h35v-63h-35q-40 0 -40 -42v-5zM401 442v74h208v-493q0 -116 -76 -178t-215 -62q-271 0 -292 207h210q7 -61 80 -61q42 0 61.5 18.5t19.5 58.5v93q-53 -80 -162 -80q-101 0 -159 70q-59 70 -59 185q0 114 59 185
q58 69 159 69q113 0 166 -86zM313 165q87 0 87 110q0 108 -87 108q-88 0 -88 -108q0 -110 88 -110z" />
    <glyph glyph-name="Hcircumflex" unicode="&#x124;" horiz-adv-x="737" 
d="M414 755l-45 63l-45 -63h-210l130 154h250l130 -154h-210zM471 462v250h226v-712h-226v262h-205v-262h-226v712h226v-250h205z" />
    <glyph glyph-name="hcircumflex" unicode="&#x125;" horiz-adv-x="615" 
d="M185 755l-45 63l-45 -63h-210l130 154h250l130 -154h-210zM403 528q176 0 176 -208v-320h-208v286q0 68 -59 68q-30 0 -49 -17.5t-19 -51.5v-285h-208v712h208v-269q49 85 159 85z" />
    <glyph glyph-name="Hbar" unicode="&#x126;" horiz-adv-x="774" 
d="M715 639h59v-105h-59v-534h-226v262h-205v-262h-226v534h-58v105h58v73h226v-73h205v73h226v-73zM284 462h205v72h-205v-72z" />
    <glyph glyph-name="hbar" unicode="&#x127;" horiz-adv-x="673" 
d="M461 528q176 0 176 -208v-320h-208v286q0 68 -59 68q-30 0 -49 -17.5t-19 -51.5v-285h-208v567h-94v105h94v40h208v-40h128v-105h-128v-124q49 85 159 85z" />
    <glyph glyph-name="Itilde" unicode="&#x128;" horiz-adv-x="306" 
d="M63 759h-129q0 86 34 129.5t90 43.5q42 0 92 -22q40 -18 63 -18q29 0 30 40h129q0 -84 -34.5 -128.5t-89.5 -44.5q-37 0 -91 23q-39 17 -64 17q-29 0 -30 -40zM266 0h-226v712h226v-712z" />
    <glyph glyph-name="itilde" unicode="&#x129;" horiz-adv-x="280" 
d="M50 558h-129q0 86 34 129.5t90 43.5q42 0 92 -22q41 -18 63 -18q29 0 30 40h129q0 -84 -34.5 -128.5t-89.5 -44.5q-37 0 -91 23q-39 17 -64 17q-29 0 -30 -40zM244 0h-208v516h208v-516z" />
    <glyph glyph-name="Imacron" unicode="&#x12a;" horiz-adv-x="306" 
d="M340 757h-374v135h374v-135zM266 0h-226v712h226v-712z" />
    <glyph glyph-name="imacron" unicode="&#x12b;" horiz-adv-x="280" 
d="M327 561h-374v135h374v-135zM244 0h-208v516h208v-516z" />
    <glyph glyph-name="Ibreve" unicode="&#x12c;" horiz-adv-x="306" 
d="M292 789q-52 -41 -139 -41q-88 0 -138 41q-52 41 -59 117h145q3 -47 52 -47q47 0 52 47h145q-7 -76 -58 -117zM266 0h-226v712h226v-712z" />
    <glyph glyph-name="ibreve" unicode="&#x12d;" horiz-adv-x="280" 
d="M279 593q-52 -41 -139 -41q-88 0 -138 41q-52 41 -59 117h145q3 -47 52 -47q47 0 52 47h145q-7 -76 -58 -117zM244 0h-208v516h208v-516z" />
    <glyph glyph-name="Iogonek" unicode="&#x12e;" horiz-adv-x="306" 
d="M266 712v-712q-103 -46 -103 -91q0 -38 55 -38q19 0 48 7v-98q-38 -9 -80 -9q-79 0 -122.5 29t-43.5 80q0 36 27.5 68t83.5 52h-91v712h226z" />
    <glyph glyph-name="iogonek" unicode="&#x12f;" horiz-adv-x="280" 
d="M36 558v156h208v-156h-208zM109 0h-73v516h208v-516q-103 -46 -103 -91q0 -38 55 -38q19 0 48 7v-98q-37 -9 -80 -9q-79 0 -122.5 29t-43.5 80q0 36 27.5 68t83.5 52z" />
    <glyph glyph-name="Idot" unicode="&#x130;" horiz-adv-x="306" 
d="M251 758h-196v150h196v-150zM266 0h-226v712h226v-712z" />
    <glyph glyph-name="dotlessi" unicode="&#x131;" horiz-adv-x="280" 
d="M244 0h-208v516h208v-516z" />
    <glyph glyph-name="IJ" unicode="&#x132;" horiz-adv-x="901" 
d="M266 0h-226v712h226v-712zM597 -16q-125 0 -199 65q-75 65 -75 173v70h220v-74q0 -23 13.5 -36t37.5 -13t37.5 13t13.5 36v494h226v-490q0 -108 -74 -173t-200 -65z" />
    <glyph glyph-name="ij" unicode="&#x133;" horiz-adv-x="560" 
d="M244 558h-208v156h208v-156zM524 558h-208v156h208v-156zM244 0h-208v516h208v-516zM305 -206q-16 0 -62 2v160h17q14 0 22 1.5t17 6t13 15.5t4 29v508h208v-538q0 -98 -51.5 -141t-167.5 -43z" />
    <glyph glyph-name="Jcircumflex" unicode="&#x134;" horiz-adv-x="595" 
d="M497 755l-45 63l-45 -63h-210l130 154h250l130 -154h-210zM339 218v494h226v-490q0 -108 -74 -173t-200 -65q-125 0 -199 65q-75 65 -75 173v70h220v-74q0 -23 13.5 -36t37.5 -13t37.5 13t13.5 36z" />
    <glyph glyph-name="jcircumflex" unicode="&#x135;" horiz-adv-x="280" 
d="M185 559l-45 69l-45 -69h-200l120 163h250l120 -163h-200zM36 8v508h208v-538q0 -98 -51.5 -141t-167.5 -43q-16 0 -62 2v160h17q14 0 22 1.5t17 6t13 15.5t4 29z" />
    <glyph glyph-name="uni0136" unicode="&#x136;" horiz-adv-x="757" 
d="M748 712l-249 -291l267 -421h-258l-157 267l-85 -100v-167h-226v712h226v-279l221 279h261zM388 -188h-75v131h172v-134q0 -56 -33.5 -81.5t-103.5 -25.5h-35v63h35q40 0 40 42v5z" />
    <glyph glyph-name="uni0137" unicode="&#x137;" horiz-adv-x="633" 
d="M404 516h231l-201 -212l199 -304h-234l-102 171l-53 -54v-117h-208v712h208v-379zM324 -188h-75v131h172v-134q0 -56 -33.5 -81.5t-103.5 -25.5h-35v63h35q40 0 40 42v5z" />
    <glyph glyph-name="kgreenlandic" unicode="&#x138;" horiz-adv-x="633" 
d="M404 516h231l-201 -212l199 -304h-234l-102 171l-53 -54v-117h-208v516h208v-183z" />
    <glyph glyph-name="Lacute" unicode="&#x139;" horiz-adv-x="587" 
d="M127 909h247l-148 -154h-188zM266 712v-518h306v-194h-532v712h226z" />
    <glyph glyph-name="lacute" unicode="&#x13a;" horiz-adv-x="280" 
d="M361 909l-148 -154h-188l89 154h247zM244 0h-208v712h208v-712z" />
    <glyph glyph-name="uni013B" unicode="&#x13b;" horiz-adv-x="587" 
d="M266 712v-518h306v-194h-532v712h226zM313 -188h-75v131h172v-134q0 -56 -33.5 -81.5t-103.5 -25.5h-35v63h35q40 0 40 42v5z" />
    <glyph glyph-name="uni013C" unicode="&#x13c;" horiz-adv-x="280" 
d="M36 0v712h208v-712h-208zM129 -188h-75v131h172v-134q0 -56 -33.5 -81.5t-103.5 -25.5h-35v63h35q40 0 40 42v5z" />
    <glyph glyph-name="Lcaron" unicode="&#x13d;" horiz-adv-x="587" 
d="M266 712v-518h306v-194h-532v712h226zM345 712h192l-87 -183h-129z" />
    <glyph glyph-name="lcaron" unicode="&#x13e;" horiz-adv-x="481" 
d="M244 0h-208v712h208v-712zM404 529h-129l24 183h192z" />
    <glyph glyph-name="Ldot" unicode="&#x13f;" horiz-adv-x="587" 
d="M266 712v-518h306v-194h-532v712h226zM330 504h227v-220h-227v220z" />
    <glyph glyph-name="ldot" unicode="&#x140;" horiz-adv-x="543" 
d="M244 0h-208v712h208v-712zM507 251h-212v206h212v-206z" />
    <glyph glyph-name="Lslash" unicode="&#x141;" horiz-adv-x="632" 
d="M311 377v-183h306v-194h-532v285l-85 -34v114l85 34v313h226v-221l178 72v-114z" />
    <glyph glyph-name="lslash" unicode="&#x142;" horiz-adv-x="362" 
d="M277 456l85 36v-117l-85 -36v-339h-208v250l-69 -29v117l69 29v345h208v-256z" />
    <glyph glyph-name="Nacute" unicode="&#x143;" horiz-adv-x="748" 
d="M348 909h247l-148 -154h-188zM488 596v116h220v-712h-235l-150 253q-38 63 -67 119q4 -100 4 -256v-116h-220v712h235l147 -253q27 -46 69 -134q-3 89 -3 271z" />
    <glyph glyph-name="nacute" unicode="&#x144;" horiz-adv-x="615" 
d="M296 713h247l-148 -154h-188zM403 528q176 0 176 -208v-320h-208v286q0 68 -59 68q-30 0 -49 -17.5t-19 -51.5v-285h-208v516h204v-75h3q48 87 160 87z" />
    <glyph glyph-name="uni0145" unicode="&#x145;" horiz-adv-x="748" 
d="M488 596v116h220v-712h-235l-150 253q-38 63 -67 119q4 -100 4 -256v-116h-220v712h235l147 -253q27 -46 69 -134q-3 89 -3 271zM363 -188h-75v131h172v-134q0 -56 -33.5 -81.5t-103.5 -25.5h-35v63h35q40 0 40 42v5z" />
    <glyph glyph-name="uni0146" unicode="&#x146;" horiz-adv-x="615" 
d="M403 528q176 0 176 -208v-320h-208v286q0 68 -59 68q-30 0 -49 -17.5t-19 -51.5v-285h-208v516h204v-75h3q48 87 160 87zM297 -188h-75v131h172v-134q0 -56 -33.5 -81.5t-103.5 -25.5h-35v63h35q40 0 40 42v5z" />
    <glyph glyph-name="Ncaron" unicode="&#x147;" horiz-adv-x="748" 
d="M629 908l-130 -153h-250l-130 153h210l45 -63l45 63h210zM488 596v116h220v-712h-235l-150 253q-38 63 -67 119q4 -100 4 -256v-116h-220v712h235l147 -253q27 -46 69 -134q-3 89 -3 271z" />
    <glyph glyph-name="ncaron" unicode="&#x148;" horiz-adv-x="615" 
d="M577 712l-130 -153h-250l-130 153h210l45 -63l45 63h210zM403 528q176 0 176 -208v-320h-208v286q0 68 -59 68q-30 0 -49 -17.5t-19 -51.5v-285h-208v516h204v-75h3q48 87 160 87z" />
    <glyph glyph-name="napostrophe" unicode="&#x149;" horiz-adv-x="872" 
d="M133 492h-97v220h227v-225q0 -185 -196 -185h-31v106h32q65 0 65 73v11zM660 528q176 0 176 -208v-320h-208v286q0 68 -59 68q-30 0 -49 -17.5t-19 -51.5v-285h-208v516h204v-75h3q48 87 160 87z" />
    <glyph glyph-name="Eng" unicode="&#x14a;" horiz-adv-x="738" 
d="M483 596v116h215v-734q0 -102 -55 -143t-178 -41q-20 0 -62 2v160q7 -1 29 -1q32 0 41.5 10t9.5 43v11l-149 234q-56 89 -84 138q5 -127 5 -275v-116h-215v712h230l156 -248q22 -36 59 -104q-2 102 -2 236z" />
    <glyph glyph-name="eng" unicode="&#x14b;" horiz-adv-x="615" 
d="M403 528q176 0 176 -208v-342q0 -97 -51.5 -140.5t-167.5 -43.5q-16 0 -62 2v160h17q14 0 22 1.5t17 6t13 15.5t4 29v278q0 68 -59 68q-30 0 -49 -17.5t-19 -51.5v-285h-208v516h204v-75h3q48 87 160 87z" />
    <glyph glyph-name="Omacron" unicode="&#x14c;" horiz-adv-x="792" 
d="M583 757h-374v135h374v-135zM396 -17q-170 0 -273 102q-104 101 -104 271q0 169 105 271q104 101 272 101q167 0 273 -101q104 -102 104 -271q0 -170 -104 -271q-105 -102 -273 -102zM292 220q38 -45 104 -45t105 45q38 44 38 136q0 89 -37.5 134.5t-105.5 45.5
t-105.5 -45.5t-37.5 -134.5q0 -92 39 -136z" />
    <glyph glyph-name="omacron" unicode="&#x14d;" horiz-adv-x="620" 
d="M496 561h-374v135h374v-135zM523 62q-82 -74 -213 -74q-132 0 -212 74q-81 74 -81 195t81 196q82 74 212 74t212 -74q81 -75 81 -196t-80 -195zM225 256q0 -108 85 -108t85 108q0 55 -22.5 83t-62.5 28q-85 0 -85 -111z" />
    <glyph glyph-name="Obreve" unicode="&#x14e;" horiz-adv-x="792" 
d="M535 789q-52 -41 -139 -41q-88 0 -138 41q-52 41 -59 117h145q3 -47 52 -47q47 0 52 47h145q-7 -76 -58 -117zM396 -17q-170 0 -273 102q-104 101 -104 271q0 169 105 271q104 101 272 101q167 0 273 -101q104 -102 104 -271q0 -170 -104 -271q-105 -102 -273 -102z
M292 220q38 -45 104 -45t105 45q38 44 38 136q0 89 -37.5 134.5t-105.5 45.5t-105.5 -45.5t-37.5 -134.5q0 -92 39 -136z" />
    <glyph glyph-name="obreve" unicode="&#x14f;" horiz-adv-x="620" 
d="M448 593q-52 -41 -139 -41q-88 0 -138 41q-52 41 -59 117h145q3 -47 52 -47q47 0 52 47h145q-7 -76 -58 -117zM523 62q-82 -74 -213 -74q-132 0 -212 74q-81 74 -81 195t81 196q82 74 212 74t212 -74q81 -75 81 -196t-80 -195zM225 256q0 -108 85 -108t85 108
q0 55 -22.5 83t-62.5 28q-85 0 -85 -111z" />
    <glyph glyph-name="Ohungarumlaut" unicode="&#x150;" horiz-adv-x="792" 
d="M319 755h-188l90 154h243zM600 755h-189l91 154h241zM396 -17q-170 0 -273 102q-104 101 -104 271q0 169 105 271q104 101 272 101q167 0 273 -101q104 -102 104 -271q0 -170 -104 -271q-105 -102 -273 -102zM292 220q38 -45 104 -45t105 45q38 44 38 136
q0 89 -37.5 134.5t-105.5 45.5t-105.5 -45.5t-37.5 -134.5q0 -92 39 -136z" />
    <glyph glyph-name="ohungarumlaut" unicode="&#x151;" horiz-adv-x="620" 
d="M232 559h-189l90 154h243zM512 559h-188l90 154h241zM523 62q-82 -74 -213 -74q-132 0 -212 74q-81 74 -81 195t81 196q82 74 212 74t212 -74q81 -75 81 -196t-80 -195zM225 256q0 -108 85 -108t85 108q0 55 -22.5 83t-62.5 28q-85 0 -85 -111z" />
    <glyph glyph-name="OE" unicode="&#x152;" horiz-adv-x="1149" 
d="M1124 712v-194h-358v-70h331v-187h-331v-67h358v-194h-584v43q-72 -60 -185 -60q-152 0 -244 101t-92 272q0 170 92 271t244 101q111 0 185 -59v43h584zM292 220q38 -45 104 -45t105 45q38 44 38 136q0 89 -37.5 134.5t-105.5 45.5t-105.5 -45.5t-37.5 -134.5
q0 -92 39 -136z" />
    <glyph glyph-name="oe" unicode="&#x153;" horiz-adv-x="987" 
d="M970 264q0 -29 -4 -58h-376q2 -36 28.5 -57.5t70.5 -21.5q49 0 74 28h194q-25 -79 -99 -123t-169 -44q-121 0 -195 70q-73 -70 -194 -70q-124 0 -204 74q-79 73 -79 195q0 121 79 196q80 74 204 74q122 0 195 -72q74 73 199 73q123 0 199 -70q77 -71 77 -194zM681 390
q-76 0 -88 -76h177q-7 76 -89 76zM225 256q0 -108 85 -108t85 108q0 55 -22.5 83t-62.5 28q-85 0 -85 -111z" />
    <glyph glyph-name="Racute" unicode="&#x154;" horiz-adv-x="695" 
d="M318 909h247l-148 -154h-188zM658 177l8 -105q5 -53 17 -72h-231q-12 23 -14 72l-3 71q-2 51 -21.5 70t-69.5 19h-78v-232h-226v712h351q274 0 274 -209q0 -128 -107 -170q48 -18 71.5 -55t28.5 -101zM266 396h90q78 0 78 71t-78 71h-90v-142z" />
    <glyph glyph-name="racute" unicode="&#x155;" horiz-adv-x="436" 
d="M209 713h247l-148 -154h-188zM240 516v-102q27 110 139 110q21 0 37 -3v-187h-48q-124 0 -124 -136v-198h-208v516h204z" />
    <glyph glyph-name="uni0156" unicode="&#x156;" horiz-adv-x="695" 
d="M658 177l8 -105q5 -53 17 -72h-231q-12 23 -14 72l-3 71q-2 51 -21.5 70t-69.5 19h-78v-232h-226v712h351q274 0 274 -209q0 -128 -107 -170q48 -18 71.5 -55t28.5 -101zM266 396h90q78 0 78 71t-78 71h-90v-142zM341 -188h-75v131h172v-134q0 -56 -33.5 -81.5
t-103.5 -25.5h-35v63h35q40 0 40 42v5z" />
    <glyph glyph-name="uni0157" unicode="&#x157;" horiz-adv-x="436" 
d="M379 524q21 0 37 -3v-187h-48q-124 0 -124 -136v-198h-208v516h204v-102q27 110 139 110zM129 -188h-75v131h172v-134q0 -56 -33.5 -81.5t-103.5 -25.5h-35v63h35q40 0 40 42v5z" />
    <glyph glyph-name="Rcaron" unicode="&#x158;" horiz-adv-x="695" 
d="M599 908l-130 -153h-250l-130 153h210l45 -63l45 63h210zM658 177l8 -105q5 -53 17 -72h-231q-12 23 -14 72l-3 71q-2 51 -21.5 70t-69.5 19h-78v-232h-226v712h351q274 0 274 -209q0 -128 -107 -170q48 -18 71.5 -55t28.5 -101zM266 396h90q78 0 78 71t-78 71h-90v-142z
" />
    <glyph glyph-name="rcaron" unicode="&#x159;" horiz-adv-x="436" 
d="M480 712l-130 -153h-250l-130 153h210l45 -63l45 63h210zM240 516v-102q27 110 139 110q21 0 37 -3v-187h-48q-124 0 -124 -136v-198h-208v516h204z" />
    <glyph glyph-name="Sacute" unicode="&#x15a;" horiz-adv-x="677" 
d="M411 755h-188l89 154h247zM582 51q-85 -68 -242 -68t-240 68q-84 68 -88 183h223q4 -46 30 -64t79 -18q93 0 93 49q0 24 -22 37t-79 21l-86 12q-105 15 -163 71.5t-58 152.5q0 94 59 158q69 75 244 75q294 0 313 -235h-209q-4 35 -26 51.5t-70 16.5q-86 0 -86 -46
q0 -39 67 -48l86 -12q134 -19 196 -72t62 -148q0 -116 -83 -184z" />
    <glyph glyph-name="sacute" unicode="&#x15b;" horiz-adv-x="548" 
d="M341 559h-188l89 154h247zM270 -17q-250 0 -264 183h198q3 -27 20 -39t53 -12q63 0 63 30q0 23 -44 31l-101 14q-183 26 -183 165q0 84 66 128.5t190 44.5q246 0 257 -176h-187q-2 26 -18 37.5t-52 11.5q-59 0 -59 -28q0 -23 44 -31l101 -14q97 -14 142 -54t45 -109
q0 -87 -71 -134.5t-200 -47.5z" />
    <glyph glyph-name="Scircumflex" unicode="&#x15c;" horiz-adv-x="677" 
d="M383 755l-45 63l-45 -63h-210l130 154h250l130 -154h-210zM321 467l86 -12q134 -19 196 -72t62 -148q0 -118 -84.5 -185t-240.5 -67q-155 0 -239 66t-89 185h223q4 -46 30 -64t79 -18q93 0 93 49q0 24 -22 37t-79 21l-86 12q-105 15 -163 71.5t-58 152.5q0 94 59 158
q69 75 244 75q294 0 313 -235h-209q-4 35 -26 51.5t-70 16.5q-86 0 -86 -46q0 -39 67 -48z" />
    <glyph glyph-name="scircumflex" unicode="&#x15d;" horiz-adv-x="548" 
d="M313 559l-45 63l-45 -63h-210l130 153h250l130 -153h-210zM253 342l101 -14q97 -14 142 -54t45 -109q0 -87 -71 -134.5t-200 -47.5q-250 0 -264 183h198q3 -27 20 -39t53 -12q63 0 63 30q0 23 -44 31l-101 14q-183 26 -183 165q0 84 66 128.5t190 44.5q246 0 257 -176
h-187q-2 26 -18 37.5t-52 11.5q-59 0 -59 -28q0 -23 44 -31z" />
    <glyph glyph-name="Scedilla" unicode="&#x15e;" horiz-adv-x="677" 
d="M665 235q0 -111 -74.5 -177t-212.5 -74l-22 -26h9q57 0 89.5 -25t32.5 -68q0 -49 -43.5 -78.5t-124.5 -29.5q-34 0 -90 8v72q32 -5 54 -5q71 0 71 38q0 36 -56 36q-16 0 -36 -3v47l29 35q-132 10 -203 75.5t-76 173.5h223q4 -46 30 -64t79 -18q93 0 93 49q0 24 -22 37
t-79 21l-86 12q-105 15 -163 71.5t-58 152.5q0 94 59 158q69 75 244 75q294 0 313 -235h-209q-4 35 -26 51.5t-70 16.5q-86 0 -86 -46q0 -39 67 -48l86 -12q134 -19 196 -72t62 -148z" />
    <glyph glyph-name="scedilla" unicode="&#x15f;" horiz-adv-x="548" 
d="M541 165q0 -77 -55 -123t-157 -56l-38 -45h9q57 0 89.5 -25t32.5 -68q0 -49 -43.5 -78.5t-124.5 -29.5q-34 0 -90 8v72q32 -5 54 -5q71 0 71 38q0 36 -56 36q-17 0 -36 -3v47l42 51q-221 11 -233 182h198q3 -27 20 -39t53 -12q63 0 63 30q0 23 -44 31l-101 14
q-183 26 -183 165q0 84 66 128.5t190 44.5q246 0 257 -176h-187q-2 26 -18 37.5t-52 11.5q-59 0 -59 -28q0 -23 44 -31l101 -14q97 -14 142 -54t45 -109z" />
    <glyph glyph-name="Scaron" unicode="&#x160;" horiz-adv-x="677" 
d="M593 908l-130 -153h-250l-130 153h210l45 -63l45 63h210zM321 467l86 -12q134 -19 196 -72t62 -148q0 -118 -84.5 -185t-240.5 -67q-155 0 -239 66t-89 185h223q4 -46 30 -64t79 -18q93 0 93 49q0 24 -22 37t-79 21l-86 12q-105 15 -163 71.5t-58 152.5q0 94 59 158
q69 75 244 75q294 0 313 -235h-209q-4 35 -26 51.5t-70 16.5q-86 0 -86 -46q0 -39 67 -48z" />
    <glyph glyph-name="scaron" unicode="&#x161;" horiz-adv-x="548" 
d="M523 712l-130 -153h-250l-130 153h210l45 -63l45 63h210zM253 342l101 -14q97 -14 142 -54t45 -109q0 -87 -71 -134.5t-200 -47.5q-250 0 -264 183h198q3 -27 20 -39t53 -12q63 0 63 30q0 23 -44 31l-101 14q-183 26 -183 165q0 84 66 128.5t190 44.5q246 0 257 -176
h-187q-2 26 -18 37.5t-52 11.5q-59 0 -59 -28q0 -23 44 -31z" />
    <glyph glyph-name="uni0162" unicode="&#x162;" horiz-adv-x="650" 
d="M438 518v-518h-59l-36 -42h9q57 0 89.5 -25t32.5 -68q0 -49 -43.5 -78.5t-124.5 -29.5q-34 0 -90 8v72q32 -5 54 -5q71 0 71 38q0 36 -56 36q-17 0 -36 -3v47l42 50h-79v518h-197v194h620v-194h-197z" />
    <glyph glyph-name="uni0163" unicode="&#x163;" horiz-adv-x="420" 
d="M400 516v-143h-107v-173q0 -29 12.5 -37.5t46.5 -8.5h38v-154q-50 -5 -88 -5h-5l-31 -37h9q57 0 89.5 -25t32.5 -68q0 -49 -43.5 -78.5t-124.5 -29.5q-34 0 -90 8v72q32 -5 54 -5q71 0 71 38q0 36 -56 36q-16 0 -36 -3v47l43 52q-68 13 -99 50.5t-31 105.5v215h-75v143
h75v159h208v-159h107z" />
    <glyph glyph-name="Tcaron" unicode="&#x164;" horiz-adv-x="650" 
d="M580 908l-130 -153h-250l-130 153h210l45 -63l45 63h210zM15 712h620v-194h-197v-518h-226v518h-197v194z" />
    <glyph glyph-name="tcaron" unicode="&#x165;" horiz-adv-x="418" 
d="M335 556l24 183h192l-87 -183h-129zM85 675h208v-159h107v-143h-107v-173q0 -29 12.5 -37.5t46.5 -8.5h38v-154q-50 -5 -88 -5q-116 0 -166.5 38t-50.5 125v215h-75v143h75v159z" />
    <glyph glyph-name="Tbar" unicode="&#x166;" horiz-adv-x="650" 
d="M635 712v-195h-197v-129h145v-105h-145v-283h-226v283h-145v105h145v129h-197v195h620z" />
    <glyph glyph-name="tbar" unicode="&#x167;" horiz-adv-x="420" 
d="M400 516v-143h-107v-56h107v-105h-107v-12q0 -29 12.5 -37.5t46.5 -8.5h38v-154q-50 -5 -88 -5q-116 0 -166.5 38t-50.5 125v54h-74v105h74v56h-75v143h75v159h208v-159h107z" />
    <glyph glyph-name="Utilde" unicode="&#x168;" horiz-adv-x="712" 
d="M266 759h-129q0 86 34 129.5t90 43.5q42 0 92 -22q41 -18 63 -18q29 0 30 40h129q0 -84 -34.5 -128.5t-89.5 -44.5q-34 0 -91 23q-43 17 -64 17q-29 0 -30 -40zM598 56q-85 -73 -242 -73q-158 0 -241 73q-85 73 -85 206v450h226v-444q0 -93 100 -93t100 93v444h226v-450
q0 -132 -84 -206z" />
    <glyph glyph-name="utilde" unicode="&#x169;" horiz-adv-x="615" 
d="M248 598q-29 0 -30 -40h-129q0 86 34 129.5t90 43.5q42 0 92 -22q41 -18 63 -18q29 0 30 40h129q0 -84 -34.5 -128.5t-89.5 -44.5q-37 0 -91 23q-39 17 -64 17zM371 231v285h208v-516h-204v75h-3q-48 -87 -160 -87q-176 0 -176 208v320h208v-286q0 -68 59 -68
q30 0 49 17.5t19 51.5z" />
    <glyph glyph-name="Umacron" unicode="&#x16a;" horiz-adv-x="712" 
d="M543 757h-374v135h374v-135zM598 56q-85 -73 -242 -73q-158 0 -241 73q-85 73 -85 206v450h226v-444q0 -93 100 -93t100 93v444h226v-450q0 -132 -84 -206z" />
    <glyph glyph-name="umacron" unicode="&#x16b;" horiz-adv-x="615" 
d="M121 696h374v-135h-374v135zM371 231v285h208v-516h-204v75h-3q-48 -87 -160 -87q-176 0 -176 208v320h208v-286q0 -68 59 -68q30 0 49 17.5t19 51.5z" />
    <glyph glyph-name="Ubreve" unicode="&#x16c;" horiz-adv-x="712" 
d="M495 789q-52 -41 -139 -41q-88 0 -138 41q-52 41 -59 117h145q3 -47 52 -47q47 0 52 47h145q-7 -76 -58 -117zM598 56q-85 -73 -242 -73q-158 0 -241 73q-85 73 -85 206v450h226v-444q0 -93 100 -93t100 93v444h226v-450q0 -132 -84 -206z" />
    <glyph glyph-name="ubreve" unicode="&#x16d;" horiz-adv-x="615" 
d="M447 593q-52 -41 -139 -41q-88 0 -138 41q-52 41 -59 117h145q3 -47 52 -47q47 0 52 47h145q-7 -76 -58 -117zM371 231v285h208v-516h-204v75h-3q-48 -87 -160 -87q-176 0 -176 208v320h208v-286q0 -68 59 -68q30 0 49 17.5t19 51.5z" />
    <glyph glyph-name="Uring" unicode="&#x16e;" horiz-adv-x="732" 
d="M531 712h161v-450q0 -133 -85 -206t-241 -73t-241 73t-85 206v450h161q-15 32 -15 71q0 74 52 122q53 48 128 48q76 0 128 -48t52 -122q0 -39 -15 -71zM411 828q-27 28 -69 12t-39 -57q0 -26 18.5 -43.5t44.5 -17.5t44.5 17.5t18.5 43.5q0 27 -18 45zM266 641v-373
q0 -93 100 -93t100 93v373q-46 -27 -100 -27t-100 27z" />
    <glyph glyph-name="uring" unicode="&#x16f;" horiz-adv-x="615" 
d="M436 595q-52 -48 -128 -48t-128 48q-52 46 -52 121q0 74 52 122t128 48t128 -48t52 -122q0 -75 -52 -121zM353 761q-27 28 -69 12t-39 -57q0 -26 18.5 -43.5t44.5 -17.5t44.5 17.5t18.5 43.5q0 27 -18 45zM371 231v285h208v-516h-204v75h-3q-48 -87 -160 -87
q-176 0 -176 208v320h208v-286q0 -68 59 -68q30 0 49 17.5t19 51.5z" />
    <glyph glyph-name="Uhungarumlaut" unicode="&#x170;" horiz-adv-x="712" 
d="M279 755h-188l90 154h243zM560 755h-189l91 154h241zM598 56q-85 -73 -242 -73q-158 0 -241 73q-85 73 -85 206v450h226v-444q0 -93 100 -93t100 93v444h226v-450q0 -132 -84 -206z" />
    <glyph glyph-name="uhungarumlaut" unicode="&#x171;" horiz-adv-x="615" 
d="M132 713h243l-144 -154h-189zM654 713l-143 -154h-188l90 154h241zM371 231v285h208v-516h-204v75h-3q-48 -87 -160 -87q-176 0 -176 208v320h208v-286q0 -68 59 -68q30 0 49 17.5t19 51.5z" />
    <glyph glyph-name="Uogonek" unicode="&#x172;" horiz-adv-x="712" 
d="M456 268v444h226v-450q0 -101 -48.5 -167.5t-141.5 -93.5q-73 -37 -73 -77q0 -38 55 -38q19 0 48 7v-98q-38 -9 -80 -9q-79 0 -122.5 29t-43.5 80q0 50 51 89q-144 7 -220.5 79t-76.5 199v450h226v-444q0 -93 100 -93t100 93z" />
    <glyph glyph-name="uogonek" unicode="&#x173;" horiz-adv-x="615" 
d="M579 516v-516q-103 -46 -103 -91q0 -38 55 -38q19 0 48 7v-98q-37 -9 -80 -9q-79 0 -122.5 29t-43.5 80q0 36 27.5 68t83.5 52h-69v75h-3q-48 -87 -160 -87q-176 0 -176 208v320h208v-286q0 -68 59 -68q30 0 49 17.5t19 51.5v285h208z" />
    <glyph glyph-name="Wcircumflex" unicode="&#x174;" horiz-adv-x="1011" 
d="M548 755l-45 63l-45 -63h-210l130 154h250l130 -154h-210zM749 501l40 211h231l-188 -712h-242l-47 217q-15 65 -37 185q-19 -96 -38 -185l-47 -217h-242l-188 712h231l40 -211q0 -3 5 -29.5t17 -90t24 -131.5q34 183 47 251l42 211h217l42 -211q13 -68 47 -251
q12 68 24 131.5t17 90t5 29.5z" />
    <glyph glyph-name="wcircumflex" unicode="&#x175;" horiz-adv-x="913" 
d="M502 559l-45 63l-45 -63h-210l130 153h250l130 -153h-210zM660 375l33 141h222l-170 -516h-206l-50 178q-21 74 -32 123q-15 -61 -33 -123l-50 -178h-206l-170 516h222l33 -141q3 -12 14 -62t20 -89q21 87 41 152l41 140h175l41 -140q20 -65 41 -152q9 39 20 89t14 62z
" />
    <glyph glyph-name="Ycircumflex" unicode="&#x176;" horiz-adv-x="695" 
d="M393 755l-45 63l-45 -63h-210l130 154h250l130 -154h-210zM421 622l42 90h241l-239 -441v-271h-226v271l-248 441h244l46 -90q47 -93 74 -153q31 77 66 153z" />
    <glyph glyph-name="ycircumflex" unicode="&#x177;" horiz-adv-x="623" 
d="M347 559l-45 63l-45 -63h-210l130 153h250l130 -153h-210zM385 422l27 94h213l-203 -524q-47 -122 -107 -160q-61 -38 -185 -38q-37 0 -91 2v160h94q63 0 63 49q0 17 -9 39l-189 472h222l28 -94q28 -99 66 -252q41 147 71 252z" />
    <glyph glyph-name="Ydieresis" unicode="&#x178;" horiz-adv-x="695" 
d="M124 909h196v-154h-196v154zM376 909h196v-154h-196v154zM421 622l42 90h241l-239 -441v-271h-226v271l-248 441h244l46 -90q47 -93 74 -153q31 77 66 153z" />
    <glyph glyph-name="Zacute" unicode="&#x179;" horiz-adv-x="675" 
d="M312 909h247l-148 -154h-188zM499 197h151v-197h-625v174l197 215q106 114 123 131q-158 -2 -177 -2h-133v194h610v-170l-204 -219q-63 -69 -124 -128q162 2 182 2z" />
    <glyph glyph-name="zacute" unicode="&#x17a;" horiz-adv-x="523" 
d="M235 713h247l-148 -154h-188zM364 147h136v-147h-477v126l166 198l38 45h-70h-136v147h474v-112l-165 -198q-3 -4 -20 -24t-30 -36q19 1 84 1z" />
    <glyph glyph-name="Zdotaccent" unicode="&#x17b;" horiz-adv-x="675" 
d="M240 908h196v-150h-196v150zM499 197h151v-197h-625v174l197 215q106 114 123 131q-158 -2 -177 -2h-133v194h610v-170l-204 -219q-63 -69 -124 -128q162 2 182 2z" />
    <glyph glyph-name="zdotaccent" unicode="&#x17c;" horiz-adv-x="523" 
d="M157 714h208v-156h-208v156zM364 147h136v-147h-477v126l166 198l38 45h-70h-136v147h474v-112l-165 -198q-3 -4 -20 -24t-30 -36q19 1 84 1z" />
    <glyph glyph-name="Zcaron" unicode="&#x17d;" horiz-adv-x="675" 
d="M593 908l-130 -153h-250l-130 153h210l45 -63l45 63h210zM499 197h151v-197h-625v174l197 215q106 114 123 131q-158 -2 -177 -2h-133v194h610v-170l-204 -219q-63 -69 -124 -128q162 2 182 2z" />
    <glyph glyph-name="zcaron" unicode="&#x17e;" horiz-adv-x="523" 
d="M516 712l-130 -153h-250l-130 153h210l45 -63l45 63h210zM280 146q19 1 84 1h136v-147h-477v126l166 198l38 45h-70h-136v147h474v-112l-165 -198q-3 -4 -20 -24t-30 -36z" />
    <glyph glyph-name="uni018F" unicode="&#x18f;" horiz-adv-x="792" 
d="M391 728q171 0 277 -101q105 -100 105 -271q0 -170 -104 -271q-105 -102 -273 -102q-170 0 -273 102q-104 101 -104 271q0 36 4 61h511q-22 130 -139 130q-76 0 -114 -62h-245q28 114 124 179q94 64 231 64zM395 165q114 0 137 113h-271q23 -113 134 -113z" />
    <glyph glyph-name="florin" unicode="&#x192;" horiz-adv-x="594" 
d="M526 559q-38 0 -54 -15.5t-22 -55.5l-8 -50h113v-145h-135l-44 -286q-18 -115 -79 -165t-178 -50q-45 0 -99 6v160q24 -4 50 -4q38 0 53.5 15t21.5 56l41 268h-102v145h124l12 77q17 109 78 157t180 48q44 0 96 -6v-159q-23 4 -48 4z" />
    <glyph glyph-name="uni01F4" unicode="&#x1f4;" horiz-adv-x="771" 
d="M364 925h247l-148 -154h-188zM396 258v157h345v-415h-146l-16 76q-71 -93 -218 -93q-160 0 -251 106q-91 104 -91 269t100 268q99 102 271 102q144 0 239 -71q94 -72 111 -191h-231q-25 70 -115 70q-66 0 -103.5 -44.5t-37.5 -137.5q0 -181 142 -181q100 0 127 85h-126z
" />
    <glyph glyph-name="uni01F5" unicode="&#x1f5;" horiz-adv-x="645" 
d="M304 713h247l-148 -154h-188zM401 442v74h208v-493q0 -116 -76 -178t-215 -62q-271 0 -292 207h210q7 -61 80 -61q42 0 61.5 18.5t19.5 58.5v93q-53 -80 -162 -80q-101 0 -159 70q-59 70 -59 185q0 114 59 185q58 69 159 69q113 0 166 -86zM313 165q87 0 87 110
q0 108 -87 108q-88 0 -88 -108q0 -110 88 -110z" />
    <glyph glyph-name="Aringacute" unicode="&#x1fa;" horiz-adv-x="764" 
d="M773 0h-240l-28 93h-256l-28 -93h-230l233 680q-27 40 -27 93q0 91 77 141l88 153h247l-140 -146q41 -21 64.5 -60t23.5 -88q0 -53 -28 -93zM314 773q0 -26 18.5 -43.5t44.5 -17.5t44.5 17.5t18.5 43.5q0 27 -18 44.5t-45 17.5t-45 -17.5t-18 -44.5zM346 422l-49 -164
h158l-49 164q-18 64 -30 106z" />
    <glyph glyph-name="aringacute" unicode="&#x1fb;" horiz-adv-x="613" 
d="M281 1068h247l-148 -154h-188zM435 595q-53 -48 -128 -48t-128 48q-52 46 -52 121q0 74 52 122q53 48 128 48t128 -48q52 -48 52 -122q0 -75 -52 -121zM352 761q-27 28 -69 12t-39 -57q0 -26 18.5 -43.5t44.5 -17.5t44.5 17.5t18.5 43.5q0 27 -18 45zM595 0h-209
q-14 27 -15 60q-45 -77 -166 -77q-88 0 -139 41t-51 118q0 71 47.5 110.5t149.5 49.5l94 9q33 3 47.5 12t14.5 27q0 38 -58 38q-31 0 -45.5 -11t-16.5 -40h-208q4 98 69 144.5t204 46.5q263 0 263 -165v-281q0 -44 19 -82zM287 113q81 0 81 84v34q-10 -17 -45 -21l-48 -6
q-49 -6 -49 -45q0 -46 61 -46z" />
    <glyph glyph-name="AEacute" unicode="&#x1fc;" horiz-adv-x="1148" 
d="M671 909h247l-148 -154h-188zM1123 712v-194h-358v-70h331v-187h-331v-67h358v-194h-584v133h-250l-60 -133h-238l345 712h787zM478 547l-114 -249h175v249h-61z" />
    <glyph glyph-name="aeacute" unicode="&#x1fd;" horiz-adv-x="960" 
d="M450 713h247l-148 -154h-188zM943 264q0 -29 -4 -58h-376q2 -36 28.5 -57.5t70.5 -21.5q49 0 74 28h194q-25 -78 -100 -122.5t-178 -44.5q-126 0 -203 68q-77 -73 -213 -73q-221 0 -221 159q0 72 47 111t150 49l94 9q33 3 47.5 12t14.5 27q0 38 -58 38q-31 0 -45.5 -11
t-16.5 -40h-205q7 191 261 191q120 0 179 -45q71 45 174 45q129 0 208 -70q78 -71 78 -194zM654 390q-76 0 -88 -76h177q-7 76 -89 76zM287 113q81 0 81 84v34q-10 -17 -45 -21l-48 -6q-49 -6 -49 -45q0 -46 61 -46z" />
    <glyph glyph-name="Oslashacute" unicode="&#x1fe;" horiz-adv-x="788" 
d="M368 909h247l-148 -154h-188zM766 693l-79 -89q84 -96 84 -248q0 -170 -104 -271q-105 -102 -273 -102q-119 0 -210 53l-80 -90l-82 73l78 88q-83 100 -83 249q0 169 105 271q104 101 272 101q118 0 209 -53l81 91zM251 356q0 -38 7 -70l207 233q-29 17 -71 17
q-68 0 -105.5 -45.5t-37.5 -134.5zM394 175q68 0 105.5 45.5t37.5 135.5q0 38 -7 70l-208 -234q31 -17 72 -17z" />
    <glyph glyph-name="oslashacute" unicode="&#x1ff;" horiz-adv-x="618" 
d="M283 713h247l-148 -154h-188zM592 509l-60 -67q70 -73 70 -185q0 -121 -80 -195q-82 -74 -212 -74q-85 0 -152 32l-64 -72l-66 58l59 66q-70 71 -70 185q0 121 81 196q82 74 212 74q84 0 151 -33l65 73zM216 256q0 -20 3 -35l132 148q-19 9 -42 9q-93 0 -93 -122z
M309 137q94 0 94 119q0 20 -3 37l-131 -148q18 -8 40 -8z" />
    <glyph glyph-name="uni0218" unicode="&#x218;" horiz-adv-x="677" 
d="M321 467l86 -12q134 -19 196 -72t62 -148q0 -118 -84.5 -185t-240.5 -67q-155 0 -239 66t-89 185h223q4 -46 30 -64t79 -18q93 0 93 49q0 24 -22 37t-79 21l-86 12q-105 15 -163 71.5t-58 152.5q0 94 59 158q69 75 244 75q294 0 313 -235h-209q-4 35 -26 51.5t-70 16.5
q-86 0 -86 -46q0 -39 67 -48zM327 -188h-75v131h172v-134q0 -56 -33.5 -81.5t-103.5 -25.5h-35v63h35q40 0 40 42v5z" />
    <glyph glyph-name="uni0219" unicode="&#x219;" horiz-adv-x="548" 
d="M253 342l101 -14q97 -14 142 -54t45 -109q0 -87 -71 -134.5t-200 -47.5q-250 0 -264 183h198q3 -27 20 -39t53 -12q63 0 63 30q0 23 -44 31l-101 14q-183 26 -183 165q0 84 66 128.5t190 44.5q246 0 257 -176h-187q-2 26 -18 37.5t-52 11.5q-59 0 -59 -28q0 -23 44 -31z
M262 -205h-75v131h172v-134q0 -56 -33.5 -81.5t-103.5 -25.5h-35v63h35q40 0 40 42v5z" />
    <glyph glyph-name="uni021A" unicode="&#x21a;" horiz-adv-x="650" 
d="M15 712h620v-194h-197v-518h-226v518h-197v194zM314 -188h-75v131h172v-134q0 -56 -33.5 -81.5t-103.5 -25.5h-35v63h35q40 0 40 42v5z" />
    <glyph glyph-name="uni021B" unicode="&#x21b;" horiz-adv-x="420" 
d="M400 516v-143h-107v-173q0 -29 12.5 -37.5t46.5 -8.5h38v-154q-50 -5 -88 -5q-116 0 -166.5 38t-50.5 125v215h-75v143h75v159h208v-159h107zM237 -188h-75v131h172v-134q0 -56 -33.5 -81.5t-103.5 -25.5h-35v63h35q40 0 40 42v5z" />
    <glyph glyph-name="uni0237" unicode="&#x237;" horiz-adv-x="280" 
d="M25 -206q-16 0 -62 2v160h17q14 0 22 1.5t17 6t13 15.5t4 29v508h208v-538q0 -98 -51.5 -141t-167.5 -43z" />
    <glyph glyph-name="uni0259" unicode="&#x259;" horiz-adv-x="609" 
d="M308 528q129 0 207 -72q77 -72 77 -196t-78 -197q-78 -75 -211 -75q-128 0 -207 71q-79 70 -79 193q0 29 4 58h376q-2 36 -28.5 57.5t-70.5 21.5q-49 0 -74 -28h-194q25 78 100 122.5t178 44.5zM306 126q76 0 88 76h-177q7 -76 89 -76z" />
    <glyph glyph-name="h.sups" unicode="&#x2b0;" horiz-adv-x="486" 
d="M319 721q73 0 115 -46t42 -127v-286h-180v246q0 61 -50 61q-25 0 -40.5 -17.5t-15.5 -51.5v-238h-180v619h180v-217q56 57 129 57z" />
    <glyph glyph-name="r.sups" unicode="&#x2b3;" horiz-adv-x="343" 
d="M296 719q7 0 37 -2v-162h-40q-56 0 -79.5 -25.5t-23.5 -87.5v-180h-180v450h176v-80q25 87 110 87z" />
    <glyph glyph-name="circumflex" unicode="&#x2c6;" horiz-adv-x="500" 
d="M375 712l130 -153h-210l-45 63l-45 -63h-210l130 153h250z" />
    <glyph glyph-name="caron" unicode="&#x2c7;" horiz-adv-x="500" 
d="M200 649l45 63h210l-130 -153h-250l-130 153h210z" />
    <glyph glyph-name="uni02C9" unicode="&#x2c9;" horiz-adv-x="400" 
d="M385 563h-370v128h370v-128z" />
    <glyph glyph-name="breve" unicode="&#x2d8;" horiz-adv-x="500" 
d="M139 593q-52 -41 -139 -41t-139 41q-51 41 -58 117h145q3 -47 52 -47q47 0 52 47h145q-7 -76 -58 -117z" />
    <glyph glyph-name="dotaccent" unicode="&#x2d9;" horiz-adv-x="500" 
d="M354 558h-208v156h208v-156z" />
    <glyph glyph-name="ring" unicode="&#x2da;" horiz-adv-x="400" 
d="M328 595q-52 -48 -128 -48t-128 48q-52 46 -52 121q0 74 52 122t128 48t128 -48t52 -122q0 -75 -52 -121zM156 673q28 -28 67.5 -13t39.5 56q0 27 -18 44.5t-45 17.5t-45 -17.5t-18 -44.5t19 -43z" />
    <glyph glyph-name="ogonek" unicode="&#x2db;" horiz-adv-x="500" 
d="M243 -229q-79 0 -122.5 29t-43.5 80q0 36 27.5 68t83.5 52h135q-103 -46 -103 -91q0 -38 55 -38q19 0 48 7v-98q-38 -9 -80 -9z" />
    <glyph glyph-name="tilde" unicode="&#x2dc;" horiz-adv-x="500" 
d="M-274 558h-129q0 86 34 129.5t90 43.5q42 0 92 -22q41 -18 63 -18q29 0 30 40h129q0 -84 -34.5 -128.5t-89.5 -44.5q-37 0 -91 23q-39 17 -64 17q-29 0 -30 -40z" />
    <glyph glyph-name="hungarumlaut" unicode="&#x2dd;" horiz-adv-x="500" 
d="M83 559h-189l90 154h243zM363 559h-188l90 154h241z" />
    <glyph glyph-name="s.sups" unicode="&#x2e2;" horiz-adv-x="486" 
d="M235 247q-111 0 -165.5 38t-59.5 121h174q3 -25 15.5 -34t44.5 -9q52 0 52 22q0 13 -11.5 19t-44.5 11l-71 10q-80 11 -117 46t-37 96q0 154 223 154q217 0 224 -160h-166q-4 46 -59 46q-47 0 -47 -25q0 -23 43 -27l74 -10q88 -12 128.5 -46t40.5 -95q0 -157 -241 -157z
" />
    <glyph glyph-name="gravecomb" unicode="&#x300;" 
d="M168 559h-188l-148 154h247z" />
    <glyph glyph-name="acutecomb" unicode="&#x301;" 
d="M20 559h-188l89 154h247z" />
    <glyph glyph-name="uni0302" unicode="&#x302;" 
d="M125 712l130 -153h-210l-45 63l-45 -63h-210l130 153h250z" />
    <glyph glyph-name="tildecomb" unicode="&#x303;" 
d="M-90 558h-129q0 86 34 129.5t90 43.5q42 0 92 -22q41 -18 63 -18q29 0 30 40h129q0 -84 -34.5 -128.5t-89.5 -44.5q-37 0 -91 23q-39 17 -64 17q-29 0 -30 -40z" />
    <glyph glyph-name="uni0304" unicode="&#x304;" 
d="M187 561h-374v135h374v-135z" />
    <glyph glyph-name="uni0306" unicode="&#x306;" 
d="M139 593q-52 -41 -139 -41t-139 41q-51 41 -58 117h145q3 -47 52 -47q47 0 52 47h145q-7 -76 -58 -117z" />
    <glyph glyph-name="uni0307" unicode="&#x307;" 
d="M104 558h-208v156h208v-156z" />
    <glyph glyph-name="uni0308" unicode="&#x308;" 
d="M-28 558h-196v156h196v-156zM224 558h-196v156h196v-156z" />
    <glyph glyph-name="uni030A" unicode="&#x30a;" 
d="M128 595q-53 -48 -128 -48q-76 0 -128 48q-52 46 -52 121q0 74 52 122t128 48t128 -48t52 -122q0 -75 -52 -121zM-45 673q29 -28 68.5 -13t39.5 56q0 27 -18 44.5t-45 17.5t-45 -17.5t-18 -44.5q0 -26 18 -43z" />
    <glyph glyph-name="uni030B" unicode="&#x30b;" 
d="M-117 559h-189l90 154h243zM163 559h-188l90 154h241z" />
    <glyph glyph-name="uni030C" unicode="&#x30c;" 
d="M-255 649l45 63h210l-130 -153h-250l-130 153h210z" />
    <glyph glyph-name="uni0312" unicode="&#x312;" 
d="M86 736h-35q-40 0 -40 -42v-5h75v-131h-172v134q0 56 33.5 81.5t103.5 25.5h35v-63z" />
    <glyph glyph-name="uni0313" unicode="&#x313;" 
d="M-86 668v131h172v-134q0 -56 -33.5 -81.5t-103.5 -25.5h-35v63h35q40 0 40 42v5h-75z" />
    <glyph glyph-name="dotbelowcomb" unicode="&#x323;" 
d="M98 -204h-196v154h196v-154z" />
    <glyph glyph-name="uni0324" unicode="&#x324;" 
d="M-18 -201h-194v154h194v-154zM212 -201h-195v154h195v-154z" />
    <glyph glyph-name="uni0325" unicode="&#x325;" 
d="M121 -315q-47 -43 -121 -43t-121 43q-47 44 -47 112q0 69 47.5 112.5t120.5 43.5t120.5 -43.5t47.5 -112.5q0 -68 -47 -112zM-39 -240q16 -15 39 -15t39 15q15 15 15 37t-15 37q-16 15 -39 15t-39 -15q-15 -15 -15 -37t15 -37z" />
    <glyph glyph-name="uni0326" unicode="&#x326;" 
d="M-86 -188v131h172v-134q0 -56 -33.5 -81.5t-103.5 -25.5h-35v63h35q40 0 40 42v5h-75z" />
    <glyph glyph-name="uni0327" unicode="&#x327;" 
d="M-2 -42h9q57 0 89.5 -25t32.5 -68q0 -49 -43.5 -78.5t-124.5 -29.5q-34 0 -90 8v72q32 -5 54 -5q71 0 71 38q0 36 -56 36q-16 0 -36 -3v47l46 55h88z" />
    <glyph glyph-name="uni0328" unicode="&#x328;" 
d="M43 -229q-79 0 -122.5 29t-43.5 80q0 36 27.5 68t83.5 52h135q-103 -46 -103 -91q0 -38 55 -38q19 0 48 7v-98q-37 -9 -80 -9z" />
    <glyph glyph-name="uni032E" unicode="&#x32e;" 
d="M126 -159q-51 -39 -126 -39t-126 39q-51 41 -69 112h145q10 -39 50 -39t50 39h145q-18 -71 -69 -112z" />
    <glyph glyph-name="uni0331" unicode="&#x331;" 
d="M185 -175h-370v128h370v-128z" />
    <glyph glyph-name="uni0335" unicode="&#x335;" 
d="M215 217h-430v105h430v-105z" />
    <glyph glyph-name="uni0337" unicode="&#x337;" 
d="M282 508l-498 -561l-66 58l498 561z" />
    <glyph glyph-name="uni0338" unicode="&#x338;" 
d="M372 693l-662 -747l-82 73l662 747z" />
    <glyph glyph-name="uni0394" unicode="&#x394;" horiz-adv-x="715" 
d="M217 712h273l200 -526v-186h-665v186zM352 498q-2 -6 -9 -30t-13 -42l-77 -228h200l-79 228q-6 18 -13 42t-9 30z" />
    <glyph glyph-name="uni03A9" unicode="&#x3a9;" horiz-adv-x="813" 
d="M374 0h-355v194h124v4q-118 88 -118 228q0 135 100 220q99 84 276 84q181 0 284 -84q103 -85 103 -220q0 -138 -118 -228v-4h124v-194h-353v173q56 22 87 74.5t31 122.5q0 80 -40 122t-111 42q-72 0 -112 -41.5t-40 -122.5q0 -70 31 -122.5t87 -74.5v-173z" />
    <glyph glyph-name="uni03BC" unicode="&#x3bc;" horiz-adv-x="612" 
d="M368 230v286h208v-516h-204v59q-58 -67 -133 -70v-185h-203v712h208v-293q0 -59 57 -59q29 0 48 17t19 49z" />
    <glyph glyph-name="pi" unicode="&#x3c0;" horiz-adv-x="701" 
d="M681 516v-143h-70v-196q0 -20 7.5 -27.5t25.5 -7.5t24 1v-142q-58 -6 -102 -6q-94 0 -128 36q-35 35 -35 130v212h-114v-373h-208v373h-71v143h671z" />
    <glyph glyph-name="d.sups" unicode="&#x1d48;" horiz-adv-x="507" 
d="M317 665v216h180v-619h-174v54q-43 -64 -123 -64q-89 0 -139.5 63t-50.5 171t51 171.5t139 63.5q75 0 117 -56zM255 393q65 0 65 94q0 49 -15.5 71t-49.5 22q-65 0 -65 -93q0 -94 65 -94z" />
    <glyph glyph-name="t.sups" unicode="&#x1d57;" horiz-adv-x="339" 
d="M329 712v-127h-77v-156q0 -20 7 -26.5t31 -6.5h39v-132q-32 -4 -72 -4q-102 0 -143.5 35t-41.5 114v176h-62v127h62v136h180v-136h77z" />
    <glyph glyph-name="Wgrave" unicode="&#x1e80;" horiz-adv-x="1011" 
d="M524 909l89 -154h-188l-148 154h247zM749 501l40 211h231l-188 -712h-242l-47 217q-15 65 -37 185q-19 -96 -38 -185l-47 -217h-242l-188 712h231l40 -211q0 -3 5 -29.5t17 -90t24 -131.5q34 183 47 251l42 211h217l42 -211q13 -68 47 -251q12 68 24 131.5t17 90t5 29.5z
" />
    <glyph glyph-name="wgrave" unicode="&#x1e81;" horiz-adv-x="913" 
d="M488 713l89 -154h-188l-148 154h247zM660 375l33 141h222l-170 -516h-206l-50 178q-21 74 -32 123q-15 -61 -33 -123l-50 -178h-206l-170 516h222l33 -141q3 -12 14 -62t20 -89q21 87 41 152l41 140h175l41 -140q20 -65 41 -152q9 39 20 89t14 62z" />
    <glyph glyph-name="Wacute" unicode="&#x1e82;" horiz-adv-x="1011" 
d="M477 909h247l-148 -154h-188zM749 501l40 211h231l-188 -712h-242l-47 217q-15 65 -37 185q-19 -96 -38 -185l-47 -217h-242l-188 712h231l40 -211q0 -3 5 -29.5t17 -90t24 -131.5q34 183 47 251l42 211h217l42 -211q13 -68 47 -251q12 68 24 131.5t17 90t5 29.5z" />
    <glyph glyph-name="wacute" unicode="&#x1e83;" horiz-adv-x="913" 
d="M431 713h247l-148 -154h-188zM660 375l33 141h222l-170 -516h-206l-50 178q-21 74 -32 123q-15 -61 -33 -123l-50 -178h-206l-170 516h222l33 -141q3 -12 14 -62t20 -89q21 87 41 152l41 140h175l41 -140q20 -65 41 -152q9 39 20 89t14 62z" />
    <glyph glyph-name="Wdieresis" unicode="&#x1e84;" horiz-adv-x="1011" 
d="M279 909h196v-154h-196v154zM531 909h196v-154h-196v154zM749 501l40 211h231l-188 -712h-242l-47 217q-15 65 -37 185q-19 -96 -38 -185l-47 -217h-242l-188 712h231l40 -211q0 -3 5 -29.5t17 -90t24 -131.5q34 183 47 251l42 211h217l42 -211q13 -68 47 -251
q12 68 24 131.5t17 90t5 29.5z" />
    <glyph glyph-name="wdieresis" unicode="&#x1e85;" horiz-adv-x="913" 
d="M233 714h196v-156h-196v156zM485 714h196v-156h-196v156zM660 375l33 141h222l-170 -516h-206l-50 178q-21 74 -32 123q-15 -61 -33 -123l-50 -178h-206l-170 516h222l33 -141q3 -12 14 -62t20 -89q21 87 41 152l41 140h175l41 -140q20 -65 41 -152q9 39 20 89t14 62z
" />
    <glyph glyph-name="uni1E9E" unicode="&#x1e9e;" horiz-adv-x="760" 
d="M709 561l-116 -144q71 -22 112 -73t41 -127q0 -109 -78.5 -166t-219.5 -57q-58 0 -110 6v160q35 -4 71 -4q57 0 84 15t27 50t-26.5 49t-82.5 14q-31 0 -60 -3v125l122 151q-33 3 -72 3q-78 0 -111.5 -31.5t-33.5 -92.5v-436h-226v439q0 142 94.5 215.5t273.5 73.5
q142 0 311 -21v-146z" />
    <glyph glyph-name="Ygrave" unicode="&#x1ef2;" horiz-adv-x="695" 
d="M369 909l89 -154h-188l-148 154h247zM421 622l42 90h241l-239 -441v-271h-226v271l-248 441h244l46 -90q47 -93 74 -153q31 77 66 153z" />
    <glyph glyph-name="ygrave" unicode="&#x1ef3;" horiz-adv-x="623" 
d="M333 713l89 -154h-188l-148 154h247zM385 422l27 94h213l-203 -524q-47 -122 -107 -160q-61 -38 -185 -38q-37 0 -91 2v160h94q63 0 63 49q0 17 -9 39l-189 472h222l28 -94q28 -99 66 -252q41 147 71 252z" />
    <glyph glyph-name="thinspace" unicode="&#x2009;" horiz-adv-x="280" 
 />
    <glyph glyph-name="uni2011" unicode="&#x2011;" horiz-adv-x="355" 
d="M334 193h-313v172h313v-172z" />
    <glyph glyph-name="endash" unicode="&#x2013;" horiz-adv-x="528" 
d="M507 193h-486v172h486v-172z" />
    <glyph glyph-name="emdash" unicode="&#x2014;" horiz-adv-x="997" 
d="M976 193h-955v172h955v-172z" />
    <glyph glyph-name="quoteleft" unicode="&#x2018;" horiz-adv-x="299" 
d="M263 606h-32q-65 0 -65 -73v-11h97v-220h-227v225q0 185 196 185h31v-106z" />
    <glyph glyph-name="quoteright" unicode="&#x2019;" horiz-adv-x="299" 
d="M36 492v220h227v-225q0 -185 -196 -185h-31v106h32q65 0 65 73v11h-97z" />
    <glyph glyph-name="quotesinglbase" unicode="&#x201a;" horiz-adv-x="299" 
d="M36 0v220h227v-225q0 -185 -196 -185h-31v106h32q65 0 65 73v11h-97z" />
    <glyph glyph-name="quotedblleft" unicode="&#x201c;" horiz-adv-x="565" 
d="M36 302v225q0 185 196 185h31v-106h-32q-65 0 -65 -73v-11h97v-220h-227zM529 606h-32q-65 0 -65 -73v-11h97v-220h-227v225q0 185 196 185h31v-106z" />
    <glyph glyph-name="quotedblright" unicode="&#x201d;" horiz-adv-x="565" 
d="M133 492h-97v220h227v-225q0 -185 -196 -185h-31v106h32q65 0 65 73v11zM302 492v220h227v-225q0 -185 -196 -185h-31v106h32q65 0 65 73v11h-97z" />
    <glyph glyph-name="quotedblbase" unicode="&#x201e;" horiz-adv-x="565" 
d="M133 0h-97v220h227v-225q0 -185 -196 -185h-31v106h32q65 0 65 73v11zM302 0v220h227v-225q0 -185 -196 -185h-31v106h32q65 0 65 73v11h-97z" />
    <glyph glyph-name="dagger" unicode="&#x2020;" horiz-adv-x="630" 
d="M419 516h196v-143h-196v-519h-208v519h-196v143h196v196h208v-196z" />
    <glyph glyph-name="daggerdbl" unicode="&#x2021;" horiz-adv-x="630" 
d="M615 516v-143h-196v-180h196v-143h-196v-196h-208v196h-196v143h196v180h-196v143h196v196h208v-196h196z" />
    <glyph glyph-name="bullet" unicode="&#x2022;" horiz-adv-x="475" 
d="M435 92h-395v383h395v-383z" />
    <glyph glyph-name="ellipsis" unicode="&#x2026;" horiz-adv-x="897" 
d="M263 0h-227v220h227v-220zM562 0h-227v220h227v-220zM861 0h-227v220h227v-220z" />
    <glyph glyph-name="perthousand" unicode="&#x2030;" horiz-adv-x="1357" 
d="M206 290q-186 0 -186 215q0 216 186 216q187 0 187 -216q0 -215 -187 -215zM342 0h-119l380 712h119zM207 402q25 0 35.5 21t10.5 82q0 62 -10.5 83t-35.5 21q-26 0 -36.5 -20.5t-10.5 -83.5q0 -61 10.5 -82t36.5 -21zM737 -9q-186 0 -186 215q0 216 186 216
q187 0 187 -216q0 -215 -187 -215zM1150 -9q-186 0 -186 215q0 216 186 216q187 0 187 -216q0 -215 -187 -215zM738 103q25 0 35.5 21t10.5 82q0 62 -10.5 83t-35.5 21q-26 0 -36.5 -20.5t-10.5 -83.5q0 -61 10.5 -82t36.5 -21zM1151 103q25 0 35.5 21t10.5 82
q0 62 -10.5 83t-35.5 21q-26 0 -36.5 -20.5t-10.5 -83.5q0 -61 10.5 -82t36.5 -21z" />
    <glyph glyph-name="guilsinglleft" unicode="&#x2039;" horiz-adv-x="250" 
d="M40 366l170 139v-182l-68 -56l68 -55v-183l-170 139v198z" />
    <glyph glyph-name="guilsinglright" unicode="&#x203a;" horiz-adv-x="250" 
d="M40 323v182l170 -139v-198l-170 -139v183l68 55z" />
    <glyph glyph-name="uni203D" unicode="&#x203d;" horiz-adv-x="581" 
d="M293 728q132 0 204 -49.5t72 -139.5q0 -103 -109 -170q-56 -34 -73 -51t-17 -48h-180q0 58 8 82l49 188h75l13 -64q15 18 15 42q0 53 -67 53q-38 0 -53 -18t-17 -63h-201q5 122 73.5 180t207.5 58zM393 0h-227v220h227v-220z" />
    <glyph glyph-name="fraction" unicode="&#x2044;" horiz-adv-x="346" 
d="M40 0h-114l380 712h114z" />
    <glyph glyph-name="zero.sups" unicode="&#x2070;" horiz-adv-x="413" 
d="M206 519q-186 0 -186 215q0 216 186 216q187 0 187 -216q0 -215 -187 -215zM207 631q25 0 35.5 21t10.5 82q0 62 -10.5 83t-35.5 21q-26 0 -36.5 -20.5t-10.5 -83.5q0 -61 10.5 -82t36.5 -21z" />
    <glyph glyph-name="four.sups" unicode="&#x2074;" horiz-adv-x="395" 
d="M334 709h46v-108h-46v-73h-134v73h-173v128l171 212h136v-232zM203 709v97l-78 -97h78z" />
    <glyph glyph-name="five.sups" unicode="&#x2075;" horiz-adv-x="363" 
d="M209 806q69 0 107.5 -39t38.5 -99q0 -68 -48 -108.5t-126 -40.5q-72 0 -119 37t-50 101h126q6 -33 43 -33q20 0 33.5 12.5t13.5 32.5t-13.5 32.5t-33.5 12.5q-29 0 -40 -21h-123l39 248h278v-112h-174l-6 -31q26 8 54 8z" />
    <glyph glyph-name="six.sups" unicode="&#x2076;" horiz-adv-x="374" 
d="M220 806q68 0 107 -39t39 -100q0 -66 -48 -107t-123 -41q-65 0 -112 33q-70 49 -70 180q0 218 183 218q143 0 164 -125h-125q-8 26 -44 26q-24 0 -36.5 -14.5t-16.5 -52.5q32 22 82 22zM161 636q12 -12 33 -12t33 12t12 30t-12 30t-33 12t-33 -12t-12 -30t12 -30z" />
    <glyph glyph-name="seven.sups" unicode="&#x2077;" horiz-adv-x="338" 
d="M15 829v112h307v-107q-53 -59 -77 -124q-24 -66 -24 -182h-145q0 167 113 301h-174z" />
    <glyph glyph-name="eight.sups" unicode="&#x2078;" horiz-adv-x="389" 
d="M313 746q62 -29 62 -97q0 -60 -48.5 -95t-132.5 -35q-83 0 -131.5 35.5t-48.5 94.5q0 70 62 97q-44 29 -44 85q0 57 42 88t120 31q79 0 121.5 -31t42.5 -88t-45 -85zM195 853q-42 0 -42 -33q0 -34 42 -34q41 0 41 34q0 33 -41 33zM194 623q48 0 48 38q0 40 -48 40
q-47 0 -47 -40q0 -38 47 -38z" />
    <glyph glyph-name="nine.sups" unicode="&#x2079;" horiz-adv-x="374" 
d="M291 917q70 -49 70 -180q0 -218 -183 -218q-143 0 -164 125h125q8 -26 44 -26q24 0 36.5 14.5t16.5 52.5q-32 -22 -82 -22q-68 0 -107 39t-39 100q0 66 48 107t123 41q65 0 112 -33zM147 773q12 -12 33 -12t33 12t12 30t-12 30t-33 12t-33 -12t-12 -30t12 -30z" />
    <glyph glyph-name="plus.sups" unicode="&#x207a;" horiz-adv-x="335" 
d="M227 787h93v-106h-93v-95h-119v95h-93v106h93v95h119v-95z" />
    <glyph glyph-name="minus.sups" unicode="&#x207b;" horiz-adv-x="335" 
d="M320 681h-305v106h305v-106z" />
    <glyph glyph-name="parenleft.sups" unicode="&#x207d;" horiz-adv-x="203" 
d="M203 450h-125q-33 81 -46 139q-14 64 -14 145q0 83 14 150q13 60 46 138h125q-55 -146 -55 -288q0 -125 55 -284z" />
    <glyph glyph-name="parenright.sups" unicode="&#x207e;" horiz-adv-x="203" 
d="M125 450h-125q55 159 55 284q0 142 -55 288h125q33 -78 46 -138q14 -67 14 -150q0 -81 -14 -145q-13 -58 -46 -139z" />
    <glyph glyph-name="n.sups" unicode="&#x207f;" horiz-adv-x="486" 
d="M319 721q73 0 115 -46t42 -127v-286h-180v246q0 61 -50 61q-25 0 -40.5 -17.5t-15.5 -51.5v-238h-180v450h176v-53q56 62 133 62z" />
    <glyph glyph-name="zero.subs" unicode="&#x2080;" horiz-adv-x="413" 
d="M206 -205q-186 0 -186 215q0 216 186 216q187 0 187 -216q0 -215 -187 -215zM207 -93q25 0 35.5 21t10.5 82q0 62 -10.5 83t-35.5 21q-26 0 -36.5 -20.5t-10.5 -83.5q0 -61 10.5 -82t36.5 -21z" />
    <glyph glyph-name="one.subs" unicode="&#x2081;" horiz-adv-x="259" 
d="M129 217h105v-413h-134v242h-85v92q90 0 114 79z" />
    <glyph glyph-name="two.subs" unicode="&#x2082;" horiz-adv-x="374" 
d="M239 -48l-19 -9q-29 -15 -40 -27h177v-112h-342v26q0 141 129 199l33 15q27 13 37.5 22.5t10.5 21.5q0 26 -31 26q-35 0 -38 -44h-130q4 75 48 115.5t120 40.5q79 0 122.5 -33t43.5 -93q0 -53 -26.5 -85t-94.5 -63z" />
    <glyph glyph-name="three.subs" unicode="&#x2083;" horiz-adv-x="381" 
d="M311 23q62 -27 62 -96q0 -60 -48 -96t-131 -36q-169 0 -178 159h129q1 -27 11.5 -37t34.5 -10q43 0 43 31t-42 31h-34v96h33q42 0 42 28q0 27 -39 27q-35 0 -40 -38h-129q7 144 170 144q79 0 123.5 -31t44.5 -84q0 -58 -52 -88z" />
    <glyph glyph-name="four.subs" unicode="&#x2084;" horiz-adv-x="395" 
d="M334 -15h46v-108h-46v-73h-134v73h-173v128l171 212h136v-232zM203 -15v97l-78 -97h78z" />
    <glyph glyph-name="five.subs" unicode="&#x2085;" horiz-adv-x="363" 
d="M209 82q69 0 107.5 -39t38.5 -99q0 -68 -48 -108.5t-126 -40.5q-72 0 -119 37t-50 101h126q6 -33 43 -33q20 0 33.5 12.5t13.5 32.5t-13.5 32.5t-33.5 12.5q-29 0 -40 -21h-123l39 248h278v-112h-174l-6 -31q26 8 54 8z" />
    <glyph glyph-name="six.subs" unicode="&#x2086;" horiz-adv-x="374" 
d="M220 82q68 0 107 -39t39 -100q0 -66 -48 -107t-123 -41q-65 0 -112 33q-70 49 -70 180q0 218 183 218q143 0 164 -125h-125q-8 26 -44 26q-24 0 -36.5 -14.5t-16.5 -52.5q32 22 82 22zM161 -88q12 -12 33 -12t33 12t12 30t-12 30t-33 12t-33 -12t-12 -30t12 -30z" />
    <glyph glyph-name="seven.subs" unicode="&#x2087;" horiz-adv-x="338" 
d="M15 105v112h307v-107q-53 -59 -77 -125q-24 -65 -24 -181h-145q0 167 113 301h-174z" />
    <glyph glyph-name="eight.subs" unicode="&#x2088;" horiz-adv-x="389" 
d="M313 22q62 -29 62 -97q0 -60 -48.5 -95t-132.5 -35q-83 0 -131.5 35.5t-48.5 94.5q0 70 62 97q-44 29 -44 85q0 57 42 88t120 31q79 0 121.5 -31t42.5 -88t-45 -85zM195 129q-42 0 -42 -33q0 -34 42 -34q41 0 41 34q0 33 -41 33zM194 -101q48 0 48 38q0 40 -48 40
q-47 0 -47 -40q0 -38 47 -38z" />
    <glyph glyph-name="nine.subs" unicode="&#x2089;" horiz-adv-x="374" 
d="M291 193q70 -49 70 -180q0 -218 -183 -218q-143 0 -164 125h125q8 -26 44 -26q24 0 36.5 14.5t16.5 52.5q-32 -22 -82 -22q-68 0 -107 39t-39 100q0 66 48 107t123 41q65 0 112 -33zM147 49q12 -12 33 -12t33 12t12 30t-12 30t-33 12t-33 -12t-12 -30t12 -30z" />
    <glyph glyph-name="plus.subs" unicode="&#x208a;" horiz-adv-x="335" 
d="M227 63h93v-106h-93v-95h-119v95h-93v106h93v95h119v-95z" />
    <glyph glyph-name="minus.subs" unicode="&#x208b;" horiz-adv-x="335" 
d="M320 -43h-305v106h305v-106z" />
    <glyph glyph-name="equal.subs" unicode="&#x208c;" horiz-adv-x="335" 
d="M320 29h-305v107h305v-107zM320 -114h-305v106h305v-106z" />
    <glyph glyph-name="uni208D" unicode="&#x208d;" horiz-adv-x="203" 
d="M203 -276h-125q-33 81 -46 139q-14 64 -14 145q0 83 14 150q13 60 46 138h125q-55 -146 -55 -288q0 -125 55 -284z" />
    <glyph glyph-name="uni208E" unicode="&#x208e;" horiz-adv-x="203" 
d="M125 -276h-125q55 159 55 284q0 142 -55 288h125q33 -78 46 -138q14 -67 14 -150q0 -81 -14 -145q-13 -58 -46 -139z" />
    <glyph glyph-name="n.subs" unicode="&#x2099;" horiz-adv-x="486" 
d="M319 263q73 0 115 -46t42 -127v-286h-180v246q0 61 -50 61q-25 0 -40.5 -17.5t-15.5 -51.5v-238h-180v450h176v-53q56 62 133 62z" />
    <glyph glyph-name="Euro" unicode="&#x20ac;" horiz-adv-x="786" 
d="M549 262h222q-18 -110 -91 -190q-82 -92 -243 -92q-134 0 -223.5 66.5t-120.5 186.5h-93v84h80q-1 8 -1 37q0 27 1 34h-80v84h93q30 121 118 188.5t219 67.5q160 0 245 -93q75 -82 95 -192h-219q-25 97 -122 97q-80 0 -106 -68h124v-84h-140q-1 -7 -1 -31q0 -31 1 -40
h140v-84h-122q29 -66 104 -66q94 0 120 95z" />
    <glyph glyph-name="uni20B8" unicode="&#x20b8;" horiz-adv-x="650" 
d="M15 517v195h620v-195h-620zM15 417h620v-195h-197v-222h-226v222h-197v195z" />
    <glyph glyph-name="uni20B9" unicode="&#x20b9;" horiz-adv-x="621" 
d="M40 712h564v-84h-142q47 -39 59 -107h83v-84h-83q-13 -76 -69.5 -126t-142.5 -65l227 -246h-274l-222 247v115h139q91 0 113 75h-252v84h252q-22 75 -113 75h-139v116z" />
    <glyph glyph-name="uni20BA" unicode="&#x20ba;" horiz-adv-x="702" 
d="M455 372h232q0 -171 -103 -271q-104 -101 -276 -101h-227v281l-81 -33v95l81 33v62l-81 -33v95l81 33v179h227v-85l143 59v-95l-143 -59v-62l143 59v-95l-143 -59v-180q69 0 108 46.5t39 130.5z" />
    <glyph glyph-name="uni20BC" unicode="&#x20bc;" horiz-adv-x="835" 
d="M528 543h17q122 0 191 -70t69 -194v-279h-219v274q0 39 -13 56t-45 22v-301h-221v301q-32 -5 -45 -22t-13 -56v-274h-219v279q0 124 69 194t191 70h17v169h221v-169z" />
    <glyph glyph-name="uni20BF" unicode="&#x20bf;" horiz-adv-x="709" 
d="M695 210q0 -89 -52.5 -142t-158.5 -65v-119h-94v116h-90v-116h-94v116h-166v712h166v116h94v-116h90v116h94v-120q91 -12 136.5 -59.5t45.5 -117.5q0 -106 -93 -149q55 -20 88.5 -68t33.5 -104zM266 438h111q56 0 56 50t-56 50h-111v-100zM266 174h139q56 0 56 50t-56 50
h-139v-100z" />
    <glyph glyph-name="uni2105" unicode="&#x2105;" horiz-adv-x="1053" 
d="M237 298q-97 0 -156 58q-61 57 -61 157q0 101 59 158.5t158 57.5q82 0 139 -41t69 -120h-136q-17 45 -72 45q-78 0 -78 -100q0 -99 78 -99q58 0 71 46h136q-11 -78 -67.5 -120t-139.5 -42zM388 0h-119l380 712h119zM972 49q-61 -58 -162 -58q-100 0 -161 58
q-62 59 -62 157q0 99 62 158q61 58 161 58q101 0 162 -58t61 -158q0 -99 -61 -157zM749 133q22 -25 61 -25t61 25q23 26 23 73q0 48 -22.5 73.5t-61.5 25.5t-61.5 -25.5t-22.5 -73.5q0 -47 23 -73z" />
    <glyph glyph-name="uni2113" unicode="&#x2113;" horiz-adv-x="545" 
d="M463 184l62 -101q-99 -90 -224 -90q-94 0 -143.5 51.5t-49.5 143.5v8q-39 -5 -82 -6l-16 100q67 5 98 9v208q0 108 54.5 164.5t162.5 56.5q189 0 189 -187q0 -201 -199 -291v-29q0 -74 57 -74q44 0 91 37zM315 504v-138q80 56 80 154q0 30 -9 43t-30 13
q-22 0 -31.5 -16.5t-9.5 -55.5z" />
    <glyph glyph-name="uni2116" unicode="&#x2116;" horiz-adv-x="1342" 
d="M828 649q82 74 212 74t212 -74q80 -75 80 -196t-80 -195q-82 -74 -212 -74q-132 0 -212 74q-81 74 -81 195t81 196zM483 596v116h215v-712h-230l-150 253q-38 63 -67 119q4 -100 4 -256v-116h-215v712h230l147 -253q27 -46 69 -134q-3 89 -3 271zM955 452q0 -108 85 -108
t85 108q0 55 -22.5 83t-62.5 28q-85 0 -85 -111z" />
    <glyph glyph-name="uni2117" unicode="&#x2117;" horiz-adv-x="785" 
d="M120 621q110 107 272 107q163 0 273 -107q110 -108 110 -265q0 -156 -110 -264q-109 -108 -273 -108q-162 0 -272 108t-110 264q0 157 110 265zM212 177q70 -72 181 -72q110 0 182 72q71 71 71 179q0 107 -71 180q-73 71 -182 71q-110 0 -181 -71q-72 -72 -72 -180
t72 -179zM261 538h161q68 0 110.5 -39.5t42.5 -100.5t-42.5 -101t-110.5 -40h-44v-84h-117v365zM378 360h37q43 0 43 38q0 16 -11 26.5t-32 10.5h-37v-75z" />
    <glyph glyph-name="trademark" unicode="&#x2122;" horiz-adv-x="587" 
d="M17 712h225v-71h-73v-187h-78v187h-74v71zM431 614l25 98h114v-258h-74v75q0 65 1 84l-6 -24l-37 -135h-63l-37 135l-2 8t-2 7.5t-1 4.5q1 -17 1 -80v-75h-75v258h114l25 -98l9 -35q1 13 8 35z" />
    <glyph glyph-name="uni2126" unicode="&#x2126;" horiz-adv-x="785" 
d="M360 0h-355v194h124v4q-118 88 -118 228q0 135 100 220q99 84 276 84q181 0 284 -84q103 -85 103 -220q0 -138 -118 -228v-4h124v-194h-353v173q56 22 87 74.5t31 122.5q0 80 -40 122t-111 42q-72 0 -112 -41.5t-40 -122.5q0 -70 31 -122.5t87 -74.5v-173z" />
    <glyph glyph-name="estimated" unicode="&#x212e;" horiz-adv-x="911" 
d="M161 623q109 105 295 105q185 0 295 -110q109 -110 109 -272h-646q-14 0 -14 -13v-176q0 -32 16 -47q98 -96 240 -96q74 0 141.5 31.5t110.5 83.5h73q-44 -62 -128.5 -102t-196.5 -40q-182 0 -294 104q-112 103 -112 265q0 160 111 267zM456 700q-142 0 -240 -98
q-16 -15 -16 -44v-176q0 -13 14 -13h481q14 0 14 13v176q0 29 -16 44q-100 98 -237 98z" />
    <glyph glyph-name="uni2153" unicode="&#x2153;" horiz-adv-x="801" 
d="M234 712v-413h-134v242h-85v92q90 0 114 79h105zM116 0l380 712h114l-380 -712h-114zM731 219q62 -27 62 -96q0 -60 -48 -96t-131 -36q-169 0 -178 159h129q1 -27 11.5 -37t34.5 -10q43 0 43 31t-42 31h-34v96h33q42 0 42 28q0 27 -39 27q-35 0 -40 -38h-129
q7 144 170 144q79 0 123.5 -31t44.5 -84q0 -58 -52 -88z" />
    <glyph glyph-name="uni2154" unicode="&#x2154;" horiz-adv-x="925" 
d="M180 411h177v-112h-342v26q0 141 129 199l33 15q27 13 37.5 22.5t10.5 21.5q0 26 -31 26q-35 0 -38 -44h-130q4 75 48 115.5t120 40.5q79 0 122.5 -33t43.5 -93q0 -53 -26.5 -85t-94.5 -63l-19 -9q-29 -15 -40 -27zM242 0l380 712h114l-380 -712h-114zM855 219
q62 -27 62 -96q0 -60 -48 -96t-131 -36q-169 0 -178 159h129q1 -27 11.5 -37t34.5 -10q43 0 43 31t-42 31h-34v96h33q42 0 42 28q0 27 -39 27q-35 0 -40 -38h-129q7 144 170 144q79 0 123.5 -31t44.5 -84q0 -58 -52 -88z" />
    <glyph glyph-name="uni2155" unicode="&#x2155;" horiz-adv-x="818" 
d="M234 712v-413h-134v242h-85v92q90 0 114 79h105zM126 0l380 712h114l-380 -712h-114zM664 278q69 0 107.5 -39t38.5 -99q0 -68 -48 -108.5t-126 -40.5q-72 0 -119 37t-50 101h126q4 -33 43 -33q20 0 33.5 12.5t13.5 32.5t-13.5 32.5t-33.5 12.5q-30 0 -40 -21h-123
l39 248h278v-112h-174l-6 -31q26 8 54 8z" />
    <glyph glyph-name="uni2156" unicode="&#x2156;" horiz-adv-x="948" 
d="M180 411h177v-112h-342v26q0 141 129 199l33 15q27 13 37.5 22.5t10.5 21.5q0 26 -31 26q-35 0 -38 -44h-130q4 75 48 115.5t120 40.5q79 0 122.5 -33t43.5 -93q0 -53 -26.5 -85t-94.5 -63l-19 -9q-29 -15 -40 -27zM252 0l380 712h114l-380 -712h-114zM788 278
q69 0 107.5 -39t38.5 -99q0 -68 -48 -108.5t-126 -40.5q-72 0 -119 37t-50 101h126q5 -33 43 -33q20 0 33.5 12.5t13.5 32.5t-13.5 32.5t-33.5 12.5q-30 0 -40 -21h-123l39 248h278v-112h-174l-6 -31q26 8 54 8z" />
    <glyph glyph-name="uni2157" unicode="&#x2157;" horiz-adv-x="916" 
d="M373 422q0 -60 -48 -96t-131 -36q-169 0 -178 159h129q1 -27 11.5 -37t34.5 -10q43 0 43 31t-42 31h-34v96h33q42 0 42 28q0 27 -39 27q-35 0 -40 -38h-129q7 144 170 144q79 0 123.5 -31t44.5 -84q0 -58 -52 -88q62 -27 62 -96zM225 0l380 712h114l-380 -712h-114z
M762 278q69 0 107.5 -39t38.5 -99q0 -68 -48 -108.5t-126 -40.5q-72 0 -119 37t-50 101h126q5 -33 43 -33q20 0 33.5 12.5t13.5 32.5t-13.5 32.5t-33.5 12.5q-30 0 -40 -21h-123l39 248h278v-112h-174l-6 -31q26 8 54 8z" />
    <glyph glyph-name="uni2158" unicode="&#x2158;" horiz-adv-x="943" 
d="M334 372v-73h-134v73h-173v128l171 212h136v-232h46v-108h-46zM245 0l380 712h114l-380 -712h-114zM203 480v97l-78 -97h78zM782 278q69 0 107.5 -39t38.5 -99q0 -68 -48 -108.5t-126 -40.5q-72 0 -119 37t-50 101h126q5 -33 43 -33q20 0 33.5 12.5t13.5 32.5t-13.5 32.5
t-33.5 12.5q-30 0 -40 -21h-123l39 248h278v-112h-174l-6 -31q26 8 54 8z" />
    <glyph glyph-name="uni2159" unicode="&#x2159;" horiz-adv-x="805" 
d="M234 712v-413h-134v242h-85v92q90 0 114 79h105zM116 0l380 712h114l-380 -712h-114zM634 278q68 0 107 -39t39 -100q0 -66 -48 -107t-123 -41q-65 0 -112 33q-70 49 -70 180q0 218 183 218q143 0 164 -125h-125q-8 26 -44 26q-24 0 -36.5 -14.5t-16.5 -52.5q32 22 82 22
zM575 108q12 -12 33 -12t33 12t12 30t-12 30t-33 12t-33 -12t-12 -30t12 -30z" />
    <glyph glyph-name="uni215A" unicode="&#x215a;" horiz-adv-x="872" 
d="M355 439q0 -68 -48 -108.5t-126 -40.5q-72 0 -119 37t-50 101h126q6 -33 43 -33q20 0 33.5 12.5t13.5 32.5t-13.5 32.5t-33.5 12.5q-29 0 -40 -21h-123l39 248h278v-112h-174l-6 -31q26 8 54 8q69 0 107.5 -39t38.5 -99zM196 0l380 712h114l-380 -712h-114zM718 278
q68 0 107 -39t39 -100q0 -66 -48 -107t-123 -41q-65 0 -112 33q-70 49 -70 180q0 218 183 218q143 0 164 -125h-125q-8 26 -44 26q-24 0 -36.5 -14.5t-16.5 -52.5q32 22 82 22zM659 108q12 -12 33 -12t33 12t12 30t-12 30t-33 12t-33 -12t-12 -30t12 -30z" />
    <glyph glyph-name="oneeighth" unicode="&#x215b;" horiz-adv-x="808" 
d="M234 712v-413h-134v242h-85v92q90 0 114 79h105zM116 0l380 712h114l-380 -712h-114zM732 218q62 -29 62 -97q0 -60 -48.5 -95t-132.5 -35q-83 0 -131.5 35.5t-48.5 94.5q0 70 62 97q-44 29 -44 85q0 57 42 88t120 31q79 0 121.5 -31t42.5 -88t-45 -85zM614 325
q-42 0 -42 -33q0 -34 42 -34q41 0 41 34q0 33 -41 33zM613 95q48 0 48 38q0 40 -48 40q-47 0 -47 -40q0 -38 47 -38z" />
    <glyph glyph-name="threeeighths" unicode="&#x215c;" horiz-adv-x="911" 
d="M373 422q0 -60 -48 -96t-131 -36q-169 0 -178 159h129q1 -27 11.5 -37t34.5 -10q43 0 43 31t-42 31h-34v96h33q42 0 42 28q0 27 -39 27q-35 0 -40 -38h-129q7 144 170 144q79 0 123.5 -31t44.5 -84q0 -58 -52 -88q62 -27 62 -96zM214 0l380 712h114l-380 -712h-114z
M835 218q62 -29 62 -97q0 -60 -48.5 -95t-132.5 -35q-83 0 -131.5 35.5t-48.5 94.5q0 70 62 97q-44 29 -44 85q0 57 42 88t120 31q79 0 121.5 -31t42.5 -88t-45 -85zM717 325q-42 0 -42 -33q0 -34 42 -34q41 0 41 34q0 33 -41 33zM716 95q48 0 48 38q0 40 -48 40
q-47 0 -47 -40q0 -38 47 -38z" />
    <glyph glyph-name="fiveeighths" unicode="&#x215d;" horiz-adv-x="894" 
d="M355 439q0 -68 -48 -108.5t-126 -40.5q-72 0 -119 37t-50 101h126q6 -33 43 -33q20 0 33.5 12.5t13.5 32.5t-13.5 32.5t-33.5 12.5q-29 0 -40 -21h-123l39 248h278v-112h-174l-6 -31q26 8 54 8q69 0 107.5 -39t38.5 -99zM197 0l380 712h114l-380 -712h-114zM818 218
q62 -29 62 -97q0 -60 -48.5 -95t-132.5 -35q-83 0 -131.5 35.5t-48.5 94.5q0 70 62 97q-44 29 -44 85q0 57 42 88t120 31q79 0 121.5 -31t42.5 -88t-45 -85zM700 325q-42 0 -42 -33q0 -34 42 -34q41 0 41 34q0 33 -41 33zM699 95q48 0 48 38q0 40 -48 40q-47 0 -47 -40
q0 -38 47 -38z" />
    <glyph glyph-name="seveneighths" unicode="&#x215e;" horiz-adv-x="813" 
d="M221 299h-145q0 167 113 301h-174v112h307v-107q-53 -59 -77 -124q-24 -66 -24 -182zM111 0l380 712h114l-380 -712h-114zM737 218q62 -29 62 -97q0 -60 -48.5 -95t-132.5 -35q-83 0 -131.5 35.5t-48.5 94.5q0 70 62 97q-44 29 -44 85q0 57 42 88t120 31q79 0 121.5 -31
t42.5 -88t-45 -85zM619 325q-42 0 -42 -33q0 -34 42 -34q41 0 41 34q0 33 -41 33zM618 95q48 0 48 38q0 40 -48 40q-47 0 -47 -40q0 -38 47 -38z" />
    <glyph glyph-name="arrowleft" unicode="&#x2190;" horiz-adv-x="956" 
d="M410 442h432v-172h-431q39 -47 82 -105l123 -165h-233l-269 356l269 356h233l-123 -165q-47 -64 -83 -105z" />
    <glyph glyph-name="arrowup" unicode="&#x2191;" horiz-adv-x="956" 
d="M122 459l356 269l356 -269v-223l-165 124q-37 27 -97 76v-436h-190v434q-55 -45 -95 -74l-165 -124v223z" />
    <glyph glyph-name="arrowright" unicode="&#x2192;" horiz-adv-x="956" 
d="M340 712h233l269 -356l-269 -356h-233l123 165q43 58 82 105h-431v172h432q-36 41 -83 105z" />
    <glyph glyph-name="arrowdown" unicode="&#x2193;" horiz-adv-x="956" 
d="M669 352l165 124v-223l-356 -269l-356 269v223l165 -124q40 -29 95 -74v434h190v-436q60 49 97 76z" />
    <glyph glyph-name="arrowboth" unicode="&#x2194;" horiz-adv-x="956" 
d="M536 712h200l220 -356l-220 -356h-201l100 161q59 97 70 111h-454q25 -38 69 -111l97 -161h-196l-221 356l220 356h199l-100 -164q-35 -61 -66 -106h450q-30 43 -66 103z" />
    <glyph glyph-name="arrowupdn" unicode="&#x2195;" horiz-adv-x="956" 
d="M572 578v-444q38 32 97 76l165 124v-223l-356 -269l-356 269v223l165 -124q40 -29 95 -74v440q-55 -45 -95 -74l-165 -124v223l356 269l356 -269v-223l-165 124q-59 44 -97 76z" />
    <glyph glyph-name="uni2196" unicode="&#x2196;" horiz-adv-x="956" 
d="M828 506h-244q-101 0 -130 1l346 -335l-124 -134l-348 337q1 -28 1 -128v-237l-180 164v504h513z" />
    <glyph glyph-name="uni2197" unicode="&#x2197;" horiz-adv-x="956" 
d="M128 506l166 172h513v-504l-180 -164v237q0 100 1 128l-348 -337l-124 134l346 335q-29 -1 -130 -1h-244z" />
    <glyph glyph-name="uni2198" unicode="&#x2198;" horiz-adv-x="956" 
d="M627 471v237l180 -164v-504h-513l-166 172h244q101 0 130 -1l-346 335l124 134l348 -337q-1 28 -1 128z" />
    <glyph glyph-name="uni2199" unicode="&#x2199;" horiz-adv-x="956" 
d="M584 216h244l-166 -172h-513v504l180 164v-237q0 -100 -1 -128l348 337l124 -134l-346 -335q29 1 130 1z" />
    <glyph glyph-name="partialdiff" unicode="&#x2202;" horiz-adv-x="675" 
d="M400 728q118 0 183.5 -63t65.5 -181q0 -140 -45 -255q-45 -116 -130 -180q-86 -65 -200 -65q-107 0 -181 60q-73 60 -73 165q0 112 76 189q75 78 192 78q107 0 158 -65q4 25 4 63q0 98 -74 98q-62 0 -84 -54h-202q33 99 115.5 154.5t194.5 55.5zM294 153q41 0 69.5 31
t28.5 73q0 30 -16 47.5t-46 17.5q-41 0 -69.5 -31t-28.5 -74q0 -30 16 -47t46 -17z" />
    <glyph glyph-name="uni2206" unicode="&#x2206;" horiz-adv-x="713" 
d="M216 712h273l200 -526v-186h-665v186zM351 498q-2 -6 -9 -30t-13 -42l-77 -228h200l-79 228q-6 18 -13 42t-9 30z" />
    <glyph glyph-name="product" unicode="&#x220f;" horiz-adv-x="742" 
d="M40 -196v908h662v-908h-226v709h-210v-709h-226z" />
    <glyph glyph-name="summation" unicode="&#x2211;" horiz-adv-x="662" 
d="M454 1h183v-199h-612v169l274 287l-274 287v169h602v-199h-173q-75 0 -137 2q60 -60 122 -124l65 -69v-132l-65 -69q-78 -83 -122 -124q62 2 137 2z" />
    <glyph glyph-name="minus" unicode="&#x2212;" horiz-adv-x="528" 
d="M507 271h-486v172h486v-172z" />
    <glyph glyph-name="uni2215" unicode="&#x2215;" horiz-adv-x="525" 
d="M218 0h-198l286 712h199z" />
    <glyph glyph-name="uni2219" unicode="&#x2219;" horiz-adv-x="523" 
d="M398 224h-273v265h273v-265z" />
    <glyph glyph-name="radical" unicode="&#x221a;" horiz-adv-x="757" 
d="M435 298l105 414h226l-265 -908h-278l-118 354h-95v199h251l13 -48q8 -31 39 -144q9 -35 24.5 -94.5t21.5 -81.5q19 77 36.5 148t27.5 111.5t12 49.5z" />
    <glyph glyph-name="infinity" unicode="&#x221e;" horiz-adv-x="863" 
d="M635 570q93 0 150 -60q57 -61 57 -154t-57 -153q-57 -61 -150 -61q-118 0 -203 106q-85 -106 -204 -106q-92 0 -149 61q-58 59 -58 153q0 93 58 154q57 60 149 60q119 0 204 -106q85 106 203 106zM240 285q53 0 104 71q-50 71 -104 71q-28 0 -45.5 -20t-17.5 -51
t17.5 -51t45.5 -20zM623 285q28 0 45.5 20t17.5 51t-17.5 51t-45.5 20q-51 0 -104 -71q51 -71 104 -71z" />
    <glyph glyph-name="integral" unicode="&#x222b;" horiz-adv-x="441" 
d="M110 -204q-36 0 -89 8v151q21 -4 37 -4q59 0 59 43v537q0 94 57 141t160 47q47 0 86 -7v-151q-18 3 -35 3q-61 0 -61 -43v-536q0 -95 -56 -142t-158 -47z" />
    <glyph glyph-name="approxequal" unicode="&#x2248;" horiz-adv-x="528" 
d="M142 373h-122q0 100 40 154.5t117 54.5q45 0 110 -30q39 -19 56 -19q21 0 30.5 10.5t12.5 37.5h122q0 -99 -39.5 -154t-115.5 -55q-51 0 -112 31q-38 18 -56 18q-20 0 -29.5 -10.5t-13.5 -37.5zM142 132h-122q0 100 40 154.5t117 54.5q45 0 110 -30q39 -19 56 -19
q21 0 30.5 10.5t12.5 37.5h122q0 -99 -39.5 -154t-115.5 -55q-47 0 -112 31q-37 18 -56 18q-20 0 -29.5 -10.5t-13.5 -37.5z" />
    <glyph glyph-name="notequal" unicode="&#x2260;" horiz-adv-x="527" 
d="M507 544v-150h-171l-25 -76h196v-150h-247l-38 -114l-105 37l26 77h-122v150h172l26 76h-198v150h249l38 114l104 -38l-26 -76h121z" />
    <glyph glyph-name="lessequal" unicode="&#x2264;" horiz-adv-x="523" 
d="M507 629v-158l-24 -7q-29 -8 -81.5 -23.5t-94.5 -27.5t-78 -22q36 -10 78 -22t94.5 -27.5t81.5 -23.5l24 -7v-158l-486 149v178zM507 0h-486v148h486v-148z" />
    <glyph glyph-name="greaterequal" unicode="&#x2265;" horiz-adv-x="522" 
d="M16 471v158l486 -149v-178l-486 -149v158l24 7q29 8 81.5 23.5t94.5 27.5t78 22q-36 10 -78 22t-94.5 27.5t-81.5 23.5zM502 0h-486v148h486v-148z" />
    <glyph glyph-name="uni2460" unicode="&#x2460;" horiz-adv-x="956" 
d="M236 758q109 61 242 61t242 -61q110 -62 173 -168t63 -234q0 -126 -63 -233q-64 -108 -173 -169t-242 -61t-242 61t-173 169q-63 107 -63 233q0 128 63 234t173 168zM244 124q94 -94 235 -94t235 94q95 93 95 232q0 138 -95 233q-95 93 -235 93q-141 0 -235 -93
q-95 -95 -95 -233q0 -139 95 -232zM454 584h115v-455h-147v267h-93v101q52 0 81.5 20.5t43.5 66.5z" />
    <glyph glyph-name="uni2461" unicode="&#x2461;" horiz-adv-x="956" 
d="M236 758q109 61 242 61t242 -61q110 -62 173 -168t63 -234q0 -126 -63 -233q-64 -108 -173 -169t-242 -61t-242 61t-173 169q-63 107 -63 233q0 128 63 234t173 168zM244 124q94 -94 235 -94t235 94q95 93 95 232q0 138 -95 233q-95 93 -235 93q-141 0 -235 -93
q-95 -95 -95 -233q0 -139 95 -232zM534 309l-21 -10q-32 -15 -43 -29h194v-124h-376v29q0 157 141 219l37 16q32 14 42.5 24t10.5 25q0 28 -35 28q-36 0 -41 -48h-143q5 84 52.5 128t131.5 44q87 0 135 -36.5t48 -102.5q0 -58 -30 -93q-32 -37 -103 -70z" />
    <glyph glyph-name="uni2462" unicode="&#x2462;" horiz-adv-x="956" 
d="M236 758q109 61 242 61t242 -61q110 -62 173 -168t63 -234q0 -126 -63 -233q-64 -108 -173 -169t-242 -61t-242 61t-173 169q-63 107 -63 233q0 128 63 234t173 168zM244 124q94 -94 235 -94t235 94q95 93 95 232q0 138 -95 233q-95 93 -235 93q-141 0 -235 -93
q-95 -95 -95 -233q0 -139 95 -232zM608 371q68 -30 68 -106q0 -66 -52.5 -105.5t-144.5 -39.5q-185 0 -196 174h142q2 -29 13.5 -40t37.5 -11q47 0 47 34t-46 34h-37v106h36q46 0 46 30t-43 30q-39 0 -44 -42h-142q7 159 187 159q87 0 136 -34.5t49 -92.5q0 -65 -57 -96z
" />
    <glyph glyph-name="uni2463" unicode="&#x2463;" horiz-adv-x="956" 
d="M236 758q109 61 242 61t242 -61q110 -62 173 -168t63 -234q0 -126 -63 -233q-64 -108 -173 -169t-242 -61t-242 61t-173 169q-63 107 -63 233q0 128 63 234t173 168zM244 124q94 -94 235 -94t235 94q95 93 95 232q0 138 -95 233q-95 93 -235 93q-141 0 -235 -93
q-95 -95 -95 -233q0 -139 95 -232zM457 588h149v-255h51v-119h-51v-81h-147v81h-190v141zM462 333v106l-85 -106h85z" />
    <glyph glyph-name="uni2464" unicode="&#x2464;" horiz-adv-x="956" 
d="M236 758q109 61 242 61t242 -61q110 -62 173 -168t63 -234q0 -126 -63 -233q-64 -108 -173 -169t-242 -61t-242 61t-173 169q-63 107 -63 233q0 128 63 234t173 168zM244 124q94 -94 235 -94t235 94q95 93 95 232q0 138 -95 233q-95 93 -235 93q-141 0 -235 -93
q-95 -95 -95 -233q0 -139 95 -232zM506 429q76 0 118.5 -43t42.5 -109q0 -74 -53.5 -118.5t-138.5 -44.5q-79 0 -130.5 40.5t-55.5 110.5h139q8 -36 47 -36q23 0 37.5 14t14.5 36t-14.5 35.5t-37.5 13.5q-29 0 -44 -23h-135l43 273h306v-123h-192l-7 -35q26 9 60 9z" />
    <glyph glyph-name="uni2465" unicode="&#x2465;" horiz-adv-x="956" 
d="M236 758q109 61 242 61t242 -61q110 -62 173 -168t63 -234q0 -126 -63 -233q-64 -108 -173 -169t-242 -61t-242 61t-173 169q-63 107 -63 233q0 128 63 234t173 168zM244 124q94 -94 235 -94t235 94q95 93 95 232q0 138 -95 233q-95 93 -235 93q-141 0 -235 -93
q-95 -95 -95 -233q0 -139 95 -232zM511 435q75 0 118 -43t43 -110q0 -73 -53 -117q-54 -45 -135 -45q-70 0 -123 36q-77 53 -77 198q0 240 201 240q157 0 180 -138h-137q-9 29 -49 29q-27 0 -40.5 -16.5t-17.5 -57.5q37 24 90 24zM483 235q30 -2 42.5 22t0 48t-42.5 22
q-23 0 -36.5 -12.5t-13.5 -33.5t13.5 -33.5t36.5 -12.5z" />
    <glyph glyph-name="uni2466" unicode="&#x2466;" horiz-adv-x="956" 
d="M236 758q109 61 242 61t242 -61q110 -62 173 -168t63 -234q0 -126 -63 -233q-64 -108 -173 -169t-242 -61t-242 61t-173 169q-63 107 -63 233q0 128 63 234t173 168zM244 124q94 -94 235 -94t235 94q95 93 95 232q0 138 -95 233q-95 93 -235 93q-141 0 -235 -93
q-95 -95 -95 -233q0 -139 95 -232zM504 445h-191v123h337v-118q-58 -64 -84 -137q-27 -72 -27 -200h-159q0 187 124 332z" />
    <glyph glyph-name="uni2467" unicode="&#x2467;" horiz-adv-x="956" 
d="M236 758q109 61 242 61t242 -61q110 -62 173 -168t63 -234q0 -126 -63 -233q-64 -108 -173 -169t-242 -61t-242 61t-173 169q-63 107 -63 233q0 128 63 234t173 168zM244 124q94 -94 235 -94t235 94q95 93 95 232q0 138 -95 233q-95 93 -235 93q-141 0 -235 -93
q-95 -95 -95 -233q0 -139 95 -232zM609 370q68 -30 68 -106q0 -66 -53.5 -104.5t-145.5 -38.5t-145 38.5t-53 104.5q0 76 68 106q-49 33 -49 94q0 62 46.5 96.5t132.5 34.5t133 -34.5t47 -96.5q0 -61 -49 -94zM479 488q-47 0 -47 -36q0 -38 47 -38q45 0 45 38q0 36 -45 36z
M426 277q0 -42 52 -42t52 42q0 44 -52 44t-52 -44z" />
    <glyph glyph-name="uni2468" unicode="&#x2468;" horiz-adv-x="956" 
d="M236 758q109 61 242 61t242 -61q110 -62 173 -168t63 -234q0 -126 -63 -233q-64 -108 -173 -169t-242 -61t-242 61t-173 169q-63 107 -63 233q0 128 63 234t173 168zM244 124q94 -94 235 -94t235 94q95 93 95 232q0 138 -95 233q-95 93 -235 93q-141 0 -235 -93
q-95 -95 -95 -233q0 -139 95 -232zM609 557q77 -56 77 -198q0 -239 -201 -239q-157 0 -180 137h137q8 -29 49 -29q27 0 40.5 16.5t17.5 57.5q-37 -24 -90 -24q-75 0 -118 43.5t-43 109.5q0 74 53 119q53 44 135 44q73 0 123 -37zM451 399q13 -13 36 -13t37 13t14 33t-14 33
q-13 13 -36.5 13t-36.5 -13t-13 -33t13 -33z" />
    <glyph glyph-name="uni24EA" unicode="&#x24ea;" horiz-adv-x="956" 
d="M720 -46q-109 -61 -242 -61t-242 61t-173 169q-63 107 -63 233q0 128 63 234t173 168q109 61 242 61t242 -61q110 -62 173 -168t63 -234q0 -126 -63 -233q-64 -108 -173 -169zM244 124q94 -94 235 -94t235 94q95 93 95 232q0 138 -95 233q-95 93 -235 93q-141 0 -235 -93
q-95 -95 -95 -233q0 -139 95 -232zM683 356q0 -236 -205 -236t-205 236q0 238 205 238t205 -238zM440 265q12 -22 39 -22t39 22q11 22 11 91t-11 93q-12 21 -39 21t-39 -21q-13 -22 -13 -93t13 -91z" />
    <glyph glyph-name="uni24FF" unicode="&#x24ff;" horiz-adv-x="956" 
d="M720 -46q-109 -61 -242 -61t-242 61t-173 169q-63 107 -63 233q0 128 63 234t173 168q109 61 242 61t242 -61q110 -62 173 -168t63 -234q0 -126 -63 -233q-64 -108 -173 -169zM282 356q0 -233 196 -233t196 233q0 234 -196 234t-196 -234zM479 227q-36 0 -51 30t-15 99
q0 70 15 100t51 30q35 0 49.5 -30t14.5 -100t-14.5 -99.5t-49.5 -29.5z" />
    <glyph glyph-name="filledbox" unicode="&#x25a0;" horiz-adv-x="958" 
d="M933 -88h-908v888h908v-888z" />
    <glyph glyph-name="uni25A1" unicode="&#x25a1;" horiz-adv-x="958" 
d="M933 -88h-908v888h908v-888zM173 667v-622h612v622h-612z" />
    <glyph glyph-name="lozenge" unicode="&#x25ca;" horiz-adv-x="645" 
d="M204 712h235l193 -356l-193 -356h-235l-192 356zM228 356l95 -180l94 180l-94 180z" />
    <glyph glyph-name="circle" unicode="&#x25cb;" horiz-adv-x="956" 
d="M720 -46q-109 -61 -242 -61t-242 61t-173 169q-63 107 -63 233q0 128 63 234t173 168q109 61 242 61t242 -61q110 -62 173 -168t63 -234q0 -126 -63 -233q-64 -108 -173 -169zM244 124q94 -94 235 -94t235 94q95 93 95 232q0 138 -95 233q-95 93 -235 93q-141 0 -235 -93
q-95 -95 -95 -233q0 -139 95 -232z" />
    <glyph glyph-name="uni25CF" unicode="&#x25cf;" horiz-adv-x="956" 
d="M720 -46q-109 -61 -242 -61t-242 61t-173 169q-63 107 -63 233q0 128 63 234t173 168q109 61 242 61t242 -61q110 -62 173 -168t63 -234q0 -126 -63 -233q-64 -108 -173 -169z" />
    <glyph glyph-name="uni2776" unicode="&#x2776;" horiz-adv-x="956" 
d="M720 -46q-109 -61 -242 -61t-242 61t-173 169q-63 107 -63 233q0 128 63 234t173 168q109 61 242 61t242 -61q110 -62 173 -168t63 -234q0 -126 -63 -233q-64 -108 -173 -169zM433 411v-278h125v447h-97q-28 -85 -124 -85v-84h96z" />
    <glyph glyph-name="uni2777" unicode="&#x2777;" horiz-adv-x="956" 
d="M720 -46q-109 -61 -242 -61t-242 61t-173 169q-63 107 -63 233q0 128 63 234t173 168q109 61 242 61t242 -61q110 -62 173 -168t63 -234q0 -126 -63 -233q-64 -108 -173 -169zM302 201l-3 -47h359v103h-209q8 27 55 50l21 10q74 35 104.5 69.5t30.5 89.5q0 61 -47 98
t-125 37q-158 0 -179 -164h122q4 61 57 61q46 0 46 -43q0 -17 -14.5 -30.5t-48.5 -29.5l-36 -17q-125 -59 -133 -187z" />
    <glyph glyph-name="uni2778" unicode="&#x2778;" horiz-adv-x="956" 
d="M720 -46q-109 -61 -242 -61t-242 61t-173 169q-63 107 -63 233q0 128 63 234t173 168q109 61 242 61t242 -61q110 -62 173 -168t63 -234q0 -126 -63 -233q-64 -108 -173 -169zM485 123q82 0 131.5 39t49.5 104q0 36 -19.5 64t-54.5 41q62 33 62 93q0 59 -45.5 92.5
t-125.5 33.5q-88 0 -132 -36.5t-49 -112.5h120q4 28 17.5 39.5t42.5 11.5q52 0 52 -40q0 -24 -13 -34t-43 -10h-35v-88h34q60 0 60 -49q0 -20 -15.5 -32t-41.5 -12q-37 0 -52.5 16t-16.5 54h-120q3 -174 194 -174z" />
    <glyph glyph-name="uni2779" unicode="&#x2779;" horiz-adv-x="956" 
d="M720 -46q-109 -61 -242 -61t-242 61t-173 169q-63 107 -63 233q0 128 63 234t173 168q109 61 242 61t242 -61q110 -62 173 -168t63 -234q0 -126 -63 -233q-64 -108 -173 -169zM473 220v-87h125v87h53v99h-53v261h-129l-194 -238v-122h198zM476 319h-114l114 140v-140z
" />
    <glyph glyph-name="uni277A" unicode="&#x277a;" horiz-adv-x="956" 
d="M720 -46q-109 -61 -242 -61t-242 61t-173 169q-63 107 -63 233q0 128 63 234t173 168q109 61 242 61t242 -61q110 -62 173 -168t63 -234q0 -126 -63 -233q-64 -108 -173 -169zM478 114q82 0 132.5 44t50.5 115q0 65 -41 106t-118 41q-37 0 -68 -16l12 63h193v103h-290
l-42 -263h116q17 29 55 29q29 0 47 -17.5t18 -45.5t-18 -45.5t-47 -17.5q-48 0 -59 44h-120q5 -64 54 -102t125 -38z" />
    <glyph glyph-name="uni277B" unicode="&#x277b;" horiz-adv-x="956" 
d="M720 -46q-109 -61 -242 -61t-242 61t-173 169q-63 107 -63 233q0 128 63 234t173 168q109 61 242 61t242 -61q110 -62 173 -168t63 -234q0 -126 -63 -233q-64 -108 -173 -169zM478 123q82 0 131.5 44t49.5 116q0 63 -41.5 105t-114.5 42q-64 0 -99 -35v5q5 55 21.5 77
t52.5 22q44 0 57 -36h117q-10 61 -54.5 94t-117.5 33q-94 0 -143 -60.5t-49 -175.5q0 -147 76 -199q47 -32 114 -32zM524 237q-18 -17 -46 -17t-45 17t-17 44t17 43t45 16t46 -16q17 -16 17 -43t-17 -44z" />
    <glyph glyph-name="uni277C" unicode="&#x277c;" horiz-adv-x="956" 
d="M720 -46q-109 -61 -242 -61t-242 61t-173 169q-63 107 -63 233q0 128 63 234t173 168q109 61 242 61t242 -61q110 -62 173 -168t63 -234q0 -126 -63 -233q-64 -108 -173 -169zM383 121h136q2 126 30 202q29 77 91 144v101h-324v-103h205q-135 -148 -138 -344z" />
    <glyph glyph-name="uni277D" unicode="&#x277d;" horiz-adv-x="956" 
d="M720 -46q-109 -61 -242 -61t-242 61t-173 169q-63 107 -63 233q0 128 63 234t173 168q109 61 242 61t242 -61q110 -62 173 -168t63 -234q0 -126 -63 -233q-64 -108 -173 -169zM478 123q87 0 139 38t52 101q0 77 -74 106q54 32 54 95q0 60 -45 93.5t-126 33.5
q-80 0 -125 -33.5t-45 -93.5q0 -63 54 -95q-74 -29 -74 -106q0 -63 52 -101t138 -38zM536 453q0 -48 -58 -48t-58 48t58 48t58 -48zM478 219q-66 0 -66 53q0 56 66 56q67 0 67 -56q0 -53 -67 -53z" />
    <glyph glyph-name="uni277E" unicode="&#x277e;" horiz-adv-x="956" 
d="M720 -46q-109 -61 -242 -61t-242 61t-173 169q-63 107 -63 233q0 128 63 234t173 168q109 61 242 61t242 -61q110 -62 173 -168t63 -234q0 -126 -63 -233q-64 -108 -173 -169zM482 119q94 0 145 60.5t51 179.5q0 147 -79 202q-47 33 -116 33q-82 0 -133.5 -45t-51.5 -119
q0 -61 42 -106t119 -45q53 0 90 27l4 3l-1 -10q-6 -45 -22 -63t-47 -18q-43 0 -53 36h-125q9 -65 55.5 -100t121.5 -35zM526 393q-16 -16 -43 -16t-42 16q-16 15 -16 40t16 41q15 15 42 15t43 -15q15 -16 15 -41t-15 -40z" />
    <glyph glyph-name="uni2E18" unicode="&#x2e18;" horiz-adv-x="581" 
d="M188 586h227v-220h-227v220zM368 96h201q-5 -122 -73.5 -180t-207.5 -58q-132 0 -204 49.5t-72 139.5q0 103 109 170q56 34 73 51t17 48h180q0 -58 -8 -82l-49 -188h-75l-13 64q-15 -18 -15 -42q0 -53 67 -53q38 0 53 18t17 63z" />
    <glyph glyph-name="uniF8FF" unicode="&#xf8ff;" horiz-adv-x="873" 
d="M314 610v-127h-92v316h92v-120q21 39 71 39q78 0 78 -93v-142h-92v127q0 30 -26 30q-31 0 -31 -30zM735 799h92v-316h-92v316zM598 479q-58 0 -92.5 32t-34.5 87t35 88t94 33q57 0 92 -32t35 -86q0 -18 -1 -25h-168q1 -16 13 -26t31 -10q23 0 33 13h86q-11 -35 -44 -54.5
t-79 -19.5zM599 657q-34 0 -40 -33h80q-5 33 -40 33zM831 364q0 -18 -1 -25h-168q1 -16 13 -26t31 -10q23 0 33 13h86q-11 -35 -44 -54.5t-79 -19.5q-58 0 -92.5 32t-34.5 87t35 88t94 33q57 0 92 -32t35 -86zM599 472l-85 -229h-108l-86 229h98l20 -65q18 -60 25 -90
q12 53 23 90l18 65h95zM703 420q-34 0 -40 -33h80q-5 33 -40 33zM315 248h-92v69h92v-69zM74 299h92v-71h48v-63h-48v-77q0 -12 5.5 -16.5t20.5 -4.5h17v-68q-32 -2 -39 -2q-52 0 -74 17t-22 55v96h-34v63h34v71zM451 162q-35 0 -35 -48q0 -27 7.5 -38t26.5 -11q30 0 35 30
h91q-5 -46 -38 -73.5t-87 -27.5q-60 0 -94 32.5t-34 87.5t34.5 87.5t94.5 32.5q55 0 88 -26.5t37 -71.5h-93q-5 26 -33 26zM833 0h-89q-6 19 -7 24q-21 -31 -72 -31q-85 0 -85 70q0 63 87 71l41 3q28 1 28 17q0 17 -25 17q-27 0 -28 -22h-90q3 84 119 84q113 0 113 -73v-123
q0 -19 8 -37zM315 0h-92v229h92v-229zM700 51q36 0 36 37v14q-4 -7 -19 -9l-22 -3q-21 -3 -21 -20q0 -19 26 -19z" />
    <glyph glyph-name="uniFEFF" unicode="&#xfeff;" 
 />
    <glyph glyph-name="null" 
 />
    <glyph glyph-name="Adieresis.ss01" horiz-adv-x="754" 
d="M333 774q-27 -28 -65 -28t-65 28q-28 27 -28 65t28 65q19 22 47.5 26t52.5 -6.5t41 -33.5t16 -51q0 -38 -27 -65zM552 774q-29 -28 -65 -28t-65.5 27.5t-27.5 65.5q0 37 28 64.5t65 27.5t64.5 -27.5t27.5 -64.5q0 -38 -27 -65zM763 0h-234l-28 93h-256l-28 -93h-226
l241 712h276zM342 422l-49 -164h158l-49 164q-18 64 -30 106z" />
    <glyph glyph-name="Cdotaccent.ss01" horiz-adv-x="774" 
d="M401 765q-43 0 -73 30t-30 72q0 41 30 71t73 30q41 0 71 -30t30 -71q0 -42 -30 -72t-71 -30zM388 -18q-164 0 -266 103q-103 102 -103 272q0 171 103 271t279 100q150 0 241.5 -76t116.5 -213h-233q-25 97 -130 97q-143 0 -143 -179q0 -91 38 -137t108 -46q104 0 128 96
h231q-22 -128 -123 -207q-101 -81 -247 -81z" />
    <glyph glyph-name="Edieresis.ss01" horiz-adv-x="649" 
d="M293 774q-27 -28 -65 -28t-65 28q-28 27 -28 65t28 65q19 22 47.5 26t52.5 -6.5t41 -33.5t16 -51q0 -38 -27 -65zM512 774q-29 -28 -65 -28t-65.5 27.5t-27.5 65.5q0 37 28 64.5t65 27.5t64.5 -27.5t27.5 -64.5q0 -38 -27 -65zM624 712v-194h-358v-70h331v-187h-331v-67
h358v-194h-584v712h584z" />
    <glyph glyph-name="Edotaccent.ss01" horiz-adv-x="649" 
d="M337 749q-43 0 -73 30t-30 72q0 41 30 71t73 30q41 0 71 -30t30 -71q0 -42 -30 -72t-71 -30zM624 712v-194h-358v-70h331v-187h-331v-67h358v-194h-584v712h584z" />
    <glyph glyph-name="uni0122.ss01" horiz-adv-x="771" 
d="M396 258v157h345v-415h-146l-16 76q-71 -93 -218 -93q-160 0 -251 106q-91 104 -91 269t100 268q99 102 271 102q144 0 239 -71q94 -72 111 -191h-231q-25 70 -115 70q-66 0 -103.5 -44.5t-37.5 -137.5q0 -181 142 -181q100 0 127 85h-126zM385 -67q47 0 71.5 -28
t24.5 -78v-2q0 -63 -39 -101t-114 -38h-18v63h22q52 0 59 42h-8q-38 0 -60 19t-22 51q0 33 22.5 52.5t61.5 19.5z" />
    <glyph glyph-name="Gdotaccent.ss01" horiz-adv-x="771" 
d="M390 765q-43 0 -73 30t-30 72q0 41 30 71t73 30q41 0 71 -30t30 -71q0 -42 -30 -72t-71 -30zM396 258v157h345v-415h-146l-16 76q-71 -93 -218 -93q-160 0 -251 106q-91 104 -91 269t100 268q99 102 271 102q144 0 239 -71q94 -72 111 -191h-231q-25 70 -115 70
q-66 0 -103.5 -44.5t-37.5 -137.5q0 -181 142 -181q100 0 127 85h-126z" />
    <glyph glyph-name="Idieresis.ss01" horiz-adv-x="306" 
d="M108 774q-29 -28 -65 -28t-65.5 27.5t-27.5 65.5q0 38 27.5 65t65.5 27q37 0 64.5 -27.5t27.5 -64.5q0 -38 -27 -65zM327 774q-29 -28 -65 -28t-65.5 27.5t-27.5 65.5q0 37 28 64.5t65 27.5q38 0 65 -27.5t27 -64.5q0 -38 -27 -65zM265 0h-226v712h226v-712z" />
    <glyph glyph-name="Idotaccent.ss01" horiz-adv-x="306" 
d="M153 749q-42 0 -72 30t-30 72q0 41 30 71t72 30q41 0 71 -30t30 -71q0 -42 -30 -72t-71 -30zM266 0h-226v712h226v-712z" />
    <glyph glyph-name="uni0136.ss01" horiz-adv-x="757" 
d="M748 712l-249 -291l267 -421h-258l-157 267l-85 -100v-167h-226v712h226v-279l221 279h261zM394 -51q47 0 71.5 -28t24.5 -78v-2q0 -63 -39 -101t-114 -38h-18v63h22q51 0 59 42h-8q-38 0 -60 19t-22 51q0 33 22.5 52.5t61.5 19.5z" />
    <glyph glyph-name="uni013B.ss01" horiz-adv-x="587" 
d="M266 712v-518h306v-194h-532v712h226zM319 -51q47 0 71.5 -28t24.5 -78v-2q0 -63 -39 -101t-114 -38h-18v63h22q52 0 59 42h-8q-38 0 -60 19t-22 51q0 33 22.5 52.5t61.5 19.5z" />
    <glyph glyph-name="Ldot.ss01" horiz-adv-x="587" 
d="M40 712h226v-518h306v-194h-532v712zM536 307q-38 -36 -89 -36t-89 36t-38 88q0 51 38 87t89 36t89 -36q36 -36 36 -87q0 -52 -36 -88z" />
    <glyph glyph-name="uni0145.ss01" horiz-adv-x="748" 
d="M488 596v116h220v-712h-235l-150 253q-38 63 -67 119q4 -100 4 -256v-116h-220v712h235l147 -253q27 -46 69 -134q-3 89 -3 271zM369 -51q47 0 71.5 -28t24.5 -78v-2q0 -63 -39 -101t-114 -38h-18v63h22q52 0 59 42h-8q-38 0 -60 19t-22 51q0 33 22.5 52.5t61.5 19.5z
" />
    <glyph glyph-name="Odieresis.ss01" horiz-adv-x="792" 
d="M352 774q-29 -28 -65 -28t-65.5 27.5t-27.5 65.5q0 38 27.5 65t65.5 27q37 0 64.5 -27.5t27.5 -64.5q0 -38 -27 -65zM571 774q-29 -28 -65 -28t-65.5 27.5t-27.5 65.5q0 37 28 64.5t65 27.5q38 0 65 -27.5t27 -64.5q0 -38 -27 -65zM396 -17q-170 0 -273 102
q-104 101 -104 271q0 169 105 271q104 101 272 101q167 0 273 -101q104 -102 104 -271q0 -170 -104 -271q-105 -102 -273 -102zM292 220q38 -45 104 -45t105 45q38 44 38 136q0 89 -37.5 134.5t-105.5 45.5t-105.5 -45.5t-37.5 -134.5q0 -92 39 -136z" />
    <glyph glyph-name="uni0156.ss01" horiz-adv-x="695" 
d="M658 177l8 -105q5 -53 17 -72h-231q-12 23 -14 72l-3 71q-2 51 -21.5 70t-69.5 19h-78v-232h-226v712h351q274 0 274 -209q0 -128 -107 -170q48 -18 71.5 -55t28.5 -101zM266 396h90q78 0 78 71t-78 71h-90v-142zM347 -51q47 0 71.5 -28t24.5 -78v-2q0 -63 -39 -101
t-114 -38h-18v63h22q52 0 59 42h-8q-38 0 -60 19t-22 51q0 33 22.5 52.5t61.5 19.5z" />
    <glyph glyph-name="uni0218.ss01" horiz-adv-x="677" 
d="M321 467l86 -12q134 -19 196 -72t62 -148q0 -118 -84.5 -185t-240.5 -67q-155 0 -239 66t-89 185h223q4 -46 30 -64t79 -18q93 0 93 49q0 24 -22 37t-79 21l-86 12q-105 15 -163 71.5t-58 152.5q0 94 59 158q69 75 244 75q294 0 313 -235h-209q-4 35 -26 51.5t-70 16.5
q-86 0 -86 -46q0 -39 67 -48zM333 -51q47 0 71.5 -28t24.5 -78v-2q0 -63 -39 -101t-114 -38h-18v63h22q52 0 59 42h-8q-38 0 -60 19t-22 51q0 33 22.5 52.5t61.5 19.5z" />
    <glyph glyph-name="uni021A.ss01" horiz-adv-x="650" 
d="M15 712h620v-194h-197v-518h-226v518h-197v194zM320 -51q47 0 71.5 -28t24.5 -78v-2q0 -63 -39 -101t-114 -38h-18v63h22q51 0 59 42h-8q-38 0 -60 19t-22 51q0 33 22.5 52.5t61.5 19.5z" />
    <glyph glyph-name="Udieresis.ss01" horiz-adv-x="712" 
d="M312 774q-29 -28 -65 -28t-65.5 27.5t-27.5 65.5q0 38 27.5 65t65.5 27q37 0 64.5 -27.5t27.5 -64.5q0 -38 -27 -65zM531 774q-29 -28 -65 -28t-65.5 27.5t-27.5 65.5q0 37 28 64.5t65 27.5q38 0 65 -27.5t27 -64.5q0 -38 -27 -65zM598 56q-85 -73 -242 -73
q-158 0 -241 73q-85 73 -85 206v450h226v-444q0 -93 100 -93t100 93v444h226v-450q0 -132 -84 -206z" />
    <glyph glyph-name="Wdieresis.ss01" horiz-adv-x="1011" 
d="M459 774q-27 -28 -65 -28t-65 28q-28 27 -28 65t28 65q19 22 47.5 26t52.5 -6.5t41 -33.5t16 -51q0 -38 -27 -65zM678 774q-29 -28 -65 -28t-65.5 27.5t-27.5 65.5q0 37 28 64.5t65 27.5t64.5 -27.5t27.5 -64.5q0 -38 -27 -65zM749 501l40 211h231l-188 -712h-242
l-47 217q-15 65 -37 185q-19 -96 -38 -185l-47 -217h-242l-188 712h231l40 -211q0 -3 5 -29.5t17 -90t24 -131.5q34 183 47 251l42 211h217l42 -211q13 -68 47 -251q12 68 24 131.5t17 90t5 29.5z" />
    <glyph glyph-name="Ydieresis.ss01" horiz-adv-x="695" 
d="M304 774q-29 -28 -65 -28t-65.5 27.5t-27.5 65.5q0 38 27.5 65t65.5 27q37 0 64.5 -27.5t27.5 -64.5q0 -38 -27 -65zM523 774q-29 -28 -65 -28t-65.5 27.5t-27.5 65.5q0 37 28 64.5t65 27.5q38 0 65 -27.5t27 -64.5q0 -38 -27 -65zM421 622l42 90h241l-239 -441v-271
h-226v271l-248 441h244l46 -90q47 -93 74 -153q31 77 66 153z" />
    <glyph glyph-name="Zdotaccent.ss01" horiz-adv-x="675" 
d="M338 749q-43 0 -73 30t-30 72q0 41 30 71t73 30q41 0 71 -30t30 -71q0 -42 -30 -72t-71 -30zM499 197h151v-197h-625v174l197 215q106 114 123 131q-158 -2 -177 -2h-133v194h610v-170l-204 -219q-63 -69 -124 -128q162 2 182 2z" />
    <glyph glyph-name="G.ss03" horiz-adv-x="781" 
d="M400 408h356q6 -36 6 -72q0 -158 -103 -255q-103 -99 -268 -99t-268 103q-104 102 -104 272q0 171 102 271q100 100 277 100q144 0 234.5 -67t120.5 -189h-240q-30 64 -117 64q-143 0 -143 -179q0 -95 37 -140.5t112 -45.5q103 0 130 85h-132v152z" />
    <glyph glyph-name="uni01F4.ss03" horiz-adv-x="781" 
d="M364 925h247l-148 -154h-188zM400 408h356q6 -36 6 -72q0 -158 -103 -255q-103 -99 -268 -99t-268 103q-104 102 -104 272q0 171 102 271q100 100 277 100q144 0 234.5 -67t120.5 -189h-240q-30 64 -117 64q-143 0 -143 -179q0 -95 37 -140.5t112 -45.5q103 0 130 85
h-132v152z" />
    <glyph glyph-name="Gbreve.ss03" horiz-adv-x="781" 
d="M529 805q-52 -41 -139 -41q-88 0 -138 41q-52 41 -59 117h145q3 -47 52 -47q47 0 52 47h145q-7 -76 -58 -117zM400 408h356q6 -36 6 -72q0 -158 -103 -255q-103 -99 -268 -99t-268 103q-104 102 -104 272q0 171 102 271q100 100 277 100q144 0 234.5 -67t120.5 -189h-240
q-30 64 -117 64q-143 0 -143 -179q0 -95 37 -140.5t112 -45.5q103 0 130 85h-132v152z" />
    <glyph glyph-name="Gcircumflex.ss03" horiz-adv-x="781" 
d="M435 771l-45 63l-45 -63h-210l130 154h250l130 -154h-210zM400 408h356q6 -36 6 -72q0 -158 -103 -255q-103 -99 -268 -99t-268 103q-104 102 -104 272q0 171 102 271q100 100 277 100q144 0 234.5 -67t120.5 -189h-240q-30 64 -117 64q-143 0 -143 -179q0 -95 37 -140.5
t112 -45.5q103 0 130 85h-132v152z" />
    <glyph glyph-name="uni0122.ss03" horiz-adv-x="781" 
d="M400 408h356q6 -36 6 -72q0 -158 -103 -255q-103 -99 -268 -99t-268 103q-104 102 -104 272q0 171 102 271q100 100 277 100q144 0 234.5 -67t120.5 -189h-240q-30 64 -117 64q-143 0 -143 -179q0 -95 37 -140.5t112 -45.5q103 0 130 85h-132v152zM379 -206h-75v131h172
v-134q0 -56 -33.5 -81.5t-103.5 -25.5h-35v63h35q40 0 40 42v5z" />
    <glyph glyph-name="Gdotaccent.ss03" horiz-adv-x="781" 
d="M292 924h196v-150h-196v150zM400 408h356q6 -36 6 -72q0 -158 -103 -255q-103 -99 -268 -99t-268 103q-104 102 -104 272q0 171 102 271q100 100 277 100q144 0 234.5 -67t120.5 -189h-240q-30 64 -117 64q-143 0 -143 -179q0 -95 37 -140.5t112 -45.5q103 0 130 85h-132
v152z" />
    <glyph glyph-name="uni0122.ss01.ss03" horiz-adv-x="781" 
d="M400 408h356q6 -36 6 -72q0 -158 -103 -255q-103 -99 -268 -99t-268 103q-104 102 -104 272q0 171 102 271q100 100 277 100q144 0 234.5 -67t120.5 -189h-240q-30 64 -117 64q-143 0 -143 -179q0 -95 37 -140.5t112 -45.5q103 0 130 85h-132v152zM385 -69q47 0 71.5 -28
t24.5 -78v-2q0 -63 -39 -101t-114 -38h-18v63h22q52 0 59 42h-8q-38 0 -60 19t-22 51q0 33 22.5 52.5t61.5 19.5z" />
    <glyph glyph-name="Gdotaccent.ss01.ss03" horiz-adv-x="781" 
d="M390 765q-43 0 -73 30t-30 72q0 41 30 71t73 30q41 0 71 -30t30 -71q0 -42 -30 -72t-71 -30zM400 408h356q6 -36 6 -72q0 -158 -103 -255q-103 -99 -268 -99t-268 103q-104 102 -104 272q0 171 102 271q100 100 277 100q144 0 234.5 -67t120.5 -189h-240q-30 64 -117 64
q-143 0 -143 -179q0 -95 37 -140.5t112 -45.5q103 0 130 85h-132v152z" />
    <glyph glyph-name="R.ss04" horiz-adv-x="695" 
d="M699 0h-243l-110 204h-80v-204h-226v712h332q135 0 215 -65q79 -66 79 -182q0 -71 -30.5 -127t-83.5 -89zM372 526h-106v-136h106q33 0 52.5 18.5t19.5 49.5t-19.5 49.5t-52.5 18.5z" />
    <glyph glyph-name="Racute.ss04" horiz-adv-x="695" 
d="M340 909h247l-148 -154h-188zM699 0h-243l-110 204h-80v-204h-226v712h332q135 0 215 -65q79 -66 79 -182q0 -71 -30.5 -127t-83.5 -89zM372 526h-106v-136h106q33 0 52.5 18.5t19.5 49.5t-19.5 49.5t-52.5 18.5z" />
    <glyph glyph-name="Rcaron.ss04" horiz-adv-x="695" 
d="M621 908l-130 -153h-250l-130 153h210l45 -63l45 63h210zM699 0h-243l-110 204h-80v-204h-226v712h332q135 0 215 -65q79 -66 79 -182q0 -71 -30.5 -127t-83.5 -89zM372 526h-106v-136h106q33 0 52.5 18.5t19.5 49.5t-19.5 49.5t-52.5 18.5z" />
    <glyph glyph-name="uni0156.ss04" horiz-adv-x="695" 
d="M456 0l-110 204h-80v-204h-226v712h332q135 0 215 -65q79 -66 79 -182q0 -71 -30.5 -127t-83.5 -89l147 -249h-243zM372 526h-106v-136h106q33 0 52.5 18.5t19.5 49.5t-19.5 49.5t-52.5 18.5zM366 -188h-75v131h172v-134q0 -56 -33.5 -81.5t-103.5 -25.5h-35v63h35
q40 0 40 42v5z" />
    <glyph glyph-name="uni0156.ss01.ss04" horiz-adv-x="695" 
d="M456 0l-110 204h-80v-204h-226v712h332q135 0 215 -65q79 -66 79 -182q0 -71 -30.5 -127t-83.5 -89l147 -249h-243zM372 526h-106v-136h106q33 0 52.5 18.5t19.5 49.5t-19.5 49.5t-52.5 18.5zM372 -51q47 0 71.5 -28t24.5 -78v-2q0 -63 -39 -101t-114 -38h-18v63h22
q51 0 59 42h-8q-38 0 -60 19t-22 51q0 33 22.5 52.5t61.5 19.5z" />
    <glyph glyph-name="i.loclTRK" horiz-adv-x="280" 
d="M244 558h-208v156h208v-156zM244 0h-208v516h208v-516z" />
    <glyph glyph-name="adieresis.ss01" horiz-adv-x="613" 
d="M263 581q-27 -28 -65 -28t-65 28q-28 27 -28 65t28 65q27 27 65 27t65 -27t27 -65t-27 -65zM482 581q-29 -28 -65 -28t-65.5 27.5t-27.5 65.5q-1 28 16.5 51t42 33.5t52.5 6.5t47 -26q27 -27 27 -65t-27 -65zM595 0h-209q-14 27 -15 60q-45 -77 -166 -77q-88 0 -139 41
t-51 118q0 71 47.5 110.5t149.5 49.5l94 9q33 3 47.5 12t14.5 27q0 38 -58 38q-31 0 -45.5 -11t-16.5 -40h-208q4 98 69 144.5t204 46.5q263 0 263 -165v-281q0 -44 19 -82zM287 113q81 0 81 84v34q-10 -17 -45 -21l-48 -6q-49 -6 -49 -45q0 -46 61 -46z" />
    <glyph glyph-name="cdotaccent.ss01" horiz-adv-x="598" 
d="M307 553q-43 0 -73 30t-30 72q0 41 30 71t73 30q41 0 71 -30t30 -71q0 -42 -30 -72t-71 -30zM303 -12q-132 0 -209 74t-77 196q0 124 78 197q76 73 212 73q126 0 199 -61q72 -61 80 -159h-207q-13 60 -76 60q-42 0 -60 -26t-18 -84q0 -60 17.5 -85t59.5 -25q66 0 79 69
h205q-10 -104 -85.5 -166.5t-197.5 -62.5z" />
    <glyph glyph-name="edieresis.ss01" horiz-adv-x="609" 
d="M261 581q-27 -28 -65 -28t-65 28q-28 27 -28 65t28 65q27 27 65 27t65 -27t27 -65t-27 -65zM480 581q-29 -28 -65 -28t-65.5 27.5t-27.5 65.5q-1 28 16.5 51t42 33.5t52.5 6.5t47 -26q27 -27 27 -65t-27 -65zM592 264q0 -29 -4 -58h-376q4 -79 99 -79q53 0 74 28h194
q-23 -80 -95 -123.5t-177 -43.5q-135 0 -212.5 71.5t-77.5 196.5q0 123 78 198q79 74 211 74q129 0 208 -70q78 -71 78 -194zM303 390q-76 0 -88 -76h177q-7 76 -89 76z" />
    <glyph glyph-name="edotaccent.ss01" horiz-adv-x="609" 
d="M305 553q-43 0 -73 30t-30 72q0 41 30 71t73 30q41 0 71 -30t30 -71q0 -42 -30 -72t-71 -30zM592 264q0 -29 -4 -58h-376q4 -79 99 -79q53 0 74 28h194q-23 -80 -95 -123.5t-177 -43.5q-135 0 -212.5 71.5t-77.5 196.5q0 123 78 198q79 74 211 74q129 0 208 -70
q78 -71 78 -194zM303 390q-76 0 -88 -76h177q-7 76 -89 76z" />
    <glyph glyph-name="uni0123.ss01" horiz-adv-x="645" 
d="M337 553q-47 0 -71.5 28t-24.5 78v2q0 63 39 101t114 38h18v-63h-22q-52 0 -59 -42h8q38 0 60 -19t22 -51q0 -33 -22.5 -52.5t-61.5 -19.5zM401 442v74h208v-493q0 -116 -76 -178t-215 -62q-271 0 -292 207h210q7 -61 80 -61q42 0 61.5 18.5t19.5 58.5v93
q-53 -80 -162 -80q-101 0 -159 70q-59 70 -59 185q0 114 59 185q58 69 159 69q113 0 166 -86zM313 165q87 0 87 110q0 108 -87 108q-88 0 -88 -108q0 -110 88 -110z" />
    <glyph glyph-name="gdotaccent.ss01" horiz-adv-x="645" 
d="M330 553q-43 0 -73 30t-30 72q0 41 30 71t73 30q41 0 71 -30t30 -71q0 -42 -30 -72t-71 -30zM401 442v74h208v-493q0 -116 -76 -178t-215 -62q-271 0 -292 207h210q7 -61 80 -61q42 0 61.5 18.5t19.5 58.5v93q-53 -80 -162 -80q-101 0 -159 70q-59 70 -59 185
q0 114 59 185q58 69 159 69q113 0 166 -86zM313 165q87 0 87 110q0 108 -87 108q-88 0 -88 -108q0 -110 88 -110z" />
    <glyph glyph-name="i.ss01" horiz-adv-x="280" 
d="M140 552q-42 0 -72 30t-30 72q0 41 30 71t72 30q41 0 71 -30t30 -71q0 -42 -30 -72t-71 -30zM244 0h-208v516h208v-516z" />
    <glyph glyph-name="idieresis.ss01" horiz-adv-x="280" 
d="M96 578q-29 -28 -65 -28t-65.5 27.5t-27.5 65.5q0 38 27.5 65t65.5 27q37 0 64.5 -27.5t27.5 -64.5q0 -38 -27 -65zM315 578q-29 -28 -65 -28t-65.5 27.5t-27.5 65.5q0 37 28 64.5t65 27.5q38 0 65 -27.5t27 -64.5q0 -38 -27 -65zM244 0h-208v516h208v-516z" />
    <glyph glyph-name="i.loclTRK.ss01" horiz-adv-x="280" 
d="M140 553q-42 0 -72 30t-30 72q0 41 30 71t72 30q41 0 71 -30t30 -71q0 -42 -30 -72t-71 -30zM244 0h-208v516h208v-516z" />
    <glyph glyph-name="ij.ss01" horiz-adv-x="560" 
d="M140 552q-42 0 -72 30t-30 72q0 41 30 71t72 30q41 0 71 -30t30 -71q0 -42 -30 -72t-71 -30zM420 552q-42 0 -72 30t-30 72q0 41 30 71t72 30q41 0 71 -30t30 -71q0 -42 -30 -72t-71 -30zM244 0h-208v516h208v-516zM305 -206q-16 0 -62 2v160h17q14 0 22 1.5t17 6
t13 15.5t4 29v508h208v-538q0 -98 -51.5 -141t-167.5 -43z" />
    <glyph glyph-name="iogonek.ss01" horiz-adv-x="280" 
d="M140 552q-42 0 -72 30t-30 72q0 41 30 71t72 30q41 0 71 -30t30 -71q0 -42 -30 -72t-71 -30zM244 516v-516q-103 -46 -103 -91q0 -38 55 -38q19 0 48 7v-98q-37 -9 -80 -9q-79 0 -122.5 29t-43.5 80q0 36 27.5 68t83.5 52h-73v516h208z" />
    <glyph glyph-name="j.ss01" horiz-adv-x="280" 
d="M140 552q-42 0 -72 30t-30 72q0 41 30 71t72 30q41 0 71 -30t30 -71q0 -42 -30 -72t-71 -30zM25 -206q-16 0 -62 2v160h17q14 0 22 1.5t17 6t13 15.5t4 29v508h208v-538q0 -98 -51.5 -141t-167.5 -43z" />
    <glyph glyph-name="uni0137.ss01" horiz-adv-x="633" 
d="M404 516h231l-201 -212l199 -304h-234l-102 171l-53 -54v-117h-208v712h208v-379zM330 -51q47 0 71.5 -28t24.5 -78v-2q0 -63 -39 -101t-114 -38h-18v63h22q51 0 59 42h-8q-38 0 -60 19t-22 51q0 33 22.5 52.5t61.5 19.5z" />
    <glyph glyph-name="uni013C.ss01" horiz-adv-x="280" 
d="M36 0v712h208v-712h-208zM135 -51q47 0 71.5 -28t24.5 -78v-2q0 -63 -39 -101t-114 -38h-18v63h22q52 0 59 42h-8q-38 0 -60 19t-22 51q0 33 22.5 52.5t61.5 19.5z" />
    <glyph glyph-name="ldot.ss01" horiz-adv-x="558" 
d="M244 0h-208v712h208v-712zM486 267q-38 -36 -89 -36t-89 36t-38 88q0 51 38 87t89 36t89 -36q36 -36 36 -87q0 -52 -36 -88z" />
    <glyph glyph-name="napostrophe.ss01" horiz-adv-x="903" 
d="M153 733q68 0 105 -46.5t37 -125.5q0 -244 -224 -258l-18 -1v106l21 1q74 1 84 82h-3q-54 0 -89 33t-35 86t35 88t87 35zM691 528q176 0 176 -208v-320h-208v286q0 68 -59 68q-30 0 -49 -17.5t-19 -51.5v-285h-208v516h204v-75h3q48 87 160 87z" />
    <glyph glyph-name="uni0146.ss01" horiz-adv-x="615" 
d="M403 528q176 0 176 -208v-320h-208v286q0 68 -59 68q-30 0 -49 -17.5t-19 -51.5v-285h-208v516h204v-75h3q48 87 160 87zM303 -51q47 0 71.5 -28t24.5 -78v-2q0 -63 -39 -101t-114 -38h-18v63h22q52 0 59 42h-8q-38 0 -60 19t-22 51q0 33 22.5 52.5t61.5 19.5z" />
    <glyph glyph-name="odieresis.ss01" horiz-adv-x="620" 
d="M265 581q-27 -28 -65 -28t-65 28q-28 27 -28 65t28 65q27 27 65 27t65 -27t27 -65t-27 -65zM484 581q-29 -28 -65 -28t-65.5 27.5t-27.5 65.5q-1 28 16.5 51t42 33.5t52.5 6.5t47 -26q27 -27 27 -65t-27 -65zM523 62q-82 -74 -213 -74q-132 0 -212 74q-81 74 -81 195
t81 196q82 74 212 74t212 -74q81 -75 81 -196t-80 -195zM225 256q0 -108 85 -108t85 108q0 55 -22.5 83t-62.5 28q-85 0 -85 -111z" />
    <glyph glyph-name="uni0157.ss01" horiz-adv-x="436" 
d="M379 524q21 0 37 -3v-187h-48q-124 0 -124 -136v-198h-208v516h204v-102q27 110 139 110zM135 -51q47 0 71.5 -28t24.5 -78v-2q0 -63 -39 -101t-114 -38h-18v63h22q52 0 59 42h-8q-38 0 -60 19t-22 51q0 33 22.5 52.5t61.5 19.5z" />
    <glyph glyph-name="uni0219.ss01" horiz-adv-x="548" 
d="M253 342l101 -14q97 -14 142 -54t45 -109q0 -87 -71 -134.5t-200 -47.5q-250 0 -264 183h198q3 -27 20 -39t53 -12q63 0 63 30q0 23 -44 31l-101 14q-183 26 -183 165q0 84 66 128.5t190 44.5q246 0 257 -176h-187q-2 26 -18 37.5t-52 11.5q-59 0 -59 -28q0 -23 44 -31z
M268 -68q47 0 71.5 -28t24.5 -78v-2q0 -63 -39 -101t-114 -38h-18v63h22q51 0 59 42h-8q-38 0 -60 19t-22 51q0 33 22.5 52.5t61.5 19.5z" />
    <glyph glyph-name="uni021B.ss01" horiz-adv-x="420" 
d="M400 516v-143h-107v-173q0 -29 12.5 -37.5t46.5 -8.5h38v-154q-50 -5 -88 -5q-116 0 -166.5 38t-50.5 125v215h-75v143h75v159h208v-159h107zM243 -51q47 0 71.5 -28t24.5 -78v-2q0 -63 -39 -101t-114 -38h-18v63h22q52 0 59 42h-8q-38 0 -60 19t-22 51q0 33 22.5 52.5
t61.5 19.5z" />
    <glyph glyph-name="udieresis.ss01" horiz-adv-x="615" 
d="M264 581q-29 -28 -65 -28t-65.5 27.5t-27.5 65.5q0 38 27.5 65t65.5 27q28 1 51 -16t33.5 -41t6.5 -52.5t-26 -47.5zM483 581q-29 -28 -65 -28t-65.5 27.5t-27.5 65.5q0 37 28 64.5t65 27.5q23 1 43 -9.5t31.5 -29t16 -39t-2 -42.5t-23.5 -37zM371 231v285h208v-516h-204
v75h-3q-48 -87 -160 -87q-176 0 -176 208v320h208v-286q0 -68 59 -68q30 0 49 17.5t19 51.5z" />
    <glyph glyph-name="wdieresis.ss01" horiz-adv-x="913" 
d="M413 581q-27 -28 -65 -28t-65 28q-28 27 -28 65t28 65q27 27 65 27t65 -27t27 -65t-27 -65zM632 581q-29 -28 -65 -28t-65.5 27.5t-27.5 65.5q-1 28 16.5 51t42 33.5t52.5 6.5t47 -26q27 -27 27 -65t-27 -65zM660 375l33 141h222l-170 -516h-206l-50 178q-21 74 -32 123
q-15 -61 -33 -123l-50 -178h-206l-170 516h222l33 -141q3 -12 14 -62t20 -89q21 87 41 152l41 140h175l41 -140q20 -65 41 -152q9 39 20 89t14 62z" />
    <glyph glyph-name="ydieresis.ss01" horiz-adv-x="623" 
d="M258 581q-29 -28 -65 -28t-65.5 27.5t-27.5 65.5q0 38 27.5 65t65.5 27q28 1 51 -16t33.5 -41t6.5 -52.5t-26 -47.5zM477 581q-29 -28 -65 -28t-65.5 27.5t-27.5 65.5q0 37 28 64.5t65 27.5q23 1 43 -9.5t31.5 -29t16 -39t-2 -42.5t-23.5 -37zM385 422l27 94h213
l-203 -524q-47 -122 -107 -160q-61 -38 -185 -38q-37 0 -91 2v160h94q63 0 63 49q0 17 -9 39l-189 472h222l28 -94q28 -99 66 -252q41 147 71 252z" />
    <glyph glyph-name="zdotaccent.ss01" horiz-adv-x="523" 
d="M261 553q-43 0 -73 30t-30 72q0 41 30 71t73 30q41 0 71 -30t30 -71q0 -42 -30 -72t-71 -30zM364 147h136v-147h-477v126l166 198l38 45h-70h-136v147h474v-112l-165 -198q-3 -4 -20 -24t-30 -36q19 1 84 1z" />
    <glyph glyph-name="a.ss02" horiz-adv-x="641" 
d="M397 439v77h208v-516h-208v77q-50 -89 -159 -89q-102 0 -161 74q-60 74 -60 196q0 124 60 197q58 73 161 73q109 0 159 -89zM313 149q87 0 87 110q0 109 -87 109q-88 0 -88 -109q0 -110 88 -110z" />
    <glyph glyph-name="aacute.ss02" horiz-adv-x="641" 
d="M297 713h247l-148 -154h-188zM397 439v77h208v-516h-208v77q-50 -89 -159 -89q-102 0 -161 74q-60 74 -60 196q0 124 60 197q58 73 161 73q109 0 159 -89zM313 149q87 0 87 110q0 109 -87 109q-88 0 -88 -109q0 -110 88 -110z" />
    <glyph glyph-name="abreve.ss02" horiz-adv-x="641" 
d="M462 593q-52 -41 -139 -41q-88 0 -138 41q-52 41 -59 117h145q3 -47 52 -47q47 0 52 47h145q-7 -76 -58 -117zM397 439v77h208v-516h-208v77q-50 -89 -159 -89q-102 0 -161 74q-60 74 -60 196q0 124 60 197q58 73 161 73q109 0 159 -89zM313 149q87 0 87 110
q0 109 -87 109q-88 0 -88 -109q0 -110 88 -110z" />
    <glyph glyph-name="acircumflex.ss02" horiz-adv-x="641" 
d="M368 559l-45 63l-45 -63h-210l130 153h250l130 -153h-210zM397 439v77h208v-516h-208v77q-50 -89 -159 -89q-102 0 -161 74q-60 74 -60 196q0 124 60 197q58 73 161 73q109 0 159 -89zM313 149q87 0 87 110q0 109 -87 109q-88 0 -88 -109q0 -110 88 -110z" />
    <glyph glyph-name="adieresis.ss02" horiz-adv-x="641" 
d="M99 714h196v-156h-196v156zM351 714h196v-156h-196v156zM397 439v77h208v-516h-208v77q-50 -89 -159 -89q-102 0 -161 74q-60 74 -60 196q0 124 60 197q58 73 161 73q109 0 159 -89zM313 149q87 0 87 110q0 109 -87 109q-88 0 -88 -109q0 -110 88 -110z" />
    <glyph glyph-name="agrave.ss02" horiz-adv-x="641" 
d="M354 713l89 -154h-188l-148 154h247zM397 439v77h208v-516h-208v77q-50 -89 -159 -89q-102 0 -161 74q-60 74 -60 196q0 124 60 197q58 73 161 73q109 0 159 -89zM313 149q87 0 87 110q0 109 -87 109q-88 0 -88 -109q0 -110 88 -110z" />
    <glyph glyph-name="amacron.ss02" horiz-adv-x="641" 
d="M136 696h374v-135h-374v135zM397 439v77h208v-516h-208v77q-50 -89 -159 -89q-102 0 -161 74q-60 74 -60 196q0 124 60 197q58 73 161 73q109 0 159 -89zM313 149q87 0 87 110q0 109 -87 109q-88 0 -88 -109q0 -110 88 -110z" />
    <glyph glyph-name="aogonek.ss02" horiz-adv-x="641" 
d="M605 516v-516q-103 -46 -103 -91q0 -38 55 -38q19 0 48 7v-98q-37 -9 -80 -9q-79 0 -122.5 29t-43.5 80q0 36 27.5 68t83.5 52h-73v77q-50 -89 -159 -89q-102 0 -161 74q-60 74 -60 196q0 124 60 197q58 73 161 73q109 0 159 -89v77h208zM313 149q87 0 87 110
q0 109 -87 109q-88 0 -88 -109q0 -110 88 -110z" />
    <glyph glyph-name="aring.ss02" horiz-adv-x="641" 
d="M451 595q-53 -48 -128 -48t-128 48q-52 46 -52 121q0 74 52 122t128 48q75 0 128 -48q52 -48 52 -122q0 -75 -52 -121zM368 761q-27 28 -69 12t-39 -57q0 -26 18.5 -43.5t44.5 -17.5t44.5 17.5t18.5 43.5q0 27 -18 45zM397 439v77h208v-516h-208v77q-50 -89 -159 -89
q-102 0 -161 74q-60 74 -60 196q0 124 60 197q58 73 161 73q109 0 159 -89zM313 149q87 0 87 110q0 109 -87 109q-88 0 -88 -109q0 -110 88 -110z" />
    <glyph glyph-name="aringacute.ss02" horiz-adv-x="641" 
d="M297 1068h247l-148 -154h-188zM451 595q-53 -48 -128 -48t-128 48q-52 46 -52 121q0 74 52 122t128 48q75 0 128 -48q52 -48 52 -122q0 -75 -52 -121zM368 761q-27 28 -69 12t-39 -57q0 -26 18.5 -43.5t44.5 -17.5t44.5 17.5t18.5 43.5q0 27 -18 45zM397 439v77h208v-516
h-208v77q-50 -89 -159 -89q-102 0 -161 74q-60 74 -60 196q0 124 60 197q58 73 161 73q109 0 159 -89zM313 149q87 0 87 110q0 109 -87 109q-88 0 -88 -109q0 -110 88 -110z" />
    <glyph glyph-name="atilde.ss02" horiz-adv-x="641" 
d="M263 598q-29 0 -30 -40h-129q0 86 34 129.5t90 43.5q42 0 92 -22q40 -18 63 -18q29 0 30 40h129q0 -84 -34.5 -128.5t-89.5 -44.5q-37 0 -91 23q-39 17 -64 17zM397 439v77h208v-516h-208v77q-50 -89 -159 -89q-102 0 -161 74q-60 74 -60 196q0 124 60 197q58 73 161 73
q109 0 159 -89zM313 149q87 0 87 110q0 109 -87 109q-88 0 -88 -109q0 -110 88 -110z" />
    <glyph glyph-name="adieresis.ss01.ss02" horiz-adv-x="641" 
d="M279 581q-27 -28 -65 -28t-65 28q-28 27 -28 65t28 65q27 27 65 27t65 -27t27 -65t-27 -65zM498 581q-29 -28 -65 -28t-65.5 27.5t-27.5 65.5q-1 28 16.5 51t42 33.5t52.5 6.5t47 -26q27 -27 27 -65t-27 -65zM397 439v77h208v-516h-208v77q-50 -89 -159 -89
q-102 0 -161 74q-60 74 -60 196q0 124 60 197q58 73 161 73q109 0 159 -89zM313 149q87 0 87 110q0 109 -87 109q-88 0 -88 -109q0 -110 88 -110z" />
    <glyph glyph-name="uni021B.ss01.ss05" horiz-adv-x="388" 
d="M291 516h77v-143h-77v-373h-208v373h-73v143h73v159h208v-159zM182 -51q47 0 71.5 -28t24.5 -78v-2q0 -63 -39 -101t-114 -38h-18v63h22q51 0 59 42h-8q-38 0 -60 19t-22 51q0 33 22.5 52.5t61.5 19.5z" />
    <glyph glyph-name="udieresis.ss01.ss05" horiz-adv-x="615" 
d="M264 581q-29 -28 -65 -28t-65.5 27.5t-27.5 65.5q0 38 27.5 65t65.5 27q28 1 51 -16t33.5 -41t6.5 -52.5t-26 -47.5zM483 581q-29 -28 -65 -28t-65.5 27.5t-27.5 65.5q0 37 28 64.5t65 27.5q23 1 43 -9.5t31.5 -29t16 -39t-2 -42.5t-23.5 -37zM371 231v285h208v-516h-204
v75h-3q-48 -87 -160 -87q-176 0 -176 208v320h208v-286q0 -68 59 -68q30 0 49 17.5t19 51.5z" />
    <glyph glyph-name="t.ss05" horiz-adv-x="388" 
d="M291 516h77v-143h-77v-373h-208v373h-73v143h73v159h208v-159z" />
    <glyph glyph-name="tbar.ss05" horiz-adv-x="389" 
d="M369 516v-143h-77v-56h75v-105h-75v-212h-208v212h-74v105h74v56h-73v143h73v159h208v-159h77z" />
    <glyph glyph-name="tcaron.ss05" horiz-adv-x="388" 
d="M328 556l24 183h192l-87 -183h-129zM83 675h208v-159h77v-143h-77v-373h-208v373h-73v143h73v159z" />
    <glyph glyph-name="uni0163.ss05" horiz-adv-x="388" 
d="M291 373v-373h-50l-36 -42h9q57 0 89.5 -25t32.5 -68q0 -49 -43.5 -78.5t-124.5 -29.5q-34 0 -90 8v72q32 -5 54 -5q71 0 71 38q0 36 -56 36q-17 0 -36 -3v47l42 50h-70v373h-73v143h73v159h208v-159h77v-143h-77z" />
    <glyph glyph-name="uni021B.ss05" horiz-adv-x="388" 
d="M291 516h77v-143h-77v-373h-208v373h-73v143h73v159h208v-159zM176 -188h-75v131h172v-134q0 -56 -33.5 -81.5t-103.5 -25.5h-35v63h35q40 0 40 42v5z" />
    <glyph glyph-name="udieresis.ss01.ss06" horiz-adv-x="615" 
d="M264 581q-29 -28 -65 -28t-65.5 27.5t-27.5 65.5q0 38 27.5 65t65.5 27q28 1 51 -16t33.5 -41t6.5 -52.5t-26 -47.5zM483 581q-29 -28 -65 -28t-65.5 27.5t-27.5 65.5q0 37 28 64.5t65 27.5q23 1 43 -9.5t31.5 -29t16 -39t-2 -42.5t-23.5 -37zM509 50q-71 -62 -201 -62
t-201 62t-71 171v295h208v-289q0 -69 64 -69q63 0 63 69v289h208v-295q0 -110 -70 -171z" />
    <glyph glyph-name="u.ss06" horiz-adv-x="615" 
d="M509 50q-71 -62 -201 -62t-201 62t-71 171v295h208v-289q0 -69 64 -69q63 0 63 69v289h208v-295q0 -110 -70 -171z" />
    <glyph glyph-name="uacute.ss06" horiz-adv-x="615" 
d="M381 559h-188l89 154h247zM509 50q-71 -62 -201 -62t-201 62t-71 171v295h208v-289q0 -69 64 -69q63 0 63 69v289h208v-295q0 -110 -70 -171z" />
    <glyph glyph-name="ubreve.ss06" horiz-adv-x="615" 
d="M447 593q-52 -41 -139 -41q-88 0 -138 41q-52 41 -59 117h145q3 -47 52 -47q47 0 52 47h145q-7 -76 -58 -117zM509 50q-71 -62 -201 -62t-201 62t-71 171v295h208v-289q0 -69 64 -69q63 0 63 69v289h208v-295q0 -110 -70 -171z" />
    <glyph glyph-name="ucircumflex.ss06" horiz-adv-x="615" 
d="M353 559l-45 63l-45 -63h-210l130 153h250l130 -153h-210zM371 227v289h208v-295q0 -111 -71 -172t-200 -61t-200.5 61.5t-71.5 171.5v295h208v-289q0 -69 64 -69q63 0 63 69z" />
    <glyph glyph-name="udieresis.ss06" horiz-adv-x="615" 
d="M280 558h-196v156h196v-156zM532 558h-196v156h196v-156zM509 50q-71 -62 -201 -62t-201 62t-71 171v295h208v-289q0 -69 64 -69q63 0 63 69v289h208v-295q0 -110 -70 -171z" />
    <glyph glyph-name="ugrave.ss06" horiz-adv-x="615" 
d="M428 559h-188l-148 154h247zM509 50q-71 -62 -201 -62t-201 62t-71 171v295h208v-289q0 -69 64 -69q63 0 63 69v289h208v-295q0 -110 -70 -171z" />
    <glyph glyph-name="uhungarumlaut.ss06" horiz-adv-x="615" 
d="M231 559h-189l90 154h243zM511 559h-188l90 154h241zM509 50q-71 -62 -201 -62t-201 62t-71 171v295h208v-289q0 -69 64 -69q63 0 63 69v289h208v-295q0 -110 -70 -171z" />
    <glyph glyph-name="umacron.ss06" horiz-adv-x="615" 
d="M495 561h-374v135h374v-135zM509 50q-71 -62 -201 -62t-201 62t-71 171v295h208v-289q0 -69 64 -69q63 0 63 69v289h208v-295q0 -110 -70 -171z" />
    <glyph glyph-name="uogonek.ss06" horiz-adv-x="615" 
d="M371 227v289h208v-295q0 -90 -47.5 -148t-137.5 -77q-74 -38 -74 -77q0 -38 55 -38q19 0 48 7v-98q-38 -9 -80 -9q-79 0 -122.5 29t-43.5 80q0 60 71 102q-102 13 -157 73t-55 156v295h208v-289q0 -69 64 -69q63 0 63 69z" />
    <glyph glyph-name="uring.ss06" horiz-adv-x="615" 
d="M436 595q-52 -48 -128 -48t-128 48q-52 46 -52 121q0 74 52 122t128 48t128 -48t52 -122q0 -75 -52 -121zM264 673q28 -28 67.5 -13t39.5 56q0 27 -18 44.5t-45 17.5t-45 -17.5t-18 -44.5t19 -43zM509 50q-71 -62 -201 -62t-201 62t-71 171v295h208v-289q0 -69 64 -69
q63 0 63 69v289h208v-295q0 -110 -70 -171z" />
    <glyph glyph-name="utilde.ss06" horiz-adv-x="615" 
d="M218 558h-129q0 86 34 129.5t90 43.5q42 0 92 -22q41 -18 63 -18q29 0 30 40h129q0 -84 -34.5 -128.5t-89.5 -44.5q-37 0 -91 23q-39 17 -64 17q-29 0 -30 -40zM509 50q-71 -62 -201 -62t-201 62t-71 171v295h208v-289q0 -69 64 -69q63 0 63 69v289h208v-295
q0 -110 -70 -171z" />
    <glyph glyph-name="ydieresis.ss01.ss07" horiz-adv-x="625" 
d="M273 581q-27 -28 -65 -28t-65 28q-28 27 -28 65t28 65q27 27 65 27t65 -27t27 -65t-27 -65zM492 581q-29 -28 -65 -28t-65.5 27.5t-27.5 65.5q-1 28 16.5 51t42 33.5t52.5 6.5t47 -26q27 -27 27 -65t-27 -65zM392 448l21 68h214l-184 -474l-96 -246h-214l81 180l-216 540
h222l20 -67q39 -133 74 -263q37 132 78 262z" />
    <glyph glyph-name="y.ss07" horiz-adv-x="625" 
d="M392 448l21 68h214l-184 -474l-96 -246h-214l81 180l-216 540h222l20 -67q39 -133 74 -263q37 132 78 262z" />
    <glyph glyph-name="yacute.ss07" horiz-adv-x="625" 
d="M291 713h247l-148 -154h-188zM392 448l21 68h214l-184 -474l-96 -246h-214l81 180l-216 540h222l20 -67q39 -133 74 -263q37 132 78 262z" />
    <glyph glyph-name="ycircumflex.ss07" horiz-adv-x="625" 
d="M362 559l-45 63l-45 -63h-210l130 153h250l130 -153h-210zM392 448l21 68h214l-184 -474l-96 -246h-214l81 180l-216 540h222l20 -67q39 -133 74 -263q37 132 78 262z" />
    <glyph glyph-name="ydieresis.ss07" horiz-adv-x="625" 
d="M93 714h196v-156h-196v156zM345 714h196v-156h-196v156zM392 448l21 68h214l-184 -474l-96 -246h-214l81 180l-216 540h222l20 -67q39 -133 74 -263q37 132 78 262z" />
    <glyph glyph-name="ygrave.ss07" horiz-adv-x="625" 
d="M348 713l89 -154h-188l-148 154h247zM392 448l21 68h214l-184 -474l-96 -246h-214l81 180l-216 540h222l20 -67q39 -133 74 -263q37 132 78 262z" />
    <glyph glyph-name="l.ss08" horiz-adv-x="331" 
d="M235 -5q-106 0 -152.5 38t-46.5 125v554h208v-512q0 -29 9.5 -37.5t34.5 -8.5h28v-154q-47 -5 -81 -5z" />
    <glyph glyph-name="lacute.ss08" horiz-adv-x="331" 
d="M213 755h-188l89 154h247zM235 -5q-106 0 -152.5 38t-46.5 125v554h208v-512q0 -29 9.5 -37.5t34.5 -8.5h28v-154q-47 -5 -81 -5z" />
    <glyph glyph-name="lcaron.ss08" horiz-adv-x="481" 
d="M235 -5q-106 0 -152.5 38t-46.5 125v554h208v-512q0 -29 9.5 -37.5t34.5 -8.5h28v-154q-47 -5 -81 -5zM404 529h-129l24 183h192z" />
    <glyph glyph-name="uni013C.ss08" horiz-adv-x="331" 
d="M288 154h28v-154q-47 -5 -81 -5q-106 0 -152.5 38t-46.5 125v554h208v-512q0 -29 9.5 -37.5t34.5 -8.5zM129 -188h-75v131h172v-134q0 -56 -33.5 -81.5t-103.5 -25.5h-35v63h35q40 0 40 42v5z" />
    <glyph glyph-name="ldot.ss08" horiz-adv-x="543" 
d="M253 -5q-116 0 -166.5 38t-50.5 125v554h208v-512q0 -29 12.5 -37.5t46.5 -8.5h38v-154q-50 -5 -88 -5zM507 251h-212v206h212v-206z" />
    <glyph glyph-name="lslash.ss08" horiz-adv-x="377" 
d="M362 492v-117l-85 -36v-139q0 -27 10.5 -36.5t41.5 -9.5h33v-154q-48 -5 -85 -5q-111 0 -159.5 38.5t-48.5 124.5v92l-69 -29v117l69 29v345h208v-256z" />
    <glyph glyph-name="uni013C.ss01.ss08" horiz-adv-x="331" 
d="M288 154h28v-154q-47 -5 -81 -5q-106 0 -152.5 38t-46.5 125v554h208v-512q0 -29 9.5 -37.5t34.5 -8.5zM135 -51q47 0 71.5 -28t24.5 -78v-2q0 -63 -39 -101t-114 -38h-18v63h22q52 0 59 42h-8q-38 0 -60 19t-22 51q0 33 22.5 52.5t61.5 19.5z" />
    <glyph glyph-name="ldot.ss01.ss08" horiz-adv-x="558" 
d="M253 -5q-116 0 -166.5 38t-50.5 125v554h208v-512q0 -29 12.5 -37.5t46.5 -8.5h38v-154q-50 -5 -88 -5zM486 267q-38 -36 -89 -36t-89 36t-38 88q0 51 38 87t89 36t89 -36q36 -36 36 -87q0 -52 -36 -88z" />
    <glyph glyph-name="fi.ss01" horiz-adv-x="709" 
d="M569 552q-42 0 -72 30t-30 72q0 41 30 71t72 30q41 0 71 -30t30 -71q0 -42 -30 -72t-71 -30zM92 516v25q0 100 51.5 141t164.5 41q38 0 101 -5v-152q-31 3 -53 3q-34 0 -45 -10.5t-11 -42.5h109v-143h-109v-373h-208v373h-82v143h82zM465 0v516h208v-516h-208z" />
    <glyph glyph-name="fl.ss08" horiz-adv-x="755" 
d="M92 516v25q0 100 51.5 141t164.5 41q38 0 101 -5v-152q-31 3 -53 3q-34 0 -45 -10.5t-11 -42.5h109v-143h-109v-373h-208v373h-82v143h82zM712 154h28v-154q-47 -5 -81 -5q-106 0 -152.5 38t-46.5 125v554h208v-512q0 -29 9.5 -37.5t34.5 -8.5z" />
    <glyph glyph-name="ordfeminine.ss02" horiz-adv-x="508" 
d="M318 664v48h180v-450h-175v54q-43 -64 -123 -64q-89 0 -139.5 63t-50.5 171t51 171.5t139 63.5q76 0 118 -57zM255 393q65 0 65 94q0 49 -15.5 71t-49.5 22q-65 0 -65 -93q0 -94 65 -94z" />
    <glyph glyph-name="t.sups.ss05" horiz-adv-x="354" 
d="M267 712h77v-127h-77v-323h-180v323h-77v127h77v136h180v-136z" />
    <glyph glyph-name="zero.ss09" horiz-adv-x="958" 
d="M933 -88h-908v888h908v-888zM279 356q0 -230 200 -230t200 230q0 231 -200 231t-200 -231zM518 267q-12 -21 -38 -21t-38 22q-13 20 -13 88q0 66 11.5 88.5t39.5 22.5q27 0 38 -22t11 -89t-11 -89z" />
    <glyph glyph-name="one.ss09" horiz-adv-x="958" 
d="M933 -88h-908v888h908v-888zM431 405v-269h129v441h-101q-27 -82 -122 -82v-90h94z" />
    <glyph glyph-name="two.ss09" horiz-adv-x="958" 
d="M933 -88h-908v888h908v-888zM302 205l-3 -49h358v108h-202q8 20 50 41l20 10q71 36 103 69q31 32 31 89q0 61 -47 98t-124 37q-161 0 -178 -167h127q0 59 51 59q40 0 40 -38q0 -15 -13 -26.5t-46 -27.5l-35 -17q-124 -60 -132 -186z" />
    <glyph glyph-name="three.ss09" horiz-adv-x="958" 
d="M933 -88h-908v888h908v-888zM483 126q84 0 132.5 39t48.5 103q0 73 -67 104q55 34 55 89q0 59 -45 92.5t-125 33.5q-90 0 -133 -37.5t-48 -114.5h126q2 27 14.5 38t39.5 11q46 0 46 -35q0 -22 -11.5 -30t-38.5 -8h-37v-94h36q54 0 54 -43q0 -18 -13.5 -29t-37.5 -11
q-35 0 -49 14.5t-15 53.5h-124q0 -176 192 -176z" />
    <glyph glyph-name="four.ss09" horiz-adv-x="958" 
d="M933 -88h-908v888h908v-888zM469 220v-84h130v84h51v104h-51v253h-132l-190 -234v-123h192zM472 324h-100l100 122v-122z" />
    <glyph glyph-name="five.ss09" horiz-adv-x="958" 
d="M933 -88h-908v888h908v-888zM477 116q83 0 134.5 43.5t51.5 116.5q0 64 -41.5 105.5t-114.5 41.5q-33 0 -59 -9l7 34h187v120h-298l-42 -266h132q12 23 43 23q22 0 36 -13t14 -35t-14 -35t-36 -13q-40 0 -46 35h-135q3 -70 53 -109t128 -39z" />
    <glyph glyph-name="six.ss09" horiz-adv-x="958" 
d="M933 -88h-908v888h908v-888zM479 126q79 0 132 44q51 44 51 114q0 65 -41.5 107t-114.5 42q-51 0 -88 -24v3q0 69 57 69q40 0 47 -28h134q-23 134 -176 134q-195 0 -195 -233q0 -139 75 -193q50 -35 119 -35zM513 251q-21 -21 -54 -9t-29 41q-3 28 22.5 39.5t51 0
t22.5 -39.5q0 -19 -13 -32z" />
    <glyph glyph-name="seven.ss09" horiz-adv-x="958" 
d="M933 -88h-908v888h908v-888zM380 124h155q0 122 26 194q26 71 82 133v114h-329v-119h186q-120 -144 -120 -322z" />
    <glyph glyph-name="eight.ss09" horiz-adv-x="958" 
d="M933 -88h-908v888h908v-888zM479 126q90 0 142 38t52 101q0 73 -67 104q48 30 48 91q0 60 -45.5 93.5t-129.5 33.5q-83 0 -128 -33.5t-45 -93.5q0 -59 47 -91q-67 -31 -67 -104q0 -63 52 -101t141 -38zM480 412q-45 0 -45 36q0 35 45 35q44 0 44 -35q0 -36 -44 -36z
M479 237q-50 0 -50 41q0 43 50 43q51 0 51 -43q0 -41 -51 -41z" />
    <glyph glyph-name="nine.ss09" horiz-adv-x="958" 
d="M933 -88h-908v888h908v-888zM481 126q195 0 195 233q0 139 -75 193q-50 35 -119 35q-81 0 -131 -43q-52 -43 -52 -115q0 -65 41.5 -107t114.5 -42q52 0 87 25l1 -1v-3q0 -69 -57 -69q-40 0 -47 28h-134q23 -134 176 -134zM518 398q-21 -21 -54 -9.5t-29 41.5
q0 19 13.5 32t34.5 13t34.5 -13t13.5 -32q0 -20 -13 -32z" />
    <glyph glyph-name="zero.ss10" horiz-adv-x="958" 
d="M933 -88h-908v888h908v-888zM173 667v-622h612v622h-612zM684 356q0 -236 -205 -236t-205 236q0 238 205 238t205 -238zM441 265q12 -22 39 -22t39 22q11 22 11 91t-11 93q-12 21 -39 21t-39 -21q-13 -22 -13 -93t13 -91z" />
    <glyph glyph-name="one.ss10" horiz-adv-x="958" 
d="M25 -88v888h908v-888h-908zM173 45h612v622h-612v-622zM581 129h-147v267h-93v101q52 0 81.5 20.5t43.5 66.5h115v-455z" />
    <glyph glyph-name="two.ss10" horiz-adv-x="958" 
d="M25 -88v888h908v-888h-908zM173 45h612v622h-612v-622zM472 253h194v-124h-376v29q0 158 141 219l37 16q32 14 42.5 24t10.5 25q0 28 -35 28q-37 0 -41 -48h-143q5 84 52.5 128t131.5 44q87 0 135 -36.5t48 -102.5q0 -59 -30 -93q-32 -37 -103 -70l-21 -10
q-32 -15 -43 -29z" />
    <glyph glyph-name="three.ss10" horiz-adv-x="958" 
d="M25 -88v888h908v-888h-908zM173 45h612v622h-612v-622zM475 243q47 0 47 34t-46 34h-37v106h36q46 0 46 30t-43 30q-40 0 -44 -42h-142q8 159 187 159q87 0 136 -34.5t49 -92.5q0 -65 -57 -96q68 -30 68 -106q0 -66 -52.5 -105.5t-144.5 -39.5q-186 0 -196 174h142
q2 -29 13.5 -40t37.5 -11z" />
    <glyph glyph-name="four.ss10" horiz-adv-x="958" 
d="M25 -88v888h908v-888h-908zM173 45h612v622h-612v-622zM622 129h-147v81h-190v141l188 233h149v-255h51v-119h-51v-81zM478 329v106l-85 -106h85z" />
    <glyph glyph-name="five.ss10" horiz-adv-x="958" 
d="M25 -88v888h908v-888h-908zM173 45h612v622h-612v-622zM476 235q23 0 37.5 14t14.5 36t-14.5 35.5t-37.5 13.5q-29 0 -44 -23h-135l43 273h306v-123h-192l-7 -35q25 9 60 9q76 0 118.5 -43t42.5 -109q0 -74 -53.5 -118.5t-138.5 -44.5q-79 0 -130.5 40.5t-55.5 110.5h139
q7 -36 47 -36z" />
    <glyph glyph-name="six.ss10" horiz-adv-x="958" 
d="M25 -88v888h908v-888h-908zM173 45h612v622h-612v-622zM362 156q-77 53 -77 198q0 240 201 240q158 0 180 -138h-137q-9 29 -49 29q-27 0 -40.5 -16.5t-17.5 -57.5q38 24 90 24q75 0 118 -43t43 -110q0 -73 -53 -117q-54 -45 -135 -45q-71 0 -123 36zM484 327
q-23 0 -36.5 -12.5t-13.5 -33.5t13.5 -33.5t36.5 -12.5q30 -2 42.5 22t0 48t-42.5 22z" />
    <glyph glyph-name="seven.ss10" horiz-adv-x="958" 
d="M25 -88v888h908v-888h-908zM173 45h612v622h-612v-622zM537 129h-159q0 187 124 332h-191v123h337v-118q-58 -64 -84 -137q-27 -72 -27 -200z" />
    <glyph glyph-name="eight.ss10" horiz-adv-x="958" 
d="M25 -88v888h908v-888h-908zM173 45h612v622h-612v-622zM281 263q0 76 68 106q-49 33 -49 94q0 62 46.5 96.5t132.5 34.5t133 -34.5t47 -96.5q0 -61 -49 -94q68 -30 68 -106q0 -66 -53.5 -104.5t-145.5 -38.5t-145 38.5t-53 104.5zM480 487q-47 0 -47 -36q0 -38 47 -38
q45 0 45 38q0 36 -45 36zM427 276q0 -42 52 -42t52 42q0 44 -52 44t-52 -44z" />
    <glyph glyph-name="nine.ss10" horiz-adv-x="958" 
d="M25 -88v888h908v-888h-908zM173 45h612v622h-612v-622zM446 277q-75 0 -118 43.5t-43 109.5q0 74 53 119q53 44 135 44q73 0 123 -37q77 -56 77 -198q0 -239 -201 -239q-157 0 -180 137h137q8 -29 49 -29q27 0 40.5 16.5t17.5 57.5q-38 -24 -90 -24zM511 464
q-13 13 -36.5 13t-36.5 -13t-13 -33t13 -33t36.5 -13t36.5 13t13 33t-13 33z" />
    <glyph glyph-name="zero.zero" horiz-adv-x="717" 
d="M359 728q164 0 248.5 -95.5t84.5 -276.5t-84 -276.5t-249 -95.5q-167 0 -249 96q-84 96 -84 276t84 276q82 96 249 96zM359 548q-49 0 -73.5 -45t-24.5 -147q0 -38 3 -66l160 228q-24 30 -65 30zM359 164q50 0 74 44.5t24 147.5q0 34 -3 63l-158 -227q22 -28 63 -28z" />
    <glyph glyph-name="zero.dnom" horiz-adv-x="413" 
d="M206 -9q-186 0 -186 215q0 216 186 216q187 0 187 -216q0 -215 -187 -215zM207 103q25 0 35.5 21t10.5 82q0 62 -10.5 83t-35.5 21q-26 0 -36.5 -20.5t-10.5 -83.5q0 -61 10.5 -82t36.5 -21z" />
    <glyph glyph-name="one.dnom" horiz-adv-x="259" 
d="M129 413h105v-413h-134v242h-85v92q90 0 114 79z" />
    <glyph glyph-name="two.dnom" horiz-adv-x="374" 
d="M239 148l-19 -9q-29 -15 -40 -27h177v-112h-342v26q0 140 129 199l33 15q27 13 37.5 22.5t10.5 21.5q0 26 -31 26q-35 0 -38 -44h-130q4 75 48 115.5t120 40.5q79 0 122.5 -33t43.5 -93q0 -53 -26.5 -85t-94.5 -63z" />
    <glyph glyph-name="three.dnom" horiz-adv-x="381" 
d="M311 219q62 -27 62 -96q0 -60 -48 -96t-131 -36q-169 0 -178 159h129q1 -27 11.5 -37t34.5 -10q43 0 43 31t-42 31h-34v96h33q42 0 42 28q0 27 -39 27q-35 0 -40 -38h-129q7 144 170 144q79 0 123.5 -31t44.5 -84q0 -58 -52 -88z" />
    <glyph glyph-name="four.dnom" horiz-adv-x="395" 
d="M334 181h46v-108h-46v-73h-134v73h-173v128l171 212h136v-232zM203 181v97l-78 -97h78z" />
    <glyph glyph-name="five.dnom" horiz-adv-x="364" 
d="M210 278q69 0 107.5 -39t38.5 -99q0 -68 -48 -108.5t-126 -40.5q-72 0 -119 37t-50 101h126q5 -33 43 -33q20 0 33.5 12.5t13.5 32.5t-13.5 32.5t-33.5 12.5q-30 0 -40 -21h-123l39 248h278v-112h-174l-6 -31q26 8 54 8z" />
    <glyph glyph-name="six.dnom" horiz-adv-x="374" 
d="M220 278q68 0 107 -39t39 -100q0 -66 -48 -107t-123 -41q-65 0 -112 33q-70 49 -70 180q0 218 183 218q143 0 164 -125h-125q-8 26 -44 26q-24 0 -36.5 -14.5t-16.5 -52.5q32 22 82 22zM161 108q12 -12 33 -12t33 12t12 30t-12 30t-33 12t-33 -12t-12 -30t12 -30z" />
    <glyph glyph-name="seven.dnom" horiz-adv-x="338" 
d="M15 301v112h307v-107q-53 -59 -77 -124q-24 -66 -24 -182h-145q0 167 113 301h-174z" />
    <glyph glyph-name="eight.dnom" horiz-adv-x="389" 
d="M313 218q62 -29 62 -97q0 -60 -48.5 -95t-132.5 -35q-83 0 -131.5 35.5t-48.5 94.5q0 70 62 97q-44 29 -44 85q0 57 42 88t120 31q79 0 121.5 -31t42.5 -88t-45 -85zM195 325q-42 0 -42 -33q0 -34 42 -34q41 0 41 34q0 33 -41 33zM194 95q48 0 48 38q0 40 -48 40
q-47 0 -47 -40q0 -38 47 -38z" />
    <glyph glyph-name="nine.dnom" horiz-adv-x="374" 
d="M291 389q70 -49 70 -180q0 -218 -183 -218q-143 0 -164 125h125q8 -26 44 -26q24 0 36.5 14.5t16.5 52.5q-32 -22 -82 -22q-68 0 -107 39t-39 100q0 66 48 107t123 41q65 0 112 -33zM147 245q12 -12 33 -12t33 12t12 30t-12 30t-33 12t-33 -12t-12 -30t12 -30z" />
    <glyph glyph-name="zero.numr" horiz-adv-x="413" 
d="M206 290q-186 0 -186 215q0 216 186 216q187 0 187 -216q0 -215 -187 -215zM207 402q25 0 35.5 21t10.5 82q0 62 -10.5 83t-35.5 21q-26 0 -36.5 -20.5t-10.5 -83.5q0 -61 10.5 -82t36.5 -21z" />
    <glyph glyph-name="one.numr" horiz-adv-x="259" 
d="M129 712h105v-413h-134v242h-85v92q90 0 114 79z" />
    <glyph glyph-name="two.numr" horiz-adv-x="374" 
d="M239 447l-19 -9q-29 -15 -40 -27h177v-112h-342v26q0 141 129 199l33 15q27 13 37.5 22.5t10.5 21.5q0 26 -31 26q-35 0 -38 -44h-130q4 75 48 115.5t120 40.5q79 0 122.5 -33t43.5 -93q0 -53 -26.5 -85t-94.5 -63z" />
    <glyph glyph-name="three.numr" horiz-adv-x="381" 
d="M311 518q62 -27 62 -96q0 -60 -48 -96t-131 -36q-169 0 -178 159h129q1 -27 11.5 -37t34.5 -10q43 0 43 31t-42 31h-34v96h33q42 0 42 28q0 27 -39 27q-35 0 -40 -38h-129q7 144 170 144q79 0 123.5 -31t44.5 -84q0 -58 -52 -88z" />
    <glyph glyph-name="four.numr" horiz-adv-x="395" 
d="M334 480h46v-108h-46v-73h-134v73h-173v128l171 212h136v-232zM203 480v97l-78 -97h78z" />
    <glyph glyph-name="five.numr" horiz-adv-x="363" 
d="M209 577q69 0 107.5 -39t38.5 -99q0 -68 -48 -108.5t-126 -40.5q-72 0 -119 37t-50 101h126q6 -33 43 -33q20 0 33.5 12.5t13.5 32.5t-13.5 32.5t-33.5 12.5q-29 0 -40 -21h-123l39 248h278v-112h-174l-6 -31q26 8 54 8z" />
    <glyph glyph-name="six.numr" horiz-adv-x="374" 
d="M220 577q68 0 107 -39t39 -100q0 -66 -48 -107t-123 -41q-65 0 -112 33q-70 49 -70 180q0 218 183 218q143 0 164 -125h-125q-8 26 -44 26q-24 0 -36.5 -14.5t-16.5 -52.5q32 22 82 22zM161 407q12 -12 33 -12t33 12t12 30t-12 30t-33 12t-33 -12t-12 -30t12 -30z" />
    <glyph glyph-name="seven.numr" horiz-adv-x="338" 
d="M15 600v112h307v-107q-53 -59 -77 -124q-24 -66 -24 -182h-145q0 167 113 301h-174z" />
    <glyph glyph-name="eight.numr" horiz-adv-x="389" 
d="M313 517q62 -29 62 -97q0 -60 -48.5 -95t-132.5 -35q-83 0 -131.5 35.5t-48.5 94.5q0 70 62 97q-44 29 -44 85q0 57 42 88t120 31q79 0 121.5 -31t42.5 -88q0 -56 -45 -85zM195 624q-42 0 -42 -33q0 -34 42 -34q41 0 41 34q0 33 -41 33zM194 394q48 0 48 38q0 40 -48 40
q-47 0 -47 -40q0 -38 47 -38z" />
    <glyph glyph-name="nine.numr" horiz-adv-x="374" 
d="M291 688q70 -49 70 -180q0 -218 -183 -218q-143 0 -164 125h125q8 -26 44 -26q24 0 36.5 14.5t16.5 52.5q-32 -22 -82 -22q-68 0 -107 39t-39 100q0 66 48 107t123 41q65 0 112 -33zM147 544q12 -12 33 -12t33 12t12 30t-12 30t-33 12t-33 -12t-12 -30t12 -30z" />
    <glyph glyph-name="zero.tf" horiz-adv-x="696" 
d="M598 80q-84 -96 -250 -96t-249 96q-84 96 -84 276q0 181 84 276.5t249 95.5q164 0 248.5 -95.5t84.5 -276.5q0 -179 -83 -276zM348 164q51 0 75 44.5t24 147.5q0 102 -24.5 147t-74.5 45t-74.5 -45t-24.5 -147t24.5 -147t74.5 -45z" />
    <glyph glyph-name="one.tf" horiz-adv-x="696" 
d="M495 712v-533h132v-179h-531v179h173v209h-168v148h24q78 0 126 41.5t68 134.5h176z" />
    <glyph glyph-name="two.tf" horiz-adv-x="696" 
d="M297 183h367v-183h-624v77q0 109 52 171q54 63 170 106l74 28q53 20 73 39t20 48q0 69 -90 69q-45 0 -66 -21t-24 -67h-211q8 135 90 206.5t230 71.5t225 -67q77 -68 77 -173q0 -160 -196 -233l-102 -38q-46 -16 -65 -34z" />
    <glyph glyph-name="three.tf" horiz-adv-x="696" 
d="M527 382q68 -18 105 -62.5t37 -108.5q0 -98 -86 -163q-85 -64 -232 -64q-152 0 -234 72t-89 208h222q3 -53 25.5 -77t69.5 -24q81 0 81 63q0 30 -21 46.5t-59 16.5h-50v150h50q86 0 86 57q0 56 -77 56t-82 -71h-221q13 247 307 247q136 0 212.5 -52t76.5 -143
q0 -53 -32 -92.5t-89 -58.5z" />
    <glyph glyph-name="four.tf" horiz-adv-x="696" 
d="M589 304h78v-179h-78v-125h-221v125h-337v207l334 380h224v-408zM375 304v188l-166 -188h166z" />
    <glyph glyph-name="five.tf" horiz-adv-x="696" 
d="M398 475q65 0 114.5 -20.5t78.5 -54.5t43 -73.5t14 -82.5q0 -123 -86 -191q-86 -69 -215 -69q-121 0 -203 61q-84 60 -96 169h211q16 -61 88 -61q44 0 68.5 24.5t24.5 66.5q0 41 -24.5 65.5t-68.5 24.5q-59 0 -83 -46h-209l76 424h489v-184h-319l-19 -82q56 29 116 29z
" />
    <glyph glyph-name="six.tf" horiz-adv-x="696" 
d="M245 413q58 67 168 67q109 0 176 -67t67 -174q0 -120 -82 -187q-83 -68 -218 -68q-150 0 -231 89q-85 94 -85 279q0 183 82.5 279.5t238.5 96.5q121 0 192.5 -57t83.5 -161h-191q-16 63 -85 63q-54 0 -81.5 -38.5t-34.5 -121.5zM290 161q23 -26 66 -26t67 26q24 25 24 71
t-24 72q-24 25 -67 25q-44 0 -66 -25q-24 -26 -24 -72t24 -71z" />
    <glyph glyph-name="seven.tf" horiz-adv-x="696" 
d="M56 528v184h584v-183q-82 -65 -125 -124q-46 -61 -73 -161t-27 -244h-232q0 157 68 302q67 143 171 226h-366z" />
    <glyph glyph-name="eight.tf" horiz-adv-x="696" 
d="M554 372q109 -43 109 -170q0 -98 -84 -158q-85 -60 -228 -60t-230 60t-87 158q0 127 112 170q-82 49 -82 156q0 93 77 146.5t210 53.5t207.5 -53t74.5 -147q0 -107 -79 -156zM413 558q-22 18 -64 18q-41 0 -64 -18q-23 -20 -23 -52q0 -33 23 -51t64 -18t64 18t23 51
q0 32 -23 52zM254 226q0 -75 95 -75t95 75q0 74 -95 74t-95 -74z" />
    <glyph glyph-name="nine.tf" horiz-adv-x="696" 
d="M571 639q85 -94 85 -279q0 -183 -82.5 -279.5t-238.5 -96.5q-121 0 -192.5 57t-83.5 161h191q16 -63 85 -63q54 0 81.5 38.5t34.5 121.5q-58 -67 -168 -67q-109 0 -176 67t-67 174q0 120 82 187q83 68 218 68q150 0 231 -89zM273 409q24 -26 67 -26t67 26q23 26 23 71
q0 46 -23 72q-24 25 -67 25t-67 -25q-24 -26 -24 -72t24 -71z" />
    <glyph glyph-name="zero.tf.zero" horiz-adv-x="696" 
d="M348 728q164 0 248.5 -95.5t84.5 -276.5t-84 -276.5t-249 -95.5q-166 0 -249 96q-84 96 -84 276t84 276q83 96 249 96zM348 548q-49 0 -73.5 -45t-24.5 -147q0 -38 3 -66l160 228q-24 30 -65 30zM348 164q50 0 74 44.5t24 147.5q0 34 -3 63l-158 -227q22 -28 63 -28z" />
    <glyph glyph-name="period.ss01" horiz-adv-x="324" 
d="M252 23q-38 -36 -89 -36t-89 36t-38 88q0 51 38 87t89 36t89 -36q36 -36 36 -87q0 -52 -36 -88z" />
    <glyph glyph-name="comma.ss01" horiz-adv-x="326" 
d="M153 232q68 0 105 -46.5t37 -125.5q0 -244 -224 -258l-18 -1v106l21 1q74 1 84 82h-3q-54 0 -89 33t-35 86t35 88t87 35z" />
    <glyph glyph-name="colon.ss01" horiz-adv-x="324" 
d="M252 326q-38 -36 -89 -36t-89 36t-38 88q0 51 38 87q37 36 89 36q51 0 89 -36q36 -36 36 -87q0 -52 -36 -88zM252 23q-38 -36 -89 -36t-89 36t-38 88q0 51 38 87t89 36t89 -36q36 -36 36 -87q0 -52 -36 -88z" />
    <glyph glyph-name="semicolon.ss01" horiz-adv-x="336" 
d="M257 326q-37 -36 -89 -36q-51 0 -89 36t-38 88q0 51 38 87t89 36q52 0 89 -36q36 -36 36 -87q0 -52 -36 -88zM158 232q68 0 105 -46.5t37 -125.5q0 -244 -224 -258l-18 -1v106l21 1q74 1 84 82h-3q-54 0 -89 33t-35 86t35 88t87 35z" />
    <glyph glyph-name="ellipsis.ss01" horiz-adv-x="972" 
d="M252 23q-38 -36 -89 -36t-89 36t-38 88q0 51 38 87t89 36t89 -36q36 -36 36 -87q0 -52 -36 -88zM576 23q-37 -36 -89 -36q-51 0 -89 36t-38 88q0 51 38 87t89 36q52 0 89 -36q36 -36 36 -87q0 -52 -36 -88zM900 23q-38 -36 -89 -36t-89 36t-38 88q0 51 38 87t89 36
t89 -36q36 -36 36 -87q0 -52 -36 -88z" />
    <glyph glyph-name="exclam.ss01" horiz-adv-x="324" 
d="M216 271h-106l-61 281v160h226v-160zM252 23q-38 -36 -89 -36t-89 36t-38 88q0 51 38 87t89 36t89 -36q36 -36 36 -87q0 -52 -36 -88z" />
    <glyph glyph-name="exclamdown.ss01" horiz-adv-x="324" 
d="M252 388q-38 -36 -89 -36t-89 36t-38 87q0 52 38 88q37 36 89 36q51 0 89 -36q36 -36 36 -88q0 -51 -36 -87zM275 -126h-226v160l61 281h106l59 -281v-160z" />
    <glyph glyph-name="question.ss01" horiz-adv-x="574" 
d="M377 270h-199q0 57 6 81q4 21 22 47q20 27 69 51q33 15 46 27t16 35q0 49 -54 49q-40 0 -52.5 -15.5t-12.5 -57.5h-206q1 241 281 241q122 0 196 -50q73 -51 73 -140q0 -107 -103 -170q-58 -36 -66 -43q-11 -9 -13.5 -19t-2.5 -36zM368 23q-38 -36 -89 -36t-89 36t-38 88
q0 51 38 87t89 36t89 -36q36 -36 36 -87q0 -52 -36 -88z" />
    <glyph glyph-name="questiondown.ss01" horiz-adv-x="622" 
d="M409 388q-37 -36 -90 -36q-52 0 -88 36q-37 36 -37 87q0 52 37 88q36 36 88 36q53 0 90 -36t37 -88q0 -51 -37 -87zM305 -142q-121 0 -195 50q-74 51 -74 140q0 107 103 170q58 36 66 43q11 9 13.5 19t2.5 36h199q0 -55 -5 -80q-6 -23 -23 -48q-20 -27 -69 -51
q-33 -15 -46 -27t-16 -35q0 -49 54 -49q40 0 52.5 15.5t12.5 57.5h206q-1 -241 -281 -241z" />
    <glyph glyph-name="periodcentered.ss01" horiz-adv-x="324" 
d="M252 283q-38 -36 -89 -36t-89 36t-38 88q0 51 38 87q37 36 89 36q51 0 89 -36q36 -36 36 -87q0 -52 -36 -88z" />
    <glyph glyph-name="bullet.ss01" horiz-adv-x="475" 
d="M245 68q-97 0 -159 60q-61 60 -61 156t61 154t159 58q95 0 156 -59q60 -59 60 -153q0 -96 -60 -156t-156 -60z" />
    <glyph glyph-name="uni203D.ss01" horiz-adv-x="581" 
d="M293 728q132 0 204 -49.5t72 -139.5q0 -103 -109 -170q-56 -34 -73 -51t-17 -48h-180q0 57 8 81l49 189h75l13 -64q15 18 15 42q0 53 -67 53q-38 0 -53 -18t-17 -63h-201q5 122 73.5 180t207.5 58zM192 198q38 36 89 36t89 -36q36 -36 36 -87q0 -52 -36 -88
q-38 -36 -89 -36t-89 36t-38 88q0 51 38 87z" />
    <glyph glyph-name="uni2E18.ss01" horiz-adv-x="581" 
d="M390 388q-38 -36 -90 -36t-88 36q-37 36 -37 87q0 52 37 88q36 36 88 36t90 -36q37 -36 37 -88q0 -51 -37 -87zM368 96h201q-5 -122 -73.5 -180t-207.5 -58q-132 0 -204 49.5t-72 139.5q0 103 109 170q56 34 73 51t17 48h180q0 -57 -8 -81l-49 -189h-75l-13 64
q-15 -18 -15 -42q0 -53 67 -53q38 0 53 18t17 63z" />
    <glyph glyph-name="period.tf.ss01" horiz-adv-x="696" 
d="M438 23q-38 -36 -89 -36t-89 36t-38 88q0 51 38 87t89 36t89 -36q36 -36 36 -87q0 -52 -36 -88z" />
    <glyph glyph-name="comma.tf.ss01" horiz-adv-x="696" 
d="M338 232q68 0 105 -46.5t37 -125.5q0 -244 -224 -258l-18 -1v106l21 1q74 1 84 82h-3q-54 0 -89 33t-35 86t35 88t87 35z" />
    <glyph glyph-name="colon.tf.ss01" horiz-adv-x="696" 
d="M438 326q-38 -36 -89 -36t-89 36t-38 88q0 51 38 87t89 36t89 -36q36 -36 36 -87q0 -52 -36 -88zM438 23q-38 -36 -89 -36t-89 36t-38 88q0 51 38 87t89 36t89 -36q36 -36 36 -87q0 -52 -36 -88z" />
    <glyph glyph-name="semicolon.tf.ss01" horiz-adv-x="696" 
d="M437 326q-37 -36 -89 -36t-89 36q-38 36 -38 88q0 51 38 87q37 36 89 36t89 -36q36 -36 36 -87q0 -52 -36 -88zM338 232q68 0 105 -46.5t37 -125.5q0 -244 -224 -258l-18 -1v106l21 1q74 1 84 82h-3q-54 0 -89 33t-35 86t35 88t87 35z" />
    <glyph glyph-name="period.tf" horiz-adv-x="696" 
d="M462 0h-227v220h227v-220z" />
    <glyph glyph-name="comma.tf" horiz-adv-x="696" 
d="M235 0v220h227v-225q0 -185 -196 -185h-31v106h32q65 0 65 73v11h-97z" />
    <glyph glyph-name="colon.tf" horiz-adv-x="696" 
d="M462 308h-227v220h227v-220zM462 0h-227v220h227v-220z" />
    <glyph glyph-name="semicolon.tf" horiz-adv-x="696" 
d="M235 308v220h227v-220h-227zM332 0h-97v220h227v-225q0 -185 -196 -185h-31v106h32q65 0 65 73v11z" />
    <glyph glyph-name="parenleft.case" horiz-adv-x="328" 
d="M323 -77h-189q-103 215 -103 434t103 432h189q-82 -183 -82 -425q0 -243 82 -441z" />
    <glyph glyph-name="parenright.case" horiz-adv-x="328" 
d="M194 -77h-189q82 198 82 441q0 242 -82 425h189q103 -213 103 -432t-103 -434z" />
    <glyph glyph-name="braceleft.case" horiz-adv-x="404" 
d="M389 -77h-74q-111 0 -161.5 47.5t-50.5 152.5v86q0 60 -82 60v174q82 0 82 60v86q0 105 50.5 152.5t161.5 47.5h74v-168h-34q-37 0 -50.5 -13t-13.5 -51v-83q0 -58 -29.5 -86.5t-96.5 -30.5v-2q67 -2 96.5 -30.5t29.5 -86.5v-83q0 -38 13.5 -51t50.5 -13h34v-168z" />
    <glyph glyph-name="braceright.case" horiz-adv-x="404" 
d="M89 -77h-74v168h34q37 0 50.5 13t13.5 51v83q0 58 29.5 86.5t96.5 30.5v2q-67 2 -96.5 30.5t-29.5 86.5v83q0 38 -13.5 51t-50.5 13h-34v168h74q111 0 161.5 -47.5t50.5 -152.5v-86q0 -60 82 -60v-174q-82 0 -82 -60v-86q0 -105 -50.5 -152.5t-161.5 -47.5z" />
    <glyph glyph-name="bracketleft.case" horiz-adv-x="401" 
d="M386 -77h-346v866h346v-171h-151v-524h151v-171z" />
    <glyph glyph-name="bracketright.case" horiz-adv-x="401" 
d="M361 -77h-346v171h151v524h-151v171h346v-866z" />
    <glyph glyph-name="hyphen.case" horiz-adv-x="355" 
d="M334 276h-313v172h313v-172z" />
    <glyph glyph-name="endash.case" horiz-adv-x="528" 
d="M507 276h-486v172h486v-172z" />
    <glyph glyph-name="emdash.case" horiz-adv-x="997" 
d="M976 276h-955v172h955v-172z" />
    <glyph glyph-name="hyphen.tf" horiz-adv-x="696" 
d="M505 193h-313v172h313v-172z" />
    <glyph glyph-name="guillemotleft.case" horiz-adv-x="460" 
d="M210 127l-170 139v198l170 139v-182l-68 -56l68 -55v-183zM250 464l170 139v-182l-68 -56l68 -55v-183l-170 139v198z" />
    <glyph glyph-name="guillemotright.case" horiz-adv-x="460" 
d="M108 365l-68 56v182l170 -139v-198l-170 -139v183zM250 421v182l170 -139v-198l-170 -139v183l68 55z" />
    <glyph glyph-name="guilsinglleft.case" horiz-adv-x="250" 
d="M40 464l170 139v-182l-68 -56l68 -55v-183l-170 139v198z" />
    <glyph glyph-name="guilsinglright.case" horiz-adv-x="250" 
d="M40 421v182l170 -139v-198l-170 -139v183l68 55z" />
    <glyph glyph-name="quotesinglbase.ss01" horiz-adv-x="326" 
d="M153 232q68 0 105 -46.5t37 -125.5q0 -244 -224 -258l-18 -1v106l21 1q74 1 84 82h-3q-54 0 -89 33t-35 86t35 88t87 35z" />
    <glyph glyph-name="quotedblbase.ss01" horiz-adv-x="633" 
d="M153 232q68 0 105 -46.5t37 -125.5q0 -244 -224 -258l-18 -1v106l21 1q74 1 84 82h-3q-54 0 -89 33t-35 86t35 88t87 35zM460 232q68 0 105 -46.5t37 -125.5q0 -244 -224 -258l-18 -1v106l21 1q74 1 84 82h-3q-54 0 -89 33t-35 86t35 88t87 35z" />
    <glyph glyph-name="quotedblleft.ss01" horiz-adv-x="633" 
d="M168 523h3q54 0 89 -33t35 -86t-35 -88t-87 -35q-68 0 -105 46.5t-37 125.5q0 244 224 258l18 1v-106l-21 -1q-74 -1 -84 -82zM475 523h3q54 0 89 -33t35 -86t-35 -88t-87 -35q-68 0 -105 46.5t-37 125.5q0 244 224 258l18 1v-106l-21 -1q-74 -1 -84 -82z" />
    <glyph glyph-name="quotedblright.ss01" horiz-adv-x="633" 
d="M153 733q68 0 105 -46.5t37 -125.5q0 -244 -224 -258l-18 -1v106l21 1q74 1 84 82h-3q-54 0 -89 33t-35 86t35 88t87 35zM460 733q68 0 105 -46.5t37 -125.5q0 -244 -224 -258l-18 -1v106l21 1q74 1 84 82h-3q-54 0 -89 33t-35 86t35 88t87 35z" />
    <glyph glyph-name="quoteleft.ss01" horiz-adv-x="326" 
d="M168 523h3q54 0 89 -33t35 -86t-35 -88t-87 -35q-68 0 -105 46.5t-37 125.5q0 244 224 258l18 1v-106l-21 -1q-74 -1 -84 -82z" />
    <glyph glyph-name="quoteright.ss01" horiz-adv-x="326" 
d="M153 733q68 0 105 -46.5t37 -125.5q0 -244 -224 -258l-18 -1v106l21 1q74 1 84 82h-3q-54 0 -89 33t-35 86t35 88t87 35z" />
    <glyph glyph-name="hyphen.dnom" horiz-adv-x="217" 
d="M203 144h-189v102h189v-102z" />
    <glyph glyph-name="parenleft.dnom" horiz-adv-x="203" 
d="M203 -80h-125q-33 81 -46 139q-14 64 -14 145q0 83 14 150q13 60 46 138h125q-55 -146 -55 -288q0 -125 55 -284z" />
    <glyph glyph-name="parenright.dnom" horiz-adv-x="203" 
d="M125 -78h-125q55 159 55 284q0 142 -55 288h125q33 -78 46 -138q14 -67 14 -150q0 -81 -14 -145q-13 -58 -46 -139z" />
    <glyph glyph-name="braceleft.dnom" horiz-adv-x="240" 
d="M235 -80h-20q-81 0 -114 29.5t-33 101.5v50q0 23 -10 31.5t-38 8.5v131q28 0 38 8.5t10 31.5v49q0 72 33 101.5t114 29.5h20v-124h-5q-16 0 -21.5 -6.5t-5.5 -23.5v-50q0 -43 -18.5 -60.5t-64.5 -19.5v-3q46 -2 64.5 -19.5t18.5 -60.5v-51q0 -17 5.5 -23.5t21.5 -6.5h5
v-124z" />
    <glyph glyph-name="braceright.dnom" horiz-adv-x="240" 
d="M25 -80h-20v124h5q16 0 21.5 6.5t5.5 23.5v51q0 43 18.5 60.5t64.5 19.5v3q-46 2 -64.5 19.5t-18.5 60.5v50q0 17 -5.5 23.5t-21.5 6.5h-5v124h20q81 0 114 -29.5t33 -101.5v-49q0 -23 10 -31.5t38 -8.5v-131q-28 0 -38 -8.5t-10 -31.5v-50q0 -72 -33 -101.5t-114 -29.5z
" />
    <glyph glyph-name="bracketleft.dnom" horiz-adv-x="259" 
d="M254 -80h-235v572h235v-124h-100v-324h100v-124z" />
    <glyph glyph-name="bracketright.dnom" horiz-adv-x="259" 
d="M240 -80h-235v124h100v324h-100v124h235v-572z" />
    <glyph glyph-name="period.dnom" horiz-adv-x="160" 
d="M147 0h-134v130h134v-130z" />
    <glyph glyph-name="comma.dnom" horiz-adv-x="159" 
d="M13 0v130h133v-137q0 -102 -109 -102h-24v64h21q18 0 26.5 8t8.5 28v9h-56z" />
    <glyph glyph-name="hyphen.numr" horiz-adv-x="217" 
d="M203 444h-189v102h189v-102z" />
    <glyph glyph-name="parenleft.numr" horiz-adv-x="203" 
d="M203 219h-125q-33 81 -46 139q-14 64 -14 145q0 83 14 150q13 60 46 138h125q-55 -146 -55 -288q0 -125 55 -284z" />
    <glyph glyph-name="parenright.numr" horiz-adv-x="203" 
d="M125 221h-125q55 159 55 284q0 142 -55 288h125q33 -78 46 -138q14 -67 14 -150q0 -81 -14 -145q-13 -58 -46 -139z" />
    <glyph glyph-name="braceleft.numr" horiz-adv-x="240" 
d="M235 219h-20q-81 0 -114 29.5t-33 101.5v50q0 23 -10 31.5t-38 8.5v131q28 0 38 8.5t10 31.5v49q0 72 33 101.5t114 29.5h20v-124h-5q-16 0 -21.5 -6.5t-5.5 -23.5v-50q0 -43 -18.5 -60.5t-64.5 -19.5v-3q46 -2 64.5 -19.5t18.5 -60.5v-51q0 -17 5.5 -23.5t21.5 -6.5h5
v-124z" />
    <glyph glyph-name="braceright.numr" horiz-adv-x="240" 
d="M25 219h-20v124h5q16 0 21.5 6.5t5.5 23.5v51q0 43 18.5 60.5t64.5 19.5v3q-46 2 -64.5 19.5t-18.5 60.5v50q0 17 -5.5 23.5t-21.5 6.5h-5v124h20q81 0 114 -29.5t33 -101.5v-49q0 -23 10 -31.5t38 -8.5v-131q-28 0 -38 -8.5t-10 -31.5v-50q0 -72 -33 -101.5t-114 -29.5z
" />
    <glyph glyph-name="bracketleft.numr" horiz-adv-x="259" 
d="M254 219h-235v572h235v-124h-100v-324h100v-124z" />
    <glyph glyph-name="bracketright.numr" horiz-adv-x="259" 
d="M240 791v-572h-235v124h100v324h-100v124h235z" />
    <glyph glyph-name="period.numr" horiz-adv-x="160" 
d="M147 299h-134v130h134v-130z" />
    <glyph glyph-name="comma.numr" horiz-adv-x="159" 
d="M13 299v130h133v-137q0 -102 -109 -102h-24v64h21q18 0 26.5 8t8.5 28v9h-56z" />
    <glyph glyph-name="period.dnom.ss01" horiz-adv-x="175" 
d="M88 -7q-34 0 -54.5 20.5t-20.5 52.5t20.5 51.5t54.5 19.5q33 0 53.5 -19.5t20.5 -51.5t-20.5 -52.5t-53.5 -20.5z" />
    <glyph glyph-name="comma.dnom.ss01" horiz-adv-x="183" 
d="M88 137q38 0 60 -28t22 -77v-2q0 -67 -38 -103t-102 -36h-10v65h9q53 0 58 39q-33 0 -53.5 19t-20.5 51t20.5 52t54.5 20z" />
    <glyph glyph-name="period.numr.ss01" horiz-adv-x="175" 
d="M88 292q-34 0 -54.5 20.5t-20.5 52.5t20.5 51.5t54.5 19.5q33 0 53.5 -19.5t20.5 -51.5t-20.5 -52.5t-53.5 -20.5z" />
    <glyph glyph-name="comma.numr.ss01" horiz-adv-x="183" 
d="M88 436q38 0 60 -28t22 -77v-2q0 -67 -38 -103t-102 -36h-10v65h9q53 0 58 39q-33 0 -53.5 19t-20.5 51t20.5 52t54.5 20z" />
    <glyph glyph-name="period.subs.ss01" horiz-adv-x="175" 
d="M88 -203q-34 0 -54.5 20.5t-20.5 52.5t20.5 51.5t54.5 19.5q33 0 53.5 -19.5t20.5 -51.5t-20.5 -52.5t-53.5 -20.5z" />
    <glyph glyph-name="comma.subs.ss01" horiz-adv-x="183" 
d="M88 -59q38 0 60 -28t22 -77v-2q0 -67 -38 -103t-102 -36h-10v65h9q53 0 58 39q-33 0 -53.5 19t-20.5 51t20.5 52t54.5 20z" />
    <glyph glyph-name="period.sups.ss01" horiz-adv-x="175" 
d="M88 521q-34 0 -54.5 20.5t-20.5 52.5t20.5 51.5t54.5 19.5q33 0 53.5 -19.5t20.5 -51.5t-20.5 -52.5t-53.5 -20.5z" />
    <glyph glyph-name="comma.sups.ss01" horiz-adv-x="183" 
d="M88 665q38 0 60 -28t22 -77v-2q0 -67 -38 -103t-102 -36h-10v65h9q53 0 58 39q-33 0 -53.5 19t-20.5 51t20.5 52t54.5 20z" />
    <glyph glyph-name="hyphen.subs" horiz-adv-x="217" 
d="M203 -42h-189v102h189v-102z" />
    <glyph glyph-name="braceleft.subs" horiz-adv-x="240" 
d="M235 -276h-20q-81 0 -114 29.5t-33 101.5v50q0 23 -10 31.5t-38 8.5v131q28 0 38 8.5t10 31.5v49q0 72 33 101.5t114 29.5h20v-124h-5q-16 0 -21.5 -6.5t-5.5 -23.5v-50q0 -43 -18.5 -60.5t-64.5 -19.5v-3q46 -2 64.5 -19.5t18.5 -60.5v-51q0 -17 5.5 -23.5t21.5 -6.5h5
v-124z" />
    <glyph glyph-name="braceright.subs" horiz-adv-x="240" 
d="M25 -276h-20v124h5q16 0 21.5 6.5t5.5 23.5v51q0 43 18.5 60.5t64.5 19.5v3q-46 2 -64.5 19.5t-18.5 60.5v50q0 17 -5.5 23.5t-21.5 6.5h-5v124h20q81 0 114 -29.5t33 -101.5v-49q0 -23 10 -31.5t38 -8.5v-131q-28 0 -38 -8.5t-10 -31.5v-50q0 -72 -33 -101.5t-114 -29.5
z" />
    <glyph glyph-name="bracketleft.subs" horiz-adv-x="259" 
d="M254 -276h-235v572h235v-124h-100v-324h100v-124z" />
    <glyph glyph-name="bracketright.subs" horiz-adv-x="259" 
d="M240 -275h-235v124h100v324h-100v124h235v-572z" />
    <glyph glyph-name="period.subs" horiz-adv-x="160" 
d="M147 -196h-134v130h134v-130z" />
    <glyph glyph-name="comma.subs" horiz-adv-x="159" 
d="M13 -196v130h133v-137q0 -102 -109 -102h-24v64h21q18 0 26.5 8t8.5 28v9h-56z" />
    <glyph glyph-name="hyphen.sups" horiz-adv-x="217" 
d="M203 672h-189v102h189v-102z" />
    <glyph glyph-name="braceleft.sups" horiz-adv-x="240" 
d="M235 444h-20q-81 0 -114 29.5t-33 101.5v50q0 23 -10 31.5t-38 8.5v131q28 0 38 8.5t10 31.5v49q0 72 33 101.5t114 29.5h20v-124h-5q-16 0 -21.5 -6.5t-5.5 -23.5v-50q0 -43 -18.5 -60.5t-64.5 -19.5v-3q46 -2 64.5 -19.5t18.5 -60.5v-51q0 -17 5.5 -23.5t21.5 -6.5h5
v-124z" />
    <glyph glyph-name="braceright.sups" horiz-adv-x="240" 
d="M25 444h-20v124h5q16 0 21.5 6.5t5.5 23.5v51q0 43 18.5 60.5t64.5 19.5v3q-46 2 -64.5 19.5t-18.5 60.5v50q0 17 -5.5 23.5t-21.5 6.5h-5v124h20q81 0 114 -29.5t33 -101.5v-49q0 -23 10 -31.5t38 -8.5v-131q-28 0 -38 -8.5t-10 -31.5v-50q0 -72 -33 -101.5t-114 -29.5z
" />
    <glyph glyph-name="bracketleft.sups" horiz-adv-x="259" 
d="M254 444h-235v572h235v-124h-100v-324h100v-124z" />
    <glyph glyph-name="bracketright.sups" horiz-adv-x="259" 
d="M240 444h-235v124h100v324h-100v124h235v-572z" />
    <glyph glyph-name="period.sups" horiz-adv-x="160" 
d="M147 528h-134v130h134v-130z" />
    <glyph glyph-name="comma.sups" horiz-adv-x="159" 
d="M13 528v130h133v-137q0 -102 -109 -102h-24v64h21q18 0 26.5 8t8.5 28v9h-56z" />
    <glyph glyph-name="equal.sups" horiz-adv-x="335" 
d="M320 753h-305v107h305v-107zM320 610h-305v106h305v-106z" />
    <glyph glyph-name="uni2219.ss01" horiz-adv-x="532" 
d="M268 210q-64 0 -108 43q-45 43 -45 106q0 61 45 104q44 43 108 43q62 0 105 -43q44 -44 44 -104q0 -61 -44 -105t-105 -44z" />
    <glyph glyph-name="divide.ss01" horiz-adv-x="527" 
d="M331 500q-28 -28 -68 -28t-67 28q-28 28 -28 68t28 68q27 27 67 27t68 -27q28 -28 28 -68t-28 -68zM507 271h-486v172h486v-172zM331 86q-28 -28 -68 -28t-67 28q-28 27 -28 67t28 68q27 28 67 28t68 -28t28 -68t-28 -67z" />
    <glyph glyph-name="plus.tf" horiz-adv-x="696" 
d="M442 443h149v-172h-149v-152h-188v152h-149v172h149v151h188v-151z" />
    <glyph glyph-name="minus.tf" horiz-adv-x="696" 
d="M591 271h-486v172h486v-172z" />
    <glyph glyph-name="cent.dnom" horiz-adv-x="352" 
d="M199 270v-126q18 7 22 31h109q-12 -112 -131 -123v-61h-40v61q-63 5 -100.5 47t-37.5 109q0 66 37 108t101 47v59h40v-59q58 -5 92 -36.5t40 -85.5h-110q-5 23 -22 29zM132 208q0 -52 27 -63v125q-27 -12 -27 -62z" />
    <glyph glyph-name="dollar.dnom" horiz-adv-x="381" 
d="M373 128q0 -64 -42 -98t-118 -38v-59h-40v58q-159 9 -165 156h116q2 -31 12.5 -44.5t36.5 -17.5v73h-3q-79 12 -116 44.5t-37 89.5q0 61 39.5 94.5t116.5 35.5v58h40v-59q145 -14 152 -141h-114q-3 39 -38 47v-68l13 -2q79 -15 113 -44.5t34 -84.5zM136 300q0 -13 8 -20
t29 -13v61q-37 -3 -37 -28zM213 151v-66q39 3 39 32q0 15 -8.5 22t-30.5 12z" />
    <glyph glyph-name="Euro.dnom" horiz-adv-x="424" 
d="M302 147h117q-12 -72 -59.5 -114.5t-126.5 -42.5q-74 0 -123.5 41t-64.5 114h-40v44h34v18q0 16 1 21h-35v44h41q15 71 63.5 111t121.5 40q152 0 187 -146h-120q-17 47 -67 47q-52 0 -65 -52h93v-44h-100v-20v-19h100v-44h-93q13 -55 69 -55q57 0 67 57z" />
    <glyph glyph-name="plus.dnom" horiz-adv-x="335" 
d="M227 259h93v-106h-93v-95h-119v95h-93v106h93v95h119v-95z" />
    <glyph glyph-name="minus.dnom" horiz-adv-x="335" 
d="M320 153h-305v106h305v-106z" />
    <glyph glyph-name="equal.dnom" horiz-adv-x="335" 
d="M320 224h-305v107h305v-107zM320 81h-305v106h305v-106z" />
    <glyph glyph-name="cent.numr" horiz-adv-x="352" 
d="M199 567v-126q18 7 22 31h109q-12 -112 -131 -123v-61h-40v61q-63 5 -100.5 47t-37.5 109q0 66 37 108t101 47v59h40v-59q58 -5 92 -36.5t40 -85.5h-110q-5 23 -22 29zM132 505q0 -53 27 -63v125q-27 -12 -27 -62z" />
    <glyph glyph-name="dollar.numr" horiz-adv-x="381" 
d="M373 427q0 -64 -42 -98t-118 -38v-59h-40v58q-159 9 -165 156h116q2 -31 12.5 -44.5t36.5 -17.5v73h-3q-79 12 -116 44.5t-37 89.5q0 125 156 130v58h40v-59q145 -14 152 -141h-114q-3 39 -38 47v-68l13 -2q79 -15 113 -44.5t34 -84.5zM136 599q0 -13 8 -20t29 -13v61
q-37 -3 -37 -28zM213 450v-66q39 3 39 32q0 15 -8.5 22t-30.5 12z" />
    <glyph glyph-name="Euro.numr" horiz-adv-x="424" 
d="M302 446h117q-12 -72 -59.5 -114.5t-126.5 -42.5q-74 0 -123.5 41t-64.5 114h-40v44h34v18q0 16 1 21h-35v44h41q15 71 63.5 111t121.5 40q152 0 187 -146h-120q-17 47 -67 47q-52 0 -65 -52h93v-44h-100v-20v-19h100v-44h-93q13 -55 69 -55q57 0 67 57z" />
    <glyph glyph-name="plus.numr" horiz-adv-x="335" 
d="M227 558h93v-106h-93v-95h-119v95h-93v106h93v95h119v-95z" />
    <glyph glyph-name="minus.numr" horiz-adv-x="335" 
d="M320 452h-305v106h305v-106z" />
    <glyph glyph-name="equal.numr" horiz-adv-x="335" 
d="M320 524h-305v107h305v-107zM320 381h-305v106h305v-106z" />
    <glyph glyph-name="cent.subs" horiz-adv-x="352" 
d="M199 72v-126q18 7 22 31h109q-12 -112 -131 -123v-61h-40v61q-63 5 -100.5 47t-37.5 109q0 66 37 108t101 47v59h40v-59q58 -5 92 -36.5t40 -85.5h-110q-5 23 -22 29zM132 10q0 -52 27 -63v125q-27 -12 -27 -62z" />
    <glyph glyph-name="dollar.subs" horiz-adv-x="381" 
d="M373 -71q0 -64 -42 -98t-118 -38v-59h-40v58q-159 9 -165 156h116q2 -31 12.5 -44.5t36.5 -17.5v73h-3q-79 12 -116 44.5t-37 89.5q0 125 156 130v58h40v-59q145 -14 152 -141h-114q-3 39 -38 47v-68l13 -2q79 -15 113 -44.5t34 -84.5zM136 101q0 -13 8 -20t29 -13v61
q-37 -3 -37 -28zM213 -48v-66q39 3 39 32q0 15 -8.5 22t-30.5 12z" />
    </font>
</defs>
</svg>
