<?xml version="1.0" standalone="no"?>
<!DOCTYPE svg PUBLIC "-//W3C//DTD SVG 1.1//EN" "http://www.w3.org/Graphics/SVG/1.1/DTD/svg11.dtd" >
<svg xmlns="http://www.w3.org/2000/svg" xmlns:xlink="http://www.w3.org/1999/xlink" version="1.1">
<metadata>
Created by FontForge 20170731 at Sun Apr 14 21:27:16 2019
 By Aleksey,,,
Copyright (c) 2019 Monotype Imaging Inc. All rights reserved.
</metadata>
<defs>
<font id="HelveticaNowDisplay-RegIta" horiz-adv-x="0" >
  <font-face 
    font-family="HelveticaNowDisplay Regular"
    font-weight="400"
    font-style="italic"
    font-stretch="normal"
    units-per-em="1000"
    panose-1="2 11 5 4 3 2 2 9 2 4"
    ascent="875"
    descent="-125"
    x-height="516"
    cap-height="712"
    bbox="-416 -322 1239 1036"
    underline-thickness="50"
    underline-position="-300"
    slope="-12"
    unicode-range="U+000D-FEFF"
  />
<missing-glyph horiz-adv-x="633" 
d="M568 0h-503v712h503v-712zM149 636v-560h335v560h-335z" />
    <glyph glyph-name="fi" unicode="fi" horiz-adv-x="509" 
d="M345 516l-15 -70h-110l-95 -446h-80l95 446h-85l15 70h84l15 69q13 61 56.5 95.5t113.5 34.5q21 0 53 -2l-15 -68h-46q-68 0 -84 -73l-12 -56h110zM439 594l20 98h85l-20 -98h-85zM395 0h-80l110 516h80z" />
    <glyph glyph-name="fl" unicode="fl" horiz-adv-x="500" 
d="M345 516l-15 -70h-110l-95 -446h-80l95 446h-85l15 70h84l15 69q13 61 56.5 95.5t113.5 34.5q21 0 53 -2l-15 -68h-46q-68 0 -84 -73l-12 -56h110zM306 0l151 712h80l-151 -712h-80z" />
    <glyph glyph-name=".notdef" horiz-adv-x="633" 
d="M568 0h-503v712h503v-712zM149 636v-560h335v560h-335z" />
    <glyph glyph-name=".null" 
 />
    <glyph glyph-name="nonmarkingreturn" horiz-adv-x="333" 
 />
    <glyph glyph-name="NULL" 
 />
    <glyph glyph-name="NULL" 
 />
    <glyph glyph-name="CR" unicode="&#xd;" horiz-adv-x="190" 
 />
    <glyph glyph-name="space" unicode=" " horiz-adv-x="190" 
 />
    <glyph glyph-name="exclam" unicode="!" horiz-adv-x="191" 
d="M102 186h-52l56 330l42 196h84l-42 -196zM93 0h-101l22 100h101z" />
    <glyph glyph-name="quotedbl" unicode="&#x22;" horiz-adv-x="402" 
d="M177 457h-62l47 255h84zM365 457h-62l47 255h84z" />
    <glyph glyph-name="numbersign" unicode="#" horiz-adv-x="632" 
d="M653 498l-28 -68h-101l-61 -148h100l-28 -68h-101l-89 -214h-80l89 214h-153l-89 -214h-80l89 214h-100l28 68h101l61 148h-100l28 68h101l89 214h80l-89 -214h153l89 214h80l-89 -214h100zM230 282h153l61 148h-153z" />
    <glyph glyph-name="dollar" unicode="$" horiz-adv-x="618" 
d="M621 505h-85q9 62 -15 97t-89 46l-54 -253l16 -4q211 -49 174 -227q-18 -85 -90 -132t-187 -48l-21 -100h-70l22 104q-109 15 -162.5 79t-38.5 168h87q-18 -150 130 -171l57 267l-15 3q-87 19 -137 74q-50 54 -32 145q17 83 88 128.5t180 46.5l21 100h70l-22 -104
q103 -14 144.5 -72t28.5 -147zM196 547q-11 -54 15 -85t101 -51l51 241q-147 -4 -167 -105zM482 173q12 57 -15.5 89t-105.5 53l-54 -255q75 3 120 32.5t55 80.5z" />
    <glyph glyph-name="percent" unicode="%" horiz-adv-x="889" 
d="M211 291q-85 0 -121.5 61.5t-12.5 174.5q43 194 193 194q85 0 121.5 -60.5t12.5 -170.5q-42 -199 -193 -199zM242 0h-82l532 712h82zM216 352q85 0 115 143q34 165 -67 165q-86 0 -116 -145q-17 -79 1.5 -121t66.5 -42zM661 -8q-85 0 -121.5 61.5t-12.5 174.5
q43 194 193 194q85 0 121.5 -60.5t12.5 -170.5q-42 -199 -193 -199zM666 53q85 0 115 143q34 165 -67 165q-86 0 -116 -145q-17 -79 1.5 -121t66.5 -42z" />
    <glyph glyph-name="ampersand" unicode="&#x26;" horiz-adv-x="658" 
d="M495 149l101 -149h-103l-53 79q-93 -95 -229 -95q-103 0 -160 63q-58 61 -37 159q24 117 206 198q-64 100 -45 191q12 59 60.5 96t124.5 37t125 -46t33 -126q-20 -93 -182 -175l113 -165q28 55 45 128h81q-30 -113 -80 -195zM258 581q-14 -65 39 -142q68 34 99.5 60.5
t37.5 56.5q9 44 -16 72t-67 28q-36 0 -61 -20.5t-32 -54.5zM219 60q107 0 179 80l-138 204q-82 -40 -118 -71t-45 -75q-12 -56 23 -97t99 -41z" />
    <glyph glyph-name="quotesingle" unicode="'" horiz-adv-x="214" 
d="M177 457h-62l47 255h84z" />
    <glyph glyph-name="parenleft" unicode="(" horiz-adv-x="275" 
d="M183 -196h-74q-95 201 -32 523q56 266 234 455h80q-93 -114 -148 -225.5t-82 -243.5q-31 -168 -24 -279q6 -113 46 -230z" />
    <glyph glyph-name="parenright" unicode=")" horiz-adv-x="275" 
d="M-36 -196h-80q93 114 148 225.5t82 243.5q31 166 25 280q-8 114 -47 229h74q95 -201 32 -523q-56 -266 -234 -455z" />
    <glyph glyph-name="asterisk" unicode="*" horiz-adv-x="482" 
d="M405 333l-57 -28l-66 147l-120 -108l-40 50l121 110l-138 79l33 55l135 -78l32 154l63 -13l-33 -154l155 16l8 -63l-159 -17z" />
    <glyph glyph-name="plus" unicode="+" horiz-adv-x="529" 
d="M324 392h185v-72h-185v-185h-78v185h-186v72h186v185h78v-185z" />
    <glyph glyph-name="comma" unicode="," horiz-adv-x="191" 
d="M-8 0l21 100h101l-23 -109q-14 -66 -43.5 -95.5t-84.5 -34.5l11 54q47 7 59 69l3 16h-44z" />
    <glyph glyph-name="hyphen" unicode="-" horiz-adv-x="369" 
d="M326 246h-289l16 72h289z" />
    <glyph glyph-name="period" unicode="." horiz-adv-x="191" 
d="M91 0h-101l22 100h101z" />
    <glyph glyph-name="slash" unicode="/" horiz-adv-x="363" 
d="M40 0h-80l405 712h80z" />
    <glyph glyph-name="zero" unicode="0" horiz-adv-x="616" 
d="M260 -16q-134 0 -181 99t-6 291q36 169 119.5 261.5t205.5 92.5q130 0 179 -100t9 -286q-37 -172 -120.5 -265t-205.5 -93zM266 60q83 0 142 72.5t88 210.5q66 309 -104 309q-83 0 -141.5 -72.5t-88.5 -211.5q-66 -308 104 -308z" />
    <glyph glyph-name="one" unicode="1" horiz-adv-x="357" 
d="M300 712h68l-152 -712h-84l113 531h-162l14 66l16 1q77 5 119 30t68 84z" />
    <glyph glyph-name="two" unicode="2" horiz-adv-x="548" 
d="M360 728q104 0 160 -60q54 -61 34 -157q-15 -69 -65.5 -122.5t-143.5 -101.5l-86 -44q-72 -37 -106 -73q-34 -37 -52 -94h370l-16 -76h-470l10 39q22 86 67 150q44 60 144 111l101 52q76 39 112 74.5t47 84.5q14 67 -15.5 104t-100.5 37q-144 0 -176 -153h-84
q42 229 270 229z" />
    <glyph glyph-name="three" unicode="3" horiz-adv-x="574" 
d="M559 516q-22 -93 -129 -140q110 -57 79 -199q-19 -90 -87 -141.5t-177 -51.5q-117 0 -176.5 62.5t-45.5 168.5h84q-9 -76 29 -115.5t117 -39.5q143 0 170 126q16 74 -18.5 115t-110.5 41h-53l15 70h48q70 0 115 29.5t56 81.5q13 60 -20.5 94.5t-100.5 34.5
q-139 0 -172 -136h-85q21 98 90.5 155t173.5 57q98 0 159.5 -55.5t38.5 -156.5z" />
    <glyph glyph-name="four" unicode="4" horiz-adv-x="582" 
d="M451 712h91l-98 -458h96l-16 -76h-96l-38 -178h-84l38 178h-357l17 81zM432 594l-336 -340h264z" />
    <glyph glyph-name="five" unicode="5" horiz-adv-x="579" 
d="M586 712l-16 -76h-300l-77 -213q58 41 132 41q110 0 166 -74q54 -74 29 -191q-19 -90 -88 -153q-68 -62 -176 -62q-106 0 -167 58q-62 59 -55 156h85q-3 -68 35.5 -103t109.5 -35q65 0 111 41.5t60 110.5q17 80 -18.5 128t-108.5 48q-106 0 -154 -86h-83l147 410h368z
" />
    <glyph glyph-name="six" unicode="6" horiz-adv-x="603" 
d="M344 464q106 0 164 -73t32 -192q-21 -98 -91 -156.5t-173 -58.5q-117 0 -177 81q-69 92 -28 316q33 157 117 252t212 95q93 0 146.5 -51t53.5 -141h-84q-6 116 -129 116q-170 0 -233 -274q71 86 190 86zM455 210q15 80 -22 129t-108 49q-65 0 -115 -41q-49 -40 -63 -101
q-20 -85 18.5 -135.5t115.5 -50.5q65 0 112.5 41.5t61.5 108.5z" />
    <glyph glyph-name="seven" unicode="7" horiz-adv-x="497" 
d="M103 636l16 76h457l-14 -66q-302 -273 -393 -646h-87q45 190 137.5 345t243.5 291h-360z" />
    <glyph glyph-name="eight" unicode="8" horiz-adv-x="586" 
d="M577 516q-23 -98 -142 -140q59 -28 86 -80.5t12 -122.5q-18 -85 -90 -137t-181 -52q-130 0 -195 68q-64 67 -39 181q25 118 166 156q-90 57 -68 174q16 81 81 123t168 42q106 0 165 -59q58 -58 37 -153zM493 516q14 62 -20.5 99t-103.5 37q-143 0 -162 -102
q-12 -64 25 -100t107 -36q61 0 102 27t52 75zM448 189q15 75 -23.5 115t-120.5 40q-77 0 -128 -31.5t-63 -92.5q-16 -74 25 -117t126 -43q75 0 123.5 34.5t60.5 94.5z" />
    <glyph glyph-name="nine" unicode="9" horiz-adv-x="603" 
d="M536 648q69 -92 28 -316q-33 -158 -117 -252q-84 -95 -212 -95q-93 0 -146.5 51t-53.5 141h84q6 -116 129 -116q170 0 233 274q-71 -86 -190 -86q-105 0 -164 74q-58 72 -32 191q21 98 91 156.5t173 58.5q117 0 177 -81zM310 325q66 0 116 41q48 39 62 101
q20 85 -18.5 135.5t-115.5 50.5q-65 0 -112.5 -41.5t-61.5 -108.5q-15 -80 22 -129t108 -49z" />
    <glyph glyph-name="colon" unicode=":" horiz-adv-x="191" 
d="M172 391h-101l22 100h101zM91 0h-101l22 100h101z" />
    <glyph glyph-name="semicolon" unicode=";" horiz-adv-x="191" 
d="M74 390l22 100h101l-22 -100h-101zM36 0h-44l21 100h101l-23 -109q-26 -120 -118 -129l-10 -1l11 54l7 1q38 6 52 68z" />
    <glyph glyph-name="less" unicode="&#x3c;" horiz-adv-x="529" 
d="M509 591v-86l-146 -60q-109 -45 -219 -88q82 -33 219 -89l146 -60v-86l-449 193v83z" />
    <glyph glyph-name="equal" unicode="=" horiz-adv-x="529" 
d="M489 406h-449v72h449v-72zM489 234h-449v72h449v-72z" />
    <glyph glyph-name="greater" unicode="&#x3e;" horiz-adv-x="529" 
d="M81 505v86l449 -193v-83l-449 -193v86l146 60q120 50 219 89q-110 43 -219 88z" />
    <glyph glyph-name="question" unicode="?" horiz-adv-x="507" 
d="M275 186h-79q16 73 43 119q33 54 102 102q28 20 39 28.5t25 21.5t26 28q19 23 25 49q13 57 -15 87.5t-96 30.5q-73 0 -117.5 -36.5t-67.5 -122.5h-82q49 235 272 235q108 0 159.5 -52t30.5 -151q-9 -43 -40 -79t-89 -77q-49 -36 -69.5 -54t-35.5 -40q-18 -28 -31 -89z
M251 0h-101l22 100h101z" />
    <glyph glyph-name="at" unicode="@" horiz-adv-x="926" 
d="M557 728q88 2 161.5 -27t121 -84.5t65.5 -135t-4 -177.5q-20 -88 -76 -153q-57 -67 -142 -67q-47 0 -76.5 22t-35.5 64q-59 -89 -155 -89q-81 0 -122 65q-40 64 -18 172q20 95 82 153t146 58q78 0 111 -65l11 52h78l-55 -262q-11 -56 -1 -79t43 -23q46 0 84 47
q37 45 52 115q34 154 -44 251q-80 95 -241 95q-157 0 -271 -96q-115 -98 -147 -246q-36 -168 51 -269q86 -102 242 -102q100 0 202 35l-13 -70q-88 -33 -199 -33q-189 -4 -295 124.5t-62 325.5q37 174 177 287q139 112 330 112zM432 147q55 0 95.5 43t55.5 115t-7.5 115
t-76.5 43q-55 0 -94 -41t-54 -111q-17 -78 4 -121t77 -43z" />
    <glyph glyph-name="A" unicode="A" horiz-adv-x="696" 
d="M623 0h-86l-39 207h-324l-126 -207h-91l435 712h94zM225 291l-5 -8h264l-2 9q-32 175 -59 329q-67 -114 -198 -330z" />
    <glyph glyph-name="B" unicode="B" horiz-adv-x="632" 
d="M633 504q-19 -91 -127 -138q115 -52 86 -189q-18 -82 -86 -129.5t-174 -47.5h-321l151 712h276q110 0 162.5 -57t32.5 -151zM552 516q12 58 -19.5 89t-106.5 31h-196l-50 -234h206q69 0 111.5 30t54.5 84zM511 193q14 65 -22 99t-112 34h-213l-53 -250h233q68 0 111.5 31
t55.5 86z" />
    <glyph glyph-name="C" unicode="C" horiz-adv-x="701" 
d="M315 -16q-153 0 -223 105q-73 104 -32 292q31 152 143 250q109 97 250 97q110 0 183 -61q71 -61 76 -184h-86q-10 168 -180 168q-109 0 -191 -76t-109 -203q-32 -147 15.5 -229t159.5 -82q91 0 162.5 51t102.5 147h85q-41 -133 -138 -204q-98 -71 -218 -71z" />
    <glyph glyph-name="D" unicode="D" horiz-adv-x="689" 
d="M162 712h233q161 0 236 -107t38 -279q-35 -161 -139.5 -243.5t-268.5 -82.5h-250zM583 343q27 130 -22 212q-50 81 -175 81h-156l-119 -560h156q259 0 316 267z" />
    <glyph glyph-name="E" unicode="E" horiz-adv-x="585" 
d="M657 712l-16 -76h-411l-49 -227h371l-16 -76h-371l-55 -257h407l-16 -76h-491l152 712h495z" />
    <glyph glyph-name="F" unicode="F" horiz-adv-x="556" 
d="M633 712l-16 -76h-387l-49 -227h347l-16 -76h-347l-71 -333h-84l152 712h471z" />
    <glyph glyph-name="G" unicode="G" horiz-adv-x="747" 
d="M730 479h-87q1 78 -55 125t-142 47q-112 0 -191 -76q-79 -77 -108 -204q-32 -144 24 -227q54 -83 170 -83q101 0 180 64q79 65 102 165h-227l16 76h303l-78 -366h-69l2 88q-93 -104 -236 -104q-156 0 -234 108t-39 289q33 153 138 250q103 97 254 97q127 0 204 -68
q76 -69 73 -181z" />
    <glyph glyph-name="H" unicode="H" horiz-adv-x="695" 
d="M578 406l65 306h84l-152 -712h-84l70 328h-397l-70 -328h-84l152 712h84l-65 -306h397z" />
    <glyph glyph-name="I" unicode="I" horiz-adv-x="214" 
d="M94 0h-84l152 712h84z" />
    <glyph glyph-name="J" unicode="J" horiz-adv-x="519" 
d="M212 -15q-106 0 -157 66q-51 65 -24 177l5 21h82l-7 -35q-15 -76 14.5 -115t95.5 -39q125 0 155 142l108 510h84l-108 -510q-46 -217 -248 -217z" />
    <glyph glyph-name="K" unicode="K" horiz-adv-x="664" 
d="M631 712h115l-367 -291l216 -421h-93l-192 368l-165 -131l-50 -237h-84l151 712h84l-78 -369z" />
    <glyph glyph-name="L" unicode="L" horiz-adv-x="527" 
d="M246 712l-136 -636h358l-16 -76h-442l152 712h84z" />
    <glyph glyph-name="M" unicode="M" horiz-adv-x="839" 
d="M516 319l242 393h113l-151 -712h-82l48 228q44 202 81 363q-34 -57 -98 -162l-267 -429h-69l-86 429q-23 117 -29 166q-41 -201 -75 -367l-48 -228h-84l151 712h110l79 -405q24 -122 37 -201q72 121 128 213z" />
    <glyph glyph-name="N" unicode="N" horiz-adv-x="696" 
d="M573 472l51 240h83l-152 -712h-99l-158 367q-58 134 -99 247q-37 -192 -76 -374l-51 -240h-83l152 712h99l158 -367q63 -147 99 -248q34 177 76 375z" />
    <glyph glyph-name="O" unicode="O" horiz-adv-x="752" 
d="M328 -16q-156 0 -231 107q-75 106 -37 286q31 150 145 252q113 99 261 99q155 0 230 -105t39 -280q-33 -158 -145 -258q-113 -101 -262 -101zM334 61q116 0 202 79q86 80 113 209q29 140 -22 221t-168 81q-113 0 -199 -78t-114 -207q-30 -141 20.5 -223t167.5 -82z" />
    <glyph glyph-name="P" unicode="P" horiz-adv-x="631" 
d="M162 712h276q114 0 171 -64q57 -65 35 -176q-18 -91 -89 -144.5t-180 -53.5h-222l-58 -274h-84zM559 483q16 75 -18.5 114t-113.5 39h-197l-61 -286h212q72 0 118.5 35t59.5 98z" />
    <glyph glyph-name="Q" unicode="Q" horiz-adv-x="752" 
d="M735 343q-35 -161 -147 -260l78 -98l-63 -46l-78 98q-91 -53 -197 -53q-156 0 -231 107q-75 106 -37 286q31 150 145 252q113 99 261 99q155 0 230 -105t39 -280zM477 98l-78 98l63 46l78 -98q82 76 109 205q29 140 -22 221t-168 81q-113 0 -199 -78t-114 -207
q-30 -141 20.5 -223t167.5 -82q78 0 143 37z" />
    <glyph glyph-name="R" unicode="R" horiz-adv-x="646" 
d="M162 712h281q114 0 175 -55q63 -56 40 -160q-12 -57 -55.5 -98t-104.5 -56q52 -13 70.5 -50t6.5 -107l-15 -95q-9 -59 7 -91h-87q-15 31 -3 95l16 92q10 62 -13.5 89.5t-87.5 27.5h-233l-64 -304h-84zM572 499q15 69 -21 103t-114 34h-207l-54 -256h227q65 0 111 32
t58 87z" />
    <glyph glyph-name="S" unicode="S" horiz-adv-x="618" 
d="M285 -16q-134 0 -208 65q-73 64 -56 186h87q-23 -175 186 -175q81 0 129 29.5t59 83.5q13 60 -19 93t-123 54l-60 14q-87 19 -137 74q-50 54 -32 145q17 83 89 129t181 46q145 0 201 -62q54 -63 39 -161h-85q12 74 -25.5 110.5t-135.5 36.5q-158 0 -179 -105
q-11 -58 19.5 -89.5t118.5 -52.5l60 -14q211 -49 174 -227q-18 -85 -92 -132.5t-191 -47.5z" />
    <glyph glyph-name="T" unicode="T" horiz-adv-x="611" 
d="M117 712h571l-16 -76h-242l-136 -636h-87l136 636h-242z" />
    <glyph glyph-name="U" unicode="U" horiz-adv-x="670" 
d="M297 -15q-143 0 -206 84t-28 240l88 403h84l-89 -418q-50 -233 157 -233q186 0 230 203l94 448h84l-97 -465q-55 -262 -317 -262z" />
    <glyph glyph-name="V" unicode="V" horiz-adv-x="656" 
d="M413 261l233 451h91l-376 -712h-94l-156 712h86l94 -451q19 -87 33 -177q39 82 89 177z" />
    <glyph glyph-name="W" unicode="W" horiz-adv-x="956" 
d="M777 361l171 351h89l-353 -712h-94l-25 363q-3 41 -13 243q-36 -80 -117 -243l-179 -363h-94l-51 712h85l23 -351q9 -151 12 -257q77 166 123 259l171 349h94l23 -349q10 -143 14 -258q53 115 121 256z" />
    <glyph glyph-name="X" unicode="X" horiz-adv-x="639" 
d="M608 712h99l-314 -343l177 -369h-93l-73 154q-42 86 -70 148q-12 -14 -133 -148l-141 -154h-99l334 365l-169 347h93l67 -141q45 -93 66 -143q102 112 129 144z" />
    <glyph glyph-name="Y" unicode="Y" horiz-adv-x="658" 
d="M500 546l139 166h100l-362 -426l-61 -286h-84l61 286l-182 426h91l69 -167q16 -40 73 -188q96 117 156 189z" />
    <glyph glyph-name="Z" unicode="Z" horiz-adv-x="600" 
d="M666 712l-16 -76l-402 -403l-159 -159q90 2 204 2h244l-16 -76h-550l16 76l400 403l159 159q-90 -2 -204 -2h-217l16 76h525z" />
    <glyph glyph-name="bracketleft" unicode="[" horiz-adv-x="316" 
d="M192 -196h-231l208 978h231l-15 -70h-151l-178 -838h151z" />
    <glyph glyph-name="backslash" unicode="\" horiz-adv-x="363" 
d="M292 0h-76l-103 712h76z" />
    <glyph glyph-name="bracketright" unicode="]" horiz-adv-x="316" 
d="M161 -196h-231l15 70h151l178 838h-151l15 70h231z" />
    <glyph glyph-name="asciicircum" unicode="^" horiz-adv-x="435" 
d="M194 712h87l169 -302h-85l-103 190l-24 44q-1 -1 -4 -6.5t-9 -16t-12 -21.5l-103 -190h-85z" />
    <glyph glyph-name="underscore" unicode="_" horiz-adv-x="418" 
d="M329 -170h-420l14 70h420z" />
    <glyph glyph-name="grave" unicode="`" horiz-adv-x="400" 
d="M303 594h-66l-67 144h106z" />
    <glyph glyph-name="a" unicode="a" horiz-adv-x="521" 
d="M478 348l-51 -240q-9 -43 23 -43h25l-14 -65q-19 -3 -44 -3q-35 0 -54.5 18.5t-18.5 50.5q-63 -78 -171 -78q-88 0 -132 48.5t-26 129.5q25 112 213 132l82 9q83 9 95 60q10 44 -15.5 68t-89.5 24t-97 -23t-48 -79h-78q24 91 77 131t153 40q209 0 171 -180zM187 56
q63 0 112.5 34.5t66.5 97.5l18 81q-25 -16 -74 -22l-77 -10q-124 -16 -138 -86q-9 -45 14.5 -70t77.5 -25z" />
    <glyph glyph-name="b" unicode="b" horiz-adv-x="583" 
d="M351 528q113 0 167 -78t27 -206q-24 -116 -100 -186t-184 -70q-120 0 -162 94l-18 -82h-76l152 712h80l-53 -250q70 66 167 66zM462 251q21 99 -12 152t-111 53q-80 0 -133.5 -49.5t-72.5 -140.5q-21 -98 14 -153t117 -55q74 0 127 52.5t71 140.5z" />
    <glyph glyph-name="c" unicode="c" horiz-adv-x="521" 
d="M228 -12q-106 0 -161 79q-55 78 -27 216q22 109 98 177q74 68 182 68q92 0 143.5 -50.5t48.5 -136.5h-84q-1 55 -33.5 85t-85.5 30q-68 0 -119 -49.5t-69 -140.5q-20 -99 13 -152.5t105 -53.5q117 0 158 117h83q-30 -91 -95 -140t-157 -49z" />
    <glyph glyph-name="d" unicode="d" horiz-adv-x="588" 
d="M481 441l58 271h80l-152 -712h-76l13 58q-74 -70 -172 -70q-113 0 -167 78t-27 206q24 116 100 186t184 70q112 0 159 -87zM244 60q80 0 133.5 49.5t72.5 140.5q21 98 -14 153t-117 55q-74 0 -127 -52.5t-71 -140.5q-21 -99 12 -152t111 -53z" />
    <glyph glyph-name="e" unicode="e" horiz-adv-x="545" 
d="M320 528q114 0 166 -78t24 -192l-8 -28h-389q-11 -83 22 -126t101 -43q112 0 158 96h84q-69 -169 -249 -169q-108 0 -164 77q-55 76 -27 209q24 111 102 183q77 71 180 71zM311 455q-63 0 -111 -39.5t-72 -113.5h305q10 67 -23 110t-99 43z" />
    <glyph glyph-name="f" unicode="f" horiz-adv-x="320" 
d="M377 645h-46q-68 0 -84 -73l-12 -56h110l-15 -70h-110l-95 -446h-80l95 446h-85l15 70h84l15 69q13 61 56.5 95.5t113.5 34.5q21 0 53 -2z" />
    <glyph glyph-name="g" unicode="g" horiz-adv-x="583" 
d="M487 443l16 73h76l-106 -496q-25 -114 -91 -171t-184 -57q-97 0 -149 45t-47 121h80q-1 -50 30 -74t94 -24q153 0 187 160l7 35q-70 -67 -165 -67q-114 0 -169 82t-27 209q25 117 104 184q79 65 182 65q113 0 162 -85zM246 60q72 0 127 48.5t77 132.5l7 31
q14 87 -21 135.5t-111 48.5t-129.5 -51t-71.5 -138q-21 -95 12.5 -151t109.5 -56z" />
    <glyph glyph-name="h" unicode="h" horiz-adv-x="540" 
d="M351 528q89 0 128 -54t16 -155l-69 -319h-80l68 324q29 132 -83 132q-65 0 -116.5 -43.5t-66.5 -120.5l-62 -292h-80l151 712h80l-55 -259q74 75 169 75z" />
    <glyph glyph-name="i" unicode="i" horiz-adv-x="199" 
d="M214 594h-85l20 98h85zM85 0h-80l110 516h80z" />
    <glyph glyph-name="j" unicode="j" horiz-adv-x="203" 
d="M214 594h-85l20 98h85zM-63 -199q-45 0 -56 1l15 69h40q41 0 54 59l125 586h80l-127 -595q-26 -120 -131 -120z" />
    <glyph glyph-name="k" unicode="k" horiz-adv-x="504" 
d="M432 516h108l-234 -188l138 -328h-83l-116 280l-120 -95l-40 -185h-80l152 712h80l-90 -424z" />
    <glyph glyph-name="l" unicode="l" horiz-adv-x="200" 
d="M86 0h-80l151 712h80z" />
    <glyph glyph-name="m" unicode="m" horiz-adv-x="840" 
d="M653 528q88 0 124 -53.5t17 -148.5l-69 -326h-80l70 328q27 128 -81 128q-57 0 -104.5 -45.5t-64.5 -128.5l-60 -282h-80l69 324q28 132 -80 132q-56 0 -104 -45.5t-65 -128.5l-60 -282h-80l110 516h76l-14 -65q68 77 155 77q118 0 143 -96q77 96 178 96z" />
    <glyph glyph-name="n" unicode="n" horiz-adv-x="540" 
d="M350 528q89 0 128 -54t16 -155l-69 -319h-80l68 324q29 132 -83 132q-65 0 -116.5 -43.5t-66.5 -120.5l-62 -292h-80l110 516h76l-15 -69q74 81 174 81z" />
    <glyph glyph-name="o" unicode="o" horiz-adv-x="570" 
d="M242 -12q-121 0 -176.5 77t-26.5 211q23 111 105 181q82 71 184 71q121 0 176 -76.5t27 -210.5q-23 -111 -104 -182q-82 -71 -185 -71zM244 60q75 0 130.5 51.5t74.5 138.5q21 98 -12 152t-111 54q-74 0 -130 -53q-57 -53 -75 -135q-21 -98 12.5 -153t110.5 -55z" />
    <glyph glyph-name="p" unicode="p" horiz-adv-x="583" 
d="M351 528q113 0 167 -78t27 -206q-24 -116 -100 -186t-184 -70q-113 0 -159 87l-58 -271h-80l152 712h76l-13 -58q74 70 172 70zM462 251q21 99 -12 152t-111 53q-80 0 -133.5 -49.5t-72.5 -140.5q-21 -98 14 -153t117 -55q74 0 127 52.5t71 140.5z" />
    <glyph glyph-name="q" unicode="q" horiz-adv-x="588" 
d="M484 434l18 82h76l-152 -712h-80l53 250q-70 -66 -167 -66q-113 0 -167 78t-27 206q24 116 100 186t184 70q120 0 162 -94zM244 60q80 0 133.5 49.5t72.5 140.5q21 98 -14 153t-117 55q-74 0 -127 -52.5t-71 -140.5q-21 -99 12 -152t111 -53z" />
    <glyph glyph-name="r" unicode="r" horiz-adv-x="354" 
d="M359 524q19 0 26 -1l-16 -77h-20q-80 0 -133 -39.5t-68 -112.5l-63 -294h-80l110 516h76l-17 -80q75 88 185 88z" />
    <glyph glyph-name="s" unicode="s" horiz-adv-x="467" 
d="M199 -12q-109 0 -158 43.5t-39 132.5h80q-4 -58 25 -82.5t99 -24.5q114 0 129 71q9 41 -12.5 62t-85.5 33l-37 7q-164 32 -134 169q13 62 68.5 95.5t140.5 33.5q98 0 143 -43.5t35 -127.5h-79q8 55 -18.5 78.5t-88.5 23.5q-51 0 -84 -19.5t-40 -52.5q-7 -36 14 -56
t76 -31l40 -8q90 -18 123.5 -59t17.5 -116q-12 -60 -67 -94.5t-148 -34.5z" />
    <glyph glyph-name="t" unicode="t" horiz-adv-x="311" 
d="M326 446h-106l-68 -321q-6 -30 4.5 -44t41.5 -14h47l-14 -67q-33 -3 -50 -3q-65 0 -93.5 34t-15.5 97l68 318h-85l15 70h85l31 146h80l-31 -146h106z" />
    <glyph glyph-name="u" unicode="u" horiz-adv-x="540" 
d="M393 224l62 292h80l-110 -516h-76l15 69q-74 -81 -174 -81q-89 0 -128 54t-16 155l69 319h80l-68 -324q-29 -132 83 -132q65 0 116.5 43.5t66.5 120.5z" />
    <glyph glyph-name="v" unicode="v" horiz-adv-x="499" 
d="M325 287l134 229h89l-313 -516h-84l-92 516h84l36 -230q19 -115 30 -200q20 37 116 201z" />
    <glyph glyph-name="w" unicode="w" horiz-adv-x="778" 
d="M610 283l123 233h90l-282 -516h-84l-25 239q-8 66 -16 181q-48 -104 -89 -181l-126 -239h-84l-62 516h82l23 -233q6 -54 16 -189q55 112 95 189l122 233h84l22 -233q2 -18 16 -192q38 84 95 192z" />
    <glyph glyph-name="x" unicode="x" horiz-adv-x="496" 
d="M440 516h97l-241 -252l141 -264h-88l-20 39q-14 26 -85 168q-80 -84 -159 -169l-35 -38h-99l253 264l-133 252h90l28 -55l70 -140l130 140z" />
    <glyph glyph-name="y" unicode="y" horiz-adv-x="479" 
d="M321 302l119 214h89l-344 -594q-38 -66 -77 -92q-40 -26 -106 -26q-32 0 -57 3l14 67h47q68 0 106 65l27 45l-79 532h86l27 -215q17 -128 27 -223q58 112 121 224z" />
    <glyph glyph-name="z" unicode="z" horiz-adv-x="487" 
d="M492 516l-13 -60l-299 -304l-84 -84q50 2 110 2h205l-15 -70h-417l13 60l298 304q21 21 49.5 49t35.5 35q-48 -2 -108 -2h-183l15 70h393z" />
    <glyph glyph-name="braceleft" unicode="{" horiz-adv-x="345" 
d="M223 -196h-57q-145 0 -116 140l53 251q6 31 -9 46.5t-59 16.5l15 70q83 1 95 63l54 252q30 139 165 139h67l-15 -70h-57q-36 0 -54.5 -19t-27.5 -58l-54 -256q-9 -42 -32 -62.5t-65 -22.5v-2q41 -2 55 -22.5t5 -62.5l-56 -263q-15 -70 54 -70h54z" />
    <glyph glyph-name="bar" unicode="|" horiz-adv-x="202" 
d="M157 -196h-72v993h72v-993z" />
    <glyph glyph-name="braceright" unicode="}" horiz-adv-x="345" 
d="M-4 -196h-67l15 70h57q36 0 54.5 19t27.5 58l54 256q9 42 32 62.5t65 22.5v2q-41 2 -55 22.5t-5 62.5l56 263q15 70 -54 70h-54l15 70h57q145 0 116 -140l-53 -251q-6 -31 9 -46.5t59 -16.5l-15 -70q-83 -1 -95 -63l-54 -252q-30 -139 -165 -139z" />
    <glyph glyph-name="asciitilde" unicode="~" horiz-adv-x="529" 
d="M130 292h-70q5 66 38.5 103t89.5 37q38 0 112 -39q58 -31 81 -31q47 0 58 65h70q-5 -66 -38.5 -103t-89.5 -37q-41 0 -108 38q-56 32 -85 32q-49 0 -58 -65z" />
    <glyph glyph-name="uni00A0" unicode="&#xa0;" horiz-adv-x="190" 
 />
    <glyph glyph-name="exclamdown" unicode="&#xa1;" horiz-adv-x="191" 
d="M193 486h-101l22 100h101zM59 -126h-84l42 196l88 330h52l-56 -330z" />
    <glyph glyph-name="cent" unicode="&#xa2;" horiz-adv-x="521" 
d="M512 341h-84q-3 88 -79 110l-82 -389q95 14 130 115h83q-28 -85 -87 -133.5t-142 -54.5l-22 -105h-70l23 108q-87 18 -126.5 95.5t-15.5 195.5q22 101 90 169t166 75l21 101h70l-22 -104q72 -11 110.5 -59.5t36.5 -123.5zM121 266q-17 -83 4 -134t73 -66l82 388
q-58 -10 -100 -58.5t-59 -129.5z" />
    <glyph glyph-name="sterling" unicode="&#xa3;" horiz-adv-x="549" 
d="M359 728q62 0 107.5 -19.5t69 -52.5t32.5 -71.5t3 -79.5h-87q7 68 -27 107.5t-110 39.5q-57 0 -94.5 -28.5t-48.5 -76.5q-12 -48 8 -132q5 -20 14 -65h222l-14 -69h-206q-1 -19 -6 -40q-21 -95 -115 -165h373l-16 -76h-482l16 76q121 71 143 166q5 21 6 39h-117l14 69h96
q0 1 -1 4.5t-2.5 8t-1.5 5.5q-32 102 -15 185q18 82 79.5 128.5t159.5 46.5z" />
    <glyph glyph-name="currency" unicode="&#xa4;" horiz-adv-x="584" 
d="M569 573l-78 -78q48 -58 48 -139q0 -80 -48 -139l78 -78l-52 -52l-80 80q-56 -34 -122 -34q-70 0 -125 37l-83 -83l-52 52l81 81q-45 61 -45 136t45 136l-81 81l52 52l83 -83q55 37 125 37q66 0 122 -34l80 80zM215 456q-40 -40 -40 -100t40 -100q39 -40 100 -40t101 40
q39 40 39 100t-39 100q-40 40 -101 40t-100 -40z" />
    <glyph glyph-name="yen" unicode="&#xa5;" horiz-adv-x="658" 
d="M639 712h100l-303 -357h133l-15 -69h-177l-16 -75h177l-15 -68h-176l-31 -143h-84l31 143h-174l15 68h173l16 75h-173l15 69h129l-153 357h91l69 -167q16 -40 73 -188q96 117 156 189z" />
    <glyph glyph-name="brokenbar" unicode="&#xa6;" horiz-adv-x="202" 
d="M157 398h-72v399h72v-399zM157 -204h-72v399h72v-399z" />
    <glyph glyph-name="section" unicode="&#xa7;" horiz-adv-x="565" 
d="M532 557h-81q11 102 -99 102q-97 0 -110 -67q-11 -49 32 -86q14 -13 46 -34l75 -51q84 -58 113.5 -107t15.5 -114q-22 -102 -157 -148q51 -54 35 -130q-13 -59 -65 -94.5t-132 -35.5q-97 0 -143 45t-30 126h81q-17 -102 99 -102q98 0 111 67q6 25 -5 48t-28 38
q-14 13 -46 34l-75 52q-81 56 -111.5 105t-16.5 116q19 100 158 148q-52 56 -35 134q12 58 63 91.5t133 33.5q91 0 137 -45t35 -126zM360 347l-76 53l-36 26q-52 -9 -86.5 -39t-41.5 -65q-9 -43 11 -77.5t73 -71.5l77 -53q6 -4 14 -9.5t13 -9t8 -5.5q53 11 88 41t42 66
q9 42 -10 73.5t-76 70.5z" />
    <glyph glyph-name="dieresis" unicode="&#xa8;" horiz-adv-x="400" 
d="M227 594h-85l21 98h85zM401 594h-85l21 98h85z" />
    <glyph glyph-name="copyright" unicode="&#xa9;" horiz-adv-x="819" 
d="M697 92q-107 -108 -268 -108t-267 108q-107 107 -107 264q0 156 107 265q106 108 267 108t268 -108q107 -109 107 -265q0 -157 -107 -264zM429 47q133 0 220 89q87 88 87 220t-87 221t-220 89q-132 0 -219 -89t-87 -221t87 -220q87 -89 219 -89zM433 131q-90 0 -144 62
q-55 61 -55 163q0 103 54 164t145 61q77 0 126.5 -42.5t59.5 -115.5h-73q-8 45 -38.5 70t-74.5 25q-59 0 -92.5 -43t-33.5 -119t33.5 -118.5t92.5 -42.5q44 0 75 25t38 71h73q-11 -73 -61 -116.5t-125 -43.5z" />
    <glyph glyph-name="ordfeminine" unicode="&#xaa;" horiz-adv-x="470" 
d="M473 574l-45 -212q-8 -39 22 -39h20l-13 -61q-17 -3 -33 -3q-39 0 -58.5 17.5t-17.5 47.5q-58 -72 -155 -72q-76 0 -114 40.5t-22 111.5q23 105 192 120l68 6q72 6 82 60q7 34 -13.5 51t-73.5 17q-55 0 -82.5 -19.5t-40.5 -67.5h-79q19 75 69 112.5t141 37.5
q92 0 130 -37.5t23 -109.5zM209 314q56 0 98.5 30.5t57.5 85.5l13 61q-21 -15 -63 -19l-65 -7q-102 -10 -115 -73q-8 -36 12 -57t62 -21z" />
    <glyph glyph-name="guillemotleft" unicode="&#xab;" horiz-adv-x="505" 
d="M75 304l199 139l-19 -97l-134 -93l94 -92l-19 -89l-141 139zM280 304l199 139l-19 -97l-134 -93l94 -92l-19 -89l-141 139z" />
    <glyph glyph-name="logicalnot" unicode="&#xac;" horiz-adv-x="529" 
d="M60 350v72h449v-257h-78v185h-371z" />
    <glyph glyph-name="uni00AD" unicode="&#xad;" horiz-adv-x="369" 
d="M326 246h-289l16 72h289z" />
    <glyph glyph-name="registered" unicode="&#xae;" horiz-adv-x="569" 
d="M161 659q71 69 174 69t174 -69q70 -69 70 -168t-70 -168q-71 -69 -174 -69t-174 69t-71 168t71 168zM335 301q83 0 138 55q56 56 56 135q0 80 -56 136q-55 55 -138 55q-84 0 -139 -55q-56 -56 -56 -136q0 -79 56 -135q55 -55 139 -55zM430 443l3 -37q1 -22 12 -39h-45
q-9 12 -10 39l-2 26q-2 21 -9.5 29t-25.5 8h-69v-102h-44v254h108q42 0 65.5 -18.5t23.5 -52.5q0 -44 -37 -60q27 -10 30 -47zM284 509h68q40 0 40 36t-44 36h-64v-72z" />
    <glyph glyph-name="overscore" unicode="&#xaf;" horiz-adv-x="400" 
d="M417 594h-291l15 67h291z" />
    <glyph glyph-name="degree" unicode="&#xb0;" horiz-adv-x="336" 
d="M309 511q-37 -36 -91 -36q-53 0 -91 36q-37 36 -37 87t37 87q38 35 91 35t91 -35q37 -36 37 -87t-37 -87zM218 535q27 0 45 18t18 45t-18 44.5t-45 17.5t-45 -17.5t-18 -44.5t18.5 -45t44.5 -18z" />
    <glyph glyph-name="plusminus" unicode="&#xb1;" horiz-adv-x="529" 
d="M303 577v-172h186v-72h-186v-171h-78v171h-185v72h185v172h78zM489 0h-449v72h449v-72z" />
    <glyph glyph-name="two.sups" unicode="&#xb2;" horiz-adv-x="384" 
d="M403 528h-307l6 27q13 61 53 104t116 73l31 12q80 32 89 77q6 33 -11.5 50t-56.5 17q-81 0 -92 -74h-69q10 63 52 99t115 36t108 -37.5t23 -96.5q-17 -80 -142 -128l-31 -12q-46 -18 -69 -37.5t-32 -48.5h230z" />
    <glyph glyph-name="three.sups" unicode="&#xb3;" horiz-adv-x="399" 
d="M264 520q-73 0 -114 39.5t-32 102.5h66q-4 -38 18 -61.5t66 -23.5q81 0 95 62q18 81 -74 81h-26l11 50h28q38 0 62.5 14.5t30.5 38.5q8 32 -11 50.5t-57 18.5q-37 0 -58.5 -15t-30.5 -50h-69q26 122 160 122q71 0 108 -35t24 -96q-5 -24 -26.5 -46t-50.5 -30
q64 -28 47 -109q-12 -50 -56 -81.5t-111 -31.5z" />
    <glyph glyph-name="acute" unicode="&#xb4;" horiz-adv-x="400" 
d="M273 594h-67l88 144h106z" />
    <glyph glyph-name="uni00B5" unicode="&#xb5;" horiz-adv-x="649" 
d="M455 224v292h80v-516h-76v77q-59 -89 -162 -89q-59 0 -102 36v-220h-80v712h80v-341q0 -115 118 -115q55 0 99 42q43 42 43 122z" />
    <glyph glyph-name="paragraph" unicode="&#xb6;" horiz-adv-x="529" 
d="M251 0h-74l77 363q-97 0 -145.5 51t-30.5 135q18 86 83 124.5t185 38.5h194l-152 -712h-74l136 636h-63z" />
    <glyph glyph-name="middot" unicode="&#xb7;" horiz-adv-x="191" 
d="M156 306h-101l22 100h101z" />
    <glyph glyph-name="cedilla" unicode="&#xb8;" horiz-adv-x="400" 
d="M143 -43h2q41 0 63.5 -27t14.5 -65q-20 -83 -148 -83q-39 0 -67 6l10 46q28 -4 62 -4q59 0 67 43q3 19 -9 31.5t-39 12.5q-19 0 -28 -1l8 38l51 51h64z" />
    <glyph glyph-name="one.sups" unicode="&#xb9;" horiz-adv-x="230" 
d="M229 528h-77l63 295h-100l11 54q49 0 76.5 13.5t50.5 50.5h64z" />
    <glyph glyph-name="ordmasculine" unicode="&#xba;" horiz-adv-x="519" 
d="M272 252q-99 0 -151 70q-53 72 -28 186q21 97 87.5 155t164.5 58q99 0 152 -68q53 -67 27 -183q-21 -101 -87 -159.5t-165 -58.5zM280 320q60 0 103.5 42t59.5 115q18 82 -11.5 129t-94.5 47q-62 0 -105.5 -41t-58.5 -112q-18 -83 12 -131.5t95 -48.5z" />
    <glyph glyph-name="guillemotright" unicode="&#xbb;" horiz-adv-x="505" 
d="M85 354l19 89l141 -139l-20 -93l-199 -139l19 97l134 93zM290 354l19 89l141 -139l-20 -93l-199 -139l19 97l134 93z" />
    <glyph glyph-name="onequarter" unicode="&#xbc;" horiz-adv-x="733" 
d="M59 0l532 712h79l-532 -712h-79zM192 299h-77l63 295h-100l11 54q49 0 76.5 13.5t50.5 50.5h64zM642 163h60l-14 -63h-60l-21 -100h-76l21 100h-208l16 73l258 240h77zM604 329l-179 -166h144z" />
    <glyph glyph-name="onehalf" unicode="&#xbd;" horiz-adv-x="763" 
d="M138 0h-79l532 712h79zM192 299h-77l63 295h-100l11 54q49 0 76.5 13.5t50.5 50.5h64zM695 0h-307l6 27q13 61 53 104t116 73l31 12q80 32 89 77q6 33 -11.5 50t-56.5 17q-81 0 -92 -74h-69q10 63 52 99t115 36t108 -37.5t23 -96.5q-17 -80 -142 -128l-31 -12
q-46 -18 -69 -37.5t-32 -48.5h230z" />
    <glyph glyph-name="threequarters" unicode="&#xbe;" horiz-adv-x="828" 
d="M362 404q-12 -50 -56 -81.5t-111 -31.5q-73 0 -114 39.5t-32 102.5h66q-4 -38 18 -61.5t66 -23.5q81 0 95 62q18 81 -74 81h-26l11 50h28q38 0 62.5 14.5t30.5 38.5q8 32 -11 50.5t-57 18.5q-37 0 -58.5 -15t-30.5 -50h-69q26 122 160 122q71 0 108 -35t24 -96
q-5 -24 -26.5 -46t-50.5 -30q64 -28 47 -109zM157 0l532 712h79l-532 -712h-79zM737 163h60l-14 -63h-60l-21 -100h-76l21 100h-208l16 73l258 240h77zM699 329l-179 -166h144z" />
    <glyph glyph-name="questiondown" unicode="&#xbf;" horiz-adv-x="507" 
d="M353 486h-101l22 100h101zM175 -142q-108 0 -159.5 52t-30.5 151q16 76 129 156q68 51 78 61q16 16 27 33q18 28 31 89h79q-16 -73 -43 -119q-32 -51 -102 -102q-63 -45 -89 -77q-21 -27 -26 -50q-13 -57 15 -87.5t96 -30.5q73 0 117.5 36.5t67.5 122.5h82
q-49 -235 -272 -235z" />
    <glyph glyph-name="Agrave" unicode="&#xc0;" horiz-adv-x="696" 
d="M415 899l57 -144h-66l-97 144h106zM623 0h-86l-39 207h-324l-126 -207h-91l435 712h94zM225 291l-5 -8h264l-2 9q-32 175 -59 329q-67 -114 -198 -330z" />
    <glyph glyph-name="Aacute" unicode="&#xc1;" horiz-adv-x="696" 
d="M510 899h112l-147 -144h-77zM623 0h-86l-39 207h-324l-126 -207h-91l435 712h94zM225 291l-5 -8h264l-2 9q-32 175 -59 329q-67 -114 -198 -330z" />
    <glyph glyph-name="Acircumflex" unicode="&#xc2;" horiz-adv-x="696" 
d="M545 755l-73 97l-115 -97h-83l142 144h120l86 -144h-77zM623 0h-86l-39 207h-324l-126 -207h-91l435 712h94zM225 291l-5 -8h264l-2 9q-32 175 -59 329q-67 -114 -198 -330z" />
    <glyph glyph-name="Atilde" unicode="&#xc3;" horiz-adv-x="696" 
d="M389 805q-30 0 -41 -50h-68q14 63 42 93t73 30q31 0 78 -27q38 -23 60 -23q30 0 41 50h68q-14 -63 -42 -93t-73 -30q-28 0 -83 29q-41 21 -55 21zM-43 0l435 712h94l137 -712h-86l-39 207h-324l-126 -207h-91zM225 291l-5 -8h264l-2 9q-32 175 -59 329
q-67 -114 -198 -330z" />
    <glyph glyph-name="Adieresis" unicode="&#xc4;" horiz-adv-x="696" 
d="M339 853h85l-21 -98h-85zM513 853h85l-21 -98h-85zM623 0h-86l-39 207h-324l-126 -207h-91l435 712h94zM225 291l-5 -8h264l-2 9q-32 175 -59 329q-67 -114 -198 -330z" />
    <glyph glyph-name="Aring" unicode="&#xc5;" horiz-adv-x="696" 
d="M623 0h-86l-39 207h-324l-126 -207h-91l413 676q-53 35 -53 100q0 52 36.5 87t90.5 35t90.5 -35t36.5 -87q0 -38 -21 -67.5t-55 -44.5zM490 822q-19 18 -46 18t-46 -18q-19 -19 -19 -46t19 -45q19 -19 46 -19t46 19q19 18 19 45t-19 46zM225 291l-5 -8h264l-2 9
q-32 175 -59 329q-67 -114 -198 -330z" />
    <glyph glyph-name="AE" unicode="&#xc6;" horiz-adv-x="1032" 
d="M1104 712l-16 -76h-381l-48 -227h341l-16 -76h-341l-55 -257h377l-16 -76h-461l44 207h-318l-155 -207h-98l536 712h607zM534 636l-264 -353h278l75 353h-89z" />
    <glyph glyph-name="Ccedilla" unicode="&#xc7;" horiz-adv-x="701" 
d="M321 61q91 0 162.5 51t102.5 147h85q-37 -126 -129 -197t-204 -77l-46 -44h2q41 0 63.5 -27t14.5 -65q-20 -83 -148 -83q-38 0 -67 6l10 46q28 -4 62 -4q59 0 67 43q3 19 -9 31.5t-39 12.5q-19 0 -28 -1l8 38l48 48q-133 13 -193 117q-60 103 -23 278q31 152 143 250
q109 97 250 97q110 0 183 -61q71 -61 76 -184h-86q-10 168 -180 168q-109 0 -191 -76t-109 -203q-32 -147 15.5 -229t159.5 -82z" />
    <glyph glyph-name="Egrave" unicode="&#xc8;" horiz-adv-x="585" 
d="M381 899l57 -144h-66l-97 144h106zM657 712l-16 -76h-411l-49 -227h371l-16 -76h-371l-55 -257h407l-16 -76h-491l152 712h495z" />
    <glyph glyph-name="Eacute" unicode="&#xc9;" horiz-adv-x="585" 
d="M476 899h112l-147 -144h-77zM657 712l-16 -76h-411l-49 -227h371l-16 -76h-371l-55 -257h407l-16 -76h-491l152 712h495z" />
    <glyph glyph-name="Ecircumflex" unicode="&#xca;" horiz-adv-x="585" 
d="M511 755l-73 97l-115 -97h-83l142 144h120l86 -144h-77zM657 712l-16 -76h-411l-49 -227h371l-16 -76h-371l-55 -257h407l-16 -76h-491l152 712h495z" />
    <glyph glyph-name="Edieresis" unicode="&#xcb;" horiz-adv-x="585" 
d="M305 853h85l-21 -98h-85zM479 853h85l-21 -98h-85zM657 712l-16 -76h-411l-49 -227h371l-16 -76h-371l-55 -257h407l-16 -76h-491l152 712h495z" />
    <glyph glyph-name="Igrave" unicode="&#xcc;" horiz-adv-x="214" 
d="M238 755h-63l-60 144h96zM94 0h-84l152 712h84z" />
    <glyph glyph-name="Iacute" unicode="&#xcd;" horiz-adv-x="214" 
d="M237 755h-65l86 144h98zM94 0h-84l152 712h84z" />
    <glyph glyph-name="Icircumflex" unicode="&#xce;" horiz-adv-x="214" 
d="M188 899h114l63 -144h-75l-54 96l-94 -96h-79zM94 0h-84l152 712h84z" />
    <glyph glyph-name="Idieresis" unicode="&#xcf;" horiz-adv-x="214" 
d="M181 755h-85l21 98h85zM330 755h-85l21 98h85zM94 0h-84l152 712h84z" />
    <glyph glyph-name="Eth" unicode="&#xd0;" horiz-adv-x="708" 
d="M181 712h233q161 0 236 -107t38 -279q-35 -161 -139.5 -243.5t-268.5 -82.5h-250l71 334h-80l15 65h79zM602 343q27 130 -22 212q-50 81 -175 81h-156l-50 -237h202l-15 -65h-201l-55 -258h156q259 0 316 267z" />
    <glyph glyph-name="Ntilde" unicode="&#xd1;" horiz-adv-x="696" 
d="M375 805q-30 0 -41 -50h-68q14 63 42 93t73 30q31 0 78 -27q38 -23 60 -23q30 0 41 50h68q-14 -63 -42 -93t-73 -30q-28 0 -83 29q-41 21 -55 21zM573 472l51 240h83l-152 -712h-99l-158 367q-58 134 -99 247q-37 -192 -76 -374l-51 -240h-83l152 712h99l158 -367
q63 -147 99 -248q34 177 76 375z" />
    <glyph glyph-name="Ograve" unicode="&#xd2;" horiz-adv-x="752" 
d="M510 771h-66l-97 144h106zM328 -16q-156 0 -231 107q-75 106 -37 286q31 150 145 252q113 99 261 99q155 0 230 -105t39 -280q-33 -158 -145 -258q-113 -101 -262 -101zM334 61q116 0 202 79q86 80 113 209q29 140 -22 221t-168 81q-113 0 -199 -78t-114 -207
q-30 -141 20.5 -223t167.5 -82z" />
    <glyph glyph-name="Oacute" unicode="&#xd3;" horiz-adv-x="752" 
d="M513 771h-77l112 144h112zM328 -16q-156 0 -231 107q-75 106 -37 286q31 150 145 252q113 99 261 99q155 0 230 -105t39 -280q-33 -158 -145 -258q-113 -101 -262 -101zM334 61q116 0 202 79q86 80 113 209q29 140 -22 221t-168 81q-113 0 -199 -78t-114 -207
q-30 -141 20.5 -223t167.5 -82z" />
    <glyph glyph-name="Ocircumflex" unicode="&#xd4;" horiz-adv-x="752" 
d="M583 771l-73 97l-115 -97h-83l142 144h120l86 -144h-77zM466 728q155 0 230 -105t39 -280q-33 -158 -145 -258q-113 -101 -262 -101q-156 0 -231 107q-75 106 -37 286q31 150 145 252q113 99 261 99zM649 349q29 140 -22 221t-168 81q-113 0 -199 -78t-114 -207
q-30 -141 20.5 -223t167.5 -82q116 0 202 79q86 80 113 209z" />
    <glyph glyph-name="Otilde" unicode="&#xd5;" horiz-adv-x="752" 
d="M386 771h-68q14 63 42 93t73 30q31 0 78 -27q38 -23 60 -23q30 0 41 50h68q-14 -63 -42 -93t-73 -30q-28 0 -83 29q-41 21 -55 21q-30 0 -41 -50zM328 -16q-156 0 -231 107q-75 106 -37 286q31 150 145 252q113 99 261 99q155 0 230 -105t39 -280q-33 -158 -145 -258
q-113 -101 -262 -101zM334 61q116 0 202 79q86 80 113 209q29 140 -22 221t-168 81q-113 0 -199 -78t-114 -207q-30 -141 20.5 -223t167.5 -82z" />
    <glyph glyph-name="Odieresis" unicode="&#xd6;" horiz-adv-x="752" 
d="M441 771h-85l21 98h85zM615 771h-85l21 98h85zM328 -16q-156 0 -231 107q-75 106 -37 286q31 150 145 252q113 99 261 99q155 0 230 -105t39 -280q-33 -158 -145 -258q-113 -101 -262 -101zM334 61q116 0 202 79q86 80 113 209q29 140 -22 221t-168 81q-113 0 -199 -78
t-114 -207q-30 -141 20.5 -223t167.5 -82z" />
    <glyph glyph-name="multiply" unicode="&#xd7;" horiz-adv-x="529" 
d="M435 557l51 -51l-150 -150l150 -150l-51 -51l-150 150l-151 -150l-51 51l150 150l-150 150l51 51l151 -150z" />
    <glyph glyph-name="Oslash" unicode="&#xd8;" horiz-adv-x="752" 
d="M704 755l53 -47l-67 -76q84 -108 45 -289q-33 -158 -145 -258q-113 -101 -262 -101q-100 0 -171 47l-67 -75l-53 47l68 77q-85 110 -45 297q31 150 145 252q113 99 261 99q102 0 172 -48zM146 366q-28 -136 18 -219l418 470q-49 34 -123 34q-113 0 -199 -78t-114 -207z
M649 349q28 133 -19 215l-417 -470q49 -33 121 -33q116 0 202 79q86 80 113 209z" />
    <glyph glyph-name="Ugrave" unicode="&#xd9;" horiz-adv-x="670" 
d="M455 755h-66l-97 144h106zM297 -15q-143 0 -206 84t-28 240l88 403h84l-89 -418q-50 -233 157 -233q186 0 230 203l94 448h84l-97 -465q-55 -262 -317 -262z" />
    <glyph glyph-name="Uacute" unicode="&#xda;" horiz-adv-x="670" 
d="M458 755h-77l112 144h112zM297 -15q-143 0 -206 84t-28 240l88 403h84l-89 -418q-50 -233 157 -233q186 0 230 203l94 448h84l-97 -465q-55 -262 -317 -262z" />
    <glyph glyph-name="Ucircumflex" unicode="&#xdb;" horiz-adv-x="670" 
d="M528 755l-73 97l-115 -97h-83l142 144h120l86 -144h-77zM533 264l94 448h84l-97 -465q-55 -262 -317 -262q-143 0 -206 84t-28 240l88 403h84l-89 -418q-50 -233 157 -233q186 0 230 203z" />
    <glyph glyph-name="Udieresis" unicode="&#xdc;" horiz-adv-x="670" 
d="M386 755h-85l21 98h85zM560 755h-85l21 98h85zM297 -15q-143 0 -206 84t-28 240l88 403h84l-89 -418q-50 -233 157 -233q186 0 230 203l94 448h84l-97 -465q-55 -262 -317 -262z" />
    <glyph glyph-name="Yacute" unicode="&#xdd;" horiz-adv-x="658" 
d="M497 899h112l-147 -144h-77zM500 546l139 166h100l-362 -426l-61 -286h-84l61 286l-182 426h91l69 -167q16 -40 73 -188q96 117 156 189z" />
    <glyph glyph-name="Thorn" unicode="&#xde;" horiz-adv-x="631" 
d="M217 575h192q114 0 171 -64q57 -65 35 -176q-18 -91 -89 -144.5t-180 -53.5h-222l-29 -137h-84l151 712h84zM530 346q16 75 -18.5 114t-113.5 39h-197l-61 -286h212q72 0 118.5 35t59.5 98z" />
    <glyph glyph-name="germandbls" unicode="&#xdf;" horiz-adv-x="548" 
d="M530 530q-22 -101 -134 -147q63 -21 90 -72.5t11 -126.5q-18 -88 -86 -137.5t-177 -49.5q-43 0 -76 3l15 70q27 -3 70 -3q145 0 172 127q15 70 -20 110t-116 40h-31l16 73h34q57 0 100 32t53 83q11 55 -17.5 90.5t-87.5 35.5q-121 0 -152 -148l-109 -510h-80l110 517
q21 100 83.5 155.5t157.5 55.5q96 0 144 -57t30 -141z" />
    <glyph glyph-name="agrave" unicode="&#xe0;" horiz-adv-x="521" 
d="M328 738l27 -144h-66l-67 144h106zM478 348l-51 -240q-9 -43 23 -43h25l-14 -65q-19 -3 -44 -3q-35 0 -54.5 18.5t-18.5 50.5q-63 -78 -171 -78q-88 0 -132 48.5t-26 129.5q25 112 213 132l82 9q83 9 95 60q10 44 -15.5 68t-89.5 24t-97 -23t-48 -79h-78q24 91 77 131
t153 40q209 0 171 -180zM187 56q63 0 112.5 34.5t66.5 97.5l18 81q-25 -16 -74 -22l-77 -10q-124 -16 -138 -86q-9 -45 14.5 -70t77.5 -25z" />
    <glyph glyph-name="aacute" unicode="&#xe1;" horiz-adv-x="521" 
d="M377 738h106l-127 -144h-67zM478 348l-51 -240q-9 -43 23 -43h25l-14 -65q-19 -3 -44 -3q-35 0 -54.5 18.5t-18.5 50.5q-63 -78 -171 -78q-88 0 -132 48.5t-26 129.5q25 112 213 132l82 9q83 9 95 60q10 44 -15.5 68t-89.5 24t-97 -23t-48 -79h-78q24 91 77 131t153 40
q209 0 171 -180zM187 56q63 0 112.5 34.5t66.5 97.5l18 81q-25 -16 -74 -22l-77 -10q-124 -16 -138 -86q-9 -45 14.5 -70t77.5 -25z" />
    <glyph glyph-name="acircumflex" unicode="&#xe2;" horiz-adv-x="521" 
d="M419 594l-73 97l-115 -97h-83l142 144h120l86 -144h-77zM307 528q209 0 171 -180l-51 -240q-9 -43 23 -43h25l-14 -65q-19 -3 -44 -3q-35 0 -54.5 18.5t-18.5 50.5q-63 -78 -171 -78q-88 0 -132 48.5t-26 129.5q25 112 213 132l82 9q83 9 95 60q10 44 -15.5 68t-89.5 24
t-97 -23t-48 -79h-78q24 91 77 131t153 40zM187 56q63 0 112.5 34.5t66.5 97.5l18 81q-25 -16 -74 -22l-77 -10q-124 -16 -138 -86q-9 -45 14.5 -70t77.5 -25z" />
    <glyph glyph-name="atilde" unicode="&#xe3;" horiz-adv-x="521" 
d="M265 644q-30 0 -41 -50h-68q14 63 42 93t73 30q31 0 78 -27q38 -23 60 -23q30 0 41 50h68q-14 -63 -42 -93t-73 -30q-28 0 -83 29q-41 21 -55 21zM307 528q209 0 171 -180l-51 -240q-9 -43 23 -43h25l-14 -65q-19 -3 -44 -3q-35 0 -54.5 18.5t-18.5 50.5
q-63 -78 -171 -78q-88 0 -132 48.5t-26 129.5q25 112 213 132l82 9q83 9 95 60q10 44 -15.5 68t-89.5 24t-97 -23t-48 -79h-78q24 91 77 131t153 40zM187 56q63 0 112.5 34.5t66.5 97.5l18 81q-25 -16 -74 -22l-77 -10q-124 -16 -138 -86q-9 -45 14.5 -70t77.5 -25z" />
    <glyph glyph-name="adieresis" unicode="&#xe4;" horiz-adv-x="521" 
d="M215 692h85l-21 -98h-85zM389 692h85l-21 -98h-85zM478 348l-51 -240q-9 -43 23 -43h25l-14 -65q-19 -3 -44 -3q-35 0 -54.5 18.5t-18.5 50.5q-63 -78 -171 -78q-88 0 -132 48.5t-26 129.5q25 112 213 132l82 9q83 9 95 60q10 44 -15.5 68t-89.5 24t-97 -23t-48 -79h-78
q24 91 77 131t153 40q209 0 171 -180zM187 56q63 0 112.5 34.5t66.5 97.5l18 81q-25 -16 -74 -22l-77 -10q-124 -16 -138 -86q-9 -45 14.5 -70t77.5 -25z" />
    <glyph glyph-name="aring" unicode="&#xe5;" horiz-adv-x="521" 
d="M439 624q-38 -35 -91 -35t-90 35q-37 34 -37 87t37 87q37 35 90 35t91 -35q36 -34 36 -87t-36 -87zM394 757q-19 18 -46 18t-46 -18q-19 -19 -19 -46t19 -45q19 -19 46 -19t46 19q19 18 19 45t-19 46zM478 348l-51 -240q-9 -43 23 -43h25l-14 -65q-19 -3 -44 -3
q-35 0 -54.5 18.5t-18.5 50.5q-63 -78 -171 -78q-88 0 -132 48.5t-26 129.5q25 112 213 132l82 9q83 9 95 60q10 44 -15.5 68t-89.5 24t-97 -23t-48 -79h-78q24 91 77 131t153 40q209 0 171 -180zM187 56q63 0 112.5 34.5t66.5 97.5l18 81q-25 -16 -74 -22l-77 -10
q-124 -16 -138 -86q-9 -45 14.5 -70t77.5 -25z" />
    <glyph glyph-name="ae" unicode="&#xe6;" horiz-adv-x="862" 
d="M646 528q110 0 159 -78q50 -81 22 -192l-8 -28h-369q-10 -83 21 -126t95 -43q106 0 150 96h80q-64 -169 -236 -169q-61 0 -106 28t-67 80q-85 -108 -213 -108q-89 0 -133 45.5t-27 127.5q24 117 220 138l75 8q83 9 96 69v2q8 42 -16 61.5t-87 19.5q-68 0 -102 -23
t-47 -79h-78q39 171 236 171q126 0 164 -71q74 71 171 71zM637 455q-60 0 -105.5 -40t-67.5 -113h289q9 67 -22.5 110t-93.5 43zM183 56q63 0 116 37q54 38 70 109q1 22 7 60q-28 -15 -67 -19l-77 -9q-66 -8 -97.5 -28.5t-40.5 -57.5q-10 -44 13 -68t76 -24z" />
    <glyph glyph-name="ccedilla" unicode="&#xe7;" horiz-adv-x="521" 
d="M309 456q-68 0 -119 -49.5t-69 -140.5q-20 -99 13 -152.5t105 -53.5q117 0 158 117h83q-26 -81 -82 -129.5t-135 -57.5l-48 -45h2q41 0 63.5 -27t14.5 -65q-20 -83 -148 -83q-39 0 -67 6l10 46q28 -4 62 -4q59 0 67 43q3 19 -9 31.5t-39 12.5q-19 0 -28 -1l8 38l48 48
q-92 10 -139 88q-47 77 -20 205q22 109 98 177q74 68 182 68q92 0 143.5 -50.5t48.5 -136.5h-84q-1 55 -33.5 85t-85.5 30z" />
    <glyph glyph-name="egrave" unicode="&#xe8;" horiz-adv-x="545" 
d="M338 738l27 -144h-66l-67 144h106zM320 528q114 0 166 -78t24 -192l-8 -28h-389q-11 -83 22 -126t101 -43q112 0 158 96h84q-69 -169 -249 -169q-108 0 -164 77q-55 76 -27 209q24 111 102 183q77 71 180 71zM311 455q-63 0 -111 -39.5t-72 -113.5h305q10 67 -23 110
t-99 43z" />
    <glyph glyph-name="eacute" unicode="&#xe9;" horiz-adv-x="545" 
d="M387 738h106l-127 -144h-67zM320 528q114 0 166 -78t24 -192l-8 -28h-389q-11 -83 22 -126t101 -43q112 0 158 96h84q-69 -169 -249 -169q-108 0 -164 77q-55 76 -27 209q24 111 102 183q77 71 180 71zM311 455q-63 0 -111 -39.5t-72 -113.5h305q10 67 -23 110t-99 43z
" />
    <glyph glyph-name="ecircumflex" unicode="&#xea;" horiz-adv-x="545" 
d="M429 594l-73 97l-115 -97h-83l142 144h120l86 -144h-77zM320 528q114 0 166 -78t24 -192l-8 -28h-389q-11 -83 22 -126t101 -43q112 0 158 96h84q-69 -169 -249 -169q-108 0 -164 77q-55 76 -27 209q24 111 102 183q77 71 180 71zM311 455q-63 0 -111 -39.5t-72 -113.5
h305q10 67 -23 110t-99 43z" />
    <glyph glyph-name="edieresis" unicode="&#xeb;" horiz-adv-x="545" 
d="M225 692h85l-21 -98h-85zM399 692h85l-21 -98h-85zM320 528q114 0 166 -78t24 -192l-8 -28h-389q-11 -83 22 -126t101 -43q112 0 158 96h84q-69 -169 -249 -169q-108 0 -164 77q-55 76 -27 209q24 111 102 183q77 71 180 71zM311 455q-63 0 -111 -39.5t-72 -113.5h305
q10 67 -23 110t-99 43z" />
    <glyph glyph-name="igrave" unicode="&#xec;" horiz-adv-x="199" 
d="M192 594h-63l-60 144h96zM85 0h-80l110 516h80z" />
    <glyph glyph-name="iacute" unicode="&#xed;" horiz-adv-x="199" 
d="M193 594h-63l58 144h96zM85 0h-80l110 516h80z" />
    <glyph glyph-name="icircumflex" unicode="&#xee;" horiz-adv-x="199" 
d="M146 738h114l63 -144h-75l-54 96l-94 -96h-79zM85 0h-80l110 516h80z" />
    <glyph glyph-name="idieresis" unicode="&#xef;" horiz-adv-x="199" 
d="M139 594h-85l21 98h85zM288 594h-85l21 98h85zM85 0h-80l110 516h80z" />
    <glyph glyph-name="eth" unicode="&#xf0;" horiz-adv-x="544" 
d="M400 650l151 45l-15 -67l-99 -29q37 -56 56 -110t23 -123q4 -67 -16 -150q-25 -106 -94 -167t-176 -61q-108 0 -165 73q-57 71 -28 205q21 97 95 159q73 61 174 61q73 0 123 -41q-22 62 -69 131l-170 -51l14 66l120 36l-62 85h92zM418 223q20 91 -14.5 141t-107.5 50
q-68 0 -115.5 -44t-63.5 -122q-18 -91 16 -139.5t108 -48.5q66 0 113 43.5t64 119.5z" />
    <glyph glyph-name="ntilde" unicode="&#xf1;" horiz-adv-x="540" 
d="M274 644q-30 0 -41 -50h-68q14 63 42 93t73 30q32 0 78 -27q38 -23 60 -23q30 0 41 50h68q-14 -63 -42 -93t-73 -30q-28 0 -83 29q-40 21 -55 21zM350 528q89 0 128 -54t16 -155l-69 -319h-80l68 324q29 132 -83 132q-65 0 -116.5 -43.5t-66.5 -120.5l-62 -292h-80
l110 516h76l-15 -69q74 81 174 81z" />
    <glyph glyph-name="ograve" unicode="&#xf2;" horiz-adv-x="570" 
d="M385 594h-66l-67 144h106zM242 -12q-121 0 -176.5 77t-26.5 211q23 111 105 181q82 71 184 71q121 0 176 -76.5t27 -210.5q-23 -111 -104 -182q-82 -71 -185 -71zM244 60q75 0 130.5 51.5t74.5 138.5q21 98 -12 152t-111 54q-74 0 -130 -53q-57 -53 -75 -135
q-21 -98 12.5 -153t110.5 -55z" />
    <glyph glyph-name="oacute" unicode="&#xf3;" horiz-adv-x="570" 
d="M386 594h-67l88 144h106zM242 -12q-121 0 -176.5 77t-26.5 211q23 111 105 181q82 71 184 71q121 0 176 -76.5t27 -210.5q-23 -111 -104 -182q-82 -71 -185 -71zM244 60q75 0 130.5 51.5t74.5 138.5q21 98 -12 152t-111 54q-74 0 -130 -53q-57 -53 -75 -135
q-21 -98 12.5 -153t110.5 -55z" />
    <glyph glyph-name="ocircumflex" unicode="&#xf4;" horiz-adv-x="570" 
d="M449 594l-73 97l-115 -97h-83l142 144h120l86 -144h-77zM328 528q121 0 176 -76.5t27 -210.5q-23 -111 -104 -182q-82 -71 -185 -71q-121 0 -176.5 77t-26.5 211q23 111 105 181q82 71 184 71zM449 250q21 98 -12 152t-111 54q-74 0 -130 -53q-57 -53 -75 -135
q-21 -98 12.5 -153t110.5 -55q75 0 130.5 51.5t74.5 138.5z" />
    <glyph glyph-name="otilde" unicode="&#xf5;" horiz-adv-x="570" 
d="M254 594h-68q14 63 42 93t73 30q31 0 78 -27q38 -23 60 -23q30 0 41 50h68q-14 -63 -42 -93t-73 -30q-28 0 -83 29q-40 21 -55 21q-30 0 -41 -50zM242 -12q-121 0 -176.5 77t-26.5 211q23 111 105 181q82 71 184 71q121 0 176 -76.5t27 -210.5q-23 -111 -104 -182
q-82 -71 -185 -71zM244 60q75 0 130.5 51.5t74.5 138.5q21 98 -12 152t-111 54q-74 0 -130 -53q-57 -53 -75 -135q-21 -98 12.5 -153t110.5 -55z" />
    <glyph glyph-name="odieresis" unicode="&#xf6;" horiz-adv-x="570" 
d="M309 594h-85l21 98h85zM483 594h-85l21 98h85zM242 -12q-121 0 -176.5 77t-26.5 211q23 111 105 181q82 71 184 71q121 0 176 -76.5t27 -210.5q-23 -111 -104 -182q-82 -71 -185 -71zM244 60q75 0 130.5 51.5t74.5 138.5q21 98 -12 152t-111 54q-74 0 -130 -53
q-57 -53 -75 -135q-21 -98 12.5 -153t110.5 -55z" />
    <glyph glyph-name="divide" unicode="&#xf7;" horiz-adv-x="529" 
d="M335 483h-81v94h81v-94zM509 320h-449v72h449v-72zM336 135h-81v94h81v-94z" />
    <glyph glyph-name="oslash" unicode="&#xf8;" horiz-adv-x="570" 
d="M500 557l50 -44l-50 -57q59 -77 31 -215q-23 -111 -104 -182q-82 -71 -185 -71q-72 0 -121 28l-50 -58l-50 44l49 57q-61 76 -31 217q23 111 105 181q82 71 184 71q72 0 122 -29zM121 268q-19 -85 7 -142l270 313q-29 17 -72 17q-74 0 -130 -53q-57 -53 -75 -135z
M449 250q18 88 -6 139l-270 -313q31 -16 71 -16q75 0 130.5 51.5t74.5 138.5z" />
    <glyph glyph-name="ugrave" unicode="&#xf9;" horiz-adv-x="540" 
d="M342 738l27 -144h-66l-67 144h106zM393 224l62 292h80l-110 -516h-76l15 69q-74 -81 -174 -81q-89 0 -128 54t-16 155l69 319h80l-68 -324q-29 -132 83 -132q65 0 116.5 43.5t66.5 120.5z" />
    <glyph glyph-name="uacute" unicode="&#xfa;" horiz-adv-x="540" 
d="M391 738h106l-127 -144h-67zM393 224l62 292h80l-110 -516h-76l15 69q-74 -81 -174 -81q-89 0 -128 54t-16 155l69 319h80l-68 -324q-29 -132 83 -132q65 0 116.5 43.5t66.5 120.5z" />
    <glyph glyph-name="ucircumflex" unicode="&#xfb;" horiz-adv-x="540" 
d="M433 594l-73 97l-115 -97h-83l142 144h120l86 -144h-77zM393 224l62 292h80l-110 -516h-76l15 69q-74 -81 -174 -81q-89 0 -128 54t-16 155l69 319h80l-68 -324q-29 -132 83 -132q65 0 116.5 43.5t66.5 120.5z" />
    <glyph glyph-name="udieresis" unicode="&#xfc;" horiz-adv-x="540" 
d="M229 692h85l-21 -98h-85zM403 692h85l-21 -98h-85zM393 224l62 292h80l-110 -516h-76l15 69q-74 -81 -174 -81q-89 0 -128 54t-16 155l69 319h80l-68 -324q-29 -132 83 -132q65 0 116.5 43.5t66.5 120.5z" />
    <glyph glyph-name="yacute" unicode="&#xfd;" horiz-adv-x="479" 
d="M355 738h106l-127 -144h-67zM321 302l119 214h89l-344 -594q-38 -66 -77 -92q-40 -26 -106 -26q-32 0 -57 3l14 67h47q68 0 106 65l27 45l-79 532h86l27 -215q17 -128 27 -223q58 112 121 224z" />
    <glyph glyph-name="thorn" unicode="&#xfe;" horiz-adv-x="583" 
d="M351 528q113 0 167 -78t27 -206q-24 -116 -100 -186t-184 -70q-113 0 -159 87l-58 -271h-80l194 908h80l-54 -250q72 66 167 66zM462 251q21 99 -12 152t-111 53q-80 0 -133.5 -49.5t-72.5 -140.5q-21 -98 14 -153t117 -55q74 0 127 52.5t71 140.5z" />
    <glyph glyph-name="ydieresis" unicode="&#xff;" horiz-adv-x="479" 
d="M193 692h85l-21 -98h-85zM367 692h85l-21 -98h-85zM321 302l119 214h89l-344 -594q-38 -66 -77 -92q-40 -26 -106 -26q-32 0 -57 3l14 67h47q68 0 106 65l27 45l-79 532h86l27 -215q17 -128 27 -223q58 112 121 224z" />
    <glyph glyph-name="Amacron" unicode="&#x100;" horiz-adv-x="696" 
d="M317 822h291l-15 -67h-291zM623 0h-86l-39 207h-324l-126 -207h-91l435 712h94zM225 291l-5 -8h264l-2 9q-32 175 -59 329q-67 -114 -198 -330z" />
    <glyph glyph-name="amacron" unicode="&#x101;" horiz-adv-x="521" 
d="M192 661h291l-15 -67h-291zM478 348l-51 -240q-9 -43 23 -43h25l-14 -65q-19 -3 -44 -3q-35 0 -54.5 18.5t-18.5 50.5q-63 -78 -171 -78q-88 0 -132 48.5t-26 129.5q25 112 213 132l82 9q83 9 95 60q10 44 -15.5 68t-89.5 24t-97 -23t-48 -79h-78q24 91 77 131t153 40
q209 0 171 -180zM187 56q63 0 112.5 34.5t66.5 97.5l18 81q-25 -16 -74 -22l-77 -10q-124 -16 -138 -86q-9 -45 14.5 -70t77.5 -25z" />
    <glyph glyph-name="Abreve" unicode="&#x102;" horiz-adv-x="696" 
d="M458 750q-70 0 -107 40.5t-27 108.5h69q-4 -40 16 -62t57 -22q73 0 97 84h69q-15 -73 -61 -111t-113 -38zM-43 0l435 712h94l137 -712h-86l-39 207h-324l-126 -207h-91zM225 291l-5 -8h264l-2 9q-32 175 -59 329q-67 -114 -198 -330z" />
    <glyph glyph-name="abreve" unicode="&#x103;" horiz-adv-x="521" 
d="M335 589q-70 0 -107 40.5t-27 108.5h69q-4 -40 16 -62t57 -22q73 0 97 84h69q-15 -73 -61 -111t-113 -38zM307 528q209 0 171 -180l-51 -240q-9 -43 23 -43h25l-14 -65q-19 -3 -44 -3q-35 0 -54.5 18.5t-18.5 50.5q-63 -78 -171 -78q-88 0 -132 48.5t-26 129.5
q25 112 213 132l82 9q83 9 95 60q10 44 -15.5 68t-89.5 24t-97 -23t-48 -79h-78q24 91 77 131t153 40zM187 56q63 0 112.5 34.5t66.5 97.5l18 81q-25 -16 -74 -22l-77 -10q-124 -16 -138 -86q-9 -45 14.5 -70t77.5 -25z" />
    <glyph glyph-name="Aogonek" unicode="&#x104;" horiz-adv-x="696" 
d="M498 -96q-5 -21 7.5 -33.5t33.5 -12.5q29 0 56 10l-14 -65q-30 -11 -65 -11q-47 0 -76.5 28t-20.5 71q7 34 39.5 63t82.5 46h-4l-39 207h-324l-126 -207h-91l435 712h94l137 -712q-114 -51 -125 -96zM225 291l-5 -8h264l-2 9q-32 175 -59 329q-67 -114 -198 -330z" />
    <glyph glyph-name="aogonek" unicode="&#x105;" horiz-adv-x="521" 
d="M478 348l-51 -240q-9 -43 23 -43h25l-14 -65q-114 -51 -125 -96q-5 -21 7.5 -33.5t33.5 -12.5q29 0 56 10l-14 -65q-30 -11 -65 -11q-47 0 -76.5 28t-20.5 71q13 69 127 112q-42 16 -40 63q-63 -78 -171 -78q-88 0 -132 48.5t-26 129.5q25 112 213 132l82 9q83 9 95 60
q10 44 -15.5 68t-89.5 24t-97 -23t-48 -79h-78q24 91 77 131t153 40q209 0 171 -180zM187 56q63 0 112.5 34.5t66.5 97.5l18 81q-25 -16 -74 -22l-77 -10q-124 -16 -138 -86q-9 -45 14.5 -70t77.5 -25z" />
    <glyph glyph-name="Cacute" unicode="&#x106;" horiz-adv-x="701" 
d="M500 771h-77l112 144h112zM315 -16q-153 0 -223 105q-73 104 -32 292q31 152 143 250q109 97 250 97q110 0 183 -61q71 -61 76 -184h-86q-10 168 -180 168q-109 0 -191 -76t-109 -203q-32 -147 15.5 -229t159.5 -82q91 0 162.5 51t102.5 147h85q-41 -133 -138 -204
q-98 -71 -218 -71z" />
    <glyph glyph-name="cacute" unicode="&#x107;" horiz-adv-x="521" 
d="M367 594h-67l88 144h106zM228 -12q-106 0 -161 79q-55 78 -27 216q22 109 98 177q74 68 182 68q92 0 143.5 -50.5t48.5 -136.5h-84q-1 55 -33.5 85t-85.5 30q-68 0 -119 -49.5t-69 -140.5q-20 -99 13 -152.5t105 -53.5q117 0 158 117h83q-30 -91 -95 -140t-157 -49z" />
    <glyph glyph-name="Ccircumflex" unicode="&#x108;" horiz-adv-x="701" 
d="M570 771l-73 97l-115 -97h-83l142 144h120l86 -144h-77zM321 61q91 0 162.5 51t102.5 147h85q-41 -133 -138 -204q-98 -71 -218 -71q-153 0 -223 105q-73 104 -32 292q31 152 143 250q109 97 250 97q110 0 183 -61q71 -61 76 -184h-86q-10 168 -180 168q-109 0 -191 -76
t-109 -203q-32 -147 15.5 -229t159.5 -82z" />
    <glyph glyph-name="ccircumflex" unicode="&#x109;" horiz-adv-x="521" 
d="M430 594l-73 97l-115 -97h-83l142 144h120l86 -144h-77zM309 456q-68 0 -119 -49.5t-69 -140.5q-20 -99 13 -152.5t105 -53.5q117 0 158 117h83q-30 -91 -95 -140t-157 -49q-106 0 -161 79q-55 78 -27 216q22 109 98 177q74 68 182 68q92 0 143.5 -50.5t48.5 -136.5h-84
q-1 55 -33.5 85t-85.5 30z" />
    <glyph glyph-name="Cdotaccent" unicode="&#x10a;" horiz-adv-x="701" 
d="M515 771h-85l20 98h85zM315 -16q-153 0 -223 105q-73 104 -32 292q31 152 143 250q109 97 250 97q110 0 183 -61q71 -61 76 -184h-86q-10 168 -180 168q-109 0 -191 -76t-109 -203q-32 -147 15.5 -229t159.5 -82q91 0 162.5 51t102.5 147h85q-41 -133 -138 -204
q-98 -71 -218 -71z" />
    <glyph glyph-name="cdotaccent" unicode="&#x10b;" horiz-adv-x="521" 
d="M377 594h-85l20 98h85zM228 -12q-106 0 -161 79q-55 78 -27 216q22 109 98 177q74 68 182 68q92 0 143.5 -50.5t48.5 -136.5h-84q-1 55 -33.5 85t-85.5 30q-68 0 -119 -49.5t-69 -140.5q-20 -99 13 -152.5t105 -53.5q117 0 158 117h83q-30 -91 -95 -140t-157 -49z" />
    <glyph glyph-name="Ccaron" unicode="&#x10c;" horiz-adv-x="701" 
d="M677 915l-142 -144h-120l-86 144h77l73 -97l115 97h83zM321 61q91 0 162.5 51t102.5 147h85q-41 -133 -138 -204q-98 -71 -218 -71q-153 0 -223 105q-73 104 -32 292q31 152 143 250q109 97 250 97q110 0 183 -61q71 -61 76 -184h-86q-10 168 -180 168q-109 0 -191 -76
t-109 -203q-32 -147 15.5 -229t159.5 -82z" />
    <glyph glyph-name="ccaron" unicode="&#x10d;" horiz-adv-x="521" 
d="M527 737l-142 -144h-120l-86 144h77l73 -97l115 97h83zM320 528q92 0 143.5 -50.5t48.5 -136.5h-84q-1 55 -33.5 85t-85.5 30q-68 0 -119 -49.5t-69 -140.5q-20 -99 13 -152.5t105 -53.5q117 0 158 117h83q-30 -91 -95 -140t-157 -49q-106 0 -161 79q-55 78 -27 216
q22 109 98 177q74 68 182 68z" />
    <glyph glyph-name="Dcaron" unicode="&#x10e;" horiz-adv-x="689" 
d="M609 899l-142 -144h-120l-86 144h77l73 -97l115 97h83zM162 712h233q161 0 236 -107t38 -279q-35 -161 -139.5 -243.5t-268.5 -82.5h-250zM583 343q27 130 -22 212q-50 81 -175 81h-156l-119 -560h156q259 0 316 267z" />
    <glyph glyph-name="dcaron" unicode="&#x10f;" horiz-adv-x="687" 
d="M481 441l58 271h80l-152 -712h-76l13 58q-74 -70 -172 -70q-113 0 -167 78t-27 206q24 116 100 186t184 70q112 0 159 -87zM635 546l74 166h84l-95 -166h-63zM244 60q80 0 133.5 49.5t72.5 140.5q21 98 -14 153t-117 55q-74 0 -127 -52.5t-71 -140.5q-21 -99 12 -152
t111 -53z" />
    <glyph glyph-name="Dcroat" unicode="&#x110;" horiz-adv-x="708" 
d="M181 712h233q161 0 236 -107t38 -279q-35 -161 -139.5 -243.5t-268.5 -82.5h-250l71 334h-80l15 65h79zM602 343q27 130 -22 212q-50 81 -175 81h-156l-50 -237h202l-15 -65h-201l-55 -258h156q259 0 316 267z" />
    <glyph glyph-name="dslash" unicode="&#x111;" horiz-adv-x="613" 
d="M605 647h99l-14 -65h-99l-124 -582h-76l13 58q-74 -70 -172 -70q-113 0 -167 78t-27 206q24 116 100 186t184 70q112 0 159 -87l30 141h-102l14 65h102l14 65h80zM244 60q80 0 133.5 49.5t72.5 140.5q21 98 -14 153t-117 55q-74 0 -127 -52.5t-71 -140.5q-21 -99 12 -152
t111 -53z" />
    <glyph glyph-name="Emacron" unicode="&#x112;" horiz-adv-x="585" 
d="M283 822h291l-15 -67h-291zM657 712l-16 -76h-411l-49 -227h371l-16 -76h-371l-55 -257h407l-16 -76h-491l152 712h495z" />
    <glyph glyph-name="emacron" unicode="&#x113;" horiz-adv-x="545" 
d="M202 661h291l-15 -67h-291zM320 528q114 0 166 -78t24 -192l-8 -28h-389q-11 -83 22 -126t101 -43q112 0 158 96h84q-69 -169 -249 -169q-108 0 -164 77q-55 76 -27 209q24 111 102 183q77 71 180 71zM311 455q-63 0 -111 -39.5t-72 -113.5h305q10 67 -23 110t-99 43z
" />
    <glyph glyph-name="Ebreve" unicode="&#x114;" horiz-adv-x="585" 
d="M424 750q-70 0 -107 40.5t-27 108.5h69q-4 -40 16 -62t57 -22q73 0 97 84h69q-15 -73 -61 -111t-113 -38zM657 712l-16 -76h-411l-49 -227h371l-16 -76h-371l-55 -257h407l-16 -76h-491l152 712h495z" />
    <glyph glyph-name="ebreve" unicode="&#x115;" horiz-adv-x="545" 
d="M345 589q-70 0 -107 40.5t-27 108.5h69q-4 -40 16 -62t57 -22q73 0 97 84h69q-15 -73 -61 -111t-113 -38zM320 528q114 0 166 -78t24 -192l-8 -28h-389q-11 -83 22 -126t101 -43q112 0 158 96h84q-69 -169 -249 -169q-108 0 -164 77q-55 76 -27 209q24 111 102 183
q77 71 180 71zM311 455q-63 0 -111 -39.5t-72 -113.5h305q10 67 -23 110t-99 43z" />
    <glyph glyph-name="Edotaccent" unicode="&#x116;" horiz-adv-x="585" 
d="M391 853h85l-20 -98h-85zM657 712l-16 -76h-411l-49 -227h371l-16 -76h-371l-55 -257h407l-16 -76h-491l152 712h495z" />
    <glyph glyph-name="edotaccent" unicode="&#x117;" horiz-adv-x="545" 
d="M311 692h85l-20 -98h-85zM320 528q114 0 166 -78t24 -192l-8 -28h-389q-11 -83 22 -126t101 -43q112 0 158 96h84q-69 -169 -249 -169q-108 0 -164 77q-55 76 -27 209q24 111 102 183q77 71 180 71zM311 455q-63 0 -111 -39.5t-72 -113.5h305q10 67 -23 110t-99 43z" />
    <glyph glyph-name="Eogonek" unicode="&#x118;" horiz-adv-x="585" 
d="M657 712l-16 -76h-411l-49 -227h371l-16 -76h-371l-55 -257h407l-16 -76q-114 -51 -125 -96q-5 -21 7.5 -33.5t33.5 -12.5q29 0 56 10l-14 -65q-30 -11 -65 -11q-47 0 -76.5 28t-20.5 71q7 34 39.5 63t82.5 46h-409l152 712h495z" />
    <glyph glyph-name="eogonek" unicode="&#x119;" horiz-adv-x="545" 
d="M320 528q114 0 166 -78t24 -192l-8 -28h-389q-11 -83 22 -126t101 -43q112 0 158 96h84q-52 -126 -162 -158q-112 -49 -123 -95q-5 -21 7.5 -33.5t33.5 -12.5q29 0 56 10l-14 -65q-30 -11 -65 -11q-47 0 -76.5 28t-20.5 71q14 61 94 98q-100 7 -148 84q-49 74 -22 201
q24 111 102 183q77 71 180 71zM311 455q-63 0 -111 -39.5t-72 -113.5h305q10 67 -23 110t-99 43z" />
    <glyph glyph-name="Ecaron" unicode="&#x11a;" horiz-adv-x="585" 
d="M618 899l-142 -144h-120l-86 144h77l73 -97l115 97h83zM657 712l-16 -76h-411l-49 -227h371l-16 -76h-371l-55 -257h407l-16 -76h-491l152 712h495z" />
    <glyph glyph-name="ecaron" unicode="&#x11b;" horiz-adv-x="545" 
d="M526 737l-142 -144h-120l-86 144h77l73 -97l115 97h83zM320 528q114 0 166 -78t24 -192l-8 -28h-389q-11 -83 22 -126t101 -43q112 0 158 96h84q-69 -169 -249 -169q-108 0 -164 77q-55 76 -27 209q24 111 102 183q77 71 180 71zM311 455q-63 0 -111 -39.5t-72 -113.5
h305q10 67 -23 110t-99 43z" />
    <glyph glyph-name="Gcircumflex" unicode="&#x11c;" horiz-adv-x="747" 
d="M571 771l-73 97l-115 -97h-83l142 144h120l86 -144h-77zM730 479h-87q1 78 -55 125t-142 47q-112 0 -191 -76q-79 -77 -108 -204q-32 -144 24 -227q54 -83 170 -83q101 0 180 64q79 65 102 165h-227l16 76h303l-78 -366h-69l2 88q-93 -104 -236 -104q-156 0 -234 108
t-39 289q33 153 138 250q103 97 254 97q127 0 204 -68q76 -69 73 -181z" />
    <glyph glyph-name="gcircumflex" unicode="&#x11d;" horiz-adv-x="583" 
d="M442 594l-73 97l-115 -97h-83l142 144h120l86 -144h-77zM487 443l16 73h76l-106 -496q-25 -114 -91 -171t-184 -57q-97 0 -149 45t-47 121h80q-1 -50 30 -74t94 -24q153 0 187 160l7 35q-70 -67 -165 -67q-114 0 -169 82t-27 209q25 117 104 184q79 65 182 65
q113 0 162 -85zM246 60q72 0 127 48.5t77 132.5l7 31q14 87 -21 135.5t-111 48.5t-129.5 -51t-71.5 -138q-21 -95 12.5 -151t109.5 -56z" />
    <glyph glyph-name="Gbreve" unicode="&#x11e;" horiz-adv-x="747" 
d="M484 766q-70 0 -107 40.5t-27 108.5h69q-4 -40 16 -62t57 -22q73 0 97 84h69q-15 -73 -61 -111t-113 -38zM730 479h-87q1 78 -55 125t-142 47q-112 0 -191 -76q-79 -77 -108 -204q-32 -144 24 -227q54 -83 170 -83q101 0 180 64q79 65 102 165h-227l16 76h303l-78 -366
h-69l2 88q-93 -104 -236 -104q-156 0 -234 108t-39 289q33 153 138 250q103 97 254 97q127 0 204 -68q76 -69 73 -181z" />
    <glyph glyph-name="gbreve" unicode="&#x11f;" horiz-adv-x="583" 
d="M358 589q-70 0 -107 40.5t-27 108.5h69q-4 -40 16 -62t57 -22q73 0 97 84h69q-15 -73 -61 -111t-113 -38zM487 443l16 73h76l-106 -496q-25 -114 -91 -171t-184 -57q-97 0 -149 45t-47 121h80q-1 -50 30 -74t94 -24q153 0 187 160l7 35q-70 -67 -165 -67q-114 0 -169 82
t-27 209q25 117 104 184q79 65 182 65q113 0 162 -85zM246 60q72 0 127 48.5t77 132.5l7 31q14 87 -21 135.5t-111 48.5t-129.5 -51t-71.5 -138q-21 -95 12.5 -151t109.5 -56z" />
    <glyph glyph-name="Gdotaccent" unicode="&#x120;" horiz-adv-x="747" 
d="M451 869h85l-20 -98h-85zM730 479h-87q1 78 -55 125t-142 47q-112 0 -191 -76q-79 -77 -108 -204q-32 -144 24 -227q54 -83 170 -83q101 0 180 64q79 65 102 165h-227l16 76h303l-78 -366h-69l2 88q-93 -104 -236 -104q-156 0 -234 108t-39 289q33 153 138 250
q103 97 254 97q127 0 204 -68q76 -69 73 -181z" />
    <glyph glyph-name="gdotaccent" unicode="&#x121;" horiz-adv-x="583" 
d="M324 692h85l-20 -98h-85zM487 443l16 73h76l-106 -496q-25 -114 -91 -171t-184 -57q-97 0 -149 45t-47 121h80q-1 -50 30 -74t94 -24q153 0 187 160l7 35q-70 -67 -165 -67q-114 0 -169 82t-27 209q25 117 104 184q79 65 182 65q113 0 162 -85zM246 60q72 0 127 48.5
t77 132.5l7 31q14 87 -21 135.5t-111 48.5t-129.5 -51t-71.5 -138q-21 -95 12.5 -151t109.5 -56z" />
    <glyph glyph-name="uni0122" unicode="&#x122;" horiz-adv-x="747" 
d="M730 479h-87q1 78 -55 125t-142 47q-112 0 -191 -76q-79 -77 -108 -204q-32 -144 24 -227q54 -83 170 -83q101 0 180 64q79 65 102 165h-227l16 76h303l-78 -366h-69l2 88q-93 -104 -236 -104q-156 0 -234 108t-39 289q33 153 138 250q103 97 254 97q127 0 204 -68
q76 -69 73 -181zM318 -141h-50l18 84h97l-22 -103q-8 -39 -31.5 -58.5t-68.5 -22.5l-14 -1l9 43l11 1q38 3 46 35z" />
    <glyph glyph-name="uni0123" unicode="&#x123;" horiz-adv-x="583" 
d="M353 678h50l-18 -84h-97l22 103q8 39 31.5 58.5t68.5 22.5l14 1l-9 -43l-11 -1q-38 -3 -46 -35zM487 443l16 73h76l-106 -496q-25 -114 -91 -171t-184 -57q-97 0 -149 45t-47 121h80q-1 -50 30 -74t94 -24q153 0 187 160l7 35q-70 -67 -165 -67q-114 0 -169 82t-27 209
q25 117 104 184q79 65 182 65q113 0 162 -85zM246 60q72 0 127 48.5t77 132.5l7 31q14 87 -21 135.5t-111 48.5t-129.5 -51t-71.5 -138q-21 -95 12.5 -151t109.5 -56z" />
    <glyph glyph-name="Hcircumflex" unicode="&#x124;" horiz-adv-x="695" 
d="M548 752l-73 97l-115 -97h-83l142 144h120l86 -144h-77zM578 406l65 306h84l-152 -712h-84l70 328h-397l-70 -328h-84l152 712h84l-65 -306h397z" />
    <glyph glyph-name="hcircumflex" unicode="&#x125;" horiz-adv-x="540" 
d="M283 755l-54 96l-94 -96h-79l125 144h114l63 -144h-75zM351 528q89 0 128 -54t16 -155l-69 -319h-80l68 324q29 132 -83 132q-65 0 -116.5 -43.5t-66.5 -120.5l-62 -292h-80l151 712h80l-55 -259q74 75 169 75z" />
    <glyph glyph-name="Hbar" unicode="&#x126;" horiz-adv-x="733" 
d="M722 596h82l-12 -65h-84l-113 -531h-84l70 328h-397l-70 -328h-84l113 531h-85l13 65h86l25 116h84l-25 -116h397l25 116h84zM201 406h397l26 125h-397z" />
    <glyph glyph-name="hbar" unicode="&#x127;" horiz-adv-x="565" 
d="M376 528q89 0 128 -54t16 -155l-69 -319h-80l68 324q28 132 -83 132q-65 0 -116.5 -43.5t-66.5 -120.5l-62 -292h-80l123 582h-97l14 65h97l14 65h80l-14 -65h104l-14 -65h-104l-27 -129q73 75 169 75z" />
    <glyph glyph-name="Itilde" unicode="&#x128;" horiz-adv-x="214" 
d="M130 755h-56q14 63 37 91.5t61 28.5q28 0 64 -24q34 -24 52 -24q24 0 34 48h56q-13 -62 -36.5 -91t-61.5 -29q-20 0 -60 24q-41 24 -55 24q-25 0 -35 -48zM94 0h-84l152 712h84z" />
    <glyph glyph-name="itilde" unicode="&#x129;" horiz-adv-x="199" 
d="M82 594h-56q14 63 37 91.5t61 28.5q28 0 64 -24q34 -24 52 -24q24 0 34 48h56q-13 -62 -36.5 -91t-61.5 -29q-20 0 -60 24q-41 24 -55 24q-25 0 -35 -48zM85 0h-80l110 516h80z" />
    <glyph glyph-name="Imacron" unicode="&#x12a;" horiz-adv-x="214" 
d="M328 755h-231l15 67h231zM94 0h-84l152 712h84z" />
    <glyph glyph-name="imacron" unicode="&#x12b;" horiz-adv-x="199" 
d="M286 594h-231l15 67h231zM85 0h-80l110 516h80z" />
    <glyph glyph-name="Ibreve" unicode="&#x12c;" horiz-adv-x="214" 
d="M219 750q-61 0 -94.5 39.5t-26.5 99.5h67q0 -74 64 -74q32 0 55.5 20t32.5 54h69q-37 -139 -167 -139zM94 0h-84l152 712h84z" />
    <glyph glyph-name="ibreve" unicode="&#x12d;" horiz-adv-x="199" 
d="M163 589q-61 0 -94.5 39.5t-26.5 99.5h67q0 -74 64 -74q32 0 55.5 20t32.5 54h69q-37 -139 -167 -139zM85 0h-80l110 516h80z" />
    <glyph glyph-name="Iogonek" unicode="&#x12e;" horiz-adv-x="214" 
d="M246 712l-152 -712q-71 -44 -83 -98q-10 -46 32 -46q19 0 37 8l-13 -62q-21 -10 -49 -10q-40 0 -62 27.5t-12 71.5q17 69 90 109h-24l152 712h84z" />
    <glyph glyph-name="iogonek" unicode="&#x12f;" horiz-adv-x="199" 
d="M129 594l20 98h85l-20 -98h-85zM25 0h-20l110 516h80l-110 -516q-71 -44 -83 -98q-10 -46 32 -46q19 0 37 8l-13 -62q-21 -10 -49 -10q-40 0 -62 27.5t-12 71.5q17 69 90 109z" />
    <glyph glyph-name="Idot" unicode="&#x130;" horiz-adv-x="214" 
d="M256 755h-85l20 98h85zM94 0h-84l152 712h84z" />
    <glyph glyph-name="dotlessi" unicode="&#x131;" horiz-adv-x="199" 
d="M85 0h-80l110 516h80z" />
    <glyph glyph-name="IJ" unicode="&#x132;" horiz-adv-x="733" 
d="M94 0h-84l152 712h84zM426 -15q-106 0 -157 66q-51 65 -24 177l5 21h82l-7 -35q-15 -76 14.5 -115t95.5 -39q125 0 155 142l108 510h84l-108 -510q-46 -217 -248 -217z" />
    <glyph glyph-name="ij" unicode="&#x133;" horiz-adv-x="402" 
d="M214 594h-85l20 98h85zM413 594h-85l20 98h85zM85 0h-80l110 516h80zM136 -199q-45 0 -56 1l15 69h40q41 0 54 59l125 586h80l-127 -595q-25 -120 -131 -120z" />
    <glyph glyph-name="Jcircumflex" unicode="&#x134;" horiz-adv-x="519" 
d="M510 899h114l63 -144h-75l-54 96l-94 -96h-79zM376 202l108 510h84l-108 -510q-46 -217 -248 -217q-106 0 -157 66q-51 65 -24 177l5 21h82l-7 -35q-15 -76 14.5 -115t95.5 -39q125 0 155 142z" />
    <glyph glyph-name="jcircumflex" unicode="&#x135;" horiz-adv-x="203" 
d="M146 738h114l63 -144h-75l-54 96l-94 -96h-79zM-10 -70l125 586h80l-127 -595q-26 -120 -131 -120q-45 0 -56 1l15 69h40q41 0 54 59z" />
    <glyph glyph-name="uni0136" unicode="&#x136;" horiz-adv-x="664" 
d="M631 712h115l-367 -291l216 -421h-93l-192 368l-165 -131l-50 -237h-84l151 712h84l-78 -369zM275 -127h-50l18 84h97l-22 -103q-8 -39 -31.5 -58.5t-68.5 -22.5l-14 -1l9 43l11 1q38 3 46 35z" />
    <glyph glyph-name="uni0137" unicode="&#x137;" horiz-adv-x="504" 
d="M432 516h108l-234 -188l138 -328h-83l-116 280l-120 -95l-40 -185h-80l152 712h80l-90 -424zM189 -127h-50l18 84h97l-22 -103q-8 -39 -31.5 -58.5t-68.5 -22.5l-14 -1l9 43l11 1q38 3 46 35z" />
    <glyph glyph-name="kgreenlandic" unicode="&#x138;" horiz-adv-x="504" 
d="M432 516h108l-234 -188l138 -328h-83l-116 280l-120 -95l-40 -185h-80l110 516h80l-49 -228z" />
    <glyph glyph-name="Lacute" unicode="&#x139;" horiz-adv-x="527" 
d="M299 899h112l-147 -144h-77zM246 712l-136 -636h358l-16 -76h-442l152 712h84z" />
    <glyph glyph-name="lacute" unicode="&#x13a;" horiz-adv-x="200" 
d="M229 755h-65l86 144h98zM86 0h-80l151 712h80z" />
    <glyph glyph-name="uni013B" unicode="&#x13b;" horiz-adv-x="527" 
d="M246 712l-136 -636h358l-16 -76h-442l152 712h84zM216 -127h-50l18 84h97l-22 -103q-8 -39 -31.5 -58.5t-68.5 -22.5l-14 -1l9 43l11 1q38 3 46 35z" />
    <glyph glyph-name="uni013C" unicode="&#x13c;" horiz-adv-x="200" 
d="M157 712h80l-151 -712h-80zM22 -127h-50l18 84h97l-22 -103q-8 -39 -31.5 -58.5t-68.5 -22.5l-14 -1l9 43l11 1q38 3 46 35z" />
    <glyph glyph-name="Lcaron" unicode="&#x13d;" horiz-adv-x="527" 
d="M246 712l-136 -636h358l-16 -76h-442l152 712h84zM342 712h84l-95 -166h-63z" />
    <glyph glyph-name="lcaron" unicode="&#x13e;" horiz-adv-x="299" 
d="M86 0h-80l151 712h80zM316 546h-63l74 166h84z" />
    <glyph glyph-name="Ldot" unicode="&#x13f;" horiz-adv-x="527" 
d="M246 712l-136 -636h358l-16 -76h-442l152 712h84zM353 419h101l-22 -100h-101z" />
    <glyph glyph-name="ldot" unicode="&#x140;" horiz-adv-x="395" 
d="M86 0h-80l151 712h80zM354 304h-101l22 100h101z" />
    <glyph glyph-name="Lslash" unicode="&#x141;" horiz-adv-x="546" 
d="M196 389l-67 -313h358l-16 -76h-442l75 351l-129 -53l16 73l128 53l62 288h84l-53 -250l168 69l-16 -73z" />
    <glyph glyph-name="lslash" unicode="&#x142;" horiz-adv-x="249" 
d="M200 419l92 46l-16 -76l-92 -46l-73 -343h-80l63 298l-97 -49l16 76l97 49l72 338h80z" />
    <glyph glyph-name="Nacute" unicode="&#x143;" horiz-adv-x="696" 
d="M496 899h112l-147 -144h-77zM573 472l51 240h83l-152 -712h-99l-158 367q-58 134 -99 247q-37 -192 -76 -374l-51 -240h-83l152 712h99l158 -367q63 -147 99 -248q34 177 76 375z" />
    <glyph glyph-name="nacute" unicode="&#x144;" horiz-adv-x="540" 
d="M386 738h106l-127 -144h-67zM350 528q89 0 128 -54t16 -155l-69 -319h-80l68 324q29 132 -83 132q-65 0 -116.5 -43.5t-66.5 -120.5l-62 -292h-80l110 516h76l-15 -69q74 81 174 81z" />
    <glyph glyph-name="uni0145" unicode="&#x145;" horiz-adv-x="696" 
d="M573 472l51 240h83l-152 -712h-99l-158 367q-58 134 -99 247q-37 -192 -76 -374l-51 -240h-83l152 712h99l158 -367q63 -147 99 -248q34 177 76 375zM247 -127h-50l18 84h97l-22 -103q-8 -39 -31.5 -58.5t-68.5 -22.5l-14 -1l9 43l11 1q38 3 46 35z" />
    <glyph glyph-name="uni0146" unicode="&#x146;" horiz-adv-x="540" 
d="M350 528q89 0 128 -54t16 -155l-69 -319h-80l68 324q29 132 -83 132q-65 0 -116.5 -43.5t-66.5 -120.5l-62 -292h-80l110 516h76l-15 -69q74 81 174 81zM196 -127h-50l18 84h97l-22 -103q-8 -39 -31.5 -58.5t-68.5 -22.5l-14 -1l9 43l11 1q38 3 46 35z" />
    <glyph glyph-name="Ncaron" unicode="&#x147;" horiz-adv-x="696" 
d="M638 899l-142 -144h-120l-86 144h77l73 -97l115 97h83zM573 472l51 240h83l-152 -712h-99l-158 367q-58 134 -99 247q-37 -192 -76 -374l-51 -240h-83l152 712h99l158 -367q63 -147 99 -248q34 177 76 375z" />
    <glyph glyph-name="ncaron" unicode="&#x148;" horiz-adv-x="540" 
d="M525 737l-142 -144h-120l-86 144h77l73 -97l115 97h83zM350 528q89 0 128 -54t16 -155l-69 -319h-80l68 324q29 132 -83 132q-65 0 -116.5 -43.5t-66.5 -120.5l-62 -292h-80l110 516h76l-15 -69q74 81 174 81z" />
    <glyph glyph-name="napostrophe" unicode="&#x149;" horiz-adv-x="684" 
d="M244 683l-23 -108q-14 -65 -42.5 -93.5t-82.5 -33.5l10 53q25 4 38 19t20 48l3 17h-43l21 98h99zM494 528q89 0 128 -54t16 -155l-69 -319h-80l68 324q29 132 -83 132q-65 0 -116.5 -43.5t-66.5 -120.5l-62 -292h-80l110 516h76l-15 -69q74 81 174 81z" />
    <glyph glyph-name="Eng" unicode="&#x14a;" horiz-adv-x="696" 
d="M573 472l51 240h83l-151 -712q-39 -199 -236 -199q-31 0 -61 3l15 70q28 -3 56 -3q120 0 146 129v1l-168 370q-73 161 -107 247q-20 -104 -77 -378l-51 -240h-83l151 712h102l168 -372q61 -134 92 -212q25 132 70 344z" />
    <glyph glyph-name="eng" unicode="&#x14b;" horiz-adv-x="540" 
d="M341 528q89 0 130.5 -54.5t20.5 -154.5l-87 -411q-12 -57 -46 -82t-95 -25q-32 0 -43 1l15 69h33q47 0 58 44l87 409q29 132 -97 132q-58 0 -105.5 -43.5t-64.5 -120.5l-62 -292h-80l110 516h76l-16 -74q69 86 166 86z" />
    <glyph glyph-name="Omacron" unicode="&#x14c;" horiz-adv-x="752" 
d="M631 771h-291l15 67h291zM328 -16q-156 0 -231 107q-75 106 -37 286q31 150 145 252q113 99 261 99q155 0 230 -105t39 -280q-33 -158 -145 -258q-113 -101 -262 -101zM334 61q116 0 202 79q86 80 113 209q29 140 -22 221t-168 81q-113 0 -199 -78t-114 -207
q-30 -141 20.5 -223t167.5 -82z" />
    <glyph glyph-name="omacron" unicode="&#x14d;" horiz-adv-x="570" 
d="M498 594h-291l15 67h291zM242 -12q-121 0 -176.5 77t-26.5 211q23 111 105 181q82 71 184 71q121 0 176 -76.5t27 -210.5q-23 -111 -104 -182q-82 -71 -185 -71zM244 60q75 0 130.5 51.5t74.5 138.5q21 98 -12 152t-111 54q-74 0 -130 -53q-57 -53 -75 -135
q-21 -98 12.5 -153t110.5 -55z" />
    <glyph glyph-name="Obreve" unicode="&#x14e;" horiz-adv-x="752" 
d="M496 766q-70 0 -107 40.5t-27 108.5h69q-4 -40 16 -62t57 -22q73 0 97 84h69q-15 -73 -61 -111t-113 -38zM328 -16q-156 0 -231 107q-75 106 -37 286q31 150 145 252q113 99 261 99q155 0 230 -105t39 -280q-33 -158 -145 -258q-113 -101 -262 -101zM334 61q116 0 202 79
q86 80 113 209q29 140 -22 221t-168 81q-113 0 -199 -78t-114 -207q-30 -141 20.5 -223t167.5 -82z" />
    <glyph glyph-name="obreve" unicode="&#x14f;" horiz-adv-x="570" 
d="M365 589q-70 0 -107 40.5t-27 108.5h69q-4 -40 16 -62t57 -22q73 0 97 84h69q-15 -73 -61 -111t-113 -38zM242 -12q-121 0 -176.5 77t-26.5 211q23 111 105 181q82 71 184 71q121 0 176 -76.5t27 -210.5q-23 -111 -104 -182q-82 -71 -185 -71zM244 60q75 0 130.5 51.5
t74.5 138.5q21 98 -12 152t-111 54q-74 0 -130 -53q-57 -53 -75 -135q-21 -98 12.5 -153t110.5 -55z" />
    <glyph glyph-name="Ohungarumlaut" unicode="&#x150;" horiz-adv-x="752" 
d="M431 771h-67l86 144h104zM595 771h-67l86 144h104zM328 -16q-156 0 -231 107q-75 106 -37 286q31 150 145 252q113 99 261 99q155 0 230 -105t39 -280q-33 -158 -145 -258q-113 -101 -262 -101zM334 61q116 0 202 79q86 80 113 209q29 140 -22 221t-168 81
q-113 0 -199 -78t-114 -207q-30 -141 20.5 -223t167.5 -82z" />
    <glyph glyph-name="ohungarumlaut" unicode="&#x151;" horiz-adv-x="570" 
d="M299 594h-67l86 144h104zM463 594h-67l86 144h104zM242 -12q-121 0 -176.5 77t-26.5 211q23 111 105 181q82 71 184 71q121 0 176 -76.5t27 -210.5q-23 -111 -104 -182q-82 -71 -185 -71zM244 60q75 0 130.5 51.5t74.5 138.5q21 98 -12 152t-111 54q-74 0 -130 -53
q-57 -53 -75 -135q-21 -98 12.5 -153t110.5 -55z" />
    <glyph glyph-name="OE" unicode="&#x152;" horiz-adv-x="1149" 
d="M1221 712l-16 -76h-411l-49 -227h371l-16 -76h-371l-55 -257h407l-16 -76h-491l21 96q-109 -112 -267 -112q-156 0 -231 107q-75 106 -37 286q31 150 145 252q113 99 261 99q171 0 236 -128l24 112h495zM334 61q109 0 193 72q85 73 116 192l10 44q22 131 -30 206.5
t-164 75.5q-113 0 -199 -78t-114 -207q-30 -141 20.5 -223t167.5 -82z" />
    <glyph glyph-name="oe" unicode="&#x153;" horiz-adv-x="961" 
d="M736 528q114 0 166 -78t24 -192l-8 -28h-389q-11 -83 22 -126t101 -43q112 0 158 96h84q-69 -169 -249 -169q-66 0 -113 29.5t-68 84.5q-87 -114 -222 -114q-121 0 -176.5 77t-26.5 211q23 111 105 181q82 71 184 71q148 0 192 -114q86 114 216 114zM244 60
q75 0 130.5 51.5t74.5 138.5q21 98 -12 152t-111 54q-74 0 -130 -53q-57 -53 -75 -135q-21 -98 12.5 -153t110.5 -55zM727 455q-63 0 -111 -39.5t-72 -113.5h305q10 67 -23 110t-99 43z" />
    <glyph glyph-name="Racute" unicode="&#x154;" horiz-adv-x="646" 
d="M480 899h112l-147 -144h-77zM162 712h281q114 0 175 -55q63 -56 40 -160q-12 -57 -55.5 -98t-104.5 -56q52 -13 70.5 -50t6.5 -107l-15 -95q-9 -59 7 -91h-87q-15 31 -3 95l16 92q10 62 -13.5 89.5t-87.5 27.5h-233l-64 -304h-84zM572 499q15 69 -21 103t-114 34h-207
l-54 -256h227q65 0 111 32t58 87z" />
    <glyph glyph-name="racute" unicode="&#x155;" horiz-adv-x="354" 
d="M297 738h96l-91 -144h-63zM191 516l-17 -80q75 88 185 88q19 0 26 -1l-16 -77h-20q-80 0 -133 -39.5t-68 -112.5l-63 -294h-80l110 516h76z" />
    <glyph glyph-name="uni0156" unicode="&#x156;" horiz-adv-x="646" 
d="M162 712h281q114 0 175 -55q63 -56 40 -160q-12 -57 -55.5 -98t-104.5 -56q52 -13 70.5 -50t6.5 -107l-15 -95q-9 -59 7 -91h-87q-15 31 -3 95l16 92q10 62 -13.5 89.5t-87.5 27.5h-233l-64 -304h-84zM572 499q15 69 -21 103t-114 34h-207l-54 -256h227q65 0 111 32
t58 87zM268 -127h-50l18 84h97l-22 -103q-8 -39 -31.5 -58.5t-68.5 -22.5l-14 -1l9 43l11 1q38 3 46 35z" />
    <glyph glyph-name="uni0157" unicode="&#x157;" horiz-adv-x="354" 
d="M359 524q19 0 26 -1l-16 -77h-20q-80 0 -133 -39.5t-68 -112.5l-63 -294h-80l110 516h76l-17 -80q75 88 185 88zM18 -127h-50l18 84h97l-22 -103q-8 -39 -31.5 -58.5t-68.5 -22.5l-14 -1l9 43l11 1q38 3 46 35z" />
    <glyph glyph-name="Rcaron" unicode="&#x158;" horiz-adv-x="646" 
d="M622 899l-142 -144h-120l-86 144h77l73 -97l115 97h83zM162 712h281q114 0 175 -55q63 -56 40 -160q-12 -57 -55.5 -98t-104.5 -56q52 -13 70.5 -50t6.5 -107l-15 -95q-9 -59 7 -91h-87q-15 31 -3 95l16 92q10 62 -13.5 89.5t-87.5 27.5h-233l-64 -304h-84zM572 499
q15 69 -21 103t-114 34h-207l-54 -256h227q65 0 111 32t58 87z" />
    <glyph glyph-name="rcaron" unicode="&#x159;" horiz-adv-x="354" 
d="M457 737l-125 -144h-114l-63 144h75l54 -96l94 96h79zM191 516l-17 -80q75 88 185 88q19 0 26 -1l-16 -77h-20q-80 0 -133 -39.5t-68 -112.5l-63 -294h-80l110 516h76z" />
    <glyph glyph-name="Sacute" unicode="&#x15a;" horiz-adv-x="618" 
d="M436 771h-77l112 144h112zM285 -16q-134 0 -208 65q-73 64 -56 186h87q-23 -175 186 -175q81 0 129 29.5t59 83.5q13 60 -19 93t-123 54l-60 14q-87 19 -137 74q-50 54 -32 145q17 83 89 129t181 46q145 0 201 -62q54 -63 39 -161h-85q12 74 -25.5 110.5t-135.5 36.5
q-158 0 -179 -105q-11 -58 19.5 -89.5t118.5 -52.5l60 -14q211 -49 174 -227q-18 -85 -92 -132.5t-191 -47.5z" />
    <glyph glyph-name="sacute" unicode="&#x15b;" horiz-adv-x="467" 
d="M320 594h-67l88 144h106zM199 -12q-109 0 -158 43.5t-39 132.5h80q-4 -58 25 -82.5t99 -24.5q114 0 129 71q9 41 -12.5 62t-85.5 33l-37 7q-164 32 -134 169q13 62 68.5 95.5t140.5 33.5q98 0 143 -43.5t35 -127.5h-79q8 55 -18.5 78.5t-88.5 23.5q-51 0 -84 -19.5
t-40 -52.5q-7 -36 14 -56t76 -31l40 -8q90 -18 123.5 -59t17.5 -116q-12 -60 -67 -94.5t-148 -34.5z" />
    <glyph glyph-name="Scircumflex" unicode="&#x15c;" horiz-adv-x="618" 
d="M506 771l-73 97l-115 -97h-83l142 144h120l86 -144h-77zM621 505h-85q12 74 -25.5 110.5t-135.5 36.5q-158 0 -179 -105q-11 -58 19.5 -89.5t118.5 -52.5l60 -14q211 -49 174 -227q-18 -85 -92 -132.5t-191 -47.5q-134 0 -208 65q-73 64 -56 186h87q-23 -175 186 -175
q81 0 129 29.5t59 83.5q13 60 -19 93t-123 54l-60 14q-87 19 -137 74q-50 54 -32 145q17 83 89 129t181 46q145 0 201 -62q54 -63 39 -161z" />
    <glyph glyph-name="scircumflex" unicode="&#x15d;" horiz-adv-x="467" 
d="M383 594l-73 97l-115 -97h-83l142 144h120l86 -144h-77zM275 528q98 0 143 -43.5t35 -127.5h-79q8 55 -18.5 78.5t-88.5 23.5q-51 0 -84 -19.5t-40 -52.5q-7 -36 14 -56t76 -31l40 -8q90 -18 123.5 -59t17.5 -116q-12 -60 -67 -94.5t-148 -34.5q-109 0 -158 43.5
t-39 132.5h80q-4 -58 25 -82.5t99 -24.5q114 0 129 71q9 41 -12.5 62t-85.5 33l-37 7q-164 32 -134 169q13 62 68.5 95.5t140.5 33.5z" />
    <glyph glyph-name="Scedilla" unicode="&#x15e;" horiz-adv-x="618" 
d="M621 505h-85q12 74 -25.5 110.5t-135.5 36.5q-158 0 -179 -105q-11 -58 19.5 -89.5t118.5 -52.5l60 -14q211 -49 174 -227q-17 -79 -82 -125.5t-167 -53.5l-47 -44h2q41 0 63.5 -27t14.5 -65q-20 -83 -148 -83q-38 0 -67 6l10 46q28 -4 62 -4q59 0 67 43q3 19 -9 31.5
t-39 12.5q-19 0 -28 -1l8 38l47 47q-124 7 -187 72t-47 178h87q-23 -175 186 -175q81 0 129 29.5t59 83.5q13 60 -19 93t-123 54l-60 14q-87 19 -137 74q-50 54 -32 145q17 83 89 129t181 46q145 0 201 -62q54 -63 39 -161z" />
    <glyph glyph-name="scedilla" unicode="&#x15f;" horiz-adv-x="467" 
d="M453 357h-79q8 55 -18.5 78.5t-88.5 23.5q-51 0 -84 -19.5t-40 -52.5q-7 -36 14 -56t76 -31l40 -8q90 -18 123.5 -59t17.5 -116q-25 -116 -181 -128l-47 -44h2q41 0 63.5 -27t14.5 -65q-20 -83 -148 -83q-38 0 -67 6l10 46q28 -4 62 -4q59 0 67 43q3 19 -9 31.5t-39 12.5
q-19 0 -28 -1l8 38l47 47q-185 11 -167 175h80q-4 -58 25 -82.5t99 -24.5q114 0 129 71q9 41 -12.5 62t-85.5 33l-37 7q-164 32 -134 169q13 62 68.5 95.5t140.5 33.5q98 0 143 -43.5t35 -127.5z" />
    <glyph glyph-name="Scaron" unicode="&#x160;" horiz-adv-x="618" 
d="M613 915l-142 -144h-120l-86 144h77l73 -97l115 97h83zM621 505h-85q12 74 -25.5 110.5t-135.5 36.5q-158 0 -179 -105q-11 -58 19.5 -89.5t118.5 -52.5l60 -14q211 -49 174 -227q-18 -85 -92 -132.5t-191 -47.5q-134 0 -208 65q-73 64 -56 186h87q-23 -175 186 -175
q81 0 129 29.5t59 83.5q13 60 -19 93t-123 54l-60 14q-87 19 -137 74q-50 54 -32 145q17 83 89 129t181 46q145 0 201 -62q54 -63 39 -161z" />
    <glyph glyph-name="scaron" unicode="&#x161;" horiz-adv-x="467" 
d="M480 737l-142 -144h-120l-86 144h77l73 -97l115 97h83zM275 528q98 0 143 -43.5t35 -127.5h-79q8 55 -18.5 78.5t-88.5 23.5q-51 0 -84 -19.5t-40 -52.5q-7 -36 14 -56t76 -31l40 -8q90 -18 123.5 -59t17.5 -116q-12 -60 -67 -94.5t-148 -34.5q-109 0 -158 43.5
t-39 132.5h80q-4 -58 25 -82.5t99 -24.5q114 0 129 71q9 41 -12.5 62t-85.5 33l-37 7q-164 32 -134 169q13 62 68.5 95.5t140.5 33.5z" />
    <glyph glyph-name="uni0162" unicode="&#x162;" horiz-adv-x="611" 
d="M430 636l-136 -636h-10l-46 -43h2q41 0 63.5 -27t14.5 -65q-20 -83 -148 -83q-38 0 -67 6l10 46q28 -4 62 -4q59 0 67 43q3 19 -9 31.5t-39 12.5q-19 0 -28 -1l8 38l46 46h-13l136 636h-242l16 76h571l-16 -76h-242z" />
    <glyph glyph-name="uni0163" unicode="&#x163;" horiz-adv-x="311" 
d="M326 446h-106l-68 -321q-6 -30 4.5 -44t41.5 -14h47l-14 -67l-35 -3l-43 -40h2q41 0 63.5 -27t14.5 -65q-20 -83 -148 -83q-39 0 -67 6l10 46q28 -4 62 -4q59 0 67 43q3 19 -9 31.5t-39 12.5q-19 0 -28 -1l8 38l48 48q-88 23 -65 126l68 318h-85l15 70h85l31 146h80
l-31 -146h106z" />
    <glyph glyph-name="Tcaron" unicode="&#x164;" horiz-adv-x="611" 
d="M617 899l-142 -144h-120l-86 144h77l73 -97l115 97h83zM117 712h571l-16 -76h-242l-136 -636h-87l136 636h-242z" />
    <glyph glyph-name="tcaron" unicode="&#x165;" horiz-adv-x="311" 
d="M351 712h84l-95 -166h-63zM186 662h80l-31 -146h106l-15 -70h-106l-68 -321q-6 -30 4.5 -44t41.5 -14h47l-14 -67q-33 -3 -50 -3q-65 0 -93.5 34t-15.5 97l68 318h-85l15 70h85z" />
    <glyph glyph-name="Tbar" unicode="&#x166;" horiz-adv-x="611" 
d="M688 712l-16 -76h-242l-52 -242h146l-18 -65h-142l-70 -329h-87l70 329h-136l18 65h132l52 242h-242l16 76h571z" />
    <glyph glyph-name="tbar" unicode="&#x167;" horiz-adv-x="323" 
d="M341 516l-15 -70h-106l-31 -148h117l-13 -65h-118l-23 -108q-6 -30 4.5 -44t41.5 -14h47l-14 -67q-33 -3 -50 -3q-65 0 -93.5 34t-15.5 97l22 105h-71l13 65h72l32 148h-85l15 70h85l31 146h80l-31 -146h106z" />
    <glyph glyph-name="Utilde" unicode="&#x168;" horiz-adv-x="670" 
d="M331 755h-68q14 63 42 93t73 30q32 0 78 -27q38 -23 60 -23q30 0 41 50h68q-14 -63 -42 -93t-73 -30q-28 0 -83 29q-41 21 -55 21q-30 0 -41 -50zM297 -15q-143 0 -206 84t-28 240l88 403h84l-89 -418q-50 -233 157 -233q186 0 230 203l94 448h84l-97 -465
q-55 -262 -317 -262z" />
    <glyph glyph-name="utilde" unicode="&#x169;" horiz-adv-x="540" 
d="M279 644q-30 0 -41 -50h-68q14 63 42 93t73 30q31 0 78 -27q38 -23 60 -23q30 0 41 50h68q-14 -63 -42 -93t-73 -30q-28 0 -83 29q-40 21 -55 21zM393 224l62 292h80l-110 -516h-76l15 69q-74 -81 -174 -81q-89 0 -128 54t-16 155l69 319h80l-68 -324q-29 -132 83 -132
q65 0 116.5 43.5t66.5 120.5z" />
    <glyph glyph-name="Umacron" unicode="&#x16a;" horiz-adv-x="670" 
d="M576 755h-291l15 67h291zM297 -15q-143 0 -206 84t-28 240l88 403h84l-89 -418q-50 -233 157 -233q186 0 230 203l94 448h84l-97 -465q-55 -262 -317 -262z" />
    <glyph glyph-name="umacron" unicode="&#x16b;" horiz-adv-x="540" 
d="M206 661h291l-15 -67h-291zM393 224l62 292h80l-110 -516h-76l15 69q-74 -81 -174 -81q-89 0 -128 54t-16 155l69 319h80l-68 -324q-29 -132 83 -132q65 0 116.5 43.5t66.5 120.5z" />
    <glyph glyph-name="Ubreve" unicode="&#x16c;" horiz-adv-x="670" 
d="M441 750q-70 0 -107 40.5t-27 108.5h69q-4 -40 16 -62t57 -22q73 0 97 84h69q-15 -73 -61 -111t-113 -38zM297 -15q-143 0 -206 84t-28 240l88 403h84l-89 -418q-50 -233 157 -233q186 0 230 203l94 448h84l-97 -465q-55 -262 -317 -262z" />
    <glyph glyph-name="ubreve" unicode="&#x16d;" horiz-adv-x="540" 
d="M349 589q-70 0 -107 40.5t-27 108.5h69q-4 -40 16 -62t57 -22q73 0 97 84h69q-15 -73 -61 -111t-113 -38zM393 224l62 292h80l-110 -516h-76l15 69q-74 -81 -174 -81q-89 0 -128 54t-16 155l69 319h80l-68 -324q-29 -132 83 -132q65 0 116.5 43.5t66.5 120.5z" />
    <glyph glyph-name="Uring" unicode="&#x16e;" horiz-adv-x="670" 
d="M512 689q-38 -35 -91 -35t-90 35q-37 34 -37 87t37 87q37 35 90 35t91 -35q36 -35 36 -87t-36 -87zM375 731q19 -19 46 -19t46 19q19 18 19 45t-19 46q-19 18 -46 18t-46 -18q-19 -19 -19 -46t19 -45zM297 -15q-143 0 -206 84t-28 240l88 403h84l-89 -418
q-50 -233 157 -233q186 0 230 203l94 448h84l-97 -465q-55 -262 -317 -262z" />
    <glyph glyph-name="uring" unicode="&#x16f;" horiz-adv-x="540" 
d="M453 624q-38 -35 -91 -35t-90 35q-37 34 -37 87t37 87q37 35 90 35t91 -35q36 -34 36 -87t-36 -87zM408 757q-19 18 -46 18t-46 -18q-19 -19 -19 -46t19 -45q19 -19 46 -19t46 19q19 18 19 45t-19 46zM393 224l62 292h80l-110 -516h-76l15 69q-74 -81 -174 -81
q-89 0 -128 54t-16 155l69 319h80l-68 -324q-29 -132 83 -132q65 0 116.5 43.5t66.5 120.5z" />
    <glyph glyph-name="Uhungarumlaut" unicode="&#x170;" horiz-adv-x="670" 
d="M376 755h-67l86 144h104zM540 755h-67l86 144h104zM297 -15q-143 0 -206 84t-28 240l88 403h84l-89 -418q-50 -233 157 -233q186 0 230 203l94 448h84l-97 -465q-55 -262 -317 -262z" />
    <glyph glyph-name="uhungarumlaut" unicode="&#x171;" horiz-adv-x="540" 
d="M302 738h104l-123 -144h-67zM570 738l-123 -144h-67l86 144h104zM393 224l62 292h80l-110 -516h-76l15 69q-74 -81 -174 -81q-89 0 -128 54t-16 155l69 319h80l-68 -324q-29 -132 83 -132q65 0 116.5 43.5t66.5 120.5z" />
    <glyph glyph-name="Uogonek" unicode="&#x172;" horiz-adv-x="670" 
d="M533 264l94 448h84l-97 -465q-42 -202 -205 -248q-112 -49 -123 -95q-5 -21 7.5 -33.5t33.5 -12.5q29 0 56 10l-14 -65q-30 -11 -65 -11q-47 0 -76.5 28t-20.5 71q11 57 87 94q-141 1 -203.5 84.5t-27.5 239.5l88 403h84l-89 -418q-50 -233 157 -233q186 0 230 203z" />
    <glyph glyph-name="uogonek" unicode="&#x173;" horiz-adv-x="540" 
d="M535 516l-110 -516q-114 -51 -125 -96q-5 -21 7.5 -33.5t33.5 -12.5q29 0 56 10l-14 -65q-30 -11 -65 -11q-47 0 -76.5 28t-20.5 71q7 34 39.5 63t82.5 46h6l15 69q-74 -81 -174 -81q-89 0 -128 54t-16 155l69 319h80l-68 -324q-29 -132 83 -132q65 0 116.5 43.5
t66.5 120.5l62 292h80z" />
    <glyph glyph-name="Wcircumflex" unicode="&#x174;" horiz-adv-x="956" 
d="M681 755l-73 97l-115 -97h-83l142 144h120l86 -144h-77zM777 361l171 351h89l-353 -712h-94l-25 363q-3 41 -13 243q-36 -80 -117 -243l-179 -363h-94l-51 712h85l23 -351q9 -151 12 -257q77 166 123 259l171 349h94l23 -349q10 -143 14 -258q53 115 121 256z" />
    <glyph glyph-name="wcircumflex" unicode="&#x175;" horiz-adv-x="778" 
d="M543 594l-73 97l-115 -97h-83l142 144h120l86 -144h-77zM610 283l123 233h90l-282 -516h-84l-25 239q-8 66 -16 181q-48 -104 -89 -181l-126 -239h-84l-62 516h82l23 -233q6 -54 16 -189q55 112 95 189l122 233h84l22 -233q2 -18 16 -192q38 84 95 192z" />
    <glyph glyph-name="Ycircumflex" unicode="&#x176;" horiz-adv-x="658" 
d="M532 755l-73 97l-115 -97h-83l142 144h120l86 -144h-77zM500 546l139 166h100l-362 -426l-61 -286h-84l61 286l-182 426h91l69 -167q16 -40 73 -188q96 117 156 189z" />
    <glyph glyph-name="ycircumflex" unicode="&#x177;" horiz-adv-x="479" 
d="M397 594l-73 97l-115 -97h-83l142 144h120l86 -144h-77zM321 302l119 214h89l-344 -594q-38 -66 -77 -92q-40 -26 -106 -26q-32 0 -57 3l14 67h47q68 0 106 65l27 45l-79 532h86l27 -215q17 -128 27 -223q58 112 121 224z" />
    <glyph glyph-name="Ydieresis" unicode="&#x178;" horiz-adv-x="658" 
d="M326 853h85l-21 -98h-85zM500 853h85l-21 -98h-85zM500 546l139 166h100l-362 -426l-61 -286h-84l61 286l-182 426h91l69 -167q16 -40 73 -188q96 117 156 189z" />
    <glyph glyph-name="Zacute" unicode="&#x179;" horiz-adv-x="600" 
d="M475 899h112l-147 -144h-77zM666 712l-16 -76l-402 -403l-159 -159q90 2 204 2h244l-16 -76h-550l16 76l400 403l159 159q-90 -2 -204 -2h-217l16 76h525z" />
    <glyph glyph-name="zacute" unicode="&#x17a;" horiz-adv-x="487" 
d="M359 738h106l-127 -144h-67zM492 516l-13 -60l-299 -304l-84 -84q50 2 110 2h205l-15 -70h-417l13 60l298 304q21 21 49.5 49t35.5 35q-48 -2 -108 -2h-183l15 70h393z" />
    <glyph glyph-name="Zdotaccent" unicode="&#x17b;" horiz-adv-x="600" 
d="M390 853h85l-20 -98h-85zM666 712l-16 -76l-402 -403l-159 -159q90 2 204 2h244l-16 -76h-550l16 76l400 403l159 159q-90 -2 -204 -2h-217l16 76h525z" />
    <glyph glyph-name="zdotaccent" unicode="&#x17c;" horiz-adv-x="487" 
d="M283 692h85l-20 -98h-85zM492 516l-13 -60l-299 -304l-84 -84q50 2 110 2h205l-15 -70h-417l13 60l298 304q21 21 49.5 49t35.5 35q-48 -2 -108 -2h-183l15 70h393z" />
    <glyph glyph-name="Zcaron" unicode="&#x17d;" horiz-adv-x="600" 
d="M617 899l-142 -144h-120l-86 144h77l73 -97l115 97h83zM666 712l-16 -76l-402 -403l-159 -159q90 2 204 2h244l-16 -76h-550l16 76l400 403l159 159q-90 -2 -204 -2h-217l16 76h525z" />
    <glyph glyph-name="zcaron" unicode="&#x17e;" horiz-adv-x="487" 
d="M498 737l-142 -144h-120l-86 144h77l73 -97l115 97h83zM267 446h-183l15 70h393l-13 -60l-299 -304l-84 -84q50 2 110 2h205l-15 -70h-417l13 60l298 304q21 21 49.5 49t35.5 35q-48 -2 -108 -2z" />
    <glyph glyph-name="uni018F" unicode="&#x18f;" horiz-adv-x="721" 
d="M445 728q158 0 227 -105q67 -105 30 -289q-32 -155 -137 -251q-107 -99 -251 -99q-107 0 -175.5 53t-84.5 142q-16 86 7 202h563q21 132 -27 201.5t-159 69.5q-87 0 -153 -44t-101 -125h-88q48 118 138.5 181.5t210.5 63.5zM325 60q102 0 176 65.5t107 183.5h-473
q-18 -110 31 -179q49 -70 159 -70z" />
    <glyph glyph-name="florin" unicode="&#x192;" horiz-adv-x="453" 
d="M475 715q26 0 50 -3l-15 -70q-22 3 -40 3q-37 0 -55 -15t-34 -58l-65 -181h94l-15 -69h-104l-138 -384q-28 -79 -64 -113q-35 -32 -111 -32q-26 0 -50 3l15 70q23 -3 40 -3q37 0 55.5 15.5t33.5 57.5l139 386h-89l15 69h99l64 179q28 79 64 113q35 32 111 32z" />
    <glyph glyph-name="uni01F4" unicode="&#x1f4;" horiz-adv-x="747" 
d="M536 915h112l-147 -144h-77zM730 479h-87q1 78 -55 125t-142 47q-112 0 -191 -76q-79 -77 -108 -204q-32 -144 24 -227q54 -83 170 -83q101 0 180 64q79 65 102 165h-227l16 76h303l-78 -366h-69l2 88q-93 -104 -236 -104q-156 0 -234 108t-39 289q33 153 138 250
q103 97 254 97q127 0 204 -68q76 -69 73 -181z" />
    <glyph glyph-name="uni01F5" unicode="&#x1f5;" horiz-adv-x="583" 
d="M400 738h106l-127 -144h-67zM487 443l16 73h76l-106 -496q-25 -114 -91 -171t-184 -57q-97 0 -149 45t-47 121h80q-1 -50 30 -74t94 -24q153 0 187 160l7 35q-70 -67 -165 -67q-114 0 -169 82t-27 209q25 117 104 184q79 65 182 65q113 0 162 -85zM246 60q72 0 127 48.5
t77 132.5l7 31q14 87 -21 135.5t-111 48.5t-129.5 -51t-71.5 -138q-21 -95 12.5 -151t109.5 -56z" />
    <glyph glyph-name="Aringacute" unicode="&#x1fa;" horiz-adv-x="696" 
d="M623 0h-86l-39 207h-324l-126 -207h-91l411 673q-57 35 -57 103q0 47 30.5 80.5t76.5 40.5l92 118h112l-130 -128q34 -14 53.5 -43.5t19.5 -67.5q0 -77 -70 -110zM484 822q-19 18 -46 18t-46 -18q-19 -19 -19 -46t19 -45q19 -19 46 -19t46 19q19 18 19 45t-19 46z
M225 291l-5 -8h264l-2 9q-24 127 -59 330q-107 -180 -198 -331z" />
    <glyph glyph-name="aringacute" unicode="&#x1fb;" horiz-adv-x="521" 
d="M434 1036h106l-127 -144h-67zM439 624q-38 -35 -91 -35t-90 35q-37 34 -37 87t37 87q37 35 90 35t91 -35q36 -34 36 -87t-36 -87zM394 757q-19 18 -46 18t-46 -18q-19 -19 -19 -46t19 -45q19 -19 46 -19t46 19q19 18 19 45t-19 46zM307 528q209 0 171 -180l-51 -240
q-9 -43 23 -43h25l-14 -65q-19 -3 -44 -3q-35 0 -54.5 18.5t-18.5 50.5q-63 -78 -171 -78q-88 0 -132 48.5t-26 129.5q25 112 213 132l82 9q83 9 95 60q10 44 -15.5 68t-89.5 24t-97 -23t-48 -79h-78q24 91 77 131t153 40zM187 56q63 0 112.5 34.5t66.5 97.5l18 81
q-25 -16 -74 -22l-77 -10q-124 -16 -138 -86q-9 -45 14.5 -70t77.5 -25z" />
    <glyph glyph-name="AEacute" unicode="&#x1fc;" horiz-adv-x="1032" 
d="M875 899h112l-147 -144h-77zM1104 712l-16 -76h-381l-48 -227h341l-16 -76h-341l-55 -257h377l-16 -76h-461l44 207h-318l-155 -207h-98l536 712h607zM534 636l-264 -353h278l75 353h-89z" />
    <glyph glyph-name="aeacute" unicode="&#x1fd;" horiz-adv-x="862" 
d="M547 738h106l-127 -144h-67zM646 528q110 0 159 -78q50 -81 22 -192l-8 -28h-369q-10 -83 21 -126t95 -43q106 0 150 96h80q-64 -169 -236 -169q-61 0 -106 28t-67 80q-85 -108 -213 -108q-89 0 -133 45.5t-27 127.5q24 117 220 138l75 8q83 9 96 69v2q8 42 -16 61.5
t-87 19.5q-68 0 -102 -23t-47 -79h-78q39 171 236 171q126 0 164 -71q74 71 171 71zM637 455q-60 0 -105.5 -40t-67.5 -113h289q9 67 -22.5 110t-93.5 43zM183 56q63 0 116 37q54 38 70 109q1 22 7 60q-28 -15 -67 -19l-77 -9q-66 -8 -97.5 -28.5t-40.5 -57.5
q-10 -44 13 -68t76 -24z" />
    <glyph glyph-name="Oslashacute" unicode="&#x1fe;" horiz-adv-x="752" 
d="M548 915h112l-147 -144h-77zM704 755l53 -47l-67 -76q84 -108 45 -289q-33 -158 -145 -258q-113 -101 -262 -101q-100 0 -171 47l-67 -75l-53 47l68 77q-85 110 -45 297q31 150 145 252q113 99 261 99q102 0 172 -48zM146 366q-28 -136 18 -219l418 470q-49 34 -123 34
q-113 0 -199 -78t-114 -207zM649 349q28 133 -19 215l-417 -470q49 -33 121 -33q116 0 202 79q86 80 113 209z" />
    <glyph glyph-name="oslashacute" unicode="&#x1ff;" horiz-adv-x="570" 
d="M407 738h106l-127 -144h-67zM500 557l50 -44l-50 -57q59 -77 31 -215q-23 -111 -104 -182q-82 -71 -185 -71q-72 0 -121 28l-50 -58l-50 44l49 57q-61 76 -31 217q23 111 105 181q82 71 184 71q72 0 122 -29zM121 268q-19 -85 7 -142l270 313q-29 17 -72 17
q-74 0 -130 -53q-57 -53 -75 -135zM449 250q18 88 -6 139l-270 -313q31 -16 71 -16q75 0 130.5 51.5t74.5 138.5z" />
    <glyph glyph-name="uni0218" unicode="&#x218;" horiz-adv-x="618" 
d="M621 505h-85q12 74 -25.5 110.5t-135.5 36.5q-158 0 -179 -105q-11 -58 19.5 -89.5t118.5 -52.5l60 -14q211 -49 174 -227q-18 -85 -92 -132.5t-191 -47.5q-134 0 -208 65q-73 64 -56 186h87q-23 -175 186 -175q81 0 129 29.5t59 83.5q13 60 -19 93t-123 54l-60 14
q-87 19 -137 74q-50 54 -32 145q17 83 89 129t181 46q145 0 201 -62q54 -63 39 -161zM260 -143h-50l18 84h97l-22 -103q-8 -39 -31.5 -58.5t-68.5 -22.5l-14 -1l9 43l11 1q38 3 46 35z" />
    <glyph glyph-name="uni0219" unicode="&#x219;" horiz-adv-x="467" 
d="M453 357h-79q8 55 -18.5 78.5t-88.5 23.5q-51 0 -84 -19.5t-40 -52.5q-7 -36 14 -56t76 -31l40 -8q90 -18 123.5 -59t17.5 -116q-12 -60 -67 -94.5t-148 -34.5q-109 0 -158 43.5t-39 132.5h80q-4 -58 25 -82.5t99 -24.5q114 0 129 71q9 41 -12.5 62t-85.5 33l-37 7
q-164 32 -134 169q13 62 68.5 95.5t140.5 33.5q98 0 143 -43.5t35 -127.5zM173 -139h-50l18 84h97l-22 -103q-8 -39 -31.5 -58.5t-68.5 -22.5l-14 -1l9 43l11 1q38 3 46 35z" />
    <glyph glyph-name="uni021A" unicode="&#x21a;" horiz-adv-x="611" 
d="M117 712h571l-16 -76h-242l-136 -636h-87l136 636h-242zM226 -127h-50l18 84h97l-22 -103q-8 -39 -31.5 -58.5t-68.5 -22.5l-14 -1l9 43l11 1q38 3 46 35z" />
    <glyph glyph-name="uni021B" unicode="&#x21b;" horiz-adv-x="311" 
d="M326 446h-106l-68 -321q-6 -30 4.5 -44t41.5 -14h47l-14 -67q-33 -3 -50 -3q-65 0 -93.5 34t-15.5 97l68 318h-85l15 70h85l31 146h80l-31 -146h106zM140 -127h-50l18 84h97l-22 -103q-8 -39 -31.5 -58.5t-68.5 -22.5l-14 -1l9 43l11 1q38 3 46 35z" />
    <glyph glyph-name="uni0237" unicode="&#x237;" horiz-adv-x="203" 
d="M-63 -199q-45 0 -56 1l15 69h40q41 0 54 59l125 586h80l-127 -595q-26 -120 -131 -120z" />
    <glyph glyph-name="uni0259" unicode="&#x259;" horiz-adv-x="545" 
d="M316 528q109 0 164 -76q56 -76 27 -210q-24 -111 -101 -182q-78 -72 -181 -72q-114 0 -166 78q-53 78 -24 192l8 28h389q11 83 -22 126t-101 43q-111 0 -158 -96h-84q69 169 249 169zM234 61q63 0 111 39.5t72 113.5h-305q-10 -67 23 -110t99 -43z" />
    <glyph glyph-name="h.sups" unicode="&#x2b0;" horiz-adv-x="466" 
d="M354 721q77 0 112.5 -50t15.5 -139l-57 -270h-79l58 275q25 115 -80 115q-48 0 -87 -30.5t-54 -88.5l-55 -271h-79l127 619h78l-47 -231q62 71 147 71z" />
    <glyph glyph-name="r.sups" unicode="&#x2b3;" horiz-adv-x="318" 
d="M363 719q28 0 33 -1l-16 -75h-21q-69 0 -113.5 -35t-57.5 -100l-52 -246h-79l95 450h76l-14 -68q58 75 149 75z" />
    <glyph glyph-name="circumflex" unicode="&#x2c6;" horiz-adv-x="400" 
d="M359 738l86 -144h-77l-73 97l-115 -97h-83l142 144h120z" />
    <glyph glyph-name="caron" unicode="&#x2c7;" horiz-adv-x="400" 
d="M273 640l115 97h83l-142 -144h-120l-86 144h77z" />
    <glyph glyph-name="uni02C9" unicode="&#x2c9;" horiz-adv-x="400" 
d="M421 594h-290l15 67h290z" />
    <glyph glyph-name="breve" unicode="&#x2d8;" horiz-adv-x="400" 
d="M282 589q-70 0 -107 40.5t-27 108.5h69q-4 -40 16 -62t57 -22q73 0 97 84h69q-15 -73 -61 -111t-113 -38z" />
    <glyph glyph-name="dotaccent" unicode="&#x2d9;" horiz-adv-x="400" 
d="M315 594h-85l20 98h85z" />
    <glyph glyph-name="ring" unicode="&#x2da;" horiz-adv-x="400" 
d="M387 624q-38 -35 -91 -35t-90 35q-37 34 -37 87t37 87q37 35 90 35t91 -35q36 -34 36 -87t-36 -87zM250 666q19 -19 46 -19t46 19q19 18 19 45t-19 46q-19 18 -46 18t-46 -18q-19 -19 -19 -46t19 -45z" />
    <glyph glyph-name="ogonek" unicode="&#x2db;" horiz-adv-x="400" 
d="M123 -208q-47 0 -76.5 28t-20.5 71q7 34 39.5 63t82.5 46h82q-114 -51 -125 -96q-5 -21 7.5 -33.5t33.5 -12.5q29 0 56 10l-14 -65q-30 -11 -65 -11z" />
    <glyph glyph-name="tilde" unicode="&#x2dc;" horiz-adv-x="400" 
d="M171 594h-68q14 63 42 93t73 30q32 0 78 -27q38 -23 60 -23q30 0 41 50h68q-14 -63 -42 -93t-73 -30q-28 0 -83 29q-40 21 -55 21q-30 0 -41 -50z" />
    <glyph glyph-name="hungarumlaut" unicode="&#x2dd;" horiz-adv-x="400" 
d="M216 594h-67l86 144h104zM380 594h-67l86 144h104z" />
    <glyph glyph-name="s.sups" unicode="&#x2e2;" horiz-adv-x="428" 
d="M237 251q-99 0 -145 38.5t-36 114.5h77q-4 -48 21.5 -69t87.5 -21q95 0 107 61q7 34 -11.5 50.5t-71.5 25.5l-46 8q-137 24 -111 146q12 55 60 85.5t130 30.5q90 0 131.5 -39t30.5 -109h-75q6 45 -18.5 65.5t-77.5 20.5q-91 0 -103 -60q-6 -32 11.5 -49t61.5 -24l44 -7
q148 -24 123 -148q-25 -120 -190 -120z" />
    <glyph glyph-name="gravecomb" unicode="&#x300;" 
d="M169 594h-66l-67 144h106z" />
    <glyph glyph-name="acutecomb" unicode="&#x301;" 
d="M41 594h-67l88 144h106z" />
    <glyph glyph-name="uni0302" unicode="&#x302;" 
d="M159 738l86 -144h-77l-73 97l-115 -97h-83l142 144h120z" />
    <glyph glyph-name="tildecomb" unicode="&#x303;" 
d="M-42 594h-68q14 63 42 93t73 30q31 0 78 -27q38 -23 60 -23q30 0 41 50h68q-14 -63 -42 -93t-73 -30q-28 0 -83 29q-40 21 -55 21q-30 0 -41 -50z" />
    <glyph glyph-name="uni0304" unicode="&#x304;" 
d="M209 594h-291l15 67h291z" />
    <glyph glyph-name="uni0306" unicode="&#x306;" 
d="M81 589q-70 0 -107 40.5t-27 108.5h69q-4 -40 16 -62t57 -22q73 0 97 84h69q-15 -73 -61 -111t-113 -38z" />
    <glyph glyph-name="uni0307" unicode="&#x307;" 
d="M105 594h-85l20 98h85z" />
    <glyph glyph-name="uni0308" unicode="&#x308;" 
d="M16 594h-85l21 98h85zM190 594h-85l21 98h85z" />
    <glyph glyph-name="uni030A" unicode="&#x30a;" 
d="M190 624q-38 -35 -91 -35t-90 35q-37 34 -37 87t37 87q37 35 90 35t91 -35q36 -34 36 -87t-36 -87zM53 666q19 -19 46 -19t46 19q19 18 19 45t-19 46q-19 18 -46 18t-46 -18q-19 -19 -19 -46t19 -45z" />
    <glyph glyph-name="uni030B" unicode="&#x30b;" 
d="M-39 594h-67l86 144h104zM125 594h-67l86 144h104z" />
    <glyph glyph-name="uni030C" unicode="&#x30c;" 
d="M78 640l115 97h83l-142 -144h-120l-86 144h77z" />
    <glyph glyph-name="uni0312" unicode="&#x312;" 
d="M125 778l14 1l-9 -43l-11 -1q-38 -3 -46 -35l-5 -22h50l-18 -84h-97l22 103q8 39 31.5 58.5t68.5 22.5z" />
    <glyph glyph-name="uni0313" unicode="&#x313;" 
d="M24 692l18 84h97l-22 -103q-8 -39 -31.5 -58.5t-68.5 -22.5l-14 -1l9 43l11 1q38 3 46 35l5 22h-50z" />
    <glyph glyph-name="dotbelowcomb" unicode="&#x323;" 
d="M-59 -176h-85l20 98h85z" />
    <glyph glyph-name="uni0324" unicode="&#x324;" 
d="M-147 -176h-85l21 98h85zM27 -176h-85l21 98h85z" />
    <glyph glyph-name="uni0325" unicode="&#x325;" 
d="M-5 -287q-37 -35 -90 -35t-91 35q-36 35 -36 87t36 87q38 35 91 35t90 -35q37 -34 37 -87t-37 -87zM-141 -246q19 -18 46 -18t46 18q19 19 19 46t-19 45q-19 19 -46 19t-46 -19q-19 -18 -19 -45t19 -46z" />
    <glyph glyph-name="uni0326" unicode="&#x326;" 
d="M-150 -127l18 84h97l-22 -103q-8 -39 -31.5 -58.5t-68.5 -22.5l-14 -1l9 43l11 1q38 3 46 35l5 22h-50z" />
    <glyph glyph-name="uni0327" unicode="&#x327;" 
d="M-74 -43h2q41 0 63.5 -27t14.5 -65q-20 -83 -148 -83q-38 0 -67 6l10 46q28 -4 62 -4q59 0 67 43q3 19 -9 31.5t-39 12.5q-19 0 -28 -1l8 38l51 51h64z" />
    <glyph glyph-name="uni0328" unicode="&#x328;" 
d="M-84 -208q-47 0 -76.5 28t-20.5 71q7 34 39.5 63t82.5 46h82q-114 -51 -125 -96q-5 -21 7.5 -33.5t33.5 -12.5q29 0 56 10l-14 -65q-30 -11 -65 -11z" />
    <glyph glyph-name="uni032E" unicode="&#x32e;" 
d="M-92 -227q-70 0 -107 40.5t-27 108.5h69q-4 -40 16 -62t57 -22q73 0 97 84h69q-15 -73 -61 -111t-113 -38z" />
    <glyph glyph-name="uni0331" unicode="&#x331;" 
d="M52 -145h-291l15 67h291z" />
    <glyph glyph-name="uni0335" unicode="&#x335;" 
d="M131 242h-282l14 65h282z" />
    <glyph glyph-name="uni0337" unicode="&#x337;" 
d="M210 512l-480 -555l-50 44l480 555z" />
    <glyph glyph-name="uni0338" unicode="&#x338;" 
d="M304 698l-667 -752l-53 47l667 752z" />
    <glyph glyph-name="uni0394" unicode="&#x394;" horiz-adv-x="655" 
d="M232 712h94l257 -636v-76h-605v76zM278 621q-80 -213 -127 -330l-85 -215h429l-87 216q-25 61 -130 329z" />
    <glyph glyph-name="uni03A9" unicode="&#x3a9;" horiz-adv-x="762" 
d="M316 0h-293v75h170v2q-77 51 -119.5 132t-42.5 175q0 159 94 250q92 91 245 91q152 0 243 -91t91 -250q0 -95 -41 -176t-118 -131v-2h170v-75h-292v67q97 51 146.5 132.5t49.5 184.5q0 130 -66 198t-183 68q-119 0 -186.5 -68t-67.5 -198q0 -101 51 -183.5t149 -133.5
v-67z" />
    <glyph glyph-name="uni03BC" unicode="&#x3bc;" horiz-adv-x="649" 
d="M455 224v292h80v-516h-76v77q-59 -89 -162 -89q-59 0 -102 36v-220h-80v712h80v-341q0 -115 118 -115q55 0 99 42q43 42 43 122z" />
    <glyph glyph-name="pi" unicode="&#x3c0;" horiz-adv-x="663" 
d="M593 516v-70h-85v-334q0 -24 8 -34t31 -10h36v-68q-30 -3 -47 -3q-55 0 -81.5 25.5t-26.5 82.5v341h-193v-446h-80v446h-85v70h523z" />
    <glyph glyph-name="d.sups" unicode="&#x1d48;" horiz-adv-x="518" 
d="M466 638l51 243h79l-131 -619h-76l14 64q-62 -74 -150 -74q-97 0 -146 69q-49 66 -23 189q20 94 84 152q64 59 154 59q106 0 144 -83zM173 367q27 -47 90 -47q62 0 109 44q46 43 63 122q17 76 -14.5 121.5t-96.5 45.5q-62 0 -103 -41t-57 -115q-18 -84 9 -130z" />
    <glyph glyph-name="t.sups" unicode="&#x1d57;" horiz-adv-x="305" 
d="M360 647h-93l-55 -263q-6 -31 2.5 -44t37.5 -13h40l-14 -63q-24 -4 -53 -4q-61 0 -83.5 31.5t-8.5 99.5l55 256h-73l13 65h74l27 128h79l-27 -128h92z" />
    <glyph glyph-name="Wgrave" unicode="&#x1e80;" horiz-adv-x="956" 
d="M551 899l57 -144h-66l-97 144h106zM777 361l171 351h89l-353 -712h-94l-25 363q-3 41 -13 243q-36 -80 -117 -243l-179 -363h-94l-51 712h85l23 -351q9 -151 12 -257q77 166 123 259l171 349h94l23 -349q10 -143 14 -258q53 115 121 256z" />
    <glyph glyph-name="wgrave" unicode="&#x1e81;" horiz-adv-x="778" 
d="M452 738l27 -144h-66l-67 144h106zM610 283l123 233h90l-282 -516h-84l-25 239q-8 66 -16 181q-48 -104 -89 -181l-126 -239h-84l-62 516h82l23 -233q6 -54 16 -189q55 112 95 189l122 233h84l22 -233q2 -18 16 -192q38 84 95 192z" />
    <glyph glyph-name="Wacute" unicode="&#x1e82;" horiz-adv-x="956" 
d="M646 899h112l-147 -144h-77zM777 361l171 351h89l-353 -712h-94l-25 363q-3 41 -13 243q-36 -80 -117 -243l-179 -363h-94l-51 712h85l23 -351q9 -151 12 -257q77 166 123 259l171 349h94l23 -349q10 -143 14 -258q53 115 121 256z" />
    <glyph glyph-name="wacute" unicode="&#x1e83;" horiz-adv-x="778" 
d="M501 738h106l-127 -144h-67zM610 283l123 233h90l-282 -516h-84l-25 239q-8 66 -16 181q-48 -104 -89 -181l-126 -239h-84l-62 516h82l23 -233q6 -54 16 -189q55 112 95 189l122 233h84l22 -233q2 -18 16 -192q38 84 95 192z" />
    <glyph glyph-name="Wdieresis" unicode="&#x1e84;" horiz-adv-x="956" 
d="M475 853h85l-21 -98h-85zM649 853h85l-21 -98h-85zM777 361l171 351h89l-353 -712h-94l-25 363q-3 41 -13 243q-36 -80 -117 -243l-179 -363h-94l-51 712h85l23 -351q9 -151 12 -257q77 166 123 259l171 349h94l23 -349q10 -143 14 -258q53 115 121 256z" />
    <glyph glyph-name="wdieresis" unicode="&#x1e85;" horiz-adv-x="778" 
d="M339 692h85l-21 -98h-85zM513 692h85l-21 -98h-85zM610 283l123 233h90l-282 -516h-84l-25 239q-8 66 -16 181q-48 -104 -89 -181l-126 -239h-84l-62 516h82l23 -233q6 -54 16 -189q55 112 95 189l122 233h84l22 -233q2 -18 16 -192q38 84 95 192z" />
    <glyph glyph-name="uni1E9E" unicode="&#x1e9e;" horiz-adv-x="659" 
d="M692 705l-12 -66l-249 -225q105 -9 158 -71q52 -63 30 -160q-21 -92 -97.5 -142.5t-196.5 -50.5q-77 0 -146 15l16 76q63 -15 136 -15q83 0 137 35t66 94q14 70 -26 109.5t-127 39.5q-32 0 -65 -3l16 74l251 228q-69 8 -145 8q-118 0 -179 -50t-83 -153l-95 -448h-84
l95 448q60 279 363 279q121 0 237 -22z" />
    <glyph glyph-name="Ygrave" unicode="&#x1ef2;" horiz-adv-x="658" 
d="M402 899l57 -144h-66l-97 144h106zM500 546l139 166h100l-362 -426l-61 -286h-84l61 286l-182 426h91l69 -167q16 -40 73 -188q96 117 156 189z" />
    <glyph glyph-name="ygrave" unicode="&#x1ef3;" horiz-adv-x="479" 
d="M306 738l27 -144h-66l-67 144h106zM321 302l119 214h89l-344 -594q-38 -66 -77 -92q-40 -26 -106 -26q-32 0 -57 3l14 67h47q68 0 106 65l27 45l-79 532h86l27 -215q17 -128 27 -223q58 112 121 224z" />
    <glyph glyph-name="thinspace" unicode="&#x2009;" horiz-adv-x="199" 
 />
    <glyph glyph-name="uni2011" unicode="&#x2011;" horiz-adv-x="369" 
d="M326 246h-289l16 72h289z" />
    <glyph glyph-name="endash" unicode="&#x2013;" horiz-adv-x="529" 
d="M490 246h-449l15 72h449z" />
    <glyph glyph-name="emdash" unicode="&#x2014;" horiz-adv-x="961" 
d="M929 246h-882l19 72h881z" />
    <glyph glyph-name="quoteleft" unicode="&#x2018;" horiz-adv-x="189" 
d="M241 713l-10 -53q-25 -4 -38 -19t-20 -48l-3 -17h43l-21 -98h-99l23 108q14 65 42.5 93.5t82.5 33.5z" />
    <glyph glyph-name="quoteright" unicode="&#x2019;" horiz-adv-x="189" 
d="M122 614l21 98h99l-23 -108q-14 -65 -42.5 -93.5t-82.5 -33.5l10 53q25 4 38 19t20 48l3 17h-43z" />
    <glyph glyph-name="quotesinglbase" unicode="&#x201a;" horiz-adv-x="189" 
d="M-8 0l21 98h99l-23 -108q-14 -65 -42.5 -93.5t-82.5 -33.5l10 53q25 4 38 19t20 48l3 17h-43z" />
    <glyph glyph-name="quotedblleft" unicode="&#x201c;" horiz-adv-x="327" 
d="M157 592l-3 -17h43l-21 -98h-99l23 108q14 65 42.5 93.5t82.5 33.5l-10 -53q-25 -4 -38 -19t-20 -48zM363 712l-10 -53q-25 -4 -38 -19t-20 -48l-3 -17h43l-21 -98h-99l23 108q14 65 42.5 93.5t82.5 33.5z" />
    <glyph glyph-name="quotedblright" unicode="&#x201d;" horiz-adv-x="327" 
d="M122 614l21 98h99l-23 -108q-14 -65 -42.5 -93.5t-82.5 -33.5l10 53q25 4 38 19t20 48l3 17h-43zM260 614l21 98h99l-23 -108q-14 -65 -42.5 -93.5t-82.5 -33.5l10 53q25 4 38 19t20 48l3 17h-43z" />
    <glyph glyph-name="quotedblbase" unicode="&#x201e;" horiz-adv-x="327" 
d="M-8 0l21 98h99l-23 -108q-14 -65 -42.5 -93.5t-82.5 -33.5l10 53q25 4 38 19t20 48l3 17h-43zM130 0l21 98h99l-23 -108q-14 -65 -42.5 -93.5t-82.5 -33.5l10 53q25 4 38 19t20 48l3 17h-43z" />
    <glyph glyph-name="dagger" unicode="&#x2020;" horiz-adv-x="571" 
d="M383 516h223l-17 -76h-222l-124 -586h-87l124 586h-222l17 76h221l42 196h87z" />
    <glyph glyph-name="daggerdbl" unicode="&#x2021;" horiz-adv-x="571" 
d="M608 516l-17 -76h-222l-66 -314h222l-17 -76h-221l-42 -196h-87l42 196h-223l17 76h222l66 314h-222l17 76h221l42 196h87l-42 -196h223z" />
    <glyph glyph-name="bullet" unicode="&#x2022;" horiz-adv-x="305" 
d="M227 199h-175l38 173h175z" />
    <glyph glyph-name="ellipsis" unicode="&#x2026;" horiz-adv-x="641" 
d="M91 0h-101l22 100h101zM321 0h-101l22 100h101zM541 0h-101l22 100h101z" />
    <glyph glyph-name="perthousand" unicode="&#x2030;" horiz-adv-x="1265" 
d="M211 291q-68 0 -105.5 40t-37.5 115q0 36 9 81q43 194 193 194q68 0 105.5 -39.5t37.5 -112.5q0 -35 -9 -79q-42 -199 -193 -199zM242 0h-82l532 712h82zM216 352q85 0 115 143q8 38 8 70q0 95 -75 95q-86 0 -116 -145q-8 -43 -8 -67q0 -96 76 -96zM661 -8
q-68 0 -105.5 40t-37.5 115q0 36 9 81q43 194 193 194q68 0 105.5 -39.5t37.5 -112.5q0 -36 -9 -79q-42 -199 -193 -199zM1037 -8q-68 0 -105.5 40t-37.5 115q0 36 9 81q43 194 193 194q68 0 105.5 -39.5t37.5 -112.5q0 -36 -9 -79q-42 -199 -193 -199zM666 53q85 0 115 143
q8 38 8 70q0 95 -75 95q-86 0 -116 -145q-8 -43 -8 -67q0 -96 76 -96zM1042 53q85 0 115 143q8 38 8 70q0 95 -75 95q-86 0 -116 -145q-8 -43 -8 -67q0 -96 76 -96z" />
    <glyph glyph-name="guilsinglleft" unicode="&#x2039;" horiz-adv-x="300" 
d="M75 304l199 139l-19 -97l-134 -93l94 -92l-19 -89l-141 139z" />
    <glyph glyph-name="guilsinglright" unicode="&#x203a;" horiz-adv-x="300" 
d="M85 354l19 89l141 -139l-20 -93l-199 -139l19 97l134 93z" />
    <glyph glyph-name="uni203D" unicode="&#x203d;" horiz-adv-x="507" 
d="M350 728q108 0 159.5 -52t30.5 -151q-16 -76 -129 -156q-63 -48 -77 -61q-19 -19 -28 -33q-18 -28 -31 -89h-79l60 310l16 76h87l-16 -76l-25 -106l23 17q10 8 28.5 21t24.5 18q19 16 37 39q19 23 25 49q13 57 -15 87.5t-96 30.5q-73 0 -117.5 -36.5t-67.5 -122.5h-82
q49 235 272 235zM245 0h-101l22 100h101z" />
    <glyph glyph-name="fraction" unicode="&#x2044;" horiz-adv-x="297" 
d="M-57 0h-79l532 712h79z" />
    <glyph glyph-name="zero.sups" unicode="&#x2070;" horiz-adv-x="376" 
d="M260 520q-85 0 -121.5 61.5t-12.5 174.5q43 194 193 194q85 0 121.5 -60.5t12.5 -170.5q-42 -199 -193 -199zM265 581q85 0 115 143q34 165 -67 165q-86 0 -116 -145q-17 -79 1.5 -121t66.5 -42z" />
    <glyph glyph-name="four.sups" unicode="&#x2074;" horiz-adv-x="374" 
d="M395 691h60l-14 -63h-60l-21 -100h-76l21 100h-208l16 73l258 240h77zM357 857l-179 -166h144z" />
    <glyph glyph-name="five.sups" unicode="&#x2075;" horiz-adv-x="352" 
d="M251 520q-65 0 -105.5 32.5t-41.5 86.5l70 3q1 -29 24 -47t58 -18q76 0 95 83q9 41 -10 65t-59 24q-57 0 -89 -47h-71l95 239h245l-13 -61h-190l-45 -108q30 32 86 32q65 0 99 -42.5t17 -113.5q-14 -60 -58 -94t-107 -34z" />
    <glyph glyph-name="six.sups" unicode="&#x2076;" horiz-adv-x="365" 
d="M319 892q-46 0 -75.5 -29t-47.5 -94l-3 -13q43 51 110 51q66 0 101 -43.5t21 -111.5q-12 -61 -56 -96.5t-108 -35.5q-66 0 -110 44q-47 47 -24 191q19 93 70 143.5t130 50.5q60 0 96.5 -30t35.5 -81h-70q-5 54 -70 54zM289 748q-38 0 -66.5 -20.5t-34.5 -47.5
q-11 -47 10.5 -75t67.5 -28q35 0 59.5 21.5t31.5 58.5q7 40 -11.5 65.5t-56.5 25.5z" />
    <glyph glyph-name="seven.sups" unicode="&#x2077;" horiz-adv-x="319" 
d="M210 528h-80q24 103 83.5 197t139.5 156h-214l13 60h287l-13 -62q-88 -69 -139 -151.5t-77 -199.5z" />
    <glyph glyph-name="eight.sups" unicode="&#x2078;" horiz-adv-x="362" 
d="M253 520q-77 0 -117.5 36.5t-28.5 100.5q6 32 32.5 57t66.5 33q-52 35 -39 100q10 49 50 75.5t99 26.5q67 0 103 -36t24 -93q-5 -25 -24.5 -45t-45.5 -28q67 -33 49 -117q-10 -49 -56 -79.5t-113 -30.5zM296 768q33 0 56.5 15.5t29.5 43.5q7 32 -12.5 50.5t-56.5 18.5
q-32 0 -55.5 -16t-28.5 -40q-7 -31 11 -51.5t56 -20.5zM258 576q83 0 98 66q9 39 -12 59.5t-67 20.5q-87 0 -101 -68q-7 -37 15 -57.5t67 -20.5z" />
    <glyph glyph-name="nine.sups" unicode="&#x2079;" horiz-adv-x="365" 
d="M241 520q-60 0 -96.5 30t-35.5 81h70q5 -54 70 -54q45 0 73.5 28.5t49.5 94.5q2 10 2 11q-45 -49 -109 -49q-66 0 -101 43.5t-21 111.5q12 61 56 96.5t108 35.5q66 0 110 -44q47 -47 24 -191q-19 -93 -70 -143.5t-130 -50.5zM279 721q38 0 66.5 20.5t34.5 47.5
q11 47 -10.5 75t-67.5 28q-35 0 -59.5 -21.5t-31.5 -58.5q-7 -40 11.5 -65.5t56.5 -25.5z" />
    <glyph glyph-name="plus.sups" unicode="&#x207a;" horiz-adv-x="296" 
d="M275 763h96v-59h-96v-96h-65v96h-95v59h95v97h65v-97z" />
    <glyph glyph-name="minus.sups" unicode="&#x207b;" horiz-adv-x="296" 
d="M370 704h-256v59h256v-59z" />
    <glyph glyph-name="parenleft.sups" unicode="&#x207d;" horiz-adv-x="158" 
d="M199 450h-69q-17 74 -16 135q0 63 18 149q20 89 46 152q25 62 74 134h69q-89 -131 -122 -286q-30 -141 0 -284z" />
    <glyph glyph-name="parenright.sups" unicode="&#x207e;" horiz-adv-x="158" 
d="M107 450h-69q89 131 122 286q30 141 0 284h69q17 -73 17 -135q-2 -66 -19 -149q-19 -87 -45 -151q-27 -65 -75 -135z" />
    <glyph glyph-name="n.sups" unicode="&#x207f;" horiz-adv-x="466" 
d="M354 721q77 0 112.5 -50t15.5 -139l-57 -270h-79l58 275q25 115 -80 115q-48 0 -86 -30.5t-53 -88.5l-57 -271h-79l95 449h76l-13 -61q62 71 147 71z" />
    <glyph glyph-name="zero.subs" unicode="&#x2080;" horiz-adv-x="376" 
d="M106 -204q-85 0 -121.5 61.5t-12.5 174.5q43 194 193 194q85 0 121.5 -60.5t12.5 -170.5q-42 -199 -193 -199zM111 -143q85 0 115 143q34 165 -67 165q-86 0 -116 -145q-17 -79 1.5 -121t66.5 -42z" />
    <glyph glyph-name="one.subs" unicode="&#x2081;" horiz-adv-x="242" 
d="M111 217h64l-88 -413h-77l63 295h-100l11 54q49 0 76.5 13.5t50.5 50.5z" />
    <glyph glyph-name="two.subs" unicode="&#x2082;" horiz-adv-x="333" 
d="M223 -196h-307l6 27q13 61 53 104t116 73l31 12q80 32 89 77q6 33 -11.5 50t-56.5 17q-81 0 -92 -74h-69q10 63 52 99t115 36t108 -37.5t23 -96.5q-17 -80 -142 -128l-31 -12q-46 -18 -69 -37.5t-32 -48.5h230z" />
    <glyph glyph-name="three.subs" unicode="&#x2083;" horiz-adv-x="349" 
d="M90 -204q-73 0 -114 39.5t-32 102.5h66q-4 -38 18 -61.5t66 -23.5q81 0 95 62q18 81 -74 81h-26l11 50h28q38 0 62.5 14.5t30.5 38.5q8 32 -11 50.5t-57 18.5q-37 0 -58.5 -15t-30.5 -50h-69q26 122 160 122q71 0 108 -35t24 -96q-5 -24 -26.5 -46t-50.5 -30
q64 -28 47 -109q-12 -50 -56 -81.5t-111 -31.5z" />
    <glyph glyph-name="four.subs" unicode="&#x2084;" horiz-adv-x="374" 
d="M241 -33h60l-14 -63h-60l-21 -100h-76l21 100h-208l16 73l258 240h77zM203 133l-179 -166h144z" />
    <glyph glyph-name="five.subs" unicode="&#x2085;" horiz-adv-x="352" 
d="M97 -204q-65 0 -105.5 32.5t-41.5 86.5l70 3q1 -29 24 -47t58 -18q76 0 95 83q9 41 -10 65t-59 24q-57 0 -89 -47h-71l95 239h245l-13 -61h-190l-45 -108q30 32 86 32q65 0 99 -42.5t17 -113.5q-14 -60 -58 -94t-107 -34z" />
    <glyph glyph-name="six.subs" unicode="&#x2086;" horiz-adv-x="365" 
d="M165 168q-46 0 -75.5 -29t-47.5 -94l-3 -13q43 51 110 51q66 0 101 -43.5t21 -111.5q-12 -61 -56 -96.5t-108 -35.5q-66 0 -110 44q-47 47 -24 191q19 93 70 143.5t130 50.5q60 0 96.5 -30t35.5 -81h-70q-5 54 -70 54zM135 24q-38 0 -66.5 -20.5t-34.5 -47.5
q-11 -47 10.5 -75t67.5 -28q35 0 59.5 21.5t31.5 58.5q7 40 -11.5 65.5t-56.5 25.5z" />
    <glyph glyph-name="seven.subs" unicode="&#x2087;" horiz-adv-x="319" 
d="M56 -196h-80q24 103 83.5 197t139.5 156h-214l13 60h287l-13 -62q-88 -69 -139 -151.5t-77 -199.5z" />
    <glyph glyph-name="eight.subs" unicode="&#x2088;" horiz-adv-x="362" 
d="M99 -204q-77 0 -117.5 36.5t-28.5 100.5q6 32 32.5 57t66.5 33q-52 35 -39 100q10 49 50 75.5t99 26.5q67 0 103 -36t24 -93q-5 -25 -24.5 -45t-45.5 -28q67 -33 49 -117q-10 -49 -56 -79.5t-113 -30.5zM142 44q33 0 56.5 15.5t29.5 43.5q7 32 -12.5 50.5t-56.5 18.5
q-32 0 -55.5 -16t-28.5 -40q-7 -31 11 -51.5t56 -20.5zM104 -148q83 0 98 66q9 39 -12 59.5t-67 20.5q-87 0 -101 -68q-7 -37 15 -57.5t67 -20.5z" />
    <glyph glyph-name="nine.subs" unicode="&#x2089;" horiz-adv-x="365" 
d="M87 -204q-60 0 -96.5 30t-35.5 81h70q5 -54 70 -54q45 0 73.5 28.5t49.5 94.5q2 10 2 11q-45 -49 -109 -49q-66 0 -101 43.5t-21 111.5q12 61 56 96.5t108 35.5q66 0 110 -44q47 -47 24 -191q-19 -93 -70 -143.5t-130 -50.5zM125 -3q38 0 66.5 20.5t34.5 47.5
q11 47 -10.5 75t-67.5 28q-35 0 -59.5 -21.5t-31.5 -58.5q-7 -40 11.5 -65.5t56.5 -25.5z" />
    <glyph glyph-name="plus.subs" unicode="&#x208a;" horiz-adv-x="296" 
d="M129 39h96v-59h-96v-96h-65v96h-95v59h95v97h65v-97z" />
    <glyph glyph-name="minus.subs" unicode="&#x208b;" horiz-adv-x="296" 
d="M225 -20h-256v59h256v-59z" />
    <glyph glyph-name="equal.subs" unicode="&#x208c;" horiz-adv-x="296" 
d="M223 37h-256v55h256v-55zM223 -73h-256v55h256v-55z" />
    <glyph glyph-name="uni208D" unicode="&#x208d;" horiz-adv-x="158" 
d="M47 -275h-69q-17 73 -17 135q2 66 19 149q20 89 46 152q25 62 74 134h69q-89 -131 -122 -286q-30 -141 0 -284z" />
    <glyph glyph-name="uni208E" unicode="&#x208e;" horiz-adv-x="158" 
d="M-47 -275h-69q89 131 122 286q30 141 0 284h69q17 -73 17 -135q-2 -66 -19 -149q-19 -86 -45 -152q-28 -64 -75 -134z" />
    <glyph glyph-name="n.subs" unicode="&#x2099;" horiz-adv-x="466" 
d="M257 263q77 0 112.5 -50t15.5 -139l-57 -270h-79l58 275q25 115 -80 115q-48 0 -86 -30.5t-53 -88.5l-57 -271h-79l95 449h76l-13 -61q62 71 147 71z" />
    <glyph glyph-name="Euro" unicode="&#x20ac;" horiz-adv-x="682" 
d="M357 61q165 0 229 178h83q-89 -254 -322 -254q-118 0 -185 73t-66 203h-85l15 68h75q0 10 9 49l6 26h-74l15 69h81q47 119 133 187t198 68q229 0 249 -230h-86q-8 78 -50 116t-123 38q-74 0 -134.5 -47t-96.5 -132h223l-15 -69h-232l-3 -13q-3 -13 -4 -18q-7 -35 -8 -44
h231l-15 -68h-222q-5 -200 174 -200z" />
    <glyph glyph-name="uni20B8" unicode="&#x20b8;" horiz-adv-x="611" 
d="M101 636l16 76h571l-16 -76h-571zM307 467h-242l16 76h571l-16 -76h-242l-100 -467h-87z" />
    <glyph glyph-name="uni20B9" unicode="&#x20b9;" horiz-adv-x="625" 
d="M672 712l-14 -67h-130q38 -39 39 -99h70l-14 -67h-64q-22 -77 -91 -121t-169 -44h-114l272 -314h-114l-279 324l4 20l10 46h231q126 0 161 89h-373l14 67h369q-8 90 -137 90h-213l16 76h526z" />
    <glyph glyph-name="uni20BA" unicode="&#x20ba;" horiz-adv-x="559" 
d="M444 372h88q-38 -177 -154.5 -274.5t-305.5 -97.5h-84l69 322l-71 -30l15 69l70 30l16 75l-70 -30l15 69l70 30l38 177h84l-30 -138l217 91l-15 -69l-216 -91l-16 -75l216 91l-15 -69l-216 -91l-61 -284q146 0 236 76.5t120 218.5z" />
    <glyph glyph-name="uni20BC" unicode="&#x20bc;" horiz-adv-x="703" 
d="M487 712l-39 -181q119 -2 173.5 -70.5t27.5 -198.5l-56 -262h-88l63 275q44 182 -135 184l-76 -358h-82l76 358h-7q-86 0 -132.5 -36.5t-62.5 -111.5l-66 -311h-83l67 313q24 110 94 164t197 54h8l39 181h82z" />
    <glyph glyph-name="uni20BF" unicode="&#x20bf;" horiz-adv-x="632" 
d="M633 504q-19 -91 -127 -138q115 -52 86 -189q-16 -77 -77 -123.5t-157 -52.5l-25 -117h-74l25 116h-69l-25 -116h-74l25 116h-130l151 712h129l25 116h74l-25 -116h69l25 116h74l-26 -123q76 -17 109.5 -70.5t16.5 -130.5zM552 516q12 58 -19.5 89t-106.5 31h-196
l-50 -234h206q69 0 111.5 30t54.5 84zM511 193q14 65 -22 99t-112 34h-213l-53 -250h233q68 0 111.5 31t55.5 86z" />
    <glyph glyph-name="uni2105" unicode="&#x2105;" horiz-adv-x="986" 
d="M242 290q-93 0 -141 64t-25 168q19 90 79.5 144.5t150.5 54.5q74 0 120 -45t46 -116h-76q-2 43 -29 69t-71 26q-55 0 -91 -39t-51 -106q-16 -74 9.5 -114t85.5 -40q95 0 129 102h76q-52 -168 -212 -168zM300 0h-82l532 712h82zM718 -9q-94 0 -144 63q-49 63 -27 169
q20 88 81 143q62 56 152 56q96 0 145 -64q50 -65 26 -172q-19 -88 -81 -141.5t-152 -53.5zM724 58q56 0 95.5 38t52.5 101q15 72 -12.5 115t-87.5 43q-54 0 -93 -38t-52 -102q-15 -72 12 -114.5t85 -42.5z" />
    <glyph glyph-name="uni2113" unicode="&#x2113;" horiz-adv-x="420" 
d="M254 58q47 0 81 26l22 -67q-47 -29 -108 -29q-63 0 -99 35.5t-36 94.5v86q-28 -6 -64 -9l-10 70q36 3 74 13v283q0 80 37 123.5t110 43.5q135 0 135 -168q0 -115 -52 -201.5t-150 -128.5v-108q0 -29 16.5 -46.5t43.5 -17.5zM194 563v-250q122 77 122 245q0 100 -58 100
q-64 0 -64 -95z" />
    <glyph glyph-name="uni2116" unicode="&#x2116;" horiz-adv-x="1094" 
d="M862 686q49 36 113 36q63 0 103 -38q38 -38 38 -104q0 -85 -56 -156q-55 -70 -149 -70q-65 0 -104 38t-39 103q0 122 94 191zM573 472l51 240h83l-152 -712h-99l-158 367q-58 134 -99 247q-34 -180 -76 -374l-51 -240h-83l152 712h99l158 -367q58 -134 99 -247
q38 199 76 374zM922 423q58 0 89 46t31 101q0 40 -20.5 62t-56.5 22q-59 0 -90 -46q-33 -46 -33 -101q0 -40 21 -62t59 -22z" />
    <glyph glyph-name="uni2117" unicode="&#x2117;" horiz-adv-x="819" 
d="M162 621q106 108 267 108t268 -108q107 -109 107 -265q0 -157 -107 -264q-107 -108 -268 -108t-267 108q-107 107 -107 264q0 156 107 265zM429 47q133 0 220 89q87 88 87 220t-87 221t-220 89q-132 0 -219 -89t-87 -221t87 -220q87 -89 219 -89zM294 569h173
q69 0 109 -36.5t40 -98.5t-40 -98t-109 -36h-104v-157h-69v426zM363 364h104q37 0 58 18.5t21 51.5q0 70 -79 70h-104v-140z" />
    <glyph glyph-name="trademark" unicode="&#x2122;" horiz-adv-x="631" 
d="M198 672h-81v40h206v-40h-81v-214h-44v214zM501 575l55 137h50v-254h-43v84q0 60 1 81q-1 -2 -7 -17l-59 -148h-35l-60 148l-7 16q1 -20 1 -80v-84h-43v254h50l57 -141q12 -27 19 -51z" />
    <glyph glyph-name="uni2126" unicode="&#x2126;" horiz-adv-x="762" 
d="M316 0h-293v75h170v2q-77 51 -119.5 132t-42.5 175q0 159 94 250q92 91 245 91q152 0 243 -91t91 -250q0 -95 -41 -176t-118 -131v-2h170v-75h-292v67q97 51 146.5 132.5t49.5 184.5q0 130 -66 198t-183 68q-119 0 -186.5 -68t-67.5 -198q0 -101 51 -183.5t149 -133.5
v-67z" />
    <glyph glyph-name="estimated" unicode="&#x212e;" horiz-adv-x="911" 
d="M161 623q109 105 295 105q185 0 295 -110q109 -110 109 -272h-646q-14 0 -14 -13v-176q0 -32 16 -47q98 -96 240 -96q74 0 141.5 31.5t110.5 83.5h73q-44 -62 -128.5 -102t-196.5 -40q-182 0 -294 104q-112 103 -112 265q0 160 111 267zM456 700q-142 0 -240 -98
q-16 -15 -16 -44v-176q0 -13 14 -13h481q14 0 14 13v176q0 29 -16 44q-100 98 -237 98z" />
    <glyph glyph-name="uni2153" unicode="&#x2153;" horiz-adv-x="785" 
d="M138 0h-79l532 712h79zM192 299h-77l63 295h-100l11 54q49 0 76.5 13.5t50.5 50.5h64zM568 -8q-73 0 -114 39.5t-32 102.5h66q-4 -38 18 -61.5t66 -23.5q81 0 95 62q18 81 -74 81h-26l11 50h28q38 0 62.5 14.5t30.5 38.5q8 32 -11 50.5t-57 18.5q-37 0 -58.5 -15
t-30.5 -50h-69q26 122 160 122q71 0 108 -35t24 -96q-5 -24 -26.5 -46t-50.5 -30q64 -28 47 -109q-12 -50 -56 -81.5t-111 -31.5z" />
    <glyph glyph-name="uni2154" unicode="&#x2154;" horiz-adv-x="915" 
d="M328 299h-307l6 27q13 61 53 104t116 73l31 12q80 32 89 77q6 33 -11.5 50t-56.5 17q-81 0 -92 -74h-69q10 63 52 99t115 36t108 -37.5t23 -96.5q-17 -80 -142 -128l-31 -12q-46 -18 -69 -37.5t-32 -48.5h230zM278 0h-79l532 712h79zM698 -8q-73 0 -114 39.5t-32 102.5
h66q-4 -38 18 -61.5t66 -23.5q81 0 95 62q18 81 -74 81h-26l11 50h28q38 0 62.5 14.5t30.5 38.5q8 32 -11 50.5t-57 18.5q-37 0 -58.5 -15t-30.5 -50h-69q26 122 160 122q71 0 108 -35t24 -96q-5 -24 -26.5 -46t-50.5 -30q64 -28 47 -109q-12 -50 -56 -81.5t-111 -31.5z" />
    <glyph glyph-name="uni2155" unicode="&#x2155;" horiz-adv-x="766" 
d="M130 0h-79l532 712h79zM192 299h-77l63 295h-100l11 54q49 0 76.5 13.5t50.5 50.5h64zM553 -8q-65 0 -105.5 32.5t-41.5 86.5l70 3q1 -29 24 -47t58 -18q76 0 95 83q9 41 -10 65t-59 24q-57 0 -89 -47h-71l95 239h245l-13 -61h-190l-45 -108q30 32 86 32q65 0 99 -42.5
t17 -113.5q-14 -60 -58 -94t-107 -34z" />
    <glyph glyph-name="uni2156" unicode="&#x2156;" horiz-adv-x="892" 
d="M328 299h-307l6 27q13 61 53 104t116 73l31 12q80 32 89 77q6 33 -11.5 50t-56.5 17q-81 0 -92 -74h-69q10 63 52 99t115 36t108 -37.5t23 -96.5q-17 -80 -142 -128l-31 -12q-46 -18 -69 -37.5t-32 -48.5h230zM256 0h-79l532 712h79zM679 -8q-65 0 -105.5 32.5
t-41.5 86.5l70 3q1 -29 24 -47t58 -18q76 0 95 83q9 41 -10 65t-59 24q-57 0 -89 -47h-71l95 239h245l-13 -61h-190l-45 -108q30 32 86 32q65 0 99 -42.5t17 -113.5q-14 -60 -58 -94t-107 -34z" />
    <glyph glyph-name="uni2157" unicode="&#x2157;" horiz-adv-x="868" 
d="M195 291q-73 0 -114 39.5t-32 102.5h66q-4 -38 18 -61.5t66 -23.5q81 0 95 62q18 81 -74 81h-26l11 50h28q38 0 62.5 14.5t30.5 38.5q8 32 -11 50.5t-57 18.5q-37 0 -58.5 -15t-30.5 -50h-69q26 122 160 122q71 0 108 -35t24 -96q-5 -24 -26.5 -46t-50.5 -30
q64 -28 47 -109q-12 -50 -56 -81.5t-111 -31.5zM232 0h-79l532 712h79zM655 -8q-65 0 -105.5 32.5t-41.5 86.5l70 3q1 -29 24 -47t58 -18q76 0 95 83q9 41 -10 65t-59 24q-57 0 -89 -47h-71l95 239h245l-13 -61h-190l-45 -108q30 32 86 32q65 0 99 -42.5t17 -113.5
q-14 -60 -58 -94t-107 -34z" />
    <glyph glyph-name="uni2158" unicode="&#x2158;" horiz-adv-x="888" 
d="M311 299h-76l21 100h-208l16 73l258 240h77l-53 -250h60l-14 -63h-60zM178 0l532 712h79l-532 -712h-79zM308 628l-179 -166h144zM886 413l-13 -61h-190l-45 -108q30 32 86 32q65 0 99 -42.5t17 -113.5q-14 -60 -58 -94t-107 -34q-65 0 -105.5 32.5t-41.5 86.5l70 3
q1 -29 24 -47t58 -18q76 0 95 83q9 41 -10 65t-59 24q-57 0 -89 -47h-71l95 239h245z" />
    <glyph glyph-name="uni2159" unicode="&#x2159;" horiz-adv-x="764" 
d="M51 0l532 712h79l-532 -712h-79zM192 299h-77l63 295h-100l11 54q49 0 76.5 13.5t50.5 50.5h64zM610 364q-45 0 -73.5 -28.5t-49.5 -94.5l-3 -13q44 51 110 51t101 -43.5t21 -111.5q-12 -61 -56 -96.5t-108 -35.5q-66 0 -110 44q-47 47 -24 191q19 93 70 143.5t130 50.5
q60 0 96.5 -30t35.5 -81h-70q-4 54 -70 54zM580 220q-38 0 -66.5 -20.5t-34.5 -47.5q-11 -47 10.5 -75t67.5 -28q35 0 59.5 21.5t31.5 58.5q7 40 -11.5 65.5t-56.5 25.5z" />
    <glyph glyph-name="uni215A" unicode="&#x215a;" horiz-adv-x="864" 
d="M367 419q-14 -60 -58 -94t-107 -34q-65 0 -105.5 32.5t-41.5 86.5l70 3q1 -29 24 -47t58 -18q76 0 95 83q9 41 -10 65t-59 24q-57 0 -89 -47h-71l95 239h245l-13 -61h-190l-45 -108q30 32 86 32q65 0 99 -42.5t17 -113.5zM153 0l532 712h79l-532 -712h-79zM710 364
q-45 0 -73.5 -28.5t-49.5 -94.5l-3 -13q44 51 110 51t101 -43.5t21 -111.5q-12 -61 -56 -96.5t-108 -35.5q-66 0 -110 44q-47 47 -24 191q19 93 70 143.5t130 50.5q60 0 96.5 -30t35.5 -81h-70q-4 54 -70 54zM680 220q-38 0 -66.5 -20.5t-34.5 -47.5q-11 -47 10.5 -75
t67.5 -28q35 0 59.5 21.5t31.5 58.5q7 40 -11.5 65.5t-56.5 25.5z" />
    <glyph glyph-name="oneeighth" unicode="&#x215b;" horiz-adv-x="786" 
d="M138 0h-79l532 712h79zM192 299h-77l63 295h-100l11 54q49 0 76.5 13.5t50.5 50.5h64zM565 -8q-77 0 -117.5 36.5t-28.5 100.5q6 32 32.5 57t66.5 33q-52 35 -39 100q10 49 50 75.5t99 26.5q67 0 103 -36t24 -93q-5 -25 -24.5 -45t-45.5 -28q67 -33 49 -117
q-10 -49 -56 -79.5t-113 -30.5zM608 240q33 0 56.5 15.5t29.5 43.5q7 32 -12.5 50.5t-56.5 18.5q-32 0 -55.5 -16t-28.5 -40q-7 -31 11 -51.5t56 -20.5zM570 48q83 0 98 66q9 39 -12 59.5t-67 20.5q-87 0 -101 -68q-7 -37 15 -57.5t67 -20.5z" />
    <glyph glyph-name="threeeighths" unicode="&#x215c;" horiz-adv-x="884" 
d="M195 291q-73 0 -114 39.5t-32 102.5h66q-4 -38 18 -61.5t66 -23.5q81 0 95 62q18 81 -74 81h-26l11 50h28q38 0 62.5 14.5t30.5 38.5q8 32 -11 50.5t-57 18.5q-37 0 -58.5 -15t-30.5 -50h-69q26 122 160 122q71 0 108 -35t24 -96q-5 -24 -26.5 -46t-50.5 -30
q64 -28 47 -109q-12 -50 -56 -81.5t-111 -31.5zM236 0h-79l532 712h79zM663 -8q-77 0 -117.5 36.5t-28.5 100.5q6 32 32.5 57t66.5 33q-52 35 -39 100q10 49 50 75.5t99 26.5q67 0 103 -36t24 -93q-5 -25 -24.5 -45t-45.5 -28q67 -33 49 -117q-10 -49 -56 -79.5t-113 -30.5z
M706 240q33 0 56.5 15.5t29.5 43.5q7 32 -12.5 50.5t-56.5 18.5q-32 0 -55.5 -16t-28.5 -40q-7 -31 11 -51.5t56 -20.5zM668 48q83 0 98 66q9 39 -12 59.5t-67 20.5q-87 0 -101 -68q-7 -37 15 -57.5t67 -20.5z" />
    <glyph glyph-name="fiveeighths" unicode="&#x215d;" horiz-adv-x="886" 
d="M202 291q-65 0 -105.5 32.5t-41.5 86.5l70 3q1 -29 24 -47t58 -18q76 0 95 83q9 41 -10 65t-59 24q-57 0 -89 -47h-71l95 239h245l-13 -61h-190l-45 -108q30 32 86 32q65 0 99 -42.5t17 -113.5q-14 -60 -58 -94t-107 -34zM238 0h-79l532 712h79zM665 -8
q-77 0 -117.5 36.5t-28.5 100.5q6 32 32.5 57t66.5 33q-52 35 -39 100q10 49 50 75.5t99 26.5q67 0 103 -36t24 -93q-5 -25 -24.5 -45t-45.5 -28q67 -33 49 -117q-10 -49 -56 -79.5t-113 -30.5zM708 240q33 0 56.5 15.5t29.5 43.5q7 32 -12.5 50.5t-56.5 18.5
q-32 0 -55.5 -16t-28.5 -40q-7 -31 11 -51.5t56 -20.5zM670 48q83 0 98 66q9 39 -12 59.5t-67 20.5q-87 0 -101 -68q-7 -37 15 -57.5t67 -20.5z" />
    <glyph glyph-name="seveneighths" unicode="&#x215e;" horiz-adv-x="771" 
d="M123 0h-79l532 712h79zM161 299h-80q24 103 83.5 197t139.5 156h-214l13 60h287l-13 -62q-88 -69 -139 -151.5t-77 -199.5zM550 -8q-77 0 -117.5 36.5t-28.5 100.5q6 32 32.5 57t66.5 33q-52 35 -39 100q10 49 50 75.5t99 26.5q67 0 103 -36t24 -93q-5 -25 -24.5 -45
t-45.5 -28q67 -33 49 -117q-10 -49 -56 -79.5t-113 -30.5zM593 240q33 0 56.5 15.5t29.5 43.5q7 32 -12.5 50.5t-56.5 18.5q-32 0 -55.5 -16t-28.5 -40q-7 -31 11 -51.5t56 -20.5zM555 48q83 0 98 66q9 39 -12 59.5t-67 20.5q-87 0 -101 -68q-7 -37 15 -57.5t67 -20.5z" />
    <glyph glyph-name="arrowleft" unicode="&#x2190;" horiz-adv-x="956" 
d="M263 395h599v-76h-600q51 -65 118 -154l126 -165h-103l-269 356l269 356h103l-126 -165q-2 -3 -16 -21t-42 -54.5t-59 -76.5z" />
    <glyph glyph-name="arrowup" unicode="&#x2191;" horiz-adv-x="956" 
d="M142 459l356 269l356 -269v-101l-165 125q-107 82 -151 116v-599h-82v597l-149 -114l-165 -125v101z" />
    <glyph glyph-name="arrowright" unicode="&#x2192;" horiz-adv-x="956" 
d="M490 712h103l269 -356l-269 -356h-103l126 165q67 89 118 154h-600v76h599q-31 40 -59 76.5t-42 54.5t-16 21z" />
    <glyph glyph-name="arrowdown" unicode="&#x2193;" horiz-adv-x="956" 
d="M689 229l165 125v-101l-356 -269l-356 269v101l165 -125l149 -114v597h82v-599q44 34 151 116z" />
    <glyph glyph-name="arrowboth" unicode="&#x2194;" horiz-adv-x="956" 
d="M603 712h104l269 -356l-269 -356h-104l126 165q67 89 118 154h-698q51 -65 118 -154l126 -165h-104l-269 356l269 356h104l-126 -165q-2 -3 -16 -21t-42 -54.5t-59 -76.5h696q-31 40 -59 76.5t-42 54.5t-16 21z" />
    <glyph glyph-name="arrowupdn" unicode="&#x2195;" horiz-adv-x="956" 
d="M538 741v-770q44 34 151 116l165 125v-101l-356 -269l-356 269v101l165 -125l149 -114v766l-149 -114l-165 -125v101l356 269l356 -269v-101l-165 125q-107 82 -151 116z" />
    <glyph glyph-name="uni2196" unicode="&#x2196;" horiz-adv-x="956" 
d="M821 586h-300q-163 0 -210 1l510 -493l-57 -62l-508 493q1 -47 1 -209v-282l-82 76v552h574z" />
    <glyph glyph-name="uni2197" unicode="&#x2197;" horiz-adv-x="956" 
d="M175 586l72 76h574v-552l-82 -76v282q0 162 1 209l-508 -493l-57 62l510 493q-47 -1 -210 -1h-300z" />
    <glyph glyph-name="uni2198" unicode="&#x2198;" horiz-adv-x="956" 
d="M739 392v282l82 -76v-552h-574l-72 76h300q163 0 210 -1l-510 493l57 62l508 -493q-1 47 -1 209z" />
    <glyph glyph-name="uni2199" unicode="&#x2199;" horiz-adv-x="956" 
d="M821 601l-510 -493q47 1 210 1h300l-72 -76h-574v552l82 76v-282q0 -162 -1 -209l508 493z" />
    <glyph glyph-name="partialdiff" unicode="&#x2202;" horiz-adv-x="588" 
d="M373 728q98 0 151.5 -59.5t53.5 -166.5q0 -153 -49 -282q-50 -131 -140 -192q-67 -44 -145 -44q-90 0 -145 52t-55 138q0 120 83 206q83 84 194 84q57 0 100 -27t60 -72q12 60 12 133q0 78 -31 116t-97 38q-45 0 -87 -31t-66 -85h-85q33 90 98.5 141t147.5 51zM246 60
q76 0 130 65t54 144q0 55 -30 87t-82 32q-74 0 -129 -63q-56 -64 -56 -146q0 -54 30.5 -86.5t82.5 -32.5z" />
    <glyph glyph-name="uni2206" unicode="&#x2206;" horiz-adv-x="655" 
d="M232 712h94l257 -636v-76h-605v76zM278 621q-80 -213 -127 -330l-85 -215h429l-87 216q-25 61 -130 329z" />
    <glyph glyph-name="product" unicode="&#x220f;" horiz-adv-x="695" 
d="M85 -196v908h565v-908h-84v832h-397v-832h-84z" />
    <glyph glyph-name="summation" unicode="&#x2211;" horiz-adv-x="575" 
d="M353 -120h217v-76h-525v76l297 378l-297 378v76h515v-76h-207q-114 0 -204 2l125 -159l157 -201v-40l-157 -201q-18 -24 -125 -159q90 2 204 2z" />
    <glyph glyph-name="minus" unicode="&#x2212;" horiz-adv-x="529" 
d="M509 320h-449v72h449v-72z" />
    <glyph glyph-name="uni2215" unicode="&#x2215;" horiz-adv-x="529" 
d="M53 0h-89l512 712h89z" />
    <glyph glyph-name="uni2219" unicode="&#x2219;" horiz-adv-x="527" 
d="M331 296h-121l26 120h122z" />
    <glyph glyph-name="radical" unicode="&#x221a;" horiz-adv-x="709" 
d="M416 107l213 605h85l-325 -908h-92l-152 418h-110v74h168l67 -190q25 -71 73 -210q39 118 73 211z" />
    <glyph glyph-name="infinity" unicode="&#x221e;" horiz-adv-x="794" 
d="M598 548q81 0 128.5 -52.5t47.5 -139.5t-47.5 -139.5t-128.5 -52.5q-101 0 -181 117q-79 -117 -181 -117q-81 0 -128.5 52.5t-47.5 139.5t47.5 139.5t128.5 52.5q102 0 181 -118q79 118 181 118zM236 233q74 0 144 123q-70 123 -144 123q-41 0 -69 -34t-28 -89t28 -89
t69 -34zM598 233q41 0 69 34t28 89t-28 89t-69 34q-74 0 -144 -123q70 -123 144 -123z" />
    <glyph glyph-name="integral" unicode="&#x222b;" horiz-adv-x="390" 
d="M111 -199q-25 0 -51 3v70q24 -3 46 -3q69 0 69 73v626q0 145 144 145q25 0 51 -3v-70q-24 3 -46 3q-69 0 -69 -73v-626q0 -145 -144 -145z" />
    <glyph glyph-name="approxequal" unicode="&#x2248;" horiz-adv-x="529" 
d="M130 373h-70q5 57 40 92t88 35q42 0 111 -28q56 -22 82 -22q49 0 58 55h70q-5 -57 -40 -92t-88 -35q-38 0 -107 27q-58 23 -86 23q-49 0 -58 -55zM130 193h-70q5 57 40 92t88 35q42 0 111 -28q56 -22 82 -22q49 0 58 55h70q-5 -57 -40 -92t-88 -35q-38 0 -107 27
q-58 23 -86 23q-49 0 -58 -55z" />
    <glyph glyph-name="notequal" unicode="&#x2260;" horiz-adv-x="529" 
d="M509 478v-67h-167l-41 -110h208v-67h-233l-40 -108l-68 22l32 86h-140v67h165l41 110h-206v67h231l41 110l67 -23l-32 -87h142z" />
    <glyph glyph-name="lessequal" unicode="&#x2264;" horiz-adv-x="529" 
d="M509 591v-86l-146 -58q-117 -47 -214 -80q83 -30 214 -81l146 -58v-86l-449 183v83zM509 0h-449v72h449v-72z" />
    <glyph glyph-name="greaterequal" unicode="&#x2265;" horiz-adv-x="529" 
d="M60 505v86l449 -183v-83l-449 -183v86l146 58q131 51 214 81q-97 33 -214 80zM509 0h-449v72h449v-72z" />
    <glyph glyph-name="uni2460" unicode="&#x2460;" horiz-adv-x="956" 
d="M159 685q139 134 339 134t340 -134q138 -135 138 -329t-138 -328q-140 -135 -340 -135q-201 0 -339 135q-139 133 -139 328q0 194 139 329zM215 80q116 -113 283 -113t283 113q115 112 115 276q0 165 -115 277t-283 112t-283 -112t-115 -277q0 -164 115 -276zM487 584h70
v-455h-81v342q-34 -17 -113 -17v59q56 3 82.5 17t41.5 54z" />
    <glyph glyph-name="uni2461" unicode="&#x2461;" horiz-adv-x="956" 
d="M159 685q139 134 339 134t340 -134q138 -135 138 -329t-138 -328q-140 -135 -340 -135q-201 0 -339 135q-139 133 -139 328q0 194 139 329zM215 80q116 -113 283 -113t283 113q115 112 115 276q0 165 -115 277t-283 112t-283 -112t-115 -277q0 -164 115 -276zM533 324
l-38 -16q-75 -33 -82 -88h250v-70h-339l1 31q3 72 35.5 118.5t108.5 76.5l31 12q78 32 78 88q0 69 -85 69q-41 0 -62.5 -22.5t-21.5 -59.5h-79q1 69 43 110.5t123 41.5q76 0 119 -38.5t43 -98.5q0 -100 -125 -154z" />
    <glyph glyph-name="uni2462" unicode="&#x2462;" horiz-adv-x="956" 
d="M159 685q139 134 339 134t340 -134q138 -135 138 -329t-138 -328q-140 -135 -340 -135q-201 0 -339 135q-139 133 -139 328q0 194 139 329zM215 80q116 -113 283 -113t283 113q115 112 115 276q0 165 -115 277t-283 112t-283 -112t-115 -277q0 -164 115 -276zM597 372
q36 -12 56 -41.5t20 -70.5q0 -63 -47 -101.5t-127 -38.5q-85 0 -131.5 41t-47.5 116h80q0 -91 99 -91q43 0 68 20.5t25 56.5q0 73 -97 73h-30v61h32q86 0 86 67q0 29 -22.5 46.5t-60.5 17.5q-80 0 -84 -70h-81q4 66 47 101t118 35q74 0 118 -33.5t44 -88.5q0 -32 -17.5 -59
t-47.5 -41z" />
    <glyph glyph-name="uni2463" unicode="&#x2463;" horiz-adv-x="956" 
d="M159 685q139 134 339 134t340 -134q138 -135 138 -329t-138 -328q-140 -135 -340 -135q-201 0 -339 135q-139 133 -139 328q0 194 139 329zM215 80q116 -113 283 -113t283 113q115 112 115 276q0 165 -115 277t-283 112t-283 -112t-115 -277q0 -164 115 -276zM512 594h85
v-275h66v-70h-66v-110h-84v110h-228v81zM517 319v182l-159 -182h159z" />
    <glyph glyph-name="uni2464" unicode="&#x2464;" horiz-adv-x="956" 
d="M159 685q139 134 339 134t340 -134q138 -135 138 -329t-138 -328q-140 -135 -340 -135q-201 0 -339 135q-139 133 -139 328q0 194 139 329zM215 80q116 -113 283 -113t283 113q115 112 115 276q0 165 -115 277t-283 112t-283 -112t-115 -277q0 -164 115 -276zM516 435
q69 0 110.5 -44t41.5 -114q0 -71 -48 -114t-122 -43q-70 0 -117.5 36.5t-55.5 98.5h79q7 -32 31.5 -50.5t62.5 -18.5q42 0 67 25.5t25 65.5q0 41 -25.5 67.5t-66.5 26.5q-65 0 -88 -51h-79l47 264h270v-70h-206l-20 -109q34 30 94 30z" />
    <glyph glyph-name="uni2465" unicode="&#x2465;" horiz-adv-x="956" 
d="M159 685q139 134 339 134t340 -134q138 -135 138 -329t-138 -328q-140 -135 -340 -135q-201 0 -339 135q-139 133 -139 328q0 194 139 329zM215 80q116 -113 283 -113t283 113q115 112 115 276q0 165 -115 277t-283 112t-283 -112t-115 -277q0 -164 115 -276zM509 435
q71 0 116 -45q44 -47 44 -113q0 -71 -48 -114t-123 -43q-64 0 -109 33q-72 54 -72 192q0 121 46.5 185t137.5 64q66 0 109 -33t53 -91h-80q-16 58 -82 58q-51 0 -77 -35.5t-31 -110.5q42 53 116 53zM432 211q25 -25 66 -25q42 0 67 25t25 64q0 40 -25.5 66t-66.5 26
q-29 2 -52 -15t-32.5 -42t-5.5 -53t24 -46z" />
    <glyph glyph-name="uni2466" unicode="&#x2466;" horiz-adv-x="956" 
d="M159 685q139 134 339 134t340 -134q138 -135 138 -329t-138 -328q-140 -135 -340 -135q-201 0 -339 135q-139 133 -139 328q0 194 139 329zM215 80q116 -113 283 -113t283 113q115 112 115 276q0 165 -115 277t-283 112t-283 -112t-115 -277q0 -164 115 -276zM580 502
h-235v70h317v-71q-82 -76 -119.5 -166t-38.5 -218h-87q1 110 45 214q43 100 118 171z" />
    <glyph glyph-name="uni2467" unicode="&#x2467;" horiz-adv-x="956" 
d="M159 685q139 134 339 134t340 -134q138 -135 138 -329t-138 -328q-140 -135 -340 -135q-201 0 -339 135q-139 133 -139 328q0 194 139 329zM215 80q116 -113 283 -113t283 113q115 112 115 276q0 165 -115 277t-283 112t-283 -112t-115 -277q0 -164 115 -276zM596 370
q79 -34 79 -116q0 -60 -47 -97t-130 -37q-82 0 -129.5 37t-47.5 97q0 82 79 116q-58 34 -58 99q0 56 42 90.5t114 34.5t113.5 -34.5t41.5 -90.5q0 -65 -57 -99zM558 515q-36 30 -91.5 13t-50.5 -63q0 -32 23 -51t59 -19q37 0 60 19t23 51q0 30 -23 50zM426 206
q25 -22 72 -22t72 22q25 21 25 57t-25.5 57t-71.5 21t-71.5 -21t-25.5 -57t25 -57z" />
    <glyph glyph-name="uni2468" unicode="&#x2468;" horiz-adv-x="956" 
d="M159 685q139 134 339 134t340 -134q138 -135 138 -329t-138 -328q-140 -135 -340 -135q-201 0 -339 135q-139 133 -139 328q0 194 139 329zM215 80q116 -113 283 -113t283 113q115 112 115 276q0 165 -115 277t-283 112t-283 -112t-115 -277q0 -164 115 -276zM608 561
q73 -55 73 -193q0 -119 -45.5 -183.5t-133.5 -64.5q-69 0 -113 32.5t-54 90.5h79q16 -57 88 -57q93 0 102 145q-44 -53 -115 -53q-72 0 -115 46q-45 45 -45 112q0 71 48 114.5t123 43.5q64 0 108 -33zM500 346q41 0 66 26.5t25 66.5q0 39 -25 64t-66 25q-42 0 -67.5 -25
t-25.5 -64q0 -40 26 -66.5t67 -26.5z" />
    <glyph glyph-name="uni24EA" unicode="&#x24ea;" horiz-adv-x="956" 
d="M838 28q-140 -135 -340 -135q-201 0 -339 135q-139 133 -139 328q0 194 139 329q139 134 339 134t340 -134q138 -135 138 -329t-138 -328zM215 80q116 -113 283 -113t283 113q115 112 115 276q0 165 -115 277t-283 112t-283 -112t-115 -277q0 -164 115 -276zM636 183
q-46 -63 -138 -63t-138 63q-47 64 -47 173q0 112 47.5 175t137.5 63t137.5 -63t47.5 -175q0 -109 -47 -173zM398 356q0 -167 100 -167t100 167q0 168 -100 168t-100 -168z" />
    <glyph glyph-name="uni24FF" unicode="&#x24ff;" horiz-adv-x="956" 
d="M740 -46q-109 -61 -242 -61t-242 61t-173 169q-63 107 -63 233q0 128 63 234t173 168q109 61 242 61t242 -61q110 -62 173 -168t63 -234q0 -126 -63 -233q-64 -108 -173 -169zM363 182q48 -61 135 -61t135 61q48 62 48 174q0 113 -47 175q-48 61 -136 61q-89 0 -135 -61
q-48 -61 -48 -175q0 -112 48 -174zM600 356q0 -169 -102 -169t-102 169q0 170 102 170t102 -170z" />
    <glyph glyph-name="filledbox" unicode="&#x25a0;" horiz-adv-x="956" 
d="M952 -88h-908v888h908v-888z" />
    <glyph glyph-name="uni25A1" unicode="&#x25a1;" horiz-adv-x="956" 
d="M952 -88h-908v888h908v-888zM124 728v-744h748v744h-748z" />
    <glyph glyph-name="lozenge" unicode="&#x25ca;" horiz-adv-x="568" 
d="M262 712h84l217 -356l-217 -356h-84l-217 356zM139 356l165 -276l165 276l-165 276z" />
    <glyph glyph-name="circle" unicode="&#x25cb;" horiz-adv-x="956" 
d="M838 28q-140 -135 -340 -135q-201 0 -339 135q-139 133 -139 328q0 194 139 329q139 134 339 134t340 -134q138 -135 138 -329t-138 -328zM215 80q116 -113 283 -113t283 113q115 112 115 276q0 165 -115 277t-283 112t-283 -112t-115 -277q0 -164 115 -276z" />
    <glyph glyph-name="uni25CF" unicode="&#x25cf;" horiz-adv-x="956" 
d="M740 -46q-109 -61 -242 -61t-242 61t-173 169q-63 107 -63 233q0 128 63 234t173 168q109 61 242 61t242 -61q110 -62 173 -168t63 -234q0 -126 -63 -233q-64 -108 -173 -169z" />
    <glyph glyph-name="uni2776" unicode="&#x2776;" horiz-adv-x="956" 
d="M740 -46q-109 -61 -242 -61t-242 61t-173 169q-63 107 -63 233q0 128 63 234t173 168q109 61 242 61t242 -61q110 -62 173 -168t63 -234q0 -126 -63 -233q-64 -108 -173 -169zM471 454v-325h85v455h-71q-15 -41 -42.5 -56t-81.5 -15v-59h110z" />
    <glyph glyph-name="uni2777" unicode="&#x2777;" horiz-adv-x="956" 
d="M740 -46q-109 -61 -242 -61t-242 61t-173 169q-63 107 -63 233q0 128 63 234t173 168q109 61 242 61t242 -61q110 -62 173 -168t63 -234q0 -126 -63 -233q-64 -108 -173 -169zM331 171l-1 -29h335v66h-250q6 60 83 92l38 16q64 27 94 63.5t30 88.5q0 59 -42 97t-118 38
q-80 0 -121.5 -40t-43.5 -108h76q1 39 23.5 60.5t62.5 21.5q87 0 87 -71q0 -59 -79 -90l-31 -12q-75 -30 -107.5 -76.5t-35.5 -116.5z" />
    <glyph glyph-name="uni2778" unicode="&#x2778;" horiz-adv-x="956" 
d="M740 -46q-109 -61 -242 -61t-242 61t-173 169q-63 107 -63 233q0 128 63 234t173 168q109 61 242 61t242 -61q110 -62 173 -168t63 -234q0 -126 -63 -233q-64 -108 -173 -169zM499 121q78 0 125 38t47 101q0 41 -21.5 71t-58.5 41q31 13 49.5 40t18.5 60q0 55 -42.5 87.5
t-116.5 32.5q-73 0 -115.5 -34.5t-46.5 -97.5h75q7 70 87 70q39 0 62 -18t23 -48q0 -69 -88 -69h-30v-57h28q99 0 99 -76q0 -36 -26 -57.5t-69 -21.5q-99 0 -101 92h-76q1 -74 47 -114t130 -40z" />
    <glyph glyph-name="uni2779" unicode="&#x2779;" horiz-adv-x="956" 
d="M740 -46q-109 -61 -242 -61t-242 61t-173 169q-63 107 -63 233q0 128 63 234t173 168q109 61 242 61t242 -61q110 -62 173 -168t63 -234q0 -126 -63 -233q-64 -108 -173 -169zM515 251v-110h80v110h66v66h-66v275h-82l-226 -263v-78h228zM519 317h-164l164 189v-189z" />
    <glyph glyph-name="uni277A" unicode="&#x277a;" horiz-adv-x="956" 
d="M740 -46q-109 -61 -242 -61t-242 61t-173 169q-63 107 -63 233q0 128 63 234t173 168q109 61 242 61t242 -61q110 -62 173 -168t63 -234q0 -126 -63 -233q-64 -108 -173 -169zM499 121q73 0 120 43q48 42 48 113q0 69 -41 112.5t-108 43.5q-64 0 -98 -33l21 116h207v66
h-267l-47 -260h77q25 51 88 51q42 0 68 -27t26 -69q0 -41 -26 -67.5t-68 -26.5q-77 0 -95 70h-76q9 -60 55.5 -96t115.5 -36z" />
    <glyph glyph-name="uni277B" unicode="&#x277b;" horiz-adv-x="956" 
d="M740 -46q-109 -61 -242 -61t-242 61t-173 169q-63 107 -63 233q0 128 63 234t173 168q109 61 242 61t242 -61q110 -62 173 -168t63 -234q0 -126 -63 -233q-64 -108 -173 -169zM498 121q75 0 122 43t47 113q0 68 -44 112q-46 44 -114 44q-72 0 -117 -53v6q9 144 110 144
q67 0 83 -58h76q-10 56 -52.5 88t-106.5 32q-90 0 -136.5 -63t-46.5 -184q0 -137 71 -191q44 -33 108 -33zM498 183q-41 0 -67 25.5t-26 66.5t26.5 67.5t66.5 26.5q41 0 68 -26.5t27 -67.5q0 -40 -26.5 -66t-68.5 -26z" />
    <glyph glyph-name="uni277C" unicode="&#x277c;" horiz-adv-x="956" 
d="M740 -46q-109 -61 -242 -61t-242 61t-173 169q-63 107 -63 233q0 128 63 234t173 168q109 61 242 61t242 -61q110 -62 173 -168t63 -234q0 -126 -63 -233q-64 -108 -173 -169zM419 119h83q1 127 38.5 217t119.5 166v68h-313v-66h239q-75 -67 -120 -170q-46 -105 -47 -215
z" />
    <glyph glyph-name="uni277D" unicode="&#x277d;" horiz-adv-x="956" 
d="M740 -46q-109 -61 -242 -61t-242 61t-173 169q-63 107 -63 233q0 128 63 234t173 168q109 61 242 61t242 -61q110 -62 173 -168t63 -234q0 -126 -63 -233q-64 -108 -173 -169zM371 158q46 -37 127 -37t128 37q47 36 47 96q0 82 -81 116q59 35 59 99q0 56 -41.5 89.5
t-111.5 33.5t-112 -33.5t-42 -89.5q0 -31 16.5 -57.5t44.5 -41.5q-82 -33 -82 -116q0 -60 48 -96zM560 413q-25 -20 -62 -20q-38 0 -61 20t-23 52t23 51q22 19 61 19t62 -19q23 -20 23 -51q0 -32 -23 -52zM571 203q-27 -21 -73 -21t-72 21q-27 21 -27 59t27 60q26 21 72 21
t73 -21q26 -23 26 -60q0 -38 -26 -59z" />
    <glyph glyph-name="uni277E" unicode="&#x277e;" horiz-adv-x="956" 
d="M740 -46q-109 -61 -242 -61t-242 61t-173 169q-63 107 -63 233q0 128 63 234t173 168q109 61 242 61t242 -61q110 -62 173 -168t63 -234q0 -126 -63 -233q-64 -108 -173 -169zM496 121q90 0 136.5 63t46.5 184q0 136 -72 191q-42 33 -107 33q-75 0 -122 -43t-47 -113
q0 -68 45 -112q44 -44 113 -44q73 0 112 48l5 6v-4q-5 -75 -31.5 -111t-78.5 -36q-67 0 -83 58h-76q10 -56 52.5 -88t106.5 -32zM500 344q-42 0 -68.5 27t-26.5 68q0 40 26.5 65.5t68.5 25.5q41 0 67 -25.5t26 -65.5q0 -41 -26.5 -68t-66.5 -27z" />
    <glyph glyph-name="uni2E18" unicode="&#x2e18;" horiz-adv-x="507" 
d="M262 586h101l-22 -100h-101zM347 93h82q-49 -235 -272 -235q-108 0 -159.5 52t-30.5 151q16 76 129 156q68 51 78 61q16 16 27 33q18 28 31 89h79l-60 -310l-16 -76h-87l16 76l25 106l-23 -17q-63 -45 -89 -77q-21 -27 -26 -50q-13 -57 15 -87.5t96 -30.5
q73 0 117.5 36.5t67.5 122.5z" />
    <glyph glyph-name="uniF8FF" unicode="&#xf8ff;" horiz-adv-x="746" 
d="M241 613l-28 -130h-35l67 316h35l-24 -115q31 34 75 34q40 0 57 -24t7 -69l-31 -142h-35l30 144q12 59 -37 59q-29 0 -51.5 -19.5t-29.5 -53.5zM714 799l-67 -316h-35l67 316h35zM494 481q-50 0 -74 34.5t-11 92.5q11 51 45.5 82t79.5 31q50 0 74.5 -35.5t10.5 -84.5
q-1 -2 -4 -13h-172q-11 -75 54 -75q51 0 70 43h37q-28 -75 -110 -75zM530 688q-60 0 -81 -68h135q5 30 -9.5 49t-44.5 19zM668 346h-172q-10 -75 54 -75q51 0 70 43h37q-29 -75 -110 -75q-50 0 -74 34.5t-11 92.5q11 51 45.5 82t79.5 31q50 0 74.5 -35.5t10.5 -84.5
q0 -2 -4 -13zM496 473l-140 -229h-37l-41 229h38l16 -102q3 -15 12 -89q16 30 52 90l60 101h40zM583 446q-60 0 -81 -68h135q5 30 -9.5 49t-44.5 19zM273 264h-38l9 44h38zM156 197l-30 -142q-6 -26 20 -26h21l-6 -30q-7 -1 -23 -1q-60 0 -48 58l30 141h-38l7 31h38l14 65
h35l-14 -65h48l-7 -31h-47zM349 26q52 0 70 52h38q-29 -84 -113 -84q-48 0 -72 35.5t-11 95.5q10 49 43.5 79t80.5 30q41 0 64 -22.5t22 -60.5h-37q-1 24 -15.5 37.5t-38.5 13.5q-30 0 -52 -22t-31 -63q-9 -44 5.5 -67.5t46.5 -23.5zM608 234q44 0 62 -21t10 -60l-22 -107
q-6 -31 -1 -46h-35q-5 11 0 31q-28 -36 -79 -36q-37 0 -57.5 20t-12.5 54q12 51 90 61l44 6q36 5 41 26q4 21 -7 31.5t-36 10.5q-31 0 -47 -10t-22 -36h-34q13 76 106 76zM180 0l49 229h36l-49 -229h-36zM549 26q67 0 83 64l7 31q-12 -9 -35 -12l-41 -6q-48 -7 -54 -36
q-4 -20 7 -30.5t33 -10.5z" />
    <glyph glyph-name="uniFEFF" unicode="&#xfeff;" 
 />
    <glyph glyph-name="null" 
 />
    <glyph glyph-name="Adieresis.ss01" horiz-adv-x="696" 
d="M401 766q-16 -16 -38 -16t-38 16t-16 38t16 38t38 16t38 -16t16 -38t-16 -38zM577 766q-16 -16 -38 -16t-38 16t-16 38t16 38t38 16t38 -16t16 -38t-16 -38zM623 0h-86l-39 207h-324l-126 -207h-91l435 712h94zM225 291l-5 -8h264l-2 9q-32 175 -59 329
q-67 -114 -198 -330z" />
    <glyph glyph-name="Cdotaccent.ss01" horiz-adv-x="701" 
d="M520 782q-16 -16 -38 -16t-38 16t-16 38t16 38t38 16t38 -16t16 -38t-16 -38zM315 -16q-153 0 -223 105q-73 104 -32 292q31 152 143 250q109 97 250 97q110 0 183 -61q71 -61 76 -184h-86q-10 168 -180 168q-109 0 -191 -76t-109 -203q-32 -147 15.5 -229t159.5 -82
q91 0 162.5 51t102.5 147h85q-41 -133 -138 -204q-98 -71 -218 -71z" />
    <glyph glyph-name="Edieresis.ss01" horiz-adv-x="585" 
d="M367 766q-16 -16 -38 -16t-38 16t-16 38t16 38t38 16t38 -16t16 -38t-16 -38zM543 766q-16 -16 -38 -16t-38 16t-16 38t16 38t38 16t38 -16t16 -38t-16 -38zM657 712l-16 -76h-411l-49 -227h371l-16 -76h-371l-55 -257h407l-16 -76h-491l152 712h495z" />
    <glyph glyph-name="Edotaccent.ss01" horiz-adv-x="585" 
d="M461 766q-16 -16 -38 -16t-38 16t-16 38t16 38t38 16t38 -16t16 -38t-16 -38zM657 712l-16 -76h-411l-49 -227h371l-16 -76h-371l-55 -257h407l-16 -76h-491l152 712h495z" />
    <glyph glyph-name="uni0122.ss01" horiz-adv-x="747" 
d="M730 479h-87q1 78 -55 125t-142 47q-112 0 -191 -76q-79 -77 -108 -204q-32 -144 24 -227q54 -83 170 -83q101 0 180 64q79 65 102 165h-227l16 76h303l-78 -366h-69l2 88q-93 -104 -236 -104q-156 0 -234 108t-39 289q33 153 138 250q103 97 254 97q127 0 204 -68
q76 -69 73 -181zM286 -67q15 15 38 15.5t39.5 -16.5t14.5 -47q0 -47 -34.5 -84t-90.5 -44l10 43q45 9 60 50q-33 -4 -47.5 28.5t10.5 54.5z" />
    <glyph glyph-name="Gdotaccent.ss01" horiz-adv-x="747" 
d="M521 782q-16 -16 -38 -16t-38 16t-16 38t16 38t38 16t38 -16t16 -38t-16 -38zM730 479h-87q1 78 -55 125t-142 47q-112 0 -191 -76q-79 -77 -108 -204q-32 -144 24 -227q54 -83 170 -83q101 0 180 64q79 65 102 165h-227l16 76h303l-78 -366h-69l2 88q-93 -104 -236 -104
q-156 0 -234 108t-39 289q33 153 138 250q103 97 254 97q127 0 204 -68q76 -69 73 -181z" />
    <glyph glyph-name="Idieresis.ss01" horiz-adv-x="214" 
d="M172 766q-16 -16 -38 -16t-38 16t-16 38t16 38t38 16t38 -16t16 -38t-16 -38zM328 766q-16 -16 -38 -16t-38 16t-16 38t16 38t38 16t38 -16t16 -38t-16 -38zM94 0h-84l152 712h84z" />
    <glyph glyph-name="Idotaccent.ss01" horiz-adv-x="214" 
d="M261 766q-16 -16 -38 -16t-38 16t-16 38t16 38t38 16t38 -16t16 -38t-16 -38zM94 0h-84l152 712h84z" />
    <glyph glyph-name="uni0136.ss01" horiz-adv-x="664" 
d="M631 712h115l-367 -291l216 -421h-93l-192 368l-165 -131l-50 -237h-84l151 712h84l-78 -369zM243 -53q15 15 38 15.5t39.5 -16.5t14.5 -47q0 -47 -34.5 -84t-90.5 -44l10 43q45 9 60 50q-33 -4 -47.5 28.5t10.5 54.5z" />
    <glyph glyph-name="uni013B.ss01" horiz-adv-x="527" 
d="M246 712l-136 -636h358l-16 -76h-442l152 712h84zM184 -53q15 15 38 15.5t39.5 -16.5t14.5 -47q0 -47 -34.5 -84t-90.5 -44l10 43q45 9 60 50q-33 -4 -47.5 28.5t10.5 54.5z" />
    <glyph glyph-name="Ldot.ss01" horiz-adv-x="527" 
d="M162 712h84l-136 -636h358l-16 -76h-442zM418 311q-26 0 -43 16t-17 41t17 41.5t43 16.5q24 0 40.5 -16t16.5 -40q0 -25 -16.5 -42t-40.5 -17z" />
    <glyph glyph-name="uni0145.ss01" horiz-adv-x="696" 
d="M573 472l51 240h83l-152 -712h-99l-158 367q-58 134 -99 247q-37 -192 -76 -374l-51 -240h-83l152 712h99l158 -367q63 -147 99 -248q34 177 76 375zM215 -53q15 15 38 15.5t39.5 -16.5t14.5 -47q0 -47 -34.5 -84t-90.5 -44l10 43q45 9 60 50q-33 -4 -47.5 28.5
t10.5 54.5z" />
    <glyph glyph-name="Odieresis.ss01" horiz-adv-x="752" 
d="M439 782q-16 -16 -38 -16t-38 16t-16 38t16 38t38 16t38 -16t16 -38t-16 -38zM615 782q-16 -16 -38 -16t-38 16t-16 38t16 38t38 16t38 -16t16 -38t-16 -38zM328 -16q-156 0 -231 107q-75 106 -37 286q31 150 145 252q113 99 261 99q155 0 230 -105t39 -280
q-33 -158 -145 -258q-113 -101 -262 -101zM334 61q116 0 202 79q86 80 113 209q29 140 -22 221t-168 81q-113 0 -199 -78t-114 -207q-30 -141 20.5 -223t167.5 -82z" />
    <glyph glyph-name="uni0156.ss01" horiz-adv-x="646" 
d="M162 712h281q114 0 175 -55q63 -56 40 -160q-12 -57 -55.5 -98t-104.5 -56q52 -13 70.5 -50t6.5 -107l-15 -95q-9 -59 7 -91h-87q-15 31 -3 95l16 92q10 62 -13.5 89.5t-87.5 27.5h-233l-64 -304h-84zM572 499q15 69 -21 103t-114 34h-207l-54 -256h227q65 0 111 32
t58 87zM236 -53q15 15 38 15.5t39.5 -16.5t14.5 -47q0 -47 -34.5 -84t-90.5 -44l10 43q45 9 60 50q-33 -4 -47.5 28.5t10.5 54.5z" />
    <glyph glyph-name="uni0218.ss01" horiz-adv-x="618" 
d="M621 505h-85q12 74 -25.5 110.5t-135.5 36.5q-158 0 -179 -105q-11 -58 19.5 -89.5t118.5 -52.5l60 -14q211 -49 174 -227q-18 -85 -92 -132.5t-191 -47.5q-134 0 -208 65q-73 64 -56 186h87q-23 -175 186 -175q81 0 129 29.5t59 83.5q13 60 -19 93t-123 54l-60 14
q-87 19 -137 74q-50 54 -32 145q17 83 89 129t181 46q145 0 201 -62q54 -63 39 -161zM228 -69q15 15 38 15.5t39.5 -16.5t14.5 -47q0 -47 -34.5 -84t-90.5 -44l10 43q45 9 60 50q-33 -4 -47.5 28.5t10.5 54.5z" />
    <glyph glyph-name="uni021A.ss01" horiz-adv-x="611" 
d="M117 712h571l-16 -76h-242l-136 -636h-87l136 636h-242zM194 -53q15 15 38 15.5t39.5 -16.5t14.5 -47q0 -47 -34.5 -84t-90.5 -44l10 43q45 9 60 50q-33 -4 -47.5 28.5t10.5 54.5z" />
    <glyph glyph-name="Udieresis.ss01" horiz-adv-x="670" 
d="M384 766q-16 -16 -38 -16t-38 16t-16 38t16 38t38 16t38 -16t16 -38t-16 -38zM560 766q-16 -16 -38 -16t-38 16t-16 38t16 38t38 16t38 -16t16 -38t-16 -38zM297 -15q-143 0 -206 84t-28 240l88 403h84l-89 -418q-50 -233 157 -233q186 0 230 203l94 448h84l-97 -465
q-55 -262 -317 -262z" />
    <glyph glyph-name="Wdieresis.ss01" horiz-adv-x="956" 
d="M537 766q-16 -16 -38 -16t-38 16t-16 38t16 38t38 16t38 -16t16 -38t-16 -38zM713 766q-16 -16 -38 -16t-38 16t-16 38t16 38t38 16t38 -16t16 -38t-16 -38zM777 361l171 351h89l-353 -712h-94l-25 363q-3 41 -13 243q-36 -80 -117 -243l-179 -363h-94l-51 712h85
l23 -351q9 -151 12 -257q77 166 123 259l171 349h94l23 -349q10 -143 14 -258q53 115 121 256z" />
    <glyph glyph-name="Ydieresis.ss01" horiz-adv-x="658" 
d="M388 766q-16 -16 -38 -16t-38 16t-16 38t16 38t38 16t38 -16t16 -38t-16 -38zM564 766q-16 -16 -38 -16t-38 16t-16 38t16 38t38 16t38 -16t16 -38t-16 -38zM500 546l139 166h100l-362 -426l-61 -286h-84l61 286l-182 426h91l69 -167q16 -40 73 -188q96 117 156 189z" />
    <glyph glyph-name="Zdotaccent.ss01" horiz-adv-x="600" 
d="M460 766q-16 -16 -38 -16t-38 16t-16 38t16 38t38 16t38 -16t16 -38t-16 -38zM666 712l-16 -76l-402 -403l-159 -159q90 2 204 2h244l-16 -76h-550l16 76l400 403l159 159q-90 -2 -204 -2h-217l16 76h525z" />
    <glyph glyph-name="G.ss03" horiz-adv-x="745" 
d="M634 302h-248l16 76h332l-3 -22q-29 -176 -136 -274t-265 -98q-154 0 -231 105t-41 277q34 163 146 263q111 99 263 99q130 0 202.5 -67t72.5 -182h-85q1 80 -52.5 126t-145.5 46q-109 0 -197 -76q-88 -77 -117 -213q-30 -140 23 -220q52 -81 169 -81q112 0 188 61
t109 180z" />
    <glyph glyph-name="uni01F4.ss03" horiz-adv-x="745" 
d="M539 915h112l-147 -144h-77zM634 302h-248l16 76h332l-3 -22q-29 -176 -136 -274t-265 -98q-154 0 -231 105t-41 277q34 163 146 263q111 99 263 99q130 0 202.5 -67t72.5 -182h-85q1 80 -52.5 126t-145.5 46q-109 0 -197 -76q-88 -77 -117 -213q-30 -140 23 -220
q52 -81 169 -81q112 0 188 61t109 180z" />
    <glyph glyph-name="Gbreve.ss03" horiz-adv-x="745" 
d="M487 766q-70 0 -107 40.5t-27 108.5h69q-4 -40 16 -62t57 -22q73 0 97 84h69q-15 -73 -61 -111t-113 -38zM634 302h-248l16 76h332l-3 -22q-29 -176 -136 -274t-265 -98q-154 0 -231 105t-41 277q34 163 146 263q111 99 263 99q130 0 202.5 -67t72.5 -182h-85
q1 80 -52.5 126t-145.5 46q-109 0 -197 -76q-88 -77 -117 -213q-30 -140 23 -220q52 -81 169 -81q112 0 188 61t109 180z" />
    <glyph glyph-name="Gcircumflex.ss03" horiz-adv-x="745" 
d="M574 771l-73 97l-115 -97h-83l142 144h120l86 -144h-77zM634 302h-248l16 76h332l-3 -22q-29 -176 -136 -274t-265 -98q-154 0 -231 105t-41 277q34 163 146 263q111 99 263 99q130 0 202.5 -67t72.5 -182h-85q1 80 -52.5 126t-145.5 46q-109 0 -197 -76
q-88 -77 -117 -213q-30 -140 23 -220q52 -81 169 -81q112 0 188 61t109 180z" />
    <glyph glyph-name="uni0122.ss03" horiz-adv-x="745" 
d="M634 302h-248l16 76h332l-3 -22q-29 -176 -136 -274t-265 -98q-154 0 -231 105t-41 277q34 163 146 263q111 99 263 99q130 0 202.5 -67t72.5 -182h-85q1 80 -52.5 126t-145.5 46q-109 0 -197 -76q-88 -77 -117 -213q-30 -140 23 -220q52 -81 169 -81q112 0 188 61
t109 180zM303 -143h-50l18 84h97l-22 -103q-8 -39 -31.5 -58.5t-68.5 -22.5l-14 -1l9 43l11 1q38 3 46 35z" />
    <glyph glyph-name="Gdotaccent.ss03" horiz-adv-x="745" 
d="M454 869h85l-20 -98h-85zM634 302h-248l16 76h332l-3 -22q-29 -176 -136 -274t-265 -98q-154 0 -231 105t-41 277q34 163 146 263q111 99 263 99q130 0 202.5 -67t72.5 -182h-85q1 80 -52.5 126t-145.5 46q-109 0 -197 -76q-88 -77 -117 -213q-30 -140 23 -220
q52 -81 169 -81q112 0 188 61t109 180z" />
    <glyph glyph-name="uni0122.ss01.ss03" horiz-adv-x="745" 
d="M634 302h-248l16 76h332l-3 -22q-29 -176 -136 -274t-265 -98q-154 0 -231 105t-41 277q34 163 146 263q111 99 263 99q130 0 202.5 -67t72.5 -182h-85q1 80 -52.5 126t-145.5 46q-109 0 -197 -76q-88 -77 -117 -213q-30 -140 23 -220q52 -81 169 -81q112 0 188 61
t109 180zM271 -69q15 15 38 15.5t39.5 -16.5t14.5 -47q0 -47 -34.5 -84t-90.5 -44l10 43q45 9 60 50q-33 -4 -47.5 28.5t10.5 54.5z" />
    <glyph glyph-name="Gdotaccent.ss01.ss03" horiz-adv-x="745" 
d="M524 782q-16 -16 -38 -16t-38 16t-16 38t16 38t38 16t38 -16t16 -38t-16 -38zM634 302h-248l16 76h332l-3 -22q-29 -176 -136 -274t-265 -98q-154 0 -231 105t-41 277q34 163 146 263q111 99 263 99q130 0 202.5 -67t72.5 -182h-85q1 80 -52.5 126t-145.5 46
q-109 0 -197 -76q-88 -77 -117 -213q-30 -140 23 -220q52 -81 169 -81q112 0 188 61t109 180z" />
    <glyph glyph-name="R.ss04" horiz-adv-x="632" 
d="M162 712h276q115 0 170.5 -61.5t34.5 -168.5q-15 -79 -75.5 -129.5t-153.5 -60.5l149 -292h-100l-147 290h-159l-62 -290h-84zM558 493q16 69 -18 106t-113 37h-197l-57 -270h208q72 0 117.5 33.5t59.5 93.5z" />
    <glyph glyph-name="Racute.ss04" horiz-adv-x="632" 
d="M473 899h112l-147 -144h-77zM162 712h276q115 0 170.5 -61.5t34.5 -168.5q-15 -79 -75.5 -129.5t-153.5 -60.5l149 -292h-100l-147 290h-159l-62 -290h-84zM558 493q16 69 -18 106t-113 37h-197l-57 -270h208q72 0 117.5 33.5t59.5 93.5z" />
    <glyph glyph-name="Rcaron.ss04" horiz-adv-x="632" 
d="M615 899l-142 -144h-120l-86 144h77l73 -97l115 97h83zM162 712h276q115 0 170.5 -61.5t34.5 -168.5q-15 -79 -75.5 -129.5t-153.5 -60.5l149 -292h-100l-147 290h-159l-62 -290h-84zM558 493q16 69 -18 106t-113 37h-197l-57 -270h208q72 0 117.5 33.5t59.5 93.5z" />
    <glyph glyph-name="uni0156.ss04" horiz-adv-x="632" 
d="M162 712h276q115 0 170.5 -61.5t34.5 -168.5q-15 -79 -75.5 -129.5t-153.5 -60.5l149 -292h-100l-147 290h-159l-62 -290h-84zM558 493q16 69 -18 106t-113 37h-197l-57 -270h208q72 0 117.5 33.5t59.5 93.5zM271 -127h-50l18 84h97l-22 -103q-8 -39 -31.5 -58.5
t-68.5 -22.5l-14 -1l9 43l11 1q38 3 46 35z" />
    <glyph glyph-name="uni0156.ss01.ss04" horiz-adv-x="632" 
d="M162 712h276q115 0 170.5 -61.5t34.5 -168.5q-15 -79 -75.5 -129.5t-153.5 -60.5l149 -292h-100l-147 290h-159l-62 -290h-84zM558 493q16 69 -18 106t-113 37h-197l-57 -270h208q72 0 117.5 33.5t59.5 93.5zM239 -53q15 15 38 15.5t39.5 -16.5t14.5 -47q0 -47 -34.5 -84
t-90.5 -44l10 43q45 9 60 50q-33 -4 -47.5 28.5t10.5 54.5z" />
    <glyph glyph-name="i.loclTRK" horiz-adv-x="199" 
d="M214 594h-85l20 98h85zM85 0h-80l110 516h80z" />
    <glyph glyph-name="adieresis.ss01" horiz-adv-x="521" 
d="M282 605q-16 -16 -38 -16t-38 16t-16 38t16 38t38 16t38 -16t16 -38t-16 -38zM458 605q-16 -16 -38 -16t-38 16t-16 38t16 38t38 16t38 -16t16 -38t-16 -38zM478 348l-51 -240q-9 -43 23 -43h25l-14 -65q-19 -3 -44 -3q-35 0 -54.5 18.5t-18.5 50.5q-63 -78 -171 -78
q-88 0 -132 48.5t-26 129.5q25 112 213 132l82 9q83 9 95 60q10 44 -15.5 68t-89.5 24t-97 -23t-48 -79h-78q24 91 77 131t153 40q209 0 171 -180zM187 56q63 0 112.5 34.5t66.5 97.5l18 81q-25 -16 -74 -22l-77 -10q-124 -16 -138 -86q-9 -45 14.5 -70t77.5 -25z" />
    <glyph glyph-name="cdotaccent.ss01" horiz-adv-x="521" 
d="M383 605q-16 -16 -38 -16t-38 16t-16 38t16 38t38 16t38 -16t16 -38t-16 -38zM228 -12q-106 0 -161 79q-55 78 -27 216q22 109 98 177q74 68 182 68q92 0 143.5 -50.5t48.5 -136.5h-84q-1 55 -33.5 85t-85.5 30q-68 0 -119 -49.5t-69 -140.5q-20 -99 13 -152.5t105 -53.5
q117 0 158 117h83q-30 -91 -95 -140t-157 -49z" />
    <glyph glyph-name="edieresis.ss01" horiz-adv-x="545" 
d="M292 605q-16 -16 -38 -16t-38 16t-16 38t16 38t38 16t38 -16t16 -38t-16 -38zM468 605q-16 -16 -38 -16t-38 16t-16 38t16 38t38 16t38 -16t16 -38t-16 -38zM320 528q114 0 166 -78t24 -192l-8 -28h-389q-11 -83 22 -126t101 -43q112 0 158 96h84q-69 -169 -249 -169
q-108 0 -164 77q-55 76 -27 209q24 111 102 183q77 71 180 71zM311 455q-63 0 -111 -39.5t-72 -113.5h305q10 67 -23 110t-99 43z" />
    <glyph glyph-name="edotaccent.ss01" horiz-adv-x="545" 
d="M382 605q-16 -16 -38 -16t-38 16t-16 38t16 38t38 16t38 -16t16 -38t-16 -38zM320 528q114 0 166 -78t24 -192l-8 -28h-389q-11 -83 22 -126t101 -43q112 0 158 96h84q-69 -169 -249 -169q-108 0 -164 77q-55 76 -27 209q24 111 102 183q77 71 180 71zM311 455
q-63 0 -111 -39.5t-72 -113.5h305q10 67 -23 110t-99 43z" />
    <glyph glyph-name="uni0123.ss01" horiz-adv-x="583" 
d="M394 604q-16 -15 -38.5 -15.5t-39.5 16.5t-15 47q0 47 34.5 84t90.5 44l-10 -43q-45 -9 -60 -50q33 4 47.5 -28t-9.5 -55zM487 443l16 73h76l-106 -496q-25 -114 -91 -171t-184 -57q-97 0 -149 45t-47 121h80q-1 -50 30 -74t94 -24q153 0 187 160l7 35q-70 -67 -165 -67
q-114 0 -169 82t-27 209q25 117 104 184q79 65 182 65q113 0 162 -85zM246 60q72 0 127 48.5t77 132.5l7 31q14 87 -21 135.5t-111 48.5t-129.5 -51t-71.5 -138q-21 -95 12.5 -151t109.5 -56z" />
    <glyph glyph-name="gdotaccent.ss01" horiz-adv-x="583" 
d="M395 605q-16 -16 -38 -16t-38 16t-16 38t16 38t38 16t38 -16t16 -38t-16 -38zM487 443l16 73h76l-106 -496q-25 -114 -91 -171t-184 -57q-97 0 -149 45t-47 121h80q-1 -50 30 -74t94 -24q153 0 187 160l7 35q-70 -67 -165 -67q-114 0 -169 82t-27 209q25 117 104 184
q79 65 182 65q113 0 162 -85zM246 60q72 0 127 48.5t77 132.5l7 31q14 87 -21 135.5t-111 48.5t-129.5 -51t-71.5 -138q-21 -95 12.5 -151t109.5 -56z" />
    <glyph glyph-name="i.ss01" horiz-adv-x="199" 
d="M220 605q-16 -16 -38 -16t-38 16t-16 38t16 38t38 16t38 -16t16 -38t-16 -38zM85 0h-80l110 516h80z" />
    <glyph glyph-name="idieresis.ss01" horiz-adv-x="199" 
d="M142 605q-16 -16 -38 -16t-38 16t-16 38t16 38t38 16t38 -16t16 -38t-16 -38zM298 605q-16 -16 -38 -16t-38 16t-16 38t16 38t38 16t38 -16t16 -38t-16 -38zM85 0h-80l110 516h80z" />
    <glyph glyph-name="i.loclTRK.ss01" horiz-adv-x="199" 
d="M220 605q-16 -16 -38 -16t-38 16t-16 38t16 38t38 16t38 -16t16 -38t-16 -38zM85 0h-80l110 516h80z" />
    <glyph glyph-name="ij.ss01" horiz-adv-x="402" 
d="M220 605q-16 -16 -38 -16t-38 16t-16 38t16 38t38 16t38 -16t16 -38t-16 -38zM419 605q-16 -16 -38 -16t-38 16t-16 38t16 38t38 16t38 -16t16 -38t-16 -38zM85 0h-80l110 516h80zM136 -199q-45 0 -56 1l15 69h40q41 0 54 59l125 586h80l-127 -595q-25 -120 -131 -120z
" />
    <glyph glyph-name="iogonek.ss01" horiz-adv-x="199" 
d="M144 681q16 16 38 16t38 -16t16 -38t-16 -38t-38 -16t-38 16t-16 38t16 38zM25 0h-20l110 516h80l-110 -516q-71 -44 -83 -98q-10 -46 32 -46q19 0 37 8l-13 -62q-21 -10 -49 -10q-40 0 -62 27.5t-12 71.5q17 69 90 109z" />
    <glyph glyph-name="j.ss01" horiz-adv-x="203" 
d="M220 605q-16 -16 -38 -16t-38 16t-16 38t16 38t38 16t38 -16t16 -38t-16 -38zM-63 -199q-45 0 -56 1l15 69h40q41 0 54 59l125 586h80l-127 -595q-26 -120 -131 -120z" />
    <glyph glyph-name="uni0137.ss01" horiz-adv-x="504" 
d="M432 516h108l-234 -188l138 -328h-83l-116 280l-120 -95l-40 -185h-80l152 712h80l-90 -424zM157 -53q15 15 38 15.5t39.5 -16.5t14.5 -47q0 -47 -34.5 -84t-90.5 -44l10 43q45 9 60 50q-33 -4 -47.5 28.5t10.5 54.5z" />
    <glyph glyph-name="uni013C.ss01" horiz-adv-x="200" 
d="M6 0l151 712h80l-151 -712h-80zM-11 -53q16 15 38.5 15.5t39.5 -16.5t15 -47q0 -47 -34.5 -84t-90.5 -44l10 43q45 9 60 50q-33 -4 -47.5 28t9.5 55z" />
    <glyph glyph-name="ldot.ss01" horiz-adv-x="403" 
d="M86 0h-80l151 712h80zM324 296q-26 0 -43 16.5t-17 42.5q0 24 17 40t43 16q24 0 40.5 -16t16.5 -40q0 -25 -16.5 -42t-40.5 -17z" />
    <glyph glyph-name="napostrophe.ss01" horiz-adv-x="685" 
d="M241 646q0 -56 -41 -108q-42 -52 -112 -59l12 52q63 13 78 78q-33 -1 -46.5 31.5t11.5 57.5q18 13 40.5 15t41 -16.5t16.5 -50.5zM495 528q89 0 128 -54t16 -155l-69 -319h-80l68 324q28 132 -83 132q-65 0 -116.5 -43.5t-66.5 -120.5l-62 -292h-80l110 516h76l-15 -69
q73 81 174 81z" />
    <glyph glyph-name="uni0146.ss01" horiz-adv-x="540" 
d="M350 528q89 0 128 -54t16 -155l-69 -319h-80l68 324q29 132 -83 132q-65 0 -116.5 -43.5t-66.5 -120.5l-62 -292h-80l110 516h76l-15 -69q74 81 174 81zM164 -53q15 15 38 15.5t39.5 -16.5t14.5 -47q0 -47 -34.5 -84t-90.5 -44l10 43q45 9 60 50q-33 -4 -47.5 28.5
t10.5 54.5z" />
    <glyph glyph-name="odieresis.ss01" horiz-adv-x="570" 
d="M312 605q-16 -16 -38 -16t-38 16t-16 38t16 38t38 16t38 -16t16 -38t-16 -38zM488 605q-16 -16 -38 -16t-38 16t-16 38t16 38t38 16t38 -16t16 -38t-16 -38zM242 -12q-121 0 -176.5 77t-26.5 211q23 111 105 181q82 71 184 71q121 0 176 -76.5t27 -210.5
q-23 -111 -104 -182q-82 -71 -185 -71zM244 60q75 0 130.5 51.5t74.5 138.5q21 98 -12 152t-111 54q-74 0 -130 -53q-57 -53 -75 -135q-21 -98 12.5 -153t110.5 -55z" />
    <glyph glyph-name="uni0157.ss01" horiz-adv-x="354" 
d="M359 524q19 0 26 -1l-16 -77h-20q-80 0 -133 -39.5t-68 -112.5l-63 -294h-80l110 516h76l-17 -80q75 88 185 88zM-15 -53q16 15 38.5 15.5t39.5 -16.5t15 -47q0 -47 -34.5 -84t-90.5 -44l10 43q45 9 60 50q-33 -4 -47.5 28t9.5 55z" />
    <glyph glyph-name="uni0219.ss01" horiz-adv-x="467" 
d="M453 357h-79q8 55 -18.5 78.5t-88.5 23.5q-51 0 -84 -19.5t-40 -52.5q-7 -36 14 -56t76 -31l40 -8q90 -18 123.5 -59t17.5 -116q-12 -60 -67 -94.5t-148 -34.5q-109 0 -158 43.5t-39 132.5h80q-4 -58 25 -82.5t99 -24.5q114 0 129 71q9 41 -12.5 62t-85.5 33l-37 7
q-164 32 -134 169q13 62 68.5 95.5t140.5 33.5q98 0 143 -43.5t35 -127.5zM141 -65q15 15 38 15.5t39.5 -16.5t14.5 -47q0 -47 -34.5 -84t-90.5 -44l10 43q45 9 60 50q-33 -4 -47.5 28.5t10.5 54.5z" />
    <glyph glyph-name="uni021B.ss01" horiz-adv-x="311" 
d="M326 446h-106l-68 -321q-6 -30 4.5 -44t41.5 -14h47l-14 -67q-33 -3 -50 -3q-65 0 -93.5 34t-15.5 97l68 318h-85l15 70h85l31 146h80l-31 -146h106zM108 -53q15 15 38 15.5t39.5 -16.5t14.5 -47q0 -47 -34.5 -84t-90.5 -44l10 43q45 9 60 50q-33 -4 -47.5 28.5
t10.5 54.5z" />
    <glyph glyph-name="udieresis.ss01" horiz-adv-x="540" 
d="M296 605q-16 -16 -38 -16t-38 16t-16 38t16 38t38 16t38 -16t16 -38t-16 -38zM472 605q-16 -16 -38 -16t-38 16t-16 38t16 38t38 16t38 -16t16 -38t-16 -38zM393 224l62 292h80l-110 -516h-76l15 69q-74 -81 -174 -81q-89 0 -128 54t-16 155l69 319h80l-68 -324
q-29 -132 83 -132q65 0 116.5 43.5t66.5 120.5z" />
    <glyph glyph-name="wdieresis.ss01" horiz-adv-x="778" 
d="M406 605q-16 -16 -38 -16t-38 16t-16 38t16 38t38 16t38 -16t16 -38t-16 -38zM582 605q-16 -16 -38 -16t-38 16t-16 38t16 38t38 16t38 -16t16 -38t-16 -38zM610 283l123 233h90l-282 -516h-84l-25 239q-8 66 -16 181q-48 -104 -89 -181l-126 -239h-84l-62 516h82
l23 -233q6 -54 16 -189q55 112 95 189l122 233h84l22 -233q2 -18 16 -192q38 84 95 192z" />
    <glyph glyph-name="ydieresis.ss01" horiz-adv-x="479" 
d="M260 605q-16 -16 -38 -16t-38 16t-16 38t16 38t38 16t38 -16t16 -38t-16 -38zM436 605q-16 -16 -38 -16t-38 16t-16 38t16 38t38 16t38 -16t16 -38t-16 -38zM321 302l119 214h89l-344 -594q-38 -66 -77 -92q-40 -26 -106 -26q-32 0 -57 3l14 67h47q68 0 106 65l27 45
l-79 532h86l27 -215q17 -128 27 -223q58 112 121 224z" />
    <glyph glyph-name="zdotaccent.ss01" horiz-adv-x="487" 
d="M354 605q-16 -16 -38 -16t-38 16t-16 38t16 38t38 16t38 -16t16 -38t-16 -38zM492 516l-13 -60l-299 -304l-84 -84q50 2 110 2h205l-15 -70h-417l13 60l298 304q21 21 49.5 49t35.5 35q-48 -2 -108 -2h-183l15 70h393z" />
    <glyph glyph-name="a.ss02" horiz-adv-x="582" 
d="M481 441l16 75h80l-110 -516h-76l13 58q-74 -70 -172 -70q-113 0 -167 78t-27 206q24 116 100 186t184 70q112 0 159 -87zM244 60q80 0 133.5 49.5t72.5 140.5q21 98 -14 153t-117 55q-74 0 -127 -52.5t-71 -140.5q-21 -99 12 -152t111 -53z" />
    <glyph glyph-name="aacute.ss02" horiz-adv-x="582" 
d="M395 738h106l-127 -144h-67zM481 441l16 75h80l-110 -516h-76l13 58q-74 -70 -172 -70q-113 0 -167 78t-27 206q24 116 100 186t184 70q112 0 159 -87zM244 60q80 0 133.5 49.5t72.5 140.5q21 98 -14 153t-117 55q-74 0 -127 -52.5t-71 -140.5q-21 -99 12 -152t111 -53z
" />
    <glyph glyph-name="abreve.ss02" horiz-adv-x="582" 
d="M353 589q-70 0 -107 40.5t-27 108.5h69q-4 -40 16 -62t57 -22q73 0 97 84h69q-15 -73 -61 -111t-113 -38zM481 441l16 75h80l-110 -516h-76l13 58q-74 -70 -172 -70q-113 0 -167 78t-27 206q24 116 100 186t184 70q112 0 159 -87zM244 60q80 0 133.5 49.5t72.5 140.5
q21 98 -14 153t-117 55q-74 0 -127 -52.5t-71 -140.5q-21 -99 12 -152t111 -53z" />
    <glyph glyph-name="acircumflex.ss02" horiz-adv-x="582" 
d="M437 594l-73 97l-115 -97h-83l142 144h120l86 -144h-77zM481 441l16 75h80l-110 -516h-76l13 58q-74 -70 -172 -70q-113 0 -167 78t-27 206q24 116 100 186t184 70q112 0 159 -87zM244 60q80 0 133.5 49.5t72.5 140.5q21 98 -14 153t-117 55q-74 0 -127 -52.5t-71 -140.5
q-21 -99 12 -152t111 -53z" />
    <glyph glyph-name="adieresis.ss02" horiz-adv-x="582" 
d="M233 692h85l-21 -98h-85zM407 692h85l-21 -98h-85zM481 441l16 75h80l-110 -516h-76l13 58q-74 -70 -172 -70q-113 0 -167 78t-27 206q24 116 100 186t184 70q112 0 159 -87zM244 60q80 0 133.5 49.5t72.5 140.5q21 98 -14 153t-117 55q-74 0 -127 -52.5t-71 -140.5
q-21 -99 12 -152t111 -53z" />
    <glyph glyph-name="agrave.ss02" horiz-adv-x="582" 
d="M346 738l27 -144h-66l-67 144h106zM481 441l16 75h80l-110 -516h-76l13 58q-74 -70 -172 -70q-113 0 -167 78t-27 206q24 116 100 186t184 70q112 0 159 -87zM244 60q80 0 133.5 49.5t72.5 140.5q21 98 -14 153t-117 55q-74 0 -127 -52.5t-71 -140.5q-21 -99 12 -152
t111 -53z" />
    <glyph glyph-name="amacron.ss02" horiz-adv-x="582" 
d="M210 661h291l-15 -67h-291zM481 441l16 75h80l-110 -516h-76l13 58q-74 -70 -172 -70q-113 0 -167 78t-27 206q24 116 100 186t184 70q112 0 159 -87zM244 60q80 0 133.5 49.5t72.5 140.5q21 98 -14 153t-117 55q-74 0 -127 -52.5t-71 -140.5q-21 -99 12 -152t111 -53z
" />
    <glyph glyph-name="aogonek.ss02" horiz-adv-x="582" 
d="M577 516l-110 -516q-114 -51 -125 -96q-5 -21 7.5 -33.5t33.5 -12.5q29 0 56 10l-14 -65q-30 -11 -65 -11q-47 0 -76.5 28t-20.5 71q7 34 39.5 63t82.5 46h6l13 58q-74 -70 -172 -70q-113 0 -167 78t-27 206q24 116 100 186t184 70q112 0 159 -87l16 75h80zM244 60
q80 0 133.5 49.5t72.5 140.5q21 98 -14 153t-117 55q-74 0 -127 -52.5t-71 -140.5q-21 -99 12 -152t111 -53z" />
    <glyph glyph-name="aring.ss02" horiz-adv-x="582" 
d="M457 624q-38 -35 -91 -35t-90 35q-37 34 -37 87t37 87q37 35 90 35t91 -35q36 -34 36 -87t-36 -87zM412 757q-19 18 -46 18t-46 -18q-19 -19 -19 -46t19 -45q19 -19 46 -19t46 19q19 18 19 45t-19 46zM481 441l16 75h80l-110 -516h-76l13 58q-74 -70 -172 -70
q-113 0 -167 78t-27 206q24 116 100 186t184 70q112 0 159 -87zM244 60q80 0 133.5 49.5t72.5 140.5q21 98 -14 153t-117 55q-74 0 -127 -52.5t-71 -140.5q-21 -99 12 -152t111 -53z" />
    <glyph glyph-name="aringacute.ss02" horiz-adv-x="582" 
d="M454 1036h106l-127 -144h-67zM457 624q-38 -35 -91 -35t-90 35q-37 34 -37 87t37 87q37 35 90 35t91 -35q36 -34 36 -87t-36 -87zM412 757q-19 18 -46 18t-46 -18q-19 -19 -19 -46t19 -45q19 -19 46 -19t46 19q19 18 19 45t-19 46zM481 441l16 75h80l-110 -516h-76l13 58
q-74 -70 -172 -70q-113 0 -167 78t-27 206q24 116 100 186t184 70q112 0 159 -87zM244 60q80 0 133.5 49.5t72.5 140.5q21 98 -14 153t-117 55q-74 0 -127 -52.5t-71 -140.5q-21 -99 12 -152t111 -53z" />
    <glyph glyph-name="atilde.ss02" horiz-adv-x="582" 
d="M283 644q-30 0 -41 -50h-68q14 63 42 93t73 30q31 0 78 -27q38 -23 60 -23q30 0 41 50h68q-14 -63 -42 -93t-73 -30q-28 0 -83 29q-40 21 -55 21zM481 441l16 75h80l-110 -516h-76l13 58q-74 -70 -172 -70q-113 0 -167 78t-27 206q24 116 100 186t184 70q112 0 159 -87z
M244 60q80 0 133.5 49.5t72.5 140.5q21 98 -14 153t-117 55q-74 0 -127 -52.5t-71 -140.5q-21 -99 12 -152t111 -53z" />
    <glyph glyph-name="adieresis.ss01.ss02" horiz-adv-x="582" 
d="M300 605q-16 -16 -38 -16t-38 16t-16 38t16 38t38 16t38 -16t16 -38t-16 -38zM476 605q-16 -16 -38 -16t-38 16t-16 38t16 38t38 16t38 -16t16 -38t-16 -38zM481 441l16 75h80l-110 -516h-76l13 58q-74 -70 -172 -70q-113 0 -167 78t-27 206q24 116 100 186t184 70
q112 0 159 -87zM244 60q80 0 133.5 49.5t72.5 140.5q21 98 -14 153t-117 55q-74 0 -127 -52.5t-71 -140.5q-21 -99 12 -152t111 -53z" />
    <glyph glyph-name="uni021B.ss01.ss05" horiz-adv-x="301" 
d="M241 516h96l-15 -70h-96l-94 -446h-80l94 446h-85l15 70h85l31 146h80zM37 -53q15 15 38 15.5t39.5 -16.5t14.5 -47q0 -47 -34.5 -84t-90.5 -44l10 43q45 9 60 50q-33 -4 -47.5 28.5t10.5 54.5z" />
    <glyph glyph-name="udieresis.ss01.ss05" horiz-adv-x="540" 
d="M296 605q-16 -16 -38 -16t-38 16t-16 38t16 38t38 16t38 -16t16 -38t-16 -38zM472 605q-16 -16 -38 -16t-38 16t-16 38t16 38t38 16t38 -16t16 -38t-16 -38zM393 224l62 292h80l-110 -516h-76l15 69q-74 -81 -174 -81q-89 0 -128 54t-16 155l69 319h80l-68 -324
q-29 -132 83 -132q65 0 116.5 43.5t66.5 120.5z" />
    <glyph glyph-name="t.ss05" horiz-adv-x="301" 
d="M241 516h96l-15 -70h-96l-94 -446h-80l94 446h-85l15 70h85l31 146h80z" />
    <glyph glyph-name="tbar.ss05" horiz-adv-x="304" 
d="M340 516l-15 -70h-96l-31 -148h91l-13 -65h-92l-49 -233h-80l49 233h-86l12 65h88l31 148h-85l15 70h85l31 146h80l-31 -146h96z" />
    <glyph glyph-name="tcaron.ss05" horiz-adv-x="301" 
d="M287 546l74 166h84l-95 -166h-63zM192 662h80l-31 -146h96l-15 -70h-96l-94 -446h-80l94 446h-85l15 70h85z" />
    <glyph glyph-name="uni0163.ss05" horiz-adv-x="301" 
d="M226 446l-94 -446h-4l-46 -43h2q41 0 63.5 -27t14.5 -65q-20 -83 -148 -83q-38 0 -67 6l10 46q28 -4 62 -4q59 0 67 43q3 19 -9 31.5t-39 12.5q-19 0 -28 -1l8 38l46 46h-12l94 446h-85l15 70h85l31 146h80l-31 -146h96l-15 -70h-96z" />
    <glyph glyph-name="uni021B.ss05" horiz-adv-x="301" 
d="M241 516h96l-15 -70h-96l-94 -446h-80l94 446h-85l15 70h85l31 146h80zM69 -127h-50l18 84h97l-22 -103q-8 -39 -31.5 -58.5t-68.5 -22.5l-14 -1l9 43l11 1q38 3 46 35z" />
    <glyph glyph-name="udieresis.ss01.ss06" horiz-adv-x="540" 
d="M299 605q-16 -16 -38 -16t-38 16t-16 38t16 38t38 16t38 -16t16 -38t-16 -38zM475 605q-16 -16 -38 -16t-38 16t-16 38t16 38t38 16t38 -16t16 -38t-16 -38zM229 -12q-97 0 -149 64q-52 62 -29 170l63 294h80l-67 -310q-15 -66 16 -107t91 -41q58 0 98 38t55 108l67 312
h80l-71 -333q-19 -89 -81 -142t-153 -53z" />
    <glyph glyph-name="u.ss06" horiz-adv-x="540" 
d="M229 -12q-97 0 -149 64q-52 62 -29 170l63 294h80l-67 -310q-15 -66 16 -107t91 -41q58 0 98 38t55 108l67 312h80l-71 -333q-19 -89 -81 -142t-153 -53z" />
    <glyph glyph-name="uacute.ss06" horiz-adv-x="540" 
d="M373 594h-67l88 144h106zM229 -12q-97 0 -149 64q-52 62 -29 170l63 294h80l-67 -310q-15 -66 16 -107t91 -41q58 0 98 38t55 108l67 312h80l-71 -333q-19 -89 -81 -142t-153 -53z" />
    <glyph glyph-name="ubreve.ss06" horiz-adv-x="540" 
d="M352 589q-70 0 -107 40.5t-27 108.5h69q-4 -40 16 -62t57 -22q73 0 97 84h69q-15 -73 -61 -111t-113 -38zM229 -12q-97 0 -149 64q-52 62 -29 170l63 294h80l-67 -310q-15 -66 16 -107t91 -41q58 0 98 38t55 108l67 312h80l-71 -333q-19 -89 -81 -142t-153 -53z" />
    <glyph glyph-name="ucircumflex.ss06" horiz-adv-x="540" 
d="M436 594l-73 97l-115 -97h-83l142 144h120l86 -144h-77zM387 204l67 312h80l-71 -333q-19 -89 -81 -142t-153 -53q-97 0 -149 64q-52 62 -29 170l63 294h80l-67 -310q-15 -66 16 -107t91 -41q58 0 98 38t55 108z" />
    <glyph glyph-name="udieresis.ss06" horiz-adv-x="540" 
d="M296 594h-85l21 98h85zM470 594h-85l21 98h85zM229 -12q-97 0 -149 64q-52 62 -29 170l63 294h80l-67 -310q-15 -66 16 -107t91 -41q58 0 98 38t55 108l67 312h80l-71 -333q-19 -89 -81 -142t-153 -53z" />
    <glyph glyph-name="ugrave.ss06" horiz-adv-x="540" 
d="M372 594h-66l-67 144h106zM229 -12q-97 0 -149 64q-52 62 -29 170l63 294h80l-67 -310q-15 -66 16 -107t91 -41q58 0 98 38t55 108l67 312h80l-71 -333q-19 -89 -81 -142t-153 -53z" />
    <glyph glyph-name="uhungarumlaut.ss06" horiz-adv-x="540" 
d="M286 594h-67l86 144h104zM450 594h-67l86 144h104zM229 -12q-97 0 -149 64q-52 62 -29 170l63 294h80l-67 -310q-15 -66 16 -107t91 -41q58 0 98 38t55 108l67 312h80l-71 -333q-19 -89 -81 -142t-153 -53z" />
    <glyph glyph-name="umacron.ss06" horiz-adv-x="540" 
d="M485 594h-291l15 67h291zM229 -12q-97 0 -149 64q-52 62 -29 170l63 294h80l-67 -310q-15 -66 16 -107t91 -41q58 0 98 38t55 108l67 312h80l-71 -333q-19 -89 -81 -142t-153 -53z" />
    <glyph glyph-name="uogonek.ss06" horiz-adv-x="540" 
d="M387 204l67 312h80l-71 -333q-15 -69 -56 -117.5t-102 -66.5q-109 -49 -120 -94q-5 -21 7.5 -33.5t33.5 -12.5q29 0 56 10l-14 -65q-30 -11 -65 -11q-47 0 -76.5 28t-20.5 71q14 61 94 98q-83 9 -127 72q-43 61 -22 160l63 294h80l-67 -310q-15 -66 16 -107t91 -41
q58 0 98 38t55 108z" />
    <glyph glyph-name="uring.ss06" horiz-adv-x="540" 
d="M456 624q-38 -35 -91 -35t-90 35q-37 34 -37 87t37 87q37 35 90 35t91 -35q36 -34 36 -87t-36 -87zM319 666q19 -19 46 -19t46 19q19 18 19 45t-19 46q-19 18 -46 18t-46 -18q-19 -19 -19 -46t19 -45zM229 -12q-97 0 -149 64q-52 62 -29 170l63 294h80l-67 -310
q-15 -66 16 -107t91 -41q58 0 98 38t55 108l67 312h80l-71 -333q-19 -89 -81 -142t-153 -53z" />
    <glyph glyph-name="utilde.ss06" horiz-adv-x="540" 
d="M241 594h-68q14 63 42 93t73 30q32 0 78 -27q38 -23 60 -23q30 0 41 50h68q-14 -63 -42 -93t-73 -30q-28 0 -83 29q-40 21 -55 21q-30 0 -41 -50zM229 -12q-97 0 -149 64q-52 62 -29 170l63 294h80l-67 -310q-15 -66 16 -107t91 -41q58 0 98 38t55 108l67 312h80
l-71 -333q-19 -89 -81 -142t-153 -53z" />
    <glyph glyph-name="ydieresis.ss01.ss07" horiz-adv-x="479" 
d="M270 605q-16 -16 -38 -16t-38 16t-16 38t16 38t38 16t38 -16t16 -38t-16 -38zM446 605q-16 -16 -38 -16t-38 16t-16 38t16 38t38 16t38 -16t16 -38t-16 -38zM323 315l116 201h90l-429 -712h-81l129 213l-88 499h85l32 -207l29 -198z" />
    <glyph glyph-name="y.ss07" horiz-adv-x="479" 
d="M323 315l116 201h90l-429 -712h-81l129 213l-88 499h85l32 -207l29 -198z" />
    <glyph glyph-name="yacute.ss07" horiz-adv-x="479" 
d="M365 738h106l-127 -144h-67zM323 315l116 201h90l-429 -712h-81l129 213l-88 499h85l32 -207l29 -198z" />
    <glyph glyph-name="ycircumflex.ss07" horiz-adv-x="479" 
d="M407 594l-73 97l-115 -97h-83l142 144h120l86 -144h-77zM323 315l116 201h90l-429 -712h-81l129 213l-88 499h85l32 -207l29 -198z" />
    <glyph glyph-name="ydieresis.ss07" horiz-adv-x="479" 
d="M203 692h85l-21 -98h-85zM377 692h85l-21 -98h-85zM323 315l116 201h90l-429 -712h-81l129 213l-88 499h85l32 -207l29 -198z" />
    <glyph glyph-name="ygrave.ss07" horiz-adv-x="479" 
d="M316 738l27 -144h-66l-67 144h106zM323 315l116 201h90l-429 -712h-81l129 213l-88 499h85l32 -207l29 -198z" />
    <glyph glyph-name="l.ss08" horiz-adv-x="238" 
d="M128 -3q-57 0 -82.5 34t-12.5 97l124 584h80l-124 -587q-12 -58 36 -58h38l-14 -67q-30 -3 -45 -3z" />
    <glyph glyph-name="lacute.ss08" horiz-adv-x="238" 
d="M233 755h-77l112 144h112zM128 -3q-57 0 -82.5 34t-12.5 97l124 584h80l-124 -587q-12 -58 36 -58h38l-14 -67q-30 -3 -45 -3z" />
    <glyph glyph-name="lcaron.ss08" horiz-adv-x="299" 
d="M128 -3q-57 0 -82.5 34t-12.5 97l124 584h80l-124 -587q-12 -58 36 -58h38l-14 -67q-30 -3 -45 -3zM316 546h-63l74 166h84z" />
    <glyph glyph-name="uni013C.ss08" horiz-adv-x="238" 
d="M237 712l-124 -587q-12 -58 36 -58h38l-14 -67q-30 -3 -45 -3q-57 0 -82.5 34t-12.5 97l124 584h80zM22 -127h-50l18 84h97l-22 -103q-8 -39 -31.5 -58.5t-68.5 -22.5l-14 -1l9 43l11 1q38 3 46 35z" />
    <glyph glyph-name="ldot.ss08" horiz-adv-x="395" 
d="M128 -3q-57 0 -82.5 34t-12.5 97l124 584h80l-124 -587q-12 -58 36 -58h38l-14 -67q-30 -3 -45 -3zM354 304h-101l22 100h101z" />
    <glyph glyph-name="lslash.ss08" horiz-adv-x="249" 
d="M276 389l-92 -46l-46 -218q-12 -58 36 -58h38l-14 -67q-30 -3 -45 -3q-57 0 -82.5 34t-12.5 97l36 170l-97 -49l16 76l97 49l72 338h80l-62 -293l92 46z" />
    <glyph glyph-name="uni013C.ss01.ss08" horiz-adv-x="238" 
d="M237 712l-124 -587q-12 -58 36 -58h38l-14 -67q-30 -3 -45 -3q-57 0 -82.5 34t-12.5 97l124 584h80zM-11 -53q16 15 38.5 15.5t39.5 -16.5t15 -47q0 -47 -34.5 -84t-90.5 -44l10 43q45 9 60 50q-33 -4 -47.5 28t9.5 55z" />
    <glyph glyph-name="ldot.ss01.ss08" horiz-adv-x="403" 
d="M128 -3q-57 0 -82.5 34t-12.5 97l124 584h80l-124 -587q-12 -58 36 -58h38l-14 -67q-30 -3 -45 -3zM324 296q-26 0 -43 16.5t-17 42.5q0 24 17 40t43 16q24 0 40.5 -16t16.5 -40q0 -25 -16.5 -42t-40.5 -17z" />
    <glyph glyph-name="fi.ss01" horiz-adv-x="509" 
d="M345 516l-15 -70h-110l-95 -446h-80l95 446h-85l15 70h84l15 69q13 61 56.5 95.5t113.5 34.5q21 0 53 -2l-15 -68h-46q-68 0 -84 -73l-12 -56h110zM454 681q16 16 38 16t38 -16t16 -38t-16 -38t-38 -16t-38 16t-16 38t16 38zM395 0h-80l110 516h80z" />
    <glyph glyph-name="fl.ss08" horiz-adv-x="538" 
d="M345 516l-15 -70h-110l-95 -446h-80l95 446h-85l15 70h84l15 69q13 61 56.5 95.5t113.5 34.5q21 0 53 -2l-15 -68h-46q-68 0 -84 -73l-12 -56h110zM537 712l-124 -587q-12 -58 36 -58h38l-14 -67q-30 -3 -45 -3q-57 0 -82.5 34t-12.5 97l124 584h80z" />
    <glyph glyph-name="ordfeminine.ss02" horiz-adv-x="518" 
d="M466 638l15 73h79l-95 -449h-76l14 64q-62 -74 -150 -74q-97 0 -146 69q-49 66 -23 189q20 94 84 152q64 59 154 59q106 0 144 -83zM173 367q27 -47 90 -47q62 0 109 44q46 43 63 122q17 76 -14.5 121.5t-96.5 45.5q-62 0 -103 -41t-57 -115q-18 -84 9 -130z" />
    <glyph glyph-name="t.sups.ss05" horiz-adv-x="295" 
d="M279 712h83l-14 -65h-83l-81 -385h-79l81 385h-73l14 65h73l27 128h79z" />
    <glyph glyph-name="zero.ss09" horiz-adv-x="956" 
d="M952 -88h-908v888h908v-888zM363 182q48 -61 135 -61t135 61q48 62 48 174q0 113 -47 175q-48 61 -136 61q-89 0 -135 -61q-48 -61 -48 -175q0 -112 48 -174zM600 356q0 -169 -102 -169t-102 169q0 170 102 170t102 -170z" />
    <glyph glyph-name="one.ss09" horiz-adv-x="956" 
d="M952 -88h-908v888h908v-888zM471 454v-325h85v455h-71q-15 -41 -42.5 -56t-81.5 -15v-59h110z" />
    <glyph glyph-name="two.ss09" horiz-adv-x="956" 
d="M952 -88h-908v888h908v-888zM331 171l-1 -29h335v66h-250q6 60 83 92l38 16q64 27 94 63.5t30 88.5q0 59 -42 97t-118 38q-80 0 -121.5 -40t-43.5 -108h76q1 39 23.5 60.5t62.5 21.5q87 0 87 -71q0 -59 -79 -90l-31 -12q-75 -30 -107.5 -76.5t-35.5 -116.5z" />
    <glyph glyph-name="three.ss09" horiz-adv-x="956" 
d="M952 -88h-908v888h908v-888zM499 121q78 0 125 38t47 101q0 41 -21.5 71t-58.5 41q31 13 49.5 40t18.5 60q0 55 -42.5 87.5t-116.5 32.5q-73 0 -115.5 -34.5t-46.5 -97.5h75q7 70 87 70q39 0 62 -18t23 -48q0 -69 -88 -69h-30v-57h28q99 0 99 -76q0 -36 -26 -57.5
t-69 -21.5q-99 0 -101 92h-76q1 -74 47 -114t130 -40z" />
    <glyph glyph-name="four.ss09" horiz-adv-x="956" 
d="M952 -88h-908v888h908v-888zM515 251v-110h80v110h66v66h-66v275h-82l-226 -263v-78h228zM519 317h-164l164 189v-189z" />
    <glyph glyph-name="five.ss09" horiz-adv-x="956" 
d="M952 -88h-908v888h908v-888zM499 121q73 0 120 43q48 42 48 113q0 69 -41 112.5t-108 43.5q-64 0 -98 -33l21 116h207v66h-267l-47 -260h77q25 51 88 51q42 0 68 -27t26 -69q0 -41 -26 -67.5t-68 -26.5q-77 0 -95 70h-76q9 -60 55.5 -96t115.5 -36z" />
    <glyph glyph-name="six.ss09" horiz-adv-x="956" 
d="M952 -88h-908v888h908v-888zM498 121q75 0 122 43t47 113q0 68 -44 112q-46 44 -114 44q-72 0 -117 -53v6q9 144 110 144q67 0 83 -58h76q-10 56 -52.5 88t-106.5 32q-90 0 -136.5 -63t-46.5 -184q0 -137 71 -191q44 -33 108 -33zM498 183q-41 0 -67 25.5t-26 66.5
t26.5 67.5t66.5 26.5q41 0 68 -26.5t27 -67.5q0 -40 -26.5 -66t-68.5 -26z" />
    <glyph glyph-name="seven.ss09" horiz-adv-x="956" 
d="M952 -88h-908v888h908v-888zM419 119h83q1 127 38.5 217t119.5 166v68h-313v-66h239q-75 -67 -120 -170q-46 -105 -47 -215z" />
    <glyph glyph-name="eight.ss09" horiz-adv-x="956" 
d="M952 -88h-908v888h908v-888zM371 158q46 -37 127 -37t128 37q47 36 47 96q0 82 -81 116q59 35 59 99q0 56 -41.5 89.5t-111.5 33.5t-112 -33.5t-42 -89.5q0 -31 16.5 -57.5t44.5 -41.5q-82 -33 -82 -116q0 -60 48 -96zM560 413q-25 -20 -62 -20q-38 0 -61 20t-23 52
t23 51q22 19 61 19t62 -19q23 -20 23 -51q0 -32 -23 -52zM571 203q-27 -21 -73 -21t-72 21q-27 21 -27 59t27 60q26 21 72 21t73 -21q26 -23 26 -60q0 -38 -26 -59z" />
    <glyph glyph-name="nine.ss09" horiz-adv-x="956" 
d="M952 -88h-908v888h908v-888zM496 121q90 0 136.5 63t46.5 184q0 136 -72 191q-42 33 -107 33q-75 0 -122 -43t-47 -113q0 -68 45 -112q44 -44 113 -44q73 0 112 48l5 6v-4q-5 -75 -31.5 -111t-78.5 -36q-67 0 -83 58h-76q10 -56 52.5 -88t106.5 -32zM500 344
q-42 0 -68.5 27t-26.5 68q0 40 26.5 65.5t68.5 25.5q41 0 67 -25.5t26 -65.5q0 -41 -26.5 -68t-66.5 -27z" />
    <glyph glyph-name="zero.ss10" horiz-adv-x="956" 
d="M952 -88h-908v888h908v-888zM124 728v-744h748v744h-748zM636 183q-46 -63 -138 -63t-138 63q-47 64 -47 173q0 112 47.5 175t137.5 63t137.5 -63t47.5 -175q0 -109 -47 -173zM398 356q0 -167 100 -167t100 167q0 168 -100 168t-100 -168z" />
    <glyph glyph-name="one.ss10" horiz-adv-x="956" 
d="M44 -88v888h908v-888h-908zM124 -16h748v744h-748v-744zM557 129h-81v342q-34 -17 -113 -17v59q56 3 82.5 17t41.5 54h70v-455z" />
    <glyph glyph-name="two.ss10" horiz-adv-x="956" 
d="M44 -88v888h908v-888h-908zM124 -16h748v744h-748v-744zM418 199h250v-70h-339l1 31q3 72 35.5 118.5t108.5 76.5l31 12q78 31 78 88q0 69 -85 69q-41 0 -62.5 -22.5t-21.5 -59.5h-79q1 69 43 110.5t123 41.5q76 0 119 -38.5t43 -98.5q0 -100 -125 -154l-38 -16
q-75 -33 -82 -88z" />
    <glyph glyph-name="three.ss10" horiz-adv-x="956" 
d="M44 -88v888h908v-888h-908zM124 -16h748v744h-748v-744zM499 186q43 0 68 20.5t25 56.5q0 73 -97 73h-30v61h32q86 0 86 67q0 29 -22.5 46.5t-60.5 17.5q-80 0 -84 -70h-81q4 66 47 101t118 35q74 0 118 -33.5t44 -88.5q0 -32 -17.5 -59t-47.5 -41q36 -12 56 -41.5
t20 -70.5q0 -63 -47 -101.5t-127 -38.5q-85 0 -131.5 41t-47.5 116h80q0 -91 99 -91z" />
    <glyph glyph-name="four.ss10" horiz-adv-x="956" 
d="M44 -88v888h908v-888h-908zM124 -16h748v744h-748v-744zM617 129h-84v110h-228v81l227 264h85v-275h66v-70h-66v-110zM537 309v182l-159 -182h159z" />
    <glyph glyph-name="five.ss10" horiz-adv-x="956" 
d="M44 -88v888h908v-888h-908zM124 -16h748v744h-748v-744zM498 186q42 0 67 25.5t25 65.5q0 41 -25.5 67.5t-66.5 26.5q-65 0 -88 -51h-79l47 264h270v-70h-206l-20 -109q34 30 94 30q69 0 110.5 -44t41.5 -114q0 -71 -48 -114t-122 -43q-70 0 -117.5 36.5t-55.5 98.5h79
q7 -32 31.5 -50.5t62.5 -18.5z" />
    <glyph glyph-name="six.ss10" horiz-adv-x="956" 
d="M44 -88v888h908v-888h-908zM124 -16h748v744h-748v-744zM394 153q-72 53 -72 192q0 121 46.5 185t137.5 64q66 0 109 -33t53 -91h-80q-16 58 -82 58q-99 0 -108 -145q43 52 116 52q71 0 116 -45q44 -47 44 -113q0 -71 -48 -114t-123 -43q-64 0 -109 33zM503 367
q-39 0 -65 -26.5t-26 -65.5t25 -64t66 -25t66.5 25t25.5 64q0 40 -25.5 66t-66.5 26z" />
    <glyph glyph-name="seven.ss10" horiz-adv-x="956" 
d="M44 -88v888h908v-888h-908zM124 -16h748v744h-748v-744zM499 129h-87q1 110 45 214q43 100 118 171h-235v70h317v-71q-82 -76 -119.5 -166t-38.5 -218z" />
    <glyph glyph-name="eight.ss10" horiz-adv-x="956" 
d="M44 -88v888h908v-888h-908zM124 -16h748v744h-748v-744zM321 254q0 82 79 116q-58 34 -58 99q0 56 42 90.5t114 34.5t113.5 -34.5t41.5 -90.5q0 -65 -57 -99q79 -34 79 -116q0 -60 -47 -97t-130 -37q-82 0 -129.5 37t-47.5 97zM558 515q-36 30 -91.5 13t-50.5 -63
q0 -32 23 -51t59 -19q37 0 60 19t23 51q0 30 -23 50zM426 206q25 -22 72 -22t72 22q25 21 25 57t-25.5 57t-71.5 21t-71.5 -21t-25.5 -57t25 -57z" />
    <glyph glyph-name="nine.ss10" horiz-adv-x="956" 
d="M44 -88v888h908v-888h-908zM124 -16h748v744h-748v-744zM598 329q-43 -52 -115 -52t-115 46q-45 45 -45 112q0 71 48 114.5t123 43.5q64 0 108 -33q73 -55 73 -193q0 -119 -45.5 -183.5t-133.5 -64.5q-69 0 -113 32.5t-54 90.5h79q16 -57 88 -57q93 0 102 144zM494 527
q-42 0 -67.5 -25t-25.5 -64q0 -40 26 -66.5t67 -26.5t66 26.5t25 66.5q0 39 -25 64t-66 25z" />
    <glyph glyph-name="zero.zero" horiz-adv-x="616" 
d="M398 728q130 0 179 -100t9 -286q-37 -172 -120.5 -265t-205.5 -93q-134 0 -181 99t-6 291q36 169 119.5 261.5t205.5 92.5zM162 368q-19 -93 -18 -157l350 384q-30 57 -102 57q-83 0 -141.5 -72.5t-88.5 -211.5zM496 343q23 110 17 175l-355 -389q28 -69 108 -69
q83 0 142 72.5t88 210.5z" />
    <glyph glyph-name="zero.dnom" horiz-adv-x="376" 
d="M148 -8q-85 0 -121.5 61.5t-12.5 174.5q43 194 193 194q85 0 121.5 -60.5t12.5 -170.5q-42 -199 -193 -199zM153 53q85 0 115 143q34 165 -67 165q-86 0 -116 -145q-17 -79 1.5 -121t66.5 -42z" />
    <glyph glyph-name="one.dnom" horiz-adv-x="241" 
d="M128 0h-77l63 295h-100l11 54q49 0 76.5 13.5t50.5 50.5h64z" />
    <glyph glyph-name="two.dnom" horiz-adv-x="333" 
d="M265 0h-307l6 27q13 61 53 104t116 73l31 12q80 32 89 77q6 33 -11.5 50t-56.5 17q-81 0 -92 -74h-69q10 63 52 99t115 36t108 -37.5t23 -96.5q-17 -80 -142 -128l-31 -12q-46 -18 -69 -37.5t-32 -48.5h230z" />
    <glyph glyph-name="three.dnom" horiz-adv-x="349" 
d="M132 -8q-73 0 -114 39.5t-32 102.5h66q-4 -38 18 -61.5t66 -23.5q81 0 95 62q18 81 -74 81h-26l11 50h28q38 0 62.5 14.5t30.5 38.5q8 32 -11 50.5t-57 18.5q-37 0 -58.5 -15t-30.5 -50h-69q26 122 160 122q71 0 108 -35t24 -96q-5 -24 -26.5 -46t-50.5 -30
q64 -28 47 -109q-12 -50 -56 -81.5t-111 -31.5z" />
    <glyph glyph-name="four.dnom" horiz-adv-x="374" 
d="M283 163h60l-14 -63h-60l-21 -100h-76l21 100h-208l16 73l258 240h77zM245 329l-179 -166h144z" />
    <glyph glyph-name="five.dnom" horiz-adv-x="352" 
d="M139 -8q-65 0 -105.5 32.5t-41.5 86.5l70 3q1 -29 24 -47t58 -18q76 0 95 83q9 41 -10 65t-59 24q-57 0 -89 -47h-71l95 239h245l-13 -61h-190l-45 -108q30 32 86 32q65 0 99 -42.5t17 -113.5q-14 -60 -58 -94t-107 -34z" />
    <glyph glyph-name="six.dnom" horiz-adv-x="365" 
d="M207 364q-45 0 -73.5 -28.5t-49.5 -94.5l-3 -13q43 51 110 51q66 0 101 -43.5t21 -111.5q-12 -61 -56 -96.5t-108 -35.5q-66 0 -110 44q-47 47 -24 191q19 93 70 143.5t130 50.5q60 0 96.5 -30t35.5 -81h-70q-5 54 -70 54zM177 220q-38 0 -66.5 -20.5t-34.5 -47.5
q-11 -47 10.5 -75t67.5 -28q35 0 59.5 21.5t31.5 58.5q7 40 -11.5 65.5t-56.5 25.5z" />
    <glyph glyph-name="seven.dnom" horiz-adv-x="319" 
d="M98 0h-80q24 103 83.5 197t139.5 156h-214l13 60h287l-13 -62q-88 -69 -139 -151.5t-77 -199.5z" />
    <glyph glyph-name="eight.dnom" horiz-adv-x="362" 
d="M141 -8q-77 0 -117.5 36.5t-28.5 100.5q6 32 32.5 57t66.5 33q-52 35 -39 100q10 49 50 75.5t99 26.5q67 0 103 -36t24 -93q-5 -25 -24.5 -45t-45.5 -28q67 -33 49 -117q-10 -49 -56 -79.5t-113 -30.5zM184 240q33 0 56.5 15.5t29.5 43.5q7 32 -12.5 50.5t-56.5 18.5
q-32 0 -55.5 -16t-28.5 -40q-7 -31 11 -51.5t56 -20.5zM146 48q83 0 98 66q9 39 -12 59.5t-67 20.5q-87 0 -101 -68q-7 -37 15 -57.5t67 -20.5z" />
    <glyph glyph-name="nine.dnom" horiz-adv-x="365" 
d="M129 -8q-60 0 -96.5 30t-35.5 81h70q5 -54 70 -54q45 0 73.5 28.5t49.5 94.5q2 10 2 11q-45 -49 -109 -49q-66 0 -101 43.5t-21 111.5q12 61 56 96.5t108 35.5q66 0 110 -44q47 -47 24 -191q-19 -93 -70 -143.5t-130 -50.5zM167 193q38 0 66.5 20.5t34.5 47.5
q11 47 -10.5 75t-67.5 28q-35 0 -59.5 -21.5t-31.5 -58.5q-7 -40 11.5 -65.5t56.5 -25.5z" />
    <glyph glyph-name="zero.numr" horiz-adv-x="376" 
d="M211 291q-85 0 -121.5 61.5t-12.5 174.5q43 194 193 194q85 0 121.5 -60.5t12.5 -170.5q-42 -199 -193 -199zM216 352q85 0 115 143q34 165 -67 165q-86 0 -116 -145q-17 -79 1.5 -121t66.5 -42z" />
    <glyph glyph-name="one.numr" horiz-adv-x="241" 
d="M192 299h-77l63 295h-100l11 54q49 0 76.5 13.5t50.5 50.5h64z" />
    <glyph glyph-name="two.numr" horiz-adv-x="333" 
d="M328 299h-307l6 27q13 61 53 104t116 73l31 12q80 32 89 77q6 33 -11.5 50t-56.5 17q-81 0 -92 -74h-69q10 63 52 99t115 36t108 -37.5t23 -96.5q-17 -80 -142 -128l-31 -12q-46 -18 -69 -37.5t-32 -48.5h230z" />
    <glyph glyph-name="three.numr" horiz-adv-x="349" 
d="M195 291q-73 0 -114 39.5t-32 102.5h66q-4 -38 18 -61.5t66 -23.5q81 0 95 62q18 81 -74 81h-26l11 50h28q38 0 62.5 14.5t30.5 38.5q8 32 -11 50.5t-57 18.5q-37 0 -58.5 -15t-30.5 -50h-69q26 122 160 122q71 0 108 -35t24 -96q-5 -24 -26.5 -46t-50.5 -30
q64 -28 47 -109q-12 -50 -56 -81.5t-111 -31.5z" />
    <glyph glyph-name="four.numr" horiz-adv-x="374" 
d="M346 462h60l-14 -63h-60l-21 -100h-76l21 100h-208l16 73l258 240h77zM308 628l-179 -166h144z" />
    <glyph glyph-name="five.numr" horiz-adv-x="352" 
d="M202 291q-65 0 -105.5 32.5t-41.5 86.5l70 3q1 -29 24 -47t58 -18q76 0 95 83q9 41 -10 65t-59 24q-57 0 -89 -47h-71l95 239h245l-13 -61h-190l-45 -108q30 32 86 32q65 0 99 -42.5t17 -113.5q-14 -60 -58 -94t-107 -34z" />
    <glyph glyph-name="six.numr" horiz-adv-x="365" 
d="M270 663q-46 0 -75.5 -29t-47.5 -94l-3 -13q43 51 110 51q66 0 101 -43.5t21 -111.5q-12 -61 -56 -96.5t-108 -35.5q-66 0 -110 44q-47 47 -24 191q19 93 70 143.5t130 50.5q60 0 96.5 -30t35.5 -81h-70q-4 54 -70 54zM240 519q-38 0 -66.5 -20.5t-34.5 -47.5
q-11 -47 10.5 -75t67.5 -28q35 0 59.5 21.5t31.5 58.5q7 40 -11.5 65.5t-56.5 25.5z" />
    <glyph glyph-name="seven.numr" horiz-adv-x="319" 
d="M161 299h-80q24 103 83.5 197t139.5 156h-214l13 60h287l-13 -62q-88 -69 -139 -151.5t-77 -199.5z" />
    <glyph glyph-name="eight.numr" horiz-adv-x="362" 
d="M204 291q-77 0 -117.5 36.5t-28.5 100.5q6 32 32.5 57t66.5 33q-52 35 -39 100q10 49 50 75.5t99 26.5q67 0 103 -36t24 -93q-5 -25 -24.5 -45t-45.5 -28q67 -33 49 -117q-10 -49 -56 -79.5t-113 -30.5zM247 539q33 0 56.5 15.5t29.5 43.5q7 32 -12.5 50.5t-56.5 18.5
q-32 0 -55.5 -16t-28.5 -40q-7 -31 11 -51.5t56 -20.5zM209 347q83 0 98 66q9 39 -12 59.5t-67 20.5q-87 0 -101 -68q-7 -37 15 -57.5t67 -20.5z" />
    <glyph glyph-name="nine.numr" horiz-adv-x="365" 
d="M192 291q-60 0 -96.5 30t-35.5 81h70q4 -54 70 -54q45 0 73.5 28.5t49.5 94.5q2 10 2 11q-45 -49 -109 -49q-66 0 -101 43.5t-21 111.5q12 61 56 96.5t108 35.5q66 0 110 -44q47 -47 24 -191q-19 -93 -70 -143.5t-130 -50.5zM230 492q38 0 66.5 20.5t34.5 47.5
q11 47 -10.5 75t-67.5 28q-35 0 -59.5 -21.5t-31.5 -58.5q-7 -40 11.5 -65.5t56.5 -25.5z" />
    <glyph glyph-name="zero.tf" horiz-adv-x="616" 
d="M260 -16q-134 0 -181 99t-6 291q36 169 119.5 261.5t205.5 92.5q130 0 179 -100t9 -286q-37 -172 -120.5 -265t-205.5 -93zM266 60q83 0 142 72.5t88 210.5q66 309 -104 309q-83 0 -141.5 -72.5t-88.5 -211.5q-66 -308 104 -308z" />
    <glyph glyph-name="one.tf" horiz-adv-x="616" 
d="M459 712l-136 -638h186l-16 -74h-464l16 74h194l97 457h-162l14 66l16 1q77 5 119 30t68 84h68z" />
    <glyph glyph-name="two.tf" horiz-adv-x="616" 
d="M397 728q105 0 160 -60q54 -61 34 -157q-15 -69 -65.5 -122.5t-143.5 -101.5l-86 -44q-72 -37 -106 -73q-34 -37 -52 -94h370l-16 -76h-470l10 39q22 86 67 150q43 60 144 111l101 52q76 39 112 74.5t47 84.5q14 67 -15.5 104t-100.5 37q-144 0 -176 -153h-84
q42 229 270 229z" />
    <glyph glyph-name="three.tf" horiz-adv-x="616" 
d="M583 516q-22 -93 -129 -140q110 -57 79 -199q-19 -90 -87 -141.5t-177 -51.5q-117 0 -176.5 62.5t-45.5 168.5h84q-9 -76 29 -115.5t117 -39.5q143 0 170 126q16 74 -18.5 115t-110.5 41h-53l15 70h48q70 0 115 29.5t56 81.5q13 60 -20.5 94.5t-100.5 34.5
q-139 0 -172 -136h-85q21 98 90.5 155t173.5 57q98 0 159.5 -55.5t38.5 -156.5z" />
    <glyph glyph-name="four.tf" horiz-adv-x="616" 
d="M491 712h91l-98 -458h96l-16 -76h-96l-38 -178h-84l38 178h-357l17 81zM472 594l-336 -340h264z" />
    <glyph glyph-name="five.tf" horiz-adv-x="616" 
d="M602 712l-16 -76h-300l-77 -213q58 41 132 41q110 0 166 -74q54 -74 29 -191q-19 -90 -88 -153q-68 -62 -176 -62q-106 0 -167 58q-62 59 -55 156h85q-3 -68 35.5 -103t109.5 -35q65 0 111 41.5t60 110.5q17 80 -18.5 128t-108.5 48q-106 0 -154 -86h-83l147 410h368z
" />
    <glyph glyph-name="six.tf" horiz-adv-x="616" 
d="M359 464q106 0 164 -73t32 -192q-21 -98 -91 -156.5t-173 -58.5q-117 0 -177 81q-69 92 -28 316q33 157 117 252t212 95q93 0 146.5 -51t53.5 -141h-84q-6 116 -129 116q-170 0 -233 -274q71 86 190 86zM470 210q15 80 -22 129t-108 49q-65 0 -115 -41q-49 -40 -63 -101
q-20 -85 18.5 -135.5t115.5 -50.5q65 0 112.5 41.5t61.5 108.5z" />
    <glyph glyph-name="seven.tf" horiz-adv-x="616" 
d="M146 636l16 76h475l-14 -66q-313 -271 -405 -646h-90q47 189 140 340q94 153 252 296h-374z" />
    <glyph glyph-name="eight.tf" horiz-adv-x="616" 
d="M592 516q-23 -98 -142 -140q59 -28 86 -80.5t12 -122.5q-18 -85 -90 -137t-181 -52q-130 0 -195 68q-64 67 -39 181q25 118 166 156q-90 57 -68 174q16 81 81 123t168 42q106 0 165 -59q58 -58 37 -153zM508 516q14 62 -20.5 99t-103.5 37q-142 0 -162 -102
q-12 -64 25 -100t107 -36q61 0 102 27t52 75zM463 189q15 75 -23.5 115t-120.5 40q-77 0 -128 -31.5t-63 -92.5q-16 -74 25 -117t126 -43q75 0 123.5 34.5t60.5 94.5z" />
    <glyph glyph-name="nine.tf" horiz-adv-x="616" 
d="M551 648q69 -92 28 -316q-33 -158 -117 -252q-84 -95 -212 -95q-93 0 -146.5 51t-53.5 141h84q6 -116 129 -116q170 0 233 274q-71 -86 -190 -86q-105 0 -164 74q-58 72 -32 191q21 98 91 156.5t173 58.5q117 0 177 -81zM325 325q66 0 116 41q48 39 62 101
q20 85 -18.5 135.5t-115.5 50.5q-65 0 -112.5 -41.5t-61.5 -108.5q-15 -80 22 -129t108 -49z" />
    <glyph glyph-name="zero.tf.zero" horiz-adv-x="616" 
d="M398 728q130 0 179 -100t9 -286q-37 -172 -120.5 -265t-205.5 -93q-134 0 -181 99t-6 291q36 169 119.5 261.5t205.5 92.5zM162 368q-19 -93 -18 -157l350 384q-30 57 -102 57q-83 0 -141.5 -72.5t-88.5 -211.5zM496 343q23 110 17 175l-355 -389q28 -69 108 -69
q83 0 142 72.5t88 210.5z" />
    <glyph glyph-name="period.ss01" horiz-adv-x="207" 
d="M61 -7q-26 0 -43 16t-17 41t17 41.5t43 16.5q24 0 40.5 -16t16.5 -40q0 -25 -16.5 -42t-40.5 -17z" />
    <glyph glyph-name="comma.ss01" horiz-adv-x="202" 
d="M11 85q18 13 41 15t42 -16.5t17 -51.5q0 -58 -42 -111t-114 -60l12 53q63 15 80 80q-34 -1 -47.5 32.5t11.5 58.5z" />
    <glyph glyph-name="colon.ss01" horiz-adv-x="207" 
d="M141 378q-26 0 -43 16t-17 41t17 41.5t43 16.5q24 0 40.5 -16t16.5 -40q0 -25 -16.5 -42t-40.5 -17zM61 -7q-26 0 -43 16t-17 41t17 41.5t43 16.5q24 0 40.5 -16t16.5 -40q0 -25 -16.5 -42t-40.5 -17z" />
    <glyph glyph-name="semicolon.ss01" horiz-adv-x="218" 
d="M150 493q24 0 40.5 -16t16.5 -40q0 -25 -16.5 -42t-40.5 -17q-26 0 -43 16t-17 41t17 41.5t43 16.5zM16 85q18 13 41 15t42 -16.5t17 -51.5q0 -58 -42 -111t-114 -60l12 53q63 15 80 80q-34 -1 -47.5 32.5t11.5 58.5z" />
    <glyph glyph-name="ellipsis.ss01" horiz-adv-x="656" 
d="M61 -7q-26 0 -43 16t-17 41t17 41.5t43 16.5q24 0 40.5 -16t16.5 -40q0 -25 -16.5 -42t-40.5 -17zM290 -7q-26 0 -43 16t-17 41t17 41.5t43 16.5q24 0 40.5 -16t16.5 -40q0 -25 -16.5 -42t-40.5 -17zM510 -7q-26 0 -43 16t-17 41t17 41.5t43 16.5q24 0 40.5 -16t16.5 -40
q0 -25 -16.5 -42t-40.5 -17z" />
    <glyph glyph-name="exclam.ss01" horiz-adv-x="207" 
d="M114 186h-52l56 330l42 196h84l-42 -196zM61 -7q-26 0 -43 16t-17 41t17 41.5t43 16.5q24 0 40.5 -16t16.5 -40q0 -25 -16.5 -42t-40.5 -17z" />
    <glyph glyph-name="exclamdown.ss01" horiz-adv-x="207" 
d="M164 478q-24 0 -40.5 16t-16.5 40q0 25 16.5 42t40.5 17q26 0 43 -16t17 -41t-17 -41.5t-43 -16.5zM65 -126h-84l42 196l88 330h52l-56 -330z" />
    <glyph glyph-name="question.ss01" horiz-adv-x="507" 
d="M275 186h-79q16 73 43 119q30 49 102 102q10 8 28.5 21t24.5 18q19 16 37 39q19 23 25 49q13 57 -15 87.5t-96 30.5q-73 0 -117.5 -36.5t-67.5 -122.5h-82q49 235 272 235q108 0 159.5 -52t30.5 -151q-9 -43 -40 -79t-89 -77q-49 -36 -69.5 -54t-35.5 -40
q-18 -28 -31 -89zM202 -7q-26 0 -43 16t-17 41t17 41.5t43 16.5q24 0 40.5 -16t16.5 -40q0 -25 -16.5 -42t-40.5 -17z" />
    <glyph glyph-name="questiondown.ss01" horiz-adv-x="542" 
d="M340 478q-24 0 -40.5 16t-16.5 40q0 25 16.5 42t40.5 17q26 0 43 -16t17 -41t-17 -41.5t-43 -16.5zM192 -142q-108 0 -159.5 52t-30.5 151q16 76 129 156q78 55 105 94q18 28 31 89h79q-16 -73 -43 -119q-31 -53 -102 -102q-63 -45 -89 -77q-21 -27 -26 -50
q-13 -57 15 -87.5t96 -30.5q73 0 117.5 36.5t67.5 122.5h82q-49 -235 -272 -235z" />
    <glyph glyph-name="periodcentered.ss01" horiz-adv-x="207" 
d="M126 302q-26 0 -43 16t-17 41t17 41.5t43 16.5q24 0 40.5 -16t16.5 -40q0 -25 -16.5 -42t-40.5 -17z" />
    <glyph glyph-name="bullet.ss01" horiz-adv-x="305" 
d="M162 191q-45 0 -74.5 28t-29.5 71t29.5 72t74.5 29q41 0 70 -28t29 -69q0 -44 -28.5 -73.5t-70.5 -29.5z" />
    <glyph glyph-name="uni203D.ss01" horiz-adv-x="507" 
d="M350 728q108 0 159.5 -52t30.5 -151q-9 -43 -40 -79t-89 -77q-49 -36 -69.5 -54t-35.5 -40q-18 -28 -31 -89h-79l60 310l16 76h87l-16 -76l-25 -106q6 5 11.5 9t8.5 6l3 2q28 20 39 28.5t25 21.5t26 28q19 23 25 49q13 57 -15 87.5t-96 30.5q-73 0 -117.5 -36.5
t-67.5 -122.5h-82q49 235 272 235zM210 108q24 0 40.5 -16t16.5 -40q0 -25 -16.5 -42t-40.5 -17q-26 0 -43 16t-17 41t17 41.5t43 16.5z" />
    <glyph glyph-name="uni2E18.ss01" horiz-adv-x="507" 
d="M317 478q-24 0 -40.5 16t-16.5 40q0 25 16.5 42t40.5 17q26 0 43 -16t17 -41t-17 -41.5t-43 -16.5zM367 93h82q-49 -235 -272 -235q-108 0 -159.5 52t-30.5 151q16 76 129 156q68 51 78 61q16 16 27 33q18 28 31 89h79l-60 -310l-16 -76h-87l16 76l25 106l-23 -17
q-63 -45 -89 -77q-21 -27 -26 -50q-13 -57 15 -87.5t96 -30.5q73 0 117.5 36.5t67.5 122.5z" />
    <glyph glyph-name="period.tf.ss01" horiz-adv-x="616" 
d="M266 -7q-26 0 -43 16t-17 41t17 41.5t43 16.5q24 0 40.5 -16t16.5 -40q0 -25 -16.5 -42t-40.5 -17z" />
    <glyph glyph-name="comma.tf.ss01" horiz-adv-x="616" 
d="M219 85q18 13 41 15t42 -16.5t17 -51.5q0 -58 -42 -111t-114 -60l12 53q63 15 80 80q-34 -1 -47.5 32.5t11.5 58.5z" />
    <glyph glyph-name="colon.tf.ss01" horiz-adv-x="616" 
d="M347 378q-26 0 -43 16t-17 41t17 41.5t43 16.5q24 0 40.5 -16t16.5 -40q0 -25 -16.5 -42t-40.5 -17zM267 -7q-26 0 -43 16t-17 41t17 41.5t43 16.5q24 0 40.5 -16t16.5 -40q0 -25 -16.5 -42t-40.5 -17z" />
    <glyph glyph-name="semicolon.tf.ss01" horiz-adv-x="616" 
d="M351 493q24 0 40.5 -16t16.5 -40q0 -25 -16.5 -42t-40.5 -17q-26 0 -43 16t-17 41t17 41.5t43 16.5zM217 85q18 13 41 15t42 -16.5t17 -51.5q0 -58 -42 -111t-114 -60l12 53q63 15 80 80q-34 -1 -47.5 32.5t11.5 58.5z" />
    <glyph glyph-name="period.tf" horiz-adv-x="616" 
d="M303 0h-101l22 100h101z" />
    <glyph glyph-name="comma.tf" horiz-adv-x="616" 
d="M203 0l21 100h101l-23 -109q-14 -66 -43.5 -95.5t-84.5 -34.5l11 54q47 7 59 69l3 16h-44z" />
    <glyph glyph-name="colon.tf" horiz-adv-x="616" 
d="M385 391h-101l22 100h101zM304 0h-101l22 100h101z" />
    <glyph glyph-name="semicolon.tf" horiz-adv-x="616" 
d="M285 390l22 100h101l-22 -100h-101zM247 0h-44l21 100h101l-23 -109q-26 -120 -118 -129l-10 -1l11 54l7 1q38 6 52 68z" />
    <glyph glyph-name="parenleft.case" horiz-adv-x="275" 
d="M188 -67h-68q-70 226 -24 454q50 236 200 395h72q-154 -187 -199 -407q-45 -214 19 -442z" />
    <glyph glyph-name="parenright.case" horiz-adv-x="275" 
d="M19 -67h-72q154 187 199 407q45 214 -19 442h68q70 -226 24 -454q-50 -236 -200 -395z" />
    <glyph glyph-name="braceleft.case" horiz-adv-x="345" 
d="M244 -70h-67q-136 0 -109 125l43 203q6 31 -9 46.5t-59 16.5l14 70q84 1 96 63l43 203q27 125 163 125h67l-15 -70h-64q-25 0 -41 -9.5t-21.5 -21t-9.5 -28.5l-45 -211q-9 -42 -31.5 -62.5t-64.5 -22.5v-2q78 -5 56 -105l-41 -191q-14 -59 46 -59h64z" />
    <glyph glyph-name="braceright.case" horiz-adv-x="345" 
d="M25 -70h-67l15 70h64q25 0 41 9.5t21.5 21t9.5 28.5l45 211q9 42 31.5 62.5t64.5 22.5v2q-78 5 -56 105l41 191q14 59 -46 59h-64l15 70h67q136 0 109 -125l-43 -203q-6 -31 9 -46.5t59 -16.5l-14 -70q-84 -1 -96 -63l-43 -203q-27 -125 -163 -125z" />
    <glyph glyph-name="bracketleft.case" horiz-adv-x="316" 
d="M218 -70h-231l182 852h231l-15 -70h-151l-152 -712h151z" />
    <glyph glyph-name="bracketright.case" horiz-adv-x="316" 
d="M188 -70h-231l15 70h151l152 712h-151l15 70h231z" />
    <glyph glyph-name="hyphen.case" horiz-adv-x="369" 
d="M326 331h-289l16 72h289z" />
    <glyph glyph-name="endash.case" horiz-adv-x="529" 
d="M485 331h-450l25 72h449z" />
    <glyph glyph-name="emdash.case" horiz-adv-x="961" 
d="M928 331h-882l18 72h882z" />
    <glyph glyph-name="hyphen.tf" horiz-adv-x="616" 
d="M450 246h-289l16 72h289z" />
    <glyph glyph-name="guillemotleft.case" horiz-adv-x="505" 
d="M75 413l199 139l-19 -97l-134 -93l94 -92l-19 -89l-141 139zM280 413l199 139l-19 -97l-134 -93l94 -92l-19 -89l-141 139z" />
    <glyph glyph-name="guillemotright.case" horiz-adv-x="505" 
d="M85 463l19 89l141 -139l-20 -93l-199 -139l19 97l134 93zM290 463l19 89l141 -139l-20 -93l-199 -139l19 97l134 93z" />
    <glyph glyph-name="guilsinglleft.case" horiz-adv-x="300" 
d="M75 402l199 139l-19 -97l-134 -93l94 -92l-19 -89l-141 139z" />
    <glyph glyph-name="guilsinglright.case" horiz-adv-x="300" 
d="M85 452l19 89l141 -139l-20 -93l-199 -139l19 97l134 93z" />
    <glyph glyph-name="quotesinglbase.ss01" horiz-adv-x="200" 
d="M52 97q27 0 42.5 -17t15.5 -50q0 -56 -41 -108q-42 -52 -112 -59l12 52q63 13 78 78q-22 2 -36.5 16t-14.5 35q0 22 16 37.5t40 15.5z" />
    <glyph glyph-name="quotedblbase.ss01" horiz-adv-x="347" 
d="M52 97q27 0 42.5 -17t15.5 -50q0 -56 -41 -108q-42 -52 -112 -59l12 52q63 13 78 78q-22 2 -36.5 16t-14.5 35q0 22 16 37.5t40 15.5zM159 82q18 13 40.5 15t41 -16.5t16.5 -50.5q0 -56 -41 -108q-42 -52 -112 -59l12 52q63 13 78 78q-33 -1 -46.5 31.5t11.5 57.5z" />
    <glyph glyph-name="quotedblleft.ss01" horiz-adv-x="347" 
d="M256 713l-12 -52q-63 -13 -78 -78q33 0 46.5 -32t-10.5 -56q-16 -16 -40.5 -16.5t-42.5 17.5t-16 50q0 57 42 108q41 52 111 59zM403 713l-12 -52q-63 -13 -78 -78q22 -2 36.5 -16t14.5 -35q0 -22 -16 -37.5t-40 -15.5q-27 0 -42.5 17t-15.5 50q0 57 42 108q41 52 111 59
z" />
    <glyph glyph-name="quotedblright.ss01" horiz-adv-x="347" 
d="M182 711q27 0 42.5 -17t15.5 -50q0 -56 -41 -108q-42 -52 -112 -59l12 52q63 13 78 78q-22 2 -36.5 16t-14.5 35q0 22 16 37.5t40 15.5zM289 696q18 13 40.5 15t41 -16.5t16.5 -50.5q0 -56 -41 -108q-42 -52 -112 -59l12 52q63 13 78 78q-33 -1 -46.5 31.5t11.5 57.5z
" />
    <glyph glyph-name="quoteleft.ss01" horiz-adv-x="200" 
d="M256 712l-12 -52q-63 -14 -78 -78q33 0 46.5 -32t-10.5 -56q-16 -16 -40.5 -17t-42.5 17t-16 51q0 57 42 108q41 52 111 59z" />
    <glyph glyph-name="quoteright.ss01" horiz-adv-x="200" 
d="M182 712q58 0 58 -67q0 -56 -41 -108q-42 -52 -112 -59l12 52q63 14 78 78q-22 2 -36.5 16t-14.5 35q0 22 16 37.5t40 15.5z" />
    <glyph glyph-name="hyphen.dnom" horiz-adv-x="203" 
d="M170 167h-174l10 57h173z" />
    <glyph glyph-name="parenleft.dnom" horiz-adv-x="158" 
d="M89 -78h-69q-17 74 -16 135q0 63 18 149q20 89 46 152q25 62 74 134h69q-89 -131 -122 -286q-30 -141 0 -284z" />
    </font>
</defs>
</svg>
