<?xml version="1.0" standalone="no"?>
<!DOCTYPE svg PUBLIC "-//W3C//DTD SVG 1.1//EN" "http://www.w3.org/Graphics/SVG/1.1/DTD/svg11.dtd" >
<svg xmlns="http://www.w3.org/2000/svg" xmlns:xlink="http://www.w3.org/1999/xlink" version="1.1">
<metadata>
Created by FontForge 20170731 at Sun Apr 14 21:27:15 2019
 By Aleksey,,,
Copyright (c) 2019 Monotype Imaging Inc. All rights reserved.
</metadata>
<defs>
<font id="HelveticaNowDisplay-ExtLtIta" horiz-adv-x="0" >
  <font-face 
    font-family="HelveticaNowDisplay ExtraLight"
    font-weight="300"
    font-style="italic"
    font-stretch="normal"
    units-per-em="1000"
    panose-1="2 11 3 4 3 2 2 9 2 4"
    ascent="875"
    descent="-125"
    x-height="516"
    cap-height="712"
    bbox="-406 -304 1215 1027"
    underline-thickness="50"
    underline-position="-300"
    slope="-12"
    unicode-range="U+000D-FEFF"
  />
<missing-glyph horiz-adv-x="608" 
d="M543 0h-478v712h478v-712zM108 673v-634h392v634h-392z" />
    <glyph glyph-name="fi" unicode="fi" horiz-adv-x="433" 
d="M318 516l-9 -36h-118l-103 -480h-41l102 480h-89l8 36h89l17 79q24 119 144 119q15 0 45 -2l-7 -35q-9 1 -43 1q-79 0 -99 -89l-16 -73h120zM403 594l19 91h43l-19 -91h-43zM319 0h-41l110 516h41z" />
    <glyph glyph-name="fl" unicode="fl" horiz-adv-x="429" 
d="M318 516l-9 -36h-118l-103 -480h-41l102 480h-89l8 36h89l17 79q24 119 144 119q15 0 45 -2l-7 -35q-9 1 -43 1q-79 0 -99 -89l-16 -73h120zM274 0l152 712h41l-152 -712h-41z" />
    <glyph glyph-name=".notdef" horiz-adv-x="608" 
d="M543 0h-478v712h478v-712zM108 673v-634h392v634h-392z" />
    <glyph glyph-name=".null" 
 />
    <glyph glyph-name="nonmarkingreturn" horiz-adv-x="333" 
 />
    <glyph glyph-name="NULL" 
 />
    <glyph glyph-name="NULL" 
 />
    <glyph glyph-name="CR" unicode="&#xd;" horiz-adv-x="224" 
 />
    <glyph glyph-name="space" unicode=" " horiz-adv-x="224" 
 />
    <glyph glyph-name="exclam" unicode="!" horiz-adv-x="154" 
d="M69 181h-28l65 334l42 197h43l-42 -197zM55 0h-64l14 63h64z" />
    <glyph glyph-name="quotedbl" unicode="&#x22;" horiz-adv-x="332" 
d="M151 496h-31l42 216h43zM311 496h-31l41 216h43z" />
    <glyph glyph-name="numbersign" unicode="#" horiz-adv-x="600" 
d="M617 478l-15 -35h-117l-73 -174h118l-14 -35h-118l-98 -234h-41l98 234h-172l-98 -234h-41l98 234h-119l15 35h118l73 174h-119l14 35h119l98 234h41l-98 -234h172l98 234h41l-98 -234h118zM199 269h172l73 174h-172z" />
    <glyph glyph-name="dollar" unicode="$" horiz-adv-x="601" 
d="M456 828l-22 -103q93 -12 134.5 -64.5t31.5 -133.5h-44q19 137 -130 159l-65 -307l15 -3q108 -24 148 -75.5t22 -141.5q-18 -80 -86.5 -126.5t-182.5 -48.5l-21 -100h-37l21 101q-120 5 -177 61.5t-46 160.5h44q-10 -89 36.5 -134t151.5 -50l68 323l-40 9
q-195 42 -163 204q16 78 85.5 123.5t178.5 45.5h20l21 100h37zM305 391l20 -4l64 302h-15q-91 0 -147.5 -36t-68.5 -97q-14 -68 19 -106.5t128 -58.5zM502 165q15 72 -18 111.5t-132 62.5l-67 -316q189 6 217 142z" />
    <glyph glyph-name="percent" unicode="%" horiz-adv-x="779" 
d="M190 289q-75 0 -106 61.5t-8 168.5q19 95 65 148t116 53q75 0 105.5 -60.5t8.5 -165.5q-45 -205 -181 -205zM164 0h-42l531 712h42zM191 321q106 0 143 175q20 91 -1 142t-78 51q-106 0 -143 -175q-19 -90 2 -141.5t77 -51.5zM564 -10q-75 0 -106 61.5t-8 168.5
q19 95 65 148t116 53q75 0 105.5 -60.5t8.5 -165.5q-45 -205 -181 -205zM565 22q106 0 143 175q20 91 -1 142t-78 51q-106 0 -143 -175q-19 -90 2 -141.5t77 -51.5z" />
    <glyph glyph-name="ampersand" unicode="&#x26;" horiz-adv-x="632" 
d="M525 306h41q-30 -101 -89 -180l88 -126h-52l-65 92q-100 -108 -238 -108q-100 0 -152 60q-53 59 -33 148q12 60 63 107.5t149 95.5q-38 60 -50.5 106t-2.5 97q12 55 59.5 92.5t117.5 37.5q67 0 108 -44q41 -45 27 -111q-12 -53 -58 -96t-142 -93l158 -225q45 62 71 147z
M226 590q-8 -44 3 -83.5t47 -92.5q89 47 128.5 82t48.5 78q10 49 -18.5 83t-78.5 34t-85.5 -29t-44.5 -72zM214 23q120 0 212 101l-168 241q-93 -47 -136.5 -86t-54.5 -91q-13 -70 27 -117q40 -48 120 -48z" />
    <glyph glyph-name="quotesingle" unicode="'" horiz-adv-x="173" 
d="M151 496h-31l42 216h43z" />
    <glyph glyph-name="parenleft" unicode="(" horiz-adv-x="236" 
d="M136 -196h-40q-83 218 -20 512q56 260 226 466h42q-90 -114 -143.5 -227t-81.5 -245q-32 -162 -27 -275q4 -112 44 -231z" />
    <glyph glyph-name="parenright" unicode=")" horiz-adv-x="236" 
d="M-66 -196h-41q172 220 224 472q32 165 28 276q-4 113 -44 230h39q83 -218 20 -512q-56 -260 -226 -466z" />
    <glyph glyph-name="asterisk" unicode="*" horiz-adv-x="471" 
d="M389 329l-30 -15l-77 169l-140 -122l-21 25l141 124l-155 87l17 28l153 -86l36 172l33 -7l-37 -172l175 17l4 -33l-177 -16z" />
    <glyph glyph-name="plus" unicode="+" horiz-adv-x="516" 
d="M299 374h187v-37h-187v-186h-40v186h-186v37h186v187h40v-187z" />
    <glyph glyph-name="comma" unicode="," horiz-adv-x="157" 
d="M-6 0l14 63h64l-20 -93q-10 -47 -30 -70.5t-60 -34.5l7 31q40 15 52 74l7 30h-34z" />
    <glyph glyph-name="hyphen" unicode="-" horiz-adv-x="368" 
d="M318 264h-266l8 37h266z" />
    <glyph glyph-name="period" unicode="." horiz-adv-x="154" 
d="M54 0h-64l14 63h64z" />
    <glyph glyph-name="slash" unicode="/" horiz-adv-x="320" 
d="M-1 0h-42l406 712h42z" />
    <glyph glyph-name="zero" unicode="0" horiz-adv-x="595" 
d="M250 -16q-126 0 -170.5 100.5t-4.5 288.5q37 168 117.5 261.5t195.5 93.5q125 0 169.5 -100t5.5 -284q-37 -171 -117.5 -265.5t-195.5 -94.5zM252 23q96 0 164.5 84.5t101.5 236.5q37 164 3 254.5t-136 90.5q-95 0 -163.5 -84.5t-101.5 -234.5q-38 -165 -4 -256t136 -91z
" />
    <glyph glyph-name="one" unicode="1" horiz-adv-x="339" 
d="M312 712h38l-152 -712h-43l135 636q-86 -74 -209 -81l8 35q146 9 223 122z" />
    <glyph glyph-name="two" unicode="2" horiz-adv-x="540" 
d="M351 728q109 0 160 -61q50 -63 31 -154q-24 -121 -197 -208l-82 -40q-96 -47 -146 -100t-71 -126h405l-8 -39h-455l5 21q22 89 79 154.5t164 118.5l89 44q78 38 119.5 80t53.5 96q16 78 -22.5 126.5t-128.5 48.5q-173 0 -209 -172h-44q21 101 86 156t171 55z" />
    <glyph glyph-name="three" unicode="3" horiz-adv-x="557" 
d="M545 533q-12 -55 -53 -94.5t-105 -58.5q66 -21 96 -73t13 -133q-18 -86 -87 -138t-173 -52q-110 0 -170 57q-60 55 -46 152h42q-11 -80 38 -125t141 -45q84 0 140.5 41.5t71.5 112.5q18 89 -26 136.5t-138 47.5h-44l8 37h42q81 0 137 37.5t70 100.5q16 72 -24.5 112.5
t-125.5 40.5q-74 0 -127 -40t-70 -112h-43q18 89 83.5 140t161.5 51q99 0 154 -51q54 -52 34 -144z" />
    <glyph glyph-name="four" unicode="4" horiz-adv-x="573" 
d="M425 239h110l-9 -39h-109l-43 -200h-43l42 200h-377l9 41l473 471h48zM470 652l-416 -413h328z" />
    <glyph glyph-name="five" unicode="5" horiz-adv-x="558" 
d="M569 712l-8 -39h-315l-108 -288q70 70 174 70q105 0 158 -71q52 -71 28 -187q-19 -91 -88 -152q-68 -61 -169 -61q-97 0 -156 56q-58 55 -54 145h42q-1 -75 45.5 -118.5t126.5 -43.5q78 0 135.5 50t75.5 132q20 95 -22.5 153t-130.5 58q-121 0 -190 -108h-43l149 404h350
z" />
    <glyph glyph-name="six" unicode="6" horiz-adv-x="586" 
d="M392 689q-103 0 -173.5 -88t-104.5 -246q-10 -40 -11 -61q30 75 92.5 118t140.5 43q102 0 158 -71q54 -71 29 -183q-19 -93 -90 -155t-171 -62q-107 0 -161 71q-75 94 -28 312q34 163 117 262q82 99 209 99q86 0 135.5 -49t51.5 -132h-43q-2 67 -41 104.5t-110 37.5z
M108 227q-19 -91 26 -147q45 -57 130 -57q81 0 140 52q61 53 77 132q19 92 -25 151q-45 58 -129 58q-80 0 -141 -53q-60 -54 -78 -136z" />
    <glyph glyph-name="seven" unicode="7" horiz-adv-x="493" 
d="M112 673l8 39h447l-8 -36q-339 -285 -433 -676h-45q95 393 428 673h-397z" />
    <glyph glyph-name="eight" unicode="8" horiz-adv-x="575" 
d="M571 536q-13 -57 -57 -97.5t-111 -58.5q71 -21 103 -74t16 -126q-18 -85 -92 -141q-73 -55 -190 -55q-122 0 -181 61t-37 161q16 68 67 114t128 63q-56 21 -81 66t-12 107q16 80 84.5 126t170.5 46t157 -53t35 -139zM322 398q79 0 135.5 37.5t70.5 100.5q15 69 -28 111
t-125 42q-83 0 -139.5 -36.5t-70.5 -101.5q-15 -70 29 -111.5t128 -41.5zM479 187q17 81 -29 128t-144 47q-96 0 -160.5 -43.5t-79.5 -118.5q-17 -81 29.5 -129t146.5 -48q95 0 158 45t79 119z" />
    <glyph glyph-name="nine" unicode="9" horiz-adv-x="586" 
d="M522 658q75 -94 28 -312q-34 -163 -117 -262q-82 -100 -209 -100q-86 0 -135.5 49t-51.5 132h43q2 -66 41.5 -104t109.5 -38q104 0 174 87.5t104 246.5q9 45 12 62q-31 -75 -93.5 -118t-140.5 -43q-103 0 -157 71q-55 70 -30 182q19 93 91 156q70 61 170 61
q106 0 161 -70zM515 485q19 91 -26 148t-130 57q-81 0 -140 -52q-60 -53 -77 -133q-19 -92 26 -151q43 -58 128 -58q80 0 141 53q60 52 78 136z" />
    <glyph glyph-name="colon" unicode=":" horiz-adv-x="154" 
d="M142 427h-64l14 63h64zM54 0h-64l14 63h64z" />
    <glyph glyph-name="semicolon" unicode=";" horiz-adv-x="157" 
d="M84 427l14 63h64l-14 -63h-64zM28 0h-34l14 63h64l-20 -90q-20 -85 -81 -105l-9 -3l7 31l6 2q32 12 46 72z" />
    <glyph glyph-name="less" unicode="&#x3c;" horiz-adv-x="516" 
d="M485 578v-45l-161 -77q-2 -1 -30.5 -14.5t-77.5 -36.5t-105 -49q11 -5 27 -12.5t42 -19.5t44 -20q49 -23 100 -47l161 -78v-44l-414 199v44z" />
    <glyph glyph-name="equal" unicode="=" horiz-adv-x="516" 
d="M465 418h-414v38h414v-38zM465 256h-414v38h414v-38z" />
    <glyph glyph-name="greater" unicode="&#x3e;" horiz-adv-x="516" 
d="M93 533v45l414 -200v-44l-414 -199v44l161 78q51 24 101 47q93 43 112 52q-56 26 -105 49t-77.5 36.5t-30.5 14.5z" />
    <glyph glyph-name="question" unicode="?" horiz-adv-x="490" 
d="M239 181h-41q17 74 43 115q33 52 108 105q65 46 84 68q8 9 16 19q20 26 28 56q16 69 -19 107t-116 38q-86 0 -139.5 -42t-77.5 -135h-42q51 216 261 216q102 0 149.5 -49t27.5 -138q-11 -46 -43 -82.5t-90 -75.5q-79 -54 -112 -101q-24 -37 -37 -101zM219 0h-64l14 63h64
z" />
    <glyph glyph-name="at" unicode="@" horiz-adv-x="914" 
d="M549 728q190 0 286 -115q95 -116 56 -295q-20 -95 -81 -161q-61 -67 -136 -67q-96 0 -91 101q-63 -106 -165 -106q-82 0 -121 63t-16 169q19 95 81 154q61 57 139 57q49 0 81.5 -26t44.5 -70l19 86h40l-60 -280q-24 -112 54 -112q54 0 104 57t69 141q35 161 -50 265
q-86 104 -262 104q-161 0 -288 -107q-127 -106 -160 -266q-39 -180 50 -291t257 -111q101 0 197 35l-7 -37q-86 -34 -195 -34q-187 0 -285 123t-56 321q37 173 176 288q138 114 319 114zM426 120q64 0 111 51.5t67 144.5q17 80 -12.5 129t-94.5 49q-62 0 -110.5 -50
t-67.5 -134q-19 -87 10.5 -138.5t96.5 -51.5z" />
    <glyph glyph-name="A" unicode="A" horiz-adv-x="654" 
d="M582 0h-43l-44 220h-358l-137 -220h-47l441 712h48zM283 456l-123 -198h328l-40 199q-19 102 -38 210q-18 -31 -127 -211z" />
    <glyph glyph-name="B" unicode="B" horiz-adv-x="612" 
d="M616 514q-11 -51 -49 -89t-97 -57q65 -21 92.5 -71.5t12.5 -121.5q-17 -82 -84 -128.5t-169 -46.5h-311l151 712h267q108 0 158 -55t29 -143zM136 387h241q82 0 133.5 36.5t64.5 97.5q16 69 -22.5 110.5t-128.5 41.5h-227zM533 182q17 77 -24.5 121t-128.5 44h-252
l-66 -308h267q81 0 135.5 38t68.5 105z" />
    <glyph glyph-name="C" unicode="C" horiz-adv-x="690" 
d="M306 -16q-152 0 -217 105q-65 106 -26 287q33 154 138 253t245 99q117 0 183 -68t64 -188h-43q1 104 -54 160.5t-154 56.5q-122 0 -214 -89q-92 -90 -122 -230q-35 -161 19 -253q54 -94 184 -94q103 0 184 63.5t117 174.5h43q-39 -130 -133 -203q-95 -74 -214 -74z" />
    <glyph glyph-name="D" unicode="D" horiz-adv-x="666" 
d="M162 712h206q164 0 238 -107q73 -106 38 -274q-70 -331 -421 -331h-212zM600 338q31 147 -29 242q-60 93 -208 93h-166l-135 -634h164q309 0 374 299z" />
    <glyph glyph-name="E" unicode="E" horiz-adv-x="568" 
d="M631 712l-8 -39h-426l-60 -281h386l-8 -39h-387l-67 -314h431l-9 -39h-473l152 712h469z" />
    <glyph glyph-name="F" unicode="F" horiz-adv-x="535" 
d="M610 712l-9 -39h-404l-60 -281h358l-8 -39h-359l-75 -353h-43l152 712h448z" />
    <glyph glyph-name="G" unicode="G" horiz-adv-x="729" 
d="M712 478h-44q3 95 -58 153t-166 58q-124 0 -216 -89t-122 -227q-34 -160 26 -255t193 -95q123 0 209 82q87 83 114 211h-254l8 39h294l-76 -355h-37l26 152q-101 -168 -288 -168q-153 0 -225 108q-72 107 -33 287q32 152 137 251q104 98 249 98q125 0 196 -69
q71 -71 67 -181z" />
    <glyph glyph-name="H" unicode="H" horiz-adv-x="670" 
d="M591 391l69 321h42l-152 -712h-42l75 351h-455l-75 -351h-43l152 712h43l-69 -321h455z" />
    <glyph glyph-name="I" unicode="I" horiz-adv-x="173" 
d="M53 0h-43l152 712h43z" />
    <glyph glyph-name="J" unicode="J" horiz-adv-x="525" 
d="M218 -16q-108 0 -158 65q-50 66 -25 172l6 24h42l-7 -30q-19 -90 20.5 -141t126.5 -51q77 0 127 47.5t68 135.5l107 506h43l-108 -509q-23 -107 -84.5 -163t-157.5 -56z" />
    <glyph glyph-name="K" unicode="K" horiz-adv-x="628" 
d="M648 712h59l-382 -301l237 -411h-47l-225 385l-185 -146l-51 -239h-43l151 712h43l-89 -419z" />
    <glyph glyph-name="L" unicode="L" horiz-adv-x="502" 
d="M205 712l-144 -673h372l-8 -39h-415l152 712h43z" />
    <glyph glyph-name="M" unicode="M" horiz-adv-x="829" 
d="M449 178l352 534h60l-151 -712h-42l100 471q6 31 41 186q-21 -35 -63 -103l-366 -554h-37l-133 555q-1 7 -19 100q-27 -134 -38 -184l-100 -471h-43l152 712h57l127 -539q3 -11 25 -121q49 82 78 126z" />
    <glyph glyph-name="N" unicode="N" horiz-adv-x="671" 
d="M552 238l101 474h42l-152 -712h-52l-240 509q-43 93 -66 155q-28 -133 -39 -185l-101 -479h-43l152 712h52l241 -509q49 -108 65 -156q6 26 14.5 67.5t15 72t10.5 51.5z" />
    <glyph glyph-name="O" unicode="O" horiz-adv-x="731" 
d="M318 -16q-153 0 -223 106q-71 106 -33 282q33 156 141 256q107 100 253 100q153 0 223 -106t33 -278q-33 -158 -141 -258q-108 -102 -253 -102zM321 23q128 0 222 91q95 92 126 236q33 152 -26 246q-59 93 -192 93q-125 0 -220 -90q-95 -92 -126 -232q-33 -156 25 -250
t191 -94z" />
    <glyph glyph-name="P" unicode="P" horiz-adv-x="607" 
d="M162 712h265q112 0 165.5 -60t31.5 -165q-18 -87 -85.5 -138.5t-168.5 -51.5h-253l-63 -297h-43zM581 493q19 87 -23.5 133.5t-136.5 46.5h-224l-72 -337h249q83 0 137 42t70 115z" />
    <glyph glyph-name="Q" unicode="Q" horiz-adv-x="731" 
d="M712 344q-36 -168 -152 -268l84 -105l-32 -23l-83 103q-97 -67 -211 -67q-153 0 -223 106q-71 106 -33 282q33 156 141 256q107 100 253 100q153 0 223 -106t33 -278zM504 82l-86 108l32 23l85 -106q99 87 134 243q33 152 -26 246q-59 93 -192 93q-125 0 -220 -90
q-95 -92 -126 -232q-33 -156 25 -250t191 -94q100 0 183 59z" />
    <glyph glyph-name="R" unicode="R" horiz-adv-x="623" 
d="M162 712h269q115 0 169 -53t33 -154q-14 -66 -63.5 -108t-125.5 -53q69 -8 94.5 -44t13.5 -108l-19 -109q-9 -51 8 -83h-44q-16 31 -6 86l19 107q12 69 -18 100.5t-113 31.5h-256l-69 -325h-43zM590 506q18 84 -24.5 125.5t-138.5 41.5h-230l-66 -309h251q83 0 137.5 37
t70.5 105z" />
    <glyph glyph-name="S" unicode="S" horiz-adv-x="601" 
d="M267 -16q-133 0 -197.5 56.5t-52.5 166.5h44q-10 -94 42 -139t169 -45q102 0 159.5 38t70.5 104q15 73 -18.5 113t-133.5 61l-73 16q-195 42 -163 204q16 78 85.5 123.5t178.5 45.5q122 0 178 -55t44 -146h-44q12 77 -34 119.5t-148 42.5q-91 0 -147.5 -36t-68.5 -97
q-14 -68 19 -106.5t128 -58.5l71 -15q108 -24 148 -75.5t22 -141.5q-18 -81 -89 -128t-190 -47z" />
    <glyph glyph-name="T" unicode="T" horiz-adv-x="608" 
d="M120 712h563l-9 -39h-259l-143 -673h-44l143 673h-259z" />
    <glyph glyph-name="U" unicode="U" horiz-adv-x="641" 
d="M283 -16q-135 0 -195 78t-28 227l92 423h42l-93 -431q-27 -129 22.5 -193.5t163.5 -64.5q208 0 257 232l96 457h43l-98 -464q-55 -264 -302 -264z" />
    <glyph glyph-name="V" unicode="V" horiz-adv-x="621" 
d="M372 187l283 525h47l-386 -712h-48l-163 712h44l119 -525q7 -31 29 -145q10 21 75 145z" />
    <glyph glyph-name="W" unicode="W" horiz-adv-x="964" 
d="M748 231l255 481h45l-374 -712h-50l-46 505q-9 126 -10 156l-76 -155l-262 -506h-50l-72 712h43l50 -481q14 -177 14 -182q34 73 90 184l248 479h49l43 -479q10 -120 12 -185q18 38 91 183z" />
    <glyph glyph-name="X" unicode="X" horiz-adv-x="616" 
d="M630 712h52l-325 -343l191 -369h-47l-88 169q-67 127 -87 168q-68 -74 -157 -168l-161 -169h-51l348 367l-180 345h48l84 -163q23 -43 78 -151q67 74 143 153z" />
    <glyph glyph-name="Y" unicode="Y" horiz-adv-x="624" 
d="M485 523l171 189h52l-364 -404l-66 -308h-43l66 308l-193 404h47l90 -190q29 -60 81 -180q24 27 48.5 54.5t44 51t26.5 30.5q5 5 11 12t14.5 17t14.5 16z" />
    <glyph glyph-name="Z" unicode="Z" horiz-adv-x="582" 
d="M645 712l-9 -40l-445 -468q-106 -112 -161 -167q92 2 207 2h270l-9 -39h-526l8 40l445 468q67 72 161 167q-92 -2 -207 -2h-245l9 39h502z" />
    <glyph glyph-name="bracketleft" unicode="[" horiz-adv-x="280" 
d="M158 -196h-192l208 978h192l-8 -36h-151l-193 -906h151z" />
    <glyph glyph-name="backslash" unicode="\" horiz-adv-x="320" 
d="M253 0h-40l-103 712h39z" />
    <glyph glyph-name="bracketright" unicode="]" horiz-adv-x="280" 
d="M121 -196h-192l7 36h151l193 906h-151l8 36h192z" />
    <glyph glyph-name="asciicircum" unicode="^" horiz-adv-x="417" 
d="M206 712h45l172 -302h-44l-100 179l-51 88q-13 -22 -30 -52.5t-20 -35.5l-101 -179h-43z" />
    <glyph glyph-name="underscore" unicode="_" horiz-adv-x="400" 
d="M307 -185h-401l7 36h401z" />
    <glyph glyph-name="grave" unicode="`" horiz-adv-x="400" 
d="M294 594h-33l-60 144h53z" />
    <glyph glyph-name="a" unicode="a" horiz-adv-x="504" 
d="M465 365l-57 -271q-14 -62 32 -62q4 0 22 2l-7 -34q-22 -2 -31 -2q-36 0 -51.5 23t-5.5 65l2 10q-71 -107 -207 -107q-86 0 -126 44t-24 119q26 114 206 135l86 10q62 7 88.5 23.5t35.5 52.5q12 56 -20.5 87.5t-108.5 31.5q-79 0 -121 -30t-59 -98h-40q20 85 73.5 124.5
t151.5 39.5q95 0 136 -43t25 -120zM169 24q79 0 138 42.5t82 123.5l24 112q-30 -25 -107 -36l-86 -11q-147 -19 -167 -111q-12 -56 17.5 -88t98.5 -32z" />
    <glyph glyph-name="b" unicode="b" horiz-adv-x="560" 
d="M340 528q107 0 157 -77q49 -76 23 -202q-26 -117 -98 -188q-73 -73 -177 -73q-67 0 -112.5 35.5t-61.5 100.5l-26 -124h-39l152 712h41l-63 -293q79 109 204 109zM477 252q24 111 -14.5 175t-128.5 64q-89 0 -152 -62t-85 -168q-23 -108 19 -172q42 -65 131 -65
q85 0 146 64q61 63 84 164z" />
    <glyph glyph-name="c" unicode="c" horiz-adv-x="507" 
d="M219 -12q-106 0 -156 77t-21 212q24 113 98 182t174 69q85 0 134.5 -49t47.5 -129h-43q-1 64 -40 102.5t-105 38.5q-81 0 -142 -60t-83 -162q-24 -117 14 -180.5t128 -63.5q66 0 119 41t76 110h43q-27 -82 -92 -135q-67 -53 -152 -53z" />
    <glyph glyph-name="d" unicode="d" horiz-adv-x="562" 
d="M487 398l67 314h41l-152 -712h-39l21 100q-79 -112 -206 -112q-108 0 -156 77q-49 76 -23 202q26 115 99 189q73 72 176 72q65 0 110 -34t62 -96zM97 89q39 -64 128 -64t153 63q62 61 85 167q23 107 -20 172q-42 65 -130 65q-85 0 -146 -63q-62 -64 -85 -165
q-24 -111 15 -175z" />
    <glyph glyph-name="e" unicode="e" horiz-adv-x="531" 
d="M315 528q111 0 157 -76t21 -192q-1 -5 -4 -15h-411q-17 -103 20.5 -161t123.5 -58q68 0 120.5 37.5t80.5 106.5h42q-31 -87 -95.5 -134.5t-151.5 -47.5q-109 0 -157 76.5t-21 206.5q24 113 99 185q73 72 176 72zM310 490q-81 0 -140 -55t-84 -152h368q18 93 -20.5 150
t-123.5 57z" />
    <glyph glyph-name="f" unicode="f" horiz-adv-x="288" 
d="M313 678q-79 0 -99 -89l-16 -73h120l-9 -36h-118l-103 -480h-41l102 480h-89l8 36h89l17 79q24 119 144 119q15 0 45 -2l-7 -35q-9 1 -43 1z" />
    <glyph glyph-name="g" unicode="g" horiz-adv-x="549" 
d="M482 404l24 112h39l-106 -496q-25 -118 -85 -173t-169 -55q-92 0 -138.5 42t-41.5 115h41q-3 -59 32.5 -90.5t110.5 -31.5q90 0 139 45.5t70 147.5l16 75q-77 -107 -196 -107q-104 0 -154 80t-23 206q26 119 98 186.5t174 67.5q64 0 107.5 -32.5t61.5 -91.5zM225 25
q81 0 141 57.5t85 156.5l7 35q17 101 -22.5 159t-123.5 58q-87 0 -146.5 -59.5t-81.5 -163.5q-23 -111 15 -177t126 -66z" />
    <glyph glyph-name="h" unicode="h" horiz-adv-x="522" 
d="M332 528q89 0 127.5 -54.5t15.5 -158.5l-67 -315h-41l67 318q38 173 -111 173q-76 0 -135 -53t-80 -151l-61 -287h-41l151 712h41l-62 -295q33 52 85 81.5t111 29.5z" />
    <glyph glyph-name="i" unicode="i" horiz-adv-x="161" 
d="M174 594h-43l19 91h43zM47 0h-41l110 516h41z" />
    <glyph glyph-name="j" unicode="j" horiz-adv-x="164" 
d="M174 594h-43l19 91h43zM-95 -198q-38 0 -47 1l8 35h40q64 0 81 78l128 600h41l-129 -604q-23 -110 -122 -110z" />
    <glyph glyph-name="k" unicode="k" horiz-adv-x="488" 
d="M458 516h56l-251 -194l157 -322h-43l-146 299l-144 -111l-40 -188h-41l152 712h41l-101 -471z" />
    <glyph glyph-name="l" unicode="l" horiz-adv-x="161" 
d="M47 0h-41l152 712h41z" />
    <glyph glyph-name="m" unicode="m" horiz-adv-x="842" 
d="M658 528q85 0 122 -53.5t17 -149.5l-69 -325h-41l69 325q17 83 -11.5 124.5t-96.5 41.5q-69 0 -122.5 -51.5t-77.5 -152.5l-61 -287h-41l69 323q17 81 -12 124.5t-95 43.5q-71 0 -124.5 -53t-76.5 -155l-60 -283h-41l110 516h39l-21 -99q68 111 183 111q64 0 102 -33
t43 -92q71 125 196 125z" />
    <glyph glyph-name="n" unicode="n" horiz-adv-x="522" 
d="M332 528q89 0 127.5 -54.5t15.5 -158.5l-68 -315h-41l68 318q36 173 -111 173q-76 0 -135 -53t-80 -151l-61 -287h-41l110 516h39l-22 -101q35 54 87 83.5t112 29.5z" />
    <glyph glyph-name="o" unicode="o" horiz-adv-x="545" 
d="M228 -12q-114 0 -164.5 75.5t-23.5 204.5q24 114 102 187q76 73 176 73q114 0 165 -76q50 -78 22 -205q-24 -112 -101 -186q-77 -73 -176 -73zM230 25q82 0 147 63q63 62 86 163q24 111 -15 175.5t-131 64.5q-85 0 -149 -64q-65 -65 -86 -162q-23 -111 16 -175.5
t132 -64.5z" />
    <glyph glyph-name="p" unicode="p" horiz-adv-x="560" 
d="M341 528q107 0 157 -77q48 -76 22 -202q-26 -117 -98 -188q-73 -73 -176 -73q-67 0 -112 34.5t-61 97.5l-67 -316h-41l152 712h39l-21 -100q79 112 206 112zM478 252q24 111 -14.5 175t-128.5 64q-89 0 -152.5 -62t-84.5 -168q-23 -108 19 -172q42 -65 130 -65
q84 0 147 64q61 63 84 164z" />
    <glyph glyph-name="q" unicode="q" horiz-adv-x="562" 
d="M488 394l26 122h39l-152 -712h-41l63 292q-79 -108 -204 -108q-108 0 -156 77q-49 76 -23 202q26 115 99 189q73 72 176 72q67 0 112 -35t61 -99zM225 25q86 0 148.5 58.5t86.5 158.5l4 19q20 106 -22 168q-44 63 -129 63t-146 -63q-62 -64 -85 -165q-24 -111 14.5 -175
t128.5 -64z" />
    <glyph glyph-name="r" unicode="r" horiz-adv-x="339" 
d="M342 522q23 0 31 -1l-8 -39q-7 1 -28 1q-84 0 -143.5 -48t-81.5 -131l-65 -304h-41l110 516h39l-24 -112q35 54 89 86t122 32z" />
    <glyph glyph-name="s" unicode="s" horiz-adv-x="468" 
d="M198 -12q-106 0 -154 45t-38 125h41q-14 -134 156 -134q142 0 163 97q11 52 -13.5 79.5t-94.5 39.5l-51 8q-160 30 -133 157q12 57 65.5 90t134.5 33q96 0 137.5 -39.5t35.5 -113.5h-40q5 58 -27.5 87.5t-109.5 29.5q-64 0 -105.5 -24.5t-50.5 -67.5q-10 -50 17 -77
t95 -39l52 -9q82 -15 112.5 -52.5t14.5 -108.5q-13 -60 -65.5 -93t-141.5 -33z" />
    <glyph glyph-name="t" unicode="t" horiz-adv-x="293" 
d="M319 480h-128l-76 -359q-18 -87 65 -87q26 0 44 2l-7 -35q-25 -3 -45 -3q-60 0 -86 32t-13 92l76 358h-89l8 36h89l31 146h41l-31 -146h129z" />
    <glyph glyph-name="u" unicode="u" horiz-adv-x="522" 
d="M414 229l61 287h41l-110 -516h-39l22 101q-35 -54 -87 -83.5t-112 -29.5q-89 0 -127.5 54.5t-15.5 158.5l67 315h42l-68 -318q-36 -173 111 -173q76 0 135 53t80 151z" />
    <glyph glyph-name="v" unicode="v" horiz-adv-x="490" 
d="M316 240l170 276h46l-320 -516h-44l-99 516h43l52 -277q24 -133 33 -198q21 37 65 108q47 80 54 91z" />
    <glyph glyph-name="w" unicode="w" horiz-adv-x="795" 
d="M604 197l184 319h46l-298 -516h-45l-40 348q-11 95 -12 122q-60 -118 -62 -122l-187 -348h-46l-78 516h43l47 -319q3 -19 18 -152q32 64 80 152l172 319h45l36 -319q4 -27 11 -105q0 -11 4 -49q32 65 82 154z" />
    <glyph glyph-name="x" unicode="x" horiz-adv-x="478" 
d="M459 516h51l-244 -251l145 -265h-45l-63 113q-23 41 -64 122q-75 -80 -117 -122l-110 -113h-52l258 264l-137 252h46l62 -114q5 -11 27 -52t30 -57l103 109z" />
    <glyph glyph-name="y" unicode="y" horiz-adv-x="476" 
d="M312 242l160 274h46l-344 -584q-41 -71 -78 -100t-93 -29q-26 0 -44 2l7 35q9 -1 39 -1q41 0 69.5 24t61.5 78q2 3 27 46l-94 529h44l48 -273l34 -208q61 109 80 142q6 11 14 25t13.5 23.5t9.5 16.5z" />
    <glyph glyph-name="z" unicode="z" horiz-adv-x="472" 
d="M473 483l-350 -362q-40 -43 -85 -86q24 1 107 1h249l-7 -36h-407l7 33l352 364q19 20 84 85q-50 -2 -107 -2h-223l8 36h380z" />
    <glyph glyph-name="braceleft" unicode="{" horiz-adv-x="331" 
d="M209 -196h-46q-128 0 -99 133l56 265q7 36 -8 54t-59 19l8 36q83 1 97 73l59 275q15 68 50 95t99 27h51l-7 -36h-46q-46 0 -71 -20.5t-36 -70.5l-59 -276q-16 -80 -90 -85v-1q70 -4 54 -85l-58 -272q-10 -51 6 -73t63 -22h44z" />
    <glyph glyph-name="bar" unicode="|" horiz-adv-x="168" 
d="M123 -201h-38v998h38v-998z" />
    <glyph glyph-name="braceright" unicode="}" horiz-adv-x="331" 
d="M-20 -196h-51l8 36h45q46 0 71.5 21t35.5 71l59 275q16 80 91 85v1q-71 4 -55 85l58 273q10 50 -6 72t-63 22h-44l8 36h47q62 0 88 -31t11 -101l-56 -265q-7 -37 7.5 -54.5t58.5 -18.5l-8 -36q-83 -1 -97 -73l-59 -276q-15 -68 -49.5 -95t-99.5 -27z" />
    <glyph glyph-name="asciitilde" unicode="~" horiz-adv-x="516" 
d="M108 308h-37q14 119 107 119q39 0 109 -47q62 -41 89 -41q30 0 47 18.5t23 62.5h37q-12 -119 -107 -119q-40 0 -107 46q-60 42 -91 42q-60 0 -70 -81z" />
    <glyph glyph-name="uni00A0" unicode="&#xa0;" horiz-adv-x="224" 
 />
    <glyph glyph-name="exclamdown" unicode="&#xa1;" horiz-adv-x="154" 
d="M166 523h-64l14 63h64zM22 -126h-42l42 197l79 334h28l-65 -334z" />
    <glyph glyph-name="cent" unicode="&#xa2;" horiz-adv-x="507" 
d="M496 350h-43q-1 58 -33 95.5t-88 44.5l-99 -465q63 3 113.5 44t73.5 107h43q-25 -80 -90 -133q-66 -54 -148 -55l-22 -102h-37l22 104q-92 12 -132 88t-14 199q22 109 93 178q70 68 168 73l21 100h37l-22 -101q74 -7 116.5 -55.5t40.5 -121.5zM83 269
q-23 -107 7.5 -169.5t105.5 -72.5l99 464q-76 -5 -133.5 -65t-78.5 -157z" />
    <glyph glyph-name="sterling" unicode="&#xa3;" horiz-adv-x="569" 
d="M373 728q113 0 163.5 -55t35.5 -146h-44q21 162 -162 162q-74 0 -124 -37.5t-63 -98.5q-13 -59 10 -156q5 -21 14 -61h252l-7 -36h-241q3 -38 -6 -83q-22 -107 -147 -178h432l-8 -39h-494l8 39q74 38 114 78.5t54 99.5q9 44 4 83h-121l7 36h109l-9 38q-30 103 -13 185
q16 77 78.5 123t157.5 46z" />
    <glyph glyph-name="currency" unicode="&#xa4;" horiz-adv-x="528" 
d="M507 574l-68 -71q58 -59 58 -147t-58 -147l68 -71l-27 -26l-69 72q-57 -39 -126 -39q-72 0 -127 40l-70 -73l-27 26l69 73q-57 59 -57 145t57 145l-69 73l27 26l70 -73q55 40 127 40q69 0 126 -39l69 72zM165 477q-49 -49 -49 -121t49 -120q48 -49 120 -49q73 0 122 49
q48 48 48 120t-48 121q-49 48 -122 48q-72 0 -120 -48z" />
    <glyph glyph-name="yen" unicode="&#xa5;" horiz-adv-x="624" 
d="M656 712h52l-333 -370h178l-8 -35h-201l-20 -94h201l-8 -36h-201l-38 -177h-43l38 177h-202l8 36h202l20 94h-203l8 35h179l-177 370h47l90 -190q29 -60 81 -180q24 27 48.5 54.5t44 51t26.5 30.5q5 5 11 12t14.5 17t14.5 16z" />
    <glyph glyph-name="brokenbar" unicode="&#xa6;" horiz-adv-x="168" 
d="M123 398h-38v399h38v-399zM123 -204h-38v399h38v-399z" />
    <glyph glyph-name="section" unicode="&#xa7;" horiz-adv-x="550" 
d="M524 575h-41q5 57 -28.5 87t-102.5 30q-122 0 -142 -92q-11 -49 12.5 -82t88.5 -75l80 -51q75 -49 102.5 -93.5t15.5 -103.5q-22 -100 -163 -141q57 -55 41 -137q-12 -58 -61.5 -91.5t-126.5 -33.5q-91 0 -133.5 41t-33.5 112h41q-5 -57 27.5 -87t103.5 -30q124 0 143 93
q12 53 -13 85q-24 30 -88 71l-80 51q-75 49 -102.5 93t-15.5 106q21 100 166 140q-61 58 -44 139q12 57 61 89.5t127 32.5q88 0 130.5 -41t35.5 -112zM371 356l-80 52q-32 21 -50 36q-63 -12 -102.5 -43t-49.5 -75q-11 -49 12 -85.5t85 -76.5l80 -51q21 -13 52 -36
q63 13 102.5 44.5t48.5 76.5q11 47 -12 82.5t-86 75.5z" />
    <glyph glyph-name="dieresis" unicode="&#xa8;" horiz-adv-x="400" 
d="M200 594h-44l20 91h43zM387 594h-44l20 91h44z" />
    <glyph glyph-name="copyright" unicode="&#xa9;" horiz-adv-x="836" 
d="M438 -16q-160 0 -270 108t-110 264q0 157 110 265t270 108q161 0 271 -108q109 -108 109 -265q0 -156 -109 -264q-110 -108 -271 -108zM193 116q99 -99 245 -99t245 99q99 98 99 240q0 143 -99 242q-100 98 -245 98t-245 -98q-99 -99 -99 -242q0 -142 99 -240zM444 132
q-88 0 -139.5 60.5t-51.5 163.5t51.5 163.5t139.5 60.5q70 0 117.5 -41t56.5 -108h-38q-9 52 -46 84t-90 32q-71 0 -112 -51t-41 -140t41 -140t112 -51q54 0 92.5 34.5t46.5 90.5h38q-9 -68 -57 -113q-50 -45 -120 -45z" />
    <glyph glyph-name="ordfeminine" unicode="&#xaa;" horiz-adv-x="450" 
d="M458 585l-52 -239q-11 -53 29 -53q3 0 10.5 0.5t9.5 0.5l-7 -32q-12 -2 -25 -2q-73 0 -56 78l2 9q-60 -95 -179 -95q-75 0 -111.5 38.5t-20.5 104.5q23 99 181 118l75 8q51 7 73.5 22t31.5 47l1 5q9 45 -18.5 69t-91.5 24q-71 0 -106 -25t-49 -85h-40q18 74 64 108.5
t135 34.5q83 0 120.5 -36t23.5 -100zM389 448l16 77q-26 -26 -92 -34l-74 -9q-126 -15 -142 -93q-10 -49 17 -77t84 -28q71 0 122.5 42t68.5 122z" />
    <glyph glyph-name="guillemotleft" unicode="&#xab;" horiz-adv-x="474" 
d="M269 420l-9 -51l-166 -115l116 -114l-9 -46l-141 138l10 49zM244 281l199 139l-10 -51l-166 -114l117 -115l-10 -46l-141 138z" />
    <glyph glyph-name="logicalnot" unicode="&#xac;" horiz-adv-x="516" 
d="M71 367v38h414v-224h-40v186h-374z" />
    <glyph glyph-name="uni00AD" unicode="&#xad;" horiz-adv-x="368" 
d="M318 264h-266l8 37h266z" />
    <glyph glyph-name="registered" unicode="&#xae;" horiz-adv-x="569" 
d="M161 659q71 69 174 69t174 -69q70 -69 70 -168t-70 -168q-71 -69 -174 -69t-174 69t-71 168t71 168zM181 342q62 -62 154 -62t154 62t62 149q0 88 -62 150q-61 61 -154 61t-154 -61q-63 -61 -63 -150q0 -87 63 -149zM434 437l3 -45q2 -18 11 -33h-26q-9 12 -10 33l-2 39
q-2 26 -14 36.5t-40 10.5h-88v-119h-25v269h110q41 0 64 -19t23 -54q0 -49 -45 -65q36 -11 39 -53zM268 501h86q60 0 60 52q0 53 -61 53h-85v-105z" />
    <glyph glyph-name="overscore" unicode="&#xaf;" horiz-adv-x="400" 
d="M403 594h-264l8 35h264z" />
    <glyph glyph-name="degree" unicode="&#xb0;" horiz-adv-x="329" 
d="M306 517q-36 -36 -89 -36t-88 36q-36 35 -36 84q0 51 35.5 85.5t88.5 34.5q54 0 89.5 -34.5t35.5 -85.5q0 -49 -36 -84zM217 513q39 0 65 25.5t26 62.5q0 38 -26 63t-65 25q-38 0 -64 -25.5t-26 -62.5t26 -62.5t64 -25.5z" />
    <glyph glyph-name="plusminus" unicode="&#xb1;" horiz-adv-x="516" 
d="M278 561v-181h187v-37h-187v-180h-40v180h-187v37h187v181h40zM465 0h-414v38h414v-38z" />
    <glyph glyph-name="two.sups" unicode="&#xb2;" horiz-adv-x="362" 
d="M377 528h-280l3 15q21 108 160 169l40 18q87 40 100 97q9 41 -12.5 66t-70.5 25q-47 0 -76.5 -24.5t-36.5 -66.5h-36q10 56 49.5 89t101.5 33q67 0 97.5 -34.5t18.5 -89.5q-17 -75 -124 -123l-41 -18q-58 -27 -88 -56t-40 -69h241z" />
    <glyph glyph-name="three.sups" unicode="&#xb3;" horiz-adv-x="369" 
d="M248 520q-66 0 -103.5 34.5t-29.5 90.5h34q-5 -42 22.5 -68.5t78.5 -26.5q100 0 120 83q11 49 -14 75t-78 26h-24l5 27h25q46 0 77.5 19.5t39.5 53.5q9 39 -14.5 62t-69.5 23q-89 0 -110 -81h-35q12 53 51 82t96 29q61 0 93.5 -32.5t21.5 -85.5q-6 -31 -32 -54.5
t-63 -29.5q40 -10 58 -40.5t8 -76.5q-12 -50 -53.5 -80t-103.5 -30z" />
    <glyph glyph-name="acute" unicode="&#xb4;" horiz-adv-x="400" 
d="M264 594h-36l101 144h53z" />
    <glyph glyph-name="uni00B5" unicode="&#xb5;" horiz-adv-x="631" 
d="M476 228v288h41v-516h-39v111q-22 -57 -69 -90t-110 -33q-102 0 -142 76v-260h-41v712h41v-331q0 -159 149 -159q70 0 120 51q48 48 50 151z" />
    <glyph glyph-name="paragraph" unicode="&#xb6;" horiz-adv-x="476" 
d="M216 0h-38l77 363q-97 0 -147 54q-51 53 -33 137q18 85 83.5 121.5t188.5 36.5h140l-152 -712h-39l144 673h-80z" />
    <glyph glyph-name="middot" unicode="&#xb7;" horiz-adv-x="154" 
d="M123 324h-64l14 64h64z" />
    <glyph glyph-name="cedilla" unicode="&#xb8;" horiz-adv-x="400" 
d="M122 -58h6q45 0 69 -23t16 -57q-17 -74 -135 -74q-35 0 -57 5l6 26q20 -4 55 -4q82 0 92 51q5 25 -12.5 39t-56.5 14q-16 0 -21 -1l4 22l56 63l35 -1z" />
    <glyph glyph-name="one.sups" unicode="&#xb9;" horiz-adv-x="219" 
d="M203 528h-36l78 364q-47 -41 -122 -45l6 27q86 8 130 68h32z" />
    <glyph glyph-name="ordmasculine" unicode="&#xba;" horiz-adv-x="490" 
d="M256 252q-94 0 -141 69q-48 69 -24 181q21 97 85 158q62 61 156 61t141 -68q46 -67 22 -181q-20 -96 -83 -158q-65 -62 -156 -62zM261 287q70 0 122.5 52t70.5 136q21 96 -14.5 153.5t-111.5 57.5q-73 0 -125.5 -51.5t-70.5 -136.5q-20 -96 15.5 -153.5t113.5 -57.5z" />
    <glyph glyph-name="guillemotright" unicode="&#xbb;" horiz-adv-x="474" 
d="M99 420l141 -138l-10 -49l-199 -139l9 51l166 115l-116 114zM263 374l10 46l141 -138l-11 -49l-199 -139l10 51l166 115z" />
    <glyph glyph-name="onequarter" unicode="&#xbc;" horiz-adv-x="632" 
d="M154 299h-36l78 364q-47 -41 -122 -45l6 27q86 8 130 68h32zM32 0l530 712h41l-531 -712h-40zM551 413h40l-57 -267h65l-7 -32h-65l-24 -114h-38l24 114h-221l9 37zM544 369l-233 -223h186z" />
    <glyph glyph-name="onehalf" unicode="&#xbd;" horiz-adv-x="687" 
d="M154 299h-36l78 364q-47 -41 -122 -45l6 27q86 8 130 68h32zM72 0h-40l530 712h41zM614 0h-280l3 15q21 108 160 169l40 18q87 40 100 97q9 41 -12.5 66t-70.5 25q-46 0 -75.5 -24.5t-37.5 -66.5h-36q10 56 49.5 89t101.5 33q67 0 97.5 -34.5t18.5 -89.5
q-17 -75 -124 -123l-41 -18q-58 -27 -88 -56t-40 -69h242z" />
    <glyph glyph-name="threequarters" unicode="&#xbe;" horiz-adv-x="735" 
d="M333 401q-12 -50 -53 -80t-103 -30q-66 0 -103.5 34.5t-29.5 90.5h34q-5 -43 22.5 -69t78.5 -26q100 0 120 83q11 49 -14.5 75t-78.5 26h-23l5 27h25q46 0 77.5 19.5t38.5 53.5q10 39 -13.5 62t-70.5 23q-88 0 -109 -81h-35q11 53 50 82t96 29q62 0 94.5 -32.5
t21.5 -85.5q-6 -31 -32 -54.5t-63 -29.5q39 -10 57.5 -41t7.5 -76zM134 0l531 712h41l-531 -712h-41zM654 413h41l-57 -267h65l-7 -32h-65l-24 -114h-39l25 114h-221l8 37zM648 370l-233 -224h186z" />
    <glyph glyph-name="questiondown" unicode="&#xbf;" horiz-adv-x="490" 
d="M341 523h-64l14 63h64zM166 -142q-102 0 -149 49t-27 138q9 45 41.5 81.5t91.5 76.5q29 20 44 32q14 11 34 31q22 22 33 38q24 37 37 101h41q-13 -68 -43 -115q-31 -51 -108 -105q-48 -35 -58 -43q-22 -19 -41 -43q-21 -27 -29 -57q-15 -70 19.5 -107.5t116.5 -37.5
q170 0 216 177h42q-51 -216 -261 -216z" />
    <glyph glyph-name="Agrave" unicode="&#xc0;" horiz-adv-x="654" 
d="M371 899l70 -144h-35l-89 144h54zM582 0h-43l-44 220h-358l-137 -220h-47l441 712h48zM283 456l-123 -198h328l-40 199q-19 102 -38 210q-18 -31 -127 -211z" />
    <glyph glyph-name="Aacute" unicode="&#xc1;" horiz-adv-x="654" 
d="M526 899h58l-144 -144h-41zM-47 0l441 712h48l140 -712h-43l-44 220h-358l-137 -220h-47zM160 258h328l-40 199q-19 102 -38 210q-18 -31 -127 -211z" />
    <glyph glyph-name="Acircumflex" unicode="&#xc2;" horiz-adv-x="654" 
d="M537 755l-82 120l-134 -120h-43l148 144h62l88 -144h-39zM582 0h-43l-44 220h-358l-137 -220h-47l441 712h48zM283 456l-123 -198h328l-40 199q-19 102 -38 210q-18 -31 -127 -211z" />
    <glyph glyph-name="Atilde" unicode="&#xc3;" horiz-adv-x="654" 
d="M368 826q-43 0 -60 -71h-35q24 109 98 109q35 0 76 -38q39 -33 65 -33q41 0 58 71h35q-25 -109 -97 -109q-32 0 -78 39q-38 32 -62 32zM-47 0l441 712h48l140 -712h-43l-44 220h-358l-137 -220h-47zM160 258h328l-40 199q-19 102 -38 210q-18 -31 -127 -211z" />
    <glyph glyph-name="Adieresis" unicode="&#xc4;" horiz-adv-x="654" 
d="M331 846h44l-20 -91h-44zM518 846h43l-20 -91h-43zM582 0h-43l-44 220h-358l-137 -220h-47l441 712h48zM283 456l-123 -198h328l-40 199q-19 102 -38 210q-18 -31 -127 -211z" />
    <glyph glyph-name="Aring" unicode="&#xc5;" horiz-adv-x="654" 
d="M582 0h-43l-44 220h-358l-137 -220h-47l428 691q-30 13 -47.5 39.5t-17.5 59.5q0 46 32.5 77.5t78.5 31.5t78.5 -31.5t32.5 -77.5q0 -40 -25.5 -70t-64.5 -37zM349 790q0 -32 23 -54.5t55 -22.5t55 22.5t23 54.5q0 33 -22.5 55t-55.5 22t-55.5 -22t-22.5 -55zM283 456
l-123 -198h328l-40 199q-19 102 -38 210q-18 -31 -127 -211z" />
    <glyph glyph-name="AE" unicode="&#xc6;" horiz-adv-x="1009" 
d="M1073 712l-9 -39h-396l-60 -281h357l-8 -39h-357l-67 -314h401l-9 -39h-443l47 220h-355l-165 -220h-51l537 712h578zM514 673l-311 -415h334l88 415h-111z" />
    <glyph glyph-name="Ccedilla" unicode="&#xc7;" horiz-adv-x="690" 
d="M693 472h-43q1 104 -54 160.5t-154 56.5q-122 0 -214 -89q-92 -90 -122 -230q-35 -161 19 -253q54 -94 184 -94q103 0 184 63.5t117 174.5h43q-37 -124 -128 -198q-91 -75 -206 -79l-53 -56h6q45 0 69 -23t16 -57q-17 -74 -135 -74q-35 0 -57 5l6 26q20 -4 55 -4
q82 0 92 51q5 25 -12.5 39t-56.5 14q-16 0 -21 -1l4 22l52 59q-142 8 -200 111q-59 104 -21 280q33 154 138 253t245 99q117 0 183 -68t64 -188z" />
    <glyph glyph-name="Egrave" unicode="&#xc8;" horiz-adv-x="568" 
d="M335 899l70 -144h-35l-89 144h54zM631 712l-8 -39h-426l-60 -281h386l-8 -39h-387l-67 -314h431l-9 -39h-473l152 712h469z" />
    <glyph glyph-name="Eacute" unicode="&#xc9;" horiz-adv-x="568" 
d="M490 899h58l-144 -144h-41zM631 712l-8 -39h-426l-60 -281h386l-8 -39h-387l-67 -314h431l-9 -39h-473l152 712h469z" />
    <glyph glyph-name="Ecircumflex" unicode="&#xca;" horiz-adv-x="568" 
d="M502 755l-82 120l-134 -120h-43l148 144h62l88 -144h-39zM631 712l-8 -39h-426l-60 -281h386l-8 -39h-387l-67 -314h431l-9 -39h-473l152 712h469z" />
    <glyph glyph-name="Edieresis" unicode="&#xcb;" horiz-adv-x="568" 
d="M296 846h44l-20 -91h-44zM483 846h43l-20 -91h-43zM631 712l-8 -39h-426l-60 -281h386l-8 -39h-387l-67 -314h431l-9 -39h-473l152 712h469z" />
    <glyph glyph-name="Igrave" unicode="&#xcc;" horiz-adv-x="173" 
d="M207 755h-33l-51 144h48zM53 0h-43l152 712h43z" />
    <glyph glyph-name="Iacute" unicode="&#xcd;" horiz-adv-x="173" 
d="M204 755h-35l95 144h49zM53 0h-43l152 712h43z" />
    <glyph glyph-name="Icircumflex" unicode="&#xce;" horiz-adv-x="173" 
d="M254 899l61 -144h-37l-58 118l-108 -118h-41l123 144h60zM53 0h-43l152 712h43z" />
    <glyph glyph-name="Idieresis" unicode="&#xcf;" horiz-adv-x="173" 
d="M143 755h-43l20 91h43zM285 755h-43l19 91h44zM53 0h-43l152 712h43z" />
    <glyph glyph-name="Eth" unicode="&#xd0;" horiz-adv-x="689" 
d="M186 712h206q164 0 238 -107q73 -107 37 -274q-70 -331 -421 -331h-211l75 353h-90l8 35h89zM624 338q31 146 -29 241q-61 94 -209 94h-166l-61 -285h212l-8 -35h-211l-67 -314h165q309 0 374 299z" />
    <glyph glyph-name="Ntilde" unicode="&#xd1;" horiz-adv-x="671" 
d="M375 826q-43 0 -60 -71h-35q24 109 98 109q35 0 76 -38q38 -33 65 -33q41 0 58 71h35q-25 -109 -97 -109q-31 0 -78 39q-38 32 -62 32zM552 238l101 474h42l-152 -712h-52l-240 509q-43 93 -66 155q-28 -133 -39 -185l-101 -479h-43l152 712h52l241 -509q49 -108 65 -156
q6 26 14.5 67.5t15 72t10.5 51.5z" />
    <glyph glyph-name="Ograve" unicode="&#xd2;" horiz-adv-x="731" 
d="M489 771h-35l-89 144h54zM318 -16q-153 0 -223 106q-71 106 -33 282q33 156 141 256q107 100 253 100q153 0 223 -106t33 -278q-33 -158 -141 -258q-108 -102 -253 -102zM321 23q128 0 222 91q95 92 126 236q33 152 -26 246q-59 93 -192 93q-125 0 -220 -90
q-95 -92 -126 -232q-33 -156 25 -250t191 -94z" />
    <glyph glyph-name="Oacute" unicode="&#xd3;" horiz-adv-x="731" 
d="M488 771h-41l127 144h58zM318 -16q-153 0 -223 106q-71 106 -33 282q33 156 141 256q107 100 253 100q153 0 223 -106t33 -278q-33 -158 -141 -258q-108 -102 -253 -102zM321 23q128 0 222 91q95 92 126 236q33 152 -26 246q-59 93 -192 93q-125 0 -220 -90
q-95 -92 -126 -232q-33 -156 25 -250t191 -94z" />
    <glyph glyph-name="Ocircumflex" unicode="&#xd4;" horiz-adv-x="731" 
d="M586 771l-82 120l-134 -120h-43l148 144h62l88 -144h-39zM456 728q153 0 223 -106t33 -278q-33 -158 -141 -258q-108 -102 -253 -102q-153 0 -223 106q-71 106 -33 282q33 156 141 256q107 100 253 100zM669 350q33 152 -26 246q-59 93 -192 93q-125 0 -220 -90
q-95 -92 -126 -232q-33 -156 25 -250t191 -94q128 0 222 91q95 92 126 236z" />
    <glyph glyph-name="Otilde" unicode="&#xd5;" horiz-adv-x="731" 
d="M356 771h-35q24 109 98 109q35 0 76 -38q39 -33 65 -33q41 0 58 71h35q-25 -109 -97 -109q-32 0 -78 39q-38 32 -62 32q-43 0 -60 -71zM318 -16q-153 0 -223 106q-71 106 -33 282q33 156 141 256q107 100 253 100q153 0 223 -106t33 -278q-33 -158 -141 -258
q-108 -102 -253 -102zM321 23q128 0 222 91q95 92 126 236q33 152 -26 246q-59 93 -192 93q-125 0 -220 -90q-95 -92 -126 -232q-33 -156 25 -250t191 -94z" />
    <glyph glyph-name="Odieresis" unicode="&#xd6;" horiz-adv-x="731" 
d="M404 771h-44l20 91h44zM590 771h-43l20 91h43zM318 -16q-153 0 -223 106q-71 106 -33 282q33 156 141 256q107 100 253 100q153 0 223 -106t33 -278q-33 -158 -141 -258q-108 -102 -253 -102zM321 23q128 0 222 91q95 92 126 236q33 152 -26 246q-59 93 -192 93
q-125 0 -220 -90q-95 -92 -126 -232q-33 -156 25 -250t191 -94z" />
    <glyph glyph-name="multiply" unicode="&#xd7;" horiz-adv-x="516" 
d="M436 539l27 -26l-158 -157l158 -157l-27 -27l-158 157l-158 -157l-26 27l158 157l-158 157l26 26l158 -157z" />
    <glyph glyph-name="Oslash" unicode="&#xd8;" horiz-adv-x="731" 
d="M707 743l28 -24l-70 -79q88 -106 47 -296q-33 -158 -141 -258q-108 -102 -253 -102q-115 0 -183 61l-68 -77l-28 24l70 79q-88 106 -47 301q33 156 141 256q107 100 253 100q113 0 183 -61zM105 367q-36 -169 34 -263l472 531q-60 54 -160 54q-125 0 -220 -90
q-95 -92 -126 -232zM669 350q36 163 -34 257l-471 -530q58 -54 157 -54q128 0 222 91q95 92 126 236z" />
    <glyph glyph-name="Ugrave" unicode="&#xd9;" horiz-adv-x="641" 
d="M433 755h-35l-89 144h54zM283 -16q-135 0 -195 78t-28 227l92 423h42l-93 -431q-27 -129 22.5 -193.5t163.5 -64.5q208 0 257 232l96 457h43l-98 -464q-55 -264 -302 -264z" />
    <glyph glyph-name="Uacute" unicode="&#xda;" horiz-adv-x="641" 
d="M432 755h-41l127 144h58zM283 -16q-135 0 -195 78t-28 227l92 423h42l-93 -431q-27 -129 22.5 -193.5t163.5 -64.5q208 0 257 232l96 457h43l-98 -464q-55 -264 -302 -264z" />
    <glyph glyph-name="Ucircumflex" unicode="&#xdb;" horiz-adv-x="641" 
d="M530 755l-82 120l-134 -120h-43l148 144h62l88 -144h-39zM544 255l96 457h43l-98 -464q-55 -264 -302 -264q-135 0 -195 78t-28 227l92 423h42l-93 -431q-27 -129 22.5 -193.5t163.5 -64.5q208 0 257 232z" />
    <glyph glyph-name="Udieresis" unicode="&#xdc;" horiz-adv-x="641" 
d="M347 755h-44l20 91h44zM533 755h-43l20 91h43zM283 -16q-135 0 -195 78t-28 227l92 423h42l-93 -431q-27 -129 22.5 -193.5t163.5 -64.5q208 0 257 232l96 457h43l-98 -464q-55 -264 -302 -264z" />
    <glyph glyph-name="Yacute" unicode="&#xdd;" horiz-adv-x="624" 
d="M522 899h58l-144 -144h-41zM485 523l171 189h52l-364 -404l-66 -308h-43l66 308l-193 404h47l90 -190q29 -60 81 -180q24 27 48.5 54.5t44 51t26.5 30.5q5 5 11 12t14.5 17t14.5 16z" />
    <glyph glyph-name="Thorn" unicode="&#xde;" horiz-adv-x="607" 
d="M174 564h221q112 0 165.5 -60t31.5 -165q-18 -88 -85.5 -139.5t-168.5 -51.5h-253l-31 -148h-43l151 712h43zM549 345q19 87 -23.5 133.5t-136.5 46.5h-224l-71 -338h248q82 0 136.5 42t70.5 116z" />
    <glyph glyph-name="germandbls" unicode="&#xdf;" horiz-adv-x="526" 
d="M504 532q-12 -53 -53 -94t-103 -58q75 -17 107.5 -70.5t15.5 -131.5q-18 -85 -83 -133.5t-165 -48.5q-61 0 -89 4l8 36q37 -4 86 -4q81 0 133.5 40t67.5 112q16 80 -27 128t-139 48h-32l8 38h34q73 0 125.5 39t64.5 98q13 66 -21 108t-105 42q-70 0 -116.5 -42.5
t-63.5 -122.5l-110 -520h-41l111 523q20 94 79 146t146 52q90 0 135 -54q43 -55 27 -135z" />
    <glyph glyph-name="agrave" unicode="&#xe0;" horiz-adv-x="504" 
d="M301 738l41 -144h-33l-61 144h53zM465 365l-57 -271q-14 -62 32 -62q4 0 22 2l-7 -34q-22 -2 -31 -2q-36 0 -51.5 23t-5.5 65l2 10q-71 -107 -207 -107q-86 0 -126 44t-24 119q26 114 206 135l86 10q62 7 88.5 23.5t35.5 52.5q12 56 -20.5 87.5t-108.5 31.5
q-79 0 -121 -30t-59 -98h-40q20 85 73.5 124.5t151.5 39.5q95 0 136 -43t25 -120zM169 24q79 0 138 42.5t82 123.5l24 112q-30 -25 -107 -36l-86 -11q-147 -19 -167 -111q-12 -56 17.5 -88t98.5 -32z" />
    <glyph glyph-name="aacute" unicode="&#xe1;" horiz-adv-x="504" 
d="M408 738h53l-118 -144h-36zM465 365l-57 -271q-14 -62 32 -62q4 0 22 2l-7 -34q-22 -2 -31 -2q-36 0 -51.5 23t-5.5 65l2 10q-71 -107 -207 -107q-86 0 -126 44t-24 119q26 114 206 135l86 10q62 7 88.5 23.5t35.5 52.5q12 56 -20.5 87.5t-108.5 31.5q-79 0 -121 -30
t-59 -98h-40q20 85 73.5 124.5t151.5 39.5q95 0 136 -43t25 -120zM169 24q79 0 138 42.5t82 123.5l24 112q-30 -25 -107 -36l-86 -11q-147 -19 -167 -111q-12 -56 17.5 -88t98.5 -32z" />
    <glyph glyph-name="acircumflex" unicode="&#xe2;" horiz-adv-x="504" 
d="M429 594l-82 120l-134 -120h-43l148 144h62l88 -144h-39zM465 365l-57 -271q-14 -62 32 -62q4 0 22 2l-7 -34q-22 -2 -31 -2q-36 0 -51.5 23t-5.5 65l2 10q-71 -107 -207 -107q-86 0 -126 44t-24 119q26 114 206 135l86 10q62 7 88.5 23.5t35.5 52.5q12 56 -20.5 87.5
t-108.5 31.5q-79 0 -121 -30t-59 -98h-40q20 85 73.5 124.5t151.5 39.5q95 0 136 -43t25 -120zM169 24q79 0 138 42.5t82 123.5l24 112q-30 -25 -107 -36l-86 -11q-147 -19 -167 -111q-12 -56 17.5 -88t98.5 -32z" />
    <glyph glyph-name="atilde" unicode="&#xe3;" horiz-adv-x="504" 
d="M260 665q-43 0 -60 -71h-35q24 109 98 109q35 0 76 -38q39 -33 65 -33q41 0 58 71h35q-25 -109 -97 -109q-32 0 -78 39q-38 32 -62 32zM304 528q95 0 136 -43t25 -120l-57 -271q-14 -62 32 -62q4 0 22 2l-7 -34q-22 -2 -31 -2q-36 0 -51.5 23t-5.5 65l2 10
q-71 -107 -207 -107q-86 0 -126 44t-24 119q26 114 206 135l86 10q62 7 88.5 23.5t35.5 52.5q12 56 -20.5 87.5t-108.5 31.5q-79 0 -121 -30t-59 -98h-40q20 85 73.5 124.5t151.5 39.5zM169 24q79 0 138 42.5t82 123.5l24 112q-30 -25 -107 -36l-86 -11q-147 -19 -167 -111
q-12 -56 17.5 -88t98.5 -32z" />
    <glyph glyph-name="adieresis" unicode="&#xe4;" horiz-adv-x="504" 
d="M223 685h43l-20 -91h-43zM410 685h43l-20 -91h-43zM465 365l-57 -271q-14 -62 32 -62q4 0 22 2l-7 -34q-22 -2 -31 -2q-36 0 -51.5 23t-5.5 65l2 10q-71 -107 -207 -107q-86 0 -126 44t-24 119q26 114 206 135l86 10q62 7 88.5 23.5t35.5 52.5q12 56 -20.5 87.5
t-108.5 31.5q-79 0 -121 -30t-59 -98h-40q20 85 73.5 124.5t151.5 39.5q95 0 136 -43t25 -120zM169 24q79 0 138 42.5t82 123.5l24 112q-30 -25 -107 -36l-86 -11q-147 -19 -167 -111q-12 -56 17.5 -88t98.5 -32z" />
    <glyph glyph-name="aring" unicode="&#xe5;" horiz-adv-x="504" 
d="M341 592q-47 0 -79 31.5t-32 77.5t32 77t79 31q46 0 78.5 -31.5t32.5 -76.5q0 -46 -32.5 -77.5t-78.5 -31.5zM396 756q-33 37 -84.5 15.5t-48.5 -70.5q0 -33 23 -55.5t55 -22.5t55 22.5t23 55.5q0 32 -23 55zM465 365l-57 -271q-14 -62 32 -62q4 0 22 2l-7 -34
q-22 -2 -31 -2q-36 0 -51.5 23t-5.5 65l2 10q-71 -107 -207 -107q-86 0 -126 44t-24 119q26 114 206 135l86 10q62 7 88.5 23.5t35.5 52.5q12 56 -20.5 87.5t-108.5 31.5q-79 0 -121 -30t-59 -98h-40q20 85 73.5 124.5t151.5 39.5q95 0 136 -43t25 -120zM169 24
q79 0 138 42.5t82 123.5l24 112q-30 -25 -107 -36l-86 -11q-147 -19 -167 -111q-12 -56 17.5 -88t98.5 -32z" />
    <glyph glyph-name="ae" unicode="&#xe6;" horiz-adv-x="864" 
d="M656 528q106 0 152 -76t18 -192q-1 -5 -4 -15h-391q-16 -103 20 -161t117 -58q65 0 115 37.5t77 106.5h40q-31 -87 -91.5 -134.5t-143.5 -47.5q-68 0 -112.5 34.5t-58.5 98.5q-80 -132 -230 -132q-88 0 -128.5 43t-23.5 121q26 112 208 134l86 10q61 8 87.5 27.5
t35.5 60.5q12 51 -20 79t-109 28q-80 0 -123 -30.5t-58 -97.5h-40q35 164 226 164q71 0 114 -25t51 -68q75 93 186 93zM652 490q-77 0 -133.5 -55t-79.5 -152h351q16 92 -21 149.5t-117 57.5zM169 23q76 0 135 42.5t83 121.5q0 39 9 84l5 23q-30 -21 -96 -30l-86 -11
q-146 -18 -166 -107q-13 -58 17 -90.5t99 -32.5z" />
    <glyph glyph-name="ccedilla" unicode="&#xe7;" horiz-adv-x="507" 
d="M308 491q-81 0 -142 -60t-83 -162q-24 -117 14 -180.5t128 -63.5q66 0 119 41t76 110h43q-25 -79 -86.5 -130.5t-139.5 -56.5l-54 -57h6q45 0 69 -23t16 -57q-17 -74 -135 -74q-35 0 -57 5l6 26q20 -4 55 -4q81 0 92 51q5 25 -12.5 39t-56.5 14q-16 0 -21 -1l4 22l52 59
q-99 6 -142.5 82.5t-16.5 205.5q24 113 98 182t174 69q85 0 134.5 -49t47.5 -129h-43q-1 64 -40 102.5t-105 38.5z" />
    <glyph glyph-name="egrave" unicode="&#xe8;" horiz-adv-x="531" 
d="M311 738l41 -144h-33l-61 144h53zM315 528q111 0 157 -76t21 -192q-1 -5 -4 -15h-411q-17 -103 20.5 -161t123.5 -58q68 0 120.5 37.5t80.5 106.5h42q-31 -87 -95.5 -134.5t-151.5 -47.5q-109 0 -157 76.5t-21 206.5q24 113 99 185q73 72 176 72zM310 490q-81 0 -140 -55
t-84 -152h368q18 93 -20.5 150t-123.5 57z" />
    <glyph glyph-name="eacute" unicode="&#xe9;" horiz-adv-x="531" 
d="M418 738h53l-118 -144h-36zM315 528q111 0 157 -76t21 -192q-1 -5 -4 -15h-411q-17 -103 20.5 -161t123.5 -58q68 0 120.5 37.5t80.5 106.5h42q-31 -87 -95.5 -134.5t-151.5 -47.5q-109 0 -157 76.5t-21 206.5q24 113 99 185q73 72 176 72zM310 490q-81 0 -140 -55
t-84 -152h368q18 93 -20.5 150t-123.5 57z" />
    <glyph glyph-name="ecircumflex" unicode="&#xea;" horiz-adv-x="531" 
d="M439 594l-82 120l-134 -120h-43l148 144h62l88 -144h-39zM315 528q111 0 157 -76t21 -192q-1 -5 -4 -15h-411q-17 -103 20.5 -161t123.5 -58q68 0 120.5 37.5t80.5 106.5h42q-31 -87 -95.5 -134.5t-151.5 -47.5q-109 0 -157 76.5t-21 206.5q24 113 99 185q73 72 176 72z
M310 490q-81 0 -140 -55t-84 -152h368q18 93 -20.5 150t-123.5 57z" />
    <glyph glyph-name="edieresis" unicode="&#xeb;" horiz-adv-x="531" 
d="M233 685h43l-20 -91h-43zM420 685h43l-20 -91h-43zM315 528q111 0 157 -76t21 -192q-1 -5 -4 -15h-411q-17 -103 20.5 -161t123.5 -58q68 0 120.5 37.5t80.5 106.5h42q-31 -87 -95.5 -134.5t-151.5 -47.5q-109 0 -157 76.5t-21 206.5q24 113 99 185q73 72 176 72z
M310 490q-81 0 -140 -55t-84 -152h368q18 93 -20.5 150t-123.5 57z" />
    <glyph glyph-name="igrave" unicode="&#xec;" horiz-adv-x="161" 
d="M164 594h-33l-51 144h48zM47 0h-41l110 516h41z" />
    <glyph glyph-name="iacute" unicode="&#xed;" horiz-adv-x="161" 
d="M157 594h-33l67 144h48zM47 0h-41l110 516h41z" />
    <glyph glyph-name="icircumflex" unicode="&#xee;" horiz-adv-x="161" 
d="M210 738l61 -144h-37l-58 118l-108 -118h-41l123 144h60zM47 0h-41l110 516h41z" />
    <glyph glyph-name="idieresis" unicode="&#xef;" horiz-adv-x="161" 
d="M102 594h-43l20 91h43zM244 594h-43l20 91h43zM47 0h-41l110 516h41z" />
    <glyph glyph-name="eth" unicode="&#xf0;" horiz-adv-x="534" 
d="M387 655l151 50l-8 -35l-123 -41q69 -93 88 -182q19 -90 -6 -220q-22 -103 -91 -172q-68 -67 -174 -67q-105 0 -158 77q-52 77 -24 210q23 102 95 168q71 67 171 67q106 0 152 -82q-20 89 -92 188l-180 -60l9 36l151 50l-53 70h47zM448 233q24 110 -16.5 175t-128.5 65
q-84 0 -142 -58q-59 -59 -78 -148q-24 -112 17 -177t130 -65q82 0 140 58q58 59 78 150z" />
    <glyph glyph-name="ntilde" unicode="&#xf1;" horiz-adv-x="522" 
d="M274 666q-43 0 -60 -71h-35q24 109 98 109q35 0 76 -38q39 -33 65 -33q41 0 58 71h35q-25 -109 -97 -109q-32 0 -78 39q-38 32 -62 32zM332 528q89 0 127.5 -54.5t15.5 -158.5l-68 -315h-41l68 318q36 173 -111 173q-76 0 -135 -53t-80 -151l-61 -287h-41l110 516h39
l-22 -101q35 54 87 83.5t112 29.5z" />
    <glyph glyph-name="ograve" unicode="&#xf2;" horiz-adv-x="545" 
d="M362 595h-33l-61 144h53zM228 -12q-114 0 -164.5 75.5t-23.5 204.5q24 114 102 187q76 73 176 73q114 0 165 -76q50 -78 22 -205q-24 -112 -101 -186q-77 -73 -176 -73zM230 25q82 0 147 63q63 62 86 163q24 111 -15 175.5t-131 64.5q-85 0 -149 -64q-65 -65 -86 -162
q-23 -111 16 -175.5t132 -64.5z" />
    <glyph glyph-name="oacute" unicode="&#xf3;" horiz-adv-x="545" 
d="M362 595h-36l101 144h53zM228 -12q-114 0 -164.5 75.5t-23.5 204.5q24 114 102 187q76 73 176 73q114 0 165 -76q50 -78 22 -205q-24 -112 -101 -186q-77 -73 -176 -73zM230 25q82 0 147 63q63 62 86 163q24 111 -15 175.5t-131 64.5q-85 0 -149 -64q-65 -65 -86 -162
q-23 -111 16 -175.5t132 -64.5z" />
    <glyph glyph-name="ocircumflex" unicode="&#xf4;" horiz-adv-x="545" 
d="M448 595l-82 120l-134 -120h-43l148 144h62l88 -144h-39zM318 528q114 0 165 -76q50 -78 22 -205q-24 -112 -101 -186q-77 -73 -176 -73q-114 0 -164.5 75.5t-23.5 204.5q24 114 102 187q76 73 176 73zM463 251q24 111 -15 175.5t-131 64.5q-85 0 -149 -64
q-65 -65 -86 -162q-23 -111 16 -175.5t132 -64.5q82 0 147 63q63 62 86 163z" />
    <glyph glyph-name="otilde" unicode="&#xf5;" horiz-adv-x="545" 
d="M219 595h-35q24 109 98 109q35 0 76 -38q39 -33 65 -33q41 0 58 71h35q-25 -109 -97 -109q-31 0 -78 39q-38 32 -62 32q-43 0 -60 -71zM228 -12q-114 0 -164.5 75.5t-23.5 204.5q24 114 102 187q76 73 176 73q114 0 165 -76q50 -78 22 -205q-24 -112 -101 -186
q-77 -73 -176 -73zM230 25q82 0 147 63q63 62 86 163q24 111 -15 175.5t-131 64.5q-85 0 -149 -64q-65 -65 -86 -162q-23 -111 16 -175.5t132 -64.5z" />
    <glyph glyph-name="odieresis" unicode="&#xf6;" horiz-adv-x="545" 
d="M265 595h-43l20 91h43zM452 595h-43l20 91h43zM228 -12q-114 0 -164.5 75.5t-23.5 204.5q24 114 102 187q76 73 176 73q114 0 165 -76q50 -78 22 -205q-24 -112 -101 -186q-77 -73 -176 -73zM230 25q82 0 147 63q63 62 86 163q24 111 -15 175.5t-131 64.5q-85 0 -149 -64
q-65 -65 -86 -162q-23 -111 16 -175.5t132 -64.5z" />
    <glyph glyph-name="divide" unicode="&#xf7;" horiz-adv-x="516" 
d="M306 481h-41v87h41v-87zM486 337h-414v38h414v-38zM307 144h-41v87h41v-87z" />
    <glyph glyph-name="oslash" unicode="&#xf8;" horiz-adv-x="545" 
d="M501 538l26 -23l-49 -57q55 -76 27 -211q-24 -112 -101 -186q-77 -73 -176 -73q-78 0 -127 36l-40 -46l-27 23l41 47q-65 77 -35 220q24 114 102 187q76 73 176 73q83 0 136 -44zM82 265q-26 -119 21 -184l324 372q-41 38 -110 38q-85 0 -149 -64q-65 -65 -86 -162z
M463 251q24 107 -14 174l-321 -370q40 -30 102 -30q82 0 147 63q63 62 86 163z" />
    <glyph glyph-name="ugrave" unicode="&#xf9;" horiz-adv-x="522" 
d="M309 738l41 -144h-33l-61 144h53zM414 229l61 287h41l-110 -516h-39l22 101q-35 -54 -87 -83.5t-112 -29.5q-89 0 -127.5 54.5t-15.5 158.5l67 315h42l-68 -318q-36 -173 111 -173q76 0 135 53t80 151z" />
    <glyph glyph-name="uacute" unicode="&#xfa;" horiz-adv-x="522" 
d="M415 738h53l-118 -144h-36zM414 229l61 287h41l-110 -516h-39l22 101q-35 -54 -87 -83.5t-112 -29.5q-89 0 -127.5 54.5t-15.5 158.5l67 315h42l-68 -318q-36 -173 111 -173q76 0 135 53t80 151z" />
    <glyph glyph-name="ucircumflex" unicode="&#xfb;" horiz-adv-x="522" 
d="M436 594l-82 120l-134 -120h-43l148 144h62l88 -144h-39zM414 229l61 287h41l-110 -516h-39l22 101q-35 -54 -87 -83.5t-112 -29.5q-89 0 -127.5 54.5t-15.5 158.5l67 315h42l-68 -318q-36 -173 111 -173q76 0 135 53t80 151z" />
    <glyph glyph-name="udieresis" unicode="&#xfc;" horiz-adv-x="522" 
d="M231 685h43l-20 -91h-43zM418 685h43l-20 -91h-43zM414 229l61 287h41l-110 -516h-39l22 101q-35 -54 -87 -83.5t-112 -29.5q-89 0 -127.5 54.5t-15.5 158.5l67 315h42l-68 -318q-36 -173 111 -173q76 0 135 53t80 151z" />
    <glyph glyph-name="yacute" unicode="&#xfd;" horiz-adv-x="476" 
d="M391 738h53l-118 -144h-36zM312 242l160 274h46l-344 -584q-41 -71 -78 -100t-93 -29q-26 0 -44 2l7 35q9 -1 39 -1q41 0 69.5 24t61.5 78q2 3 27 46l-94 529h44l48 -273l34 -208q61 109 80 142q6 11 14 25t13.5 23.5t9.5 16.5z" />
    <glyph glyph-name="thorn" unicode="&#xfe;" horiz-adv-x="560" 
d="M341 528q107 0 157 -77q48 -76 22 -202q-26 -117 -98 -188q-73 -73 -176 -73q-66 0 -111 34t-62 96l-67 -314h-41l194 908h41l-64 -294q80 110 205 110zM478 252q24 111 -14.5 175t-128.5 64q-89 0 -152.5 -62t-84.5 -168q-23 -108 19 -172q42 -65 130 -65q84 0 147 64
q61 63 84 164z" />
    <glyph glyph-name="ydieresis" unicode="&#xff;" horiz-adv-x="476" 
d="M206 685h43l-20 -91h-43zM393 685h43l-20 -91h-43zM312 242l160 274h46l-344 -584q-41 -71 -78 -100t-93 -29q-26 0 -44 2l7 35q9 -1 39 -1q41 0 69.5 24t61.5 78q2 3 27 46l-94 529h44l48 -273l34 -208q61 109 80 142q6 11 14 25t13.5 23.5t9.5 16.5z" />
    <glyph glyph-name="Amacron" unicode="&#x100;" horiz-adv-x="654" 
d="M303 790h264l-8 -35h-264zM582 0h-43l-44 220h-358l-137 -220h-47l441 712h48zM283 456l-123 -198h328l-40 199q-19 102 -38 210q-18 -31 -127 -211z" />
    <glyph glyph-name="amacron" unicode="&#x101;" horiz-adv-x="504" 
d="M195 629h264l-8 -35h-264zM465 365l-57 -271q-14 -62 32 -62q4 0 22 2l-7 -34q-22 -2 -31 -2q-36 0 -51.5 23t-5.5 65l2 10q-71 -107 -207 -107q-86 0 -126 44t-24 119q26 114 206 135l86 10q62 7 88.5 23.5t35.5 52.5q12 56 -20.5 87.5t-108.5 31.5q-79 0 -121 -30
t-59 -98h-40q20 85 73.5 124.5t151.5 39.5q95 0 136 -43t25 -120zM169 24q79 0 138 42.5t82 123.5l24 112q-30 -25 -107 -36l-86 -11q-147 -19 -167 -111q-12 -56 17.5 -88t98.5 -32z" />
    <glyph glyph-name="Abreve" unicode="&#x102;" horiz-adv-x="654" 
d="M433 751q-64 0 -98 36t-28 94h35q-2 -44 23 -70t72 -26q41 0 73 26.5t45 69.5h36q-15 -59 -57.5 -94.5t-100.5 -35.5zM-47 0l441 712h48l140 -712h-43l-44 220h-358l-137 -220h-47zM160 258h328l-40 199q-19 102 -38 210q-18 -31 -127 -211z" />
    <glyph glyph-name="abreve" unicode="&#x103;" horiz-adv-x="504" 
d="M330 590q-64 0 -98 36t-27 94h35q-3 -45 21.5 -70.5t72.5 -25.5q42 0 73 26t46 70h36q-15 -59 -58 -94.5t-101 -35.5zM304 528q95 0 136 -43t25 -120l-57 -271q-14 -62 32 -62q4 0 22 2l-7 -34q-22 -2 -31 -2q-36 0 -51.5 23t-5.5 65l2 10q-71 -107 -207 -107
q-86 0 -126 44t-24 119q26 114 206 135l86 10q62 7 88.5 23.5t35.5 52.5q12 56 -20.5 87.5t-108.5 31.5q-79 0 -121 -30t-59 -98h-40q20 85 73.5 124.5t151.5 39.5zM169 24q79 0 138 42.5t82 123.5l24 112q-30 -25 -107 -36l-86 -11q-147 -19 -167 -111q-12 -56 17.5 -88
t98.5 -32z" />
    <glyph glyph-name="Aogonek" unicode="&#x104;" horiz-adv-x="654" 
d="M443 -120q-6 -25 8.5 -39t42.5 -14q30 0 60 11l-8 -34q-30 -12 -63 -12q-41 0 -64.5 23t-15.5 59q14 74 136 127l-44 219h-358l-137 -220h-47l441 712h48l140 -712h1q-127 -62 -140 -120zM283 456l-123 -198h328l-40 199q-19 102 -38 210q-18 -31 -127 -211z" />
    <glyph glyph-name="aogonek" unicode="&#x105;" horiz-adv-x="504" 
d="M465 365l-57 -271q-14 -62 32 -62q4 0 22 2l-7 -34q-125 -61 -139 -120q-6 -25 8.5 -39t42.5 -14q27 0 60 11l-8 -34q-30 -12 -63 -12q-41 0 -64.5 23t-16.5 59q14 72 133 125q-57 11 -41 87l2 10q-71 -107 -207 -107q-86 0 -126 44t-24 119q26 114 206 135l86 10
q62 7 88.5 23.5t35.5 52.5q12 56 -20.5 87.5t-108.5 31.5q-79 0 -121 -30t-59 -98h-40q20 85 73.5 124.5t151.5 39.5q95 0 136 -43t25 -120zM169 24q79 0 138 42.5t82 123.5l24 112q-30 -25 -107 -36l-86 -11q-147 -19 -167 -111q-12 -56 17.5 -88t98.5 -32z" />
    <glyph glyph-name="Cacute" unicode="&#x106;" horiz-adv-x="690" 
d="M477 771h-41l127 144h58zM306 -16q-152 0 -217 105q-65 106 -26 287q33 154 138 253t245 99q117 0 183 -68t64 -188h-43q1 104 -54 160.5t-154 56.5q-122 0 -214 -89q-92 -90 -122 -230q-35 -161 19 -253q54 -94 184 -94q103 0 184 63.5t117 174.5h43q-39 -130 -133 -203
q-95 -74 -214 -74z" />
    <glyph glyph-name="cacute" unicode="&#x107;" horiz-adv-x="507" 
d="M353 594h-36l101 144h53zM219 -12q-106 0 -156 77t-21 212q24 113 98 182t174 69q85 0 134.5 -49t47.5 -129h-43q-1 64 -40 102.5t-105 38.5q-81 0 -142 -60t-83 -162q-24 -117 14 -180.5t128 -63.5q66 0 119 41t76 110h43q-27 -82 -92 -135q-67 -53 -152 -53z" />
    <glyph glyph-name="Ccircumflex" unicode="&#x108;" horiz-adv-x="690" 
d="M574 771l-82 120l-134 -120h-43l148 144h62l88 -144h-39zM693 472h-43q1 104 -54 160.5t-154 56.5q-122 0 -214 -89q-92 -90 -122 -230q-35 -161 19 -253q54 -94 184 -94q103 0 184 63.5t117 174.5h43q-39 -130 -133 -203q-95 -74 -214 -74q-152 0 -217 105
q-65 106 -26 287q33 154 138 253t245 99q117 0 183 -68t64 -188z" />
    <glyph glyph-name="ccircumflex" unicode="&#x109;" horiz-adv-x="507" 
d="M438 594l-82 120l-134 -120h-43l148 144h62l88 -144h-39zM308 491q-81 0 -142 -60t-83 -162q-24 -117 14 -180.5t128 -63.5q66 0 119 41t76 110h43q-27 -82 -92 -135q-67 -53 -152 -53q-106 0 -156 77t-21 212q24 113 98 182t174 69q85 0 134.5 -49t47.5 -129h-43
q-1 64 -40 102.5t-105 38.5z" />
    <glyph glyph-name="Cdotaccent" unicode="&#x10a;" horiz-adv-x="690" 
d="M485 771h-43l19 91h43zM306 -16q-152 0 -217 105q-65 106 -26 287q33 154 138 253t245 99q117 0 183 -68t64 -188h-43q1 104 -54 160.5t-154 56.5q-122 0 -214 -89q-92 -90 -122 -230q-35 -161 19 -253q54 -94 184 -94q103 0 184 63.5t117 174.5h43q-39 -130 -133 -203
q-95 -74 -214 -74z" />
    <glyph glyph-name="cdotaccent" unicode="&#x10b;" horiz-adv-x="507" 
d="M350 594h-43l19 91h43zM219 -12q-106 0 -156 77t-21 212q24 113 98 182t174 69q85 0 134.5 -49t47.5 -129h-43q-1 64 -40 102.5t-105 38.5q-81 0 -142 -60t-83 -162q-24 -117 14 -180.5t128 -63.5q66 0 119 41t76 110h43q-27 -82 -92 -135q-67 -53 -152 -53z" />
    <glyph glyph-name="Ccaron" unicode="&#x10c;" horiz-adv-x="690" 
d="M643 915l-148 -144h-62l-88 144h39l82 -120l134 120h43zM693 472h-43q1 104 -54 160.5t-154 56.5q-122 0 -214 -89q-92 -90 -122 -230q-35 -161 19 -253q54 -94 184 -94q103 0 184 63.5t117 174.5h43q-39 -130 -133 -203q-95 -74 -214 -74q-152 0 -217 105
q-65 106 -26 287q33 154 138 253t245 99q117 0 183 -68t64 -188z" />
    <glyph glyph-name="ccaron" unicode="&#x10d;" horiz-adv-x="507" 
d="M505 738l-148 -144h-62l-88 144h39l82 -120l134 120h43zM314 528q85 0 134.5 -49t47.5 -129h-43q-1 64 -40 102.5t-105 38.5q-81 0 -142 -60t-83 -162q-24 -117 14 -180.5t128 -63.5q66 0 119 41t76 110h43q-27 -82 -92 -135q-67 -53 -152 -53q-106 0 -156 77t-21 212
q24 113 98 182t174 69z" />
    <glyph glyph-name="Dcaron" unicode="&#x10e;" horiz-adv-x="666" 
d="M557 899l-148 -144h-62l-88 144h39l82 -120l134 120h43zM162 712h206q164 0 238 -107q73 -106 38 -274q-70 -331 -421 -331h-212zM600 338q31 147 -29 242q-60 93 -208 93h-166l-135 -634h164q309 0 374 299z" />
    <glyph glyph-name="dcaron" unicode="&#x10f;" horiz-adv-x="629" 
d="M487 398l67 314h41l-152 -712h-39l21 100q-79 -112 -206 -112q-108 0 -156 77q-49 76 -23 202q26 115 99 189q73 72 176 72q65 0 110 -34t62 -96zM606 546l85 166h43l-94 -166h-34zM97 89q39 -64 128 -64t153 63q62 61 85 167q23 107 -20 172q-42 65 -130 65
q-85 0 -146 -63q-62 -64 -85 -165q-24 -111 15 -175z" />
    <glyph glyph-name="Dcroat" unicode="&#x110;" horiz-adv-x="689" 
d="M186 712h206q164 0 238 -107q73 -107 37 -274q-70 -331 -421 -331h-211l75 353h-90l8 35h89zM624 338q31 146 -29 241q-61 94 -209 94h-166l-61 -285h212l-8 -35h-211l-67 -314h165q309 0 374 299z" />
    <glyph glyph-name="dslash" unicode="&#x111;" horiz-adv-x="591" 
d="M577 627h112l-8 -34h-111l-127 -593h-39l21 100q-79 -112 -206 -112q-108 0 -156 77q-49 76 -23 202q26 115 99 189q73 72 176 72q65 0 110 -34t62 -96l42 195h-111l7 34h111l18 85h41zM97 89q39 -64 128 -64t153 63q62 61 85 167q23 107 -20 172q-42 65 -130 65
q-85 0 -146 -63q-62 -64 -85 -165q-24 -111 15 -175z" />
    <glyph glyph-name="Emacron" unicode="&#x112;" horiz-adv-x="568" 
d="M268 790h264l-8 -35h-264zM631 712l-8 -39h-426l-60 -281h386l-8 -39h-387l-67 -314h431l-9 -39h-473l152 712h469z" />
    <glyph glyph-name="emacron" unicode="&#x113;" horiz-adv-x="531" 
d="M205 629h264l-8 -35h-264zM315 528q111 0 157 -76t21 -192q-1 -5 -4 -15h-411q-17 -103 20.5 -161t123.5 -58q68 0 120.5 37.5t80.5 106.5h42q-31 -87 -95.5 -134.5t-151.5 -47.5q-109 0 -157 76.5t-21 206.5q24 113 99 185q73 72 176 72zM310 490q-81 0 -140 -55
t-84 -152h368q18 93 -20.5 150t-123.5 57z" />
    <glyph glyph-name="Ebreve" unicode="&#x114;" horiz-adv-x="568" 
d="M398 751q-64 0 -98 36t-28 94h35q-2 -44 23 -70t72 -26q41 0 73 26.5t45 69.5h36q-15 -59 -57.5 -94.5t-100.5 -35.5zM631 712l-8 -39h-426l-60 -281h386l-8 -39h-387l-67 -314h431l-9 -39h-473l152 712h469z" />
    <glyph glyph-name="ebreve" unicode="&#x115;" horiz-adv-x="531" 
d="M340 590q-64 0 -98 36t-27 94h35q-3 -45 21.5 -70.5t72.5 -25.5q42 0 73 26t46 70h36q-15 -59 -58 -94.5t-101 -35.5zM315 528q111 0 157 -76t21 -192q-1 -5 -4 -15h-411q-17 -103 20.5 -161t123.5 -58q68 0 120.5 37.5t80.5 106.5h42q-31 -87 -95.5 -134.5t-151.5 -47.5
q-109 0 -157 76.5t-21 206.5q24 113 99 185q73 72 176 72zM310 490q-81 0 -140 -55t-84 -152h368q18 93 -20.5 150t-123.5 57z" />
    <glyph glyph-name="Edotaccent" unicode="&#x116;" horiz-adv-x="568" 
d="M389 846h43l-19 -91h-43zM631 712l-8 -39h-426l-60 -281h386l-8 -39h-387l-67 -314h431l-9 -39h-473l152 712h469z" />
    <glyph glyph-name="edotaccent" unicode="&#x117;" horiz-adv-x="531" 
d="M326 685h43l-19 -91h-43zM315 528q111 0 157 -76t21 -192q-1 -5 -4 -15h-411q-17 -103 20.5 -161t123.5 -58q68 0 120.5 37.5t80.5 106.5h42q-31 -87 -95.5 -134.5t-151.5 -47.5q-109 0 -157 76.5t-21 206.5q24 113 99 185q73 72 176 72zM310 490q-81 0 -140 -55
t-84 -152h368q18 93 -20.5 150t-123.5 57z" />
    <glyph glyph-name="Eogonek" unicode="&#x118;" horiz-adv-x="568" 
d="M631 712l-8 -39h-426l-60 -281h386l-8 -39h-387l-67 -314h431l-9 -39h-11q-127 -62 -140 -120q-6 -25 8.5 -39t42.5 -14q30 0 60 11l-8 -34q-30 -12 -63 -12q-41 0 -64.5 23t-15.5 59q13 73 133 126h-415l152 712h469z" />
    <glyph glyph-name="eogonek" unicode="&#x119;" horiz-adv-x="531" 
d="M315 528q111 0 157 -76t21 -192q-1 -5 -4 -15h-411q-17 -103 20.5 -161t123.5 -58q68 0 120.5 37.5t80.5 106.5h42q-50 -134 -166 -170h1q-127 -62 -140 -120q-6 -25 8.5 -39t42.5 -14q30 0 60 11l-8 -34q-30 -12 -63 -12q-41 0 -64.5 23t-15.5 59q14 66 109 114h-11
q-109 0 -157 76.5t-21 206.5q24 113 99 185q73 72 176 72zM310 490q-81 0 -140 -55t-84 -152h368q18 93 -20.5 150t-123.5 57z" />
    <glyph glyph-name="Ecaron" unicode="&#x11a;" horiz-adv-x="568" 
d="M571 899l-148 -144h-62l-88 144h39l82 -120l134 120h43zM631 712l-8 -39h-426l-60 -281h386l-8 -39h-387l-67 -314h431l-9 -39h-473l152 712h469z" />
    <glyph glyph-name="ecaron" unicode="&#x11b;" horiz-adv-x="531" 
d="M505 738l-148 -144h-62l-88 144h39l82 -120l134 120h43zM315 528q111 0 157 -76t21 -192q-1 -5 -4 -15h-411q-17 -103 20.5 -161t123.5 -58q68 0 120.5 37.5t80.5 106.5h42q-31 -87 -95.5 -134.5t-151.5 -47.5q-109 0 -157 76.5t-21 206.5q24 113 99 185q73 72 176 72z
M86 283h368q18 93 -20.5 150t-123.5 57q-81 0 -140 -55t-84 -152z" />
    <glyph glyph-name="Gcircumflex" unicode="&#x11c;" horiz-adv-x="729" 
d="M574 771l-82 120l-134 -120h-43l148 144h62l88 -144h-39zM712 478h-44q3 95 -58 153t-166 58q-124 0 -216 -89t-122 -227q-34 -160 26 -255t193 -95q123 0 209 82q87 83 114 211h-254l8 39h294l-76 -355h-37l26 152q-101 -168 -288 -168q-153 0 -225 108q-72 107 -33 287
q32 152 137 251q104 98 249 98q125 0 196 -69q71 -71 67 -181z" />
    <glyph glyph-name="gcircumflex" unicode="&#x11d;" horiz-adv-x="549" 
d="M446 595l-82 120l-134 -120h-43l148 144h62l88 -144h-39zM482 404l24 112h39l-106 -496q-25 -118 -85 -173t-169 -55q-92 0 -138.5 42t-41.5 115h41q-3 -59 32.5 -90.5t110.5 -31.5q90 0 139 45.5t70 147.5l16 75q-77 -107 -196 -107q-104 0 -154 80t-23 206
q26 119 98 186.5t174 67.5q64 0 107.5 -32.5t61.5 -91.5zM225 25q81 0 141 57.5t85 156.5l7 35q17 101 -22.5 159t-123.5 58q-87 0 -146.5 -59.5t-81.5 -163.5q-23 -111 15 -177t126 -66z" />
    <glyph glyph-name="Gbreve" unicode="&#x11e;" horiz-adv-x="729" 
d="M470 767q-64 0 -98 36t-28 94h35q-2 -44 23 -70t72 -26q41 0 73 26.5t45 69.5h36q-15 -59 -57.5 -94.5t-100.5 -35.5zM712 478h-44q3 95 -58 153t-166 58q-124 0 -216 -89t-122 -227q-34 -160 26 -255t193 -95q123 0 209 82q87 83 114 211h-254l8 39h294l-76 -355h-37
l26 152q-101 -168 -288 -168q-153 0 -225 108q-72 107 -33 287q32 152 137 251q104 98 249 98q125 0 196 -69q71 -71 67 -181z" />
    <glyph glyph-name="gbreve" unicode="&#x11f;" horiz-adv-x="549" 
d="M348 591q-64 0 -98 36t-27 94h35q-3 -45 21.5 -70.5t72.5 -25.5q42 0 73 26t46 70h36q-15 -59 -58 -94.5t-101 -35.5zM482 404l24 112h39l-106 -496q-25 -118 -85 -173t-169 -55q-92 0 -138.5 42t-41.5 115h41q-3 -59 32.5 -90.5t110.5 -31.5q90 0 139 45.5t70 147.5
l16 75q-77 -107 -196 -107q-104 0 -154 80t-23 206q26 119 98 186.5t174 67.5q64 0 107.5 -32.5t61.5 -91.5zM225 25q81 0 141 57.5t85 156.5l7 35q17 101 -22.5 159t-123.5 58q-87 0 -146.5 -59.5t-81.5 -163.5q-23 -111 15 -177t126 -66z" />
    <glyph glyph-name="Gdotaccent" unicode="&#x120;" horiz-adv-x="729" 
d="M460 862h43l-19 -91h-43zM712 478h-44q3 95 -58 153t-166 58q-124 0 -216 -89t-122 -227q-34 -160 26 -255t193 -95q123 0 209 82q87 83 114 211h-254l8 39h294l-76 -355h-37l26 152q-101 -168 -288 -168q-153 0 -225 108q-72 107 -33 287q32 152 137 251q104 98 249 98
q125 0 196 -69q71 -71 67 -181z" />
    <glyph glyph-name="gdotaccent" unicode="&#x121;" horiz-adv-x="549" 
d="M334 686h43l-19 -91h-43zM482 404l24 112h39l-106 -496q-25 -118 -85 -173t-169 -55q-92 0 -138.5 42t-41.5 115h41q-3 -59 32.5 -90.5t110.5 -31.5q90 0 139 45.5t70 147.5l16 75q-77 -107 -196 -107q-104 0 -154 80t-23 206q26 119 98 186.5t174 67.5q64 0 107.5 -32.5
t61.5 -91.5zM225 25q81 0 141 57.5t85 156.5l7 35q17 101 -22.5 159t-123.5 58q-87 0 -146.5 -59.5t-81.5 -163.5q-23 -111 15 -177t126 -66z" />
    <glyph glyph-name="uni0122" unicode="&#x122;" horiz-adv-x="729" 
d="M712 478h-44q3 95 -58 153t-166 58q-124 0 -216 -89t-122 -227q-34 -160 26 -255t193 -95q123 0 209 82q87 83 114 211h-254l8 39h294l-76 -355h-37l26 152q-101 -168 -288 -168q-153 0 -225 108q-72 107 -33 287q32 152 137 251q104 98 249 98q125 0 196 -69
q71 -71 67 -181zM325 -115h-36l12 57h62l-16 -77q-16 -72 -72 -84l-13 -3l6 25l8 2q32 9 44 59z" />
    <glyph glyph-name="uni0123" unicode="&#x123;" horiz-adv-x="549" 
d="M332 652h35l-12 -57h-62l17 77q13 72 72 84l12 3l-6 -25l-8 -2q-32 -9 -44 -59zM482 404l24 112h39l-106 -496q-25 -118 -85 -173t-169 -55q-92 0 -138.5 42t-41.5 115h41q-3 -59 32.5 -90.5t110.5 -31.5q90 0 139 45.5t70 147.5l16 75q-77 -107 -196 -107
q-104 0 -154 80t-23 206q26 119 98 186.5t174 67.5q64 0 107.5 -32.5t61.5 -91.5zM225 25q81 0 141 57.5t85 156.5l7 35q17 101 -22.5 159t-123.5 58q-87 0 -146.5 -59.5t-81.5 -163.5q-23 -111 15 -177t126 -66z" />
    <glyph glyph-name="Hcircumflex" unicode="&#x124;" horiz-adv-x="670" 
d="M543 754l-82 120l-134 -120h-43l148 144h62l88 -144h-39zM591 391l69 321h42l-152 -712h-42l75 351h-455l-75 -351h-43l152 712h43l-69 -321h455z" />
    <glyph glyph-name="hcircumflex" unicode="&#x125;" horiz-adv-x="522" 
d="M273 755l-58 118l-108 -118h-41l123 144h60l61 -144h-37zM332 528q89 0 127.5 -54.5t15.5 -158.5l-67 -315h-41l67 318q38 173 -111 173q-76 0 -135 -53t-80 -151l-61 -287h-41l151 712h41l-62 -295q33 52 85 81.5t111 29.5z" />
    <glyph glyph-name="Hbar" unicode="&#x126;" horiz-adv-x="719" 
d="M697 575h89l-7 -34h-90l-115 -541h-42l75 351h-455l-75 -351h-43l115 541h-89l7 34h90l29 137h43l-29 -137h455l29 137h42zM160 391h455l32 150h-455z" />
    <glyph glyph-name="hbar" unicode="&#x127;" horiz-adv-x="551" 
d="M361 528q89 0 127.5 -54.5t15.5 -158.5l-67 -315h-41l67 318q38 173 -111 173q-76 0 -135 -53t-80 -151l-61 -287h-41l126 593h-111l7 34h111l18 85h41l-18 -85h112l-7 -34h-112l-37 -176q33 52 85 81.5t111 29.5z" />
    <glyph glyph-name="Itilde" unicode="&#x128;" horiz-adv-x="173" 
d="M97 755h-30q14 57 33 82t49 25q26 0 61 -35t54 -35q17 0 27 16t20 54h30q-13 -56 -32 -81.5t-49 -25.5q-24 0 -59 36q-37 35 -56 35q-17 0 -27.5 -16.5t-20.5 -54.5zM53 0h-43l152 712h43z" />
    <glyph glyph-name="itilde" unicode="&#x129;" horiz-adv-x="161" 
d="M51 594h-30q14 57 33 82t49 25q23 0 61 -35t54 -35q17 0 27 16t20 54h30q-13 -56 -32 -81.5t-49 -25.5q-24 0 -59 36q-37 35 -56 35q-17 0 -27.5 -16.5t-20.5 -54.5zM47 0h-41l110 516h41z" />
    <glyph glyph-name="Imacron" unicode="&#x12a;" horiz-adv-x="173" 
d="M292 755h-198l8 35h198zM53 0h-43l152 712h43z" />
    <glyph glyph-name="imacron" unicode="&#x12b;" horiz-adv-x="161" 
d="M251 594h-198l8 35h198zM47 0h-41l110 516h41z" />
    <glyph glyph-name="Ibreve" unicode="&#x12c;" horiz-adv-x="173" 
d="M199 751q-53 0 -83 33t-25 84h34q-1 -39 19.5 -61t58.5 -22q37 0 64.5 22.5t39.5 60.5h36q-37 -117 -144 -117zM53 0h-43l152 712h43z" />
    <glyph glyph-name="ibreve" unicode="&#x12d;" horiz-adv-x="161" 
d="M146 590q-53 0 -83 33t-25 84h34q-1 -39 19.5 -61t58.5 -22q37 0 64.5 22.5t39.5 60.5h36q-38 -117 -144 -117zM47 0h-41l110 516h41z" />
    <glyph glyph-name="Iogonek" unicode="&#x12e;" horiz-adv-x="173" 
d="M205 712l-152 -712q-71 -64 -81 -120q-10 -54 36 -54q17 0 38 8l-7 -33q-19 -9 -43 -9q-35 0 -51.5 23t-7.5 63q13 58 83 122h-10l152 712h43z" />
    <glyph glyph-name="iogonek" unicode="&#x12f;" horiz-adv-x="161" 
d="M131 594l19 91h43l-19 -91h-43zM14 0h-8l110 516h41l-110 -516q-68 -61 -82 -120q-11 -54 36 -54q18 0 39 8l-7 -33q-20 -9 -43 -9q-35 0 -52 23t-8 63q14 56 84 122z" />
    <glyph glyph-name="Idot" unicode="&#x130;" horiz-adv-x="173" 
d="M214 755h-43l19 91h43zM53 0h-43l152 712h43z" />
    <glyph glyph-name="dotlessi" unicode="&#x131;" horiz-adv-x="161" 
d="M47 0h-41l110 516h41z" />
    <glyph glyph-name="IJ" unicode="&#x132;" horiz-adv-x="698" 
d="M53 0h-43l152 712h43zM391 -16q-108 0 -158 65q-50 66 -25 172l6 24h42l-7 -30q-19 -90 20.5 -141t126.5 -51q77 0 127 47.5t68 135.5l107 506h43l-108 -509q-23 -107 -84.5 -163t-157.5 -56z" />
    <glyph glyph-name="ij" unicode="&#x133;" horiz-adv-x="324" 
d="M174 594h-43l19 91h43zM335 594h-43l19 91h43zM47 0h-41l110 516h41zM66 -198q-38 0 -47 1l8 35h40q65 0 81 78l128 600h41l-129 -604q-23 -110 -122 -110z" />
    <glyph glyph-name="Jcircumflex" unicode="&#x134;" horiz-adv-x="525" 
d="M618 899l61 -144h-37l-58 118l-108 -118h-41l123 144h60zM418 206l107 506h43l-108 -509q-23 -107 -84.5 -163t-157.5 -56q-108 0 -158 65q-50 66 -25 172l6 24h42l-7 -30q-19 -90 20.5 -141t126.5 -51q77 0 127 47.5t68 135.5z" />
    <glyph glyph-name="jcircumflex" unicode="&#x135;" horiz-adv-x="164" 
d="M210 738l61 -144h-37l-58 118l-108 -118h-41l123 144h60zM-13 -84l128 600h41l-129 -604q-23 -110 -122 -110q-38 0 -47 1l8 35h40q64 0 81 78z" />
    <glyph glyph-name="uni0136" unicode="&#x136;" horiz-adv-x="628" 
d="M648 712h59l-382 -301l237 -411h-47l-225 385l-185 -146l-51 -239h-43l151 712h43l-89 -419zM264 -100h-36l12 57h62l-16 -77q-16 -72 -72 -84l-13 -3l6 25l8 2q32 9 44 59z" />
    <glyph glyph-name="uni0137" unicode="&#x137;" horiz-adv-x="488" 
d="M458 516h56l-251 -194l157 -322h-43l-146 299l-144 -111l-40 -188h-41l152 712h41l-101 -471zM186 -100h-36l12 57h62l-16 -77q-16 -72 -72 -84l-13 -3l6 25l8 2q32 9 44 59z" />
    <glyph glyph-name="kgreenlandic" unicode="&#x138;" horiz-adv-x="488" 
d="M458 516h56l-251 -194l157 -322h-43l-146 299l-144 -111l-40 -188h-41l110 516h41l-59 -275z" />
    <glyph glyph-name="Lacute" unicode="&#x139;" horiz-adv-x="502" 
d="M307 899h58l-144 -144h-41zM205 712l-144 -673h372l-8 -39h-415l152 712h43z" />
    <glyph glyph-name="lacute" unicode="&#x13a;" horiz-adv-x="161" 
d="M197 755h-35l95 144h49zM47 0h-41l152 712h41z" />
    <glyph glyph-name="uni013B" unicode="&#x13b;" horiz-adv-x="502" 
d="M205 712l-144 -673h372l-8 -39h-415l152 712h43zM213 -100h-36l12 57h62l-16 -77q-16 -72 -72 -84l-13 -3l6 25l8 2q32 9 44 59z" />
    <glyph glyph-name="uni013C" unicode="&#x13c;" horiz-adv-x="161" 
d="M158 712h41l-152 -712h-41zM12 -100h-36l12 57h62l-16 -77q-16 -72 -72 -84l-13 -3l6 25l8 2q32 9 44 59z" />
    <glyph glyph-name="Lcaron" unicode="&#x13d;" horiz-adv-x="502" 
d="M205 712l-144 -673h372l-8 -39h-415l152 712h43zM338 712h43l-94 -166h-34z" />
    <glyph glyph-name="lcaron" unicode="&#x13e;" horiz-adv-x="228" 
d="M47 0h-41l152 712h41zM243 546h-33l84 166h44z" />
    <glyph glyph-name="Ldot" unicode="&#x13f;" horiz-adv-x="502" 
d="M205 712l-144 -673h372l-8 -39h-415l152 712h43zM335 401h64l-14 -64h-64z" />
    <glyph glyph-name="ldot" unicode="&#x140;" horiz-adv-x="318" 
d="M47 0h-41l152 712h41zM278 323h-64l14 63h64z" />
    <glyph glyph-name="Lslash" unicode="&#x141;" horiz-adv-x="526" 
d="M156 376l-72 -337h373l-9 -39h-414l76 356l-131 -57l8 38l131 57l68 318h42l-64 -298l193 83l-8 -38z" />
    <glyph glyph-name="lslash" unicode="&#x142;" horiz-adv-x="219" 
d="M159 390l98 51l-9 -40l-97 -51l-75 -350h-41l70 326l-103 -54l9 40l102 54l74 346h41z" />
    <glyph glyph-name="Nacute" unicode="&#x143;" horiz-adv-x="671" 
d="M533 899h58l-144 -144h-41zM552 238l101 474h42l-152 -712h-52l-240 509q-43 93 -66 155q-28 -133 -39 -185l-101 -479h-43l152 712h52l241 -509q49 -108 65 -156q6 26 14.5 67.5t15 72t10.5 51.5z" />
    <glyph glyph-name="nacute" unicode="&#x144;" horiz-adv-x="522" 
d="M422 739h53l-118 -144h-36zM332 528q89 0 127.5 -54.5t15.5 -158.5l-68 -315h-41l68 318q36 173 -111 173q-76 0 -135 -53t-80 -151l-61 -287h-41l110 516h39l-22 -101q35 54 87 83.5t112 29.5z" />
    <glyph glyph-name="uni0145" unicode="&#x145;" horiz-adv-x="671" 
d="M552 238l101 474h42l-152 -712h-52l-240 509q-43 93 -66 155q-28 -133 -39 -185l-101 -479h-43l152 712h52l241 -509q49 -108 65 -156q6 26 14.5 67.5t15 72t10.5 51.5zM260 -100h-36l12 57h62l-16 -77q-16 -72 -72 -84l-13 -3l6 25l8 2q32 9 44 59z" />
    <glyph glyph-name="uni0146" unicode="&#x146;" horiz-adv-x="522" 
d="M332 528q89 0 127.5 -54.5t15.5 -158.5l-68 -315h-41l68 318q36 173 -111 173q-76 0 -135 -53t-80 -151l-61 -287h-41l110 516h39l-22 -101q35 54 87 83.5t112 29.5zM196 -100h-36l12 57h62l-16 -77q-16 -72 -72 -84l-13 -3l6 25l8 2q32 9 44 59z" />
    <glyph glyph-name="Ncaron" unicode="&#x147;" horiz-adv-x="671" 
d="M614 899l-148 -144h-62l-88 144h39l82 -120l134 120h43zM552 238l101 474h42l-152 -712h-52l-240 509q-43 93 -66 155q-28 -133 -39 -185l-101 -479h-43l152 712h52l241 -509q49 -108 65 -156q6 26 14.5 67.5t15 72t10.5 51.5z" />
    <glyph glyph-name="ncaron" unicode="&#x148;" horiz-adv-x="522" 
d="M509 739l-148 -144h-62l-88 144h39l82 -120l134 120h43zM332 528q89 0 127.5 -54.5t15.5 -158.5l-68 -315h-41l68 318q36 173 -111 173q-76 0 -135 -53t-80 -151l-61 -287h-41l110 516h39l-22 -101q35 54 87 83.5t112 29.5z" />
    <glyph glyph-name="napostrophe" unicode="&#x149;" horiz-adv-x="633" 
d="M210 676l-20 -92q-10 -48 -29 -70.5t-58 -32.5l6 30q22 9 33 24.5t18 47.5l7 31h-33l13 62h63zM443 528q89 0 127 -54.5t15 -158.5l-67 -315h-41l67 318q38 173 -111 173q-71 0 -128.5 -48t-81.5 -136l-65 -307h-42l110 516h40l-22 -101q34 53 86 83t113 30z" />
    <glyph glyph-name="Eng" unicode="&#x14a;" horiz-adv-x="671" 
d="M653 712h42l-151 -712l-9 -41q-34 -157 -198 -157q-31 0 -65 2l8 36q32 -2 62 -2q60 0 99.5 32t52.5 91l8 37l-248 512q-52 114 -69 155q-16 -83 -39 -191l-100 -474h-43l151 712h52l247 -510q41 -82 63 -141q23 119 36 176z" />
    <glyph glyph-name="eng" unicode="&#x14b;" horiz-adv-x="522" 
d="M324 528q91 0 131.5 -55.5t17.5 -160.5l-86 -405q-11 -55 -42 -80t-88 -25q-28 0 -38 1l8 35h33q39 0 59 17t28 55l86 402q20 89 -12 134t-109 45q-72 0 -126.5 -52t-77.5 -152l-61 -287h-41l110 516h39l-23 -105q70 117 192 117z" />
    <glyph glyph-name="Omacron" unicode="&#x14c;" horiz-adv-x="731" 
d="M607 771h-264l8 35h264zM318 -16q-153 0 -223 106q-71 106 -33 282q33 156 141 256q107 100 253 100q153 0 223 -106t33 -278q-33 -158 -141 -258q-108 -102 -253 -102zM321 23q128 0 222 91q95 92 126 236q33 152 -26 246q-59 93 -192 93q-125 0 -220 -90
q-95 -92 -126 -232q-33 -156 25 -250t191 -94z" />
    <glyph glyph-name="omacron" unicode="&#x14d;" horiz-adv-x="545" 
d="M470 595h-264l8 35h264zM228 -12q-114 0 -164.5 75.5t-23.5 204.5q24 114 102 187q76 73 176 73q114 0 165 -76q50 -78 22 -205q-24 -112 -101 -186q-77 -73 -176 -73zM230 25q82 0 147 63q63 62 86 163q24 111 -15 175.5t-131 64.5q-85 0 -149 -64q-65 -65 -86 -162
q-23 -111 16 -175.5t132 -64.5z" />
    <glyph glyph-name="Obreve" unicode="&#x14e;" horiz-adv-x="731" 
d="M482 767q-64 0 -98 36t-28 94h35q-2 -44 23 -70t72 -26q41 0 73 26.5t45 69.5h36q-15 -59 -57.5 -94.5t-100.5 -35.5zM318 -16q-153 0 -223 106q-71 106 -33 282q33 156 141 256q107 100 253 100q153 0 223 -106t33 -278q-33 -158 -141 -258q-108 -102 -253 -102zM321 23
q128 0 222 91q95 92 126 236q33 152 -26 246q-59 93 -192 93q-125 0 -220 -90q-95 -92 -126 -232q-33 -156 25 -250t191 -94z" />
    <glyph glyph-name="obreve" unicode="&#x14f;" horiz-adv-x="545" 
d="M349 591q-64 0 -98 36t-27 94h35q-3 -45 21.5 -70.5t72.5 -25.5q42 0 73 26t46 70h36q-15 -59 -58 -94.5t-101 -35.5zM228 -12q-114 0 -164.5 75.5t-23.5 204.5q24 114 102 187q76 73 176 73q114 0 165 -76q50 -78 22 -205q-24 -112 -101 -186q-77 -73 -176 -73zM230 25
q82 0 147 63q63 62 86 163q24 111 -15 175.5t-131 64.5q-85 0 -149 -64q-65 -65 -86 -162q-23 -111 16 -175.5t132 -64.5z" />
    <glyph glyph-name="Ohungarumlaut" unicode="&#x150;" horiz-adv-x="731" 
d="M414 771h-36l101 144h52zM553 771h-36l101 144h52zM318 -16q-153 0 -223 106q-71 106 -33 282q33 156 141 256q107 100 253 100q153 0 223 -106t33 -278q-33 -158 -141 -258q-108 -102 -253 -102zM321 23q128 0 222 91q95 92 126 236q33 152 -26 246q-59 93 -192 93
q-125 0 -220 -90q-95 -92 -126 -232q-33 -156 25 -250t191 -94z" />
    <glyph glyph-name="ohungarumlaut" unicode="&#x151;" horiz-adv-x="545" 
d="M286 595h-36l101 144h52zM425 595h-36l101 144h52zM228 -12q-114 0 -164.5 75.5t-23.5 204.5q24 114 102 187q76 73 176 73q114 0 165 -76q50 -78 22 -205q-24 -112 -101 -186q-77 -73 -176 -73zM230 25q82 0 147 63q63 62 86 163q24 111 -15 175.5t-131 64.5
q-85 0 -149 -64q-65 -65 -86 -162q-23 -111 16 -175.5t132 -64.5z" />
    <glyph glyph-name="OE" unicode="&#x152;" horiz-adv-x="1151" 
d="M1215 712l-9 -39h-426l-60 -281h386l-8 -39h-387l-67 -314h431l-8 -39h-474l33 154q-55 -81 -134.5 -125.5t-174.5 -44.5q-152 0 -223 107q-70 105 -32 281q35 156 142 256q106 100 251 100q102 0 167.5 -49t85.5 -139l37 172h470zM321 23q126 0 217 85q92 86 126 223
l8 39q25 145 -33 232q-60 87 -189 87q-126 0 -220 -90q-93 -89 -125 -232q-34 -156 24 -250t192 -94z" />
    <glyph glyph-name="oe" unicode="&#x153;" horiz-adv-x="957" 
d="M741 528q111 0 159 -76q47 -78 19 -192l-3 -15h-412q-17 -103 20.5 -161t124.5 -58q67 0 120 37.5t81 106.5h42q-32 -87 -96.5 -134.5t-151.5 -47.5q-77 0 -124 39.5t-58 111.5q-39 -70 -101 -110.5t-133 -40.5q-114 0 -164.5 75.5t-23.5 204.5q24 114 102 187
q76 73 176 73q80 0 129 -38.5t61 -110.5q39 70 99.5 109.5t133.5 39.5zM230 25q82 0 147 63q63 62 86 163q24 111 -15 175.5t-131 64.5q-85 0 -149 -64q-65 -65 -86 -162q-23 -111 16 -175.5t132 -64.5zM736 490q-81 0 -140 -55t-84 -152h369q16 94 -22 150.5t-123 56.5z
" />
    <glyph glyph-name="Racute" unicode="&#x154;" horiz-adv-x="623" 
d="M516 899h58l-144 -144h-41zM162 712h269q115 0 169 -53t33 -154q-14 -66 -63.5 -108t-125.5 -53q69 -8 94.5 -44t13.5 -108l-19 -109q-9 -51 8 -83h-44q-16 31 -6 86l19 107q12 69 -18 100.5t-113 31.5h-256l-69 -325h-43zM590 506q18 84 -24.5 125.5t-138.5 41.5h-230
l-66 -309h251q83 0 137.5 37t70.5 105z" />
    <glyph glyph-name="racute" unicode="&#x155;" horiz-adv-x="339" 
d="M306 738h48l-82 -144h-33zM342 522q23 0 31 -1l-8 -39q-7 1 -28 1q-84 0 -143.5 -48t-81.5 -131l-65 -304h-41l110 516h39l-24 -112q35 54 89 86t122 32z" />
    <glyph glyph-name="uni0156" unicode="&#x156;" horiz-adv-x="623" 
d="M162 712h269q115 0 169 -53t33 -154q-14 -66 -63.5 -108t-125.5 -53q69 -8 94.5 -44t13.5 -108l-19 -109q-9 -51 8 -83h-44q-16 31 -6 86l19 107q12 69 -18 100.5t-113 31.5h-256l-69 -325h-43zM590 506q18 84 -24.5 125.5t-138.5 41.5h-230l-66 -309h251q83 0 137.5 37
t70.5 105zM262 -100h-36l12 57h62l-16 -77q-16 -72 -72 -84l-13 -3l6 25l8 2q32 9 44 59z" />
    <glyph glyph-name="uni0157" unicode="&#x157;" horiz-adv-x="339" 
d="M342 522q23 0 31 -1l-8 -39q-7 1 -28 1q-84 0 -143.5 -48t-81.5 -131l-65 -304h-41l110 516h39l-24 -112q35 54 89 86t122 32zM11 -100h-36l12 57h62l-16 -77q-16 -72 -72 -84l-13 -3l6 25l8 2q32 9 44 59z" />
    <glyph glyph-name="Rcaron" unicode="&#x158;" horiz-adv-x="623" 
d="M596 899l-148 -144h-62l-88 144h39l82 -120l134 120h43zM162 712h269q115 0 169 -53t33 -154q-14 -66 -63.5 -108t-125.5 -53q69 -8 94.5 -44t13.5 -108l-19 -109q-9 -51 8 -83h-44q-16 31 -6 86l19 107q12 69 -18 100.5t-113 31.5h-256l-69 -325h-43zM590 506
q18 84 -24.5 125.5t-138.5 41.5h-230l-66 -309h251q83 0 137.5 37t70.5 105z" />
    <glyph glyph-name="rcaron" unicode="&#x159;" horiz-adv-x="339" 
d="M414 738l-123 -144h-60l-61 144h37l58 -118l108 118h41zM155 516l-24 -112q35 54 89 86t122 32q23 0 31 -1l-8 -39q-7 1 -28 1q-84 0 -143.5 -48t-81.5 -131l-65 -304h-41l110 516h39z" />
    <glyph glyph-name="Sacute" unicode="&#x15a;" horiz-adv-x="601" 
d="M414 771h-41l127 144h58zM267 -16q-133 0 -197.5 56.5t-52.5 166.5h44q-10 -94 42 -139t169 -45q102 0 159.5 38t70.5 104q15 73 -18.5 113t-133.5 61l-73 16q-195 42 -163 204q16 78 85.5 123.5t178.5 45.5q122 0 178 -55t44 -146h-44q12 77 -34 119.5t-148 42.5
q-91 0 -147.5 -36t-68.5 -97q-14 -68 19 -106.5t128 -58.5l71 -15q108 -24 148 -75.5t22 -141.5q-18 -81 -89 -128t-190 -47z" />
    <glyph glyph-name="sacute" unicode="&#x15b;" horiz-adv-x="468" 
d="M312 595h-36l101 144h53zM198 -12q-106 0 -154 45t-38 125h41q-14 -134 156 -134q142 0 163 97q11 52 -13.5 79.5t-94.5 39.5l-51 8q-160 30 -133 157q12 57 65.5 90t134.5 33q96 0 137.5 -39.5t35.5 -113.5h-40q5 58 -27.5 87.5t-109.5 29.5q-64 0 -105.5 -24.5
t-50.5 -67.5q-10 -50 17 -77t95 -39l52 -9q82 -15 112.5 -52.5t14.5 -108.5q-13 -60 -65.5 -93t-141.5 -33z" />
    <glyph glyph-name="Scircumflex" unicode="&#x15c;" horiz-adv-x="601" 
d="M512 771l-82 120l-134 -120h-43l148 144h62l88 -144h-39zM378 728q122 0 178 -55t44 -146h-44q12 77 -34 119.5t-148 42.5q-91 0 -147.5 -36t-68.5 -97q-14 -68 19 -106.5t128 -58.5l71 -15q108 -24 148 -75.5t22 -141.5q-18 -81 -89 -128t-190 -47q-133 0 -197.5 56.5
t-52.5 166.5h44q-10 -94 42 -139t169 -45q102 0 159.5 38t70.5 104q15 73 -18.5 113t-133.5 61l-73 16q-195 42 -163 204q16 78 85.5 123.5t178.5 45.5z" />
    <glyph glyph-name="scircumflex" unicode="&#x15d;" horiz-adv-x="468" 
d="M398 595l-82 120l-134 -120h-43l148 144h62l88 -144h-39zM447 375h-40q5 58 -27.5 87.5t-109.5 29.5q-64 0 -105.5 -24.5t-50.5 -67.5q-10 -50 17 -77t95 -39l52 -9q82 -15 112.5 -52.5t14.5 -108.5q-13 -60 -65.5 -93t-141.5 -33q-106 0 -154 45t-38 125h41
q-14 -134 156 -134q142 0 163 97q11 52 -13.5 79.5t-94.5 39.5l-51 8q-160 30 -133 157q12 57 65.5 90t134.5 33q96 0 137.5 -39.5t35.5 -113.5z" />
    <glyph glyph-name="Scedilla" unicode="&#x15e;" horiz-adv-x="601" 
d="M378 728q122 0 178 -55t44 -146h-44q12 77 -34 119.5t-148 42.5q-91 0 -147.5 -36t-68.5 -97q-14 -68 19 -106.5t128 -58.5l71 -15q108 -24 148 -75.5t22 -141.5q-16 -78 -83 -124.5t-179 -50.5l-53 -56h6q45 0 69 -23t16 -57q-17 -74 -135 -74q-35 0 -57 5l6 26
q20 -4 55 -4q81 0 92 51q5 25 -12.5 39t-56.5 14q-16 0 -21 -1l4 22l52 58q-124 4 -183.5 61t-48.5 162h44q-10 -94 42 -139t169 -45q102 0 159.5 38t70.5 104q15 73 -18.5 113t-133.5 61l-73 16q-195 42 -163 204q16 78 85.5 123.5t178.5 45.5z" />
    <glyph glyph-name="scedilla" unicode="&#x15f;" horiz-adv-x="468" 
d="M447 375h-40q5 58 -27.5 87.5t-109.5 29.5q-64 0 -105.5 -24.5t-50.5 -67.5q-10 -50 17 -77t95 -39l52 -9q82 -15 112.5 -52.5t14.5 -108.5q-12 -56 -60.5 -89t-128.5 -37l-54 -56h6q45 0 69 -23t16 -57q-17 -74 -135 -74q-35 0 -57 5l6 26q20 -4 55 -4q82 0 92 51
q5 25 -12.5 39t-56.5 14q-16 0 -21 -1l4 22l52 58q-97 4 -140 48.5t-34 121.5h41q-14 -134 156 -134q142 0 163 97q11 52 -13.5 79.5t-94.5 39.5l-51 8q-160 30 -133 157q12 57 65.5 90t134.5 33q96 0 137.5 -39.5t35.5 -113.5z" />
    <glyph glyph-name="Scaron" unicode="&#x160;" horiz-adv-x="601" 
d="M581 915l-148 -144h-62l-88 144h39l82 -120l134 120h43zM378 728q122 0 178 -55t44 -146h-44q12 77 -34 119.5t-148 42.5q-91 0 -147.5 -36t-68.5 -97q-14 -68 19 -106.5t128 -58.5l71 -15q108 -24 148 -75.5t22 -141.5q-18 -81 -89 -128t-190 -47q-133 0 -197.5 56.5
t-52.5 166.5h44q-10 -94 42 -139t169 -45q102 0 159.5 38t70.5 104q15 73 -18.5 113t-133.5 61l-73 16q-195 42 -163 204q16 78 85.5 123.5t178.5 45.5z" />
    <glyph glyph-name="scaron" unicode="&#x161;" horiz-adv-x="468" 
d="M464 739l-148 -144h-62l-88 144h39l82 -120l134 120h43zM274 528q96 0 137.5 -39.5t35.5 -113.5h-40q5 58 -27.5 87.5t-109.5 29.5q-64 0 -105.5 -24.5t-50.5 -67.5q-10 -50 17 -77t95 -39l52 -9q82 -15 112.5 -52.5t14.5 -108.5q-13 -60 -65.5 -93t-141.5 -33
q-106 0 -154 45t-38 125h41q-14 -134 156 -134q142 0 163 97q11 52 -13.5 79.5t-94.5 39.5l-51 8q-160 30 -133 157q12 57 65.5 90t134.5 33z" />
    <glyph glyph-name="uni0162" unicode="&#x162;" horiz-adv-x="608" 
d="M415 673l-143 -673h-4l-55 -58h6q45 0 69 -23t16 -57q-17 -74 -135 -74q-35 0 -57 5l6 26q20 -4 55 -4q81 0 92 51q5 25 -12.5 39t-56.5 14q-16 0 -21 -1l4 22l53 60h-4l143 673h-259l8 39h563l-9 -39h-259z" />
    <glyph glyph-name="uni0163" unicode="&#x163;" horiz-adv-x="293" 
d="M319 480h-128l-76 -359q-18 -87 65 -87q26 0 44 2l-7 -35q-25 -3 -45 -3h-1l-53 -56h6q45 0 69 -23t16 -57q-17 -74 -135 -74q-35 0 -57 5l6 26q20 -4 55 -4q82 0 92 51q5 25 -12.5 39t-56.5 14q-16 0 -21 -1l4 22l54 61q-86 20 -65 121l76 358h-89l8 36h89l31 146h41
l-31 -146h129z" />
    <glyph glyph-name="Tcaron" unicode="&#x164;" horiz-adv-x="608" 
d="M592 899l-148 -144h-62l-88 144h39l82 -120l134 120h43zM120 712h563l-9 -39h-259l-143 -673h-44l143 673h-259z" />
    <glyph glyph-name="tcaron" unicode="&#x165;" horiz-adv-x="293" 
d="M352 712h44l-95 -166h-34zM188 662h41l-31 -146h129l-8 -36h-128l-76 -359q-18 -87 65 -87q26 0 44 2l-7 -35q-25 -3 -45 -3q-60 0 -86 32t-13 92l76 358h-89l8 36h89z" />
    <glyph glyph-name="Tbar" unicode="&#x166;" horiz-adv-x="608" 
d="M683 712l-9 -39h-259l-61 -287h153l-8 -34h-152l-75 -352h-44l75 352h-148l10 34h145l61 287h-259l8 39h563z" />
    <glyph glyph-name="tbar" unicode="&#x167;" horiz-adv-x="301" 
d="M327 516l-8 -36h-128l-42 -197h136l-6 -34h-137l-27 -128q-18 -87 65 -87q26 0 44 2l-7 -35q-25 -3 -45 -3q-60 0 -86 32t-13 92l27 127h-79l6 34h80l42 197h-89l8 36h89l31 146h41l-31 -146h129z" />
    <glyph glyph-name="Utilde" unicode="&#x168;" horiz-adv-x="641" 
d="M300 755h-35q24 109 98 109q35 0 76 -38q37 -33 65 -33q41 0 58 71h35q-25 -109 -97 -109q-32 0 -78 39q-38 32 -62 32q-43 0 -60 -71zM283 -16q-135 0 -195 78t-28 227l92 423h42l-93 -431q-27 -129 22.5 -193.5t163.5 -64.5q208 0 257 232l96 457h43l-98 -464
q-55 -264 -302 -264z" />
    <glyph glyph-name="utilde" unicode="&#x169;" horiz-adv-x="522" 
d="M267 665q-43 0 -60 -71h-35q24 109 98 109q35 0 76 -38q38 -33 65 -33q41 0 58 71h35q-25 -109 -97 -109q-31 0 -78 39q-38 32 -62 32zM414 229l61 287h41l-110 -516h-39l22 101q-35 -54 -87 -83.5t-112 -29.5q-89 0 -127.5 54.5t-15.5 158.5l67 315h42l-68 -318
q-36 -173 111 -173q76 0 135 53t80 151z" />
    <glyph glyph-name="Umacron" unicode="&#x16a;" horiz-adv-x="641" 
d="M551 755h-264l8 35h264zM283 -16q-135 0 -195 78t-28 227l92 423h42l-93 -431q-27 -129 22.5 -193.5t163.5 -64.5q208 0 257 232l96 457h43l-98 -464q-55 -264 -302 -264z" />
    <glyph glyph-name="umacron" unicode="&#x16b;" horiz-adv-x="522" 
d="M202 629h264l-8 -35h-264zM414 229l61 287h41l-110 -516h-39l22 101q-35 -54 -87 -83.5t-112 -29.5q-89 0 -127.5 54.5t-15.5 158.5l67 315h42l-68 -318q-36 -173 111 -173q76 0 135 53t80 151z" />
    <glyph glyph-name="Ubreve" unicode="&#x16c;" horiz-adv-x="641" 
d="M425 751q-64 0 -98 36t-28 94h35q-2 -44 23 -70t72 -26q41 0 73 26.5t45 69.5h36q-15 -59 -57.5 -94.5t-100.5 -35.5zM283 -16q-135 0 -195 78t-28 227l92 423h42l-93 -431q-27 -129 22.5 -193.5t163.5 -64.5q208 0 257 232l96 457h43l-98 -464q-55 -264 -302 -264z" />
    <glyph glyph-name="ubreve" unicode="&#x16d;" horiz-adv-x="522" 
d="M338 590q-64 0 -98 36t-27 94h35q-3 -45 21.5 -70.5t72.5 -25.5q42 0 73 26t46 70h36q-15 -59 -58 -94.5t-101 -35.5zM414 229l61 287h41l-110 -516h-39l22 101q-35 -54 -87 -83.5t-112 -29.5q-89 0 -127.5 54.5t-15.5 158.5l67 315h42l-68 -318q-36 -173 111 -173
q76 0 135 53t80 151z" />
    <glyph glyph-name="Uring" unicode="&#x16e;" horiz-adv-x="641" 
d="M411 681q-46 0 -78 31.5t-32 77.5t32 77.5t78 31.5q47 0 79 -31.5t32 -77.5t-32 -77.5t-79 -31.5zM357 736q24 -23 54 -23t55 22.5t23 54.5q0 33 -22.5 55t-55.5 22q-32 0 -54.5 -22t-22.5 -55q0 -31 23 -54zM283 -16q-135 0 -195 78t-28 227l92 423h42l-93 -431
q-27 -129 22.5 -193.5t163.5 -64.5q208 0 257 232l96 457h43l-98 -464q-55 -264 -302 -264z" />
    <glyph glyph-name="uring" unicode="&#x16f;" horiz-adv-x="522" 
d="M349 592q-47 0 -79 31.5t-32 77.5t32 77t79 31q46 0 78.5 -31.5t32.5 -76.5q0 -46 -32.5 -77.5t-78.5 -31.5zM404 756q-33 37 -84.5 15.5t-48.5 -70.5q0 -33 23 -55.5t55 -22.5t55 22.5t23 55.5q0 32 -23 55zM414 229l61 287h41l-110 -516h-39l22 101q-35 -54 -87 -83.5
t-112 -29.5q-89 0 -127.5 54.5t-15.5 158.5l67 315h42l-68 -318q-36 -173 111 -173q76 0 135 53t80 151z" />
    <glyph glyph-name="Uhungarumlaut" unicode="&#x170;" horiz-adv-x="641" 
d="M358 755h-36l101 144h52zM497 755h-36l101 144h52zM283 -16q-135 0 -195 78t-28 227l92 423h42l-93 -431q-27 -129 22.5 -193.5t163.5 -64.5q208 0 257 232l96 457h43l-98 -464q-55 -264 -302 -264z" />
    <glyph glyph-name="uhungarumlaut" unicode="&#x171;" horiz-adv-x="522" 
d="M339 738h52l-117 -144h-36zM530 738l-117 -144h-36l101 144h52zM414 229l61 287h41l-110 -516h-39l22 101q-35 -54 -87 -83.5t-112 -29.5q-89 0 -127.5 54.5t-15.5 158.5l67 315h42l-68 -318q-36 -173 111 -173q76 0 135 53t80 151z" />
    <glyph glyph-name="Uogonek" unicode="&#x172;" horiz-adv-x="641" 
d="M544 255l96 457h43l-98 -464q-42 -202 -194 -249q-124 -60 -138 -119q-6 -25 8.5 -39t42.5 -14q30 0 60 11l-8 -34q-30 -12 -63 -12q-41 0 -64.5 23t-15.5 59q12 63 103 111q-7 -1 -33 -1q-135 0 -195 78t-28 227l92 423h42l-93 -431q-27 -129 22.5 -193.5t163.5 -64.5
q208 0 257 232z" />
    <glyph glyph-name="uogonek" unicode="&#x173;" horiz-adv-x="522" 
d="M516 516l-110 -516q-125 -61 -139 -120q-6 -25 8.5 -39t42.5 -14q27 0 60 11l-8 -34q-30 -12 -63 -12q-41 0 -64.5 23t-16.5 59q17 76 139 128h2l22 99q-35 -54 -87 -83.5t-112 -29.5q-89 0 -127.5 54.5t-15.5 158.5l67 315h42l-68 -318q-36 -173 111 -173q76 0 135 53
t80 151l61 287h41z" />
    <glyph glyph-name="Wcircumflex" unicode="&#x174;" horiz-adv-x="964" 
d="M698 755l-82 120l-134 -120h-43l148 144h62l88 -144h-39zM748 231l255 481h45l-374 -712h-50l-46 505q-9 126 -10 156l-76 -155l-262 -506h-50l-72 712h43l50 -481q14 -177 14 -182q34 73 90 184l248 479h49l43 -479q10 -120 12 -185q18 38 91 183z" />
    <glyph glyph-name="wcircumflex" unicode="&#x175;" horiz-adv-x="795" 
d="M575 594l-82 120l-134 -120h-43l148 144h62l88 -144h-39zM604 197l184 319h46l-298 -516h-45l-40 348q-11 95 -12 122q-60 -118 -62 -122l-187 -348h-46l-78 516h43l47 -319q3 -19 18 -152q32 64 80 152l172 319h45l36 -319q4 -27 11 -105q0 -11 4 -49q32 65 82 154z" />
    <glyph glyph-name="Ycircumflex" unicode="&#x176;" horiz-adv-x="624" 
d="M534 755l-82 120l-134 -120h-43l148 144h62l88 -144h-39zM485 523l171 189h52l-364 -404l-66 -308h-43l66 308l-193 404h47l90 -190q29 -60 81 -180q24 27 48.5 54.5t44 51t26.5 30.5q5 5 11 12t14.5 17t14.5 16z" />
    <glyph glyph-name="ycircumflex" unicode="&#x177;" horiz-adv-x="476" 
d="M412 594l-82 120l-134 -120h-43l148 144h62l88 -144h-39zM312 242l160 274h46l-344 -584q-41 -71 -78 -100t-93 -29q-26 0 -44 2l7 35q9 -1 39 -1q41 0 69.5 24t61.5 78q2 3 27 46l-94 529h44l48 -273l34 -208q61 109 80 142q6 11 14 25t13.5 23.5t9.5 16.5z" />
    <glyph glyph-name="Ydieresis" unicode="&#x178;" horiz-adv-x="624" 
d="M327 846h44l-20 -91h-44zM514 846h43l-20 -91h-43zM485 523l171 189h52l-364 -404l-66 -308h-43l66 308l-193 404h47l90 -190q29 -60 81 -180q24 27 48.5 54.5t44 51t26.5 30.5q5 5 11 12t14.5 17t14.5 16z" />
    <glyph glyph-name="Zacute" unicode="&#x179;" horiz-adv-x="582" 
d="M497 899h58l-144 -144h-41zM645 712l-9 -40l-445 -468q-106 -112 -161 -167q92 2 207 2h270l-9 -39h-526l8 40l445 468q67 72 161 167q-92 -2 -207 -2h-245l9 39h502z" />
    <glyph glyph-name="zacute" unicode="&#x17a;" horiz-adv-x="472" 
d="M396 738h53l-118 -144h-36zM473 483l-350 -362q-40 -43 -85 -86q24 1 107 1h249l-7 -36h-407l7 33l352 364q19 20 84 85q-50 -2 -107 -2h-223l8 36h380z" />
    <glyph glyph-name="Zdotaccent" unicode="&#x17b;" horiz-adv-x="582" 
d="M396 846h43l-19 -91h-43zM645 712l-9 -40l-445 -468q-106 -112 -161 -167q92 2 207 2h270l-9 -39h-526l8 40l445 468q67 72 161 167q-92 -2 -207 -2h-245l9 39h502z" />
    <glyph glyph-name="zdotaccent" unicode="&#x17c;" horiz-adv-x="472" 
d="M305 685h43l-19 -91h-43zM473 483l-350 -362q-40 -43 -85 -86q24 1 107 1h249l-7 -36h-407l7 33l352 364q19 20 84 85q-50 -2 -107 -2h-223l8 36h380z" />
    <glyph glyph-name="Zcaron" unicode="&#x17d;" horiz-adv-x="582" 
d="M578 899l-148 -144h-62l-88 144h39l82 -120l134 120h43zM645 712l-9 -40l-445 -468q-106 -112 -161 -167q92 2 207 2h270l-9 -39h-526l8 40l445 468q67 72 161 167q-92 -2 -207 -2h-245l9 39h502z" />
    <glyph glyph-name="zcaron" unicode="&#x17e;" horiz-adv-x="472" 
d="M483 738l-148 -144h-62l-88 144h39l82 -120l134 120h43zM316 480h-223l8 36h380l-8 -33l-350 -362q-40 -43 -85 -86q24 1 107 1h249l-7 -36h-407l7 33l352 364q19 20 84 85q-50 -2 -107 -2z" />
    <glyph glyph-name="uni018F" unicode="&#x18f;" horiz-adv-x="702" 
d="M438 728q151 0 217 -105q66 -106 28 -283q-33 -157 -135 -256q-101 -100 -245 -100q-151 0 -216 108q-64 106 -25 274h581q29 151 -26.5 237t-183.5 86q-100 0 -176.5 -57t-116.5 -160h-43q44 121 133 188.5t208 67.5zM308 23q122 0 209 84q86 83 119 222h-538
q-26 -136 29 -220q56 -86 181 -86z" />
    <glyph glyph-name="florin" unicode="&#x192;" horiz-adv-x="444" 
d="M480 720q20 0 40 -3l-8 -36q-34 2 -36 2q-45 0 -69.5 -18.5t-41.5 -66.5l-76 -213h122l-8 -36h-127l-155 -433q-25 -68 -58.5 -95.5t-98.5 -27.5q-7 0 -39 2l7 37q20 -3 37 -3q44 0 69 20t41 66l155 434h-118l7 36h124l76 212q25 68 58.5 95.5t98.5 27.5z" />
    <glyph glyph-name="uni01F4" unicode="&#x1f4;" horiz-adv-x="729" 
d="M562 915h58l-144 -144h-41zM712 478h-44q3 95 -58 153t-166 58q-124 0 -216 -89t-122 -227q-34 -160 26 -255t193 -95q123 0 209 82q87 83 114 211h-254l8 39h294l-76 -355h-37l26 152q-101 -168 -288 -168q-153 0 -225 108q-72 107 -33 287q32 152 137 251
q104 98 249 98q125 0 196 -69q71 -71 67 -181z" />
    <glyph glyph-name="uni01F5" unicode="&#x1f5;" horiz-adv-x="549" 
d="M426 739h53l-118 -144h-36zM482 404l24 112h39l-106 -496q-25 -118 -85 -173t-169 -55q-92 0 -138.5 42t-41.5 115h41q-3 -59 32.5 -90.5t110.5 -31.5q90 0 139 45.5t70 147.5l16 75q-77 -107 -196 -107q-104 0 -154 80t-23 206q26 119 98 186.5t174 67.5
q64 0 107.5 -32.5t61.5 -91.5zM225 25q81 0 141 57.5t85 156.5l7 35q17 101 -22.5 159t-123.5 58q-87 0 -146.5 -59.5t-81.5 -163.5q-23 -111 15 -177t126 -66z" />
    <glyph glyph-name="Aringacute" unicode="&#x1fa;" horiz-adv-x="654" 
d="M530 790q0 -38 -23.5 -67t-59.5 -38l135 -685h-43l-44 220h-358l-137 -220h-47l426 688q-31 12 -50.5 39.5t-19.5 62.5q0 44 30 75.5t74 33.5l113 128h57l-132 -133q35 -10 57 -38.5t22 -65.5zM342 790q0 -32 22.5 -54.5t54.5 -22.5t55 22.5t23 54.5q0 33 -22.5 55
t-55.5 22q-32 0 -54.5 -22t-22.5 -55zM160 258h328l-40 199q-1 4 -2 11.5t-3.5 21t-4.5 23.5q-3 14 -7.5 41.5t-6.5 40.5l-8 40t-6 32q-56 -95 -127 -211z" />
    <glyph glyph-name="aringacute" unicode="&#x1fb;" horiz-adv-x="504" 
d="M465 1023h53l-118 -144h-36zM341 592q-47 0 -79 31.5t-32 77.5t32 77t79 31q46 0 78.5 -31.5t32.5 -76.5q0 -46 -32.5 -77.5t-78.5 -31.5zM396 756q-33 37 -84.5 15.5t-48.5 -70.5q0 -33 23 -55.5t55 -22.5t55 22.5t23 55.5q0 32 -23 55zM304 528q95 0 136 -43t25 -120
l-57 -271q-14 -62 32 -62q4 0 22 2l-7 -34q-22 -2 -31 -2q-36 0 -51.5 23t-5.5 65l2 10q-71 -107 -207 -107q-86 0 -126 44t-24 119q26 114 206 135l86 10q62 7 88.5 23.5t35.5 52.5q12 56 -20.5 87.5t-108.5 31.5q-79 0 -121 -30t-59 -98h-40q20 85 73.5 124.5t151.5 39.5z
M169 24q79 0 138 42.5t82 123.5l24 112q-30 -25 -107 -36l-86 -11q-147 -19 -167 -111q-12 -56 17.5 -88t98.5 -32z" />
    <glyph glyph-name="AEacute" unicode="&#x1fc;" horiz-adv-x="1009" 
d="M879 899h58l-144 -144h-41zM1073 712l-9 -39h-396l-60 -281h357l-8 -39h-357l-67 -314h401l-9 -39h-443l47 220h-355l-165 -220h-51l537 712h578zM514 673l-311 -415h334l88 415h-111z" />
    <glyph glyph-name="aeacute" unicode="&#x1fd;" horiz-adv-x="864" 
d="M579 738h53l-118 -144h-36zM656 528q106 0 152 -76t18 -192q-1 -5 -4 -15h-391q-16 -103 20 -161t117 -58q65 0 115 37.5t77 106.5h40q-31 -87 -91.5 -134.5t-143.5 -47.5q-68 0 -112.5 34.5t-58.5 98.5q-80 -132 -230 -132q-88 0 -128.5 43t-23.5 121q26 112 208 134
l86 10q61 8 87.5 27.5t35.5 60.5q12 51 -20 79t-109 28q-80 0 -123 -30.5t-58 -97.5h-40q35 164 226 164q71 0 114 -25t51 -68q75 93 186 93zM652 490q-77 0 -133.5 -55t-79.5 -152h351q16 92 -21 149.5t-117 57.5zM169 23q76 0 135 42.5t83 121.5q0 39 9 84l5 23
q-30 -21 -96 -30l-86 -11q-146 -18 -166 -107q-13 -58 17 -90.5t99 -32.5z" />
    <glyph glyph-name="Oslashacute" unicode="&#x1fe;" horiz-adv-x="731" 
d="M574 915h58l-144 -144h-41zM707 743l28 -24l-70 -79q88 -106 47 -296q-33 -158 -141 -258q-108 -102 -253 -102q-115 0 -183 61l-68 -77l-28 24l70 79q-88 106 -47 301q33 156 141 256q107 100 253 100q113 0 183 -61zM105 367q-36 -169 34 -263l472 531q-60 54 -160 54
q-125 0 -220 -90q-95 -92 -126 -232zM669 350q36 163 -34 257l-471 -530q58 -54 157 -54q128 0 222 91q95 92 126 236z" />
    <glyph glyph-name="oslashacute" unicode="&#x1ff;" horiz-adv-x="545" 
d="M427 739h53l-118 -144h-36zM501 538l26 -23l-49 -57q55 -76 27 -211q-24 -112 -101 -186q-77 -73 -176 -73q-78 0 -127 36l-40 -46l-27 23l41 47q-65 77 -35 220q24 114 102 187q76 73 176 73q83 0 136 -44zM82 265q-26 -119 21 -184l324 372q-41 38 -110 38
q-85 0 -149 -64q-65 -65 -86 -162zM463 251q24 107 -14 174l-321 -370q40 -30 102 -30q82 0 147 63q63 62 86 163z" />
    <glyph glyph-name="uni0218" unicode="&#x218;" horiz-adv-x="601" 
d="M378 728q122 0 178 -55t44 -146h-44q12 77 -34 119.5t-148 42.5q-91 0 -147.5 -36t-68.5 -97q-14 -68 19 -106.5t128 -58.5l71 -15q108 -24 148 -75.5t22 -141.5q-18 -81 -89 -128t-190 -47q-133 0 -197.5 56.5t-52.5 166.5h44q-10 -94 42 -139t169 -45q102 0 159.5 38
t70.5 104q15 73 -18.5 113t-133.5 61l-73 16q-195 42 -163 204q16 78 85.5 123.5t178.5 45.5zM255 -114h-36l12 57h62l-16 -77q-16 -72 -72 -84l-13 -3l6 25l8 2q32 9 44 59z" />
    <glyph glyph-name="uni0219" unicode="&#x219;" horiz-adv-x="468" 
d="M447 375h-40q5 58 -27.5 87.5t-109.5 29.5q-64 0 -105.5 -24.5t-50.5 -67.5q-10 -50 17 -77t95 -39l52 -9q82 -15 112.5 -52.5t14.5 -108.5q-13 -60 -65.5 -93t-141.5 -33q-106 0 -154 45t-38 125h41q-14 -134 156 -134q142 0 163 97q11 52 -13.5 79.5t-94.5 39.5l-51 8
q-160 30 -133 157q12 57 65.5 90t134.5 33q96 0 137.5 -39.5t35.5 -113.5zM184 -110h-36l12 57h62l-16 -77q-16 -72 -72 -84l-13 -3l6 25l8 2q32 9 44 59z" />
    <glyph glyph-name="uni021A" unicode="&#x21a;" horiz-adv-x="608" 
d="M120 712h563l-9 -39h-259l-143 -673h-44l143 673h-259zM237 -100h-36l12 57h62l-16 -77q-16 -72 -72 -84l-13 -3l6 25l8 2q32 9 44 59z" />
    <glyph glyph-name="uni021B" unicode="&#x21b;" horiz-adv-x="293" 
d="M319 480h-128l-76 -359q-18 -87 65 -87q26 0 44 2l-7 -35q-25 -3 -45 -3q-60 0 -86 32t-13 92l76 358h-89l8 36h89l31 146h41l-31 -146h129zM140 -100h-36l12 57h62l-16 -77q-16 -72 -72 -84l-13 -3l6 25l8 2q32 9 44 59z" />
    <glyph glyph-name="uni0237" unicode="&#x237;" horiz-adv-x="164" 
d="M-95 -198q-38 0 -47 1l8 35h40q64 0 81 78l128 600h41l-129 -604q-23 -110 -122 -110z" />
    <glyph glyph-name="uni0259" unicode="&#x259;" horiz-adv-x="531" 
d="M313 528q109 0 157 -76.5t20 -206.5q-24 -113 -98 -185t-176 -72q-111 0 -157 76q-47 76 -21 192l3 15h412q17 103 -20.5 161t-124.5 58q-67 0 -120 -37.5t-81 -106.5h-42q32 87 96.5 134.5t151.5 47.5zM221 26q81 0 140 55t84 152h-369q-16 -93 22 -150t123 -57z" />
    <glyph glyph-name="h.sups" unicode="&#x2b0;" horiz-adv-x="443" 
d="M335 721q75 0 109 -46.5t16 -135.5l-58 -277h-41l60 280q30 143 -99 143q-59 0 -106.5 -37.5t-68.5 -107.5l-58 -278h-41l130 619h40l-54 -260q63 100 171 100z" />
    <glyph glyph-name="r.sups" unicode="&#x2b3;" horiz-adv-x="293" 
d="M345 717h32l-8 -39h-27q-76 0 -125.5 -45t-67.5 -125l-1 -2v-2l-51 -242h-40l95 450h39l-20 -96q62 101 174 101z" />
    <glyph glyph-name="circumflex" unicode="&#x2c6;" horiz-adv-x="400" 
d="M332 738l88 -144h-39l-82 120l-134 -120h-43l148 144h62z" />
    <glyph glyph-name="caron" unicode="&#x2c7;" horiz-adv-x="400" 
d="M273 618l134 120h43l-148 -144h-62l-88 144h39z" />
    <glyph glyph-name="uni02C9" unicode="&#x2c9;" horiz-adv-x="400" 
d="M404 594h-263l8 35h264z" />
    <glyph glyph-name="breve" unicode="&#x2d8;" horiz-adv-x="400" 
d="M281 590q-63 0 -97 36t-28 94h35q-3 -45 21.5 -70.5t72.5 -25.5q42 0 73 26t46 70h36q-15 -60 -58 -95t-101 -35z" />
    <glyph glyph-name="dotaccent" unicode="&#x2d9;" horiz-adv-x="400" 
d="M294 594h-43l18 91h44z" />
    <glyph glyph-name="ring" unicode="&#x2da;" horiz-adv-x="400" 
d="M294 592q-46 0 -78.5 31.5t-32.5 77.5q0 45 32.5 76.5t78.5 31.5q47 0 79 -31t32 -77t-32 -77.5t-79 -31.5zM240 646q24 -23 54 -23.5t55 22.5t23 56q0 32 -23 54.5t-55 22.5t-54.5 -22.5t-22.5 -54.5t23 -55z" />
    <glyph glyph-name="ogonek" unicode="&#x2db;" horiz-adv-x="400" 
d="M109 -208q-41 0 -64.5 23t-16.5 59q17 76 139 128l41 -2q-125 -61 -139 -120q-6 -25 8.5 -39t42.5 -14q27 0 60 11l-8 -34q-30 -12 -63 -12z" />
    <glyph glyph-name="tilde" unicode="&#x2dc;" horiz-adv-x="400" 
d="M152 594h-35q24 109 98 109q33 0 76 -38q37 -33 64 -33q42 0 59 71h34q-22 -109 -96 -109q-33 0 -78 39q-38 32 -62 32q-43 0 -60 -71z" />
    <glyph glyph-name="hungarumlaut" unicode="&#x2dd;" horiz-adv-x="400" 
d="M199 594h-36l101 144h53zM339 594h-36l100 144h53z" />
    <glyph glyph-name="s.sups" unicode="&#x2e2;" horiz-adv-x="415" 
d="M230 252q-92 0 -136 39.5t-34 107.5h39q-7 -57 26.5 -85.5t107.5 -28.5q123 0 139 84q9 45 -12.5 68t-79.5 32l-50 8q-70 11 -97.5 44t-14.5 93q10 50 56.5 78.5t122.5 28.5q84 0 121.5 -35t29.5 -98h-38q11 100 -118 100q-117 0 -135 -79q-10 -45 12.5 -67t81.5 -31
l49 -8q68 -12 96 -44t16 -93q-26 -114 -182 -114z" />
    <glyph glyph-name="gravecomb" unicode="&#x300;" 
d="M149 594h-33l-61 144h53z" />
    <glyph glyph-name="acutecomb" unicode="&#x301;" 
d="M30 594h-36l101 144h53z" />
    <glyph glyph-name="uni0302" unicode="&#x302;" 
d="M132 738l88 -144h-39l-82 120l-134 -120h-43l148 144h62z" />
    <glyph glyph-name="tildecomb" unicode="&#x303;" 
d="M-60 594h-35q24 109 98 109q35 0 76 -38q37 -33 65 -33q41 0 58 71h35q-25 -109 -97 -109q-32 0 -78 39q-38 32 -62 32q-43 0 -60 -71z" />
    <glyph glyph-name="uni0304" unicode="&#x304;" 
d="M199 594h-264l8 35h264z" />
    <glyph glyph-name="uni0306" unicode="&#x306;" 
d="M81 590q-64 0 -98 36t-27 94h35q-3 -45 21.5 -70.5t72.5 -25.5q42 0 73 26t46 70h36q-15 -59 -58 -94.5t-101 -35.5z" />
    <glyph glyph-name="uni0307" unicode="&#x307;" 
d="M84 594h-43l19 91h43z" />
    <glyph glyph-name="uni0308" unicode="&#x308;" 
d="M-11 594h-43l20 91h43zM176 594h-43l20 91h43z" />
    <glyph glyph-name="uni030A" unicode="&#x30a;" 
d="M97 592q-47 0 -79 31.5t-32 77.5t32 77t79 31q46 0 78.5 -31.5t32.5 -76.5q0 -46 -32.5 -77.5t-78.5 -31.5zM42 646q25 -23 55 -23.5t55 22.5t23 56q0 32 -23 54.5t-55 22.5t-55 -22.5t-23 -54.5t23 -55z" />
    <glyph glyph-name="uni030B" unicode="&#x30b;" 
d="M-39 594h-36l101 144h52zM100 594h-36l101 144h52z" />
    <glyph glyph-name="uni030C" unicode="&#x30c;" 
d="M74 618l134 120h43l-148 -144h-62l-88 144h39z" />
    <glyph glyph-name="uni0312" unicode="&#x312;" 
d="M110 755l12 3l-6 -25l-8 -2q-32 -9 -44 -59l-4 -21h35l-12 -57h-62l17 77q13 72 72 84z" />
    <glyph glyph-name="uni0313" unicode="&#x313;" 
d="M47 697l12 57h62l-17 -77q-13 -72 -72 -84l-12 -3l6 25l8 2q32 9 44 59l5 21h-36z" />
    <glyph glyph-name="dotbelowcomb" unicode="&#x323;" 
d="M-78 -169h-43l19 91h43z" />
    <glyph glyph-name="uni0324" unicode="&#x324;" 
d="M-173 -169h-43l20 91h43zM14 -169h-43l20 91h43z" />
    <glyph glyph-name="uni0325" unicode="&#x325;" 
d="M-93 -295q-46 0 -78 31.5t-32 77.5t32 77t78 31q47 0 79.5 -31t32.5 -77t-32.5 -77.5t-79.5 -31.5zM-148 -242q25 -22 55 -22.5t55 22.5t23 56q0 32 -23 54.5t-55 22.5t-54.5 -22.5t-22.5 -54.5q0 -34 22 -56z" />
    <glyph glyph-name="uni0326" unicode="&#x326;" 
d="M-122 -100l12 57h62l-16 -77q-16 -72 -72 -84l-13 -3l6 25l8 2q32 9 44 59l4 21h-35z" />
    <glyph glyph-name="uni0327" unicode="&#x327;" 
d="M-95 -58h6q45 0 69 -23t16 -57q-17 -74 -135 -74q-35 0 -57 5l6 26q20 -4 55 -4q81 0 92 51q5 25 -12.5 39t-56.5 14q-16 0 -21 -1l4 22l56 63l35 -1z" />
    <glyph glyph-name="uni0328" unicode="&#x328;" 
d="M-92 -208q-41 0 -64.5 23t-15.5 59q14 74 138 128l42 -2q-127 -62 -140 -120q-6 -25 8.5 -39t42.5 -14q30 0 60 11l-8 -34q-30 -12 -63 -12z" />
    <glyph glyph-name="uni032E" unicode="&#x32e;" 
d="M-88 -208q-64 0 -98 36t-27 94h35q-2 -43 22.5 -69.5t71.5 -26.5q42 0 73.5 25.5t45.5 70.5h36q-15 -59 -58 -94.5t-101 -35.5z" />
    <glyph glyph-name="uni0331" unicode="&#x331;" 
d="M49 -113h-264l8 35h264z" />
    <glyph glyph-name="uni0335" unicode="&#x335;" 
d="M130 260h-265l7 34h265z" />
    <glyph glyph-name="uni0337" unicode="&#x337;" 
d="M192 514l-467 -536l-27 22l467 537z" />
    <glyph glyph-name="uni0338" unicode="&#x338;" 
d="M290 710l-668 -751l-28 24l668 751z" />
    <glyph glyph-name="uni0394" unicode="&#x394;" horiz-adv-x="653" 
d="M251 712h48l275 -673v-39h-597v39zM275 667q-66 -170 -83 -211l-170 -417h507l-171 418q-28 65 -83 210z" />
    <glyph glyph-name="uni03A9" unicode="&#x3a9;" horiz-adv-x="740" 
d="M326 0h-282v39h212v2q-96 55 -150 142.5t-54 198.5q0 160 90 251q89 92 234 92t234 -92q88 -91 88 -251q0 -112 -53 -199.5t-148 -141.5v-2h212v-39h-281v35q227 116 227 347q0 144 -75 224q-77 80 -204 80t-204 -80q-77 -82 -77 -224q0 -232 231 -347v-35z" />
    <glyph glyph-name="uni03BC" unicode="&#x3bc;" horiz-adv-x="631" 
d="M476 228v288h41v-516h-39v111q-22 -57 -69 -90t-110 -33q-102 0 -142 76v-260h-41v712h41v-331q0 -159 149 -159q70 0 120 51q48 48 50 151z" />
    <glyph glyph-name="pi" unicode="&#x3c0;" horiz-adv-x="630" 
d="M564 516v-36h-90v-391q0 -30 10.5 -42.5t37.5 -12.5q3 0 15.5 0.5t16.5 0.5v-35q-34 -2 -37 -2q-43 0 -63.5 20.5t-20.5 67.5v394h-235v-480h-41v480h-89v36h496z" />
    <glyph glyph-name="d.sups" unicode="&#x1d48;" horiz-adv-x="491" 
d="M471 604l59 277h40l-131 -619h-39l20 97q-65 -107 -178 -107q-93 0 -138 68q-46 68 -21 183q21 99 83.5 158.5t150.5 59.5q60 0 100.5 -31t53.5 -86zM138 344q34 -57 109 -57t127 54q54 55 73 145q19 89 -17.5 144.5t-112.5 55.5q-73 0 -124.5 -51.5t-69.5 -137.5
q-19 -96 15 -153z" />
    <glyph glyph-name="t.sups" unicode="&#x1d57;" horiz-adv-x="278" 
d="M343 678h-111l-65 -304q-17 -78 57 -78q30 0 38 1l-7 -34q-42 -2 -44 -2q-53 0 -74 30t-10 85l65 302h-78l7 34h78l27 127h40l-27 -127h111z" />
    <glyph glyph-name="Wgrave" unicode="&#x1e80;" horiz-adv-x="964" 
d="M531 899l70 -144h-35l-89 144h54zM748 231l255 481h45l-374 -712h-50l-46 505q-9 126 -10 156l-76 -155l-262 -506h-50l-72 712h43l50 -481q14 -177 14 -182q34 73 90 184l248 479h49l43 -479q10 -120 12 -185q18 38 91 183z" />
    <glyph glyph-name="wgrave" unicode="&#x1e81;" horiz-adv-x="795" 
d="M448 738l41 -144h-33l-61 144h53zM604 197l184 319h46l-298 -516h-45l-40 348q-11 95 -12 122q-60 -118 -62 -122l-187 -348h-46l-78 516h43l47 -319q3 -19 18 -152q32 64 80 152l172 319h45l36 -319q4 -27 11 -105q0 -11 4 -49q32 65 82 154z" />
    <glyph glyph-name="Wacute" unicode="&#x1e82;" horiz-adv-x="964" 
d="M686 899h58l-144 -144h-41zM748 231l255 481h45l-374 -712h-50l-46 505q-9 126 -10 156l-76 -155l-262 -506h-50l-72 712h43l50 -481q14 -177 14 -182q34 73 90 184l248 479h49l43 -479q10 -120 12 -185q18 38 91 183z" />
    <glyph glyph-name="wacute" unicode="&#x1e83;" horiz-adv-x="795" 
d="M554 738h53l-118 -144h-36zM604 197l184 319h46l-298 -516h-45l-40 348q-11 95 -12 122q-60 -118 -62 -122l-187 -348h-46l-78 516h43l47 -319q3 -19 18 -152q32 64 80 152l172 319h45l36 -319q4 -27 11 -105q0 -11 4 -49q32 65 82 154z" />
    <glyph glyph-name="Wdieresis" unicode="&#x1e84;" horiz-adv-x="964" 
d="M492 846h44l-20 -91h-44zM679 846h43l-20 -91h-43zM748 231l255 481h45l-374 -712h-50l-46 505q-9 126 -10 156l-76 -155l-262 -506h-50l-72 712h43l50 -481q14 -177 14 -182q34 73 90 184l248 479h49l43 -479q10 -120 12 -185q18 38 91 183z" />
    <glyph glyph-name="wdieresis" unicode="&#x1e85;" horiz-adv-x="795" 
d="M370 685h43l-20 -91h-43zM557 685h43l-20 -91h-43zM604 197l184 319h46l-298 -516h-45l-40 348q-11 95 -12 122q-60 -118 -62 -122l-187 -348h-46l-78 516h43l47 -319q3 -19 18 -152q32 64 80 152l172 319h45l36 -319q4 -27 11 -105q0 -11 4 -49q32 65 82 154z" />
    <glyph glyph-name="uni1E9E" unicode="&#x1e9e;" horiz-adv-x="638" 
d="M675 706l-6 -34l-300 -268h16q117 0 175 -61q59 -62 36 -170q-18 -88 -92.5 -136t-193.5 -48q-74 0 -152 15l8 39q75 -15 148 -15q99 0 162 40t77 112q18 89 -28.5 138t-146.5 49q-44 0 -72 -4l8 38l305 273q-102 15 -192 15q-126 0 -194 -54t-92 -163l-100 -472h-43
l100 472q55 256 338 256q110 0 239 -22z" />
    <glyph glyph-name="Ygrave" unicode="&#x1ef2;" horiz-adv-x="624" 
d="M367 899l70 -144h-35l-89 144h54zM485 523l171 189h52l-364 -404l-66 -308h-43l66 308l-193 404h47l90 -190q29 -60 81 -180q24 27 48.5 54.5t44 51t26.5 30.5q5 5 11 12t14.5 17t14.5 16z" />
    <glyph glyph-name="ygrave" unicode="&#x1ef3;" horiz-adv-x="476" 
d="M285 738l41 -144h-33l-61 144h53zM312 242l160 274h46l-344 -584q-41 -71 -78 -100t-93 -29q-26 0 -44 2l7 35q9 -1 39 -1q41 0 69.5 24t61.5 78q2 3 27 46l-94 529h44l48 -273l34 -208q61 109 80 142q6 11 14 25t13.5 23.5t9.5 16.5z" />
    <glyph glyph-name="thinspace" unicode="&#x2009;" horiz-adv-x="161" 
 />
    <glyph glyph-name="uni2011" unicode="&#x2011;" horiz-adv-x="368" 
d="M318 264h-266l8 37h266z" />
    <glyph glyph-name="endash" unicode="&#x2013;" horiz-adv-x="516" 
d="M469 264h-413l7 37h413z" />
    <glyph glyph-name="emdash" unicode="&#x2014;" horiz-adv-x="912" 
d="M872 264h-810l11 37h809z" />
    <glyph glyph-name="quoteleft" unicode="&#x2018;" horiz-adv-x="156" 
d="M208 712l-6 -30q-23 -9 -33.5 -24t-17.5 -48l-7 -31h33l-14 -62h-62l20 92q10 48 29 70.5t58 32.5z" />
    <glyph glyph-name="quoteright" unicode="&#x2019;" horiz-adv-x="156" 
d="M132 650l13 62h63l-20 -91q-10 -48 -29 -70.5t-58 -33.5l6 31q22 8 33 24t18 47l7 31h-33z" />
    <glyph glyph-name="quotesinglbase" unicode="&#x201a;" horiz-adv-x="156" 
d="M-6 0l14 62h62l-19 -91q-10 -47 -29.5 -70t-58.5 -34l6 31q23 8 34 23.5t18 47.5l6 31h-33z" />
    <glyph glyph-name="quotedblleft" unicode="&#x201c;" horiz-adv-x="269" 
d="M94 517l20 91q10 48 29 70.5t58 33.5l-6 -31q-23 -8 -33.5 -23t-17.5 -48l-7 -31h33l-13 -62h-63zM314 712l-6 -31q-23 -8 -33.5 -23t-17.5 -48l-7 -31h33l-14 -62h-62l20 91q10 48 29 70.5t58 33.5z" />
    <glyph glyph-name="quotedblright" unicode="&#x201d;" horiz-adv-x="269" 
d="M165 650h-33l13 62h63l-20 -91q-10 -48 -29 -70.5t-58 -33.5l6 31q22 8 33 24t18 47zM245 650l13 62h63l-20 -91q-10 -48 -29 -70.5t-58 -33.5l6 31q22 8 33 24t18 47l7 31h-33z" />
    <glyph glyph-name="quotedblbase" unicode="&#x201e;" horiz-adv-x="269" 
d="M27 0h-33l14 62h62l-19 -91q-10 -47 -29.5 -70t-58.5 -34l6 31q23 8 34 23.5t18 47.5zM107 0l14 62h62l-19 -91q-10 -47 -29.5 -70t-58.5 -34l6 31q23 8 33.5 23t17.5 48l7 31h-33z" />
    <glyph glyph-name="dagger" unicode="&#x2020;" horiz-adv-x="534" 
d="M340 516h223l-9 -39h-222l-132 -623h-44l132 623h-222l9 39h221l42 196h44z" />
    <glyph glyph-name="daggerdbl" unicode="&#x2021;" horiz-adv-x="534" 
d="M567 516l-9 -39h-222l-82 -388h222l-9 -39h-221l-42 -196h-44l42 196h-223l9 39h222l82 388h-222l9 39h221l42 196h44l-42 -196h223z" />
    <glyph glyph-name="bullet" unicode="&#x2022;" horiz-adv-x="240" 
d="M169 229h-110l24 109h111z" />
    <glyph glyph-name="ellipsis" unicode="&#x2026;" horiz-adv-x="644" 
d="M54 0h-64l14 63h64zM301 0h-64l14 63h64zM544 0h-64l14 63h64z" />
    <glyph glyph-name="perthousand" unicode="&#x2030;" horiz-adv-x="1119" 
d="M190 289q-59 0 -91.5 38.5t-32.5 108.5q0 36 10 83q19 95 65 148t116 53q59 0 91 -37.5t32 -106.5q0 -37 -9 -82q-45 -205 -181 -205zM164 0h-42l531 712h42zM191 321q106 0 143 175q9 44 9 79q0 114 -88 114q-106 0 -143 -175q-9 -42 -9 -77q0 -55 23 -85.5t65 -30.5z
M560 -10q-59 0 -91 38.5t-32 108.5q0 38 9 83q44 201 182 201q59 0 91 -37.5t32 -106.5q0 -35 -10 -82q-43 -205 -181 -205zM904 -10q-59 0 -91.5 38.5t-32.5 108.5q0 36 10 83q19 95 65 148t116 53q59 0 91 -37.5t32 -106.5q0 -37 -9 -82q-45 -205 -181 -205zM562 22
q106 0 142 175q10 39 10 79q0 114 -89 114q-106 0 -142 -175q-10 -44 -10 -77q0 -55 23 -85.5t66 -30.5zM905 22q106 0 143 175q9 43 9 79q0 114 -88 114q-106 0 -143 -175q-9 -42 -9 -77q0 -55 23 -85.5t65 -30.5z" />
    <glyph glyph-name="guilsinglleft" unicode="&#x2039;" horiz-adv-x="300" 
d="M70 281l199 139l-9 -51l-166 -115l116 -114l-9 -46l-141 138z" />
    <glyph glyph-name="guilsinglright" unicode="&#x203a;" horiz-adv-x="300" 
d="M90 374l9 46l141 -138l-10 -49l-199 -139l9 51l166 115z" />
    <glyph glyph-name="uni203D" unicode="&#x203d;" horiz-adv-x="490" 
d="M344 728q102 0 149.5 -49t27.5 -138q-11 -46 -43 -82.5t-90 -75.5q-82 -57 -112 -101q-24 -37 -37 -101h-41l6 27l54 265l22 105h44l-22 -105l-31 -139q30 32 78 67q65 46 84 68q8 9 16 19q20 26 28 56q16 69 -19 107t-116 38q-86 0 -139.5 -42t-77.5 -135h-42
q51 216 261 216zM222 0h-64l14 63h64z" />
    <glyph glyph-name="fraction" unicode="&#x2044;" horiz-adv-x="202" 
d="M-123 0h-40l530 712h41z" />
    <glyph glyph-name="zero.sups" unicode="&#x2070;" horiz-adv-x="340" 
d="M239 518q-75 0 -106 61.5t-8 168.5q19 95 65 148t116 53q75 0 105.5 -60.5t8.5 -165.5q-45 -205 -181 -205zM240 550q106 0 143 175q20 91 -1 142t-78 51q-106 0 -143 -175q-19 -90 2 -141.5t77 -51.5z" />
    <glyph glyph-name="four.sups" unicode="&#x2074;" horiz-adv-x="348" 
d="M362 674h66l-8 -32h-65l-24 -114h-38l25 114h-222l9 37l274 262h40zM373 898l-233 -224h186z" />
    <glyph glyph-name="five.sups" unicode="&#x2075;" horiz-adv-x="327" 
d="M234 518q-58 0 -94 31.5t-38 83.5l36 1q1 -39 28.5 -62.5t70.5 -23.5q45 0 77 28.5t42 74.5q11 53 -12.5 84t-74.5 31q-67 0 -109 -60h-35l91 235h217l-7 -31h-188l-63 -160q39 45 103 45q62 0 94 -41t17 -108q-12 -58 -54 -93t-101 -35z" />
    <glyph glyph-name="six.sups" unicode="&#x2076;" horiz-adv-x="339" 
d="M286 797q60 0 93 -42t20 -105q-11 -58 -53.5 -94.5t-101.5 -36.5q-60 0 -96 38q-52 52 -22 195q19 93 68 146t124 53q53 0 84.5 -29t31.5 -75h-35q-2 34 -24.5 54t-60.5 20q-115 0 -152 -166q-8 -32 -9 -46q17 40 54 64t79 24zM364 652q10 51 -13.5 83t-70.5 32
q-45 0 -80.5 -28t-44.5 -69q-12 -54 14 -87.5t78 -33.5q44 0 76 28.5t41 74.5z" />
    <glyph glyph-name="seven.sups" unicode="&#x2077;" horiz-adv-x="294" 
d="M174 528h-40q57 233 248 383h-232l6 30h269l-6 -32q-192 -151 -245 -381z" />
    <glyph glyph-name="eight.sups" unicode="&#x2078;" horiz-adv-x="343" 
d="M238 520q-73 0 -110 36.5t-24 98.5q7 34 38 60t78 34q-31 13 -46.5 40.5t-7.5 64.5q9 43 47.5 69t93.5 26q63 0 95 -33t21 -87q-6 -29 -30.5 -51t-58.5 -29q85 -28 66 -122q-10 -47 -53.5 -77t-108.5 -30zM282 759q41 0 71.5 20.5t37.5 53.5q8 41 -16 64.5t-70 23.5
q-42 0 -70.5 -19.5t-35.5 -51.5q-9 -39 15 -65t68 -26zM240 549q52 0 84.5 23t41.5 60q11 48 -14 75.5t-82 27.5q-54 0 -88.5 -22.5t-42.5 -60.5q-10 -48 17 -75.5t84 -27.5z" />
    <glyph glyph-name="nine.sups" unicode="&#x2079;" horiz-adv-x="339" 
d="M227 520q-54 0 -87 29t-33 75h36q2 -35 24.5 -54.5t62.5 -19.5q111 0 151 163q7 32 7 53q-14 -42 -51 -68.5t-82 -26.5q-60 0 -93 42.5t-20 105.5q12 57 55 93.5t100 36.5q59 0 97 -38q51 -53 21 -194q-19 -93 -67 -145t-121 -52zM262 702q45 0 80 28t44 69
q12 54 -13.5 87t-77.5 33q-44 0 -76.5 -28.5t-41.5 -73.5q-10 -51 14 -83t71 -32z" />
    <glyph glyph-name="plus.sups" unicode="&#x207a;" horiz-adv-x="291" 
d="M258 749h104v-30h-104v-104h-33v104h-103v30h103v104h33v-104z" />
    <glyph glyph-name="minus.sups" unicode="&#x207b;" horiz-adv-x="291" 
d="M360 719h-239v30h239v-30z" />
    <glyph glyph-name="parenleft.sups" unicode="&#x207d;" horiz-adv-x="133" 
d="M174 450h-35q-38 131 -5 284q34 158 126 285h35q-93 -129 -126 -285q-32 -151 5 -284z" />
    <glyph glyph-name="parenright.sups" unicode="&#x207e;" horiz-adv-x="133" 
d="M74 450h-35q93 129 126 285q32 150 -6 284h36q38 -131 5 -284q-32 -153 -126 -285z" />
    <glyph glyph-name="n.sups" unicode="&#x207f;" horiz-adv-x="443" 
d="M335 721q75 0 109 -46.5t16 -135.5l-58 -277h-41l60 280q30 143 -99 143q-65 0 -114.5 -44.5t-66.5 -128.5l-52 -250h-41l95 449h39l-19 -91q65 101 172 101z" />
    <glyph glyph-name="zero.subs" unicode="&#x2080;" horiz-adv-x="340" 
d="M85 -206q-75 0 -106 61.5t-8 168.5q19 95 65 148t116 53q75 0 105.5 -60.5t8.5 -165.5q-45 -205 -181 -205zM86 -174q106 0 143 175q20 91 -1 142t-78 51q-106 0 -143 -175q-19 -90 2 -141.5t77 -51.5z" />
    <glyph glyph-name="one.subs" unicode="&#x2081;" horiz-adv-x="219" 
d="M49 -196h-36l78 364q-47 -41 -122 -45l6 27q86 8 130 68h32z" />
    <glyph glyph-name="two.subs" unicode="&#x2082;" horiz-adv-x="316" 
d="M201 -196h-280l3 15q21 108 160 169l40 18q87 40 100 97q9 41 -12.5 66t-70.5 25q-47 0 -76.5 -24.5t-36.5 -66.5h-36q10 56 49.5 89t101.5 33q67 0 97.5 -34.5t18.5 -89.5q-17 -75 -124 -123l-41 -18q-58 -27 -88 -56t-40 -69h241z" />
    <glyph glyph-name="three.subs" unicode="&#x2083;" horiz-adv-x="322" 
d="M72 -204q-66 0 -103.5 34.5t-29.5 90.5h34q-5 -43 22 -69t79 -26q100 0 120 83q11 49 -14.5 75t-78.5 26h-23l5 27h25q46 0 77.5 19.5t38.5 53.5q10 39 -13 62t-71 23q-88 0 -109 -81h-35q11 53 50 82t96 29q62 0 94.5 -32.5t21.5 -85.5q-6 -31 -32 -54.5t-63 -29.5
q39 -10 57.5 -41t7.5 -76q-12 -50 -53 -80t-103 -30z" />
    <glyph glyph-name="four.subs" unicode="&#x2084;" horiz-adv-x="348" 
d="M208 -50h66l-8 -32h-65l-24 -114h-38l25 114h-222l9 37l274 262h40zM219 174l-233 -224h186z" />
    <glyph glyph-name="five.subs" unicode="&#x2085;" horiz-adv-x="327" 
d="M80 -206q-58 0 -94 31.5t-38 83.5l36 1q1 -39 28.5 -62.5t70.5 -23.5q45 0 77 28.5t42 74.5q11 53 -12.5 84t-74.5 31q-67 0 -109 -60h-35l91 235h217l-7 -31h-188l-63 -160q39 45 103 45q62 0 94 -41t17 -108q-12 -58 -54 -93t-101 -35z" />
    <glyph glyph-name="six.subs" unicode="&#x2086;" horiz-adv-x="339" 
d="M132 73q60 0 93 -42t20 -105q-11 -58 -53.5 -94.5t-101.5 -36.5q-60 0 -96 38q-52 52 -22 195q19 93 68 146t124 53q53 0 84.5 -29t31.5 -75h-35q-2 34 -24.5 54t-60.5 20q-115 0 -152 -166q-8 -32 -9 -46q17 40 54 64t79 24zM210 -72q10 51 -13.5 83t-70.5 32
q-45 0 -80.5 -28t-44.5 -69q-12 -54 14 -87.5t78 -33.5q44 0 76 28.5t41 74.5z" />
    <glyph glyph-name="seven.subs" unicode="&#x2087;" horiz-adv-x="294" 
d="M20 -196h-40q57 233 248 383h-232l6 30h269l-6 -32q-192 -151 -245 -381z" />
    <glyph glyph-name="eight.subs" unicode="&#x2088;" horiz-adv-x="343" 
d="M84 -204q-73 0 -110 36.5t-24 98.5q7 34 38 60t78 34q-31 13 -46.5 40.5t-7.5 64.5q9 43 47.5 69t93.5 26q63 0 95 -33t21 -87q-6 -29 -30.5 -51t-58.5 -29q85 -28 66 -122q-10 -47 -53.5 -77t-108.5 -30zM128 35q41 0 71.5 20.5t37.5 53.5q8 41 -16 64.5t-70 23.5
q-42 0 -70.5 -19.5t-35.5 -51.5q-9 -39 15 -65t68 -26zM86 -175q52 0 84.5 23t41.5 60q11 48 -14 75.5t-82 27.5q-54 0 -88.5 -22.5t-42.5 -60.5q-10 -48 17 -75.5t84 -27.5z" />
    <glyph glyph-name="nine.subs" unicode="&#x2089;" horiz-adv-x="339" 
d="M73 -204q-54 0 -87 29t-33 75h36q2 -35 24.5 -54.5t62.5 -19.5q111 0 151 163q7 32 7 53q-14 -42 -51 -68.5t-82 -26.5q-60 0 -93 42.5t-20 105.5q12 57 55 93.5t100 36.5q59 0 97 -38q51 -53 21 -194q-19 -93 -67 -145t-121 -52zM108 -22q45 0 80 28t44 69
q12 54 -13.5 87t-77.5 33q-44 0 -76.5 -28.5t-41.5 -73.5q-10 -51 14 -83t71 -32z" />
    <glyph glyph-name="plus.subs" unicode="&#x208a;" horiz-adv-x="291" 
d="M110 25h104v-30h-104v-104h-33v104h-103v30h103v104h33v-104z" />
    <glyph glyph-name="minus.subs" unicode="&#x208b;" horiz-adv-x="291" 
d="M214 -5h-240v30h240v-30z" />
    <glyph glyph-name="equal.subs" unicode="&#x208c;" horiz-adv-x="291" 
d="M212 45h-239v29h239v-29zM212 -54h-239v29h239v-29z" />
    <glyph glyph-name="uni208D" unicode="&#x208d;" horiz-adv-x="133" 
d="M22 -274h-35q-38 130 -5 284q33 156 125 284h36q-94 -128 -127 -284q-32 -152 6 -284z" />
    <glyph glyph-name="uni208E" unicode="&#x208e;" horiz-adv-x="133" 
d="M-79 -274h-35q92 128 126 284q32 153 -5 284h35q38 -130 5 -284q-35 -160 -126 -284z" />
    <glyph glyph-name="n.subs" unicode="&#x2099;" horiz-adv-x="444" 
d="M238 263q75 0 109 -46.5t16 -135.5l-58 -277h-41l60 280q30 143 -99 143q-65 0 -114.5 -44.5t-66.5 -128.5l-52 -250h-41l95 449h39l-19 -91q65 101 172 101z" />
    <glyph glyph-name="Euro" unicode="&#x20ac;" horiz-adv-x="676" 
d="M474 728q110 0 169 -64.5t57 -178.5h-42q1 97 -47.5 150.5t-141.5 53.5q-98 0 -170.5 -62.5t-112.5 -175.5h269l-8 -36h-272l-11 -44q-9 -39 -9 -49h272l-7 -36h-269q-10 -125 40 -192.5t156 -67.5q189 0 263 212h42q-39 -120 -119 -185.5t-191 -65.5q-122 0 -184 79.5
t-51 219.5h-88l8 36h84q3 26 9 51q7 33 10 42h-83l7 36h87q44 130 130 203.5t203 73.5z" />
    <glyph glyph-name="uni20B8" unicode="&#x20b8;" horiz-adv-x="608" 
d="M112 673l8 39h563l-9 -39h-562zM333 495h-259l8 39h563l-9 -39h-259l-105 -495h-44z" />
    <glyph glyph-name="uni20B9" unicode="&#x20b9;" horiz-adv-x="604" 
d="M218 712h435l-8 -35h-178q73 -46 67 -141h81l-7 -35h-79q-18 -82 -85 -129t-170 -47h-144l295 -325h-58l-300 330l4 21l3 13h206q83 0 136.5 36.5t68.5 100.5h-382l7 35h380q5 65 -36 101t-117 36h-197l8 38h70v1z" />
    <glyph glyph-name="uni20BA" unicode="&#x20ba;" horiz-adv-x="554" 
d="M477 372h44q-78 -372 -475 -372h-43l80 374l-86 -31l8 37l86 31l20 93l-86 -31l8 36l85 31l37 172h43l-33 -155l245 90l-8 -37l-245 -89l-20 -93l246 90l-8 -37l-245 -90l-76 -352q352 0 423 333z" />
    <glyph glyph-name="uni20BC" unicode="&#x20bc;" horiz-adv-x="644" 
d="M439 712l-39 -184q247 -2 191 -256l-57 -272h-45l61 277q25 112 -13.5 162.5t-144.5 50.5l-82 -383h-42l82 383h-16q-100 0 -152.5 -43t-73.5 -139l-66 -308h-42l66 308q25 115 89.5 167.5t186.5 52.5h16l39 184h42z" />
    <glyph glyph-name="uni20BF" unicode="&#x20bf;" horiz-adv-x="612" 
d="M616 515q-11 -51 -49.5 -89.5t-97.5 -57.5q66 -21 93.5 -71.5t12.5 -121.5q-17 -81 -82.5 -127.5t-165.5 -47.5l-25 -116h-37l25 116h-97l-25 -116h-37l25 116h-145l151 712h144l25 116h37l-25 -116h86h11l25 116h37l-25 -119q83 -12 120 -65t19 -129zM298 673h-101
l-61 -286h102zM432 673h-8h-89l-60 -286h97zM468 670l-59 -281q68 7 111 42t55 90q13 59 -14 98.5t-93 50.5zM128 347l-66 -308h102l65 308h-101zM266 347l-65 -308h97l65 308h-97zM533 182q16 72 -19.5 115.5t-113.5 48.5l-65 -307q78 1 131 39t67 104z" />
    <glyph glyph-name="uni2105" unicode="&#x2105;" horiz-adv-x="931" 
d="M228 290q-88 0 -131 63q-44 64 -22 164q19 92 77.5 148t143.5 56q71 0 113 -43t41 -113h-38q0 56 -32.5 89.5t-87.5 33.5q-67 0 -113.5 -48.5t-64.5 -128.5q-18 -86 14 -137t103 -51q57 0 99 34t62 97h38q-24 -79 -76 -121.5t-126 -42.5zM257 0h-43l531 712h42zM677 -9
q-89 0 -136 63q-47 62 -26 164q19 92 78.5 148t142.5 56q92 0 138 -64q46 -63 23 -168q-19 -89 -77 -144t-143 -55zM681 25q67 0 114 47t63 124q18 86 -17.5 139t-108.5 53q-66 0 -113.5 -48t-63.5 -126q-18 -84 17.5 -136.5t108.5 -52.5z" />
    <glyph glyph-name="uni2113" unicode="&#x2113;" horiz-adv-x="404" 
d="M244 24q51 0 78 35l16 -33q-35 -38 -96 -38q-51 0 -80 32t-29 90v129q-42 -13 -90 -18l-6 37q51 5 96 22v302q0 146 122 146q114 0 114 -154q0 -107 -51 -191.5t-143 -126.5v-144q0 -42 18 -65t51 -23zM175 583v-284q73 39 113 111.5t40 161.5q0 119 -74 119
q-79 0 -79 -108z" />
    <glyph glyph-name="uni2116" unicode="&#x2116;" horiz-adv-x="1052" 
d="M945 722q61 0 97 -37t36 -101q3 -79 -51.5 -151.5t-140.5 -71.5q-60 0 -96.5 37t-36.5 100q0 83 52 153q51 71 140 71zM552 238l101 474h42l-152 -712h-52l-240 509q-29 61 -66 156q-3 -18 -12 -59.5t-11 -52.5q-11 -55 -17 -79l-100 -474h-43l152 712h52l241 -509
q35 -82 65 -156q39 186 40 191zM892 397q71 0 110 59q38 59 38 123q0 50 -27.5 79t-72.5 29q-71 0 -110 -59q-39 -58 -39 -125q0 -50 27 -78t74 -28z" />
    <glyph glyph-name="uni2117" unicode="&#x2117;" horiz-adv-x="836" 
d="M438 729q161 0 271 -108q109 -108 109 -265q0 -156 -109 -264q-110 -108 -271 -108q-160 0 -270 108t-110 264q0 157 110 265t270 108zM193 116q99 -99 245 -99t245 99q99 98 99 240q0 143 -99 242q-100 98 -245 98t-245 -98q-99 -99 -99 -242q0 -142 99 -240zM308 570
h170q64 0 101 -34t37 -93q0 -58 -37 -92t-101 -34h-133v-175h-37v428zM345 351h133q47 0 74 24.5t27 67.5q0 44 -26.5 68.5t-74.5 24.5h-133v-185z" />
    <glyph glyph-name="trademark" unicode="&#x2122;" horiz-adv-x="664" 
d="M211 689h-94v23h214v-23h-95v-246h-25v246zM507 511l89 201h28v-269h-24v180v39l-5 -12l-91 -207h-20l-91 207q0 1 -1.5 4.5t-2.5 5.5v-37v-180h-25v269h29l89 -203l12 -32q12 33 13 34z" />
    <glyph glyph-name="uni2126" unicode="&#x2126;" horiz-adv-x="740" 
d="M326 0h-282v39h212v2q-96 55 -150 142.5t-54 198.5q0 160 90 251q89 92 234 92t234 -92q88 -91 88 -251q0 -112 -53 -199.5t-148 -141.5v-2h212v-39h-281v35q227 116 227 347q0 144 -75 224q-77 80 -204 80t-204 -80q-77 -82 -77 -224q0 -232 231 -347v-35z" />
    <glyph glyph-name="estimated" unicode="&#x212e;" horiz-adv-x="911" 
d="M161 623q109 105 295 105q185 0 295 -110q109 -110 109 -272h-646q-14 0 -14 -13v-176q0 -32 16 -47q98 -96 240 -96q74 0 141.5 31.5t110.5 83.5h73q-44 -62 -128.5 -102t-196.5 -40q-182 0 -294 104q-112 103 -112 265q0 160 111 267zM456 700q-142 0 -240 -98
q-16 -15 -16 -44v-176q0 -13 14 -13h481q14 0 14 13v176q0 29 -16 44q-100 98 -237 98z" />
    <glyph glyph-name="uni2153" unicode="&#x2153;" horiz-adv-x="695" 
d="M154 299h-36l78 364q-47 -41 -122 -45l6 27q86 8 130 68h32zM72 0h-40l530 712h41zM593 23q-40 -31 -106 -31q-64 0 -102 35q-37 35 -30 90h34q-6 -42 22 -68.5t79 -26.5q100 0 119 83q12 49 -13 75t-79 26h-24l6 27h25q46 0 77.5 19.5t38.5 53.5q9 39 -14.5 62t-69.5 23
q-90 0 -109 -81h-36q12 53 51 82t96 29q62 0 94.5 -32.5t21.5 -85.5q-6 -31 -32.5 -54.5t-63.5 -29.5q40 -10 58.5 -40.5t7.5 -76.5q-10 -49 -51 -79z" />
    <glyph glyph-name="uni2154" unicode="&#x2154;" horiz-adv-x="829" 
d="M306 299h-280l3 15q21 108 160 169l40 18q87 40 100 97q9 41 -12.5 66t-70.5 25q-47 0 -76.5 -24.5t-36.5 -66.5h-36q10 56 49.5 89t101.5 33q67 0 97.5 -34.5t18.5 -89.5q-17 -75 -124 -123l-41 -18q-58 -27 -88 -56t-40 -69h241zM211 0h-41l531 712h40zM727 23
q-40 -31 -106 -31q-64 0 -102 35q-37 35 -30 90h34q-6 -42 22 -68.5t79 -26.5q100 0 119 83q12 49 -13 75t-79 26h-24l6 27h25q46 0 77.5 19.5t38.5 53.5q9 39 -14.5 62t-69.5 23q-90 0 -109 -81h-36q12 53 51 82t96 29q62 0 94.5 -32.5t21.5 -85.5q-6 -31 -32.5 -54.5
t-63.5 -29.5q40 -10 58.5 -40.5t7.5 -76.5q-10 -49 -51 -79z" />
    <glyph glyph-name="uni2155" unicode="&#x2155;" horiz-adv-x="674" 
d="M154 299h-36l78 364q-47 -41 -122 -45l6 27q86 8 130 68h32zM56 0h-40l530 712h41zM468 -10q-58 0 -94 31.5t-37 83.5l36 1q1 -39 28 -62.5t70 -23.5q45 0 77 28.5t42 74.5q11 53 -13 84t-73 31q-69 0 -109 -60h-35l91 235h216l-6 -31h-189l-63 -160q39 45 104 45
q62 0 94 -41t17 -108q-12 -57 -54.5 -92.5t-101.5 -35.5z" />
    <glyph glyph-name="uni2156" unicode="&#x2156;" horiz-adv-x="819" 
d="M306 299h-280l3 15q21 108 160 169l40 18q87 40 100 97q9 41 -12.5 66t-70.5 25q-47 0 -76.5 -24.5t-36.5 -66.5h-36q10 56 49.5 89t101.5 33q67 0 97.5 -34.5t18.5 -89.5q-17 -75 -124 -123l-41 -18q-58 -27 -88 -56t-40 -69h241zM202 0h-41l531 712h41zM614 -10
q-58 0 -94 31.5t-38 83.5l36 1q1 -39 28.5 -62.5t70.5 -23.5q45 0 77 28.5t42 74.5q11 53 -12.5 84t-74.5 31q-67 0 -109 -60h-35l91 235h217l-7 -31h-188l-63 -160q39 45 103 45q62 0 94 -41t17 -108q-12 -58 -54 -93t-101 -35z" />
    <glyph glyph-name="uni2157" unicode="&#x2157;" horiz-adv-x="778" 
d="M177 291q-66 0 -103.5 34.5t-29.5 90.5h34q-5 -43 22.5 -69t78.5 -26q100 0 120 83q11 49 -14.5 75t-78.5 26h-23l5 27h25q46 0 77.5 19.5t38.5 53.5q10 39 -13.5 62t-70.5 23q-88 0 -109 -81h-35q11 53 50 82t96 29q62 0 94.5 -32.5t21.5 -85.5q-6 -31 -32 -54.5
t-63 -29.5q39 -10 57.5 -41t7.5 -76q-12 -50 -53 -80t-103 -30zM162 0h-41l531 712h41zM573 -10q-58 0 -94 31.5t-38 83.5l36 1q1 -39 28 -62.5t70 -23.5q46 0 78 28t41 75q12 53 -11.5 84t-74.5 31q-68 0 -109 -60h-35l91 235h217l-7 -31h-188l-64 -160q41 45 104 45
q62 0 94 -41t17 -108q-12 -58 -54 -93t-101 -35z" />
    <glyph glyph-name="uni2158" unicode="&#x2158;" horiz-adv-x="803" 
d="M282 299h-38l25 114h-222l9 37l274 262h40l-57 -267h66l-8 -32h-65zM148 0l531 712h40l-531 -712h-40zM324 669l-233 -224h186zM796 413l-6 -31h-189l-63 -160q39 45 104 45q62 0 94 -41t17 -108q-12 -57 -54.5 -92.5t-101.5 -35.5q-58 0 -94 31.5t-37 83.5l35 1
q1 -39 28.5 -62.5t70.5 -23.5q45 0 77 28.5t42 74.5q11 53 -13 84t-73 31q-69 0 -109 -60h-35l91 235h216z" />
    <glyph glyph-name="uni2159" unicode="&#x2159;" horiz-adv-x="661" 
d="M154 299h-36l78 364q-47 -41 -122 -45l6 27q86 8 130 68h32zM16 0l530 712h41l-531 -712h-40zM504 269q60 0 93 -42t20 -105q-12 -58 -55 -94.5t-100 -36.5q-61 0 -97 38q-53 53 -21 195q19 93 67.5 146t123.5 53q53 0 85 -29t32 -75h-36q-2 34 -24.5 54t-60.5 20
q-112 0 -152 -166q-1 -9 -5 -26t-4 -21q16 39 53.5 64t80.5 25zM581 124q10 51 -13.5 83t-70.5 32q-45 0 -80 -28t-44 -69q-12 -54 13.5 -87.5t77.5 -33.5q44 0 76 28.5t41 74.5z" />
    <glyph glyph-name="uni215A" unicode="&#x215a;" horiz-adv-x="775" 
d="M340 417q-12 -58 -54 -93t-101 -35q-58 0 -94 31.5t-38 83.5l36 1q1 -39 28.5 -62.5t70.5 -23.5q45 0 77 28.5t42 74.5q11 53 -12.5 84t-74.5 31q-67 0 -109 -60h-35l91 235h217l-7 -31h-188l-63 -160q39 45 103 45q62 0 94 -41t17 -108zM126 0l530 712h41l-531 -712h-40
zM619 269q60 0 92.5 -42t19.5 -105q-11 -58 -54 -94.5t-100 -36.5q-61 0 -97 38q-52 53 -21 195q19 93 67.5 146t123.5 53q53 0 84.5 -29t32.5 -75h-36q-2 34 -24.5 54t-60.5 20q-112 0 -152 -166l-9 -44q18 39 55 62.5t79 23.5zM696 124q10 51 -13.5 83t-70.5 32
q-45 0 -80 -28t-44 -69q-12 -54 13.5 -87.5t77.5 -33.5q44 0 76 28.5t41 74.5z" />
    <glyph glyph-name="oneeighth" unicode="&#x215b;" horiz-adv-x="706" 
d="M154 299h-36l78 364q-47 -41 -122 -45l6 27q86 8 130 68h32zM72 0h-40l530 712h41zM488 -8q-73 0 -109.5 36.5t-23.5 98.5q7 34 38 60t78 34q-31 13 -46.5 40.5t-7.5 64.5q9 43 47.5 69t93.5 26q61 0 94 -33.5t22 -86.5q-6 -29 -31 -51.5t-59 -28.5q86 -28 67 -122
q-10 -47 -53.5 -77t-109.5 -30zM533 231q41 0 71.5 20.5t37.5 53.5q8 41 -16 64.5t-70 23.5q-42 0 -70.5 -19.5t-35.5 -51.5q-9 -39 15 -65t68 -26zM491 21q52 0 84.5 23t41.5 60q11 48 -14 75.5t-82 27.5q-54 0 -89 -23t-42 -60q-10 -48 17 -75.5t84 -27.5z" />
    <glyph glyph-name="threeeighths" unicode="&#x215c;" horiz-adv-x="801" 
d="M177 291q-66 0 -103.5 34.5t-29.5 90.5h34q-5 -43 22.5 -69t78.5 -26q100 0 120 83q11 49 -14.5 75t-78.5 26h-23l5 27h25q46 0 77.5 19.5t38.5 53.5q10 39 -13.5 62t-70.5 23q-88 0 -109 -81h-35q11 53 50 82t96 29q62 0 94.5 -32.5t21.5 -85.5q-6 -31 -32 -54.5
t-63 -29.5q39 -10 57.5 -41t7.5 -76q-12 -50 -53 -80t-103 -30zM175 0h-41l531 712h41zM584 -8q-73 0 -110 36.5t-24 98.5q7 34 38 60t78 34q-31 13 -46.5 40.5t-7.5 64.5q9 43 47.5 69t93.5 26q63 0 95 -33t21 -87q-6 -29 -30.5 -51t-58.5 -29q85 -28 66 -122
q-10 -47 -53.5 -77t-108.5 -30zM628 231q41 0 71.5 20.5t37.5 53.5q8 41 -16 64.5t-70 23.5q-42 0 -70.5 -19.5t-35.5 -51.5q-9 -39 15 -65t68 -26zM586 21q52 0 84.5 23t41.5 60q11 48 -14 75.5t-82 27.5q-54 0 -88.5 -22.5t-42.5 -60.5q-10 -48 17 -75.5t84 -27.5z" />
    <glyph glyph-name="fiveeighths" unicode="&#x215d;" horiz-adv-x="791" 
d="M185 289q-58 0 -94 31.5t-38 83.5l36 1q1 -39 28.5 -62.5t70.5 -23.5q45 0 77 28.5t42 74.5q11 53 -12.5 84t-74.5 31q-67 0 -109 -60h-35l91 235h217l-7 -31h-188l-63 -160q39 45 103 45q62 0 94 -41t17 -108q-12 -58 -54 -93t-101 -35zM170 0h-41l531 712h41zM573 -8
q-73 0 -109.5 36.5t-23.5 98.5q7 34 38 60t77 34q-31 13 -46 40.5t-7 64.5q9 43 47 69t93 26q63 0 95 -33t21 -87q-5 -28 -29.5 -50.5t-59.5 -29.5q86 -28 67 -122q-10 -47 -54 -77t-109 -30zM617 231q41 0 72 20.5t38 53.5q7 41 -17 64.5t-70 23.5q-42 0 -70.5 -19.5
t-35.5 -51.5q-8 -39 15.5 -65t67.5 -26zM576 21q52 0 84.5 23t41.5 60q11 48 -14 75.5t-82 27.5q-54 0 -89 -22.5t-43 -60.5q-10 -48 17.5 -75.5t84.5 -27.5z" />
    <glyph glyph-name="seveneighths" unicode="&#x215e;" horiz-adv-x="678" 
d="M46 0h-41l531 712h41zM125 299h-40q57 233 248 383h-232l6 30h269l-6 -32q-192 -151 -245 -381zM461 -8q-73 0 -110 36.5t-24 98.5q8 35 39 60.5t77 33.5q-31 13 -46 40.5t-7 64.5q8 43 46.5 69t93.5 26q63 0 95 -33t21 -87q-5 -28 -29.5 -50.5t-59.5 -29.5
q86 -28 67 -122q-10 -47 -54 -77t-109 -30zM505 231q41 0 71.5 20.5t37.5 53.5q8 41 -16 64.5t-70 23.5q-42 0 -70.5 -19.5t-35.5 -51.5q-8 -39 15.5 -65t67.5 -26zM464 21q51 0 84 22.5t42 60.5q11 48 -14.5 75.5t-82.5 27.5q-53 0 -88 -22.5t-43 -60.5q-10 -49 17.5 -76
t84.5 -27z" />
    <glyph glyph-name="arrowleft" unicode="&#x2190;" horiz-adv-x="956" 
d="M199 376h663v-39h-663q24 -31 68 -88.5t63 -82.5l126 -166h-52l-270 356l270 356h52l-126 -166q-76 -100 -131 -170z" />
    <glyph glyph-name="arrowup" unicode="&#x2191;" horiz-adv-x="956" 
d="M142 458l356 270l356 -270v-51l-166 125q-63 47 -118 91q-34 25 -51 39v-662h-42v662l-169 -130l-166 -125v51z" />
    <glyph glyph-name="arrowright" unicode="&#x2192;" horiz-adv-x="956" 
d="M540 712h52l270 -356l-270 -356h-52l126 166q19 25 63 82.5t68 88.5h-663v39h663q-55 70 -131 170z" />
    <glyph glyph-name="arrowdown" unicode="&#x2193;" horiz-adv-x="956" 
d="M688 180l166 125v-51l-356 -270l-356 270v51l166 -125l169 -130v662h42v-662q13 9 54.5 42t58.5 46q23 18 56 42z" />
    <glyph glyph-name="arrowboth" unicode="&#x2194;" horiz-adv-x="956" 
d="M653 712h53l270 -356l-270 -356h-53l126 166q78 102 132 171h-826q37 -47 132 -171l126 -166h-53l-270 356l270 356h53l-126 -166q-26 -34 -132 -170h825q-4 5 -65 85q-15 20 -37 48t-29 37z" />
    <glyph glyph-name="arrowupdn" unicode="&#x2195;" horiz-adv-x="956" 
d="M519 804v-896q10 8 29 22t44.5 34.5t39.5 30.5q21 18 56 43l166 125v-51l-356 -270l-356 270v51l166 -125l169 -130v896q-10 -8 -29 -22t-44.5 -34.5t-39.5 -30.5q-38 -30 -56 -43l-166 -125v51l356 270l356 -270v-51l-166 125q-63 47 -118 91q-34 25 -51 39z" />
    <glyph glyph-name="uni2196" unicode="&#x2196;" horiz-adv-x="956" 
d="M810 617h-306q-197 0 -247 1l553 -546l-29 -31l-553 545q1 -50 1 -247v-297l-42 38v576h586z" />
    <glyph glyph-name="uni2197" unicode="&#x2197;" horiz-adv-x="956" 
d="M186 617l37 39h586v-576l-42 -38v297q0 197 1 247l-553 -545l-29 31l553 546q-50 -1 -247 -1h-306z" />
    <glyph glyph-name="uni2198" unicode="&#x2198;" horiz-adv-x="956" 
d="M767 367v297l42 -38v-576h-586l-37 39h306q198 0 248 -1l-554 546l29 32l553 -545q-1 50 -1 246z" />
    <glyph glyph-name="uni2199" unicode="&#x2199;" horiz-adv-x="956" 
d="M810 628l-554 -545q50 1 248 1h306l-37 -40h-586v576l42 39v-297q0 -197 -1 -247l553 545z" />
    <glyph glyph-name="partialdiff" unicode="&#x2202;" horiz-adv-x="550" 
d="M346 728q94 0 142.5 -58.5t48.5 -164.5q0 -132 -40 -252q-41 -122 -111 -188q-76 -81 -180 -81q-82 0 -132 49.5t-50 130.5q0 120 81 205q80 86 189 86q75 0 121 -45.5t46 -118.5q33 110 33 211q0 187 -152 187q-59 0 -110 -39t-78 -103h-44q33 83 95 132t141 49zM208 23
q90 0 157 76q66 75 66 172q0 66 -37 105.5t-101 39.5q-88 0 -156 -74q-68 -76 -68 -174q0 -66 38 -105.5t101 -39.5z" />
    <glyph glyph-name="uni2206" unicode="&#x2206;" horiz-adv-x="653" 
d="M251 712h48l275 -673v-39h-597v39zM275 667q-66 -170 -83 -211l-170 -417h507l-171 418q-28 65 -83 210z" />
    <glyph glyph-name="product" unicode="&#x220f;" horiz-adv-x="670" 
d="M85 -196v908h540v-908h-42v869h-455v-869h-43z" />
    <glyph glyph-name="summation" unicode="&#x2211;" horiz-adv-x="558" 
d="M306 -157h244v-39h-502v40l307 414l-307 414v40h492v-39h-234q-115 0 -207 2l125 -167l176 -239v-22l-176 -239l-125 -167q92 2 207 2z" />
    <glyph glyph-name="minus" unicode="&#x2212;" horiz-adv-x="516" 
d="M486 337h-414v38h414v-38z" />
    <glyph glyph-name="uni2215" unicode="&#x2215;" horiz-adv-x="516" 
d="M16 0h-46l531 712h46z" />
    <glyph glyph-name="uni2219" unicode="&#x2219;" horiz-adv-x="516" 
d="M308 318h-77l17 76h77z" />
    <glyph glyph-name="radical" unicode="&#x221a;" horiz-adv-x="684" 
d="M399 56l249 656h44l-346 -908h-47l-167 436h-100v38h129l85 -222q15 -39 29.5 -77.5t28 -76t19.5 -53.5q49 138 76 207z" />
    <glyph glyph-name="infinity" unicode="&#x221e;" horiz-adv-x="791" 
d="M599 543q74 0 117 -52t43 -135t-43 -135t-117 -52q-101 0 -184 146q-80 -146 -184 -146q-74 0 -117 52t-43 135t43 135t117 52q104 0 184 -146q83 146 184 146zM232 205q45 0 84.5 36.5t79.5 114.5q-78 151 -164 151q-55 0 -87.5 -41.5t-32.5 -109.5t32.5 -109.5
t87.5 -41.5zM599 205q55 0 87 41.5t32 109.5t-32 109.5t-87 41.5q-88 0 -164 -151q76 -151 164 -151z" />
    <glyph glyph-name="integral" unicode="&#x222b;" horiz-adv-x="391" 
d="M113 -198q-2 0 -42 2v36q38 -2 40 -2q84 0 84 85v669q0 122 123 122q4 0 42 -2v-36q-38 2 -39 2q-85 0 -85 -85v-669q0 -122 -123 -122z" />
    <glyph glyph-name="approxequal" unicode="&#x2248;" horiz-adv-x="516" 
d="M112 383h-37q7 46 34 71.5t67 25.5q42 0 114 -31q64 -26 90 -26q52 0 64 59h37q-7 -46 -34 -71.5t-67 -25.5q-31 0 -104 29q-72 29 -100 29q-50 0 -64 -60zM112 223h-37q7 46 34 71.5t67 25.5q42 0 114 -31q64 -26 90 -26q52 0 64 59h37q-7 -46 -34 -71.5t-67 -25.5
q-31 0 -104 29q-72 29 -100 29q-50 0 -64 -60z" />
    <glyph glyph-name="notequal" unicode="&#x2260;" horiz-adv-x="516" 
d="M485 456v-36h-155l-53 -128h208v-36h-223l-49 -120l-35 12l45 108h-152v36h166l53 128h-219v36h234l50 121l34 -13l-44 -108h140z" />
    <glyph glyph-name="lessequal" unicode="&#x2264;" horiz-adv-x="516" 
d="M485 578v-45l-161 -76q-182 -83 -213 -96q14 -6 124 -56q23 -11 45 -21t32 -14.5t12 -5.5l161 -76v-45l-414 196v43zM485 0h-414v38h414v-38z" />
    <glyph glyph-name="greaterequal" unicode="&#x2265;" horiz-adv-x="516" 
d="M71 533v45l414 -196v-43l-414 -196v45l162 76q33 15 212 97q-77 34 -212 96zM485 0h-414v38h414v-38z" />
    <glyph glyph-name="uni2460" unicode="&#x2460;" horiz-adv-x="956" 
d="M159 685q139 134 339 134t340 -134q138 -135 138 -329t-138 -328q-140 -135 -340 -135q-201 0 -339 135q-139 133 -139 328q0 194 139 329zM188 54q125 -124 310 -124q184 0 311 124q126 124 126 302t-126 302q-127 124 -311 124q-185 0 -310 -124q-127 -124 -127 -302
t127 -302zM502 584h37v-455h-41v393q-40 -40 -123 -45v30q92 9 127 77z" />
    <glyph glyph-name="uni2461" unicode="&#x2461;" horiz-adv-x="956" 
d="M159 685q139 134 339 134t340 -134q138 -135 138 -329t-138 -328q-140 -135 -340 -135q-201 0 -339 135q-139 133 -139 328q0 194 139 329zM188 54q125 -124 310 -124q184 0 311 124q126 124 126 302t-126 302q-127 124 -311 124q-185 0 -310 -124q-127 -124 -127 -302
t127 -302zM536 336l-42 -21q-101 -51 -107 -135h263v-36h-307v18q3 124 135 186l40 20q86 44 86 110q0 42 -27.5 69t-79.5 27q-50 0 -77.5 -28.5t-29.5 -73.5h-40q2 61 40 99t108 38q69 0 107.5 -36.5t38.5 -93.5q0 -48 -26 -82t-82 -61z" />
    <glyph glyph-name="uni2462" unicode="&#x2462;" horiz-adv-x="956" 
d="M159 685q139 134 339 134t340 -134q138 -135 138 -329t-138 -328q-140 -135 -340 -135q-201 0 -339 135q-139 133 -139 328q0 194 139 329zM188 54q125 -124 310 -124q184 0 311 124q126 124 126 302t-126 302q-127 124 -311 124q-185 0 -310 -124q-127 -124 -127 -302
t127 -302zM566 373q43 -10 68 -41.5t25 -77.5q0 -61 -43.5 -97.5t-117.5 -36.5q-75 0 -118.5 36.5t-43.5 101.5h40q1 -50 33.5 -77.5t88.5 -27.5q54 0 87 27.5t33 74.5t-33 73t-91 26h-27v32h28q49 0 78.5 23t29.5 64q0 40 -29 63.5t-76 23.5t-75.5 -24t-29.5 -66h-41
q2 58 41.5 91t104.5 33q66 0 105.5 -32t39.5 -85q0 -36 -21 -64t-56 -40z" />
    <glyph glyph-name="uni2463" unicode="&#x2463;" horiz-adv-x="956" 
d="M159 685q139 134 339 134t340 -134q138 -135 138 -329t-138 -328q-140 -135 -340 -135q-201 0 -339 135q-139 133 -139 328q0 194 139 329zM188 54q125 -124 310 -124q184 0 311 124q126 124 126 302t-126 302q-127 124 -311 124q-185 0 -310 -124q-127 -124 -127 -302
t127 -302zM529 594h44v-294h72v-36h-72v-125h-42v125h-243v41zM532 300v246l-205 -246h205z" />
    <glyph glyph-name="uni2464" unicode="&#x2464;" horiz-adv-x="956" 
d="M159 685q139 134 339 134t340 -134q138 -135 138 -329t-138 -328q-140 -135 -340 -135q-201 0 -339 135q-139 133 -139 328q0 194 139 329zM188 54q125 -124 310 -124q184 0 311 124q126 124 126 302t-126 302q-127 124 -311 124q-185 0 -310 -124q-127 -124 -127 -302
t127 -302zM507 425q65 0 106 -43t41 -110q0 -68 -43.5 -110t-110.5 -42q-64 0 -107.5 35t-51.5 93h41q8 -43 39.5 -69t78.5 -26q51 0 83 34t32 85q0 52 -32 86t-83 34q-39 0 -68 -18t-42 -49h-40l43 259h240v-36h-207l-29 -171q38 48 110 48z" />
    <glyph glyph-name="uni2465" unicode="&#x2465;" horiz-adv-x="956" 
d="M159 685q139 134 339 134t340 -134q138 -135 138 -329t-138 -328q-140 -135 -340 -135q-201 0 -339 135q-139 133 -139 328q0 194 139 329zM188 54q125 -124 310 -124q184 0 311 124q126 124 126 302t-126 302q-127 124 -311 124q-185 0 -310 -124q-127 -124 -127 -302
t127 -302zM507 425q65 0 109 -44q42 -44 42 -109q0 -67 -44 -109.5t-112 -42.5q-58 0 -98 31q-69 55 -69 198q0 118 42.5 181.5t128.5 63.5q58 0 96.5 -31.5t48.5 -84.5h-41q-9 39 -36 60.5t-68 21.5q-133 0 -133 -210v-13q17 41 52.5 64.5t81.5 23.5zM502 153q51 0 83 33.5
t32 84.5t-32.5 85t-82.5 34t-82 -34t-32 -85t32 -84.5t82 -33.5z" />
    <glyph glyph-name="uni2466" unicode="&#x2466;" horiz-adv-x="956" 
d="M159 685q139 134 339 134t340 -134q138 -135 138 -329t-138 -328q-140 -135 -340 -135q-201 0 -339 135q-139 133 -139 328q0 194 139 329zM188 54q125 -124 310 -124q184 0 311 124q126 124 126 302t-126 302q-127 124 -311 124q-185 0 -310 -124q-127 -124 -127 -302
t127 -302zM612 536h-254v36h297v-37q-178 -167 -182 -418h-43q2 118 48.5 227t133.5 192z" />
    <glyph glyph-name="uni2467" unicode="&#x2467;" horiz-adv-x="956" 
d="M159 685q139 134 339 134t340 -134q138 -135 138 -329t-138 -328q-140 -135 -340 -135q-201 0 -339 135q-139 133 -139 328q0 194 139 329zM188 54q125 -124 310 -124q184 0 311 124q126 124 126 302t-126 302q-127 124 -311 124q-185 0 -310 -124q-127 -124 -127 -302
t127 -302zM570 371q95 -29 95 -120q0 -59 -44.5 -95t-123.5 -36q-77 0 -121.5 36t-44.5 95q0 91 95 120q-73 31 -73 104q0 53 39.5 86t104.5 33q66 0 105.5 -32.5t39.5 -86.5q0 -35 -19 -62.5t-53 -41.5zM421 538q-30 -24 -30 -64t30 -64q29 -25 76 -25q48 0 78 24t30 65
q0 39 -30 63.5t-78 24.5q-46 0 -76 -24zM497 153q60 0 93.5 27.5t33.5 73.5t-33.5 74t-93.5 28q-59 0 -92 -28t-33 -74t33 -73.5t92 -27.5z" />
    <glyph glyph-name="uni2468" unicode="&#x2468;" horiz-adv-x="956" 
d="M159 685q139 134 339 134t340 -134q138 -135 138 -329t-138 -328q-140 -135 -340 -135q-201 0 -339 135q-139 133 -139 328q0 194 139 329zM188 54q125 -124 310 -124q184 0 311 124q126 124 126 302t-126 302q-127 124 -311 124q-185 0 -310 -124q-127 -124 -127 -302
t127 -302zM597 562q70 -55 70 -197q0 -117 -42 -181t-124 -64q-62 0 -101.5 31t-49.5 85h41q9 -39 37.5 -61t72.5 -22q127 0 127 211v11q-17 -40 -53 -63t-80 -23q-66 0 -108 44q-43 43 -43 108q0 66 44 110q43 43 111 43q57 0 98 -32zM416 358q31 -34 83 -34t83 34
q32 34 32 84t-32 85q-32 33 -83 33t-83 -33q-32 -35 -32 -85t32 -84z" />
    <glyph glyph-name="uni24EA" unicode="&#x24ea;" horiz-adv-x="956" 
d="M838 28q-140 -135 -340 -135q-201 0 -339 135q-139 133 -139 328q0 194 139 329q139 134 339 134t340 -134q138 -135 138 -329t-138 -328zM188 54q125 -124 310 -124q184 0 311 124q126 124 126 302t-126 302q-127 124 -311 124q-185 0 -310 -124q-127 -124 -127 -302
t127 -302zM499 120q-80 0 -123 63t-43 173q0 112 42.5 175t123.5 63q80 0 122 -63.5t42 -174.5q0 -110 -42 -173t-122 -63zM499 155q59 0 90 53t31 148t-31 148.5t-90 53.5q-60 0 -91.5 -53.5t-31.5 -148.5t31.5 -148t91.5 -53z" />
    <glyph glyph-name="uni24FF" unicode="&#x24ff;" horiz-adv-x="956" 
d="M740 -46q-109 -61 -242 -61t-242 61t-173 169q-63 107 -63 233q0 128 63 234t173 168q109 61 242 61t242 -61q110 -62 173 -168t63 -234q0 -126 -63 -233q-64 -108 -173 -169zM377 184q43 -64 122 -64t121 64q42 63 42 172q0 110 -42.5 173.5t-120.5 63.5q-79 0 -122 -63
t-43 -174q0 -110 43 -172zM499 153q-61 0 -93 53.5t-32 149.5q0 97 32 150.5t93 53.5q60 0 91.5 -53.5t31.5 -150.5q0 -95 -31.5 -149t-91.5 -54z" />
    <glyph glyph-name="filledbox" unicode="&#x25a0;" horiz-adv-x="956" 
d="M952 -88h-908v888h908v-888z" />
    <glyph glyph-name="uni25A1" unicode="&#x25a1;" horiz-adv-x="956" 
d="M952 -88h-908v888h908v-888zM85 763v-814h826v814h-826z" />
    <glyph glyph-name="lozenge" unicode="&#x25ca;" horiz-adv-x="561" 
d="M279 712h43l228 -356l-228 -356h-43l-228 356zM99 356l202 -316l201 316l-201 316z" />
    <glyph glyph-name="circle" unicode="&#x25cb;" horiz-adv-x="956" 
d="M838 28q-140 -135 -340 -135q-201 0 -339 135q-139 133 -139 328q0 194 139 329q139 134 339 134t340 -134q138 -135 138 -329t-138 -328zM188 54q125 -124 310 -124q184 0 311 124q126 124 126 302t-126 302q-127 124 -311 124q-185 0 -310 -124q-127 -124 -127 -302
t127 -302z" />
    <glyph glyph-name="uni25CF" unicode="&#x25cf;" horiz-adv-x="956" 
d="M740 -46q-109 -61 -242 -61t-242 61t-173 169q-63 107 -63 233q0 128 63 234t173 168q109 61 242 61t242 -61q110 -62 173 -168t63 -234q0 -126 -63 -233q-64 -108 -173 -169z" />
    <glyph glyph-name="uni2776" unicode="&#x2776;" horiz-adv-x="956" 
d="M740 -46q-109 -61 -242 -61t-242 61t-173 169q-63 107 -63 233q0 128 63 234t173 168q109 61 242 61t242 -61q110 -62 173 -168t63 -234q0 -126 -63 -233q-64 -108 -173 -169zM494 535v-398h39v452h-35q-35 -69 -126 -77v-28q82 5 122 51z" />
    <glyph glyph-name="uni2777" unicode="&#x2777;" horiz-adv-x="956" 
d="M740 -46q-109 -61 -242 -61t-242 61t-173 169q-63 107 -63 233q0 128 63 234t173 168q109 61 242 61t242 -61q110 -62 173 -168t63 -234q0 -126 -63 -233q-64 -108 -173 -169zM346 157l-1 -16h305v33h-263q3 85 108 137l43 22q106 52 106 141q0 56 -38 92.5t-107 36.5
t-106.5 -37t-39.5 -97h37q2 46 30 73.5t78 27.5q52 0 80 -26.5t28 -70.5q0 -69 -86 -111l-40 -20q-132 -62 -134 -185z" />
    <glyph glyph-name="uni2778" unicode="&#x2778;" horiz-adv-x="956" 
d="M740 -46q-109 -61 -242 -61t-242 61t-173 169q-63 107 -63 233q0 128 63 234t173 168q109 61 242 61t242 -61q110 -62 173 -168t63 -234q0 -126 -63 -233q-64 -108 -173 -169zM382 156q44 -36 116 -36q74 0 117 37q43 36 43 97q0 45 -26.5 76.5t-74.5 42.5q40 11 62 38.5
t22 65.5q0 53 -38.5 84.5t-104.5 31.5q-64 0 -103 -32.5t-41 -89.5h37q3 43 31.5 66.5t75.5 23.5q48 0 77 -24t29 -64q0 -41 -29.5 -64.5t-79.5 -23.5h-27v-29h26q59 0 92.5 -26.5t33.5 -74.5q0 -47 -33.5 -75t-88.5 -28q-57 0 -89.5 27.5t-33.5 77.5h-38q2 -65 45 -101z
" />
    <glyph glyph-name="uni2779" unicode="&#x2779;" horiz-adv-x="956" 
d="M740 -46q-109 -61 -242 -61t-242 61t-173 169q-63 107 -63 233q0 128 63 234t173 168q109 61 242 61t242 -61q110 -62 173 -168t63 -234q0 -126 -63 -233q-64 -108 -173 -169zM544 266v-126h40v126h71v33h-71v294h-42l-240 -289v-38h242zM546 299h-209l209 251v-251z" />
    <glyph glyph-name="uni277A" unicode="&#x277a;" horiz-adv-x="956" 
d="M740 -46q-109 -61 -242 -61t-242 61t-173 169q-63 107 -63 233q0 128 63 234t173 168q109 61 242 61t242 -61q110 -62 173 -168t63 -234q0 -126 -63 -233q-64 -108 -173 -169zM500 121q67 0 110 42t43 109q0 66 -40.5 108.5t-104.5 42.5q-76 0 -113 -52l29 179h207v33
h-236l-44 -256h38q31 66 111 66q51 0 83.5 -34t32.5 -87q0 -52 -32.5 -86t-83.5 -34q-47 0 -79 26t-40 69h-38q9 -57 51.5 -91.5t105.5 -34.5z" />
    <glyph glyph-name="uni277B" unicode="&#x277b;" horiz-adv-x="956" 
d="M740 -46q-109 -61 -242 -61t-242 61t-173 169q-63 107 -63 233q0 128 63 234t173 168q109 61 242 61t242 -61q110 -62 173 -168t63 -234q0 -126 -63 -233q-64 -108 -173 -169zM499 120q69 0 111.5 43t42.5 109q0 64 -42 108q-42 43 -107 43q-49 0 -85.5 -29t-45.5 -77
q-3 19 -3 50q3 194 133 194q41 0 69 -22t37 -60h38q-11 52 -49.5 83t-94.5 31q-85 0 -127.5 -63.5t-42.5 -180.5q0 -141 69 -197q41 -32 97 -32zM499 152q-50 0 -83 33.5t-33 85.5t33 86t83 34q51 0 84 -34.5t33 -85.5t-33 -85t-84 -34z" />
    <glyph glyph-name="uni277C" unicode="&#x277c;" horiz-adv-x="956" 
d="M740 -46q-109 -61 -242 -61t-242 61t-173 169q-63 107 -63 233q0 128 63 234t173 168q109 61 242 61t242 -61q110 -62 173 -168t63 -234q0 -126 -63 -233q-64 -108 -173 -169zM431 118h41q3 249 181 418v35h-294v-33h257q-87 -82 -134.5 -191.5t-50.5 -228.5z" />
    <glyph glyph-name="uni277D" unicode="&#x277d;" horiz-adv-x="956" 
d="M740 -46q-109 -61 -242 -61t-242 61t-173 169q-63 107 -63 233q0 128 63 234t173 168q109 61 242 61t242 -61q110 -62 173 -168t63 -234q0 -126 -63 -233q-64 -108 -173 -169zM377 156q43 -36 121 -36t121 36q44 36 44 95q0 93 -102 121q80 27 80 103q0 53 -39.5 85.5
t-103.5 32.5t-103.5 -32.5t-39.5 -85.5q0 -76 80 -103q-102 -28 -102 -121q0 -59 44 -95zM576 408q-31 -25 -78 -25q-48 0 -77 25q-30 26 -30 66t30 66q30 24 77 24q46 0 78 -24q30 -26 30 -66t-30 -66zM498 151q-59 0 -93 28.5t-34 74.5t34 74.5t93 28.5q60 0 94 -28
t34 -75t-34 -75t-94 -28z" />
    <glyph glyph-name="uni277E" unicode="&#x277e;" horiz-adv-x="956" 
d="M740 -46q-109 -61 -242 -61t-242 61t-173 169q-63 107 -63 233q0 128 63 234t173 168q109 61 242 61t242 -61q110 -62 173 -168t63 -234q0 -126 -63 -233q-64 -108 -173 -169zM498 120q83 0 125 64t42 181q0 140 -68 196q-43 32 -98 32q-67 0 -110 -43q-44 -44 -44 -109
q0 -64 43 -107q42 -44 107 -44q48 0 83.5 28t44.5 74l2 7q4 -17 4 -51q-4 -196 -131 -196q-42 0 -70.5 21.5t-37.5 60.5h-38q10 -51 49.5 -82.5t96.5 -31.5zM583 356q-33 -34 -84 -34t-84 35t-33 85q0 52 33 85.5t84 33.5t84 -33q32 -35 32 -86t-32 -86z" />
    <glyph glyph-name="uni2E18" unicode="&#x2e18;" horiz-adv-x="490" 
d="M269 586h64l-14 -63h-64zM366 74h41q-49 -216 -261 -216q-102 0 -149 49t-27 138q9 45 41 80.5t92 77.5q84 59 111 101q24 37 37 101h41l-59 -292l-23 -105h-44l23 105l30 139q-26 -29 -78 -67q-48 -35 -58 -43q-22 -19 -41 -43q-21 -27 -29 -57q-15 -69 20 -107t116 -38
q84 0 137.5 42t79.5 135z" />
    <glyph glyph-name="uniF8FF" unicode="&#xf8ff;" horiz-adv-x="705" 
d="M220 627l-27 -127h-18l67 316h18l-28 -131q33 50 88 50q40 0 56.5 -24t6.5 -71l-30 -140h-18l30 141q17 77 -49 77q-34 0 -60.5 -24t-35.5 -67zM679 816l-67 -316h-18l67 316h18zM477 496q-48 0 -69.5 34t-8.5 92q10 51 43 82.5t78 31.5q48 0 70 -34t10 -86l-1 -3l-1 -3
h-183q-14 -98 64 -98q64 0 90 65h18q-29 -81 -110 -81zM518 719q-36 0 -62.5 -24.5t-37.5 -68.5h164q8 42 -9 67.5t-55 25.5zM633 360h-182q-8 -46 8.5 -71.5t55.5 -25.5q62 0 89 64h19q-31 -81 -110 -81q-49 0 -70 34t-9 92q10 51 43.5 82.5t78.5 31.5q48 0 69 -33.5
t10 -85.5q-2 -2 -2 -7zM373 358l76 122h20l-142 -229h-20l-44 229h19l24 -123q6 -41 15 -87q20 37 52 88zM553 469q-35 0 -62 -25t-37 -67h163q8 42 -8.5 67t-55.5 25zM255 264h-20l8 41h20zM145 212l-34 -159q-9 -38 29 -38q14 0 20 1l-4 -16q-4 -1 -20 -1q-54 0 -44 55
l34 158h-40l4 17h39l14 65h19l-14 -65h57l-3 -17h-57zM324 11q29 0 52.5 18t34.5 49h19q-12 -37 -41.5 -60t-67.5 -23q-48 0 -69 34t-9 94q10 51 43 81.5t78 30.5q38 0 60 -22t20 -57h-18q-1 28 -18 45t-47 17q-35 0 -62.5 -27t-37.5 -72q-11 -51 6 -79.5t57 -28.5zM571 235
q41 0 60.5 -19.5t12.5 -52.5l-27 -124q-4 -26 -1 -39h-18q-3 12 2 40v1q-30 -46 -89 -46q-39 0 -58.5 19.5t-11.5 52.5q12 49 89 60l43 5q47 6 53 31l1 4q5 24 -10 38t-48 14q-68 0 -80 -58h-18q15 74 100 74zM179 0l49 229h19l-49 -229h-19zM514 11q82 0 98 87l8 37
q-14 -12 -49 -17l-41 -6q-63 -8 -71 -46q-5 -26 9.5 -40.5t45.5 -14.5z" />
    <glyph glyph-name="uniFEFF" unicode="&#xfeff;" 
 />
    <glyph glyph-name="null" 
 />
    <glyph glyph-name="Adieresis.ss01" horiz-adv-x="654" 
d="M369 772q-9 -9 -20.5 -10.5t-20 4.5t-14 14.5t-4.5 20t10 20.5q15 15 33.5 8.5t23.5 -24t-8 -33.5zM537 772q-9 -9 -20.5 -10.5t-20 4.5t-14 14.5t-4.5 20t10 20.5q15 15 33.5 8.5t23.5 -24t-8 -33.5zM582 0h-43l-44 220h-358l-137 -220h-47l441 712h48zM283 456
l-123 -198h328l-40 199q-19 102 -38 210q-18 -31 -127 -211z" />
    <glyph glyph-name="Cdotaccent.ss01" horiz-adv-x="690" 
d="M496 788q-7 -7 -15 -9.5t-14.5 -1t-13 5.5t-10.5 10.5t-5.5 14t1 15t8.5 14.5q15 15 33.5 8.5t23.5 -24t-8 -33.5zM306 -16q-152 0 -217 105q-65 106 -26 287q33 154 138 253t245 99q117 0 183 -68t64 -188h-43q1 104 -54 160.5t-154 56.5q-122 0 -214 -89
q-92 -90 -122 -230q-35 -161 19 -253q54 -94 184 -94q103 0 184 63.5t117 174.5h43q-39 -130 -133 -203q-95 -74 -214 -74z" />
    <glyph glyph-name="Edieresis.ss01" horiz-adv-x="568" 
d="M334 772q-9 -9 -20.5 -10.5t-20 4.5t-14 14.5t-4.5 20t10 20.5q15 15 33.5 8.5t23.5 -24t-8 -33.5zM502 772q-9 -9 -20.5 -10.5t-20 4.5t-14 14.5t-4.5 20t10 20.5q15 15 33.5 8.5t23.5 -24t-8 -33.5zM631 712l-8 -39h-426l-60 -281h386l-8 -39h-387l-67 -314h431l-9 -39
h-473l152 712h469z" />
    <glyph glyph-name="Edotaccent.ss01" horiz-adv-x="568" 
d="M424 772q-9 -9 -20.5 -10.5t-20 4.5t-14 14.5t-4.5 20t10 20.5q15 15 33.5 8.5t23.5 -24t-8 -33.5zM631 712l-8 -39h-426l-60 -281h386l-8 -39h-387l-67 -314h431l-9 -39h-473l152 712h469z" />
    <glyph glyph-name="uni0122.ss01" horiz-adv-x="729" 
d="M712 478h-44q3 95 -58 153t-166 58q-124 0 -216 -89t-122 -227q-34 -160 26 -255t193 -95q123 0 209 82q87 83 114 211h-254l8 39h294l-76 -355h-37l26 152q-101 -168 -288 -168q-153 0 -225 108q-72 107 -33 287q32 152 137 251q104 98 249 98q125 0 196 -69
q71 -71 67 -181zM323 -54q35 0 35 -44q0 -40 -25.5 -75t-67.5 -49l6 26q48 21 59 81q-8 -2 -9 -2q-14 0 -23 8.5t-9 21.5q0 14 9.5 23.5t24.5 9.5z" />
    <glyph glyph-name="Gdotaccent.ss01" horiz-adv-x="729" 
d="M496 788q-7 -7 -15 -9.5t-14.5 -1t-13 5.5t-10.5 10.5t-5.5 14t1 15t8.5 14.5q15 15 33.5 8.5t23.5 -24t-8 -33.5zM712 478h-44q3 95 -58 153t-166 58q-124 0 -216 -89t-122 -227q-34 -160 26 -255t193 -95q123 0 209 82q87 83 114 211h-254l8 39h294l-76 -355h-37
l26 152q-101 -168 -288 -168q-153 0 -225 108q-72 107 -33 287q32 152 137 251q104 98 249 98q125 0 196 -69q71 -71 67 -181z" />
    <glyph glyph-name="Idieresis.ss01" horiz-adv-x="173" 
d="M148 772q-9 -9 -20.5 -10.5t-20 4.5t-14 14.5t-4.5 20t10 20.5q15 15 33.5 8.5t23.5 -24t-8 -33.5zM284 772q-15 -16 -33.5 -9.5t-23 24t8.5 34.5q15 15 33.5 8.5t22.5 -24t-8 -33.5zM53 0h-43l152 712h43z" />
    <glyph glyph-name="Idotaccent.ss01" horiz-adv-x="173" 
d="M225 772q-15 -16 -33.5 -9.5t-23 24t8.5 34.5q15 15 33.5 8.5t22.5 -24t-8 -33.5zM53 0h-43l152 712h43z" />
    <glyph glyph-name="uni0136.ss01" horiz-adv-x="628" 
d="M648 712h59l-382 -301l237 -411h-47l-225 385l-185 -146l-51 -239h-43l151 712h43l-89 -419zM262 -39q35 0 35 -44q0 -40 -25.5 -75t-67.5 -49l6 26q48 21 59 81q-8 -2 -9 -2q-14 0 -23 8.5t-9 21.5q0 14 9.5 23.5t24.5 9.5z" />
    <glyph glyph-name="uni013B.ss01" horiz-adv-x="502" 
d="M205 712l-144 -673h372l-8 -39h-415l152 712h43zM211 -39q35 0 35 -44q0 -40 -25.5 -75t-67.5 -49l6 26q48 21 59 81q-8 -2 -9 -2q-14 0 -23 8.5t-9 21.5q0 14 9.5 23.5t24.5 9.5z" />
    <glyph glyph-name="Ldot.ss01" horiz-adv-x="502" 
d="M205 712l-144 -673h372l-8 -39h-415l152 712h43zM385 332q-23 -2 -32 17t0 38t32 17q22 2 31.5 -17t0 -38t-31.5 -17z" />
    <glyph glyph-name="uni0145.ss01" horiz-adv-x="671" 
d="M552 238l101 474h42l-152 -712h-52l-240 509q-43 93 -66 155q-28 -133 -39 -185l-101 -479h-43l152 712h52l241 -509q49 -108 65 -156q6 26 14.5 67.5t15 72t10.5 51.5zM258 -39q35 0 35 -44q0 -40 -25.5 -75t-67.5 -49l6 26q48 21 59 81q-8 -2 -9 -2q-14 0 -23 8.5
t-9 21.5q0 14 9.5 23.5t24.5 9.5z" />
    <glyph glyph-name="Odieresis.ss01" horiz-adv-x="731" 
d="M418 788q-7 -7 -15 -9.5t-14.5 -1t-13 5.5t-10.5 10.5t-5.5 14t1 15t8.5 14.5q15 15 33.5 8.5t23.5 -24t-8 -33.5zM586 788q-7 -7 -15 -9.5t-14.5 -1t-13 5.5t-10.5 10.5t-5.5 14t1 15t8.5 14.5q15 15 33.5 8.5t23.5 -24t-8 -33.5zM318 -16q-153 0 -223 106
q-71 106 -33 282q33 156 141 256q107 100 253 100q153 0 223 -106t33 -278q-33 -158 -141 -258q-108 -102 -253 -102zM321 23q128 0 222 91q95 92 126 236q33 152 -26 246q-59 93 -192 93q-125 0 -220 -90q-95 -92 -126 -232q-33 -156 25 -250t191 -94z" />
    <glyph glyph-name="uni0156.ss01" horiz-adv-x="623" 
d="M162 712h269q115 0 169 -53t33 -154q-14 -66 -63.5 -108t-125.5 -53q69 -8 94.5 -44t13.5 -108l-19 -109q-9 -51 8 -83h-44q-16 31 -6 86l19 107q12 69 -18 100.5t-113 31.5h-256l-69 -325h-43zM590 506q18 84 -24.5 125.5t-138.5 41.5h-230l-66 -309h251q83 0 137.5 37
t70.5 105zM260 -39q35 0 35 -44q0 -40 -25.5 -75t-67.5 -49l6 26q48 21 59 81q-8 -2 -9 -2q-14 0 -23 8.5t-9 21.5q0 14 9.5 23.5t24.5 9.5z" />
    <glyph glyph-name="uni0218.ss01" horiz-adv-x="601" 
d="M378 728q122 0 178 -55t44 -146h-44q12 77 -34 119.5t-148 42.5q-91 0 -147.5 -36t-68.5 -97q-14 -68 19 -106.5t128 -58.5l71 -15q108 -24 148 -75.5t22 -141.5q-18 -81 -89 -128t-190 -47q-133 0 -197.5 56.5t-52.5 166.5h44q-10 -94 42 -139t169 -45q102 0 159.5 38
t70.5 104q15 73 -18.5 113t-133.5 61l-73 16q-195 42 -163 204q16 78 85.5 123.5t178.5 45.5zM253 -53q35 0 35 -44q0 -40 -25.5 -75t-67.5 -49l6 26q48 21 59 81q-8 -2 -9 -2q-14 0 -23 8.5t-9 21.5q0 14 9.5 23.5t24.5 9.5z" />
    <glyph glyph-name="uni021A.ss01" horiz-adv-x="608" 
d="M120 712h563l-9 -39h-259l-143 -673h-44l143 673h-259zM235 -39q35 0 35 -44q0 -40 -25.5 -75t-67.5 -49l6 26q48 21 59 81q-8 -2 -9 -2q-14 0 -23 8.5t-9 21.5q0 14 9.5 23.5t24.5 9.5z" />
    <glyph glyph-name="Udieresis.ss01" horiz-adv-x="641" 
d="M362 772q-9 -9 -20.5 -10.5t-20 4.5t-14 14.5t-4.5 20t10 20.5q15 15 33.5 8.5t23.5 -24t-8 -33.5zM530 772q-9 -9 -20.5 -10.5t-20 4.5t-14 14.5t-4.5 20t10 20.5q15 15 33.5 8.5t23.5 -24t-8 -33.5zM283 -16q-135 0 -195 78t-28 227l92 423h42l-93 -431
q-27 -129 22.5 -193.5t163.5 -64.5q208 0 257 232l96 457h43l-98 -464q-55 -264 -302 -264z" />
    <glyph glyph-name="Wdieresis.ss01" horiz-adv-x="964" 
d="M530 772q-9 -9 -20.5 -10.5t-20 4.5t-14 14.5t-4.5 20t10 20.5q15 15 33.5 8.5t23.5 -24t-8 -33.5zM698 772q-9 -9 -20.5 -10.5t-20 4.5t-14 14.5t-4.5 20t10 20.5q15 15 33.5 8.5t23.5 -24t-8 -33.5zM748 231l255 481h45l-374 -712h-50l-46 505q-9 126 -10 156l-76 -155
l-262 -506h-50l-72 712h43l50 -481q14 -177 14 -182q34 73 90 184l248 479h49l43 -479q10 -120 12 -185q18 38 91 183z" />
    <glyph glyph-name="Ydieresis.ss01" horiz-adv-x="624" 
d="M366 772q-9 -9 -20.5 -10.5t-20 4.5t-14 14.5t-4.5 20t10 20.5q15 15 33.5 8.5t23.5 -24t-8 -33.5zM534 772q-9 -9 -20.5 -10.5t-20 4.5t-14 14.5t-4.5 20t10 20.5q15 15 33.5 8.5t23.5 -24t-8 -33.5zM485 523l171 189h52l-364 -404l-66 -308h-43l66 308l-193 404h47
l90 -190q29 -60 81 -180q24 27 48.5 54.5t44 51t26.5 30.5q5 5 11 12t14.5 17t14.5 16z" />
    <glyph glyph-name="Zdotaccent.ss01" horiz-adv-x="582" 
d="M431 772q-9 -9 -20.5 -10.5t-20 4.5t-14 14.5t-4.5 20t10 20.5q15 15 33.5 8.5t23.5 -24t-8 -33.5zM645 712l-9 -40l-445 -468q-106 -112 -161 -167q92 2 207 2h270l-9 -39h-526l8 40l445 468q67 72 161 167q-92 -2 -207 -2h-245l9 39h502z" />
    <glyph glyph-name="G.ss03" horiz-adv-x="723" 
d="M721 478h-43q2 95 -59 153t-168 58q-121 0 -218 -89q-96 -87 -128 -235q-33 -155 26 -249q59 -93 193 -93q125 0 212 81q87 80 122 217h-275l8 39h319l-4 -8q2 -6 1 -8q-35 -164 -135 -261q-100 -99 -251 -99q-155 0 -225 105q-72 106 -35 278q33 161 142 261
q107 100 253 100q126 0 196 -69q70 -70 69 -181z" />
    <glyph glyph-name="uni01F4.ss03" horiz-adv-x="723" 
d="M567 915h58l-144 -144h-41zM721 478h-43q2 95 -59 153t-168 58q-121 0 -218 -89q-96 -87 -128 -235q-33 -155 26 -249q59 -93 193 -93q125 0 212 81q87 80 122 217h-275l8 39h319l-4 -8q2 -6 1 -8q-35 -164 -135 -261q-100 -99 -251 -99q-155 0 -225 105q-72 106 -35 278
q33 161 142 261q107 100 253 100q126 0 196 -69q70 -70 69 -181z" />
    <glyph glyph-name="Gbreve.ss03" horiz-adv-x="723" 
d="M475 767q-64 0 -98 36t-28 94h35q-2 -44 23 -70t72 -26q41 0 73 26.5t45 69.5h36q-15 -59 -57.5 -94.5t-100.5 -35.5zM721 478h-43q2 95 -59 153t-168 58q-121 0 -218 -89q-96 -87 -128 -235q-33 -155 26 -249q59 -93 193 -93q125 0 212 81q87 80 122 217h-275l8 39h319
l-4 -8q2 -6 1 -8q-35 -164 -135 -261q-100 -99 -251 -99q-155 0 -225 105q-72 106 -35 278q33 161 142 261q107 100 253 100q126 0 196 -69q70 -70 69 -181z" />
    <glyph glyph-name="Gcircumflex.ss03" horiz-adv-x="723" 
d="M579 771l-82 120l-134 -120h-43l148 144h62l88 -144h-39zM721 478h-43q2 95 -59 153t-168 58q-121 0 -218 -89q-96 -87 -128 -235q-33 -155 26 -249q59 -93 193 -93q125 0 212 81q87 80 122 217h-275l8 39h319l-4 -8q2 -6 1 -8q-35 -164 -135 -261q-100 -99 -251 -99
q-155 0 -225 105q-72 106 -35 278q33 161 142 261q107 100 253 100q126 0 196 -69q70 -70 69 -181z" />
    <glyph glyph-name="uni0122.ss03" horiz-adv-x="723" 
d="M721 478h-43q2 95 -59 153t-168 58q-121 0 -218 -89q-96 -87 -128 -235q-33 -155 26 -249q59 -93 193 -93q125 0 212 81q87 80 122 217h-275l8 39h319l-4 -8q2 -6 1 -8q-35 -164 -135 -261q-100 -99 -251 -99q-155 0 -225 105q-72 106 -35 278q33 161 142 261
q107 100 253 100q126 0 196 -69q70 -70 69 -181zM306 -116h-36l12 57h62l-16 -77q-16 -72 -72 -84l-13 -3l6 25l8 2q32 9 44 59z" />
    <glyph glyph-name="Gdotaccent.ss03" horiz-adv-x="723" 
d="M465 862h43l-19 -91h-43zM721 478h-43q2 95 -59 153t-168 58q-121 0 -218 -89q-96 -87 -128 -235q-33 -155 26 -249q59 -93 193 -93q125 0 212 81q87 80 122 217h-275l8 39h319l-4 -8q2 -6 1 -8q-35 -164 -135 -261q-100 -99 -251 -99q-155 0 -225 105q-72 106 -35 278
q33 161 142 261q107 100 253 100q126 0 196 -69q70 -70 69 -181z" />
    <glyph glyph-name="uni0122.ss01.ss03" horiz-adv-x="723" 
d="M721 478h-43q2 95 -59 153t-168 58q-121 0 -218 -89q-96 -87 -128 -235q-33 -155 26 -249q59 -93 193 -93q125 0 212 81q87 80 122 217h-275l8 39h319l-4 -8q2 -6 1 -8q-35 -164 -135 -261q-100 -99 -251 -99q-155 0 -225 105q-72 106 -35 278q33 161 142 261
q107 100 253 100q126 0 196 -69q70 -70 69 -181zM304 -55q35 0 35 -44q0 -40 -25.5 -75t-67.5 -49l6 26q48 21 59 81q-8 -2 -9 -2q-14 0 -23 8.5t-9 21.5q0 14 9.5 23.5t24.5 9.5z" />
    <glyph glyph-name="Gdotaccent.ss01.ss03" horiz-adv-x="723" 
d="M501 788q-7 -7 -15 -9.5t-14.5 -1t-13 5.5t-10.5 10.5t-5.5 14t1 15t8.5 14.5q15 15 33.5 8.5t23.5 -24t-8 -33.5zM721 478h-43q2 95 -59 153t-168 58q-121 0 -218 -89q-96 -87 -128 -235q-33 -155 26 -249q59 -93 193 -93q125 0 212 81q87 80 122 217h-275l8 39h319
l-4 -8q2 -6 1 -8q-35 -164 -135 -261q-100 -99 -251 -99q-155 0 -225 105q-72 106 -35 278q33 161 142 261q107 100 253 100q126 0 196 -69q70 -70 69 -181z" />
    <glyph glyph-name="R.ss04" horiz-adv-x="613" 
d="M162 712h265q111 0 164.5 -59t32.5 -161q-18 -84 -81.5 -134t-159.5 -54l155 -304h-50l-155 304h-215l-64 -304h-43zM580 498q19 84 -23 129.5t-136 45.5h-224l-70 -330h247q82 0 136 41t70 114z" />
    <glyph glyph-name="Racute.ss04" horiz-adv-x="613" 
d="M500 899h58l-144 -144h-41zM162 712h265q111 0 164.5 -59t32.5 -161q-18 -84 -81.5 -134t-159.5 -54l155 -304h-50l-155 304h-215l-64 -304h-43zM580 498q19 84 -23 129.5t-136 45.5h-224l-70 -330h247q82 0 136 41t70 114z" />
    <glyph glyph-name="Rcaron.ss04" horiz-adv-x="613" 
d="M581 899l-148 -144h-62l-88 144h39l82 -120l134 120h43zM162 712h265q111 0 164.5 -59t32.5 -161q-18 -84 -81.5 -134t-159.5 -54l155 -304h-50l-155 304h-215l-64 -304h-43zM580 498q19 84 -23 129.5t-136 45.5h-224l-70 -330h247q82 0 136 41t70 114z" />
    <glyph glyph-name="uni0156.ss04" horiz-adv-x="613" 
d="M162 712h265q111 0 164.5 -59t32.5 -161q-18 -84 -81.5 -134t-159.5 -54l155 -304h-50l-155 304h-215l-64 -304h-43zM580 498q19 84 -23 129.5t-136 45.5h-224l-70 -330h247q82 0 136 41t70 114zM260 -100h-36l12 57h62l-16 -77q-16 -72 -72 -84l-13 -3l6 25l8 2
q32 9 44 59z" />
    <glyph glyph-name="uni0156.ss01.ss04" horiz-adv-x="613" 
d="M162 712h265q111 0 164.5 -59t32.5 -161q-18 -84 -81.5 -134t-159.5 -54l155 -304h-50l-155 304h-215l-64 -304h-43zM580 498q19 84 -23 129.5t-136 45.5h-224l-70 -330h247q82 0 136 41t70 114zM259 -39q35 0 35 -44q0 -40 -25.5 -75t-67.5 -49l6 26q48 21 59 81
q-8 -2 -9 -2q-14 0 -23 8.5t-9 21.5q0 14 9.5 23.5t24.5 9.5z" />
    <glyph glyph-name="i.loclTRK" horiz-adv-x="161" 
d="M174 594h-43l19 91h43zM47 0h-41l110 516h41z" />
    <glyph glyph-name="adieresis.ss01" horiz-adv-x="504" 
d="M263 611q-15 -16 -33.5 -9.5t-23 24t8.5 34.5q15 15 33.5 8.5t22.5 -24t-8 -33.5zM431 611q-15 -16 -33.5 -9.5t-23 24t8.5 34.5q15 15 33.5 8.5t22.5 -24t-8 -33.5zM465 365l-57 -271q-14 -62 32 -62q4 0 22 2l-7 -34q-22 -2 -31 -2q-36 0 -51.5 23t-5.5 65l2 10
q-71 -107 -207 -107q-86 0 -126 44t-24 119q26 114 206 135l86 10q62 7 88.5 23.5t35.5 52.5q12 56 -20.5 87.5t-108.5 31.5q-79 0 -121 -30t-59 -98h-40q20 85 73.5 124.5t151.5 39.5q95 0 136 -43t25 -120zM169 24q79 0 138 42.5t82 123.5l24 112q-30 -25 -107 -36
l-86 -11q-147 -19 -167 -111q-12 -56 17.5 -88t98.5 -32z" />
    <glyph glyph-name="cdotaccent.ss01" horiz-adv-x="507" 
d="M362 611q-15 -16 -33.5 -9.5t-23 24t8.5 34.5q15 15 33.5 8.5t22.5 -24t-8 -33.5zM219 -12q-106 0 -156 77t-21 212q24 113 98 182t174 69q85 0 134.5 -49t47.5 -129h-43q-1 64 -40 102.5t-105 38.5q-81 0 -142 -60t-83 -162q-24 -117 14 -180.5t128 -63.5q66 0 119 41
t76 110h43q-27 -82 -92 -135q-67 -53 -152 -53z" />
    <glyph glyph-name="edieresis.ss01" horiz-adv-x="531" 
d="M273 611q-15 -16 -33.5 -9.5t-23 24t8.5 34.5q15 15 33.5 8.5t22.5 -24t-8 -33.5zM441 611q-15 -16 -33.5 -9.5t-23 24t8.5 34.5q15 15 33.5 8.5t22.5 -24t-8 -33.5zM315 528q111 0 157 -76t21 -192q-1 -5 -4 -15h-411q-17 -103 20.5 -161t123.5 -58q68 0 120.5 37.5
t80.5 106.5h42q-31 -87 -95.5 -134.5t-151.5 -47.5q-109 0 -157 76.5t-21 206.5q24 113 99 185q73 72 176 72zM310 490q-81 0 -140 -55t-84 -152h368q18 93 -20.5 150t-123.5 57z" />
    <glyph glyph-name="edotaccent.ss01" horiz-adv-x="531" 
d="M362 611q-15 -16 -33.5 -9.5t-23 24t8.5 34.5q15 15 33.5 8.5t22.5 -24t-8 -33.5zM315 528q111 0 157 -76t21 -192q-1 -5 -4 -15h-411q-17 -103 20.5 -161t123.5 -58q68 0 120.5 37.5t80.5 106.5h42q-31 -87 -95.5 -134.5t-151.5 -47.5q-109 0 -157 76.5t-21 206.5
q24 113 99 185q73 72 176 72zM310 490q-81 0 -140 -55t-84 -152h368q18 93 -20.5 150t-123.5 57z" />
    <glyph glyph-name="uni0123.ss01" horiz-adv-x="549" 
d="M344 601q-35 0 -35 44q0 40 25.5 75.5t67.5 49.5l-6 -26q-49 -22 -59 -82q8 2 9 2q14 0 23 -8.5t9 -21.5q0 -14 -9.5 -23.5t-24.5 -9.5zM482 404l24 112h39l-106 -496q-25 -118 -85 -173t-169 -55q-92 0 -138.5 42t-41.5 115h41q-3 -59 32.5 -90.5t110.5 -31.5
q90 0 139 45.5t70 147.5l16 75q-77 -107 -196 -107q-104 0 -154 80t-23 206q26 119 98 186.5t174 67.5q64 0 107.5 -32.5t61.5 -91.5zM225 25q81 0 141 57.5t85 156.5l7 35q17 101 -22.5 159t-123.5 58q-87 0 -146.5 -59.5t-81.5 -163.5q-23 -111 15 -177t126 -66z" />
    <glyph glyph-name="gdotaccent.ss01" horiz-adv-x="549" 
d="M370 612q-15 -16 -33.5 -9.5t-23 24t8.5 34.5q15 15 33.5 8.5t22.5 -24t-8 -33.5zM482 404l24 112h39l-106 -496q-25 -118 -85 -173t-169 -55q-92 0 -138.5 42t-41.5 115h41q-3 -59 32.5 -90.5t110.5 -31.5q90 0 139 45.5t70 147.5l16 75q-77 -107 -196 -107
q-104 0 -154 80t-23 206q26 119 98 186.5t174 67.5q64 0 107.5 -32.5t61.5 -91.5zM225 25q81 0 141 57.5t85 156.5l7 35q17 101 -22.5 159t-123.5 58q-87 0 -146.5 -59.5t-81.5 -163.5q-23 -111 15 -177t126 -66z" />
    <glyph glyph-name="i.ss01" horiz-adv-x="161" 
d="M185 611q-15 -16 -33.5 -9.5t-23 24t8.5 34.5q15 15 33.5 8.5t22.5 -24t-8 -33.5zM47 0h-41l110 516h41z" />
    <glyph glyph-name="idieresis.ss01" horiz-adv-x="161" 
d="M117 611q-16 -17 -37.5 -8t-21.5 32q0 14 10 24.5t25 10.5q22 0 30.5 -21.5t-6.5 -37.5zM254 611q-7 -7 -15 -9.5t-14.5 -1t-13 5.5t-10.5 10.5t-5.5 14t1 15t8.5 14.5q15 15 33.5 8.5t23.5 -24t-8 -33.5zM47 0h-41l110 516h41z" />
    <glyph glyph-name="i.loclTRK.ss01" horiz-adv-x="161" 
d="M185 611q-15 -16 -33.5 -9.5t-23 24t8.5 34.5q15 15 33.5 8.5t22.5 -24t-8 -33.5zM47 0h-41l110 516h41z" />
    <glyph glyph-name="ij.ss01" horiz-adv-x="324" 
d="M185 611q-15 -16 -33.5 -9.5t-23 24t8.5 34.5q15 15 33.5 8.5t22.5 -24t-8 -33.5zM346 611q-15 -16 -33.5 -9.5t-23 24t8.5 34.5q15 15 33.5 8.5t22.5 -24t-8 -33.5zM47 0h-41l110 516h41zM66 -198q-38 0 -47 1l8 35h40q65 0 81 78l128 600h41l-129 -604
q-23 -110 -122 -110z" />
    <glyph glyph-name="iogonek.ss01" horiz-adv-x="161" 
d="M137 660q15 15 33.5 8.5t22.5 -24t-8 -33.5q-15 -16 -33.5 -9.5t-23 24t8.5 34.5zM14 0h-8l110 516h41l-110 -516q-68 -61 -82 -120q-11 -54 36 -54q18 0 39 8l-7 -33q-20 -9 -43 -9q-35 0 -52 23t-8 63q14 56 84 122z" />
    <glyph glyph-name="j.ss01" horiz-adv-x="164" 
d="M185 611q-15 -16 -33.5 -9.5t-23 24t8.5 34.5q15 15 33.5 8.5t22.5 -24t-8 -33.5zM-95 -198q-38 0 -47 1l8 35h40q64 0 81 78l128 600h41l-129 -604q-23 -110 -122 -110z" />
    <glyph glyph-name="uni0137.ss01" horiz-adv-x="488" 
d="M458 516h56l-251 -194l157 -322h-43l-146 299l-144 -111l-40 -188h-41l152 712h41l-101 -471zM186 -39q35 0 35 -44q0 -40 -25.5 -75t-67.5 -49l6 26q48 21 59 81q-8 -2 -9 -2q-14 0 -23 8.5t-9 21.5q0 14 9.5 23.5t24.5 9.5z" />
    <glyph glyph-name="uni013C.ss01" horiz-adv-x="161" 
d="M6 0l152 712h41l-152 -712h-41zM11 -39q35 0 35 -44q0 -40 -25.5 -75t-67.5 -49l6 26q48 21 59 81q-8 -2 -9 -2q-14 0 -23 8.5t-9 21.5q0 14 9.5 23.5t24.5 9.5z" />
    <glyph glyph-name="ldot.ss01" horiz-adv-x="323" 
d="M47 0h-41l152 712h41zM263 318q-23 -2 -32 17t0 38t32 17q22 1 31.5 -17.5t0 -37t-31.5 -17.5z" />
    <glyph glyph-name="napostrophe.ss01" horiz-adv-x="632" 
d="M167 714q38 0 38 -47q0 -46 -29 -90q-30 -44 -80 -59l6 31q60 25 70 98q-2 -1 -7 -1q-27 -3 -33 23.5t14 39.5q9 6 21 5zM442 528q89 0 127.5 -54.5t15.5 -158.5l-68 -315h-41l68 318q36 173 -111 173q-76 0 -135 -53t-80 -151l-61 -287h-41l110 516h39l-22 -101
q35 54 87 83.5t112 29.5z" />
    <glyph glyph-name="uni0146.ss01" horiz-adv-x="522" 
d="M332 528q89 0 127.5 -54.5t15.5 -158.5l-68 -315h-41l68 318q36 173 -111 173q-76 0 -135 -53t-80 -151l-61 -287h-41l110 516h39l-22 -101q35 54 87 83.5t112 29.5zM196 -39q35 0 35 -44q0 -40 -25.5 -75t-67.5 -49l6 26q48 21 59 81q-8 -2 -9 -2q-14 0 -23 8.5t-9 21.5
q0 14 9.5 23.5t24.5 9.5z" />
    <glyph glyph-name="odieresis.ss01" horiz-adv-x="545" 
d="M282 612q-15 -16 -33.5 -9.5t-23 24t8.5 34.5q15 15 33.5 8.5t22.5 -24t-8 -33.5zM450 612q-15 -16 -33.5 -9.5t-23 24t8.5 34.5q15 15 33.5 8.5t22.5 -24t-8 -33.5zM228 -12q-114 0 -164.5 75.5t-23.5 204.5q24 114 102 187q76 73 176 73q114 0 165 -76q50 -78 22 -205
q-24 -112 -101 -186q-77 -73 -176 -73zM230 25q82 0 147 63q63 62 86 163q24 111 -15 175.5t-131 64.5q-85 0 -149 -64q-65 -65 -86 -162q-23 -111 16 -175.5t132 -64.5z" />
    <glyph glyph-name="uni0157.ss01" horiz-adv-x="339" 
d="M342 522q23 0 31 -1l-8 -39q-7 1 -28 1q-84 0 -143.5 -48t-81.5 -131l-65 -304h-41l110 516h39l-24 -112q35 54 89 86t122 32zM10 -39q35 0 35 -44q0 -40 -25.5 -75t-67.5 -49l6 26q48 21 59 81q-8 -2 -9 -2q-14 0 -23 8.5t-9 21.5q0 14 9.5 23.5t24.5 9.5z" />
    <glyph glyph-name="uni0219.ss01" horiz-adv-x="468" 
d="M447 375h-40q5 58 -27.5 87.5t-109.5 29.5q-64 0 -105.5 -24.5t-50.5 -67.5q-10 -50 17 -77t95 -39l52 -9q82 -15 112.5 -52.5t14.5 -108.5q-13 -60 -65.5 -93t-141.5 -33q-106 0 -154 45t-38 125h41q-14 -134 156 -134q142 0 163 97q11 52 -13.5 79.5t-94.5 39.5l-51 8
q-160 30 -133 157q12 57 65.5 90t134.5 33q96 0 137.5 -39.5t35.5 -113.5zM183 -49q35 0 35 -44q0 -40 -25.5 -75t-67.5 -49l6 26q48 21 59 81q-8 -2 -9 -2q-14 0 -23 8.5t-9 21.5q0 14 9.5 23.5t24.5 9.5z" />
    <glyph glyph-name="uni021B.ss01" horiz-adv-x="293" 
d="M319 480h-128l-76 -359q-18 -87 65 -87q26 0 44 2l-7 -35q-25 -3 -45 -3q-60 0 -86 32t-13 92l76 358h-89l8 36h89l31 146h41l-31 -146h129zM140 -39q35 0 35 -44q0 -40 -25.5 -75t-67.5 -49l6 26q48 21 59 81q-8 -2 -9 -2q-14 0 -23 8.5t-9 21.5q0 14 9.5 23.5t24.5 9.5
z" />
    <glyph glyph-name="udieresis.ss01" horiz-adv-x="522" 
d="M270 611q-15 -16 -33.5 -9.5t-23 24t8.5 34.5q15 15 33.5 8.5t22.5 -24t-8 -33.5zM438 611q-15 -16 -33.5 -9.5t-23 24t8.5 34.5q15 15 33.5 8.5t22.5 -24t-8 -33.5zM414 229l61 287h41l-110 -516h-39l22 101q-35 -54 -87 -83.5t-112 -29.5q-89 0 -127.5 54.5
t-15.5 158.5l67 315h42l-68 -318q-36 -173 111 -173q76 0 135 53t80 151z" />
    <glyph glyph-name="wdieresis.ss01" horiz-adv-x="795" 
d="M409 611q-15 -16 -33.5 -9.5t-23 24t8.5 34.5q15 15 33.5 8.5t22.5 -24t-8 -33.5zM577 611q-15 -16 -33.5 -9.5t-23 24t8.5 34.5q15 15 33.5 8.5t22.5 -24t-8 -33.5zM604 197l184 319h46l-298 -516h-45l-40 348q-11 95 -12 122q-60 -118 -62 -122l-187 -348h-46l-78 516
h43l47 -319q3 -19 18 -152q32 64 80 152l172 319h45l36 -319q4 -27 11 -105q0 -11 4 -49q32 65 82 154z" />
    <glyph glyph-name="ydieresis.ss01" horiz-adv-x="476" 
d="M246 611q-15 -16 -33.5 -9.5t-23 24t8.5 34.5q15 15 33.5 8.5t22.5 -24t-8 -33.5zM414 611q-15 -16 -33.5 -9.5t-23 24t8.5 34.5q15 15 33.5 8.5t22.5 -24t-8 -33.5zM312 242l160 274h46l-344 -584q-41 -71 -78 -100t-93 -29q-26 0 -44 2l7 35q9 -1 39 -1q41 0 69.5 24
t61.5 78q2 3 27 46l-94 529h44l48 -273l34 -208q61 109 80 142q6 11 14 25t13.5 23.5t9.5 16.5z" />
    <glyph glyph-name="zdotaccent.ss01" horiz-adv-x="472" 
d="M340 611q-15 -16 -33.5 -9.5t-23 24t8.5 34.5q15 15 33.5 8.5t22.5 -24t-8 -33.5zM473 483l-350 -362q-40 -43 -85 -86q24 1 107 1h249l-7 -36h-407l7 33l352 364q19 20 84 85q-50 -2 -107 -2h-223l8 36h380z" />
    <glyph glyph-name="a.ss02" horiz-adv-x="559" 
d="M486 397l26 119h41l-110 -516h-39l22 102q-80 -114 -207 -114q-108 0 -156 77q-49 76 -23 202q26 115 99 189q73 72 176 72q66 0 110.5 -34.5t60.5 -96.5zM98 89q37 -64 127 -64q89 0 152 63q63 61 84 167q23 107 -18 172q-42 65 -130 65q-85 0 -147 -63
q-63 -65 -84 -165q-23 -111 16 -175z" />
    <glyph glyph-name="aacute.ss02" horiz-adv-x="559" 
d="M430 738h53l-118 -144h-36zM486 397l26 119h41l-110 -516h-39l22 102q-80 -114 -207 -114q-108 0 -156 77q-49 76 -23 202q26 115 99 189q73 72 176 72q66 0 110.5 -34.5t60.5 -96.5zM98 89q37 -64 127 -64q89 0 152 63q63 61 84 167q23 107 -18 172q-42 65 -130 65
q-85 0 -147 -63q-63 -65 -84 -165q-23 -111 16 -175z" />
    <glyph glyph-name="abreve.ss02" horiz-adv-x="559" 
d="M352 590q-64 0 -98 36t-27 94h35q-3 -45 21.5 -70.5t72.5 -25.5q42 0 73 26t46 70h36q-15 -59 -58 -94.5t-101 -35.5zM486 397l26 119h41l-110 -516h-39l22 102q-80 -114 -207 -114q-108 0 -156 77q-49 76 -23 202q26 115 99 189q73 72 176 72q66 0 110.5 -34.5
t60.5 -96.5zM98 89q37 -64 127 -64q89 0 152 63q63 61 84 167q23 107 -18 172q-42 65 -130 65q-85 0 -147 -63q-63 -65 -84 -165q-23 -111 16 -175z" />
    <glyph glyph-name="acircumflex.ss02" horiz-adv-x="559" 
d="M451 594l-82 120l-134 -120h-43l148 144h62l88 -144h-39zM486 397l26 119h41l-110 -516h-39l22 102q-80 -114 -207 -114q-108 0 -156 77q-49 76 -23 202q26 115 99 189q73 72 176 72q66 0 110.5 -34.5t60.5 -96.5zM98 89q37 -64 127 -64q89 0 152 63q63 61 84 167
q23 107 -18 172q-42 65 -130 65q-85 0 -147 -63q-63 -65 -84 -165q-23 -111 16 -175z" />
    <glyph glyph-name="adieresis.ss02" horiz-adv-x="559" 
d="M246 685h43l-20 -91h-43zM433 685h43l-20 -91h-43zM486 397l26 119h41l-110 -516h-39l22 102q-80 -114 -207 -114q-108 0 -156 77q-49 76 -23 202q26 115 99 189q73 72 176 72q66 0 110.5 -34.5t60.5 -96.5zM98 89q37 -64 127 -64q89 0 152 63q63 61 84 167
q23 107 -18 172q-42 65 -130 65q-85 0 -147 -63q-63 -65 -84 -165q-23 -111 16 -175z" />
    <glyph glyph-name="agrave.ss02" horiz-adv-x="559" 
d="M324 738l41 -144h-33l-61 144h53zM486 397l26 119h41l-110 -516h-39l22 102q-80 -114 -207 -114q-108 0 -156 77q-49 76 -23 202q26 115 99 189q73 72 176 72q66 0 110.5 -34.5t60.5 -96.5zM98 89q37 -64 127 -64q89 0 152 63q63 61 84 167q23 107 -18 172
q-42 65 -130 65q-85 0 -147 -63q-63 -65 -84 -165q-23 -111 16 -175z" />
    <glyph glyph-name="amacron.ss02" horiz-adv-x="559" 
d="M217 629h264l-8 -35h-264zM486 397l26 119h41l-110 -516h-39l22 102q-80 -114 -207 -114q-108 0 -156 77q-49 76 -23 202q26 115 99 189q73 72 176 72q66 0 110.5 -34.5t60.5 -96.5zM98 89q37 -64 127 -64q89 0 152 63q63 61 84 167q23 107 -18 172q-42 65 -130 65
q-85 0 -147 -63q-63 -65 -84 -165q-23 -111 16 -175z" />
    <glyph glyph-name="aogonek.ss02" horiz-adv-x="559" 
d="M553 516l-110 -516q-125 -61 -139 -120q-6 -25 8.5 -39t41.5 -14q30 0 60 11l-7 -34q-31 -12 -64 -12q-40 0 -63.5 23t-16.5 59q17 76 139 128h2l22 100q-80 -114 -207 -114q-108 0 -156 77q-49 76 -23 202q26 115 99 189q73 72 176 72q66 0 110.5 -34.5t60.5 -96.5
l26 119h41zM98 89q37 -64 127 -64q89 0 152 63q62 61 85 167q23 108 -19 172q-42 65 -130 65q-85 0 -147 -63q-63 -63 -84 -165q-23 -111 16 -175z" />
    <glyph glyph-name="aring.ss02" horiz-adv-x="559" 
d="M364 592q-47 0 -79 31.5t-32 77.5t32 77t79 31q46 0 78.5 -31.5t32.5 -76.5q0 -46 -32.5 -77.5t-78.5 -31.5zM419 756q-33 37 -84.5 15.5t-48.5 -70.5q0 -33 23 -55.5t55 -22.5t55 22.5t23 55.5q0 32 -23 55zM486 397l26 119h41l-110 -516h-39l22 102q-80 -114 -207 -114
q-108 0 -156 77q-49 76 -23 202q26 115 99 189q73 72 176 72q66 0 110.5 -34.5t60.5 -96.5zM98 89q37 -64 127 -64q89 0 152 63q63 61 84 167q23 107 -18 172q-42 65 -130 65q-85 0 -147 -63q-63 -65 -84 -165q-23 -111 16 -175z" />
    <glyph glyph-name="aringacute.ss02" horiz-adv-x="559" 
d="M488 1023h54l-118 -144h-36zM364 592q-47 0 -79 31.5t-32 77.5t32 77t79 31q46 0 78.5 -31.5t32.5 -76.5q0 -46 -32.5 -77.5t-78.5 -31.5zM419 756q-33 37 -84.5 15.5t-48.5 -70.5q0 -33 23 -55.5t55 -22.5t55 22.5t23 55.5q0 32 -23 55zM486 397l26 119h41l-110 -516
h-39l22 102q-80 -114 -207 -114q-108 0 -156 77q-49 76 -23 202q26 115 99 189q73 72 176 72q66 0 110.5 -34.5t60.5 -96.5zM98 89q37 -64 127 -64q89 0 152 63q63 61 84 167q23 107 -18 172q-42 65 -130 65q-85 0 -147 -63q-63 -65 -84 -165q-23 -111 16 -175z" />
    <glyph glyph-name="atilde.ss02" horiz-adv-x="559" 
d="M282 665q-43 0 -60 -71h-35q24 109 98 109q35 0 76 -38q38 -33 65 -33q41 0 58 71h35q-25 -109 -97 -109q-32 0 -78 39q-38 32 -62 32zM486 397l26 119h41l-110 -516h-39l22 102q-80 -114 -207 -114q-108 0 -156 77q-49 76 -23 202q26 115 99 189q73 72 176 72
q66 0 110.5 -34.5t60.5 -96.5zM98 89q37 -64 127 -64q89 0 152 63q63 61 84 167q23 107 -18 172q-42 65 -130 65q-85 0 -147 -63q-63 -65 -84 -165q-23 -111 16 -175z" />
    <glyph glyph-name="adieresis.ss01.ss02" horiz-adv-x="559" 
d="M285 611q-15 -16 -33.5 -9.5t-23 24t8.5 34.5q15 15 33.5 8.5t22.5 -24t-8 -33.5zM453 611q-15 -16 -33.5 -9.5t-23 24t8.5 34.5q15 15 33.5 8.5t22.5 -24t-8 -33.5zM486 397l26 119h41l-110 -516h-39l22 102q-80 -114 -207 -114q-108 0 -156 77q-49 76 -23 202
q26 115 99 189q73 72 176 72q66 0 110.5 -34.5t60.5 -96.5zM98 89q37 -64 127 -64q89 0 152 63q63 61 84 167q23 107 -18 172q-42 65 -130 65q-85 0 -147 -63q-63 -65 -84 -165q-23 -111 16 -175z" />
    <glyph glyph-name="uni021B.ss01.ss05" horiz-adv-x="272" 
d="M206 516h108l-8 -36h-107l-102 -480h-42l102 480h-89l7 36h89l31 146h42zM62 -39q35 0 35 -44q0 -40 -25.5 -75t-67.5 -49l6 26q48 21 59 81q-8 -2 -9 -2q-14 0 -23 8.5t-9 21.5q0 14 9.5 23.5t24.5 9.5z" />
    <glyph glyph-name="udieresis.ss01.ss05" horiz-adv-x="522" 
d="M270 611q-15 -16 -33.5 -9.5t-23 24t8.5 34.5q15 15 33.5 8.5t22.5 -24t-8 -33.5zM438 611q-15 -16 -33.5 -9.5t-23 24t8.5 34.5q15 15 33.5 8.5t22.5 -24t-8 -33.5zM414 229l61 287h41l-110 -516h-39l22 101q-35 -54 -87 -83.5t-112 -29.5q-89 0 -127.5 54.5
t-15.5 158.5l67 315h42l-68 -318q-36 -173 111 -173q76 0 135 53t80 151z" />
    <glyph glyph-name="t.ss05" horiz-adv-x="272" 
d="M206 516h108l-8 -36h-107l-102 -480h-42l102 480h-89l7 36h89l31 146h42z" />
    <glyph glyph-name="tbar.ss05" horiz-adv-x="278" 
d="M319 516l-7 -36h-108l-43 -199h100l-7 -34h-100l-52 -247h-41l52 247h-94l6 34h95l43 199h-89l7 36h89l31 146h41l-31 -146h108z" />
    <glyph glyph-name="tcaron.ss05" horiz-adv-x="272" 
d="M356 712h44l-95 -166h-33zM195 662h42l-31 -146h108l-8 -36h-107l-102 -480h-42l102 480h-89l7 36h89z" />
    <glyph glyph-name="uni0163.ss05" horiz-adv-x="272" 
d="M199 480l-102 -480h-2l-55 -58h6q45 0 69 -23t16 -57q-17 -74 -135 -74q-35 0 -57 5l6 26q20 -4 55 -4q82 0 92 51q5 25 -12.5 39t-56.5 14q-16 0 -21 -1l4 22l53 60h-4l102 480h-89l7 36h89l31 146h42l-31 -146h108l-8 -36h-107z" />
    <glyph glyph-name="uni021B.ss05" horiz-adv-x="272" 
d="M206 516h108l-8 -36h-107l-102 -480h-42l102 480h-89l7 36h89l31 146h42zM62 -100h-36l12 57h62l-16 -77q-16 -72 -72 -84l-13 -3l6 25l8 2q32 9 44 59z" />
    <glyph glyph-name="udieresis.ss01.ss06" horiz-adv-x="522" 
d="M276 611q-15 -16 -33.5 -9.5t-23 24t8.5 34.5q15 15 33.5 8.5t22.5 -24t-8 -33.5zM444 611q-15 -16 -33.5 -9.5t-23 24t8.5 34.5q15 15 33.5 8.5t22.5 -24t-8 -33.5zM219 -12q-95 0 -144 60q-49 58 -26 164l66 304h41l-67 -311q-18 -84 19 -132t115 -48q70 0 117.5 42.5
t64.5 121.5l70 327h41l-72 -338q-19 -89 -77.5 -139.5t-147.5 -50.5z" />
    <glyph glyph-name="u.ss06" horiz-adv-x="522" 
d="M219 -12q-95 0 -144 60q-49 58 -26 164l66 304h41l-67 -311q-18 -84 19 -132t115 -48q70 0 117.5 42.5t64.5 121.5l70 327h41l-72 -338q-19 -89 -77.5 -139.5t-147.5 -50.5z" />
    <glyph glyph-name="uacute.ss06" horiz-adv-x="522" 
d="M356 594h-36l101 144h53zM219 -12q-95 0 -144 60q-49 58 -26 164l66 304h41l-67 -311q-18 -84 19 -132t115 -48q70 0 117.5 42.5t64.5 121.5l70 327h41l-72 -338q-19 -89 -77.5 -139.5t-147.5 -50.5z" />
    <glyph glyph-name="ubreve.ss06" horiz-adv-x="522" 
d="M343 590q-64 0 -98 36t-27 94h35q-3 -45 21.5 -70.5t72.5 -25.5q42 0 73 26t46 70h36q-15 -59 -58 -94.5t-101 -35.5zM219 -12q-95 0 -144 60q-49 58 -26 164l66 304h41l-67 -311q-18 -84 19 -132t115 -48q70 0 117.5 42.5t64.5 121.5l70 327h41l-72 -338
q-19 -89 -77.5 -139.5t-147.5 -50.5z" />
    <glyph glyph-name="ucircumflex.ss06" horiz-adv-x="522" 
d="M442 594l-82 120l-134 -120h-43l148 144h62l88 -144h-39zM405 189l70 327h41l-72 -338q-19 -89 -77.5 -139.5t-147.5 -50.5q-95 0 -144 60q-49 58 -26 164l66 304h41l-67 -311q-18 -84 19 -132t115 -48q70 0 117.5 42.5t64.5 121.5z" />
    <glyph glyph-name="udieresis.ss06" horiz-adv-x="522" 
d="M259 594h-43l20 91h43zM446 594h-43l20 91h43zM219 -12q-95 0 -144 60q-49 58 -26 164l66 304h41l-67 -311q-18 -84 19 -132t115 -48q70 0 117.5 42.5t64.5 121.5l70 327h41l-72 -338q-19 -89 -77.5 -139.5t-147.5 -50.5z" />
    <glyph glyph-name="ugrave.ss06" horiz-adv-x="522" 
d="M355 594h-33l-61 144h53zM219 -12q-95 0 -144 60q-49 58 -26 164l66 304h41l-67 -311q-18 -84 19 -132t115 -48q70 0 117.5 42.5t64.5 121.5l70 327h41l-72 -338q-19 -89 -77.5 -139.5t-147.5 -50.5z" />
    <glyph glyph-name="uhungarumlaut.ss06" horiz-adv-x="522" 
d="M280 594h-36l101 144h52zM419 594h-36l101 144h52zM219 -12q-95 0 -144 60q-49 58 -26 164l66 304h41l-67 -311q-18 -84 19 -132t115 -48q70 0 117.5 42.5t64.5 121.5l70 327h41l-72 -338q-19 -89 -77.5 -139.5t-147.5 -50.5z" />
    <glyph glyph-name="umacron.ss06" horiz-adv-x="522" 
d="M464 594h-264l8 35h264zM219 -12q-95 0 -144 60q-49 58 -26 164l66 304h41l-67 -311q-18 -84 19 -132t115 -48q70 0 117.5 42.5t64.5 121.5l70 327h41l-72 -338q-19 -89 -77.5 -139.5t-147.5 -50.5z" />
    <glyph glyph-name="uogonek.ss06" horiz-adv-x="522" 
d="M405 189l70 327h41l-72 -338q-32 -142 -148 -179q-125 -59 -139 -119q-6 -25 8.5 -39t42.5 -14q30 0 60 11l-8 -34q-30 -12 -63 -12q-41 0 -64.5 23t-15.5 59q12 65 109 114h-7q-95 0 -144 60q-49 58 -26 164l66 304h41l-67 -311q-18 -84 19 -132t115 -48
q70 0 117.5 42.5t64.5 121.5z" />
    <glyph glyph-name="uring.ss06" horiz-adv-x="522" 
d="M354 592q-47 0 -79 31.5t-32 77.5t32 77t79 31q46 0 78.5 -31.5t32.5 -76.5q0 -46 -32.5 -77.5t-78.5 -31.5zM299 646q25 -23 55 -23.5t55 22.5t23 56q0 32 -23 54.5t-55 22.5t-55 -22.5t-23 -54.5t23 -55zM219 -12q-95 0 -144 60q-49 58 -26 164l66 304h41l-67 -311
q-18 -84 19 -132t115 -48q70 0 117.5 42.5t64.5 121.5l70 327h41l-72 -338q-19 -89 -77.5 -139.5t-147.5 -50.5z" />
    <glyph glyph-name="utilde.ss06" horiz-adv-x="522" 
d="M213 594h-35q24 109 98 109q35 0 76 -38q39 -33 65 -33q41 0 58 71h35q-25 -109 -97 -109q-31 0 -78 39q-38 32 -62 32q-43 0 -60 -71zM219 -12q-95 0 -144 60q-49 58 -26 164l66 304h41l-67 -311q-18 -84 19 -132t115 -48q70 0 117.5 42.5t64.5 121.5l70 327h41
l-72 -338q-19 -89 -77.5 -139.5t-147.5 -50.5z" />
    <glyph glyph-name="ydieresis.ss01.ss07" horiz-adv-x="476" 
d="M254 611q-15 -16 -33.5 -9.5t-23 24t8.5 34.5q15 15 33.5 8.5t22.5 -24t-8 -33.5zM422 611q-15 -16 -33.5 -9.5t-23 24t8.5 34.5q15 15 33.5 8.5t22.5 -24t-8 -33.5zM313 248l159 268h46l-427 -712h-42l120 198l-100 514h43l51 -270l35 -197q35 62 115 199z" />
    <glyph glyph-name="y.ss07" horiz-adv-x="476" 
d="M313 248l159 268h46l-427 -712h-42l120 198l-100 514h43l51 -270l35 -197q35 62 115 199z" />
    <glyph glyph-name="yacute.ss07" horiz-adv-x="476" 
d="M399 738h53l-118 -144h-36zM313 248l159 268h46l-427 -712h-42l120 198l-100 514h43l51 -270l35 -197q35 62 115 199z" />
    <glyph glyph-name="ycircumflex.ss07" horiz-adv-x="476" 
d="M420 594l-82 120l-134 -120h-43l148 144h62l88 -144h-39zM313 248l159 268h46l-427 -712h-42l120 198l-100 514h43l51 -270l35 -197q35 62 115 199z" />
    <glyph glyph-name="ydieresis.ss07" horiz-adv-x="476" 
d="M215 685h43l-20 -91h-43zM402 685h43l-20 -91h-43zM313 248l159 268h46l-427 -712h-42l120 198l-100 514h43l51 -270l35 -197q35 62 115 199z" />
    <glyph glyph-name="ygrave.ss07" horiz-adv-x="476" 
d="M293 738l41 -144h-33l-61 144h53zM313 248l159 268h46l-427 -712h-42l120 198l-100 514h43l51 -270l35 -197q35 62 115 199z" />
    <glyph glyph-name="l.ss08" horiz-adv-x="207" 
d="M119 -2q-54 0 -77 32.5t-10 91.5l126 590h41l-126 -593q-18 -85 56 -85q23 0 37 2l-7 -35q-23 -3 -40 -3z" />
    <glyph glyph-name="lacute.ss08" horiz-adv-x="207" 
d="M199 755h-41l127 144h58zM119 -2q-54 0 -77 32.5t-10 91.5l126 590h41l-126 -593q-18 -85 56 -85q23 0 37 2l-7 -35q-23 -3 -40 -3z" />
    <glyph glyph-name="lcaron.ss08" horiz-adv-x="228" 
d="M119 -2q-54 0 -77 32.5t-10 91.5l126 590h41l-126 -593q-18 -85 56 -85q23 0 37 2l-7 -35q-23 -3 -40 -3zM243 546h-33l84 166h44z" />
    <glyph glyph-name="uni013C.ss08" horiz-adv-x="207" 
d="M199 712l-126 -593q-18 -85 56 -85q23 0 37 2l-7 -35q-23 -3 -40 -3q-54 0 -77 32.5t-10 91.5l126 590h41zM12 -100h-36l12 57h62l-16 -77q-16 -72 -72 -84l-13 -3l6 25l8 2q32 9 44 59z" />
    <glyph glyph-name="ldot.ss08" horiz-adv-x="318" 
d="M119 -2q-54 0 -77 32.5t-10 91.5l126 590h41l-126 -593q-18 -85 56 -85q23 0 37 2l-7 -35q-23 -3 -40 -3zM278 323h-64l14 63h64z" />
    <glyph glyph-name="lslash.ss08" horiz-adv-x="226" 
d="M248 401l-97 -51l-49 -231q-18 -85 56 -85q23 0 37 2l-7 -35q-22 -3 -40 -3q-54 0 -77 32.5t-10 91.5l44 204l-103 -54l9 40l102 53l74 347h41l-68 -322l97 51z" />
    <glyph glyph-name="uni013C.ss01.ss08" horiz-adv-x="207" 
d="M199 712l-126 -593q-18 -85 56 -85q23 0 37 2l-7 -35q-23 -3 -40 -3q-54 0 -77 32.5t-10 91.5l126 590h41zM11 -39q35 0 35 -44q0 -40 -25.5 -75t-67.5 -49l6 26q48 21 59 81q-8 -2 -9 -2q-14 0 -23 8.5t-9 21.5q0 14 9.5 23.5t24.5 9.5z" />
    <glyph glyph-name="ldot.ss01.ss08" horiz-adv-x="323" 
d="M119 -2q-54 0 -77 32.5t-10 91.5l126 590h41l-126 -593q-18 -85 56 -85q23 0 37 2l-7 -35q-23 -3 -40 -3zM263 318q-23 -2 -32 17t0 38t32 17q22 1 31.5 -17.5t0 -37t-31.5 -17.5z" />
    <glyph glyph-name="fi.ss01" horiz-adv-x="445" 
d="M318 516l-9 -36h-118l-103 -480h-41l102 480h-89l8 36h89l17 79q24 119 144 119q15 0 45 -2l-7 -35q-9 1 -43 1q-79 0 -99 -89l-16 -73h120zM421 660q15 15 33.5 8.5t22.5 -24t-8 -33.5q-15 -16 -33.5 -9.5t-23 24t8.5 34.5zM331 0h-41l110 516h41z" />
    <glyph glyph-name="fl.ss08" horiz-adv-x="520" 
d="M318 516l-9 -36h-118l-103 -480h-41l102 480h-89l8 36h89l17 79q24 119 144 119q15 0 45 -2l-7 -35q-9 1 -43 1q-79 0 -99 -89l-16 -73h120zM467 712l-126 -593q-18 -85 56 -85q23 0 37 2l-7 -35q-23 -3 -40 -3q-54 0 -77 32.5t-10 91.5l126 590h41z" />
    <glyph glyph-name="ordfeminine.ss02" horiz-adv-x="491" 
d="M471 603l23 108h40l-95 -449h-39l20 96q-66 -106 -178 -106q-93 0 -138 68q-46 68 -21 183q21 99 83.5 158.5t150.5 59.5q60 0 100.5 -31.5t53.5 -86.5zM247 287q74 0 126.5 53.5t73.5 145.5q19 90 -17.5 145t-112.5 55q-73 0 -124.5 -51.5t-69.5 -137.5
q-20 -95 14.5 -152.5t109.5 -57.5z" />
    <glyph glyph-name="t.sups.ss05" horiz-adv-x="262" 
d="M238 712h96l-7 -34h-96l-88 -416h-40l88 416h-77l7 34h77l27 127h40z" />
    <glyph glyph-name="zero.ss09" horiz-adv-x="956" 
d="M952 -88h-908v888h908v-888zM377 184q43 -64 122 -64t121 64q42 63 42 172q0 110 -42.5 173.5t-120.5 63.5q-79 0 -122 -63t-43 -174q0 -110 43 -172zM499 153q-61 0 -93 53.5t-32 149.5q0 97 32 150.5t93 53.5q60 0 91.5 -53.5t31.5 -150.5q0 -95 -31.5 -149t-91.5 -54z
" />
    <glyph glyph-name="one.ss09" horiz-adv-x="956" 
d="M952 -88h-908v888h908v-888zM494 535v-398h38v452h-34q-37 -69 -127 -77v-28q79 4 123 51z" />
    <glyph glyph-name="two.ss09" horiz-adv-x="956" 
d="M952 -88h-908v888h908v-888zM346 157l-1 -16h305v33h-263q3 85 108 137l43 22q106 52 106 141q0 56 -38 92.5t-107 36.5t-106.5 -37t-39.5 -97h37q2 46 30 73.5t78 27.5q52 0 80 -26.5t28 -70.5q0 -69 -86 -111l-40 -20q-132 -62 -134 -185z" />
    <glyph glyph-name="three.ss09" horiz-adv-x="956" 
d="M952 -88h-908v888h908v-888zM382 156q44 -36 116 -36q74 0 117 37q43 36 43 97q0 45 -26.5 76.5t-74.5 42.5q40 11 62 38.5t22 65.5q0 53 -38.5 84.5t-104.5 31.5q-64 0 -103 -32.5t-41 -89.5h37q3 43 31.5 66.5t75.5 23.5q48 0 77 -24t29 -64q0 -41 -29.5 -64.5
t-79.5 -23.5h-27v-29h26q59 0 92.5 -26.5t33.5 -74.5q0 -47 -33.5 -75t-88.5 -28q-57 0 -89.5 27.5t-33.5 77.5h-38q2 -65 45 -101z" />
    <glyph glyph-name="four.ss09" horiz-adv-x="956" 
d="M952 -88h-908v888h908v-888zM544 266v-126h40v126h71v33h-71v294h-42l-240 -289v-38h242zM546 299h-209l209 251v-251z" />
    <glyph glyph-name="five.ss09" horiz-adv-x="956" 
d="M952 -88h-908v888h908v-888zM500 121q67 0 110 42t43 109q0 66 -40.5 108.5t-104.5 42.5q-76 0 -113 -52l29 179h207v33h-236l-44 -256h38q31 66 111 66q51 0 83.5 -34t32.5 -87q0 -52 -32.5 -86t-83.5 -34q-47 0 -79 26t-40 69h-38q9 -57 51.5 -91.5t105.5 -34.5z" />
    <glyph glyph-name="six.ss09" horiz-adv-x="956" 
d="M952 -88h-908v888h908v-888zM499 120q69 0 111.5 43t42.5 109q0 64 -42 108q-42 43 -107 43q-49 0 -85.5 -29t-45.5 -77q-3 19 -3 50q3 194 133 194q41 0 69 -22t37 -60h38q-11 52 -49.5 83t-94.5 31q-85 0 -127.5 -63.5t-42.5 -180.5q0 -141 69 -197q41 -32 97 -32z
M499 152q-50 0 -83 33.5t-33 85.5t33 86t83 34q51 0 84 -34.5t33 -85.5t-33 -85t-84 -34z" />
    <glyph glyph-name="seven.ss09" horiz-adv-x="956" 
d="M952 -88h-908v888h908v-888zM431 124h41q3 249 181 418v34h-294v-33h257q-87 -82 -134.5 -191.5t-50.5 -227.5z" />
    <glyph glyph-name="eight.ss09" horiz-adv-x="956" 
d="M952 -88h-908v888h908v-888zM377 156q43 -36 121 -36t121 36q44 36 44 95q0 93 -102 121q80 27 80 103q0 53 -39.5 85.5t-103.5 32.5t-103.5 -32.5t-39.5 -85.5q0 -76 80 -103q-102 -28 -102 -121q0 -59 44 -95zM576 408q-31 -25 -78 -25q-48 0 -77 25q-30 26 -30 66
t30 66q30 24 77 24q46 0 78 -24q30 -26 30 -66t-30 -66zM498 151q-59 0 -93 28.5t-34 74.5t34 74.5t93 28.5q60 0 94 -28t34 -75t-34 -75t-94 -28z" />
    <glyph glyph-name="nine.ss09" horiz-adv-x="956" 
d="M952 -88h-908v888h908v-888zM498 120q83 0 125 64t42 181q0 140 -68 196q-43 32 -98 32q-67 0 -110 -43q-44 -44 -44 -109q0 -64 43 -107q42 -44 107 -44q48 0 83.5 28t44.5 74l2 7q4 -17 4 -51q-4 -196 -131 -196q-42 0 -70.5 21.5t-37.5 60.5h-38q10 -51 49.5 -82.5
t96.5 -31.5zM583 356q-33 -34 -84 -34t-84 35t-33 85q0 52 33 85.5t84 33.5t84 -33q32 -35 32 -86t-32 -86z" />
    <glyph glyph-name="zero.ss10" horiz-adv-x="956" 
d="M952 -88h-908v888h908v-888zM85 763v-814h826v814h-826zM499 120q-80 0 -123 63t-43 173q0 112 42.5 175t123.5 63q80 0 122 -63.5t42 -174.5q0 -110 -42 -173t-122 -63zM499 155q59 0 90 53t31 148t-31 148.5t-90 53.5q-60 0 -91.5 -53.5t-31.5 -148.5t31.5 -148
t91.5 -53z" />
    <glyph glyph-name="one.ss10" horiz-adv-x="956" 
d="M44 -88v888h908v-888h-908zM85 -51h826v814h-826v-814zM533 129h-41v393q-40 -40 -123 -45v30q92 9 127 77h37v-455z" />
    <glyph glyph-name="two.ss10" horiz-adv-x="956" 
d="M44 -88v888h908v-888h-908zM85 -51h826v814h-826v-814zM389 165h263v-36h-307v17q3 122 135 187l40 20q86 44 86 109q0 42 -27.5 69t-79.5 27q-50 0 -77.5 -28.5t-29.5 -73.5h-40q2 61 40 99.5t108 38.5q69 0 107.5 -37t38.5 -94q0 -89 -107 -142l-43 -21
q-103 -53 -107 -135z" />
    <glyph glyph-name="three.ss10" horiz-adv-x="956" 
d="M44 -88v888h908v-888h-908zM85 -51h826v814h-826v-814zM498 153q54 0 87 27.5t33 74.5t-33 73t-91 26h-27v32h28q49 0 78.5 23t29.5 64q0 40 -29 63.5t-76 23.5t-75.5 -24t-29.5 -66h-41q2 58 41.5 91t104.5 33q66 0 105.5 -32t39.5 -85q0 -36 -21 -64t-56 -40
q43 -10 68 -41.5t25 -77.5q0 -61 -43.5 -97.5t-117.5 -36.5q-75 0 -118.5 36.5t-43.5 101.5h40q1 -50 33.5 -77.5t88.5 -27.5z" />
    <glyph glyph-name="four.ss10" horiz-adv-x="956" 
d="M44 -88v888h908v-888h-908zM85 -51h826v814h-826v-814zM593 129h-42v125h-243v41l241 289h44v-294h72v-36h-72v-125zM552 290v246l-205 -246h205z" />
    <glyph glyph-name="five.ss10" horiz-adv-x="956" 
d="M44 -88v888h908v-888h-908zM85 -51h826v814h-826v-814zM500 153q51 0 83 34t32 85q0 52 -32 86t-83 34q-39 0 -68 -18t-42 -49h-40l43 259h240v-36h-207l-29 -171q38 48 110 48q65 0 106 -43t41 -110q0 -68 -43.5 -110t-110.5 -42q-64 0 -107.5 35t-51.5 93h41
q8 -43 39.5 -69t78.5 -26z" />
    <glyph glyph-name="six.ss10" horiz-adv-x="956" 
d="M44 -88v888h908v-888h-908zM85 -51h826v814h-826v-814zM406 151q-69 55 -69 198q0 118 42.5 181.5t128.5 63.5q58 0 96.5 -31.5t48.5 -84.5h-41q-9 39 -36 60.5t-68 21.5q-133 0 -133 -210v-13q16 40 52.5 64t81.5 24q65 0 109 -44q42 -44 42 -109q0 -67 -44 -109.5
t-112 -42.5q-57 0 -98 31zM504 390q-50 0 -82 -34t-32 -85t32 -84.5t82 -33.5q51 0 83.5 33.5t32.5 84.5t-32.5 85t-83.5 34z" />
    <glyph glyph-name="seven.ss10" horiz-adv-x="956" 
d="M44 -88v888h908v-888h-908zM85 -51h826v814h-826v-814zM471 129h-44q3 118 50 227t133 192h-255v36h297v-37q-177 -167 -181 -418z" />
    <glyph glyph-name="eight.ss10" horiz-adv-x="956" 
d="M44 -88v888h908v-888h-908zM85 -51h826v814h-826v-814zM331 251q0 91 95 120q-73 31 -73 104q0 53 39.5 86t104.5 33q66 0 105.5 -32.5t39.5 -86.5q0 -35 -19 -62.5t-53 -41.5q95 -29 95 -120q0 -59 -44.5 -95t-123.5 -36q-77 0 -121.5 36t-44.5 95zM421 538
q-30 -24 -30 -64t30 -64q29 -25 76 -25q48 0 78 24t30 65q0 39 -30 63.5t-78 24.5q-46 0 -76 -24zM497 356q-59 0 -92 -28t-33 -74t33 -73.5t92 -27.5q60 0 93.5 27.5t33.5 73.5t-33.5 74t-93.5 28z" />
    <glyph glyph-name="nine.ss10" horiz-adv-x="956" 
d="M44 -88v888h908v-888h-908zM85 -51h826v814h-826v-814zM488 288q-66 0 -108 44q-43 43 -43 108q0 66 44 110q43 43 111 43q57 0 98 -32q70 -55 70 -197q0 -117 -42 -181t-124 -64q-62 0 -101.5 31t-49.5 85h41q9 -39 37.5 -61t72.5 -22q127 0 127 211v13
q-17 -41 -52.5 -64.5t-80.5 -23.5zM575 526q-32 33 -83 33q-52 0 -83 -33q-33 -34 -33 -85t33 -84q31 -34 83 -34t83 34q32 34 32 84t-32 85z" />
    <glyph glyph-name="zero.zero" horiz-adv-x="595" 
d="M388 728q125 0 169.5 -100t5.5 -284q-37 -171 -117.5 -265.5t-195.5 -94.5q-126 0 -170.5 100.5t-4.5 288.5q37 168 117.5 261.5t195.5 93.5zM120 370q-29 -135 -14 -218l413 452q-36 85 -134 85q-95 0 -163.5 -84.5t-101.5 -234.5zM518 344q28 136 12 222l-413 -453
q31 -90 135 -90q96 0 164.5 84.5t101.5 236.5z" />
    <glyph glyph-name="zero.dnom" horiz-adv-x="340" 
d="M127 -10q-75 0 -106 61.5t-8 168.5q19 95 65 148t116 53q75 0 105.5 -60.5t8.5 -165.5q-45 -205 -181 -205zM128 22q106 0 143 175q20 91 -1 142t-78 51q-106 0 -143 -175q-19 -90 2 -141.5t77 -51.5z" />
    <glyph glyph-name="one.dnom" horiz-adv-x="218" 
d="M91 0h-36l77 364q-47 -41 -121 -45l6 27q86 8 129 68h32z" />
    <glyph glyph-name="two.dnom" horiz-adv-x="316" 
d="M243 0h-280l3 15q21 108 160 169l40 18q87 40 100 97q9 41 -12.5 66t-70.5 25q-47 0 -76.5 -24.5t-36.5 -66.5h-36q10 56 49.5 89t101.5 33q67 0 97.5 -34.5t18.5 -89.5q-17 -75 -124 -123l-41 -18q-58 -27 -88 -56t-40 -69h241z" />
    <glyph glyph-name="three.dnom" horiz-adv-x="322" 
d="M114 -8q-66 0 -103.5 34.5t-29.5 90.5h34q-5 -43 22 -69t79 -26q100 0 120 83q11 49 -14.5 75t-78.5 26h-23l5 27h25q46 0 77.5 19.5t38.5 53.5q10 39 -13 62t-71 23q-88 0 -109 -81h-35q11 53 50 82t96 29q62 0 94.5 -32.5t21.5 -85.5q-6 -31 -32 -54.5t-63 -29.5
q39 -10 57.5 -41t7.5 -76q-12 -50 -53 -80t-103 -30z" />
    <glyph glyph-name="four.dnom" horiz-adv-x="348" 
d="M250 146h66l-8 -32h-65l-24 -114h-38l25 114h-222l9 37l274 262h40zM261 370l-233 -224h186z" />
    <glyph glyph-name="five.dnom" horiz-adv-x="327" 
d="M122 -10q-58 0 -94 31.5t-38 83.5l36 1q1 -39 28.5 -62.5t70.5 -23.5q45 0 77 28.5t42 74.5q11 53 -12.5 84t-74.5 31q-67 0 -109 -60h-35l91 235h217l-7 -31h-188l-63 -160q39 45 103 45q62 0 94 -41t17 -108q-12 -58 -54 -93t-101 -35z" />
    <glyph glyph-name="six.dnom" horiz-adv-x="339" 
d="M174 269q60 0 93 -42t20 -105q-11 -58 -53.5 -94.5t-101.5 -36.5q-60 0 -96 38q-52 52 -22 195q19 93 68 146t124 53q53 0 84.5 -29t31.5 -75h-35q-2 34 -24.5 54t-60.5 20q-112 0 -152 -166q-8 -32 -9 -46q17 40 54 64t79 24zM252 124q10 51 -13.5 83t-70.5 32
q-45 0 -80.5 -28t-44.5 -69q-12 -54 14 -87.5t78 -33.5q44 0 76 28.5t41 74.5z" />
    <glyph glyph-name="seven.dnom" horiz-adv-x="294" 
d="M62 0h-40q57 233 248 383h-232l6 30h269l-6 -32q-192 -151 -245 -381z" />
    <glyph glyph-name="eight.dnom" horiz-adv-x="343" 
d="M126 -8q-73 0 -110 36.5t-24 98.5q7 34 38 60t78 34q-31 13 -46.5 40.5t-7.5 64.5q9 43 47.5 69t93.5 26q63 0 95 -33t21 -87q-6 -29 -30.5 -51t-58.5 -29q85 -28 66 -122q-10 -47 -53.5 -77t-108.5 -30zM170 231q41 0 71.5 20.5t37.5 53.5q8 41 -16 64.5t-70 23.5
q-42 0 -70.5 -19.5t-35.5 -51.5q-9 -39 15 -65t68 -26zM128 21q52 0 84.5 23t41.5 60q11 48 -14 75.5t-82 27.5q-54 0 -88.5 -22.5t-42.5 -60.5q-10 -48 17 -75.5t84 -27.5z" />
    <glyph glyph-name="nine.dnom" horiz-adv-x="339" 
d="M115 -8q-54 0 -87 29t-33 75h36q2 -35 24.5 -54.5t62.5 -19.5q111 0 151 163q7 32 7 53q-14 -42 -51 -68.5t-82 -26.5q-60 0 -93 42.5t-20 105.5q12 57 55 93.5t100 36.5q59 0 97 -38q51 -53 21 -194q-19 -93 -67 -145t-121 -52zM150 174q45 0 80 28t44 69
q12 54 -13.5 87t-77.5 33q-44 0 -76.5 -28.5t-41.5 -73.5q-10 -51 14 -83t71 -32z" />
    <glyph glyph-name="zero.numr" horiz-adv-x="340" 
d="M190 289q-75 0 -106 61.5t-8 168.5q19 95 65 148t116 53q75 0 105.5 -60.5t8.5 -165.5q-45 -205 -181 -205zM191 321q106 0 143 175q20 91 -1 142t-78 51q-106 0 -143 -175q-19 -90 2 -141.5t77 -51.5z" />
    <glyph glyph-name="one.numr" horiz-adv-x="218" 
d="M154 299h-36l78 364q-47 -41 -122 -45l6 27q86 8 130 68h32z" />
    <glyph glyph-name="two.numr" horiz-adv-x="316" 
d="M306 299h-280l3 15q21 108 160 169l40 18q87 40 100 97q9 41 -12.5 66t-70.5 25q-47 0 -76.5 -24.5t-36.5 -66.5h-36q10 56 49.5 89t101.5 33q67 0 97.5 -34.5t18.5 -89.5q-17 -75 -124 -123l-41 -18q-58 -27 -88 -56t-40 -69h241z" />
    <glyph glyph-name="three.numr" horiz-adv-x="322" 
d="M177 291q-66 0 -103.5 34.5t-29.5 90.5h34q-5 -43 22.5 -69t78.5 -26q100 0 120 83q11 49 -14.5 75t-78.5 26h-23l5 27h25q46 0 77.5 19.5t38.5 53.5q10 39 -13.5 62t-70.5 23q-88 0 -109 -81h-35q11 53 50 82t96 29q62 0 94.5 -32.5t21.5 -85.5q-6 -31 -32 -54.5
t-63 -29.5q39 -10 57.5 -41t7.5 -76q-12 -50 -53 -80t-103 -30z" />
    <glyph glyph-name="four.numr" horiz-adv-x="348" 
d="M313 445h66l-8 -32h-65l-24 -114h-38l25 114h-222l9 37l274 262h40zM324 669l-233 -224h186z" />
    <glyph glyph-name="five.numr" horiz-adv-x="327" 
d="M185 289q-58 0 -94 31.5t-38 83.5l36 1q1 -39 28.5 -62.5t70.5 -23.5q45 0 77 28.5t42 74.5q11 53 -12.5 84t-74.5 31q-67 0 -109 -60h-35l91 235h217l-7 -31h-188l-63 -160q39 45 103 45q62 0 94 -41t17 -108q-12 -58 -54 -93t-101 -35z" />
    <glyph glyph-name="six.numr" horiz-adv-x="339" 
d="M237 568q60 0 93 -42t20 -105q-11 -58 -53.5 -94.5t-101.5 -36.5q-60 0 -96 38q-52 52 -22 195q19 93 68 146t124 53q53 0 84.5 -29t31.5 -75h-35q-2 34 -24.5 54t-60.5 20q-115 0 -152 -166q-8 -32 -9 -46q17 40 54 64t79 24zM315 423q10 51 -13.5 83t-70.5 32
q-45 0 -80.5 -28t-44.5 -69q-12 -54 14 -87.5t78 -33.5q44 0 76 28.5t41 74.5z" />
    <glyph glyph-name="seven.numr" horiz-adv-x="294" 
d="M125 299h-40q57 233 248 383h-232l6 30h269l-6 -32q-192 -151 -245 -381z" />
    <glyph glyph-name="eight.numr" horiz-adv-x="343" 
d="M189 291q-73 0 -110 36.5t-24 98.5q7 34 38 60t78 34q-31 13 -46.5 40.5t-7.5 64.5q9 43 47.5 69t93.5 26q63 0 95 -33t21 -87q-6 -29 -30.5 -51t-58.5 -29q85 -28 66 -122q-10 -47 -53.5 -77t-108.5 -30zM233 530q41 0 71.5 20.5t37.5 53.5q8 41 -16 64.5t-70 23.5
q-42 0 -70.5 -19.5t-35.5 -51.5q-9 -39 15 -65t68 -26zM191 320q52 0 84.5 23t41.5 60q11 48 -14 75.5t-82 27.5q-54 0 -88.5 -22.5t-42.5 -60.5q-10 -48 17 -75.5t84 -27.5z" />
    <glyph glyph-name="nine.numr" horiz-adv-x="339" 
d="M178 291q-54 0 -87 29t-33 75h36q2 -35 24.5 -54.5t62.5 -19.5q111 0 151 163q7 32 7 53q-14 -42 -51 -68.5t-82 -26.5q-60 0 -93 42.5t-20 105.5q12 57 55 93.5t100 36.5q59 0 97 -38q51 -53 21 -194q-19 -93 -67 -145t-121 -52zM213 473q45 0 80 28t44 69
q12 54 -13.5 87t-77.5 33q-44 0 -76.5 -28.5t-41.5 -73.5q-10 -51 14 -83t71 -32z" />
    <glyph glyph-name="zero.tf" horiz-adv-x="595" 
d="M250 -16q-126 0 -170.5 100.5t-4.5 288.5q37 168 117.5 261.5t195.5 93.5q125 0 169.5 -100t5.5 -284q-37 -171 -117.5 -265.5t-195.5 -94.5zM252 23q96 0 164.5 84.5t101.5 236.5q37 164 3 254.5t-136 90.5q-95 0 -163.5 -84.5t-101.5 -234.5q-38 -165 -4 -256t136 -91z
" />
    <glyph glyph-name="one.tf" horiz-adv-x="595" 
d="M417 712l-144 -674h214l-8 -38h-464l8 38h207l128 598q-86 -74 -209 -81l8 35q145 9 222 122h38z" />
    <glyph glyph-name="two.tf" horiz-adv-x="595" 
d="M208 673q64 55 173 55t160 -61q50 -63 31 -154q-14 -64 -61.5 -114t-135.5 -94l-82 -40q-96 -48 -146.5 -100.5t-71.5 -125.5h406l-8 -39h-456l6 21q22 89 79 154.5t163 118.5l89 44q151 73 174 176q16 78 -23 126.5t-129 48.5q-172 0 -209 -172h-43q20 101 84 156z" />
    <glyph glyph-name="three.tf" horiz-adv-x="595" 
d="M566 533q-11 -54 -52.5 -94t-105.5 -59q66 -20 96.5 -72.5t13.5 -133.5q-18 -86 -87 -138t-173 -52q-111 0 -170.5 56.5t-46.5 152.5h43q-11 -80 38 -125t141 -45q84 0 140 41.5t71 112.5q18 89 -25.5 136.5t-137.5 47.5h-44l7 37h43q81 0 137 37.5t70 100.5
q16 72 -25 112.5t-125 40.5q-74 0 -127 -40t-70 -112h-44q19 89 85 140t161 51q97 0 153 -51q54 -52 34 -144z" />
    <glyph glyph-name="four.tf" horiz-adv-x="595" 
d="M454 239h109l-8 -39h-109l-43 -200h-43l42 200h-378l9 41l473 471h49zM499 652l-417 -413h329z" />
    <glyph glyph-name="five.tf" horiz-adv-x="595" 
d="M584 712l-8 -39h-314l-108 -288q70 70 173 70q105 0 158 -71q53 -73 28 -187q-19 -90 -87 -152q-68 -61 -169 -61q-96 0 -155 56t-56 145h43q-1 -75 45.5 -118.5t126.5 -43.5q77 0 136 51q57 51 74 131q20 95 -22 153t-130 58q-122 0 -191 -108h-43l150 404h349z" />
    <glyph glyph-name="six.tf" horiz-adv-x="595" 
d="M403 689q-103 0 -173.5 -88t-104.5 -246q-10 -40 -11 -61q30 75 92.5 118t140.5 43q102 0 158 -71q54 -71 29 -183q-19 -93 -90 -155t-171 -62q-107 0 -161 71q-75 94 -28 312q34 163 117 262t209 99q86 0 135.5 -49t51.5 -132h-43q-2 67 -41 104.5t-110 37.5zM119 227
q-19 -91 26 -147q45 -57 130 -57q81 0 140 52q61 53 77 132q19 92 -25 151q-45 58 -129 58q-80 0 -141 -53q-60 -54 -78 -136z" />
    <glyph glyph-name="seven.tf" horiz-adv-x="595" 
d="M147 673l9 39h464l-7 -36q-351 -284 -447 -676h-46q96 390 440 673h-413z" />
    <glyph glyph-name="eight.tf" horiz-adv-x="595" 
d="M581 536q-12 -56 -56 -97t-111 -59q70 -21 102 -73.5t17 -126.5q-19 -86 -93 -141q-73 -55 -189 -55q-123 0 -182 62q-58 61 -36 160q15 68 66 114t129 63q-56 21 -81.5 66t-12.5 107q17 80 85.5 126t169.5 46q102 0 157 -53t35 -139zM332 398q79 0 135.5 37.5
t70.5 100.5q16 69 -26.5 111t-126.5 42q-82 0 -139 -37t-70 -101q-15 -70 29 -111.5t127 -41.5zM489 187q17 81 -29 128t-144 47q-96 0 -160.5 -43.5t-79.5 -118.5q-17 -81 30 -129t147 -48q95 0 157.5 45t78.5 119z" />
    <glyph glyph-name="nine.tf" horiz-adv-x="595" 
d="M536 658q74 -94 27 -312q-34 -163 -117 -262q-82 -100 -209 -100q-87 0 -136 49.5t-50 131.5h42q2 -66 41.5 -104t110.5 -38q103 0 173.5 88t104.5 246q8 40 10 60q-31 -74 -92.5 -116.5t-140.5 -42.5q-101 0 -157 71q-55 70 -30 182q19 93 91 156q70 61 170 61
q107 0 162 -70zM309 296q80 0 141 53q60 52 78 136q20 92 -25 148q-45 57 -131 57q-81 0 -140 -52t-76 -133q-19 -92 25 -151q43 -58 128 -58z" />
    <glyph glyph-name="zero.tf.zero" horiz-adv-x="595" 
d="M388 728q125 0 169.5 -100t5.5 -284q-37 -171 -117.5 -265.5t-195.5 -94.5q-126 0 -170.5 100.5t-4.5 288.5q37 168 117.5 261.5t195.5 93.5zM120 370q-29 -135 -14 -218l413 452q-36 85 -134 85q-95 0 -163.5 -84.5t-101.5 -234.5zM518 344q28 136 12 222l-413 -453
q31 -90 135 -90q96 0 164.5 84.5t101.5 236.5z" />
    <glyph glyph-name="period.ss01" horiz-adv-x="163" 
d="M37 -5q-23 -2 -32 17t0 38t32 17q15 0 25.5 -10t10.5 -25q0 -16 -10.5 -26.5t-25.5 -10.5z" />
    <glyph glyph-name="comma.ss01" horiz-adv-x="161" 
d="M35 64q39 0 39 -47t-30 -92t-81 -60l6 31q61 25 72 101q-2 -1 -8 -1q-27 -3 -33 23.5t14 39.5q9 6 21 5z" />
    <glyph glyph-name="colon.ss01" horiz-adv-x="163" 
d="M126 419q-24 0 -33.5 18t0 36t33.5 18q14 0 24.5 -10t10.5 -25q0 -16 -10 -26.5t-25 -10.5zM37 -5q-23 -2 -32 17t0 38t32 17q15 0 25.5 -10t10.5 -25q0 -16 -10.5 -26.5t-25.5 -10.5z" />
    <glyph glyph-name="semicolon.ss01" horiz-adv-x="173" 
d="M132 491q15 0 25.5 -10t10.5 -25q0 -16 -10.5 -26.5t-25.5 -10.5q-23 -2 -32 17t0 38t32 17zM40 64q39 0 39 -47t-30 -92t-81 -60l6 31q61 25 72 101q-2 -1 -8 -1q-27 -3 -33 23.5t14 39.5q9 6 21 5z" />
    <glyph glyph-name="ellipsis.ss01" horiz-adv-x="652" 
d="M37 -5q-23 -2 -32 17t0 38t32 17q15 0 25.5 -10t10.5 -25q0 -16 -10.5 -26.5t-25.5 -10.5zM283 -5q-23 -2 -32 17t0 38t32 17q15 0 25.5 -10t10.5 -25q0 -16 -10.5 -26.5t-25.5 -10.5zM526 -5q-23 -2 -32 17t0 38t32 17q15 0 25.5 -10t10.5 -25q0 -16 -10.5 -26.5
t-25.5 -10.5z" />
    <glyph glyph-name="exclam.ss01" horiz-adv-x="163" 
d="M80 181h-28l65 334l42 197h43l-42 -197zM37 -5q-23 -2 -32 17t0 38t32 17q15 0 25.5 -10t10.5 -25q0 -16 -10.5 -26.5t-25.5 -10.5z" />
    <glyph glyph-name="exclamdown.ss01" horiz-adv-x="163" 
d="M145 519q-15 0 -25.5 10t-10.5 25q0 16 10.5 26.5t25.5 10.5q23 2 32 -17t0 -38t-32 -17zM23 -126h-43l42 197l79 334h28l-64 -334z" />
    </font>
</defs>
</svg>
