<?xml version="1.0" standalone="no"?>
<!DOCTYPE svg PUBLIC "-//W3C//DTD SVG 1.1//EN" "http://www.w3.org/Graphics/SVG/1.1/DTD/svg11.dtd" >
<svg xmlns="http://www.w3.org/2000/svg" xmlns:xlink="http://www.w3.org/1999/xlink" version="1.1">
<metadata>
Created by FontForge 20170731 at Sun Apr 14 21:27:16 2019
 By Aleksey,,,
Copyright (c) 2019 Monotype Imaging Inc. All rights reserved.
</metadata>
<defs>
<font id="HelveticaNowDisplay-LightIta" horiz-adv-x="0" >
  <font-face 
    font-family="HelveticaNowDisplay Light"
    font-weight="300"
    font-style="italic"
    font-stretch="normal"
    units-per-em="1000"
    panose-1="2 11 4 4 3 2 2 9 2 4"
    ascent="875"
    descent="-125"
    x-height="516"
    cap-height="712"
    bbox="-410 -306 1217 1028"
    underline-thickness="50"
    underline-position="-300"
    slope="-12"
    unicode-range="U+000D-FEFF"
  />
<missing-glyph horiz-adv-x="618" 
d="M553 0h-488v712h488v-712zM124 658v-604h370v604h-370z" />
    <glyph glyph-name="fi" unicode="fi" horiz-adv-x="463" 
d="M329 516l-11 -50h-116l-99 -466h-57l99 466h-87l11 50h87l16 75q25 124 155 124q16 0 48 -2l-11 -49q-9 1 -44 1q-75 0 -93 -83l-14 -66h116zM417 594l20 94h60l-20 -94h-60zM349 0h-56l110 516h56z" />
    <glyph glyph-name="fl" unicode="fl" horiz-adv-x="457" 
d="M329 516l-11 -50h-116l-99 -466h-57l99 466h-87l11 50h87l16 75q25 124 155 124q16 0 48 -2l-11 -49q-9 1 -44 1q-75 0 -93 -83l-14 -66h116zM287 0l151 712h57l-152 -712h-56z" />
    <glyph glyph-name=".notdef" horiz-adv-x="618" 
d="M553 0h-488v712h488v-712zM124 658v-604h370v604h-370z" />
    <glyph glyph-name=".null" 
 />
    <glyph glyph-name="nonmarkingreturn" horiz-adv-x="333" 
 />
    <glyph glyph-name="NULL" 
 />
    <glyph glyph-name="NULL" 
 />
    <glyph glyph-name="CR" unicode="&#xd;" horiz-adv-x="211" 
 />
    <glyph glyph-name="space" unicode=" " horiz-adv-x="211" 
 />
    <glyph glyph-name="exclam" unicode="!" horiz-adv-x="169" 
d="M82 183h-37l61 333l42 196h59l-42 -196zM70 0h-79l18 78h78z" />
    <glyph glyph-name="quotedbl" unicode="&#x22;" horiz-adv-x="360" 
d="M162 481h-44l44 231h59zM332 481h-43l44 231h59z" />
    <glyph glyph-name="numbersign" unicode="#" horiz-adv-x="613" 
d="M631 486l-20 -48h-110l-69 -164h111l-20 -48h-111l-94 -226h-56l94 226h-165l-94 -226h-57l94 226h-111l21 48h110l69 164h-112l20 48h112l94 226h57l-94 -226h165l94 226h56l-94 -226h110zM211 274h165l69 164h-165z" />
    <glyph glyph-name="dollar" unicode="$" horiz-adv-x="608" 
d="M608 518h-60q20 132 -120 152l-61 -285l16 -3q107 -24 149 -77t23 -144q-18 -82 -88.5 -129t-184.5 -48l-21 -100h-50l22 102q-115 8 -171 68t-43 164h61q-20 -166 164 -179l64 300l-30 7q-198 45 -165 211q17 80 87.5 125.5t178.5 45.5h11l21 100h50l-22 -104
q97 -12 139 -67t30 -139zM317 396l2 -1l59 279h-4q-84 0 -137 -32.5t-64 -89.5q-13 -64 19.5 -99.5t124.5 -56.5zM494 168q14 67 -17 103.5t-122 57.5l-61 -291q175 6 200 130z" />
    <glyph glyph-name="percent" unicode="%" horiz-adv-x="823" 
d="M198 290q-79 0 -112.5 61.5t-9.5 170.5q21 95 68 147t118 52q79 0 112 -60.5t10 -168.5q-43 -202 -186 -202zM195 0h-58l531 712h59zM201 333q98 0 132 163q19 87 -0.5 134t-73.5 47q-99 0 -133 -163q-19 -85 2 -133t73 -48zM603 -9q-79 0 -112.5 61.5t-9.5 170.5
q19 95 66 147t120 52q79 0 112 -60.5t10 -168.5q-43 -202 -186 -202zM606 34q97 0 131 163q19 88 -0.5 134.5t-73.5 46.5q-98 0 -132 -163q-19 -85 2 -133t73 -48z" />
    <glyph glyph-name="ampersand" unicode="&#x26;" horiz-adv-x="642" 
d="M484 135l93 -135h-72l-60 87q-97 -103 -235 -103q-100 0 -154 61q-55 60 -35 152q13 61 62.5 108.5t146.5 93.5q-36 55 -48 101t-2 97q13 57 60.5 94t119.5 37q70 0 115 -45t30 -117q-12 -51 -58 -94t-135 -89l140 -202q36 55 60 140h58q-28 -104 -86 -186zM239 586
q-13 -74 45 -162q79 40 116 72.5t46 70.5q10 47 -17.5 78.5t-74.5 31.5q-45 0 -76.5 -26t-38.5 -65zM216 38q116 0 199 93l-155 225q-88 -44 -128 -78q-42 -35 -53 -86q-14 -65 25 -109q39 -45 112 -45z" />
    <glyph glyph-name="quotesingle" unicode="'" horiz-adv-x="189" 
d="M162 481h-44l44 231h59z" />
    <glyph glyph-name="parenleft" unicode="(" horiz-adv-x="252" 
d="M155 -196h-54q-89 216 -25 516q55 262 230 462h57q-174 -217 -227 -471q-32 -167 -26 -277q6 -111 45 -230z" />
    <glyph glyph-name="parenright" unicode=")" horiz-adv-x="252" 
d="M-54 -196h-57q173 218 227 471q31 159 26 277q-6 113 -45 230h53q89 -215 25 -516q-54 -262 -229 -462z" />
    <glyph glyph-name="asterisk" unicode="*" horiz-adv-x="475" 
d="M395 331l-40 -21l-73 161l-132 -117l-28 35l132 119l-148 84l23 38l146 -83l35 165l45 -9l-35 -165l167 16l5 -44l-170 -17z" />
    <glyph glyph-name="plus" unicode="+" horiz-adv-x="521" 
d="M309 381h186v-51h-186v-185h-55v185h-186v51h186v186h55v-186z" />
    <glyph glyph-name="comma" unicode="," horiz-adv-x="171" 
d="M-7 0l17 78h79l-22 -99q-12 -56 -35.5 -81.5t-68.5 -34.5l8 41q24 6 36 22t19 49l5 25h-38z" />
    <glyph glyph-name="hyphen" unicode="-" horiz-adv-x="369" 
d="M321 257h-275l11 51h275z" />
    <glyph glyph-name="period" unicode="." horiz-adv-x="169" 
d="M69 0h-79l17 78h79z" />
    <glyph glyph-name="slash" unicode="/" horiz-adv-x="337" 
d="M16 0h-58l406 712h57z" />
    <glyph glyph-name="zero" unicode="0" horiz-adv-x="604" 
d="M254 -16q-129 0 -175 100t-5 289q37 169 118.5 262t199.5 93q126 0 173 -100.5t7 -284.5q-37 -171 -118.5 -265t-199.5 -94zM258 38q90 0 155.5 80t95.5 226q35 161 4.5 245.5t-125.5 84.5q-90 0 -155 -79.5t-96 -225.5q-70 -331 121 -331z" />
    <glyph glyph-name="one" unicode="1" horiz-adv-x="342" 
d="M303 712h50l-152 -712h-60l130 607q-79 -58 -197 -63l10 49q151 4 219 119z" />
    <glyph glyph-name="two" unicode="2" horiz-adv-x="543" 
d="M355 728q107 0 159 -61t33 -155q-27 -127 -202 -214l-84 -42q-85 -42 -128.5 -88.5t-64.5 -113.5h391l-11 -54h-461l7 28q22 88 73 152q50 63 157 116l94 47q77 40 116.5 79.5t50.5 90.5q16 73 -19.5 117t-117.5 44q-161 0 -196 -164h-60q44 218 263 218z" />
    <glyph glyph-name="three" unicode="3" horiz-adv-x="564" 
d="M550 526q-22 -104 -145 -148q129 -51 96 -203q-18 -88 -86.5 -139.5t-174.5 -51.5q-114 0 -173.5 59.5t-45.5 158.5h59q-10 -78 34.5 -121t131.5 -43q79 0 129.5 37.5t65.5 105.5q18 82 -22.5 127.5t-127.5 45.5h-48l11 49h45q75 0 127.5 35t64.5 93q15 66 -23 104.5
t-115 38.5q-71 0 -120.5 -37.5t-66.5 -108.5h-60q19 93 86 146.5t167 53.5q98 0 156 -53q56 -53 35 -149z" />
    <glyph glyph-name="four" unicode="4" horiz-adv-x="577" 
d="M432 245h105l-12 -54h-104l-41 -191h-59l40 191h-369l12 57l463 464h65zM455 630l-384 -385h302z" />
    <glyph glyph-name="five" unicode="5" horiz-adv-x="567" 
d="M576 712l-11 -54h-310l-95 -257q64 58 157 58q107 0 161 -72q54 -74 29 -189q-19 -90 -88 -153q-67 -61 -172 -61q-101 0 -160 57q-59 56 -55 149h60q-2 -72 41.5 -112t119.5 -40q72 0 125 47t69 123q19 89 -20.5 143t-121.5 54q-116 0 -176 -99h-59l149 406h357z" />
    <glyph glyph-name="six" unicode="6" horiz-adv-x="593" 
d="M339 459q104 0 161 -72q55 -72 30 -187q-21 -95 -90 -155q-70 -61 -172 -61q-110 0 -168 75q-74 96 -28 313q35 162 117 259t210 97q89 0 140 -50t52 -135h-59q-2 63 -39 97t-103 34q-98 0 -164 -83.5t-98 -235.5q-3 -12 -5 -22q34 60 90.5 93t125.5 33zM470 208
q18 88 -23 143q-42 54 -121 54q-76 0 -131 -48q-56 -50 -71 -122q-20 -90 23 -143q42 -54 124 -54q73 0 129 48q55 47 70 122z" />
    <glyph glyph-name="seven" unicode="7" horiz-adv-x="495" 
d="M108 658l11 54h452l-11 -48q-322 -277 -417 -664h-61q92 384 407 658h-381z" />
    <glyph glyph-name="eight" unicode="8" horiz-adv-x="579" 
d="M573 528q-12 -54 -52.5 -92.5t-103.5 -56.5q66 -24 95.5 -77t13.5 -125q-18 -87 -91.5 -140t-185.5 -53q-126 0 -187 64t-37 169q30 131 182 168q-50 25 -72 70t-10 104q16 80 83 124.5t169 44.5q106 0 161 -55t35 -145zM514 528q15 66 -24.5 106t-117.5 40
q-76 0 -127 -32.5t-63 -91.5q-14 -67 28 -106.5t119 -39.5q72 0 122 33.5t63 90.5zM467 188q16 78 -27.5 122.5t-134.5 44.5q-88 0 -147 -39t-73 -108q-17 -77 28 -123.5t138 -46.5q88 0 144.5 40.5t71.5 109.5z" />
    <glyph glyph-name="nine" unicode="9" horiz-adv-x="593" 
d="M528 654q73 -97 27 -314q-35 -160 -117 -258q-82 -97 -210 -97q-89 0 -140 50t-52 135h60q2 -63 39 -97.5t103 -34.5q98 0 164.5 83.5t97.5 236.5q3 12 5 22q-34 -60 -90.5 -93t-125.5 -33q-105 0 -160 72q-57 72 -31 186q20 94 90 156q70 61 172 61q110 0 168 -75z
M301 308q77 0 132 48q56 48 71 122q20 90 -23 143q-43 54 -124 54q-75 0 -130 -48q-55 -47 -70 -123q-18 -88 24 -142t120 -54z" />
    <glyph glyph-name="colon" unicode=":" horiz-adv-x="169" 
d="M154 413h-79l17 78h79zM69 0h-79l17 78h79z" />
    <glyph glyph-name="semicolon" unicode=";" horiz-adv-x="171" 
d="M80 412l17 78h79l-17 -78h-79zM31 0h-38l17 78h79l-21 -98q-21 -99 -96 -114l-9 -3l8 40l6 2q36 9 49 70z" />
    <glyph glyph-name="less" unicode="&#x3c;" horiz-adv-x="521" 
d="M495 583v-61l-156 -70q-65 -29 -135 -60.5t-80 -35.5q92 -39 215 -95l156 -70v-61l-428 197v59z" />
    <glyph glyph-name="equal" unicode="=" horiz-adv-x="521" 
d="M475 413h-428v52h428v-52zM475 247h-428v52h428v-52z" />
    <glyph glyph-name="greater" unicode="&#x3e;" horiz-adv-x="521" 
d="M88 522v61l428 -197v-59l-428 -197v61l155 70q45 20 89 39t79 34.5t48 21.5q-32 13 -121 54q-86 38 -95 42z" />
    <glyph glyph-name="question" unicode="?" horiz-adv-x="497" 
d="M253 183h-56q15 72 43 117q33 52 106 103q32 22 56 42q17 13 40 41q21 26 27 54q15 64 -17 99t-109 35q-80 0 -130.5 -40t-73.5 -130h-58q50 224 266 224q104 0 153 -50.5t28 -142.5q-9 -44 -40.5 -80t-90.5 -78q-81 -56 -109 -98q-22 -33 -35 -96zM232 0h-79l17 78h79z
" />
    <glyph glyph-name="at" unicode="@" horiz-adv-x="919" 
d="M552 728q188 0 285 -115q98 -116 58 -300q-19 -91 -79 -158t-138 -67q-99 0 -100 95q-58 -100 -161 -100q-82 0 -121 64q-40 62 -17 170q19 94 82 154q61 58 141 58q44 0 75.5 -22t44.5 -61l16 71h55l-58 -273q-23 -108 49 -108q51 0 96 53q46 53 62 131q35 159 -47 259
q-83 101 -254 101q-160 0 -281 -103q-120 -102 -155 -258q-37 -175 51 -282q87 -107 251 -107q103 0 199 35l-10 -51q-87 -33 -196 -33q-189 0 -289 124q-101 125 -59 322q38 175 177 288t323 113zM428 131q60 0 104.5 48t62.5 133q17 77 -9.5 123.5t-87.5 46.5
q-60 0 -104.5 -46.5t-61.5 -125.5q-19 -83 7 -131t89 -48z" />
    <glyph glyph-name="A" unicode="A" horiz-adv-x="671" 
d="M599 0h-61l-42 215h-344l-133 -215h-64l438 712h67zM260 390l-75 -122h301l-24 123q-11 56 -47 257q-56 -97 -83 -140q-41 -67 -72 -118z" />
    <glyph glyph-name="B" unicode="B" horiz-adv-x="620" 
d="M623 510q-10 -49 -46 -86t-92 -57q62 -23 86.5 -72.5t10.5 -118.5q-17 -82 -84.5 -129t-171.5 -47h-315l151 712h271q108 0 158.5 -55.5t31.5 -146.5zM566 519q15 64 -21.5 101.5t-119.5 37.5h-215l-57 -265h228q76 0 124 34t61 92zM524 186q16 72 -23.5 112.5
t-121.5 40.5h-237l-61 -285h254q77 0 126.5 35.5t62.5 96.5z" />
    <glyph glyph-name="C" unicode="C" horiz-adv-x="694" 
d="M310 -16q-152 0 -219 105q-68 104 -29 289q31 154 140 252q107 98 247 98q116 0 183.5 -66.5t67.5 -185.5h-60q-1 96 -53 147t-143 51q-117 0 -205 -84q-89 -84 -117 -219q-35 -155 18 -244t174 -89q98 0 175.5 59t110.5 163h60q-41 -131 -135 -203q-94 -73 -215 -73z
" />
    <glyph glyph-name="D" unicode="D" horiz-adv-x="675" 
d="M162 712h217q164 0 238 -107q73 -106 37 -276q-71 -329 -416 -329h-227zM593 340q30 140 -26 229t-195 89h-162l-129 -604h162q289 0 350 286z" />
    <glyph glyph-name="E" unicode="E" horiz-adv-x="575" 
d="M642 712l-12 -54h-421l-55 -259h381l-12 -54h-380l-62 -291h421l-12 -54h-480l152 712h480z" />
    <glyph glyph-name="F" unicode="F" horiz-adv-x="544" 
d="M619 712l-12 -54h-398l-55 -259h354l-11 -54h-354l-74 -345h-59l152 712h457z" />
    <glyph glyph-name="G" unicode="G" horiz-adv-x="736" 
d="M719 479h-61q3 87 -56 141t-157 54q-120 0 -207 -84q-86 -83 -115 -218q-33 -155 25 -244q57 -90 183 -90q113 0 197 75q85 76 110 192h-243l11 54h297l-76 -359h-50l17 124q-101 -140 -268 -140q-154 0 -228 108q-75 106 -36 288q33 153 138 250q104 98 251 98
q127 0 200 -69q72 -69 68 -180z" />
    <glyph glyph-name="H" unicode="H" horiz-adv-x="680" 
d="M586 397l67 315h59l-152 -712h-59l73 342h-432l-73 -342h-59l152 712h59l-67 -315h432z" />
    <glyph glyph-name="I" unicode="I" horiz-adv-x="189" 
d="M69 0h-59l152 712h59z" />
    <glyph glyph-name="J" unicode="J" horiz-adv-x="522" 
d="M215 -15q-107 0 -157 65t-25 174l6 23h58l-7 -32q-18 -84 17.5 -130.5t114.5 -46.5q71 0 117 42.5t62 123.5l108 508h59l-108 -510q-46 -217 -245 -217z" />
    <glyph glyph-name="K" unicode="K" horiz-adv-x="642" 
d="M641 712h82l-377 -297l229 -415h-65l-212 378l-178 -140l-50 -238h-59l151 712h59l-85 -400z" />
    <glyph glyph-name="L" unicode="L" horiz-adv-x="512" 
d="M221 712l-140 -658h366l-11 -54h-426l152 712h59z" />
    <glyph glyph-name="M" unicode="M" horiz-adv-x="833" 
d="M476 235l308 477h81l-151 -712h-58l79 374q24 112 58 257q-42 -70 -78 -127l-326 -504h-50l-114 504q-17 79 -23 126q-1 -7 -53 -256l-79 -374h-59l151 712h78l108 -486q6 -29 14 -70q4 -21 9.5 -48t6.5 -34q37 61 98 161z" />
    <glyph glyph-name="N" unicode="N" horiz-adv-x="681" 
d="M560 331l81 381h59l-152 -712h-71l-207 452q-58 132 -79 192q-32 -163 -54 -260l-81 -384h-59l152 712h70l208 -452q56 -127 79 -192q17 86 54 263z" />
    <glyph glyph-name="O" unicode="O" horiz-adv-x="740" 
d="M322 -16q-154 0 -226 107t-35 283q33 153 143 254q109 100 256 100q152 0 226 -105q72 -107 35 -279q-33 -158 -143 -259t-256 -101zM326 38q122 0 214 87q91 85 121 224q31 149 -24 237q-57 88 -183 88q-123 0 -212 -85q-91 -85 -120 -223q-32 -152 23 -239
q56 -89 181 -89z" />
    <glyph glyph-name="P" unicode="P" horiz-adv-x="617" 
d="M162 712h269q114 0 168.5 -62t32.5 -169q-18 -88 -87 -140.5t-173 -52.5h-241l-61 -288h-59zM572 489q17 83 -21.5 126t-126.5 43h-214l-68 -317h235q78 0 129 39.5t66 108.5z" />
    <glyph glyph-name="Q" unicode="Q" horiz-adv-x="740" 
d="M721 344q-33 -163 -150 -265l82 -102l-45 -33l-81 102q-94 -62 -205 -62q-154 0 -226 107t-35 283q33 153 143 254q109 100 256 100q152 0 226 -105q72 -107 35 -279zM494 88l-84 105l45 32l82 -103q94 85 124 227q31 149 -24 237q-57 88 -183 88q-123 0 -212 -85
q-91 -85 -120 -223q-32 -152 23 -239q56 -89 181 -89q89 0 168 50z" />
    <glyph glyph-name="R" unicode="R" horiz-adv-x="632" 
d="M162 712h274q116 0 172 -54.5t35 -155.5q-13 -62 -60.5 -104t-117.5 -55q63 -9 85 -45.5t11 -108.5l-17 -103q-9 -52 8 -86h-62q-15 28 -4 90l17 101q11 66 -16.5 96t-102.5 30h-247l-67 -317h-59zM583 503q17 78 -23 116.5t-129 38.5h-221l-62 -288h242q76 0 127.5 35
t65.5 98z" />
    <glyph glyph-name="S" unicode="S" horiz-adv-x="608" 
d="M274 -16q-135 0 -201.5 60t-53.5 174h61q-11 -91 39.5 -135.5t161.5 -44.5q93 0 147 34.5t66 95.5q14 69 -19 105.5t-129 57.5l-68 15q-198 45 -165 211q17 80 87.5 125.5t178.5 45.5q134 0 188 -59q55 -59 41 -151h-60q12 76 -30.5 116t-143.5 40q-84 0 -137 -32.5
t-64 -89.5q-13 -64 19.5 -99.5t124.5 -56.5l66 -14q107 -24 149 -77t23 -144q-18 -83 -90.5 -130t-190.5 -47z" />
    <glyph glyph-name="T" unicode="T" horiz-adv-x="609" 
d="M119 712h566l-12 -54h-252l-140 -658h-62l141 658h-252z" />
    <glyph glyph-name="U" unicode="U" horiz-adv-x="653" 
d="M289 -15q-139 0 -200 80t-28 232l90 415h60l-92 -426q-26 -124 20 -186t154 -62q200 0 247 221l95 453h59l-97 -465q-55 -262 -308 -262z" />
    <glyph glyph-name="V" unicode="V" horiz-adv-x="635" 
d="M389 217l262 495h65l-382 -712h-66l-160 712h60l109 -495q16 -71 31 -159q18 38 81 159z" />
    <glyph glyph-name="W" unicode="W" horiz-adv-x="961" 
d="M760 283l221 429h63l-366 -712h-67l-38 448q-11 178 -12 192q-28 -60 -92 -191l-229 -449h-67l-64 712h60l39 -429q13 -209 13 -211q61 129 104 213l217 427h67l35 -427q6 -92 13 -213q65 137 103 211z" />
    <glyph glyph-name="X" unicode="X" horiz-adv-x="625" 
d="M621 712h71l-321 -343l186 -369h-66l-82 163l-80 160q-8 -9 -26 -28.5t-54.5 -59t-66.5 -72.5l-153 -163h-70l342 366l-175 346h65l78 -154q3 -6 73 -148q9 10 58.5 64.5t78.5 85.5z" />
    <glyph glyph-name="Y" unicode="Y" horiz-adv-x="637" 
d="M491 532l158 180h71l-363 -413l-64 -299h-59l64 299l-189 413h65l82 -181q34 -77 77 -183q72 85 158 184z" />
    <glyph glyph-name="Z" unicode="Z" horiz-adv-x="589" 
d="M653 712l-11 -54l-428 -442q-8 -9 -79 -82q-36 -37 -81 -82q90 2 205 2h260l-12 -54h-536l12 54l427 442q124 128 160 164q-92 -2 -206 -2h-234l12 54h511z" />
    <glyph glyph-name="bracketleft" unicode="[" horiz-adv-x="294" 
d="M171 -196h-207l208 978h207l-10 -50h-151l-187 -878h151z" />
    <glyph glyph-name="backslash" unicode="\" horiz-adv-x="337" 
d="M268 0h-54l-103 712h54z" />
    <glyph glyph-name="bracketright" unicode="]" horiz-adv-x="294" 
d="M137 -196h-208l11 50h151l187 878h-151l10 50h208z" />
    <glyph glyph-name="asciicircum" unicode="^" horiz-adv-x="424" 
d="M201 712h62l171 -302h-60l-102 183l-4 7q-4 8 -15 26.5t-21 37.5q-13 -23 -24 -43q-4 -7 -7.5 -14t-6 -10t-2.5 -4l-102 -183h-60z" />
    <glyph glyph-name="underscore" unicode="_" horiz-adv-x="407" 
d="M316 -179h-409l10 50h409z" />
    <glyph glyph-name="grave" unicode="`" horiz-adv-x="400" 
d="M298 594h-47l-62 144h74z" />
    <glyph glyph-name="a" unicode="a" horiz-adv-x="511" 
d="M470 358l-55 -258q-10 -55 29 -55q2 0 11 0.5t12 0.5l-9 -46q-16 -3 -37 -3q-36 0 -53 22t-10 63q-67 -94 -192 -94q-87 0 -128.5 46t-24.5 124q26 114 209 133l84 10q55 7 80 22.5t33 47.5q10 51 -19 79.5t-100 28.5q-73 0 -111.5 -27.5t-54.5 -90.5h-56q22 87 75 127
t152 40t141 -44t24 -126zM176 37q74 0 130.5 41t74.5 117l20 94q-26 -22 -93 -31l-83 -10q-137 -18 -155 -101q-11 -52 16 -81t90 -29z" />
    <glyph glyph-name="b" unicode="b" horiz-adv-x="569" 
d="M214 712l-58 -273q78 89 188 89t161 -77t25 -204q-26 -117 -99 -187q-75 -72 -180 -72q-63 0 -106.5 30t-62.5 87l-23 -105h-54l152 712h57zM471 252q23 105 -13.5 165t-121.5 60t-144.5 -57t-80.5 -157q-22 -104 17 -164.5t126 -60.5q80 0 139 59q58 58 78 155z" />
    <glyph glyph-name="c" unicode="c" horiz-adv-x="513" 
d="M223 -12q-107 0 -158 78q-53 77 -24 214q24 110 98 180q74 68 178 68q88 0 137.5 -49.5t47.5 -132.5h-59q-1 61 -37 96t-97 35q-76 0 -133 -56t-78 -153q-23 -110 13 -169.5t119 -59.5q62 0 110 36.5t71 101.5h58q-27 -87 -93 -138t-153 -51z" />
    <glyph glyph-name="d" unicode="d" horiz-adv-x="573" 
d="M485 416l63 296h57l-152 -712h-54l17 81q-78 -93 -192 -93q-109 0 -160 78q-51 76 -25 203q26 117 100 188t179 71q125 0 167 -112zM233 39q85 0 144.5 57t80.5 157q22 104 -17 164.5t-126 60.5q-79 0 -138 -59q-60 -60 -79 -155q-23 -105 13.5 -165t121.5 -60z" />
    <glyph glyph-name="e" unicode="e" horiz-adv-x="536" 
d="M317 528q111 0 161 -77q49 -76 22 -192l-6 -20h-402q-15 -95 21 -147t115 -52q130 0 183 125h59q-33 -86 -96 -131.5t-152 -45.5q-109 0 -159 77q-51 77 -24 207q24 112 100 184q77 72 178 72zM310 476q-73 0 -128.5 -49.5t-79.5 -136.5h344q14 83 -22 134.5t-114 51.5z
" />
    <glyph glyph-name="f" unicode="f" horiz-adv-x="301" 
d="M320 665q-75 0 -93 -83l-14 -66h116l-11 -50h-116l-99 -466h-57l99 466h-87l11 50h87l16 75q25 124 155 124q16 0 48 -2l-11 -49q-9 1 -44 1z" />
    <glyph glyph-name="g" unicode="g" horiz-adv-x="563" 
d="M484 423l21 93h54l-106 -496q-25 -116 -87.5 -172t-175.5 -56q-94 0 -142.5 43.5t-43.5 117.5h56q-2 -55 32.5 -84t103.5 -29q84 0 132 43.5t68 136.5l12 56q-73 -88 -183 -88q-109 0 -161 81t-24 207q26 118 100.5 185t177.5 67q60 0 103 -27.5t63 -77.5zM233 39
q82 0 141.5 59t79.5 160q22 102 -15.5 160.5t-121.5 58.5q-82 0 -139.5 -56t-77.5 -153q-22 -105 14 -167t119 -62z" />
    <glyph glyph-name="h" unicode="h" horiz-adv-x="529" 
d="M340 528q89 0 127.5 -54t15.5 -157l-68 -317h-57l68 321q33 156 -100 156q-69 0 -123.5 -45.5t-75.5 -129.5l-64 -302h-57l151 712h57l-59 -278q73 94 185 94z" />
    <glyph glyph-name="i" unicode="i" horiz-adv-x="176" 
d="M190 594h-60l19 94h60zM62 0h-57l110 516h57z" />
    <glyph glyph-name="j" unicode="j" horiz-adv-x="179" 
d="M190 594h-60l19 94h60zM-82 -199q-41 0 -51 1l11 49h40q56 0 70 71l127 594h57l-128 -600q-25 -115 -126 -115z" />
    <glyph glyph-name="k" unicode="k" horiz-adv-x="494" 
d="M448 516h77l-245 -192l150 -324h-59l-134 291l-135 -104l-40 -187h-57l152 712h57l-97 -452z" />
    <glyph glyph-name="l" unicode="l" horiz-adv-x="177" 
d="M63 0h-57l151 712h57z" />
    <glyph glyph-name="m" unicode="m" horiz-adv-x="841" 
d="M656 528q87 0 123.5 -53.5t16.5 -149.5l-69 -325h-57l70 326q16 75 -9.5 113t-87.5 38q-65 0 -115 -48.5t-73 -140.5l-61 -288h-56l69 324q15 76 -10.5 114.5t-86.5 38.5q-65 0 -116.5 -50.5t-71.5 -143.5l-60 -283h-57l110 516h54l-18 -84q68 96 172 96q62 0 99 -29.5
t45 -83.5q75 113 189 113z" />
    <glyph glyph-name="n" unicode="n" horiz-adv-x="529" 
d="M339 528q89 0 127.5 -54t15.5 -157l-68 -317h-56l67 321q33 156 -99 156q-72 0 -127.5 -49t-75.5 -139l-61 -289h-57l110 516h54l-19 -88q75 100 189 100z" />
    <glyph glyph-name="o" unicode="o" horiz-adv-x="555" 
d="M234 -12q-117 0 -169.5 76t-24.5 207q22 111 102 185q80 72 180 72q116 0 168.5 -76t24.5 -207q-22 -112 -102 -184q-79 -73 -179 -73zM235 39q79 0 141 59q62 58 81 153q23 105 -13.5 165.5t-122.5 60.5q-81 0 -142 -60q-62 -60 -81 -151q-23 -106 14 -166.5t123 -60.5z
" />
    <glyph glyph-name="p" unicode="p" horiz-adv-x="569" 
d="M345 528q110 0 161 -77q51 -78 24 -204q-26 -117 -99 -187q-75 -72 -179 -72q-126 0 -168 112l-63 -296h-57l152 712h54l-17 -82q76 94 192 94zM472 252q22 105 -14.5 165t-120.5 60q-86 0 -145.5 -57t-79.5 -157q-22 -104 16.5 -164.5t125.5 -60.5q79 0 138 58.5
t80 155.5z" />
    <glyph glyph-name="q" unicode="q" horiz-adv-x="573" 
d="M487 412l22 104h54l-152 -712h-56l58 273q-78 -89 -189 -89q-109 0 -160 78q-51 76 -25 203q26 117 100 188t179 71q62 0 106 -30t63 -86zM233 39q85 0 144.5 57t80.5 157q22 104 -17 164.5t-126 60.5q-79 0 -138 -59q-60 -60 -79 -155q-23 -105 13.5 -165t121.5 -60z
" />
    <glyph glyph-name="r" unicode="r" horiz-adv-x="345" 
d="M349 523q22 0 29 -1l-11 -54h-25q-86 0 -143.5 -48t-74.5 -133l-62 -287h-56l109 516h54l-20 -98q75 105 200 105z" />
    <glyph glyph-name="s" unicode="s" horiz-adv-x="467" 
d="M198 -12q-106 0 -154.5 44.5t-38.5 127.5h56q-6 -62 28.5 -92.5t114.5 -30.5q130 0 150 87q10 48 -13.5 72.5t-90.5 36.5l-46 8q-162 30 -133 161q12 59 66.5 92.5t136.5 33.5q96 0 139 -40.5t37 -119.5h-56q6 57 -23.5 84t-101.5 27q-59 0 -97 -22.5t-46 -61.5
q-9 -44 15.5 -68.5t87.5 -36.5l47 -8q86 -17 117.5 -56t15.5 -111q-13 -59 -66.5 -93t-144.5 -34z" />
    <glyph glyph-name="t" unicode="t" horiz-adv-x="300" 
d="M322 466h-119l-73 -343q-16 -76 57 -76q36 0 46 1l-10 -48q-29 -3 -47 -3q-62 0 -89 33t-14 94l72 342h-87l11 50h87l31 146h57l-31 -146h120z" />
    <glyph glyph-name="u" unicode="u" horiz-adv-x="529" 
d="M406 227l61 289h57l-110 -516h-54l19 88q-75 -100 -189 -100q-89 0 -127.5 54t-15.5 157l68 317h56l-67 -321q-33 -156 99 -156q72 0 127.5 49t75.5 139z" />
    <glyph glyph-name="v" unicode="v" horiz-adv-x="494" 
d="M320 259l155 257h63l-317 -516h-60l-96 516h59l46 -258q28 -172 32 -199q13 23 68 116q18 31 50 84z" />
    <glyph glyph-name="w" unicode="w" horiz-adv-x="788" 
d="M607 232l159 284h64l-292 -516h-60l-35 304q-1 8 -5 55t-8 90q-18 -37 -73 -145l-163 -304h-61l-71 516h58l38 -284q1 -13 8 -77q4 -52 9 -91q50 102 86 168l152 284h60l31 -284q14 -162 15 -170q40 85 88 170z" />
    <glyph glyph-name="x" unicode="x" horiz-adv-x="485" 
d="M451 516h70l-243 -252l143 -264h-62l-46 84q-63 123 -72 140q-114 -119 -134 -141l-80 -83h-71l256 263l-135 253h64l48 -90q2 -5 12.5 -25t24 -46.5t25.5 -50.5q29 31 69 73.5t45 48.5z" />
    <glyph glyph-name="y" unicode="y" horiz-adv-x="477" 
d="M316 266l143 250h63l-344 -588q-40 -69 -78 -97t-98 -28q-25 0 -49 3l10 47h43q70 0 120 87l27 45l-88 531h61l40 -250q1 -13 30 -214q8 14 29.5 52.5t32.5 59.5q14 25 33.5 58.5t24.5 43.5z" />
    <glyph glyph-name="z" unicode="z" horiz-adv-x="478" 
d="M476 472l-330 -339q-39 -40 -85 -85q48 2 108 2h232l-10 -50h-412l10 44l330 340q62 62 85 84q-48 -2 -108 -2h-207l11 50h385z" />
    <glyph glyph-name="braceleft" unicode="{" horiz-adv-x="336" 
d="M215 -196h-51q-134 0 -106 136l55 259q7 34 -8 51t-59 18l11 50q82 1 96 69l57 266q15 70 52.5 99.5t102.5 29.5h58l-11 -50h-50q-42 0 -65 -20.5t-32 -65.5l-57 -267q-16 -80 -93 -85v-2q73 -4 57 -85l-57 -268q-9 -43 5.5 -64t56.5 -21h49z" />
    <glyph glyph-name="bar" unicode="|" horiz-adv-x="181" 
d="M136 -199h-51v996h51v-996z" />
    <glyph glyph-name="braceright" unicode="}" horiz-adv-x="336" 
d="M-14 -196h-57l11 50h50q41 0 64 20t33 65l57 268q16 80 93 85v2q-73 4 -57 85l57 268q9 44 -5.5 64.5t-57.5 20.5h-48l11 50h51q134 0 106 -136l-55 -259q-7 -34 8 -51t59 -18l-11 -50q-82 -1 -96 -69l-57 -266q-15 -70 -53 -99.5t-103 -29.5z" />
    <glyph glyph-name="asciitilde" unicode="~" horiz-adv-x="521" 
d="M117 302h-50q12 127 115 127q39 0 110 -44q59 -37 86 -37q55 0 65 75h50q-11 -128 -115 -128q-40 0 -107 43q-59 38 -89 38q-54 0 -65 -74z" />
    <glyph glyph-name="uni00A0" unicode="&#xa0;" horiz-adv-x="211" 
 />
    <glyph glyph-name="exclamdown" unicode="&#xa1;" horiz-adv-x="169" 
d="M177 508h-79l17 78h79zM37 -126h-59l42 196l83 333h37l-61 -333z" />
    <glyph glyph-name="cent" unicode="&#xa2;" horiz-adv-x="513" 
d="M502 346h-59q-1 53 -28.5 86.5t-75.5 41.5l-92 -434q56 4 99.5 40.5t64.5 96.5h58q-27 -84 -88.5 -134.5t-144.5 -54.5l-22 -103h-51l22 106q-91 13 -130.5 90t-13.5 199q22 106 92 174q68 67 167 73l21 101h51l-22 -102q74 -10 114 -58.5t38 -121.5zM98 268
q-20 -97 6.5 -155.5t91.5 -70.5l93 434q-70 -8 -121 -63t-70 -145z" />
    <glyph glyph-name="sterling" unicode="&#xa3;" horiz-adv-x="561" 
d="M368 728q118 0 167 -60q49 -61 37 -150h-61q9 74 -28 115t-124 41q-67 0 -112 -34t-58 -90q-14 -56 9 -146q13 -51 14 -62h240l-10 -49h-225q0 -37 -7 -66q-23 -105 -134 -173h408l-11 -54h-490l11 54q70 38 108 78t50 95q8 36 6 66h-120l9 49h105q-7 27 -8 30
q-31 99 -14 184q18 80 79.5 126t158.5 46z" />
    <glyph glyph-name="currency" unicode="&#xa4;" horiz-adv-x="550" 
d="M532 574l-71 -74q53 -62 53 -144t-53 -144l71 -74l-37 -36l-73 76q-56 -38 -125 -38q-70 0 -127 39l-75 -77l-37 36l74 76q-52 59 -52 142t52 142l-74 76l37 36l75 -77q57 39 127 39q69 0 125 -38l73 76zM184 468q-45 -45 -45 -112t45 -112t113 -45t113 45t45 112
t-45 112t-113 45t-113 -45z" />
    <glyph glyph-name="yen" unicode="&#xa5;" horiz-adv-x="637" 
d="M649 712h71l-321 -365h160l-10 -49h-192l-19 -86h192l-10 -48h-192l-35 -164h-59l35 164h-191l11 48h190l19 86h-191l11 49h158l-167 365h65l82 -181q34 -77 77 -183q72 85 158 184z" />
    <glyph glyph-name="brokenbar" unicode="&#xa6;" horiz-adv-x="181" 
d="M136 398h-51v399h51v-399zM136 -204h-51v399h51v-399z" />
    <glyph glyph-name="section" unicode="&#xa7;" horiz-adv-x="556" 
d="M527 568h-57q5 54 -25 82.5t-93 28.5q-113 0 -129 -82q-9 -43 12 -73t80 -69l78 -51q78 -52 107 -98.5t15 -108.5q-23 -102 -160 -144q55 -54 38 -134q-12 -58 -62.5 -92.5t-128.5 -34.5q-94 0 -138 42.5t-32 117.5h57q-7 -56 23.5 -83.5t94.5 -27.5q113 0 130 83
q9 45 -11.5 73.5t-80.5 67.5l-78 52q-76 50 -105 97t-17 111q20 101 163 143q-57 57 -40 137q12 56 62 89.5t129 33.5q90 0 133.5 -42.5t34.5 -117.5zM367 352l-79 53q-41 29 -44 31q-58 -9 -96 -40t-47 -72q-10 -47 12 -83t80 -73l79 -52l45 -31q59 12 97 42.5t46 72.5
q10 45 -11.5 78.5t-81.5 73.5z" />
    <glyph glyph-name="dieresis" unicode="&#xa8;" horiz-adv-x="400" 
d="M211 594h-60l20 94h60zM392 594h-60l21 94h60z" />
    <glyph glyph-name="copyright" unicode="&#xa9;" horiz-adv-x="829" 
d="M434 -16q-161 0 -269 108t-108 264q0 157 108 265t269 108t271 -108q108 -108 108 -265q0 -156 -108 -264q-110 -108 -271 -108zM434 29q141 0 236 95q94 94 94 232q0 139 -94 233q-95 95 -236 95q-139 0 -234 -95q-94 -94 -94 -233q0 -138 94 -232q95 -95 234 -95z
M440 131q-88 0 -141 62q-54 62 -54 163q0 103 53 164t142 61q72 0 120.5 -42t57.5 -111h-51q-9 50 -43.5 78.5t-83.5 28.5q-66 0 -104.5 -47.5t-38.5 -131.5t38.5 -131.5t104.5 -47.5q51 0 86 31t42 82h52q-9 -70 -58.5 -114.5t-121.5 -44.5z" />
    <glyph glyph-name="ordfeminine" unicode="&#xaa;" horiz-adv-x="458" 
d="M464 581l-49 -229q-11 -47 26 -47q3 0 10 0.5t10 0.5l-9 -44q-15 -3 -28 -3q-79 0 -65 77q-60 -84 -168 -84q-76 0 -112.5 39.5t-21.5 107.5q23 102 186 118l72 8q45 5 66 19t29 42l1 7q9 40 -16 61.5t-84 21.5q-65 0 -97 -23t-46 -78h-54q18 74 65 110t137 36
q87 0 125 -36.5t23 -103.5zM202 296q61 0 108 33t65 94l19 87q-27 -21 -80 -27l-71 -8q-114 -13 -131 -85q-8 -43 15.5 -68.5t74.5 -25.5z" />
    <glyph glyph-name="guillemotleft" unicode="&#xab;" horiz-adv-x="486" 
d="M271 429l-13 -69l-154 -106l108 -106l-13 -63l-141 139l14 66zM258 290l199 139l-13 -69l-154 -106l108 -106l-13 -63l-141 139z" />
    <glyph glyph-name="logicalnot" unicode="&#xac;" horiz-adv-x="521" 
d="M67 360v52h428v-237h-55v185h-373z" />
    <glyph glyph-name="uni00AD" unicode="&#xad;" horiz-adv-x="369" 
d="M321 257h-275l11 51h275z" />
    <glyph glyph-name="registered" unicode="&#xae;" horiz-adv-x="569" 
d="M161 659q71 69 174 69t174 -69q70 -69 70 -168t-70 -168q-71 -69 -174 -69t-174 69t-71 168t71 168zM187 348q61 -59 148 -59t148 59q59 59 59 143q0 86 -59 145q-59 58 -148 58t-148 -58q-60 -58 -60 -145q0 -85 60 -143zM432 439l3 -41q1 -21 12 -36h-34q-9 16 -10 36
l-2 34q-2 24 -12 33t-34 9h-81v-112h-32v263h109q42 0 65 -18.5t23 -53.5q0 -48 -43 -63q33 -10 36 -51zM274 504h79q52 0 52 46t-54 46h-77v-92z" />
    <glyph glyph-name="overscore" unicode="&#xaf;" horiz-adv-x="400" 
d="M408 594h-274l11 48h274z" />
    <glyph glyph-name="degree" unicode="&#xb0;" horiz-adv-x="332" 
d="M308 514q-38 -36 -90 -36q-53 0 -89 36q-37 36 -37 86q0 51 36 86t90 35t90 -35t36 -86q0 -50 -36 -86zM161 545q23 -23 57 -23t57 23t23 55.5t-23 54.5t-57 22t-57 -22t-23 -54.5t23 -55.5z" />
    <glyph glyph-name="plusminus" unicode="&#xb1;" horiz-adv-x="521" 
d="M288 567v-177h187v-51h-187v-177h-55v177h-186v51h186v177h55zM475 0h-428v51h428v-51z" />
    <glyph glyph-name="two.sups" unicode="&#xb2;" horiz-adv-x="371" 
d="M387 528h-290l4 20q24 114 163 172l37 16q84 35 95 89q8 37 -12 59t-65 22q-44 0 -71 -22.5t-33 -61.5h-49q10 58 50.5 92.5t106.5 34.5q69 0 101.5 -36t20.5 -92q-16 -76 -131 -125l-37 -16q-99 -41 -117 -109h236z" />
    <glyph glyph-name="three.sups" unicode="&#xb3;" horiz-adv-x="381" 
d="M254 520q-69 0 -107.5 36.5t-30.5 95.5h47q-5 -40 20.5 -65.5t73.5 -25.5q93 0 110 75q10 45 -13 69t-72 24h-24l7 36h26q43 0 71.5 17.5t35.5 47.5q9 36 -12.5 57t-64.5 21q-82 0 -102 -74h-48q12 56 51.5 85.5t100.5 29.5q65 0 99.5 -33t22.5 -90q-6 -28 -30 -51.5
t-58 -29.5q77 -25 58 -114q-12 -50 -54.5 -80.5t-106.5 -30.5z" />
    <glyph glyph-name="acute" unicode="&#xb4;" horiz-adv-x="400" 
d="M268 594h-49l96 144h74z" />
    <glyph glyph-name="uni00B5" unicode="&#xb5;" horiz-adv-x="638" 
d="M468 226v290h56v-516h-54v95q-25 -50 -69.5 -78.5t-102.5 -28.5q-82 0 -126 59v-243h-57v712h57v-335q0 -142 137 -142q68 0 113 49t46 138z" />
    <glyph glyph-name="paragraph" unicode="&#xb6;" horiz-adv-x="497" 
d="M230 0h-53l77 363q-96 0 -146 53t-32 136q18 85 83 122.5t187 37.5h162l-152 -712h-53l141 658h-73z" />
    <glyph glyph-name="middot" unicode="&#xb7;" horiz-adv-x="169" 
d="M136 317h-79l18 78h78z" />
    <glyph glyph-name="cedilla" unicode="&#xb8;" horiz-adv-x="400" 
d="M130 -52h5q44 0 67 -24.5t15 -60.5q-16 -78 -140 -78q-35 0 -61 6l7 34q24 -4 58 -4q73 0 82 48q4 23 -11.5 36t-49.5 13q-16 0 -23 -1l5 28l55 59l46 -1z" />
    <glyph glyph-name="one.sups" unicode="&#xb9;" horiz-adv-x="237" 
d="M216 528h-50l74 344q-42 -31 -116 -33l8 36q87 5 129 66h43z" />
    <glyph glyph-name="ordmasculine" unicode="&#xba;" horiz-adv-x="502" 
d="M262 252q-94 0 -144 69q-50 70 -26 183q19 94 85 157q64 60 160 60t146 -68q48 -68 24 -182q-19 -96 -84 -158q-64 -61 -161 -61zM268 300q67 0 115.5 48t66.5 128q20 90 -13 143.5t-105 53.5q-68 0 -117.5 -47.5t-66.5 -126.5q-19 -92 14.5 -145.5t105.5 -53.5z" />
    <glyph glyph-name="guillemotright" unicode="&#xbb;" horiz-adv-x="486" 
d="M101 429l141 -138l-14 -67l-199 -139l13 70l153 106l-107 105zM274 366l13 63l141 -138l-14 -67l-199 -139l13 70l153 106z" />
    <glyph glyph-name="onequarter" unicode="&#xbc;" horiz-adv-x="672" 
d="M43 0l531 712h56l-531 -712h-56zM167 299h-50l74 344q-42 -31 -116 -33l8 36q87 4 129 66h43zM578 153h62l-10 -45h-62l-23 -108h-54l24 108h-217l12 52l268 253h55zM569 354l-212 -201h169z" />
    <glyph glyph-name="onehalf" unicode="&#xbd;" horiz-adv-x="717" 
d="M99 0h-56l531 712h56zM167 299h-50l74 344q-42 -31 -116 -33l8 36q87 4 129 66h43zM646 0h-290l4 20q24 113 164 172l36 16q84 35 95 89q8 37 -12 59t-65 22q-44 0 -71 -22.5t-33 -61.5h-49q10 58 50.5 92.5t106.5 34.5q69 0 101.5 -36t20.5 -92q-16 -76 -131 -125
l-37 -16q-99 -41 -117 -109h237z" />
    <glyph glyph-name="threequarters" unicode="&#xbe;" horiz-adv-x="772" 
d="M345 402q-12 -50 -54.5 -80.5t-106.5 -30.5q-69 0 -107.5 36.5t-30.5 95.5h47q-5 -40 20.5 -65.5t73.5 -25.5q93 0 110 75q10 45 -13 69t-72 24h-25l8 36h26q43 0 71.5 17.5t35.5 47.5q9 36 -13 57t-65 21q-81 0 -101 -74h-49q13 56 52.5 85.5t99.5 29.5q66 0 100.5 -33
t22.5 -90q-6 -28 -30.5 -51t-57.5 -30q35 -12 51 -41t7 -73zM143 0l532 712h56l-532 -712h-56zM678 153h62l-9 -45h-63l-23 -108h-54l24 108h-216l11 52l268 253h55zM669 354l-212 -201h169z" />
    <glyph glyph-name="questiondown" unicode="&#xbf;" horiz-adv-x="497" 
d="M346 508h-79l17 78h79zM170 -142q-104 0 -153.5 50.5t-28.5 142.5q16 79 131 158q52 36 79 62q18 18 30 36q22 33 35 96h56q-15 -72 -43 -117q-33 -52 -106 -103q-11 -9 -25 -19t-17 -12q-31 -27 -33 -29q-37 -32 -48 -77q-15 -64 17 -99t109 -35q80 0 130.5 40t73.5 130
h58q-50 -224 -265 -224z" />
    <glyph glyph-name="Agrave" unicode="&#xc0;" horiz-adv-x="671" 
d="M388 899l65 -144h-47l-92 144h74zM599 0h-61l-42 215h-344l-133 -215h-64l438 712h67zM260 390l-75 -122h301l-24 123q-11 56 -47 257q-56 -97 -83 -140q-41 -67 -72 -118z" />
    <glyph glyph-name="Aacute" unicode="&#xc1;" horiz-adv-x="671" 
d="M519 899h79l-145 -144h-55zM599 0h-61l-42 215h-344l-133 -215h-64l438 712h67zM260 390l-75 -122h301l-24 123q-11 56 -47 257q-56 -97 -83 -140q-41 -67 -72 -118z" />
    <glyph glyph-name="Acircumflex" unicode="&#xc2;" horiz-adv-x="671" 
d="M541 755l-79 110l-126 -110h-59l146 144h85l87 -144h-54zM599 0h-61l-42 215h-344l-133 -215h-64l438 712h67zM260 390l-75 -122h301l-24 123q-11 56 -47 257q-56 -97 -83 -140q-41 -67 -72 -118z" />
    <glyph glyph-name="Atilde" unicode="&#xc3;" horiz-adv-x="671" 
d="M377 818q-38 0 -53 -63h-48q25 114 105 114q33 0 77 -33q37 -29 62 -29q37 0 52 62h48q-26 -114 -104 -114q-30 0 -80 35q-38 28 -59 28zM-45 0l438 712h67l139 -712h-61l-42 215h-344l-133 -215h-64zM185 268h301l-24 123q-11 56 -47 257q-56 -97 -83 -140
q-41 -67 -72 -118z" />
    <glyph glyph-name="Adieresis" unicode="&#xc4;" horiz-adv-x="671" 
d="M335 849h60l-21 -94h-60zM516 849h60l-20 -94h-60zM599 0h-61l-42 215h-344l-133 -215h-64l438 712h67zM260 390l-75 -122h301l-24 123q-11 56 -47 257q-56 -97 -83 -140q-41 -67 -72 -118z" />
    <glyph glyph-name="Aring" unicode="&#xc5;" horiz-adv-x="671" 
d="M599 0h-61l-42 215h-344l-133 -215h-64l421 685q-59 32 -59 100q0 48 34 80.5t83 32.5t83 -32.5t34 -80.5q0 -39 -23.5 -69.5t-60.5 -40.5zM486 836q-32 33 -80 14t-45 -65q0 -31 21.5 -52t51.5 -21t51.5 21t21.5 52q0 30 -21 51zM260 390l-75 -122h301l-24 123
q-11 56 -47 257q-56 -97 -83 -140q-41 -67 -72 -118z" />
    <glyph glyph-name="AE" unicode="&#xc6;" horiz-adv-x="1018" 
d="M1085 712l-11 -54h-390l-55 -259h350l-11 -54h-351l-62 -291h391l-11 -54h-451l46 215h-340l-161 -215h-70l537 712h589zM522 658l-292 -390h311l83 390h-102z" />
    <glyph glyph-name="Ccedilla" unicode="&#xc7;" horiz-adv-x="694" 
d="M314 38q98 0 175.5 59t110.5 163h60q-37 -125 -128 -198q-92 -74 -205 -78l-51 -51h5q44 0 67 -24.5t15 -60.5q-17 -78 -140 -78q-35 0 -61 6l7 34q24 -4 58 -4q73 0 82 48q4 23 -11.5 36t-49.5 13q-16 0 -23 -1l5 28l51 55q-138 11 -196 114q-60 104 -23 279
q31 154 140 252q107 98 247 98q116 0 183.5 -66.5t67.5 -185.5h-60q-1 96 -53 147t-143 51q-117 0 -205 -84q-89 -84 -117 -219q-35 -155 18 -244t174 -89z" />
    <glyph glyph-name="Egrave" unicode="&#xc8;" horiz-adv-x="575" 
d="M353 899l65 -144h-47l-92 144h74zM642 712l-12 -54h-421l-55 -259h381l-12 -54h-380l-62 -291h421l-12 -54h-480l152 712h480z" />
    <glyph glyph-name="Eacute" unicode="&#xc9;" horiz-adv-x="575" 
d="M485 899h79l-145 -144h-55zM642 712l-12 -54h-421l-55 -259h381l-12 -54h-380l-62 -291h421l-12 -54h-480l152 712h480z" />
    <glyph glyph-name="Ecircumflex" unicode="&#xca;" horiz-adv-x="575" 
d="M506 755l-79 110l-126 -110h-59l146 144h85l87 -144h-54zM642 712l-12 -54h-421l-55 -259h381l-12 -54h-380l-62 -291h421l-12 -54h-480l152 712h480z" />
    <glyph glyph-name="Edieresis" unicode="&#xcb;" horiz-adv-x="575" 
d="M300 849h60l-21 -94h-60zM481 849h60l-20 -94h-60zM642 712l-12 -54h-421l-55 -259h381l-12 -54h-380l-62 -291h421l-12 -54h-480l152 712h480z" />
    <glyph glyph-name="Igrave" unicode="&#xcc;" horiz-adv-x="189" 
d="M219 755h-45l-54 144h67zM69 0h-59l152 712h59z" />
    <glyph glyph-name="Iacute" unicode="&#xcd;" horiz-adv-x="189" 
d="M217 755h-47l91 144h69zM69 0h-59l152 712h59z" />
    <glyph glyph-name="Icircumflex" unicode="&#xce;" horiz-adv-x="189" 
d="M274 899l62 -144h-53l-56 108l-102 -108h-57l124 144h82zM69 0h-59l152 712h59z" />
    <glyph glyph-name="Idieresis" unicode="&#xcf;" horiz-adv-x="189" 
d="M158 755h-60l21 94h60zM303 755h-60l20 94h60zM69 0h-59l152 712h59z" />
    <glyph glyph-name="Eth" unicode="&#xd0;" horiz-adv-x="697" 
d="M184 712h217q164 0 238 -107q73 -106 37 -276q-72 -329 -416 -329h-227l73 346h-86l11 46h85zM615 340q30 140 -26 229t-195 89h-162l-57 -266h208l-11 -46h-207l-62 -292h161q290 0 351 286z" />
    <glyph glyph-name="Ntilde" unicode="&#xd1;" horiz-adv-x="681" 
d="M375 818q-38 0 -53 -63h-48q25 114 105 114q33 0 77 -33q37 -29 62 -29q37 0 52 62h48q-26 -114 -104 -114q-30 0 -80 35q-38 28 -59 28zM560 331l81 381h59l-152 -712h-71l-207 452q-58 132 -79 192q-32 -163 -54 -260l-81 -384h-59l152 712h70l208 -452
q56 -127 79 -192q17 86 54 263z" />
    <glyph glyph-name="Ograve" unicode="&#xd2;" horiz-adv-x="740" 
d="M497 771h-47l-92 144h74zM322 -16q-154 0 -226 107t-35 283q33 153 143 254q109 100 256 100q152 0 226 -105q72 -107 35 -279q-33 -158 -143 -259t-256 -101zM326 38q122 0 214 87q91 85 121 224q31 149 -24 237q-57 88 -183 88q-123 0 -212 -85q-91 -85 -120 -223
q-32 -152 23 -239q56 -89 181 -89z" />
    <glyph glyph-name="Oacute" unicode="&#xd3;" horiz-adv-x="740" 
d="M498 771h-55l121 144h79zM322 -16q-154 0 -226 107t-35 283q33 153 143 254q109 100 256 100q152 0 226 -105q72 -107 35 -279q-33 -158 -143 -259t-256 -101zM326 38q122 0 214 87q91 85 121 224q31 149 -24 237q-57 88 -183 88q-123 0 -212 -85q-91 -85 -120 -223
q-32 -152 23 -239q56 -89 181 -89z" />
    <glyph glyph-name="Ocircumflex" unicode="&#xd4;" horiz-adv-x="740" 
d="M585 771l-79 110l-126 -110h-59l146 144h85l87 -144h-54zM460 728q152 0 226 -105q72 -107 35 -279q-33 -158 -143 -259t-256 -101q-154 0 -226 107t-35 283q33 153 143 254q109 100 256 100zM661 349q31 149 -24 237q-57 88 -183 88q-123 0 -212 -85q-91 -85 -120 -223
q-32 -152 23 -239q56 -89 181 -89q122 0 214 87q91 85 121 224z" />
    <glyph glyph-name="Otilde" unicode="&#xd5;" horiz-adv-x="740" 
d="M368 771h-48q25 114 105 114q33 0 77 -33q37 -29 62 -29q37 0 52 62h48q-26 -114 -104 -114q-30 0 -80 35q-38 28 -59 28q-38 0 -53 -63zM322 -16q-154 0 -226 107t-35 283q33 153 143 254q109 100 256 100q152 0 226 -105q72 -107 35 -279q-33 -158 -143 -259t-256 -101
zM326 38q122 0 214 87q91 85 121 224q31 149 -24 237q-57 88 -183 88q-123 0 -212 -85q-91 -85 -120 -223q-32 -152 23 -239q56 -89 181 -89z" />
    <glyph glyph-name="Odieresis" unicode="&#xd6;" horiz-adv-x="740" 
d="M418 771h-60l21 94h60zM600 771h-60l20 94h60zM322 -16q-154 0 -226 107t-35 283q33 153 143 254q109 100 256 100q152 0 226 -105q72 -107 35 -279q-33 -158 -143 -259t-256 -101zM326 38q122 0 214 87q91 85 121 224q31 149 -24 237q-57 88 -183 88q-123 0 -212 -85
q-91 -85 -120 -223q-32 -152 23 -239q56 -89 181 -89z" />
    <glyph glyph-name="multiply" unicode="&#xd7;" horiz-adv-x="521" 
d="M436 546l36 -36l-155 -154l155 -154l-36 -37l-155 155l-155 -155l-36 37l155 154l-155 154l36 36l155 -154z" />
    <glyph glyph-name="Oslash" unicode="&#xd8;" horiz-adv-x="740" 
d="M706 748l38 -33l-69 -78q85 -106 46 -293q-33 -158 -143 -259t-256 -101q-110 0 -178 55l-68 -76l-38 33l70 79q-87 109 -47 299q33 153 143 254q109 100 256 100q108 0 179 -56zM122 366q-33 -157 27 -245l450 507q-55 46 -145 46q-123 0 -212 -85q-91 -85 -120 -223z
M661 349q33 153 -28 241l-450 -507q55 -45 143 -45q122 0 214 87q91 85 121 224z" />
    <glyph glyph-name="Ugrave" unicode="&#xd9;" horiz-adv-x="653" 
d="M442 755h-47l-92 144h74zM289 -15q-139 0 -200 80t-28 232l90 415h60l-92 -426q-26 -124 20 -186t154 -62q200 0 247 221l95 453h59l-97 -465q-55 -262 -308 -262z" />
    <glyph glyph-name="Uacute" unicode="&#xda;" horiz-adv-x="653" 
d="M442 755h-55l121 144h79zM289 -15q-139 0 -200 80t-28 232l90 415h60l-92 -426q-26 -124 20 -186t154 -62q200 0 247 221l95 453h59l-97 -465q-55 -262 -308 -262z" />
    <glyph glyph-name="Ucircumflex" unicode="&#xdb;" horiz-adv-x="653" 
d="M529 755l-79 110l-126 -110h-59l146 144h85l87 -144h-54zM540 259l95 453h59l-97 -465q-55 -262 -308 -262q-139 0 -200 80t-28 232l90 415h60l-92 -426q-26 -124 20 -186t154 -62q200 0 247 221z" />
    <glyph glyph-name="Udieresis" unicode="&#xdc;" horiz-adv-x="653" 
d="M362 755h-60l21 94h60zM544 755h-60l20 94h60zM289 -15q-139 0 -200 80t-28 232l90 415h60l-92 -426q-26 -124 20 -186t154 -62q200 0 247 221l95 453h59l-97 -465q-55 -262 -308 -262z" />
    <glyph glyph-name="Yacute" unicode="&#xdd;" horiz-adv-x="637" 
d="M512 899h79l-145 -144h-55zM491 532l158 180h71l-363 -413l-64 -299h-59l64 299l-189 413h65l82 -181q34 -77 77 -183q72 85 158 184z" />
    <glyph glyph-name="Thorn" unicode="&#xde;" horiz-adv-x="617" 
d="M190 568h211q112 0 167 -62t33 -169q-18 -88 -87 -140.5t-173 -52.5h-240l-31 -144h-59l151 712h59zM541 345q18 81 -21 125t-127 44h-214l-67 -316h234q78 0 129 39t66 108z" />
    <glyph glyph-name="germandbls" unicode="&#xdf;" horiz-adv-x="535" 
d="M514 531q-10 -50 -48 -90t-97 -60q70 -19 99.5 -71.5t12.5 -129.5q-18 -86 -84 -135t-170 -49q-44 0 -83 4l10 50q24 -4 80 -4q77 0 126.5 37.5t63.5 104.5q16 76 -24 121t-131 45h-31l11 52h34q66 0 115 36.5t60 91.5q13 61 -19.5 100.5t-97.5 39.5q-66 0 -109.5 -41
t-59.5 -117l-110 -516h-57l111 521q21 97 81.5 150t150.5 53q93 0 139 -55q45 -55 27 -138z" />
    <glyph glyph-name="agrave" unicode="&#xe0;" horiz-adv-x="511" 
d="M312 738l35 -144h-46l-63 144h74zM470 358l-55 -258q-10 -55 29 -55q2 0 11 0.5t12 0.5l-9 -46q-16 -3 -37 -3q-36 0 -53 22t-10 63q-67 -94 -192 -94q-87 0 -128.5 46t-24.5 124q26 114 209 133l84 10q55 7 80 22.5t33 47.5q10 51 -19 79.5t-100 28.5
q-73 0 -111.5 -27.5t-54.5 -90.5h-56q22 87 75 127t152 40t141 -44t24 -126zM176 37q74 0 130.5 41t74.5 117l20 94q-26 -22 -93 -31l-83 -10q-137 -18 -155 -101q-11 -52 16 -81t90 -29z" />
    <glyph glyph-name="aacute" unicode="&#xe1;" horiz-adv-x="511" 
d="M396 738h74l-122 -144h-48zM470 358l-55 -258q-10 -55 29 -55q2 0 11 0.5t12 0.5l-9 -46q-16 -3 -37 -3q-36 0 -53 22t-10 63q-67 -94 -192 -94q-87 0 -128.5 46t-24.5 124q26 114 209 133l84 10q55 7 80 22.5t33 47.5q10 51 -19 79.5t-100 28.5q-73 0 -111.5 -27.5
t-54.5 -90.5h-56q22 87 75 127t152 40t141 -44t24 -126zM176 37q74 0 130.5 41t74.5 117l20 94q-26 -22 -93 -31l-83 -10q-137 -18 -155 -101q-11 -52 16 -81t90 -29z" />
    <glyph glyph-name="acircumflex" unicode="&#xe2;" horiz-adv-x="511" 
d="M425 594l-79 110l-126 -110h-59l146 144h85l87 -144h-54zM153 488q52 40 152 40t142 -44q41 -45 23 -126l-55 -258q-10 -55 29 -55q2 0 11 0.5t12 0.5l-9 -46q-16 -3 -37 -3q-36 0 -53 22t-10 63q-67 -94 -192 -94q-87 0 -128.5 46t-24.5 124q26 114 209 133l84 10
q55 7 80 22.5t33 47.5q10 51 -19 79.5t-100 28.5q-73 0 -111.5 -27.5t-54.5 -90.5h-56q23 87 75 127zM176 37q74 0 130.5 41t74.5 117l20 94q-26 -22 -93 -31l-83 -10q-137 -18 -155 -101q-11 -52 16 -81t90 -29z" />
    <glyph glyph-name="atilde" unicode="&#xe3;" horiz-adv-x="511" 
d="M262 657q-38 0 -53 -63h-48q25 114 105 114q34 0 77 -33q37 -29 62 -29q37 0 52 62h48q-26 -114 -104 -114q-30 0 -80 35q-37 28 -59 28zM153 488q52 40 152 40t142 -44q41 -45 23 -126l-55 -258q-10 -55 29 -55q2 0 11 0.5t12 0.5l-9 -46q-16 -3 -37 -3q-36 0 -53 22
t-10 63q-67 -94 -192 -94q-87 0 -128.5 46t-24.5 124q26 114 209 133l84 10q55 7 80 22.5t33 47.5q10 51 -19 79.5t-100 28.5q-73 0 -111.5 -27.5t-54.5 -90.5h-56q23 87 75 127zM176 37q74 0 130.5 41t74.5 117l20 94q-26 -22 -93 -31l-83 -10q-137 -18 -155 -101
q-11 -52 16 -81t90 -29z" />
    <glyph glyph-name="adieresis" unicode="&#xe4;" horiz-adv-x="511" 
d="M220 688h60l-20 -94h-60zM402 688h60l-20 -94h-60zM470 358l-55 -258q-10 -55 29 -55q2 0 11 0.5t12 0.5l-9 -46q-16 -3 -37 -3q-36 0 -53 22t-10 63q-67 -94 -192 -94q-87 0 -128.5 46t-24.5 124q26 114 209 133l84 10q55 7 80 22.5t33 47.5q10 51 -19 79.5t-100 28.5
q-73 0 -111.5 -27.5t-54.5 -90.5h-56q22 87 75 127t152 40t141 -44t24 -126zM176 37q74 0 130.5 41t74.5 117l20 94q-26 -22 -93 -31l-83 -10q-137 -18 -155 -101q-11 -52 16 -81t90 -29z" />
    <glyph glyph-name="aring" unicode="&#xe5;" horiz-adv-x="511" 
d="M344 591q-50 0 -84 32.5t-34 81.5q0 48 34 81t84 33q49 0 83 -33t34 -81t-34 -81t-83 -33zM396 756q-22 21 -52 21t-51 -21q-22 -21 -22 -51t22 -51q21 -21 51 -21t52 21q21 21 21 51t-21 51zM470 358l-55 -258q-10 -55 29 -55q2 0 11 0.5t12 0.5l-9 -46q-16 -3 -37 -3
q-36 0 -53 22t-10 63q-67 -94 -192 -94q-87 0 -128.5 46t-24.5 124q26 114 209 133l84 10q55 7 80 22.5t33 47.5q10 51 -19 79.5t-100 28.5q-73 0 -111.5 -27.5t-54.5 -90.5h-56q22 87 75 127t152 40t141 -44t24 -126zM176 37q74 0 130.5 41t74.5 117l20 94q-26 -22 -93 -31
l-83 -10q-137 -18 -155 -101q-11 -52 16 -81t90 -29z" />
    <glyph glyph-name="ae" unicode="&#xe6;" horiz-adv-x="863" 
d="M652 528q107 0 155 -77q47 -79 19 -192q0 -1 -1 -4.5t-2 -7.5l-2 -8h-383q-13 -96 21 -147.5t108 -51.5q124 0 175 125h56q-30 -85 -90.5 -131t-144.5 -46q-65 0 -110 31.5t-63 89.5q-81 -121 -222 -121q-88 0 -130 44.5t-25 123.5q22 113 213 136l81 9q54 7 79 25.5
t33 55.5q23 97 -118 97q-75 0 -114.5 -27.5t-53.5 -90.5h-56q37 167 231 167q138 0 164 -83q77 83 180 83zM646 476q-69 0 -121.5 -49t-76.5 -137h327q13 83 -21 134.5t-108 51.5zM175 36q71 0 126.5 40.5t78.5 115.5q0 36 9 80q1 1 1 4q1 4 1 5q-30 -19 -84 -26l-83 -10
q-136 -16 -155 -98q-11 -52 16.5 -81.5t89.5 -29.5z" />
    <glyph glyph-name="ccedilla" unicode="&#xe7;" horiz-adv-x="513" 
d="M309 477q-76 0 -133 -56t-78 -153q-23 -110 13 -169.5t119 -59.5q62 0 110 36.5t71 101.5h58q-25 -80 -84 -130.5t-138 -57.5l-52 -52h5q44 0 67 -24.5t15 -60.5q-16 -78 -140 -78q-36 0 -61 6l7 34q24 -4 58 -4q73 0 82 48q4 23 -11.5 36t-49.5 13q-16 0 -23 -1l5 28
l51 55q-98 9 -142 86.5t-17 204.5q24 110 98 180q74 68 178 68q88 0 137.5 -49.5t47.5 -132.5h-59q-1 61 -37 96t-97 35z" />
    <glyph glyph-name="egrave" unicode="&#xe8;" horiz-adv-x="536" 
d="M322 738l35 -144h-46l-63 144h74zM317 528q111 0 161 -77q49 -76 22 -192l-6 -20h-402q-15 -95 21 -147t115 -52q130 0 183 125h59q-33 -86 -96 -131.5t-152 -45.5q-109 0 -159 77q-51 77 -24 207q24 112 100 184q77 72 178 72zM310 476q-73 0 -128.5 -49.5t-79.5 -136.5
h344q14 83 -22 134.5t-114 51.5z" />
    <glyph glyph-name="eacute" unicode="&#xe9;" horiz-adv-x="536" 
d="M406 738h74l-122 -144h-48zM317 528q111 0 161 -77q49 -76 22 -192l-6 -20h-402q-15 -95 21 -147t115 -52q130 0 183 125h59q-33 -86 -96 -131.5t-152 -45.5q-109 0 -159 77q-51 77 -24 207q24 112 100 184q77 72 178 72zM310 476q-73 0 -128.5 -49.5t-79.5 -136.5h344
q14 83 -22 134.5t-114 51.5z" />
    <glyph glyph-name="ecircumflex" unicode="&#xea;" horiz-adv-x="536" 
d="M435 594l-79 110l-126 -110h-59l146 144h85l87 -144h-54zM317 528q111 0 161 -77q49 -76 22 -192l-6 -20h-402q-15 -95 21 -147t115 -52q130 0 183 125h59q-33 -86 -96 -131.5t-152 -45.5q-109 0 -159 77q-51 77 -24 207q24 112 100 184q77 72 178 72zM310 476
q-73 0 -128.5 -49.5t-79.5 -136.5h344q14 83 -22 134.5t-114 51.5z" />
    <glyph glyph-name="edieresis" unicode="&#xeb;" horiz-adv-x="536" 
d="M230 688h60l-20 -94h-60zM412 688h60l-20 -94h-60zM317 528q111 0 161 -77q49 -76 22 -192l-6 -20h-402q-15 -95 21 -147t115 -52q130 0 183 125h59q-33 -86 -96 -131.5t-152 -45.5q-109 0 -159 77q-51 77 -24 207q24 112 100 184q77 72 178 72zM310 476
q-73 0 -128.5 -49.5t-79.5 -136.5h344q14 83 -22 134.5t-114 51.5z" />
    <glyph glyph-name="igrave" unicode="&#xec;" horiz-adv-x="176" 
d="M175 594h-45l-54 144h67zM62 0h-57l110 516h57z" />
    <glyph glyph-name="iacute" unicode="&#xed;" horiz-adv-x="176" 
d="M172 594h-45l63 144h67zM62 0h-57l110 516h57z" />
    <glyph glyph-name="icircumflex" unicode="&#xee;" horiz-adv-x="176" 
d="M230 738l62 -144h-53l-56 108l-102 -108h-57l124 144h82zM62 0h-57l110 516h57z" />
    <glyph glyph-name="idieresis" unicode="&#xef;" horiz-adv-x="176" 
d="M117 594h-60l20 94h60zM262 594h-60l20 94h60zM62 0h-57l110 516h57z" />
    <glyph glyph-name="eth" unicode="&#xf0;" horiz-adv-x="538" 
d="M392 653l151 48l-10 -48l-114 -36q80 -110 90 -242q5 -74 -16 -152q-24 -108 -93 -171.5t-174 -63.5q-106 0 -160 76q-55 74 -26 207q23 102 95 165q71 64 172 64q92 0 140 -61q-23 79 -82 161l-176 -56l11 48l138 44l-56 76h65zM436 229q23 101 -15.5 160.5t-120.5 59.5
q-76 0 -131 -51.5t-73 -137.5q-21 -104 17.5 -162.5t120.5 -58.5q75 0 129.5 51.5t72.5 138.5z" />
    <glyph glyph-name="ntilde" unicode="&#xf1;" horiz-adv-x="529" 
d="M274 657q-38 0 -53 -63h-48q25 114 105 114q34 0 77 -33q37 -29 62 -29q37 0 52 62h48q-25 -114 -104 -114q-30 0 -80 35q-37 28 -59 28zM339 528q89 0 127.5 -54t15.5 -157l-68 -317h-56l67 321q33 156 -99 156q-72 0 -127.5 -49t-75.5 -139l-61 -289h-57l110 516h54
l-19 -88q75 100 189 100z" />
    <glyph glyph-name="ograve" unicode="&#xf2;" horiz-adv-x="555" 
d="M371 594h-46l-63 144h74zM234 -12q-117 0 -169.5 76t-24.5 207q22 111 102 185q80 72 180 72q116 0 168.5 -76t24.5 -207q-22 -112 -102 -184q-79 -73 -179 -73zM235 39q79 0 141 59q62 58 81 153q23 105 -13.5 165.5t-122.5 60.5q-81 0 -142 -60q-62 -60 -81 -151
q-23 -106 14 -166.5t123 -60.5z" />
    <glyph glyph-name="oacute" unicode="&#xf3;" horiz-adv-x="555" 
d="M371 594h-48l96 144h74zM234 -12q-117 0 -169.5 76t-24.5 207q22 111 102 185q80 72 180 72q116 0 168.5 -76t24.5 -207q-22 -112 -102 -184q-79 -73 -179 -73zM235 39q79 0 141 59q62 58 81 153q23 105 -13.5 165.5t-122.5 60.5q-81 0 -142 -60q-62 -60 -81 -151
q-23 -106 14 -166.5t123 -60.5z" />
    <glyph glyph-name="ocircumflex" unicode="&#xf4;" horiz-adv-x="555" 
d="M448 594l-79 110l-126 -110h-59l146 144h85l87 -144h-54zM322 528q116 0 168.5 -76t24.5 -207q-22 -112 -102 -184q-79 -73 -179 -73q-117 0 -169.5 76t-24.5 207q22 111 102 185q80 72 180 72zM457 251q23 105 -13.5 165.5t-122.5 60.5q-81 0 -142 -60q-62 -60 -81 -151
q-23 -106 14 -166.5t123 -60.5q79 0 141 59q62 58 81 153z" />
    <glyph glyph-name="otilde" unicode="&#xf5;" horiz-adv-x="555" 
d="M233 594h-48q25 114 105 114q34 0 77 -33q37 -29 62 -29q37 0 52 62h48q-25 -114 -104 -114q-30 0 -80 35q-38 28 -59 28q-38 0 -53 -63zM234 -12q-117 0 -169.5 76t-24.5 207q22 111 102 185q80 72 180 72q116 0 168.5 -76t24.5 -207q-22 -112 -102 -184
q-79 -73 -179 -73zM235 39q79 0 141 59q62 58 81 153q23 105 -13.5 165.5t-122.5 60.5q-81 0 -142 -60q-62 -60 -81 -151q-23 -106 14 -166.5t123 -60.5z" />
    <glyph glyph-name="odieresis" unicode="&#xf6;" horiz-adv-x="555" 
d="M283 594h-60l20 94h60zM465 594h-60l20 94h60zM234 -12q-117 0 -169.5 76t-24.5 207q22 111 102 185q80 72 180 72q116 0 168.5 -76t24.5 -207q-22 -112 -102 -184q-79 -73 -179 -73zM235 39q79 0 141 59q62 58 81 153q23 105 -13.5 165.5t-122.5 60.5q-81 0 -142 -60
q-62 -60 -81 -151q-23 -106 14 -166.5t123 -60.5z" />
    <glyph glyph-name="divide" unicode="&#xf7;" horiz-adv-x="521" 
d="M318 482h-57v90h57v-90zM495 330h-428v52h428v-52zM319 140h-57v90h57v-90z" />
    <glyph glyph-name="oslash" unicode="&#xf8;" horiz-adv-x="555" 
d="M500 545l36 -31l-49 -57q58 -76 28 -212q-22 -112 -102 -184q-79 -73 -179 -73q-77 0 -125 33l-44 -51l-36 31l44 51q-65 76 -33 219q22 111 102 185q80 72 180 72q81 0 131 -37zM98 266q-22 -106 15 -168l303 350q-38 29 -95 29q-81 0 -142 -60q-62 -60 -81 -151z
M457 251q22 97 -10 160l-301 -347q34 -25 89 -25q79 0 141 59q62 58 81 153z" />
    <glyph glyph-name="ugrave" unicode="&#xf9;" horiz-adv-x="529" 
d="M323 738l35 -144h-46l-63 144h74zM406 227l61 289h57l-110 -516h-54l19 88q-75 -100 -189 -100q-89 0 -127.5 54t-15.5 157l68 317h56l-67 -321q-33 -156 99 -156q72 0 127.5 49t75.5 139z" />
    <glyph glyph-name="uacute" unicode="&#xfa;" horiz-adv-x="529" 
d="M406 738h74l-122 -144h-48zM406 227l61 289h57l-110 -516h-54l19 88q-75 -100 -189 -100q-89 0 -127.5 54t-15.5 157l68 317h56l-67 -321q-33 -156 99 -156q72 0 127.5 49t75.5 139z" />
    <glyph glyph-name="ucircumflex" unicode="&#xfb;" horiz-adv-x="529" 
d="M435 594l-79 110l-126 -110h-59l146 144h85l87 -144h-54zM406 227l61 289h57l-110 -516h-54l19 88q-75 -100 -189 -100q-89 0 -127.5 54t-15.5 157l68 317h56l-67 -321q-33 -156 99 -156q72 0 127.5 49t75.5 139z" />
    <glyph glyph-name="udieresis" unicode="&#xfc;" horiz-adv-x="529" 
d="M230 688h60l-20 -94h-60zM412 688h60l-20 -94h-60zM406 227l61 289h57l-110 -516h-54l19 88q-75 -100 -189 -100q-89 0 -127.5 54t-15.5 157l68 317h56l-67 -321q-33 -156 99 -156q72 0 127.5 49t75.5 139z" />
    <glyph glyph-name="yacute" unicode="&#xfd;" horiz-adv-x="477" 
d="M377 738h74l-122 -144h-48zM316 266l143 250h63l-344 -588q-40 -69 -78 -97t-98 -28q-25 0 -49 3l10 47h43q70 0 120 87l27 45l-88 531h61l40 -250q1 -13 30 -214q8 14 29.5 52.5t32.5 59.5q14 25 33.5 58.5t24.5 43.5z" />
    <glyph glyph-name="thorn" unicode="&#xfe;" horiz-adv-x="569" 
d="M345 528q110 0 161 -77q51 -78 24 -204q-26 -117 -99 -187q-75 -72 -179 -72q-126 0 -168 110l-63 -294h-57l194 908h57l-58 -273q77 89 188 89zM472 252q22 105 -14.5 165t-120.5 60q-86 0 -145.5 -57t-79.5 -157q-22 -104 16.5 -164.5t125.5 -60.5q79 0 138 58.5
t80 155.5z" />
    <glyph glyph-name="ydieresis" unicode="&#xff;" horiz-adv-x="477" 
d="M201 688h60l-20 -94h-60zM383 688h60l-20 -94h-60zM316 266l143 250h63l-344 -588q-40 -69 -78 -97t-98 -28q-25 0 -49 3l10 47h43q70 0 120 87l27 45l-88 531h61l40 -250q1 -13 30 -214q8 14 29.5 52.5t32.5 59.5q14 25 33.5 58.5t24.5 43.5z" />
    <glyph glyph-name="Amacron" unicode="&#x100;" horiz-adv-x="671" 
d="M309 803h275l-11 -48h-275zM599 0h-61l-42 215h-344l-133 -215h-64l438 712h67zM260 390l-75 -122h301l-24 123q-11 56 -47 257q-56 -97 -83 -140q-41 -67 -72 -118z" />
    <glyph glyph-name="amacron" unicode="&#x101;" horiz-adv-x="511" 
d="M194 642h275l-11 -48h-275zM470 358l-55 -258q-10 -55 29 -55q2 0 11 0.5t12 0.5l-9 -46q-16 -3 -37 -3q-36 0 -53 22t-10 63q-67 -94 -192 -94q-87 0 -128.5 46t-24.5 124q26 114 209 133l84 10q55 7 80 22.5t33 47.5q10 51 -19 79.5t-100 28.5q-73 0 -111.5 -27.5
t-54.5 -90.5h-56q22 87 75 127t152 40t141 -44t24 -126zM176 37q74 0 130.5 41t74.5 117l20 94q-26 -22 -93 -31l-83 -10q-137 -18 -155 -101q-11 -52 16 -81t90 -29z" />
    <glyph glyph-name="Abreve" unicode="&#x102;" horiz-adv-x="671" 
d="M443 751q-66 0 -101.5 38t-27.5 99h49q-3 -42 20 -66.5t66 -24.5q39 0 68 24.5t42 66.5h49q-15 -65 -59.5 -101t-105.5 -36zM-45 0l438 712h67l139 -712h-61l-42 215h-344l-133 -215h-64zM185 268h301l-24 123q-11 56 -47 257q-56 -97 -83 -140q-41 -67 -72 -118z" />
    <glyph glyph-name="abreve" unicode="&#x103;" horiz-adv-x="511" 
d="M332 590q-66 0 -101.5 38t-27.5 99h49q-3 -43 20 -67t66 -24q39 0 68 24.5t42 66.5h49q-16 -65 -60 -101t-105 -36zM153 488q52 40 152 40t142 -44q41 -45 23 -126l-55 -258q-10 -55 29 -55q2 0 11 0.5t12 0.5l-9 -46q-16 -3 -37 -3q-36 0 -53 22t-10 63
q-67 -94 -192 -94q-87 0 -128.5 46t-24.5 124q26 114 209 133l84 10q55 7 80 22.5t33 47.5q10 51 -19 79.5t-100 28.5q-73 0 -111.5 -27.5t-54.5 -90.5h-56q23 87 75 127zM176 37q74 0 130.5 41t74.5 117l20 94q-26 -22 -93 -31l-83 -10q-137 -18 -155 -101q-11 -52 16 -81
t90 -29z" />
    <glyph glyph-name="Aogonek" unicode="&#x104;" horiz-adv-x="671" 
d="M465 -110q-6 -24 8 -37.5t39 -13.5q28 0 58 11l-10 -47q-33 -11 -64 -11q-43 0 -69 25t-18 64q7 34 41.5 65.5t88.5 53.5h-1l-42 215h-344l-133 -215h-64l438 712h67l139 -712q-120 -55 -134 -110zM260 390l-75 -122h301l-24 123q-11 56 -47 257q-56 -97 -83 -140
q-41 -67 -72 -118z" />
    <glyph glyph-name="aogonek" unicode="&#x105;" horiz-adv-x="511" 
d="M470 358l-55 -258q-10 -55 29 -55q2 0 11 0.5t12 0.5l-9 -46q-123 -57 -134 -110q-6 -24 8 -37.5t39 -13.5q30 0 58 11l-10 -47q-33 -11 -64 -11q-43 0 -69 25t-18 64q13 69 129 119q-53 15 -39 81q-69 -93 -192 -93q-87 0 -128.5 46t-24.5 124q26 114 209 133l84 10
q55 7 80 22.5t33 47.5q10 51 -19 79.5t-100 28.5q-73 0 -111.5 -27.5t-54.5 -90.5h-56q22 87 75 127t152 40t141 -44t24 -126zM176 37q74 0 130.5 41t74.5 117l20 94q-26 -22 -93 -31l-83 -10q-137 -18 -155 -101q-11 -52 16 -81t90 -29z" />
    <glyph glyph-name="Cacute" unicode="&#x106;" horiz-adv-x="694" 
d="M486 771h-55l121 144h79zM310 -16q-152 0 -219 105q-68 104 -29 289q31 154 140 252q107 98 247 98q116 0 183.5 -66.5t67.5 -185.5h-60q-1 96 -53 147t-143 51q-117 0 -205 -84q-89 -84 -117 -219q-35 -155 18 -244t174 -89q98 0 175.5 59t110.5 163h60
q-41 -131 -135 -203q-94 -73 -215 -73z" />
    <glyph glyph-name="cacute" unicode="&#x107;" horiz-adv-x="513" 
d="M358 594h-48l96 144h74zM223 -12q-107 0 -158 78q-53 77 -24 214q24 110 98 180q74 68 178 68q88 0 137.5 -49.5t47.5 -132.5h-59q-1 61 -37 96t-97 35q-76 0 -133 -56t-78 -153q-23 -110 13 -169.5t119 -59.5q62 0 110 36.5t71 101.5h58q-27 -87 -93 -138t-153 -51z" />
    <glyph glyph-name="Ccircumflex" unicode="&#x108;" horiz-adv-x="694" 
d="M573 771l-79 110l-126 -110h-59l146 144h85l87 -144h-54zM314 38q98 0 175.5 59t110.5 163h60q-41 -131 -135 -203q-94 -73 -215 -73q-152 0 -219 105q-68 104 -29 289q31 154 140 252q107 98 247 98q116 0 183.5 -66.5t67.5 -185.5h-60q-1 96 -53 147t-143 51
q-117 0 -205 -84q-89 -84 -117 -219q-35 -155 18 -244t174 -89z" />
    <glyph glyph-name="ccircumflex" unicode="&#x109;" horiz-adv-x="513" 
d="M435 594l-79 110l-126 -110h-59l146 144h85l87 -144h-54zM309 477q-76 0 -133 -56t-78 -153q-23 -110 13 -169.5t119 -59.5q62 0 110 36.5t71 101.5h58q-27 -87 -93 -138t-153 -51q-107 0 -158 78q-53 77 -24 214q24 110 98 180q74 68 178 68q88 0 137.5 -49.5
t47.5 -132.5h-59q-1 61 -37 96t-97 35z" />
    <glyph glyph-name="Cdotaccent" unicode="&#x10a;" horiz-adv-x="694" 
d="M498 771h-60l19 94h60zM310 -16q-152 0 -219 105q-68 104 -29 289q31 154 140 252q107 98 247 98q116 0 183.5 -66.5t67.5 -185.5h-60q-1 96 -53 147t-143 51q-117 0 -205 -84q-89 -84 -117 -219q-35 -155 18 -244t174 -89q98 0 175.5 59t110.5 163h60
q-41 -131 -135 -203q-94 -73 -215 -73z" />
    <glyph glyph-name="cdotaccent" unicode="&#x10b;" horiz-adv-x="513" 
d="M362 594h-60l19 94h60zM223 -12q-107 0 -158 78q-53 77 -24 214q24 110 98 180q74 68 178 68q88 0 137.5 -49.5t47.5 -132.5h-59q-1 61 -37 96t-97 35q-76 0 -133 -56t-78 -153q-23 -110 13 -169.5t119 -59.5q62 0 110 36.5t71 101.5h58q-27 -87 -93 -138t-153 -51z" />
    <glyph glyph-name="Ccaron" unicode="&#x10c;" horiz-adv-x="694" 
d="M657 915l-146 -144h-85l-87 144h54l79 -110l126 110h59zM314 38q98 0 175.5 59t110.5 163h60q-41 -131 -135 -203q-94 -73 -215 -73q-152 0 -219 105q-68 104 -29 289q31 154 140 252q107 98 247 98q116 0 183.5 -66.5t67.5 -185.5h-60q-1 96 -53 147t-143 51
q-117 0 -205 -84q-89 -84 -117 -219q-35 -155 18 -244t174 -89z" />
    <glyph glyph-name="ccaron" unicode="&#x10d;" horiz-adv-x="513" 
d="M514 737l-146 -144h-85l-87 144h54l79 -110l126 110h59zM317 528q88 0 137.5 -49.5t47.5 -132.5h-59q-1 61 -37 96t-97 35q-76 0 -133 -56t-78 -153q-23 -110 13 -169.5t119 -59.5q62 0 110 36.5t71 101.5h58q-27 -87 -93 -138t-153 -51q-107 0 -158 78q-53 77 -24 214
q24 110 98 180q74 68 178 68z" />
    <glyph glyph-name="Dcaron" unicode="&#x10e;" horiz-adv-x="675" 
d="M578 899l-146 -144h-85l-87 144h54l79 -110l126 110h59zM162 712h217q164 0 238 -107q73 -106 37 -276q-71 -329 -416 -329h-227zM593 340q30 140 -26 229t-195 89h-162l-129 -604h162q289 0 350 286z" />
    <glyph glyph-name="dcaron" unicode="&#x10f;" horiz-adv-x="652" 
d="M485 416l63 296h57l-152 -712h-54l17 81q-78 -93 -192 -93q-109 0 -160 78q-51 76 -25 203q26 117 100 188t179 71q125 0 167 -112zM618 546l80 166h60l-95 -166h-45zM233 39q85 0 144.5 57t80.5 157q22 104 -17 164.5t-126 60.5q-79 0 -138 -59q-60 -60 -79 -155
q-23 -105 13.5 -165t121.5 -60z" />
    <glyph glyph-name="Dcroat" unicode="&#x110;" horiz-adv-x="697" 
d="M184 712h217q164 0 238 -107q73 -106 37 -276q-72 -329 -416 -329h-227l73 346h-86l11 46h85zM615 340q30 140 -26 229t-195 89h-162l-57 -266h208l-11 -46h-207l-62 -292h161q290 0 351 286z" />
    <glyph glyph-name="dslash" unicode="&#x111;" horiz-adv-x="600" 
d="M589 635h106l-10 -46h-106l-126 -589h-54l17 81q-78 -93 -192 -93q-109 0 -160 78q-51 76 -25 203q26 117 100 188t179 71q125 0 167 -112l37 173h-108l10 46h108l16 77h57zM233 39q85 0 144.5 57t80.5 157q22 104 -17 164.5t-126 60.5q-79 0 -138 -59q-60 -60 -79 -155
q-23 -105 13.5 -165t121.5 -60z" />
    <glyph glyph-name="Emacron" unicode="&#x112;" horiz-adv-x="575" 
d="M274 803h275l-11 -48h-275zM642 712l-12 -54h-421l-55 -259h381l-12 -54h-380l-62 -291h421l-12 -54h-480l152 712h480z" />
    <glyph glyph-name="emacron" unicode="&#x113;" horiz-adv-x="536" 
d="M204 642h275l-11 -48h-275zM317 528q111 0 161 -77q49 -76 22 -192l-6 -20h-402q-15 -95 21 -147t115 -52q130 0 183 125h59q-33 -86 -96 -131.5t-152 -45.5q-109 0 -159 77q-51 77 -24 207q24 112 100 184q77 72 178 72zM310 476q-73 0 -128.5 -49.5t-79.5 -136.5h344
q14 83 -22 134.5t-114 51.5z" />
    <glyph glyph-name="Ebreve" unicode="&#x114;" horiz-adv-x="575" 
d="M408 751q-66 0 -101.5 38t-27.5 99h49q-3 -42 20 -66.5t66 -24.5q39 0 68 24.5t42 66.5h49q-15 -65 -59.5 -101t-105.5 -36zM642 712l-12 -54h-421l-55 -259h381l-12 -54h-380l-62 -291h421l-12 -54h-480l152 712h480z" />
    <glyph glyph-name="ebreve" unicode="&#x115;" horiz-adv-x="536" 
d="M342 590q-66 0 -101.5 38t-27.5 99h49q-3 -43 20 -67t66 -24q39 0 68 24.5t42 66.5h49q-16 -65 -60 -101t-105 -36zM317 528q111 0 161 -77q49 -76 22 -192l-6 -20h-402q-15 -95 21 -147t115 -52q130 0 183 125h59q-33 -86 -96 -131.5t-152 -45.5q-109 0 -159 77
q-51 77 -24 207q24 112 100 184q77 72 178 72zM310 476q-73 0 -128.5 -49.5t-79.5 -136.5h344q14 83 -22 134.5t-114 51.5z" />
    <glyph glyph-name="Edotaccent" unicode="&#x116;" horiz-adv-x="575" 
d="M390 849h60l-19 -94h-60zM642 712l-12 -54h-421l-55 -259h381l-12 -54h-380l-62 -291h421l-12 -54h-480l152 712h480z" />
    <glyph glyph-name="edotaccent" unicode="&#x117;" horiz-adv-x="536" 
d="M320 688h60l-19 -94h-60zM317 528q111 0 161 -77q49 -76 22 -192l-6 -20h-402q-15 -95 21 -147t115 -52q130 0 183 125h59q-33 -86 -96 -131.5t-152 -45.5q-109 0 -159 77q-51 77 -24 207q24 112 100 184q77 72 178 72zM310 476q-73 0 -128.5 -49.5t-79.5 -136.5h344
q14 83 -22 134.5t-114 51.5z" />
    <glyph glyph-name="Eogonek" unicode="&#x118;" horiz-adv-x="575" 
d="M642 712l-12 -54h-421l-55 -259h381l-12 -54h-380l-62 -291h421l-12 -54h-7q-120 -55 -134 -110q-6 -24 8 -37.5t39 -13.5q30 0 58 11l-10 -47q-33 -11 -64 -11q-43 0 -69 25t-18 64q7 34 41.5 65.5t88.5 53.5h-413l152 712h480z" />
    <glyph glyph-name="eogonek" unicode="&#x119;" horiz-adv-x="536" 
d="M317 528q111 0 161 -77q49 -76 22 -192l-6 -20h-402q-15 -95 21 -147t115 -52q130 0 183 125h59q-48 -129 -163 -165q-120 -55 -134 -110q-6 -24 8 -37.5t39 -13.5q28 0 58 11l-10 -47q-33 -11 -64 -11q-43 0 -69 25t-18 64q12 62 103 107q-109 2 -158 78q-50 77 -23 206
q24 112 100 184q77 72 178 72zM310 476q-73 0 -128.5 -49.5t-79.5 -136.5h344q14 83 -22 134.5t-114 51.5z" />
    <glyph glyph-name="Ecaron" unicode="&#x11a;" horiz-adv-x="575" 
d="M590 899l-146 -144h-85l-87 144h54l79 -110l126 110h59zM642 712l-12 -54h-421l-55 -259h381l-12 -54h-380l-62 -291h421l-12 -54h-480l152 712h480z" />
    <glyph glyph-name="ecaron" unicode="&#x11b;" horiz-adv-x="536" 
d="M513 737l-146 -144h-85l-87 144h54l79 -110l126 110h59zM317 528q111 0 161 -77q49 -76 22 -192l-6 -20h-402q-15 -95 21 -147t115 -52q130 0 183 125h59q-33 -86 -96 -131.5t-152 -45.5q-109 0 -159 77q-51 77 -24 207q24 112 100 184q77 72 178 72zM310 476
q-73 0 -128.5 -49.5t-79.5 -136.5h344q14 83 -22 134.5t-114 51.5z" />
    <glyph glyph-name="Gcircumflex" unicode="&#x11c;" horiz-adv-x="736" 
d="M573 771l-79 110l-126 -110h-59l146 144h85l87 -144h-54zM719 479h-61q3 87 -56 141t-157 54q-120 0 -207 -84q-86 -83 -115 -218q-33 -155 25 -244q57 -90 183 -90q113 0 197 75q85 76 110 192h-243l11 54h297l-76 -359h-50l17 124q-101 -140 -268 -140q-154 0 -228 108
q-75 106 -36 288q33 153 138 250q104 98 251 98q127 0 200 -69q72 -69 68 -180z" />
    <glyph glyph-name="gcircumflex" unicode="&#x11d;" horiz-adv-x="563" 
d="M445 594l-79 110l-126 -110h-59l146 144h85l87 -144h-54zM484 423l21 93h54l-106 -496q-25 -116 -87.5 -172t-175.5 -56q-94 0 -142.5 43.5t-43.5 117.5h56q-2 -55 32.5 -84t103.5 -29q84 0 132 43.5t68 136.5l12 56q-73 -88 -183 -88q-109 0 -161 81t-24 207
q26 118 100.5 185t177.5 67q60 0 103 -27.5t63 -77.5zM233 39q82 0 141.5 59t79.5 160q22 102 -15.5 160.5t-121.5 58.5q-82 0 -139.5 -56t-77.5 -153q-22 -105 14 -167t119 -62z" />
    <glyph glyph-name="Gbreve" unicode="&#x11e;" horiz-adv-x="736" 
d="M475 767q-66 0 -101.5 38t-27.5 99h49q-3 -42 20 -66.5t66 -24.5q39 0 68 24.5t42 66.5h49q-15 -65 -59.5 -101t-105.5 -36zM719 479h-61q3 87 -56 141t-157 54q-120 0 -207 -84q-86 -83 -115 -218q-33 -155 25 -244q57 -90 183 -90q113 0 197 75q85 76 110 192h-243
l11 54h297l-76 -359h-50l17 124q-101 -140 -268 -140q-154 0 -228 108q-75 106 -36 288q33 153 138 250q104 98 251 98q127 0 200 -69q72 -69 68 -180z" />
    <glyph glyph-name="gbreve" unicode="&#x11f;" horiz-adv-x="563" 
d="M352 590q-66 0 -101.5 38t-27.5 99h49q-3 -43 20 -67t66 -24q39 0 68 24.5t42 66.5h49q-16 -65 -60 -101t-105 -36zM484 423l21 93h54l-106 -496q-25 -116 -87.5 -172t-175.5 -56q-94 0 -142.5 43.5t-43.5 117.5h56q-2 -55 32.5 -84t103.5 -29q84 0 132 43.5t68 136.5
l12 56q-73 -88 -183 -88q-109 0 -161 81t-24 207q26 118 100.5 185t177.5 67q60 0 103 -27.5t63 -77.5zM233 39q82 0 141.5 59t79.5 160q22 102 -15.5 160.5t-121.5 58.5q-82 0 -139.5 -56t-77.5 -153q-22 -105 14 -167t119 -62z" />
    <glyph glyph-name="Gdotaccent" unicode="&#x120;" horiz-adv-x="736" 
d="M456 865h60l-19 -94h-60zM719 479h-61q3 87 -56 141t-157 54q-120 0 -207 -84q-86 -83 -115 -218q-33 -155 25 -244q57 -90 183 -90q113 0 197 75q85 76 110 192h-243l11 54h297l-76 -359h-50l17 124q-101 -140 -268 -140q-154 0 -228 108q-75 106 -36 288
q33 153 138 250q104 98 251 98q127 0 200 -69q72 -69 68 -180z" />
    <glyph glyph-name="gdotaccent" unicode="&#x121;" horiz-adv-x="563" 
d="M330 688h60l-19 -94h-60zM484 423l21 93h54l-106 -496q-25 -116 -87.5 -172t-175.5 -56q-94 0 -142.5 43.5t-43.5 117.5h56q-2 -55 32.5 -84t103.5 -29q84 0 132 43.5t68 136.5l12 56q-73 -88 -183 -88q-109 0 -161 81t-24 207q26 118 100.5 185t177.5 67q60 0 103 -27.5
t63 -77.5zM233 39q82 0 141.5 59t79.5 160q22 102 -15.5 160.5t-121.5 58.5q-82 0 -139.5 -56t-77.5 -153q-22 -105 14 -167t119 -62z" />
    <glyph glyph-name="uni0122" unicode="&#x122;" horiz-adv-x="736" 
d="M719 479h-61q3 87 -56 141t-157 54q-120 0 -207 -84q-86 -83 -115 -218q-33 -155 25 -244q57 -90 183 -90q113 0 197 75q85 76 110 192h-243l11 54h297l-76 -359h-50l17 124q-101 -140 -268 -140q-154 0 -228 108q-75 106 -36 288q33 153 138 250q104 98 251 98
q127 0 200 -69q72 -69 68 -180zM322 -126h-41l14 68h76l-18 -87q-8 -39 -28 -58.5t-56 -24.5l-13 -2l7 32l10 1q35 8 44 50z" />
    <glyph glyph-name="uni0123" unicode="&#x123;" horiz-adv-x="563" 
d="M340 662h41l-14 -68h-76l19 87q8 39 27.5 58.5t55.5 24.5l13 2l-7 -32l-10 -1q-35 -8 -44 -50zM484 423l21 93h54l-106 -496q-25 -116 -87.5 -172t-175.5 -56q-94 0 -142.5 43.5t-43.5 117.5h56q-2 -55 32.5 -84t103.5 -29q84 0 132 43.5t68 136.5l12 56
q-73 -88 -183 -88q-109 0 -161 81t-24 207q26 118 100.5 185t177.5 67q60 0 103 -27.5t63 -77.5zM233 39q82 0 141.5 59t79.5 160q22 102 -15.5 160.5t-121.5 58.5q-82 0 -139.5 -56t-77.5 -153q-22 -105 14 -167t119 -62z" />
    <glyph glyph-name="Hcircumflex" unicode="&#x124;" horiz-adv-x="680" 
d="M545 753l-79 110l-126 -110h-59l146 144h85l87 -144h-54zM586 397l67 315h59l-152 -712h-59l73 342h-432l-73 -342h-59l152 712h59l-67 -315h432z" />
    <glyph glyph-name="hcircumflex" unicode="&#x125;" horiz-adv-x="529" 
d="M276 755l-56 108l-102 -108h-57l124 144h82l62 -144h-53zM340 528q89 0 127.5 -54t15.5 -157l-68 -317h-57l68 321q33 156 -100 156q-69 0 -123.5 -45.5t-75.5 -129.5l-64 -302h-57l151 712h57l-59 -278q73 94 185 94z" />
    <glyph glyph-name="Hbar" unicode="&#x126;" horiz-adv-x="724" 
d="M707 583h86l-9 -46h-86l-115 -537h-60l73 342h-431l-73 -342h-60l115 537h-88l10 46h87l28 129h60l-28 -129h431l28 129h60zM177 397h431l30 140h-431z" />
    <glyph glyph-name="hbar" unicode="&#x127;" horiz-adv-x="556" 
d="M367 528q89 0 127.5 -54t15.5 -157l-68 -317h-56l67 321q33 156 -99 156q-69 0 -124 -46t-76 -129l-64 -302h-57l125 589h-105l10 46h105l16 77h57l-16 -77h108l-9 -46h-109l-33 -156q74 95 185 95z" />
    <glyph glyph-name="Itilde" unicode="&#x128;" horiz-adv-x="189" 
d="M110 755h-40q15 59 35.5 85.5t53.5 26.5q27 0 62 -30q34 -31 53 -31q27 0 42 61h40q-13 -58 -34 -85t-54 -27q-22 0 -59 31t-56 31q-26 0 -43 -62zM69 0h-59l152 712h59z" />
    <glyph glyph-name="itilde" unicode="&#x129;" horiz-adv-x="176" 
d="M63 594h-40q15 59 35.5 85.5t53.5 26.5q27 0 62 -30q34 -31 53 -31q27 0 42 61h40q-13 -58 -34 -85t-54 -27q-22 0 -59 31t-56 31q-26 0 -43 -62zM62 0h-57l110 516h57z" />
    <glyph glyph-name="Imacron" unicode="&#x12a;" horiz-adv-x="189" 
d="M306 755h-211l11 48h211zM69 0h-59l152 712h59z" />
    <glyph glyph-name="imacron" unicode="&#x12b;" horiz-adv-x="176" 
d="M265 594h-211l11 48h211zM62 0h-57l110 516h57z" />
    <glyph glyph-name="Ibreve" unicode="&#x12c;" horiz-adv-x="189" 
d="M206 751q-56 0 -87 35.5t-26 90.5h48q-1 -37 18 -58.5t54 -21.5t60.5 21.5t37.5 58.5h49q-38 -126 -154 -126zM69 0h-59l152 712h59z" />
    <glyph glyph-name="ibreve" unicode="&#x12d;" horiz-adv-x="176" 
d="M152 590q-56 0 -87 35.5t-26 90.5h48q-1 -37 18 -58.5t54 -21.5t60.5 21.5t37.5 58.5h49q-38 -126 -154 -126zM62 0h-57l110 516h57z" />
    <glyph glyph-name="Iogonek" unicode="&#x12e;" horiz-adv-x="189" 
d="M221 712l-152 -712q-70 -54 -82 -111q-11 -51 34 -51q19 0 38 8l-9 -44q-19 -10 -46 -10q-37 0 -55.5 25t-9.5 66q15 61 86 117h-15l152 712h59z" />
    <glyph glyph-name="iogonek" unicode="&#x12f;" horiz-adv-x="176" 
d="M130 594l19 94h60l-19 -94h-60zM18 0h-13l110 516h57l-110 -516q-70 -54 -82 -111q-10 -51 34 -51q19 0 38 8l-9 -44q-19 -10 -46 -10q-37 0 -55.5 25t-9.5 66q15 61 86 117z" />
    <glyph glyph-name="Idot" unicode="&#x130;" horiz-adv-x="189" 
d="M231 755h-60l19 94h60zM69 0h-59l152 712h59z" />
    <glyph glyph-name="dotlessi" unicode="&#x131;" horiz-adv-x="176" 
d="M62 0h-57l110 516h57z" />
    <glyph glyph-name="IJ" unicode="&#x132;" horiz-adv-x="712" 
d="M69 0h-59l152 712h59zM404 -15q-107 0 -157 65t-25 174l6 23h58l-7 -32q-18 -84 17.5 -130.5t114.5 -46.5q71 0 117 42.5t62 123.5l108 508h59l-108 -510q-46 -217 -245 -217z" />
    <glyph glyph-name="ij" unicode="&#x133;" horiz-adv-x="355" 
d="M190 594h-60l19 94h60zM366 594h-60l19 94h60zM62 0h-57l110 516h57zM94 -199q-41 0 -51 1l11 49h40q56 0 70 71l127 594h57l-128 -600q-25 -115 -126 -115z" />
    <glyph glyph-name="Jcircumflex" unicode="&#x134;" horiz-adv-x="522" 
d="M620 899l62 -144h-53l-56 108l-102 -108h-57l124 144h82zM401 204l108 508h59l-108 -510q-46 -217 -245 -217q-107 0 -157 65t-25 174l6 23h58l-7 -32q-18 -84 17.5 -130.5t114.5 -46.5q71 0 117 42.5t62 123.5z" />
    <glyph glyph-name="jcircumflex" unicode="&#x135;" horiz-adv-x="179" 
d="M230 738l62 -144h-53l-56 108l-102 -108h-57l124 144h82zM-12 -78l127 594h57l-128 -600q-25 -115 -126 -115q-41 0 -51 1l11 49h40q56 0 70 71z" />
    <glyph glyph-name="uni0136" unicode="&#x136;" horiz-adv-x="642" 
d="M641 712h82l-377 -297l229 -415h-65l-212 378l-178 -140l-50 -238h-59l151 712h59l-85 -400zM268 -111h-41l14 68h76l-18 -87q-8 -39 -28 -58.5t-56 -24.5l-13 -2l7 32l10 1q35 8 44 50z" />
    <glyph glyph-name="uni0137" unicode="&#x137;" horiz-adv-x="494" 
d="M448 516h77l-245 -192l150 -324h-59l-134 291l-135 -104l-40 -187h-57l152 712h57l-97 -452zM187 -111h-41l14 68h76l-18 -87q-8 -39 -28 -58.5t-56 -24.5l-13 -2l7 32l10 1q35 8 44 50z" />
    <glyph glyph-name="kgreenlandic" unicode="&#x138;" horiz-adv-x="494" 
d="M448 516h77l-245 -192l150 -324h-59l-134 291l-135 -104l-40 -187h-57l110 516h57l-55 -256z" />
    <glyph glyph-name="Lacute" unicode="&#x139;" horiz-adv-x="512" 
d="M304 899h79l-145 -144h-55zM221 712l-140 -658h366l-11 -54h-426l152 712h59z" />
    <glyph glyph-name="lacute" unicode="&#x13a;" horiz-adv-x="177" 
d="M210 755h-47l91 144h69zM63 0h-57l151 712h57z" />
    <glyph glyph-name="uni013B" unicode="&#x13b;" horiz-adv-x="512" 
d="M221 712l-140 -658h366l-11 -54h-426l152 712h59zM214 -111h-41l14 68h76l-18 -87q-8 -39 -28 -58.5t-56 -24.5l-13 -2l7 32l10 1q35 8 44 50z" />
    <glyph glyph-name="uni013C" unicode="&#x13c;" horiz-adv-x="177" 
d="M157 712h57l-151 -712h-57zM16 -111h-41l14 68h76l-18 -87q-8 -39 -28 -58.5t-56 -24.5l-13 -2l7 32l10 1q35 8 44 50z" />
    <glyph glyph-name="Lcaron" unicode="&#x13d;" horiz-adv-x="512" 
d="M221 712l-140 -658h366l-11 -54h-426l152 712h59zM340 712h59l-94 -166h-46z" />
    <glyph glyph-name="lcaron" unicode="&#x13e;" horiz-adv-x="256" 
d="M63 0h-57l151 712h57zM272 546h-45l80 166h60z" />
    <glyph glyph-name="Ldot" unicode="&#x13f;" horiz-adv-x="512" 
d="M221 712l-140 -658h366l-11 -54h-426l152 712h59zM343 408h78l-17 -78h-79z" />
    <glyph glyph-name="ldot" unicode="&#x140;" horiz-adv-x="349" 
d="M63 0h-57l151 712h57zM308 315h-78l17 78h79z" />
    <glyph glyph-name="Lslash" unicode="&#x141;" horiz-adv-x="534" 
d="M172 381l-69 -327h366l-12 -54h-425l75 353l-130 -55l12 52l129 55l66 307h59l-60 -280l183 78l-11 -52z" />
    <glyph glyph-name="lslash" unicode="&#x142;" horiz-adv-x="231" 
d="M175 401l96 50l-12 -55l-95 -49l-74 -347h-57l67 314l-100 -51l12 54l100 52l73 343h56z" />
    <glyph glyph-name="Nacute" unicode="&#x143;" horiz-adv-x="681" 
d="M518 899h79l-145 -144h-55zM560 331l81 381h59l-152 -712h-71l-207 452q-58 132 -79 192q-32 -163 -54 -260l-81 -384h-59l152 712h70l208 -452q56 -127 79 -192q17 86 54 263z" />
    <glyph glyph-name="nacute" unicode="&#x144;" horiz-adv-x="529" 
d="M408 738h74l-122 -144h-48zM339 528q89 0 127.5 -54t15.5 -157l-68 -317h-56l67 321q33 156 -99 156q-72 0 -127.5 -49t-75.5 -139l-61 -289h-57l110 516h54l-19 -88q75 100 189 100z" />
    <glyph glyph-name="uni0145" unicode="&#x145;" horiz-adv-x="681" 
d="M560 331l81 381h59l-152 -712h-71l-207 452q-58 132 -79 192q-32 -163 -54 -260l-81 -384h-59l152 712h70l208 -452q56 -127 79 -192q17 86 54 263zM254 -111h-41l14 68h76l-18 -87q-8 -39 -28 -58.5t-56 -24.5l-13 -2l7 32l10 1q35 8 44 50z" />
    <glyph glyph-name="uni0146" unicode="&#x146;" horiz-adv-x="529" 
d="M339 528q89 0 127.5 -54t15.5 -157l-68 -317h-56l67 321q33 156 -99 156q-72 0 -127.5 -49t-75.5 -139l-61 -289h-57l110 516h54l-19 -88q75 100 189 100zM196 -111h-41l14 68h76l-18 -87q-8 -39 -28 -58.5t-56 -24.5l-13 -2l7 32l10 1q35 8 44 50z" />
    <glyph glyph-name="Ncaron" unicode="&#x147;" horiz-adv-x="681" 
d="M623 899l-146 -144h-85l-87 144h54l79 -110l126 110h59zM560 331l81 381h59l-152 -712h-71l-207 452q-58 132 -79 192q-32 -163 -54 -260l-81 -384h-59l152 712h70l208 -452q56 -127 79 -192q17 86 54 263z" />
    <glyph glyph-name="ncaron" unicode="&#x148;" horiz-adv-x="529" 
d="M515 737l-146 -144h-85l-87 144h54l79 -110l126 110h59zM339 528q89 0 127.5 -54t15.5 -157l-68 -317h-56l67 321q33 156 -99 156q-72 0 -127.5 -49t-75.5 -139l-61 -289h-57l110 516h54l-19 -88q75 100 189 100z" />
    <glyph glyph-name="napostrophe" unicode="&#x149;" horiz-adv-x="653" 
d="M223 679l-21 -99q-11 -54 -34 -79t-68 -33l8 39q24 7 35.5 22t18.5 48l5 25h-37l16 77h77zM463 528q89 0 127.5 -54t15.5 -157l-68 -317h-56l67 321q33 156 -99 156q-72 0 -127.5 -49t-75.5 -139l-61 -289h-57l110 516h55l-19 -88q74 100 188 100z" />
    <glyph glyph-name="Eng" unicode="&#x14a;" horiz-adv-x="681" 
d="M641 712h59l-151 -712h-1l-5 -25q-35 -174 -213 -174q-28 0 -63 3l11 50q33 -3 59 -3q125 0 150 126l5 21l-216 457q-55 119 -85 192q-29 -153 -54 -266l-80 -381h-59l151 712h72l215 -455q42 -92 75 -169q35 177 49 243z" />
    <glyph glyph-name="eng" unicode="&#x14b;" horiz-adv-x="529" 
d="M331 528q90 0 130.5 -55t19.5 -158l-87 -408q-12 -56 -43.5 -81t-90.5 -25q-30 0 -40 1l11 49h33q63 0 75 61l86 405q34 160 -111 160q-66 0 -118.5 -49t-72.5 -139l-61 -289h-57l110 516h54l-20 -92q71 104 182 104z" />
    <glyph glyph-name="Omacron" unicode="&#x14c;" horiz-adv-x="740" 
d="M617 771h-275l11 48h275zM322 -16q-154 0 -226 107t-35 283q33 153 143 254q109 100 256 100q152 0 226 -105q72 -107 35 -279q-33 -158 -143 -259t-256 -101zM326 38q122 0 214 87q91 85 121 224q31 149 -24 237q-57 88 -183 88q-123 0 -212 -85q-91 -85 -120 -223
q-32 -152 23 -239q56 -89 181 -89z" />
    <glyph glyph-name="omacron" unicode="&#x14d;" horiz-adv-x="555" 
d="M481 594h-275l11 48h275zM234 -12q-117 0 -169.5 76t-24.5 207q22 111 102 185q80 72 180 72q116 0 168.5 -76t24.5 -207q-22 -112 -102 -184q-79 -73 -179 -73zM235 39q79 0 141 59q62 58 81 153q23 105 -13.5 165.5t-122.5 60.5q-81 0 -142 -60q-62 -60 -81 -151
q-23 -106 14 -166.5t123 -60.5z" />
    <glyph glyph-name="Obreve" unicode="&#x14e;" horiz-adv-x="740" 
d="M487 767q-66 0 -101.5 38t-27.5 99h49q-3 -42 20 -66.5t66 -24.5q39 0 68 24.5t42 66.5h49q-15 -65 -59.5 -101t-105.5 -36zM322 -16q-154 0 -226 107t-35 283q33 153 143 254q109 100 256 100q152 0 226 -105q72 -107 35 -279q-33 -158 -143 -259t-256 -101zM326 38
q122 0 214 87q91 85 121 224q31 149 -24 237q-57 88 -183 88q-123 0 -212 -85q-91 -85 -120 -223q-32 -152 23 -239q56 -89 181 -89z" />
    <glyph glyph-name="obreve" unicode="&#x14f;" horiz-adv-x="555" 
d="M355 590q-66 0 -101.5 38t-27.5 99h49q-3 -43 20 -67t66 -24q39 0 68 24.5t42 66.5h49q-16 -65 -60 -101t-105 -36zM234 -12q-117 0 -169.5 76t-24.5 207q22 111 102 185q80 72 180 72q116 0 168.5 -76t24.5 -207q-22 -112 -102 -184q-79 -73 -179 -73zM235 39
q79 0 141 59q62 58 81 153q23 105 -13.5 165.5t-122.5 60.5q-81 0 -142 -60q-62 -60 -81 -151q-23 -106 14 -166.5t123 -60.5z" />
    <glyph glyph-name="Ohungarumlaut" unicode="&#x150;" horiz-adv-x="740" 
d="M421 771h-48l94 144h74zM570 771h-48l94 144h73zM322 -16q-154 0 -226 107t-35 283q33 153 143 254q109 100 256 100q152 0 226 -105q72 -107 35 -279q-33 -158 -143 -259t-256 -101zM326 38q122 0 214 87q91 85 121 224q31 149 -24 237q-57 88 -183 88q-123 0 -212 -85
q-91 -85 -120 -223q-32 -152 23 -239q56 -89 181 -89z" />
    <glyph glyph-name="ohungarumlaut" unicode="&#x151;" horiz-adv-x="555" 
d="M291 594h-48l94 144h74zM440 594h-48l94 144h73zM234 -12q-117 0 -169.5 76t-24.5 207q22 111 102 185q80 72 180 72q116 0 168.5 -76t24.5 -207q-22 -112 -102 -184q-79 -73 -179 -73zM235 39q79 0 141 59q62 58 81 153q23 105 -13.5 165.5t-122.5 60.5q-81 0 -142 -60
q-62 -60 -81 -151q-23 -106 14 -166.5t123 -60.5z" />
    <glyph glyph-name="OE" unicode="&#x152;" horiz-adv-x="1150" 
d="M1217 712l-11 -54h-421l-55 -259h380l-11 -54h-380l-62 -291h421l-12 -54h-480l27 129q-114 -145 -292 -145q-154 0 -226 107q-72 106 -34 283q33 153 143 254q109 100 255 100q94 0 158 -42t90 -120l31 146h479zM326 38q119 0 208 80q88 79 122 209l9 42q23 140 -33 223
q-57 82 -178 82t-212 -85t-121 -223q-32 -150 24 -239t181 -89z" />
    <glyph glyph-name="oe" unicode="&#x153;" horiz-adv-x="959" 
d="M739 528q112 0 162 -77q49 -77 21 -192l-5 -20h-403q-15 -95 21 -147t115 -52q130 0 184 125h59q-67 -177 -248 -177q-72 0 -119.5 35t-63.5 99q-40 -63 -100 -98.5t-128 -35.5q-117 0 -169.5 76t-24.5 207q22 111 102 185q80 72 180 72q156 0 192 -133q39 63 97.5 98
t127.5 35zM235 39q79 0 141 59q62 58 81 153q23 105 -13.5 165.5t-122.5 60.5q-81 0 -142 -60q-62 -60 -81 -151q-23 -106 14 -166.5t123 -60.5zM732 476q-73 0 -128 -49t-80 -137h344q14 83 -22 134.5t-114 51.5z" />
    <glyph glyph-name="Racute" unicode="&#x154;" horiz-adv-x="632" 
d="M501 899h79l-145 -144h-55zM162 712h274q116 0 172 -54.5t35 -155.5q-13 -62 -60.5 -104t-117.5 -55q63 -9 85 -45.5t11 -108.5l-17 -103q-9 -52 8 -86h-62q-15 28 -4 90l17 101q11 66 -16.5 96t-102.5 30h-247l-67 -317h-59zM583 503q17 78 -23 116.5t-129 38.5h-221
l-62 -288h242q76 0 127.5 35t65.5 98z" />
    <glyph glyph-name="racute" unicode="&#x155;" horiz-adv-x="345" 
d="M302 738h67l-85 -144h-45zM349 523q22 0 29 -1l-11 -54h-25q-86 0 -143.5 -48t-74.5 -133l-62 -287h-56l109 516h54l-20 -98q75 105 200 105z" />
    <glyph glyph-name="uni0156" unicode="&#x156;" horiz-adv-x="632" 
d="M162 712h274q116 0 172 -54.5t35 -155.5q-13 -62 -60.5 -104t-117.5 -55q63 -9 85 -45.5t11 -108.5l-17 -103q-9 -52 8 -86h-62q-15 28 -4 90l17 101q11 66 -16.5 96t-102.5 30h-247l-67 -317h-59zM583 503q17 78 -23 116.5t-129 38.5h-221l-62 -288h242q76 0 127.5 35
t65.5 98zM264 -111h-41l14 68h76l-18 -87q-8 -39 -28 -58.5t-56 -24.5l-13 -2l7 32l10 1q35 8 44 50z" />
    <glyph glyph-name="uni0157" unicode="&#x157;" horiz-adv-x="345" 
d="M349 523q22 0 29 -1l-11 -54h-25q-86 0 -143.5 -48t-74.5 -133l-62 -287h-56l109 516h54l-20 -98q75 105 200 105zM13 -111h-41l14 68h76l-18 -87q-8 -39 -28 -58.5t-56 -24.5l-13 -2l7 32l10 1q35 8 44 50z" />
    <glyph glyph-name="Rcaron" unicode="&#x158;" horiz-adv-x="632" 
d="M607 899l-146 -144h-85l-87 144h54l79 -110l126 110h59zM162 712h274q116 0 172 -54.5t35 -155.5q-13 -62 -60.5 -104t-117.5 -55q63 -9 85 -45.5t11 -108.5l-17 -103q-9 -52 8 -86h-62q-15 28 -4 90l17 101q11 66 -16.5 96t-102.5 30h-247l-67 -317h-59zM583 503
q17 78 -23 116.5t-129 38.5h-221l-62 -288h242q76 0 127.5 35t65.5 98z" />
    <glyph glyph-name="rcaron" unicode="&#x159;" horiz-adv-x="345" 
d="M432 737l-124 -144h-82l-62 144h53l56 -108l102 108h57zM169 516l-20 -98q75 105 200 105q22 0 29 -1l-11 -54h-25q-86 0 -143.5 -48t-74.5 -133l-62 -287h-56l109 516h54z" />
    <glyph glyph-name="Sacute" unicode="&#x15a;" horiz-adv-x="608" 
d="M422 771h-55l121 144h79zM274 -16q-135 0 -201.5 60t-53.5 174h61q-11 -91 39.5 -135.5t161.5 -44.5q93 0 147 34.5t66 95.5q14 69 -19 105.5t-129 57.5l-68 15q-198 45 -165 211q17 80 87.5 125.5t178.5 45.5q134 0 188 -59q55 -59 41 -151h-60q12 76 -30.5 116
t-143.5 40q-84 0 -137 -32.5t-64 -89.5q-13 -64 19.5 -99.5t124.5 -56.5l66 -14q107 -24 149 -77t23 -144q-18 -83 -90.5 -130t-190.5 -47z" />
    <glyph glyph-name="sacute" unicode="&#x15b;" horiz-adv-x="467" 
d="M315 594h-48l96 144h74zM198 -12q-106 0 -154.5 44.5t-38.5 127.5h56q-6 -62 28.5 -92.5t114.5 -30.5q130 0 150 87q10 48 -13.5 72.5t-90.5 36.5l-46 8q-162 30 -133 161q12 59 66.5 92.5t136.5 33.5q96 0 139 -40.5t37 -119.5h-56q6 57 -23.5 84t-101.5 27
q-59 0 -97 -22.5t-46 -61.5q-9 -44 15.5 -68.5t87.5 -36.5l47 -8q86 -17 117.5 -56t15.5 -111q-13 -59 -66.5 -93t-144.5 -34z" />
    <glyph glyph-name="Scircumflex" unicode="&#x15c;" horiz-adv-x="608" 
d="M510 771l-79 110l-126 -110h-59l146 144h85l87 -144h-54zM608 518h-60q12 76 -30.5 116t-143.5 40q-84 0 -137 -32.5t-64 -89.5q-13 -64 19.5 -99.5t124.5 -56.5l66 -14q107 -24 149 -77t23 -144q-18 -83 -90.5 -130t-190.5 -47q-135 0 -201.5 60t-53.5 174h61
q-11 -91 39.5 -135.5t161.5 -44.5q93 0 147 34.5t66 95.5q14 69 -19 105.5t-129 57.5l-68 15q-198 45 -165 211q17 80 87.5 125.5t178.5 45.5q134 0 188 -59q55 -59 41 -151z" />
    <glyph glyph-name="scircumflex" unicode="&#x15d;" horiz-adv-x="467" 
d="M392 594l-79 110l-126 -110h-59l146 144h85l87 -144h-54zM450 368h-56q6 57 -23.5 84t-101.5 27q-59 0 -97 -22.5t-46 -61.5q-9 -44 15.5 -68.5t87.5 -36.5l47 -8q86 -17 117.5 -56t15.5 -111q-13 -59 -66.5 -93t-144.5 -34q-106 0 -154.5 44.5t-38.5 127.5h56
q-6 -62 28.5 -92.5t114.5 -30.5q130 0 150 87q10 48 -13.5 72.5t-90.5 36.5l-46 8q-162 30 -133 161q12 59 66.5 92.5t136.5 33.5q96 0 139 -40.5t37 -119.5z" />
    <glyph glyph-name="Scedilla" unicode="&#x15e;" horiz-adv-x="608" 
d="M608 518h-60q12 76 -30.5 116t-143.5 40q-84 0 -137 -32.5t-64 -89.5q-13 -64 19.5 -99.5t124.5 -56.5l66 -14q107 -24 149 -77t23 -144q-18 -79 -83.5 -125.5t-172.5 -50.5l-52 -52h5q44 0 67 -24.5t15 -60.5q-16 -78 -140 -78q-36 0 -61 6l7 34q24 -4 58 -4q73 0 82 48
q4 23 -11.5 36t-49.5 13q-16 0 -23 -1l5 28l51 54q-124 5 -185 65.5t-48 168.5h61q-11 -91 39.5 -135.5t161.5 -44.5q93 0 147 34.5t66 95.5q14 69 -19 105.5t-129 57.5l-68 15q-198 45 -165 211q17 80 87.5 125.5t178.5 45.5q134 0 188 -59q55 -59 41 -151z" />
    <glyph glyph-name="scedilla" unicode="&#x15f;" horiz-adv-x="467" 
d="M450 368h-56q6 57 -23.5 84t-101.5 27q-59 0 -97 -22.5t-46 -61.5q-9 -44 15.5 -68.5t87.5 -36.5l47 -8q86 -17 117.5 -56t15.5 -111q-25 -117 -186 -126l-52 -52h5q44 0 67 -24.5t15 -60.5q-16 -78 -140 -78q-35 0 -61 6l7 34q24 -4 58 -4q73 0 82 48q4 23 -11.5 36
t-49.5 13q-16 0 -23 -1l5 28l51 55q-190 9 -171 171h56q-6 -62 28.5 -92.5t114.5 -30.5q130 0 150 87q10 48 -13.5 72.5t-90.5 36.5l-46 8q-162 30 -133 161q12 59 66.5 92.5t136.5 33.5q96 0 139 -40.5t37 -119.5z" />
    <glyph glyph-name="Scaron" unicode="&#x160;" horiz-adv-x="608" 
d="M594 915l-146 -144h-85l-87 144h54l79 -110l126 110h59zM608 518h-60q12 76 -30.5 116t-143.5 40q-84 0 -137 -32.5t-64 -89.5q-13 -64 19.5 -99.5t124.5 -56.5l66 -14q107 -24 149 -77t23 -144q-18 -83 -90.5 -130t-190.5 -47q-135 0 -201.5 60t-53.5 174h61
q-11 -91 39.5 -135.5t161.5 -44.5q93 0 147 34.5t66 95.5q14 69 -19 105.5t-129 57.5l-68 15q-198 45 -165 211q17 80 87.5 125.5t178.5 45.5q134 0 188 -59q55 -59 41 -151z" />
    <glyph glyph-name="scaron" unicode="&#x161;" horiz-adv-x="467" 
d="M470 737l-146 -144h-85l-87 144h54l79 -110l126 110h59zM274 528q96 0 139 -40.5t37 -119.5h-56q6 57 -23.5 84t-101.5 27q-59 0 -97 -22.5t-46 -61.5q-9 -44 15.5 -68.5t87.5 -36.5l47 -8q86 -17 117.5 -56t15.5 -111q-13 -59 -66.5 -93t-144.5 -34q-106 0 -154.5 44.5
t-38.5 127.5h56q-6 -62 28.5 -92.5t114.5 -30.5q130 0 150 87q10 48 -13.5 72.5t-90.5 36.5l-46 8q-162 30 -133 161q12 59 66.5 92.5t136.5 33.5z" />
    <glyph glyph-name="uni0162" unicode="&#x162;" horiz-adv-x="609" 
d="M421 658l-140 -658h-6l-52 -52h5q44 0 67 -24.5t15 -60.5q-16 -78 -140 -78q-36 0 -61 6l7 34q24 -4 58 -4q73 0 82 48q4 23 -11.5 36t-49.5 13q-16 0 -23 -1l5 28l51 55h-9l141 658h-252l11 54h566l-12 -54h-252z" />
    <glyph glyph-name="uni0163" unicode="&#x163;" horiz-adv-x="300" 
d="M322 466h-119l-73 -343q-16 -76 57 -76q36 0 46 1l-10 -48q-25 -3 -42 -3l-49 -49h5q44 0 67 -24.5t15 -60.5q-17 -78 -140 -78q-35 0 -61 6l7 34q24 -4 58 -4q73 0 82 48q4 23 -11.5 36t-49.5 13q-16 0 -23 -1l5 28l52 56q-88 19 -65 123l72 342h-87l11 50h87l31 146h57
l-31 -146h120z" />
    <glyph glyph-name="Tcaron" unicode="&#x164;" horiz-adv-x="609" 
d="M602 899l-146 -144h-85l-87 144h54l79 -110l126 110h59zM119 712h566l-12 -54h-252l-140 -658h-62l141 658h-252z" />
    <glyph glyph-name="tcaron" unicode="&#x165;" horiz-adv-x="300" 
d="M352 712h59l-94 -166h-46zM187 662h57l-31 -146h120l-11 -50h-119l-73 -343q-16 -76 57 -76q36 0 46 1l-10 -48q-29 -3 -47 -3q-62 0 -89 33t-14 94l72 342h-87l11 50h87z" />
    <glyph glyph-name="Tbar" unicode="&#x166;" horiz-adv-x="609" 
d="M685 712l-12 -54h-252l-57 -269h150l-12 -46h-148l-73 -343h-62l73 343h-142l12 46h140l58 269h-252l11 54h566z" />
    <glyph glyph-name="tbar" unicode="&#x167;" horiz-adv-x="310" 
d="M333 516l-11 -50h-119l-38 -177h129l-10 -46h-129l-25 -120q-16 -76 57 -76q36 0 46 1l-10 -48q-29 -3 -47 -3q-62 0 -89 33t-14 94l25 119h-76l9 46h77l37 177h-87l11 50h87l31 146h57l-31 -146h120z" />
    <glyph glyph-name="Utilde" unicode="&#x168;" horiz-adv-x="653" 
d="M312 755h-48q25 114 105 114q33 0 77 -33q37 -29 62 -29q37 0 52 62h48q-26 -114 -104 -114q-30 0 -80 35q-37 28 -59 28q-38 0 -53 -63zM289 -15q-139 0 -200 80t-28 232l90 415h60l-92 -426q-26 -124 20 -186t154 -62q200 0 247 221l95 453h59l-97 -465
q-55 -262 -308 -262z" />
    <glyph glyph-name="utilde" unicode="&#x169;" horiz-adv-x="529" 
d="M272 657q-38 0 -53 -63h-48q25 114 105 114q34 0 77 -33q37 -29 62 -29q37 0 52 62h48q-25 -114 -104 -114q-30 0 -80 35q-38 28 -59 28zM406 227l61 289h57l-110 -516h-54l19 88q-75 -100 -189 -100q-89 0 -127.5 54t-15.5 157l68 317h56l-67 -321q-33 -156 99 -156
q72 0 127.5 49t75.5 139z" />
    <glyph glyph-name="Umacron" unicode="&#x16a;" horiz-adv-x="653" 
d="M561 755h-275l11 48h275zM289 -15q-139 0 -200 80t-28 232l90 415h60l-92 -426q-26 -124 20 -186t154 -62q200 0 247 221l95 453h59l-97 -465q-55 -262 -308 -262z" />
    <glyph glyph-name="umacron" unicode="&#x16b;" horiz-adv-x="529" 
d="M204 642h275l-11 -48h-275zM406 227l61 289h57l-110 -516h-54l19 88q-75 -100 -189 -100q-89 0 -127.5 54t-15.5 157l68 317h56l-67 -321q-33 -156 99 -156q72 0 127.5 49t75.5 139z" />
    <glyph glyph-name="Ubreve" unicode="&#x16c;" horiz-adv-x="653" 
d="M431 751q-66 0 -101.5 38t-27.5 99h49q-3 -42 20 -66.5t66 -24.5q39 0 68 24.5t42 66.5h49q-15 -65 -59.5 -101t-105.5 -36zM289 -15q-139 0 -200 80t-28 232l90 415h60l-92 -426q-26 -124 20 -186t154 -62q200 0 247 221l95 453h59l-97 -465q-55 -262 -308 -262z" />
    <glyph glyph-name="ubreve" unicode="&#x16d;" horiz-adv-x="529" 
d="M342 590q-66 0 -101.5 38t-27.5 99h49q-3 -43 20 -67t66 -24q39 0 68 24.5t42 66.5h49q-16 -65 -60 -101t-105 -36zM406 227l61 289h57l-110 -516h-54l19 88q-75 -100 -189 -100q-89 0 -127.5 54t-15.5 157l68 317h56l-67 -321q-33 -156 99 -156q72 0 127.5 49t75.5 139z
" />
    <glyph glyph-name="Uring" unicode="&#x16e;" horiz-adv-x="653" 
d="M499 704q-34 -34 -84 -34q-49 0 -83 33t-34 82q0 48 34 80.5t83 32.5t84 -32q34 -33 34 -81t-34 -81zM364 733q23 -21 51.5 -21.5t51.5 21t21 52.5q0 30 -21.5 50.5t-51.5 20.5t-51 -20.5t-21 -50.5q0 -31 21 -52zM289 -15q-139 0 -200 80t-28 232l90 415h60l-92 -426
q-26 -124 20 -186t154 -62q200 0 247 221l95 453h59l-97 -465q-55 -262 -308 -262z" />
    <glyph glyph-name="uring" unicode="&#x16f;" horiz-adv-x="529" 
d="M354 591q-50 0 -84 32.5t-34 81.5q0 48 34 81t84 33q49 0 83 -33t34 -81t-34 -81t-83 -33zM406 756q-22 21 -52 21t-51 -21q-22 -21 -22 -51t22 -51q21 -21 51 -21t52 21q21 21 21 51t-21 51zM406 227l61 289h57l-110 -516h-54l19 88q-75 -100 -189 -100q-89 0 -127.5 54
t-15.5 157l68 317h56l-67 -321q-33 -156 99 -156q72 0 127.5 49t75.5 139z" />
    <glyph glyph-name="Uhungarumlaut" unicode="&#x170;" horiz-adv-x="653" 
d="M365 755h-48l94 144h74zM514 755h-48l94 144h73zM289 -15q-139 0 -200 80t-28 232l90 415h60l-92 -426q-26 -124 20 -186t154 -62q200 0 247 221l95 453h59l-97 -465q-55 -262 -308 -262z" />
    <glyph glyph-name="uhungarumlaut" unicode="&#x171;" horiz-adv-x="529" 
d="M324 738h74l-120 -144h-48zM546 738l-119 -144h-48l94 144h73zM406 227l61 289h57l-110 -516h-54l19 88q-75 -100 -189 -100q-89 0 -127.5 54t-15.5 157l68 317h56l-67 -321q-33 -156 99 -156q72 0 127.5 49t75.5 139z" />
    <glyph glyph-name="Uogonek" unicode="&#x172;" horiz-adv-x="653" 
d="M540 259l95 453h59l-97 -465q-44 -201 -198 -247h1q-120 -55 -134 -110q-6 -24 8 -37.5t39 -13.5q30 0 58 11l-10 -47q-33 -11 -64 -11q-43 0 -69 25t-18 64q13 61 98 104h-19q-139 0 -200 80t-28 232l90 415h60l-92 -426q-26 -124 20 -186t154 -62q200 0 247 221z" />
    <glyph glyph-name="uogonek" unicode="&#x173;" horiz-adv-x="529" 
d="M524 516l-110 -516q-123 -57 -134 -110q-6 -24 8 -37.5t39 -13.5q30 0 58 11l-10 -47q-33 -11 -64 -11q-43 0 -69 25t-18 64q7 35 41.5 66.5t90.5 53.5h4l19 87q-75 -100 -189 -100q-89 0 -127.5 54t-15.5 157l68 317h56l-67 -321q-33 -156 99 -156q72 0 127.5 49
t75.5 139l61 289h57z" />
    <glyph glyph-name="Wcircumflex" unicode="&#x174;" horiz-adv-x="961" 
d="M691 755l-79 110l-126 -110h-59l146 144h85l87 -144h-54zM760 283l221 429h63l-366 -712h-67l-38 448q-11 178 -12 192q-28 -60 -92 -191l-229 -449h-67l-64 712h60l39 -429q13 -209 13 -211q61 129 104 213l217 427h67l35 -427q6 -92 13 -213q65 137 103 211z" />
    <glyph glyph-name="wcircumflex" unicode="&#x175;" horiz-adv-x="788" 
d="M562 594l-79 110l-126 -110h-59l146 144h85l87 -144h-54zM607 232l159 284h64l-292 -516h-60l-35 304q-1 8 -5 55t-8 90q-18 -37 -73 -145l-163 -304h-61l-71 516h58l38 -284q1 -13 8 -77q4 -52 9 -91q50 102 86 168l152 284h60l31 -284q14 -162 15 -170q40 85 88 170z
" />
    <glyph glyph-name="Ycircumflex" unicode="&#x176;" horiz-adv-x="637" 
d="M533 755l-79 110l-126 -110h-59l146 144h85l87 -144h-54zM491 532l158 180h71l-363 -413l-64 -299h-59l64 299l-189 413h65l82 -181q34 -77 77 -183q72 85 158 184z" />
    <glyph glyph-name="ycircumflex" unicode="&#x177;" horiz-adv-x="477" 
d="M406 594l-79 110l-126 -110h-59l146 144h85l87 -144h-54zM316 266l143 250h63l-344 -588q-40 -69 -78 -97t-98 -28q-25 0 -49 3l10 47h43q70 0 120 87l27 45l-88 531h61l40 -250q1 -13 30 -214q8 14 29.5 52.5t32.5 59.5q14 25 33.5 58.5t24.5 43.5z" />
    <glyph glyph-name="Ydieresis" unicode="&#x178;" horiz-adv-x="637" 
d="M327 849h60l-21 -94h-60zM508 849h60l-20 -94h-60zM491 532l158 180h71l-363 -413l-64 -299h-59l64 299l-189 413h65l82 -181q34 -77 77 -183q72 85 158 184z" />
    <glyph glyph-name="Zacute" unicode="&#x179;" horiz-adv-x="589" 
d="M488 899h79l-145 -144h-55zM653 712l-11 -54l-428 -442q-8 -9 -79 -82q-36 -37 -81 -82q90 2 205 2h260l-12 -54h-536l12 54l427 442q124 128 160 164q-92 -2 -206 -2h-234l12 54h511z" />
    <glyph glyph-name="zacute" unicode="&#x17a;" horiz-adv-x="478" 
d="M381 738h74l-122 -144h-48zM476 472l-330 -339q-39 -40 -85 -85q48 2 108 2h232l-10 -50h-412l10 44l330 340q62 62 85 84q-48 -2 -108 -2h-207l11 50h385z" />
    <glyph glyph-name="Zdotaccent" unicode="&#x17b;" horiz-adv-x="589" 
d="M393 849h60l-19 -94h-60zM653 712l-11 -54l-428 -442q-8 -9 -79 -82q-36 -37 -81 -82q90 2 205 2h260l-12 -54h-536l12 54l427 442q124 128 160 164q-92 -2 -206 -2h-234l12 54h511z" />
    <glyph glyph-name="zdotaccent" unicode="&#x17c;" horiz-adv-x="478" 
d="M296 688h60l-19 -94h-60zM476 472l-330 -339q-39 -40 -85 -85q48 2 108 2h232l-10 -50h-412l10 44l330 340q62 62 85 84q-48 -2 -108 -2h-207l11 50h385z" />
    <glyph glyph-name="Zcaron" unicode="&#x17d;" horiz-adv-x="589" 
d="M594 899l-146 -144h-85l-87 144h54l79 -110l126 110h59zM653 712l-11 -54l-428 -442q-8 -9 -79 -82q-36 -37 -81 -82q90 2 205 2h260l-12 -54h-536l12 54l427 442q124 128 160 164q-92 -2 -206 -2h-234l12 54h511z" />
    <glyph glyph-name="zcaron" unicode="&#x17e;" horiz-adv-x="478" 
d="M489 737l-146 -144h-85l-87 144h54l79 -110l126 110h59zM296 466h-207l11 50h385l-9 -44l-330 -339q-39 -40 -85 -85q48 2 108 2h232l-10 -50h-412l10 44l330 340q62 62 85 84q-48 -2 -108 -2z" />
    <glyph glyph-name="uni018F" unicode="&#x18f;" horiz-adv-x="710" 
d="M441 728q153 0 221 -105q66 -106 29 -285q-31 -154 -136 -254q-103 -100 -248 -100q-156 0 -220 109t-25 279h574q25 144 -28 223t-173 79q-96 0 -168 -52t-109 -146h-61q45 120 134.5 186t209.5 66zM315 38q113 0 194.5 75.5t115.5 207.5h-512q-23 -125 30 -204
q52 -79 172 -79z" />
    <glyph glyph-name="florin" unicode="&#x192;" horiz-adv-x="448" 
d="M478 718q23 0 44 -3l-11 -50q-21 3 -38 3q-42 0 -63.5 -17.5t-38.5 -63.5l-72 -200h111l-10 -49h-118l-148 -413q-26 -71 -60 -102q-35 -30 -104 -30q-23 0 -44 3l10 49q7 0 16 -0.5t14 -1t8 -0.5q42 0 64.5 18t37.5 62l149 415h-107l11 49h114l71 199q26 72 60 102
t104 30z" />
    <glyph glyph-name="uni01F4" unicode="&#x1f4;" horiz-adv-x="736" 
d="M552 915h79l-145 -144h-55zM719 479h-61q3 87 -56 141t-157 54q-120 0 -207 -84q-86 -83 -115 -218q-33 -155 25 -244q57 -90 183 -90q113 0 197 75q85 76 110 192h-243l11 54h297l-76 -359h-50l17 124q-101 -140 -268 -140q-154 0 -228 108q-75 106 -36 288
q33 153 138 250q104 98 251 98q127 0 200 -69q72 -69 68 -180z" />
    <glyph glyph-name="uni01F5" unicode="&#x1f5;" horiz-adv-x="563" 
d="M416 738h74l-122 -144h-48zM484 423l21 93h54l-106 -496q-25 -116 -87.5 -172t-175.5 -56q-94 0 -142.5 43.5t-43.5 117.5h56q-2 -55 32.5 -84t103.5 -29q84 0 132 43.5t68 136.5l12 56q-73 -88 -183 -88q-109 0 -161 81t-24 207q26 118 100.5 185t177.5 67
q60 0 103 -27.5t63 -77.5zM233 39q82 0 141.5 59t79.5 160q22 102 -15.5 160.5t-121.5 58.5q-82 0 -139.5 -56t-77.5 -153q-22 -105 14 -167t119 -62z" />
    <glyph glyph-name="Aringacute" unicode="&#x1fa;" horiz-adv-x="671" 
d="M544 785q0 -38 -21.5 -67.5t-55.5 -40.5l132 -677h-61l-42 215h-344l-133 -215h-64l419 682q-29 14 -46.5 41.5t-17.5 61.5q0 45 29.5 76.5t74.5 35.5l106 125h79l-132 -131q34 -11 55.5 -40.5t21.5 -65.5zM479 836q-32 33 -80 14t-45 -65q0 -31 21.5 -52t51.5 -21
t51.5 21t21.5 52q0 30 -21 51zM260 390l-75 -122h301l-24 123q-15 78 -47 258q-28 -47 -54 -90.5t-43.5 -72.5t-30.5 -50.5t-20 -33.5z" />
    <glyph glyph-name="aringacute" unicode="&#x1fb;" horiz-adv-x="511" 
d="M453 1028h74l-122 -144h-48zM344 591q-50 0 -84 32.5t-34 81.5q0 48 34 81t84 33q49 0 83 -33t34 -81t-34 -81t-83 -33zM396 756q-22 21 -52 21t-51 -21q-22 -21 -22 -51t22 -51q21 -21 51 -21t52 21q21 21 21 51t-21 51zM153 488q52 40 152 40t142 -44q41 -45 23 -126
l-55 -258q-10 -55 29 -55q2 0 11 0.5t12 0.5l-9 -46q-16 -3 -37 -3q-36 0 -53 22t-10 63q-67 -94 -192 -94q-87 0 -128.5 46t-24.5 124q26 114 209 133l84 10q55 7 80 22.5t33 47.5q10 51 -19 79.5t-100 28.5q-73 0 -111.5 -27.5t-54.5 -90.5h-56q23 87 75 127zM176 37
q74 0 130.5 41t74.5 117l20 94q-26 -22 -93 -31l-83 -10q-137 -18 -155 -101q-11 -52 16 -81t90 -29z" />
    <glyph glyph-name="AEacute" unicode="&#x1fc;" horiz-adv-x="1018" 
d="M877 899h79l-145 -144h-55zM1085 712l-11 -54h-390l-55 -259h350l-11 -54h-351l-62 -291h391l-11 -54h-451l46 215h-340l-161 -215h-70l537 712h589zM522 658l-292 -390h311l83 390h-102z" />
    <glyph glyph-name="aeacute" unicode="&#x1fd;" horiz-adv-x="863" 
d="M567 738h74l-122 -144h-48zM652 528q107 0 155 -77q47 -79 19 -192q0 -1 -1 -4.5t-2 -7.5l-2 -8h-383q-13 -96 21 -147.5t108 -51.5q124 0 175 125h56q-30 -85 -90.5 -131t-144.5 -46q-65 0 -110 31.5t-63 89.5q-81 -121 -222 -121q-88 0 -130 44.5t-25 123.5
q22 113 213 136l81 9q54 7 79 25.5t33 55.5q23 97 -118 97q-75 0 -114.5 -27.5t-53.5 -90.5h-56q37 167 231 167q138 0 164 -83q77 83 180 83zM646 476q-69 0 -121.5 -49t-76.5 -137h327q13 83 -21 134.5t-108 51.5zM175 36q71 0 126.5 40.5t78.5 115.5q0 36 9 80q1 1 1 4
q1 4 1 5q-30 -19 -84 -26l-83 -10q-136 -16 -155 -98q-11 -52 16.5 -81.5t89.5 -29.5z" />
    <glyph glyph-name="Oslashacute" unicode="&#x1fe;" horiz-adv-x="740" 
d="M564 915h79l-145 -144h-55zM706 748l38 -33l-69 -78q85 -106 46 -293q-33 -158 -143 -259t-256 -101q-110 0 -178 55l-68 -76l-38 33l70 79q-87 109 -47 299q33 153 143 254q109 100 256 100q108 0 179 -56zM122 366q-33 -157 27 -245l450 507q-55 46 -145 46
q-123 0 -212 -85q-91 -85 -120 -223zM661 349q33 153 -28 241l-450 -507q55 -45 143 -45q122 0 214 87q91 85 121 224z" />
    <glyph glyph-name="oslashacute" unicode="&#x1ff;" horiz-adv-x="555" 
d="M419 738h74l-122 -144h-48zM500 545l36 -31l-49 -57q58 -76 28 -212q-22 -112 -102 -184q-79 -73 -179 -73q-77 0 -125 33l-44 -51l-36 31l44 51q-65 76 -33 219q22 111 102 185q80 72 180 72q81 0 131 -37zM98 266q-22 -106 15 -168l303 350q-38 29 -95 29
q-81 0 -142 -60q-62 -60 -81 -151zM457 251q22 97 -10 160l-301 -347q34 -25 89 -25q79 0 141 59q62 58 81 153z" />
    <glyph glyph-name="uni0218" unicode="&#x218;" horiz-adv-x="608" 
d="M608 518h-60q12 76 -30.5 116t-143.5 40q-84 0 -137 -32.5t-64 -89.5q-13 -64 19.5 -99.5t124.5 -56.5l66 -14q107 -24 149 -77t23 -144q-18 -83 -90.5 -130t-190.5 -47q-135 0 -201.5 60t-53.5 174h61q-11 -91 39.5 -135.5t161.5 -44.5q93 0 147 34.5t66 95.5
q14 69 -19 105.5t-129 57.5l-68 15q-198 45 -165 211q17 80 87.5 125.5t178.5 45.5q134 0 188 -59q55 -59 41 -151zM256 -126h-41l14 68h76l-18 -87q-8 -39 -28 -58.5t-56 -24.5l-13 -2l7 32l10 1q35 8 44 50z" />
    <glyph glyph-name="uni0219" unicode="&#x219;" horiz-adv-x="467" 
d="M450 368h-56q6 57 -23.5 84t-101.5 27q-59 0 -97 -22.5t-46 -61.5q-9 -44 15.5 -68.5t87.5 -36.5l47 -8q86 -17 117.5 -56t15.5 -111q-13 -59 -66.5 -93t-144.5 -34q-106 0 -154.5 44.5t-38.5 127.5h56q-6 -62 28.5 -92.5t114.5 -30.5q130 0 150 87q10 48 -13.5 72.5
t-90.5 36.5l-46 8q-162 30 -133 161q12 59 66.5 92.5t136.5 33.5q96 0 139 -40.5t37 -119.5zM179 -122h-41l14 68h76l-18 -87q-8 -39 -28 -58.5t-56 -24.5l-13 -2l7 32l10 1q35 8 44 50z" />
    <glyph glyph-name="uni021A" unicode="&#x21a;" horiz-adv-x="609" 
d="M119 712h566l-12 -54h-252l-140 -658h-62l141 658h-252zM232 -111h-41l14 68h76l-18 -87q-8 -39 -28 -58.5t-56 -24.5l-13 -2l7 32l10 1q35 8 44 50z" />
    <glyph glyph-name="uni021B" unicode="&#x21b;" horiz-adv-x="300" 
d="M322 466h-119l-73 -343q-16 -76 57 -76q36 0 46 1l-10 -48q-29 -3 -47 -3q-62 0 -89 33t-14 94l72 342h-87l11 50h87l31 146h57l-31 -146h120zM140 -111h-41l14 68h76l-18 -87q-8 -39 -28 -58.5t-56 -24.5l-13 -2l7 32l10 1q35 8 44 50z" />
    <glyph glyph-name="uni0237" unicode="&#x237;" horiz-adv-x="179" 
d="M-82 -199q-41 0 -51 1l11 49h40q56 0 70 71l127 594h57l-128 -600q-25 -115 -126 -115z" />
    <glyph glyph-name="uni0259" unicode="&#x259;" horiz-adv-x="536" 
d="M314 528q109 0 160 -76q52 -77 23 -208q-24 -112 -99 -184q-76 -72 -178 -72q-111 0 -161 77q-49 76 -22 192l5 20h402q15 95 -20.5 147t-114.5 52q-130 0 -184 -125h-59q68 177 248 177zM226 40q74 0 129 49t79 137h-344q-14 -82 22 -134t114 -52z" />
    <glyph glyph-name="h.sups" unicode="&#x2b0;" horiz-adv-x="452" 
d="M343 721q76 0 110 -48t16 -137l-58 -274h-56l59 278q29 132 -91 132q-57 0 -102.5 -39t-62.5 -111l-54 -260h-55l128 619h55l-51 -247q61 87 162 87z" />
    <glyph glyph-name="r.sups" unicode="&#x2b3;" horiz-adv-x="303" 
d="M352 718q26 0 32 -1l-11 -53h-24q-69 0 -116 -37.5t-65 -104.5l-55 -260h-56l95 450h54l-18 -83q62 89 164 89z" />
    <glyph glyph-name="circumflex" unicode="&#x2c6;" horiz-adv-x="400" 
d="M343 738l87 -144h-54l-79 110l-126 -110h-59l146 144h85z" />
    <glyph glyph-name="caron" unicode="&#x2c7;" horiz-adv-x="400" 
d="M273 627l126 110h60l-146 -144h-85l-88 144h55z" />
    <glyph glyph-name="uni02C9" unicode="&#x2c9;" horiz-adv-x="400" 
d="M411 594h-274l11 48h274z" />
    <glyph glyph-name="breve" unicode="&#x2d8;" horiz-adv-x="400" 
d="M282 590q-66 0 -101.5 38t-27.5 99h49q-4 -43 19 -67t66 -24q82 0 110 91h49q-15 -64 -59 -100.5t-105 -36.5z" />
    <glyph glyph-name="dotaccent" unicode="&#x2d9;" horiz-adv-x="400" 
d="M302 594h-60l20 94h60z" />
    <glyph glyph-name="ring" unicode="&#x2da;" horiz-adv-x="400" 
d="M378 624q-34 -33 -83 -33t-83 33t-34 81t34 81q35 33 83 33q49 0 83 -33t34 -81t-34 -81zM244 654q21 -21 51 -21t52 21q21 21 21 51t-21 51q-22 21 -52 21t-51 -21q-22 -21 -22 -51t22 -51z" />
    <glyph glyph-name="ogonek" unicode="&#x2db;" horiz-adv-x="400" 
d="M114 -208q-43 0 -69 25t-18 64q18 76 132 120l58 -1q-120 -55 -134 -110q-5 -24 8.5 -37.5t38.5 -13.5q29 0 59 11l-11 -47q-33 -11 -64 -11z" />
    <glyph glyph-name="tilde" unicode="&#x2dc;" horiz-adv-x="400" 
d="M160 594h-48q24 114 104 114q33 0 77 -33q37 -29 63 -29q37 0 51 62h48q-24 -114 -104 -114q-30 0 -80 35q-37 28 -59 28q-38 0 -52 -63z" />
    <glyph glyph-name="hungarumlaut" unicode="&#x2dd;" horiz-adv-x="400" 
d="M206 594h-48l94 144h74zM355 594h-48l94 144h74z" />
    <glyph glyph-name="s.sups" unicode="&#x2e2;" horiz-adv-x="420" 
d="M233 251q-94 0 -139 39t-36 111h54q-5 -52 25.5 -78t99.5 -26q111 0 126 75q8 41 -12 61t-76 29l-49 8q-138 23 -112 140q12 52 58.5 81.5t125.5 29.5q86 0 125 -36.5t30 -102.5h-53q5 48 -21.5 71t-87.5 23q-107 0 -122 -71q-9 -40 11 -60t75 -28l47 -8
q141 -23 116 -141q-26 -117 -185 -117z" />
    <glyph glyph-name="gravecomb" unicode="&#x300;" 
d="M157 594h-46l-63 144h74z" />
    <glyph glyph-name="acutecomb" unicode="&#x301;" 
d="M34 594h-48l96 144h74z" />
    <glyph glyph-name="uni0302" unicode="&#x302;" 
d="M143 738l87 -144h-54l-79 110l-126 -110h-59l146 144h85z" />
    <glyph glyph-name="tildecomb" unicode="&#x303;" 
d="M-53 594h-48q25 114 105 114q33 0 77 -33q37 -29 62 -29q37 0 52 62h48q-25 -114 -104 -114q-30 0 -80 35q-38 28 -59 28q-38 0 -53 -63z" />
    <glyph glyph-name="uni0304" unicode="&#x304;" 
d="M203 594h-275l11 48h275z" />
    <glyph glyph-name="uni0306" unicode="&#x306;" 
d="M81 590q-66 0 -101.5 38t-27.5 99h49q-3 -43 20 -67t66 -24q39 0 68 24.5t42 66.5h49q-16 -65 -60 -101t-105 -36z" />
    <glyph glyph-name="uni0307" unicode="&#x307;" 
d="M93 594h-60l19 94h60z" />
    <glyph glyph-name="uni0308" unicode="&#x308;" 
d="M-60 594h-60l20 94h60zM122 594h-60l20 94h60z" />
    <glyph glyph-name="uni030A" unicode="&#x30a;" 
d="M98 591q-50 0 -84 32.5t-34 81.5q0 48 34 81t84 33q49 0 83 -33t34 -81t-34 -81t-83 -33zM47 654q21 -21 51 -21t52 21q21 21 21 51t-21 51q-22 21 -52 21t-51 -21q-22 -21 -22 -51t22 -51z" />
    <glyph glyph-name="uni030B" unicode="&#x30b;" 
d="M-39 594h-48l94 144h74zM110 594h-48l94 144h73z" />
    <glyph glyph-name="uni030C" unicode="&#x30c;" 
d="M76 627l126 110h59l-146 -144h-85l-87 144h54z" />
    <glyph glyph-name="uni0312" unicode="&#x312;" 
d="M116 764l13 2l-7 -32l-10 -1q-35 -8 -44 -50l-5 -21h41l-14 -68h-76l19 87q8 39 27.5 58.5t55.5 24.5z" />
    <glyph glyph-name="uni0313" unicode="&#x313;" 
d="M38 695l14 68h76l-19 -88q-8 -39 -27.5 -58t-55.5 -24l-13 -3l7 32l10 2q35 8 44 49l5 22h-41z" />
    <glyph glyph-name="dotbelowcomb" unicode="&#x323;" 
d="M-70 -172h-60l19 94h60z" />
    <glyph glyph-name="uni0324" unicode="&#x324;" 
d="M-162 -172h-60l20 94h60zM19 -172h-60l21 94h60z" />
    <glyph glyph-name="uni0325" unicode="&#x325;" 
d="M-94 -306q-49 0 -83 33t-34 81t34 81t83 33q50 0 84 -32.5t34 -81.5q0 -48 -34 -81t-84 -33zM-145 -244q21 -20 51 -20t51 21q22 21 22 51t-22 51q-21 21 -51 21t-51 -21q-21 -20 -21 -51t21 -52z" />
    <glyph glyph-name="uni0326" unicode="&#x326;" 
d="M-133 -111l14 68h76l-18 -87q-8 -39 -28 -58.5t-56 -24.5l-13 -2l7 32l10 1q35 8 44 50l5 21h-41z" />
    <glyph glyph-name="uni0327" unicode="&#x327;" 
d="M-87 -52h5q44 0 67 -24.5t15 -60.5q-16 -78 -140 -78q-36 0 -61 6l7 34q24 -4 58 -4q73 0 82 48q4 23 -11.5 36t-49.5 13q-16 0 -23 -1l5 28l55 59l46 -1z" />
    <glyph glyph-name="uni0328" unicode="&#x328;" 
d="M-89 -208q-43 0 -69 25t-18 64q7 35 41.5 66.5t90.5 53.5l58 -1q-120 -55 -134 -110q-6 -24 8 -37.5t39 -13.5q30 0 58 11l-10 -47q-33 -11 -64 -11z" />
    <glyph glyph-name="uni032E" unicode="&#x32e;" 
d="M-90 -216q-66 0 -101 38.5t-27 99.5h48q-3 -43 20 -67t66 -24q40 0 68.5 24t41.5 67h49q-15 -65 -59.5 -101.5t-105.5 -36.5z" />
    <glyph glyph-name="uni0331" unicode="&#x331;" 
d="M50 -126h-275l11 48h275z" />
    <glyph glyph-name="uni0335" unicode="&#x335;" 
d="M130 253h-271l9 46h272z" />
    <glyph glyph-name="uni0337" unicode="&#x337;" 
d="M199 513l-472 -544l-36 32l472 544z" />
    <glyph glyph-name="uni0338" unicode="&#x338;" 
d="M295 705l-667 -751l-38 33l668 751z" />
    <glyph glyph-name="uni0394" unicode="&#x394;" horiz-adv-x="654" 
d="M243 712h67l268 -658v-54h-601v54zM276 648q-58 -156 -100 -258l-136 -336h476l-138 337q-26 62 -102 257z" />
    <glyph glyph-name="uni03A9" unicode="&#x3a9;" horiz-adv-x="749" 
d="M322 0h-286v53h195v2q-89 54 -138 138.5t-49 189.5q0 160 91 251t239 91t238 -91q89 -92 89 -251q0 -105 -48.5 -189.5t-136.5 -138.5v-2h195v-53h-285v48q215 110 215 335q0 137 -71.5 213t-195.5 76t-197 -76.5t-73 -212.5q0 -110 56 -195.5t162 -139.5v-48z" />
    <glyph glyph-name="uni03BC" unicode="&#x3bc;" horiz-adv-x="638" 
d="M468 226v290h56v-516h-54v95q-25 -50 -69.5 -78.5t-102.5 -28.5q-82 0 -126 59v-243h-57v712h57v-335q0 -142 137 -142q68 0 113 49t46 138z" />
    <glyph glyph-name="pi" unicode="&#x3c0;" horiz-adv-x="643" 
d="M576 516v-50h-88v-368q0 -27 9.5 -38.5t34.5 -11.5h34v-48q-24 -3 -41 -3q-49 0 -71.5 22.5t-22.5 73.5v373h-218v-466h-57v466h-87v50h507z" />
    <glyph glyph-name="d.sups" unicode="&#x1d48;" horiz-adv-x="502" 
d="M469 619l56 262h55l-131 -619h-53l17 83q-66 -93 -167 -93q-94 0 -141 69t-22 185q21 95 83 155t153 60q56 0 95 -27t55 -75zM152 353q32 -53 101 -53q70 0 120 50q49 49 69 136q19 83 -15.5 135t-106.5 52q-69 0 -116.5 -48t-63.5 -128q-20 -91 12 -144z" />
    <glyph glyph-name="t.sups" unicode="&#x1d57;" horiz-adv-x="289" 
d="M350 666h-104l-61 -288q-13 -70 50 -70q30 0 39 1l-10 -45q-20 -4 -47 -4q-113 0 -87 122l60 284h-75l9 46h76l27 128h56l-27 -128h103z" />
    <glyph glyph-name="Wgrave" unicode="&#x1e80;" horiz-adv-x="961" 
d="M539 899l65 -144h-47l-92 144h74zM760 283l221 429h63l-366 -712h-67l-38 448q-11 178 -12 192q-28 -60 -92 -191l-229 -449h-67l-64 712h60l39 -429q13 -209 13 -211q61 129 104 213l217 427h67l35 -427q6 -92 13 -213q65 137 103 211z" />
    <glyph glyph-name="wgrave" unicode="&#x1e81;" horiz-adv-x="788" 
d="M450 738l35 -144h-46l-63 144h74zM607 232l159 284h64l-292 -516h-60l-35 304q-1 8 -5 55t-8 90q-18 -37 -73 -145l-163 -304h-61l-71 516h58l38 -284q1 -13 8 -77q4 -52 9 -91q50 102 86 168l152 284h60l31 -284q14 -162 15 -170q40 85 88 170z" />
    <glyph glyph-name="Wacute" unicode="&#x1e82;" horiz-adv-x="961" 
d="M670 899h79l-145 -144h-55zM760 283l221 429h63l-366 -712h-67l-38 448q-11 178 -12 192q-28 -60 -92 -191l-229 -449h-67l-64 712h60l39 -429q13 -209 13 -211q61 129 104 213l217 427h67l35 -427q6 -92 13 -213q65 137 103 211z" />
    <glyph glyph-name="wacute" unicode="&#x1e83;" horiz-adv-x="788" 
d="M533 738h74l-122 -144h-48zM607 232l159 284h64l-292 -516h-60l-35 304q-1 8 -5 55t-8 90q-18 -37 -73 -145l-163 -304h-61l-71 516h58l38 -284q1 -13 8 -77q4 -52 9 -91q50 102 86 168l152 284h60l31 -284q14 -162 15 -170q40 85 88 170z" />
    <glyph glyph-name="Wdieresis" unicode="&#x1e84;" horiz-adv-x="961" 
d="M486 849h60l-21 -94h-60zM667 849h60l-20 -94h-60zM760 283l221 429h63l-366 -712h-67l-38 448q-11 178 -12 192q-28 -60 -92 -191l-229 -449h-67l-64 712h60l39 -429q13 -209 13 -211q61 129 104 213l217 427h67l35 -427q6 -92 13 -213q65 137 103 211z" />
    <glyph glyph-name="wdieresis" unicode="&#x1e85;" horiz-adv-x="788" 
d="M357 688h60l-20 -94h-60zM539 688h60l-20 -94h-60zM607 232l159 284h64l-292 -516h-60l-35 304q-1 8 -5 55t-8 90q-18 -37 -73 -145l-163 -304h-61l-71 516h58l38 -284q1 -13 8 -77q4 -52 9 -91q50 102 86 168l152 284h60l31 -284q14 -162 15 -170q40 85 88 170z" />
    <glyph glyph-name="uni1E9E" unicode="&#x1e9e;" horiz-adv-x="647" 
d="M682 706l-9 -47l-279 -250q115 -1 176 -64q59 -63 35 -168q-20 -90 -94.5 -138.5t-194.5 -48.5q-75 0 -150 15l12 53q70 -15 143 -15q93 0 152 38t72 105q16 82 -27.5 127t-138.5 45q-41 0 -69 -4l11 53l284 255q-84 12 -174 12q-123 0 -188.5 -53t-87.5 -159l-98 -462
h-59l98 462q55 265 347 265q115 0 239 -21z" />
    <glyph glyph-name="Ygrave" unicode="&#x1ef2;" horiz-adv-x="637" 
d="M381 899l65 -144h-47l-92 144h74zM491 532l158 180h71l-363 -413l-64 -299h-59l64 299l-189 413h65l82 -181q34 -77 77 -183q72 85 158 184z" />
    <glyph glyph-name="ygrave" unicode="&#x1ef3;" horiz-adv-x="477" 
d="M294 738l35 -144h-46l-63 144h74zM316 266l143 250h63l-344 -588q-40 -69 -78 -97t-98 -28q-25 0 -49 3l10 47h43q70 0 120 87l27 45l-88 531h61l40 -250q1 -13 30 -214q8 14 29.5 52.5t32.5 59.5q14 25 33.5 58.5t24.5 43.5z" />
    <glyph glyph-name="thinspace" unicode="&#x2009;" horiz-adv-x="176" 
 />
    <glyph glyph-name="uni2011" unicode="&#x2011;" horiz-adv-x="369" 
d="M321 257h-275l11 51h275z" />
    <glyph glyph-name="endash" unicode="&#x2013;" horiz-adv-x="521" 
d="M477 257h-427l10 51h428z" />
    <glyph glyph-name="emdash" unicode="&#x2014;" horiz-adv-x="932" 
d="M895 257h-839l14 51h838z" />
    <glyph glyph-name="quoteleft" unicode="&#x2018;" horiz-adv-x="169" 
d="M221 713l-7 -40q-24 -7 -35.5 -22t-18.5 -48l-5 -25h36l-16 -76h-77l21 98q12 55 34.5 80t67.5 33z" />
    <glyph glyph-name="quoteright" unicode="&#x2019;" horiz-adv-x="169" 
d="M128 636l16 76h77l-21 -98q-11 -55 -34 -80t-68 -33l8 40q24 6 35.5 21t18.5 48l5 26h-37z" />
    <glyph glyph-name="quotesinglbase" unicode="&#x201a;" horiz-adv-x="169" 
d="M-7 0l17 76h77l-21 -98q-12 -55 -34.5 -79.5t-67.5 -33.5l7 40q24 7 35.5 22t18.5 48l5 25h-37z" />
    <glyph glyph-name="quotedblleft" unicode="&#x201c;" horiz-adv-x="292" 
d="M211 712l-8 -40q-24 -6 -35.5 -21t-18.5 -48l-5 -26h37l-17 -76h-77l21 98q12 55 35 80t68 33zM334 712l-8 -40q-24 -6 -35.5 -21t-18.5 -48l-5 -26h37l-17 -76h-77l21 98q12 55 35 80t68 33z" />
    <glyph glyph-name="quotedblright" unicode="&#x201d;" horiz-adv-x="292" 
d="M128 636l16 76h77l-21 -98q-11 -55 -34 -80t-68 -33l8 40q24 6 35.5 21t18.5 48l5 26h-37zM251 636l16 76h77l-21 -98q-12 -55 -34.5 -80t-67.5 -33l8 40q24 6 35.5 21t18.5 48l5 26h-37z" />
    <glyph glyph-name="quotedblbase" unicode="&#x201e;" horiz-adv-x="292" 
d="M-7 0l17 76h77l-21 -98q-12 -55 -34.5 -79.5t-67.5 -33.5l7 40q24 7 35.5 22t18.5 48l5 25h-37zM116 0l17 76h77l-21 -98q-12 -55 -34.5 -79.5t-67.5 -33.5l7 40q24 7 35.5 22t18.5 48l5 25h-37z" />
    <glyph glyph-name="dagger" unicode="&#x2020;" horiz-adv-x="549" 
d="M357 516h223l-12 -54h-222l-129 -608h-61l129 608h-222l12 54h221l42 196h61z" />
    <glyph glyph-name="daggerdbl" unicode="&#x2021;" horiz-adv-x="549" 
d="M584 516l-13 -54h-221l-76 -358h222l-12 -54h-221l-42 -196h-62l42 196h-223l13 54h221l76 358h-222l12 54h221l42 196h62l-42 -196h223z" />
    <glyph glyph-name="bullet" unicode="&#x2022;" horiz-adv-x="266" 
d="M192 217h-136l30 135h136z" />
    <glyph glyph-name="ellipsis" unicode="&#x2026;" horiz-adv-x="643" 
d="M69 0h-79l17 78h79zM309 0h-79l17 78h79zM543 0h-79l17 78h79z" />
    <glyph glyph-name="perthousand" unicode="&#x2030;" horiz-adv-x="1178" 
d="M198 290q-63 0 -97 39t-34 111q0 37 9 82q21 95 68 147t118 52q63 0 97 -38t34 -110q0 -36 -9 -81q-43 -202 -186 -202zM195 0h-58l531 712h59zM201 333q98 0 132 163q8 40 8 75q0 106 -82 106q-99 0 -133 -163q-8 -45 -8 -73q0 -52 22 -80t61 -28zM601 -9
q-63 0 -97.5 39t-34.5 111q0 35 10 82q19 95 66 147t120 52q62 0 96.5 -38.5t34.5 -109.5q0 -34 -10 -81q-42 -202 -185 -202zM957 -9q-63 0 -97 39t-34 111q0 37 9 82q21 95 68 147t118 52q63 0 97 -38t34 -110q0 -36 -9 -81q-43 -202 -186 -202zM604 34q97 0 131 163
q9 42 9 75q0 106 -83 106q-98 0 -132 -163q-9 -39 -9 -73q0 -52 22 -80t62 -28zM960 34q98 0 132 163q8 40 8 75q0 106 -83 106q-98 0 -132 -163q-8 -45 -8 -73q0 -52 22 -80t61 -28z" />
    <glyph glyph-name="guilsinglleft" unicode="&#x2039;" horiz-adv-x="300" 
d="M72 290l199 139l-13 -69l-154 -106l108 -106l-13 -63l-141 139z" />
    <glyph glyph-name="guilsinglright" unicode="&#x203a;" horiz-adv-x="300" 
d="M88 366l13 63l141 -138l-14 -67l-199 -139l13 70l153 106z" />
    <glyph glyph-name="uni203D" unicode="&#x203d;" horiz-adv-x="497" 
d="M347 728q104 0 153 -50.5t28 -142.5q-16 -79 -131 -158q-81 -56 -109 -98q-22 -33 -35 -96h-56q3 21 7 29l53 270l20 93h61l-20 -93l-28 -123q9 8 56 44q41 30 56 42q16 12 40 41q21 26 27 54q15 64 -17 99t-109 35q-80 0 -130.5 -40t-73.5 -130h-58q50 224 266 224z
M231 0h-79l17 78h79z" />
    <glyph glyph-name="fraction" unicode="&#x2044;" horiz-adv-x="240" 
d="M-96 0h-56l531 712h56z" />
    <glyph glyph-name="zero.sups" unicode="&#x2070;" horiz-adv-x="354" 
d="M247 519q-79 0 -112.5 61.5t-9.5 170.5q21 95 68 147t118 52q79 0 112 -60.5t10 -168.5q-43 -202 -186 -202zM250 562q98 0 132 163q19 87 -0.5 134t-73.5 47q-99 0 -133 -163q-19 -85 2 -133t73 -48z" />
    <glyph glyph-name="four.sups" unicode="&#x2074;" horiz-adv-x="359" 
d="M376 681h63l-10 -45h-63l-23 -108h-54l24 108h-216l11 52l268 253h55zM367 882l-212 -201h169z" />
    <glyph glyph-name="five.sups" unicode="&#x2075;" horiz-adv-x="337" 
d="M241 519q-61 0 -99 32t-39 84l49 2q1 -35 26.5 -56t65.5 -21q43 0 72 25.5t38 69.5q10 48 -12.5 76t-67.5 28q-64 0 -101 -55h-49l93 237h228l-10 -43h-189l-56 -139q37 40 97 40q62 0 95 -42t18 -110q-13 -59 -55.5 -93.5t-103.5 -34.5z" />
    <glyph glyph-name="six.sups" unicode="&#x2076;" horiz-adv-x="349" 
d="M316 909q-105 0 -141 -148q-5 -25 -7 -34q19 34 53 54t72 20q63 0 96.5 -42t20.5 -108q-12 -59 -55.5 -95t-103.5 -36q-62 0 -102 40q-48 48 -22 193q19 93 69 145t126 52q55 0 89 -29.5t33 -77.5h-49q-2 31 -22.5 48.5t-56.5 17.5zM284 759q-43 0 -75 -25t-41 -60
q-11 -51 13 -82.5t73 -31.5q40 0 69.5 26t37.5 68q10 46 -12 75.5t-65 29.5z" />
    <glyph glyph-name="seven.sups" unicode="&#x2077;" horiz-adv-x="304" 
d="M188 528h-56q25 106 87 203t151 168h-224l8 42h277l-9 -44q-183 -143 -234 -369z" />
    <glyph glyph-name="eight.sups" unicode="&#x2078;" horiz-adv-x="351" 
d="M244 520q-74 0 -112.5 36.5t-26.5 99.5q7 34 36 59t73 33q-28 15 -41.5 42t-5.5 61q9 45 48 71.5t96 26.5q63 0 97 -34.5t23 -89.5q-5 -27 -27.5 -48.5t-54.5 -28.5q79 -30 60 -120q-9 -48 -54 -78t-111 -30zM287 763q39 0 66.5 18t33.5 50q8 36 -14 58t-65 22
q-38 0 -64.5 -18.5t-32.5 -46.5q-8 -36 13.5 -59.5t62.5 -23.5zM247 560q47 0 76.5 20.5t38.5 55.5q11 44 -12.5 69t-76.5 25q-50 0 -81 -20.5t-38 -56.5q-9 -44 16 -68.5t77 -24.5z" />
    <glyph glyph-name="nine.sups" unicode="&#x2079;" horiz-adv-x="349" 
d="M232 520q-56 0 -90 29t-34 78h49q5 -66 81 -66q51 0 85 36t54 111q5 16 6 36q-16 -33 -50.5 -55t-73.5 -22q-63 0 -96.5 43t-19.5 108q11 59 54.5 95t103.5 36q63 0 102 -41q48 -48 23 -192q-43 -196 -194 -196zM204 739q22 -30 65 -30t75 26q33 26 40 60q11 51 -13 82
t-73 31q-40 0 -69.5 -26t-37.5 -67q-10 -46 13 -76z" />
    <glyph glyph-name="plus.sups" unicode="&#x207a;" horiz-adv-x="293" 
d="M265 755h101v-42h-101v-101h-46v101h-100v42h100v101h46v-101z" />
    <glyph glyph-name="minus.sups" unicode="&#x207b;" horiz-adv-x="293" 
d="M364 713h-246v42h246v-42z" />
    <glyph glyph-name="parenleft.sups" unicode="&#x207d;" horiz-adv-x="143" 
d="M184 450h-49q-17 68 -19 134q-1 62 17 150q21 93 47 152q30 67 77 133h49q-90 -125 -125 -285q-32 -149 3 -284z" />
    <glyph glyph-name="parenright.sups" unicode="&#x207e;" horiz-adv-x="143" 
d="M87 450h-49q92 132 125 285q32 149 -3 284h48q36 -130 3 -284q-20 -88 -47 -151t-77 -134z" />
    <glyph glyph-name="n.sups" unicode="&#x207f;" horiz-adv-x="452" 
d="M343 721q76 0 110 -48t16 -137l-58 -274h-56l59 278q29 132 -91 132q-56 0 -100 -36t-62 -105l-57 -269h-55l95 449h53l-17 -78q64 88 163 88z" />
    <glyph glyph-name="zero.subs" unicode="&#x2080;" horiz-adv-x="354" 
d="M93 -205q-79 0 -112.5 61.5t-9.5 170.5q21 95 68 147t118 52q79 0 112 -60.5t10 -168.5q-43 -202 -186 -202zM96 -162q98 0 132 163q19 87 -0.5 134t-73.5 47q-99 0 -133 -163q-19 -85 2 -133t73 -48z" />
    <glyph glyph-name="one.subs" unicode="&#x2081;" horiz-adv-x="237" 
d="M62 -196h-50l74 344q-42 -31 -116 -33l8 36q87 5 129 66h43z" />
    <glyph glyph-name="two.subs" unicode="&#x2082;" horiz-adv-x="323" 
d="M210 -196h-291l4 20q24 113 164 172l36 16q85 36 96 89q7 37 -13 59t-64 22q-43 0 -70.5 -22.5t-34.5 -61.5h-49q10 59 50.5 93t107.5 34q68 0 100.5 -36.5t20.5 -91.5q-16 -76 -131 -125l-37 -16q-101 -44 -117 -109h237z" />
    <glyph glyph-name="three.subs" unicode="&#x2083;" horiz-adv-x="333" 
d="M79 -204q-69 0 -107.5 36.5t-30.5 95.5h47q-5 -40 20.5 -65.5t73.5 -25.5q94 0 110 75q10 45 -13 69t-72 24h-25l8 36h26q43 0 71.5 17.5t35.5 47.5q9 36 -13 57t-65 21q-81 0 -101 -74h-49q13 56 52.5 85.5t99.5 29.5q66 0 100.5 -33t22.5 -90q-6 -28 -30.5 -51
t-57.5 -30q35 -12 51 -41t7 -73q-12 -50 -54.5 -80.5t-106.5 -30.5z" />
    <glyph glyph-name="four.subs" unicode="&#x2084;" horiz-adv-x="359" 
d="M222 -43h63l-10 -45h-63l-23 -108h-54l24 108h-216l11 52l268 253h55zM213 158l-212 -201h169z" />
    <glyph glyph-name="five.subs" unicode="&#x2085;" horiz-adv-x="337" 
d="M87 -205q-61 0 -99 32t-39 84l49 2q1 -35 26.5 -56t65.5 -21q43 0 72 25.5t38 69.5q10 48 -12.5 76t-67.5 28q-64 0 -101 -55h-49l93 237h228l-10 -43h-189l-56 -139q37 40 97 40q62 0 95 -42t18 -110q-13 -59 -55.5 -93.5t-103.5 -34.5z" />
    <glyph glyph-name="six.subs" unicode="&#x2086;" horiz-adv-x="349" 
d="M162 185q-105 0 -141 -148q0 -1 -1.5 -6.5t-3 -12.5t-2.5 -15q19 34 53 54t72 20q63 0 96.5 -42t20.5 -108q-12 -59 -55.5 -95t-103.5 -36q-62 0 -102 40q-48 48 -22 193q19 93 69 145t126 52q55 0 89 -29.5t33 -77.5h-49q-2 31 -22.5 48.5t-56.5 17.5zM130 35
q-43 0 -75 -25t-41 -60q-11 -51 13 -82.5t73 -31.5q40 0 69.5 26t37.5 68q10 46 -12 75.5t-65 29.5z" />
    <glyph glyph-name="seven.subs" unicode="&#x2087;" horiz-adv-x="304" 
d="M34 -196h-56q25 106 87 203t151 168h-224l8 42h277l-9 -44q-183 -143 -234 -369z" />
    <glyph glyph-name="eight.subs" unicode="&#x2088;" horiz-adv-x="351" 
d="M90 -204q-74 0 -112.5 36.5t-26.5 99.5q7 34 36 59t73 33q-28 15 -41.5 42t-5.5 61q9 45 48 71.5t96 26.5q63 0 97 -34.5t23 -89.5q-5 -27 -27.5 -48.5t-54.5 -28.5q79 -30 60 -120q-9 -48 -54 -78t-111 -30zM133 39q39 0 66.5 18t33.5 50q8 36 -14 58t-65 22
q-38 0 -64.5 -18.5t-32.5 -46.5q-8 -36 13.5 -59.5t62.5 -23.5zM93 -164q47 0 76.5 20.5t38.5 55.5q11 44 -12.5 69t-76.5 25q-50 0 -81 -20.5t-38 -56.5q-9 -44 16 -68.5t77 -24.5z" />
    <glyph glyph-name="nine.subs" unicode="&#x2089;" horiz-adv-x="349" 
d="M78 -204q-56 0 -90 29t-34 78h49q5 -66 81 -66q51 0 85 36t54 111q5 16 6 36q-16 -33 -50.5 -55t-73.5 -22q-63 0 -96.5 43t-19.5 108q11 59 54.5 95t103.5 36q63 0 102 -41q48 -48 23 -192q-43 -196 -194 -196zM50 15q22 -30 65 -30t75 26q33 26 40 60q11 51 -13 82
t-73 31q-40 0 -69.5 -26t-37.5 -67q-10 -46 13 -76z" />
    <glyph glyph-name="plus.subs" unicode="&#x208a;" horiz-adv-x="293" 
d="M118 31h100v-42h-100v-101h-46v101h-100v42h100v101h46v-101z" />
    <glyph glyph-name="minus.subs" unicode="&#x208b;" horiz-adv-x="293" 
d="M218 -11h-246v42h246v-42z" />
    <glyph glyph-name="equal.subs" unicode="&#x208c;" horiz-adv-x="293" 
d="M216 42h-246v39h246v-39zM216 -61h-246v39h246v-39z" />
    <glyph glyph-name="uni208D" unicode="&#x208d;" horiz-adv-x="143" 
d="M32 -275h-49q-17 68 -19 134q-1 62 17 150q21 93 47 152q30 68 76 134h49q-92 -131 -125 -286q-31 -143 4 -284z" />
    <glyph glyph-name="uni208E" unicode="&#x208e;" horiz-adv-x="143" 
d="M-66 -275h-49q92 131 125 286q31 143 -4 284h49q35 -130 2 -284q-18 -87 -45 -150.5t-78 -135.5z" />
    <glyph glyph-name="n.subs" unicode="&#x2099;" horiz-adv-x="453" 
d="M246 263q76 0 110 -48t16 -137l-58 -274h-56l59 278q29 132 -91 132q-56 0 -100 -36t-62 -105l-57 -269h-55l95 449h53l-17 -78q64 88 163 88z" />
    <glyph glyph-name="Euro" unicode="&#x20ac;" horiz-adv-x="678" 
d="M351 40q180 0 249 199h58q-85 -253 -314 -253q-120 0 -184.5 77t-57.5 213h-86l10 49h81q3 23 9 50q7 29 9 36h-80l10 49h85q45 126 131 197t201 71q111 0 172 -62t63 -176h-60q-4 184 -182 184q-88 0 -155.5 -56.5t-106.5 -157.5h250l-10 -49h-256q-3 -8 -10 -39
q-7 -36 -8 -47h255l-10 -49h-251q-6 -115 41.5 -175.5t146.5 -60.5z" />
    <glyph glyph-name="uni20B8" unicode="&#x20b8;" horiz-adv-x="609" 
d="M108 658l11 54h566l-12 -54h-565zM323 484h-253l12 54h566l-12 -54h-252l-103 -484h-62z" />
    <glyph glyph-name="uni20B9" unicode="&#x20b9;" horiz-adv-x="613" 
d="M254 712h406l-10 -48h-157q57 -44 54 -124h77l-10 -48h-73q-20 -81 -87.5 -126t-169.5 -45h-133l287 -321h-81l-291 328l3 13h-1l8 34h216q75 0 123 30.5t64 86.5h-378l10 48h375q1 57 -38 87.5t-109 30.5h-203l11 53h107v1z" />
    <glyph glyph-name="uni20BA" unicode="&#x20ba;" horiz-adv-x="556" 
d="M464 372h61q-38 -179 -154.5 -275.5t-314.5 -96.5h-59l76 354l-80 -31l10 49l80 31l18 86l-79 -31l10 49l80 31l37 174h59l-32 -149l235 91l-11 -49l-234 -91l-19 -86l235 91l-11 -50l-234 -90l-69 -325q327 0 396 318z" />
    <glyph glyph-name="uni20BC" unicode="&#x20bc;" horiz-adv-x="667" 
d="M458 712l-39 -183q120 -2 171 -67t24 -194l-57 -268h-62l62 276q24 104 -12.5 152.5t-136.5 49.5l-79 -374h-58l79 374h-12q-95 0 -144.5 -40.5t-68.5 -128.5l-66 -309h-59l67 310q24 113 90.5 166t190.5 53h13l39 183h58z" />
    <glyph glyph-name="uni20BF" unicode="&#x20bf;" horiz-adv-x="620" 
d="M623 511q-23 -101 -138 -144q62 -23 86.5 -72.5t10.5 -118.5q-16 -79 -78.5 -125.5t-159.5 -50.5l-25 -116h-50l25 116h-90l-25 -116h-50l25 116h-143l151 712h142l25 116h50l-25 -116h79h11l25 116h50l-26 -121q78 -15 112 -67.5t18 -128.5zM293 658h-83l-57 -265h84z
M433 658h-8h-82l-56 -265h90zM566 519q11 51 -10 86t-74 47l-54 -255q56 9 91 41t47 81zM142 339l-61 -285h84l60 285h-83zM275 339l-60 -285h90l60 285h-90zM524 186q14 63 -15 102.5t-94 48.5l-60 -282q68 4 112.5 38.5t56.5 92.5z" />
    <glyph glyph-name="uni2105" unicode="&#x2105;" horiz-adv-x="953" 
d="M234 290q-90 0 -135 64q-47 63 -24 165q21 92 80 147t145 55q72 0 116 -44t43 -114h-54q-1 51 -31 81.5t-80 30.5q-62 0 -105.5 -45t-58.5 -120q-17 -81 12 -127.5t96 -46.5q110 0 148 120h53q-24 -80 -76.5 -123t-128.5 -43zM274 0h-58l531 712h58zM694 -9
q-92 0 -140 63t-26 166q19 91 79.5 146.5t146.5 55.5q92 0 140 -64q47 -64 25 -170q-19 -88 -79 -142.5t-146 -54.5zM698 38q62 0 106.5 43.5t59.5 115.5q17 79 -16 128.5t-100 49.5q-61 0 -105 -43.5t-59 -116.5q-17 -79 15 -128t99 -49z" />
    <glyph glyph-name="uni2113" unicode="&#x2113;" horiz-adv-x="410" 
d="M248 38q51 0 79 31l18 -47q-38 -34 -100 -34q-56 0 -87.5 33.5t-31.5 91.5v112q-35 -10 -80 -14l-8 50q48 5 88 18v295q0 154 132 154q122 0 122 -160q0 -110 -51.5 -195.5t-146.5 -127.5v-129q0 -36 18 -57t48 -21zM182 575v-271q69 39 105 108t36 155q0 111 -67 111
q-74 0 -74 -103z" />
    <glyph glyph-name="uni2116" unicode="&#x2116;" horiz-adv-x="1069" 
d="M957 722q63 0 99.5 -37.5t36.5 -102.5q0 -82 -53 -153q-54 -71 -144 -71q-63 0 -100 37t-37 102q0 83 54 154q53 71 144 71zM560 331l81 381h59l-152 -712h-71l-207 452q-48 111 -79 192q-20 -104 -55 -263l-80 -381h-59l152 712h70l208 -452q38 -86 79 -192
q33 165 54 263zM904 407q64 0 102 54.5t35 113.5q0 46 -24.5 72.5t-66.5 26.5q-66 0 -102 -54q-37 -53 -37 -115q0 -47 25 -72.5t68 -25.5z" />
    <glyph glyph-name="uni2117" unicode="&#x2117;" horiz-adv-x="829" 
d="M434 729q161 0 271 -108q108 -108 108 -265q0 -156 -108 -264q-110 -108 -271 -108t-269 108t-108 264q0 157 108 265t269 108zM434 29q141 0 236 95q94 94 94 232q0 139 -94 233q-95 95 -236 95q-139 0 -234 -95q-94 -94 -94 -233q0 -138 94 -232q95 -95 234 -95z
M303 570h171q65 0 103.5 -35.5t38.5 -95.5q0 -59 -38.5 -94t-103.5 -35h-122v-168h-49v428zM352 356h122q43 0 67.5 22t24.5 61q0 40 -24 62t-68 22h-122v-167z" />
    <glyph glyph-name="trademark" unicode="&#x2122;" horiz-adv-x="651" 
d="M206 682h-89v30h211v-30h-89v-233h-33v233zM505 537l75 175h37v-263h-32v141v55l-5 -13l-78 -183h-26l-79 183l-5 13v-55v-141h-32v263h37l76 -178q6 -18 16 -40q8 26 16 43z" />
    <glyph glyph-name="uni2126" unicode="&#x2126;" horiz-adv-x="749" 
d="M322 0h-286v53h195v2q-89 54 -138 138.5t-49 189.5q0 160 91 251t239 91t238 -91q89 -92 89 -251q0 -105 -48.5 -189.5t-136.5 -138.5v-2h195v-53h-285v48q215 110 215 335q0 137 -71.5 213t-195.5 76t-197 -76.5t-73 -212.5q0 -110 56 -195.5t162 -139.5v-48z" />
    <glyph glyph-name="estimated" unicode="&#x212e;" horiz-adv-x="911" 
d="M161 623q109 105 295 105q185 0 295 -110q109 -110 109 -272h-646q-14 0 -14 -13v-176q0 -32 16 -47q98 -96 240 -96q74 0 141.5 31.5t110.5 83.5h73q-44 -62 -128.5 -102t-196.5 -40q-182 0 -294 104q-112 103 -112 265q0 160 111 267zM456 700q-142 0 -240 -98
q-16 -15 -16 -44v-176q0 -13 14 -13h481q14 0 14 13v176q0 29 -16 44q-100 98 -237 98z" />
    <glyph glyph-name="uni2153" unicode="&#x2153;" horiz-adv-x="731" 
d="M99 0h-56l531 712h56zM167 299h-50l74 344q-42 -31 -116 -33l8 36q87 4 129 66h43zM520 -8q-69 0 -108 36.5t-30 95.5h46q-5 -40 20.5 -65.5t74.5 -25.5q93 0 109 75q10 45 -13 69t-72 24h-24l7 36h27q42 0 70.5 17.5t36.5 47.5q8 36 -13.5 57t-64.5 21q-81 0 -101 -74
h-49q12 56 51.5 85.5t100.5 29.5q66 0 100 -33t22 -90q-6 -28 -30 -51.5t-58 -29.5q37 -12 53 -41t5 -73q-12 -50 -54 -80.5t-106 -30.5z" />
    <glyph glyph-name="uni2154" unicode="&#x2154;" horiz-adv-x="864" 
d="M315 299h-291l4 20q24 113 164 172l36 16q85 36 96 89q7 37 -13 59t-64 22q-43 0 -70.5 -22.5t-34.5 -61.5h-49q10 59 50.5 93t107.5 34q68 0 100.5 -36.5t20.5 -91.5q-16 -76 -131 -125l-37 -16q-101 -44 -117 -109h237zM238 0h-56l531 712h56zM652 -8
q-69 0 -107.5 36.5t-30.5 95.5h47q-5 -40 20.5 -65.5t73.5 -25.5q93 0 110 75q10 45 -13 69t-72 24h-25l8 36h26q43 0 71.5 17.5t35.5 47.5q9 36 -13 57t-65 21q-81 0 -101 -74h-49q13 56 52.5 85.5t99.5 29.5q66 0 100.5 -33t22.5 -90q-6 -28 -30.5 -51t-57.5 -30
q35 -12 51 -41t7 -73q-12 -50 -54.5 -80.5t-106.5 -30.5z" />
    <glyph glyph-name="uni2155" unicode="&#x2155;" horiz-adv-x="711" 
d="M86 0h-56l531 712h56zM167 299h-50l74 344q-42 -31 -116 -33l8 36q87 4 129 66h43zM502 -9q-61 0 -98.5 32t-38.5 84l49 2q1 -35 26.5 -56t65.5 -21q42 0 71 26t38 69q11 47 -11 75.5t-68 28.5q-65 0 -101 -55h-49l92 237h228l-9 -43h-189l-56 -139q36 40 97 40
q60 0 95 -41q33 -41 17 -111q-12 -58 -55 -93t-104 -35z" />
    <glyph glyph-name="uni2156" unicode="&#x2156;" horiz-adv-x="848" 
d="M315 299h-291l4 20q24 113 164 172l36 16q85 36 96 89q7 37 -13 59t-64 22q-43 0 -70.5 -22.5t-34.5 -61.5h-49q10 59 50.5 93t107.5 34q68 0 100.5 -36.5t20.5 -91.5q-16 -76 -131 -125l-37 -16q-101 -44 -117 -109h237zM223 0h-56l532 712h56zM640 -9q-61 0 -99 32
t-39 84l50 2q1 -35 26.5 -56t65.5 -21q42 0 71 26t38 69q10 48 -12 76t-67 28q-65 0 -101 -55h-50l93 237h228l-10 -43h-188l-56 -139q36 40 96 40q62 0 95 -42t18 -110q-13 -59 -55.5 -93.5t-103.5 -34.5z" />
    <glyph glyph-name="uni2157" unicode="&#x2157;" horiz-adv-x="814" 
d="M184 291q-69 0 -107.5 36.5t-30.5 95.5h47q-5 -40 20.5 -65.5t73.5 -25.5q93 0 110 75q10 45 -13 69t-72 24h-25l8 36h26q43 0 71.5 17.5t35.5 47.5q9 36 -13 57t-65 21q-81 0 -101 -74h-49q13 56 52.5 85.5t99.5 29.5q66 0 100.5 -33t22.5 -90q-6 -28 -30.5 -51
t-57.5 -30q35 -12 51 -41t7 -73q-12 -50 -54.5 -80.5t-106.5 -30.5zM190 0h-56l531 712h56zM606 -9q-61 0 -99 32t-39 84l49 2q1 -35 26.5 -56t65.5 -21q42 0 71.5 26t38.5 69q10 48 -12.5 76t-67.5 28q-65 0 -101 -55h-49l93 237h227l-9 -43h-189l-56 -139q37 40 97 40
q62 0 95 -42t18 -110q-13 -59 -55.5 -93.5t-103.5 -34.5z" />
    <glyph glyph-name="uni2158" unicode="&#x2158;" horiz-adv-x="837" 
d="M294 299h-54l24 108h-216l11 52l268 253h55l-55 -260h63l-10 -45h-63zM160 0l531 712h56l-531 -712h-56zM318 653l-212 -201h169zM832 413l-9 -43h-189l-56 -139q36 40 97 40q60 0 95 -41q33 -40 18 -111q-13 -58 -55.5 -93t-104.5 -35q-60 0 -98 32t-39 84l49 2
q1 -35 26.5 -56t65.5 -21q42 0 71 26t38 69q11 47 -11 75.5t-68 28.5q-65 0 -101 -55h-49l92 237h228z" />
    <glyph glyph-name="uni2159" unicode="&#x2159;" horiz-adv-x="702" 
d="M30 0l531 712h56l-531 -712h-56zM167 299h-50l74 344q-42 -31 -116 -33l8 36q87 4 129 66h43zM540 273q63 0 96.5 -42.5t19.5 -107.5q-11 -59 -54.5 -95t-103.5 -36q-65 0 -102 40q-49 49 -23 193q21 94 70 145.5t125 51.5q56 0 89.5 -29t33.5 -78h-49q-2 31 -22.5 48.5
t-56.5 17.5q-53 0 -86.5 -35.5t-54.5 -112.5l-7 -33q18 33 52.5 53t72.5 20zM608 126q9 46 -13 75.5t-65 29.5q-42 0 -74 -25t-41 -60q-11 -51 13 -82.5t73 -31.5q40 0 69.5 26t37.5 68z" />
    <glyph glyph-name="uni215A" unicode="&#x215a;" horiz-adv-x="811" 
d="M351 418q-13 -59 -55.5 -93.5t-103.5 -34.5t-99 32t-39 84l49 2q1 -35 26.5 -56t65.5 -21q43 0 72 25.5t38 69.5q10 48 -12.5 76t-67.5 28q-64 0 -101 -55h-49l93 237h228l-10 -43h-189l-56 -139q37 40 97 40q62 0 95 -42t18 -110zM137 0l531 712h56l-531 -712h-56z
M649 273q63 0 96.5 -42.5t19.5 -107.5q-11 -59 -54.5 -95t-103.5 -36q-65 0 -102 40q-49 49 -23 193q21 94 70 145.5t125 51.5q56 0 89.5 -29t33.5 -78h-49q-2 31 -22.5 48.5t-56.5 17.5q-53 0 -87 -36t-54 -112l-7 -31q20 32 54 51.5t71 19.5zM717 126q9 46 -13 75.5
t-65 29.5q-42 0 -74 -25t-41 -60q-12 -51 12.5 -82.5t73.5 -31.5q40 0 69.5 26t37.5 68z" />
    <glyph glyph-name="oneeighth" unicode="&#x215b;" horiz-adv-x="738" 
d="M99 0h-56l531 712h56zM167 299h-50l74 344q-42 -31 -116 -33l8 36q87 4 129 66h43zM519 -8q-74 0 -112 36.5t-26 99.5q6 34 35.5 59t73.5 33q-64 35 -48 103q10 46 48.5 72t95.5 26q64 0 98 -34.5t22 -89.5q-5 -27 -28 -48.5t-53 -28.5q79 -30 59 -120q-9 -48 -53.5 -78
t-111.5 -30zM563 235q38 0 65.5 18t34.5 50q7 36 -15 58t-64 22q-39 0 -65 -17.5t-33 -47.5q-8 -36 14 -59.5t63 -23.5zM523 32q47 0 77 20.5t37 55.5q11 44 -12.5 69t-76.5 25q-50 0 -81 -20.5t-38 -56.5q-9 -44 16.5 -68.5t77.5 -24.5z" />
    <glyph glyph-name="threeeighths" unicode="&#x215c;" horiz-adv-x="834" 
d="M184 291q-69 0 -107.5 36.5t-30.5 95.5h47q-5 -40 20.5 -65.5t73.5 -25.5q93 0 110 75q10 45 -13 69t-72 24h-25l8 36h26q43 0 71.5 17.5t35.5 47.5q9 36 -13 57t-65 21q-81 0 -101 -74h-49q13 56 52.5 85.5t99.5 29.5q66 0 100.5 -33t22.5 -90q-6 -28 -30.5 -51
t-57.5 -30q35 -12 51 -41t7 -73q-12 -50 -54.5 -80.5t-106.5 -30.5zM199 0h-56l532 712h56zM615 -8q-74 0 -112 36.5t-26 99.5q6 34 35.5 59t73.5 33q-27 13 -41 40.5t-7 62.5q10 46 48.5 72t95.5 26q64 0 98 -34.5t23 -89.5q-6 -27 -29 -48.5t-53 -28.5q78 -28 60 -120
q-10 -48 -54.5 -78t-111.5 -30zM659 235q39 0 66 18t34 50q7 37 -15 58.5t-64 21.5q-39 0 -65 -17.5t-33 -47.5q-8 -36 14 -59.5t63 -23.5zM619 32q47 0 76.5 20.5t38.5 55.5q10 44 -13.5 69t-76.5 25q-50 0 -81 -20.5t-38 -56.5q-9 -44 16.5 -68.5t77.5 -24.5z" />
    <glyph glyph-name="fiveeighths" unicode="&#x215d;" horiz-adv-x="829" 
d="M192 290q-61 0 -99 32t-39 84l49 2q1 -35 26.5 -56t65.5 -21q43 0 72 25.5t38 69.5q10 48 -12.5 76t-67.5 28q-64 0 -101 -55h-49l93 237h228l-10 -43h-189l-56 -139q37 40 97 40q62 0 95 -42t18 -110q-13 -59 -55.5 -93.5t-103.5 -34.5zM197 0h-56l531 712h57zM610 -8
q-74 0 -112.5 36.5t-26.5 99.5q7 34 36 59t73 33q-28 15 -41.5 42t-5.5 61q9 45 48 71.5t96 26.5q63 0 97 -34.5t23 -89.5q-5 -27 -27.5 -48.5t-54.5 -28.5q79 -30 60 -120q-9 -48 -54 -78t-111 -30zM653 235q39 0 66.5 18t34.5 50q7 36 -15.5 58t-64.5 22
q-38 0 -64.5 -18.5t-32.5 -46.5q-8 -36 13.5 -59.5t62.5 -23.5zM613 32q48 0 78 20.5t37 55.5q11 44 -12.5 69t-76.5 25q-50 0 -81 -20.5t-38 -56.5q-9 -44 16 -68.5t77 -24.5z" />
    <glyph glyph-name="seveneighths" unicode="&#x215e;" horiz-adv-x="715" 
d="M77 0h-56l531 712h56zM139 299h-56q25 106 87 203t151 168h-224l8 42h277l-9 -44q-183 -142 -234 -369zM497 -8q-74 0 -112.5 36.5t-26.5 99.5q6 34 35.5 59t73.5 33q-61 33 -48 103q10 45 49.5 71.5t94.5 26.5q64 0 98 -34.5t23 -89.5q-6 -27 -29 -48.5t-53 -28.5
q78 -28 60 -120q-10 -48 -54.5 -78t-110.5 -30zM540 235q39 0 66.5 18t33.5 50q7 37 -15 58.5t-64 21.5q-39 0 -65 -17.5t-32 -47.5q-8 -36 13.5 -59.5t62.5 -23.5zM500 32q47 0 76.5 20.5t38.5 55.5q10 45 -13 69.5t-76 24.5q-102 0 -120 -77q-9 -44 16.5 -68.5t77.5 -24.5
z" />
    <glyph glyph-name="arrowleft" unicode="&#x2190;" horiz-adv-x="956" 
d="M225 383h637v-53h-638q80 -104 126 -165l126 -165h-73l-269 356l269 356h73l-126 -165q-6 -8 -21.5 -28.5t-45 -59t-58.5 -76.5z" />
    <glyph glyph-name="arrowup" unicode="&#x2191;" horiz-adv-x="956" 
d="M142 459l356 269l356 -269v-72l-165 125q-5 4 -38 29.5t-56 43.5q-66 50 -69 52v-637h-58v636q-11 -8 -161 -124l-165 -125v72z" />
    <glyph glyph-name="arrowright" unicode="&#x2192;" horiz-adv-x="956" 
d="M520 712h73l269 -356l-269 -356h-73l126 165q46 61 126 165h-638v53h637q-29 38 -58.5 76.5t-45 59t-21.5 28.5z" />
    <glyph glyph-name="arrowdown" unicode="&#x2193;" horiz-adv-x="956" 
d="M689 200l165 125v-72l-356 -269l-356 269v72l165 -125q150 -116 161 -124v636h58v-637q2 2 10.5 8.5t25 19t33.5 25.5q16 13 48.5 37.5t45.5 34.5z" />
    <glyph glyph-name="arrowboth" unicode="&#x2194;" horiz-adv-x="956" 
d="M633 712h74l269 -356l-269 -356h-74l126 165q72 97 127 165h-776q70 -87 127 -165l126 -165h-74l-269 356l269 356h74l-126 -165l-126 -164h774l-126 164z" />
    <glyph glyph-name="arrowupdn" unicode="&#x2195;" horiz-adv-x="956" 
d="M526 779v-846q3 2 69 52q23 18 56 43.5t38 29.5l165 125v-72l-356 -269l-356 269v72l165 -125q150 -116 161 -124v844q-11 -8 -161 -124l-165 -125v72l356 269l356 -269v-72l-165 125q-5 4 -38 29.5t-56 43.5q-66 49 -69 52z" />
    <glyph glyph-name="uni2196" unicode="&#x2196;" horiz-adv-x="956" 
d="M814 605h-303q-184 0 -233 1l536 -525l-40 -44l-535 524q1 -49 1 -231v-291l-58 53v567h581z" />
    <glyph glyph-name="uni2197" unicode="&#x2197;" horiz-adv-x="956" 
d="M182 605l51 54h581v-567l-58 -53v291q0 182 1 231l-535 -524l-40 44l536 525q-49 -1 -233 -1h-303z" />
    <glyph glyph-name="uni2198" unicode="&#x2198;" horiz-adv-x="956" 
d="M756 377v291l58 -53v-567h-581l-51 54h303q184 0 233 -1l-536 525l40 44l535 -524q-1 49 -1 231z" />
    <glyph glyph-name="uni2199" unicode="&#x2199;" horiz-adv-x="956" 
d="M814 617l-536 -524q49 1 233 1h303l-51 -54h-581v566l58 54v-291q0 -183 -1 -232l535 524z" />
    <glyph glyph-name="partialdiff" unicode="&#x2202;" horiz-adv-x="565" 
d="M357 728q95 0 146 -59.5t51 -164.5q0 -138 -44 -264q-45 -125 -123 -190q-73 -66 -166 -66q-85 0 -137 50.5t-52 133.5q0 121 82 206q81 85 191 85q66 0 111.5 -37.5t53.5 -97.5q24 92 24 176q0 174 -143 174q-53 0 -100.5 -35.5t-73.5 -95.5h-60q33 86 96.5 135.5
t143.5 49.5zM223 38q85 0 147 71q61 70 61 161q0 62 -34 98.5t-94 36.5q-84 0 -145 -70q-63 -71 -63 -163q0 -60 34.5 -97t93.5 -37z" />
    <glyph glyph-name="uni2206" unicode="&#x2206;" horiz-adv-x="654" 
d="M243 712h67l268 -658v-54h-601v54zM276 648q-58 -156 -100 -258l-136 -336h476l-138 337q-26 62 -102 257z" />
    <glyph glyph-name="product" unicode="&#x220f;" horiz-adv-x="680" 
d="M85 -196v908h550v-908h-59v854h-432v-854h-59z" />
    <glyph glyph-name="summation" unicode="&#x2211;" horiz-adv-x="565" 
d="M325 -142h233v-54h-511v54l303 400l-303 400v54h501v-54h-223q-114 0 -206 2q31 -41 62 -81.5t45 -59t18 -23.5l168 -223v-30l-168 -223q-3 -4 -16.5 -21.5t-45.5 -60t-63 -82.5q92 2 206 2z" />
    <glyph glyph-name="minus" unicode="&#x2212;" horiz-adv-x="521" 
d="M495 330h-428v52h428v-52z" />
    <glyph glyph-name="uni2215" unicode="&#x2215;" horiz-adv-x="521" 
d="M31 0h-64l524 712h63z" />
    <glyph glyph-name="uni2219" unicode="&#x2219;" horiz-adv-x="520" 
d="M317 309h-94l20 94h95z" />
    <glyph glyph-name="radical" unicode="&#x221a;" horiz-adv-x="694" 
d="M406 76l234 636h61l-338 -908h-65l-161 429h-104v52h145l78 -209l75 -207q31 89 75 207z" />
    <glyph glyph-name="infinity" unicode="&#x221e;" horiz-adv-x="792" 
d="M599 545q77 0 121.5 -52t44.5 -137t-44.5 -137t-121.5 -52q-103 0 -183 134q-80 -134 -183 -134q-77 0 -121.5 52t-44.5 137t44.5 137t121.5 52q103 0 183 -135q80 135 183 135zM234 216q81 0 156 140q-77 140 -156 140q-50 0 -80.5 -38.5t-30.5 -101.5t30.5 -101.5
t80.5 -38.5zM598 216q50 0 80.5 38.5t30.5 101.5t-30.5 101.5t-80.5 38.5q-81 0 -156 -140q75 -140 156 -140z" />
    <glyph glyph-name="integral" unicode="&#x222b;" horiz-adv-x="391" 
d="M112 -199q-22 0 -45 3v50q21 -3 42 -3q78 0 78 81v651q0 132 132 132q23 0 45 -3v-50q-22 3 -42 3q-78 0 -78 -81v-651q0 -132 -132 -132z" />
    <glyph glyph-name="approxequal" unicode="&#x2248;" horiz-adv-x="521" 
d="M119 379h-50q7 51 37 80t75 29q38 0 113 -30q58 -24 87 -24q51 0 61 57h50q-6 -51 -36 -80t-75 -29q-34 0 -106 28q-61 27 -94 27q-50 0 -62 -58zM119 211h-50q7 51 37 80t75 29q38 0 113 -30q58 -24 87 -24q51 0 61 57h50q-6 -51 -36 -80t-75 -29q-34 0 -106 28
q-61 27 -94 27q-50 0 -62 -58z" />
    <glyph glyph-name="notequal" unicode="&#x2260;" horiz-adv-x="521" 
d="M495 465v-49h-161l-47 -120h208v-49h-228l-45 -115l-48 16l39 99h-146v49h166l47 120h-213v49h233l46 116l47 -16l-39 -100h141z" />
    <glyph glyph-name="lessequal" unicode="&#x2264;" horiz-adv-x="521" 
d="M495 583v-61l-156 -69q-127 -55 -213 -90q86 -35 213 -90l156 -69v-61l-428 190v60zM495 0h-428v51h428v-51z" />
    <glyph glyph-name="greaterequal" unicode="&#x2265;" horiz-adv-x="521" 
d="M67 522v61l428 -190v-60l-428 -190v61l155 69q123 53 214 90q-91 37 -214 90zM495 0h-428v51h428v-51z" />
    <glyph glyph-name="uni2460" unicode="&#x2460;" horiz-adv-x="956" 
d="M159 685q139 134 339 134t340 -134q138 -135 138 -329t-138 -328q-140 -135 -340 -135q-201 0 -339 135q-139 133 -139 328q0 194 139 329zM198 64q122 -119 300 -119t300 119t122 292t-122 292t-300 119t-300 -119t-122 -292t122 -292zM496 584h50v-455h-57v371
q-38 -31 -119 -32v42q49 3 79 19.5t47 54.5z" />
    <glyph glyph-name="uni2461" unicode="&#x2461;" horiz-adv-x="956" 
d="M159 685q139 134 339 134t340 -134q138 -135 138 -329t-138 -328q-140 -135 -340 -135q-201 0 -339 135q-139 133 -139 328q0 194 139 329zM198 64q122 -119 300 -119t300 119t122 292t-122 292t-300 119t-300 -119t-122 -292t122 -292zM535 331l-41 -19
q-90 -44 -97 -116h258v-49h-320l1 22q3 132 138 190l37 17q82 37 82 101q0 38 -25 61.5t-73 23.5q-47 0 -71.5 -25.5t-25.5 -68.5h-56q2 65 41.5 104.5t113.5 39.5q73 0 113 -37.5t40 -96.5q0 -93 -115 -147z" />
    <glyph glyph-name="uni2462" unicode="&#x2462;" horiz-adv-x="956" 
d="M159 685q139 134 339 134t340 -134q138 -135 138 -329t-138 -328q-140 -135 -340 -135q-201 0 -339 135q-139 133 -139 328q0 194 139 329zM198 64q122 -119 300 -119t300 119t122 292t-122 292t-300 119t-300 -119t-122 -292t122 -292zM578 372q39 -10 62.5 -41
t23.5 -75q0 -61 -45 -98.5t-120 -37.5q-79 0 -124 38.5t-45 107.5h56q0 -49 30 -74.5t83 -25.5q49 0 78.5 25t29.5 67q0 44 -29.5 66.5t-83.5 22.5h-28v43h30q45 0 72 21t27 58q0 36 -26 57t-70 21t-70 -21.5t-27 -60.5h-57q3 60 44 94.5t110 34.5q70 0 111 -32.5t41 -86.5
q0 -35 -20 -62.5t-53 -40.5z" />
    <glyph glyph-name="uni2463" unicode="&#x2463;" horiz-adv-x="956" 
d="M159 685q139 134 339 134t340 -134q138 -135 138 -329t-138 -328q-140 -135 -340 -135q-201 0 -339 135q-139 133 -139 328q0 194 139 329zM198 64q122 -119 300 -119t300 119t122 292t-122 292t-300 119t-300 -119t-122 -292t122 -292zM522 594h61v-286h69v-50h-69v-119
h-59v119h-237v57zM526 308v220l-187 -220h187z" />
    <glyph glyph-name="uni2464" unicode="&#x2464;" horiz-adv-x="956" 
d="M159 685q139 134 339 134t340 -134q138 -135 138 -329t-138 -328q-140 -135 -340 -135q-201 0 -339 135q-139 133 -139 328q0 194 139 329zM198 64q122 -119 300 -119t300 119t122 292t-122 292t-300 119t-300 -119t-122 -292t122 -292zM511 429q66 0 107.5 -44
t41.5 -111q0 -68 -45.5 -111t-115.5 -43q-66 0 -111 35.5t-53 95.5h56q7 -39 35.5 -62t72.5 -23q47 0 76.5 30.5t29.5 77.5q0 48 -29.5 78.5t-76.5 30.5q-35 0 -62 -16.5t-39 -43.5h-56l45 261h252v-49h-206l-26 -147q38 41 104 41z" />
    <glyph glyph-name="uni2465" unicode="&#x2465;" horiz-adv-x="956" 
d="M159 685q139 134 339 134t340 -134q138 -135 138 -329t-138 -328q-140 -135 -340 -135q-201 0 -339 135q-139 133 -139 328q0 194 139 329zM198 64q122 -119 300 -119t300 119t122 292t-122 292t-300 119t-300 -119t-122 -292t122 -292zM508 429q67 0 111 -44
q43 -44 43 -111q0 -69 -45 -111.5t-117 -42.5q-58 0 -102 32q-70 54 -70 195q0 119 44 183t132 64q62 0 102 -32t50 -87h-57q-18 72 -95 72q-120 0 -123 -189q41 71 127 71zM500 166q47 0 76.5 30.5t29.5 76.5t-29.5 77t-76.5 31q-45 0 -75 -31t-30 -77t29.5 -76.5
t75.5 -30.5z" />
    <glyph glyph-name="uni2466" unicode="&#x2466;" horiz-adv-x="956" 
d="M159 685q139 134 339 134t340 -134q138 -135 138 -329t-138 -328q-140 -135 -340 -135q-201 0 -339 135q-139 133 -139 328q0 194 139 329zM198 64q122 -119 300 -119t300 119t122 292t-122 292t-300 119t-300 -119t-122 -292t122 -292zM600 523h-247v49h305v-50
q-168 -158 -173 -405h-60q2 115 47.5 221.5t127.5 184.5z" />
    <glyph glyph-name="uni2467" unicode="&#x2467;" horiz-adv-x="956" 
d="M159 685q139 134 339 134t340 -134q138 -135 138 -329t-138 -328q-140 -135 -340 -135q-201 0 -339 135q-139 133 -139 328q0 194 139 329zM198 64q122 -119 300 -119t300 119t122 292t-122 292t-300 119t-300 -119t-122 -292t122 -292zM581 371q88 -31 88 -119
q0 -59 -45.5 -95.5t-125.5 -36.5q-79 0 -125 36.5t-46 95.5q0 88 88 119q-66 33 -66 102q0 54 40.5 87.5t108.5 33.5t108 -33.5t40 -87.5q0 -69 -65 -102zM568 529q-28 21 -70 21t-69 -21q-28 -22 -28 -59q0 -36 27 -59q26 -22 70 -22t70 22q27 23 27 59t-27 59zM414 191
q29 -26 84 -26q54 0 85 26q29 26 29 67q0 42 -30 67q-29 25 -84 25t-84 -25q-30 -25 -30 -67t30 -67z" />
    <glyph glyph-name="uni2468" unicode="&#x2468;" horiz-adv-x="956" 
d="M159 685q139 134 339 134t340 -134q138 -135 138 -329t-138 -328q-140 -135 -340 -135q-201 0 -339 135q-139 133 -139 328q0 194 139 329zM198 64q122 -119 300 -119t300 119t122 292t-122 292t-300 119t-300 -119t-122 -292t122 -292zM601 562q71 -56 71 -196
q0 -118 -43 -182t-128 -64q-65 0 -106 32t-51 87h57q18 -73 100 -73q115 0 118 191q-42 -72 -127 -72q-67 0 -111 44q-43 43 -43 110q0 69 46 112t116 43q60 0 101 -32zM500 333q45 0 75 31t30 77q0 45 -30 75.5t-75 30.5q-48 0 -77.5 -30t-29.5 -76t30 -77t77 -31z" />
    <glyph glyph-name="uni24EA" unicode="&#x24ea;" horiz-adv-x="956" 
d="M838 28q-140 -135 -340 -135q-201 0 -339 135q-139 133 -139 328q0 194 139 329q139 134 339 134t340 -134q138 -135 138 -329t-138 -328zM198 64q122 -119 300 -119t300 119t122 292t-122 292t-300 119t-300 -119t-122 -292t122 -292zM627 184q-43 -64 -129 -64t-129 64
q-44 64 -44 172q0 112 44.5 175t128.5 63t128.5 -63t44.5 -175q0 -108 -44 -172zM414 218q29 -50 84 -50q57 0 85 49t28 139q0 91 -28 140t-85 49q-56 0 -84 -49q-29 -50 -29 -140q0 -88 29 -138z" />
    <glyph glyph-name="uni24FF" unicode="&#x24ff;" horiz-adv-x="956" 
d="M740 -46q-109 -61 -242 -61t-242 61t-173 169q-63 107 -63 233q0 128 63 234t173 168q109 61 242 61t242 -61q110 -62 173 -168t63 -234q0 -126 -63 -233q-64 -108 -173 -169zM498 121q83 0 127.5 61.5t44.5 173.5q0 111 -44.5 173.5t-127.5 62.5t-127 -62
q-44 -64 -44 -174q0 -112 45 -173q44 -62 126 -62zM584 217q-29 -50 -86 -50t-86 50t-29 139q0 90 29 140t86 50q58 0 86 -49q29 -50 29 -141q0 -89 -29 -139z" />
    <glyph glyph-name="filledbox" unicode="&#x25a0;" horiz-adv-x="956" 
d="M952 -88h-908v888h908v-888z" />
    <glyph glyph-name="uni25A1" unicode="&#x25a1;" horiz-adv-x="956" 
d="M952 -88h-908v888h908v-888zM100 749v-786h796v786h-796z" />
    <glyph glyph-name="lozenge" unicode="&#x25ca;" horiz-adv-x="564" 
d="M272 712h60l223 -356l-223 -356h-60l-224 356zM115 356l187 -300l187 300l-187 300z" />
    <glyph glyph-name="circle" unicode="&#x25cb;" horiz-adv-x="956" 
d="M838 28q-140 -135 -340 -135q-201 0 -339 135q-139 133 -139 328q0 194 139 329q139 134 339 134t340 -134q138 -135 138 -329t-138 -328zM198 64q122 -119 300 -119t300 119t122 292t-122 292t-300 119t-300 -119t-122 -292t122 -292z" />
    <glyph glyph-name="uni25CF" unicode="&#x25cf;" horiz-adv-x="956" 
d="M740 -46q-109 -61 -242 -61t-242 61t-173 169q-63 107 -63 233q0 128 63 234t173 168q109 61 242 61t242 -61q110 -62 173 -168t63 -234q0 -126 -63 -233q-64 -108 -173 -169z" />
    <glyph glyph-name="uni2776" unicode="&#x2776;" horiz-adv-x="956" 
d="M740 -46q-109 -61 -242 -61t-242 61t-173 169q-63 107 -63 233q0 128 63 234t173 168q109 61 242 61t242 -61q110 -62 173 -168t63 -234q0 -126 -63 -233q-64 -108 -173 -169zM487 510v-376h53v452h-47q-32 -69 -125 -74v-39q82 3 119 37z" />
    <glyph glyph-name="uni2777" unicode="&#x2777;" horiz-adv-x="956" 
d="M740 -46q-109 -61 -242 -61t-242 61t-173 169q-63 107 -63 233q0 128 63 234t173 168q109 61 242 61t242 -61q110 -62 173 -168t63 -234q0 -126 -63 -233q-64 -108 -173 -169zM340 163l-1 -21h317v46h-258q5 75 98 119l41 19q113 51 113 146q0 56 -40 93.5t-110 37.5
q-74 0 -113 -38.5t-41 -101.5h53q1 43 27 68.5t72 25.5q47 0 73 -23.5t26 -63.5q0 -65 -83 -103l-36 -16q-135 -57 -138 -188z" />
    <glyph glyph-name="uni2778" unicode="&#x2778;" horiz-adv-x="956" 
d="M740 -46q-109 -61 -242 -61t-242 61t-173 169q-63 107 -63 233q0 128 63 234t173 168q109 61 242 61t242 -61q110 -62 173 -168t63 -234q0 -126 -63 -233q-64 -108 -173 -169zM499 121q75 0 119.5 36.5t44.5 98.5q0 44 -24.5 75t-67.5 42q36 11 56.5 38.5t20.5 63.5
q0 54 -40 85.5t-109 31.5t-109 -33t-42 -92h52q3 40 29 61t70 21t71 -21q27 -23 27 -59q0 -37 -27 -58q-26 -22 -74 -22h-28v-40h27q54 0 84 -23.5t30 -67.5q0 -43 -30 -68.5t-80 -25.5q-54 0 -84 26t-31 74h-53q1 -68 45.5 -105.5t122.5 -37.5z" />
    <glyph glyph-name="uni2779" unicode="&#x2779;" horiz-adv-x="956" 
d="M740 -46q-109 -61 -242 -61t-242 61t-173 169q-63 107 -63 233q0 128 63 234t173 168q109 61 242 61t242 -61q110 -62 173 -168t63 -234q0 -126 -63 -233q-64 -108 -173 -169zM532 260v-119h56v119h70v46h-70v286h-58l-234 -278v-54h236zM535 306h-191l191 226v-226z" />
    <glyph glyph-name="uni277A" unicode="&#x277a;" horiz-adv-x="956" 
d="M740 -46q-109 -61 -242 -61t-242 61t-173 169q-63 107 -63 233q0 128 63 234t173 168q109 61 242 61t242 -61q110 -62 173 -168t63 -234q0 -126 -63 -233q-64 -108 -173 -169zM499 121q70 0 114.5 42.5t44.5 110.5t-40.5 110.5t-105.5 42.5q-71 0 -107 -44l26 153h207v46
h-248l-46 -257h54q12 27 39 43.5t62 16.5q48 0 78 -31.5t30 -79.5t-30 -79t-78 -31q-43 0 -72 23t-37 62h-53q9 -58 53 -93t109 -35z" />
    <glyph glyph-name="uni277B" unicode="&#x277b;" horiz-adv-x="956" 
d="M740 -46q-109 -61 -242 -61t-242 61t-173 169q-63 107 -63 233q0 128 63 234t173 168q109 61 242 61t242 -61q110 -62 173 -168t63 -234q0 -126 -63 -233q-64 -108 -173 -169zM499 121q71 0 115.5 42.5t44.5 110.5q0 67 -43 110t-110 43q-43 0 -77 -23.5t-48 -61.5
q-2 16 -2 32q6 175 124 175q37 0 62.5 -19.5t33.5 -53.5h53q-11 54 -50.5 85t-98.5 31q-87 0 -131 -63t-44 -182q0 -139 69 -194q44 -32 102 -32zM577 195q-31 -31 -78 -31t-77 31t-30 78t31 78q30 31 76 31t77 -31t31 -78t-30 -78z" />
    <glyph glyph-name="uni277C" unicode="&#x277c;" horiz-adv-x="956" 
d="M740 -46q-109 -61 -242 -61t-242 61t-173 169q-63 107 -63 233q0 128 63 234t173 168q109 61 242 61t242 -61q110 -62 173 -168t63 -234q0 -126 -63 -233q-64 -108 -173 -169zM426 119h58q3 244 172 404v47h-302v-46h250q-82 -77 -128.5 -183t-49.5 -222z" />
    <glyph glyph-name="uni277D" unicode="&#x277d;" horiz-adv-x="956" 
d="M740 -46q-109 -61 -242 -61t-242 61t-173 169q-63 107 -63 233q0 128 63 234t173 168q109 61 242 61t242 -61q110 -62 173 -168t63 -234q0 -126 -63 -233q-64 -108 -173 -169zM498 121q78 0 123.5 35.5t45.5 95.5q0 88 -94 119q72 30 72 102q0 54 -40 86.5t-107 32.5
t-107 -32.5t-40 -86.5q0 -73 72 -102q-94 -31 -94 -119q0 -60 45.5 -95.5t123.5 -35.5zM498 387q-43 0 -70.5 23t-27.5 60q0 38 27.5 60t70.5 22q44 0 71.5 -22.5t27.5 -59.5t-27.5 -60t-71.5 -23zM584 189q-32 -26 -86 -26t-85 26q-31 25 -31 68q0 44 31 69q31 26 85 26
t86 -26q30 -26 30 -69t-30 -68z" />
    <glyph glyph-name="uni277E" unicode="&#x277e;" horiz-adv-x="956" 
d="M740 -46q-109 -61 -242 -61t-242 61t-173 169q-63 107 -63 233q0 128 63 234t173 168q109 61 242 61t242 -61q110 -62 173 -168t63 -234q0 -126 -63 -233q-64 -108 -173 -169zM497 121q86 0 130 63.5t44 181.5q0 140 -70 194q-41 32 -101 32q-71 0 -115.5 -42.5
t-44.5 -110.5q0 -66 43 -109q44 -44 109 -44q42 0 75.5 22t46.5 58l3 7q3 -13 3 -32q-6 -177 -123 -177q-79 0 -98 73h-53q11 -54 51 -85t100 -31zM500 331q-48 0 -78.5 31t-30.5 79q0 47 30.5 77.5t78.5 30.5q46 0 76 -30.5t30 -77.5q0 -48 -30 -79t-76 -31z" />
    <glyph glyph-name="uni2E18" unicode="&#x2e18;" horiz-adv-x="497" 
d="M266 586h79l-17 -78h-79zM358 82h58q-50 -224 -266 -224q-104 0 -153 50.5t-28 142.5q16 79 131 158q81 56 109 98q22 33 35 96h56q-3 -21 -7 -29l-53 -270l-20 -93h-61l20 93l27 123q-30 -27 -55 -44q-33 -24 -56 -41q-17 -14 -39 -41q-22 -26 -28 -55q-15 -64 17 -99
t109 -35q80 0 130.5 40t73.5 130z" />
    <glyph glyph-name="uniF8FF" unicode="&#xf8ff;" horiz-adv-x="721" 
d="M229 622h-1l-27 -129h-25l67 316h25l-26 -124q33 43 82 43q83 0 64 -94l-31 -141h-24l30 143q13 69 -45 69q-31 0 -55.5 -22t-33.5 -61zM693 809l-67 -316h-25l67 316h25zM484 490q-48 0 -71 34.5t-10 91.5q10 51 44 82.5t79 31.5q49 0 71.5 -34.5t9.5 -85.5q0 -1 -2 -9
h-179q-7 -43 9 -65.5t51 -22.5q58 0 82 55h26q-28 -78 -110 -78zM523 707q-33 0 -57.5 -22t-34.5 -61h152q6 37 -10 60t-50 23zM650 364l-3 -9h-179q-6 -43 10 -66t51 -23q58 0 81 56h27q-30 -79 -111 -79q-48 0 -71 35t-10 92q11 50 45 81.5t78 31.5q50 0 72 -33.5
t10 -85.5zM480 477l-141 -229h-27l-43 229h27l20 -114q8 -43 14 -89l52 90l70 113h28zM565 460q-33 0 -57.5 -22t-34.5 -61h152q7 37 -9 60t-51 23zM262 264h-27l9 42h27zM149 206l-32 -152q-7 -34 25 -34q16 0 21 1l-5 -21q-4 0 -9 -0.5t-8 -1t-4 -0.5q-57 0 -46 57l32 151
h-39l6 22h38l14 65h25l-14 -65h54l-5 -22h-53zM334 17q59 0 80 61h26q-12 -39 -41.5 -61.5t-68.5 -22.5q-48 0 -70 35t-10 95q10 49 43.5 79.5t78.5 30.5q39 0 61.5 -22t21.5 -58h-26q-1 27 -17.5 42.5t-42.5 15.5q-33 0 -58.5 -25t-35.5 -69q-10 -48 6 -74.5t53 -26.5z
M586 234q42 0 61 -20.5t11 -54.5l-24 -117q-6 -26 -2 -42h-24q-4 9 1 37q-29 -42 -85 -42q-38 0 -58.5 20t-11.5 53q12 49 89 60l43 6q44 5 50 31q4 22 -9.5 35t-43.5 13q-34 0 -51.5 -12t-23.5 -41h-25q15 74 103 74zM180 0l49 229h25l-49 -229h-25zM528 17q70 0 91 70
l9 42q-13 -10 -44 -15l-41 -6q-57 -8 -64 -42q-5 -23 8.5 -36t40.5 -13z" />
    <glyph glyph-name="uniFEFF" unicode="&#xfeff;" 
 />
    <glyph glyph-name="null" 
 />
    <glyph glyph-name="Adieresis.ss01" horiz-adv-x="671" 
d="M352 757q-28 0 -38.5 26t9.5 46q19 20 45.5 9.5t26.5 -39.5q0 -17 -12.5 -29.5t-30.5 -12.5zM554 770q-20 -20 -46.5 -9.5t-26.5 38.5q0 17 12.5 30t30.5 13q17 0 29.5 -12.5t12.5 -30.5q0 -17 -12 -29zM599 0h-61l-42 215h-344l-133 -215h-64l438 712h67zM260 390
l-75 -122h301l-24 123q-11 56 -47 257q-56 -97 -83 -140q-41 -67 -72 -118z" />
    <glyph glyph-name="Cdotaccent.ss01" horiz-adv-x="694" 
d="M506 786q-20 -20 -46 -9.5t-26 38.5q0 18 12 30.5t30 12.5q17 0 29.5 -12.5t12.5 -30.5q0 -17 -12 -29zM310 -16q-152 0 -219 105q-68 104 -29 289q31 154 140 252q107 98 247 98q116 0 183.5 -66.5t67.5 -185.5h-60q-1 96 -53 147t-143 51q-117 0 -205 -84
q-89 -84 -117 -219q-35 -155 18 -244t174 -89q98 0 175.5 59t110.5 163h60q-41 -131 -135 -203q-94 -73 -215 -73z" />
    <glyph glyph-name="Edieresis.ss01" horiz-adv-x="575" 
d="M317 757q-28 0 -38.5 26t9.5 46q19 20 45.5 9.5t26.5 -39.5q0 -17 -12.5 -29.5t-30.5 -12.5zM519 770q-19 -20 -46 -9.5t-27 38.5q0 17 12.5 30t30.5 13q17 0 29.5 -12.5t12.5 -30.5q0 -17 -12 -29zM642 712l-12 -54h-421l-55 -259h381l-12 -54h-380l-62 -291h421
l-12 -54h-480l152 712h480z" />
    <glyph glyph-name="Edotaccent.ss01" horiz-adv-x="575" 
d="M439 770q-19 -20 -45.5 -9.5t-26.5 38.5q0 18 12 30.5t30 12.5q17 0 29.5 -12.5t12.5 -30.5q0 -17 -12 -29zM642 712l-12 -54h-421l-55 -259h381l-12 -54h-380l-62 -291h421l-12 -54h-480l152 712h480z" />
    <glyph glyph-name="uni0122.ss01" horiz-adv-x="736" 
d="M719 479h-61q3 87 -56 141t-157 54q-120 0 -207 -84q-86 -83 -115 -218q-33 -155 25 -244q57 -90 183 -90q113 0 197 75q85 76 110 192h-243l11 54h297l-76 -359h-50l17 124q-101 -140 -268 -140q-154 0 -228 108q-75 106 -36 288q33 153 138 250q104 98 251 98
q127 0 200 -69q72 -69 68 -180zM323 -54q43 0 43 -51q0 -43 -29.5 -79t-76.5 -47l7 33q47 17 60 68h-5q-18 0 -29.5 9.5t-11.5 26.5t11.5 28.5t30.5 11.5z" />
    <glyph glyph-name="Gdotaccent.ss01" horiz-adv-x="736" 
d="M506 786q-20 -20 -46 -9.5t-26 38.5q0 18 12 30.5t30 12.5q17 0 29.5 -12.5t12.5 -30.5q0 -17 -12 -29zM719 479h-61q3 87 -56 141t-157 54q-120 0 -207 -84q-86 -83 -115 -218q-33 -155 25 -244q57 -90 183 -90q113 0 197 75q85 76 110 192h-243l11 54h297l-76 -359h-50
l17 124q-101 -140 -268 -140q-154 0 -228 108q-75 106 -36 288q33 153 138 250q104 98 251 98q127 0 200 -69q72 -69 68 -180z" />
    <glyph glyph-name="Idieresis.ss01" horiz-adv-x="189" 
d="M127 757q-28 0 -38.5 26t9.5 46q19 20 45.5 9.5t26.5 -39.5q0 -17 -12.5 -29.5t-30.5 -12.5zM302 770q-20 -20 -46.5 -9.5t-26.5 38.5q0 17 12.5 30t30.5 13q17 0 29.5 -12.5t12.5 -30.5q0 -17 -12 -29zM69 0h-59l152 712h59z" />
    <glyph glyph-name="Idotaccent.ss01" horiz-adv-x="189" 
d="M240 770q-20 -20 -46.5 -9.5t-26.5 38.5q0 17 12.5 30t30.5 13q17 0 29.5 -12.5t12.5 -30.5q0 -17 -12 -29zM69 0h-59l152 712h59z" />
    <glyph glyph-name="uni0136.ss01" horiz-adv-x="642" 
d="M641 712h82l-377 -297l229 -415h-65l-212 378l-178 -140l-50 -238h-59l151 712h59l-85 -400zM270 -39q43 0 43 -51q0 -43 -29.5 -79t-76.5 -47l7 33q47 17 60 68h-5q-18 0 -29.5 9.5t-11.5 26.5t11.5 28.5t30.5 11.5z" />
    <glyph glyph-name="uni013B.ss01" horiz-adv-x="512" 
d="M221 712l-140 -658h366l-11 -54h-426l152 712h59zM215 -39q43 0 43 -51q0 -43 -29.5 -79t-76.5 -47l7 33q47 17 60 68h-5q-18 0 -29.5 9.5t-11.5 26.5t11.5 28.5t30.5 11.5z" />
    <glyph glyph-name="Ldot.ss01" horiz-adv-x="512" 
d="M221 712l-140 -658h366l-11 -54h-426l152 712h59zM398 323q-28 -3 -40 21t0 48t40 21q18 0 31 -12.5t13 -31.5t-13 -32.5t-31 -13.5z" />
    <glyph glyph-name="uni0145.ss01" horiz-adv-x="681" 
d="M560 331l81 381h59l-152 -712h-71l-207 452q-58 132 -79 192q-32 -163 -54 -260l-81 -384h-59l152 712h70l208 -452q56 -127 79 -192q17 86 54 263zM256 -39q43 0 43 -51q0 -43 -29.5 -79t-76.5 -47l7 33q47 17 60 68h-5q-18 0 -29.5 9.5t-11.5 26.5t11.5 28.5t30.5 11.5
z" />
    <glyph glyph-name="Odieresis.ss01" horiz-adv-x="740" 
d="M396 773q-28 0 -38.5 26t9.5 46q19 20 45.5 9.5t26.5 -39.5q0 -17 -12.5 -29.5t-30.5 -12.5zM598 786q-20 -20 -46.5 -9.5t-26.5 38.5q0 17 12.5 30t30.5 13q17 0 29.5 -12.5t12.5 -30.5q0 -17 -12 -29zM322 -16q-154 0 -226 107t-35 283q33 153 143 254q109 100 256 100
q152 0 226 -105q72 -107 35 -279q-33 -158 -143 -259t-256 -101zM326 38q122 0 214 87q91 85 121 224q31 149 -24 237q-57 88 -183 88q-123 0 -212 -85q-91 -85 -120 -223q-32 -152 23 -239q56 -89 181 -89z" />
    <glyph glyph-name="uni0156.ss01" horiz-adv-x="632" 
d="M162 712h274q116 0 172 -54.5t35 -155.5q-13 -62 -60.5 -104t-117.5 -55q63 -9 85 -45.5t11 -108.5l-17 -103q-9 -52 8 -86h-62q-15 28 -4 90l17 101q11 66 -16.5 96t-102.5 30h-247l-67 -317h-59zM583 503q17 78 -23 116.5t-129 38.5h-221l-62 -288h242q76 0 127.5 35
t65.5 98zM266 -39q43 0 43 -51q0 -43 -29.5 -79t-76.5 -47l7 33q47 17 60 68h-5q-18 0 -29.5 9.5t-11.5 26.5t11.5 28.5t30.5 11.5z" />
    <glyph glyph-name="uni0218.ss01" horiz-adv-x="608" 
d="M608 518h-60q12 76 -30.5 116t-143.5 40q-84 0 -137 -32.5t-64 -89.5q-13 -64 19.5 -99.5t124.5 -56.5l66 -14q107 -24 149 -77t23 -144q-18 -83 -90.5 -130t-190.5 -47q-135 0 -201.5 60t-53.5 174h61q-11 -91 39.5 -135.5t161.5 -44.5q93 0 147 34.5t66 95.5
q14 69 -19 105.5t-129 57.5l-68 15q-198 45 -165 211q17 80 87.5 125.5t178.5 45.5q134 0 188 -59q55 -59 41 -151zM258 -54q43 0 43 -51q0 -43 -29.5 -79t-76.5 -47l7 33q47 17 60 68h-5q-18 0 -29.5 9.5t-11.5 26.5t11.5 28.5t30.5 11.5z" />
    <glyph glyph-name="uni021A.ss01" horiz-adv-x="609" 
d="M119 712h566l-12 -54h-252l-140 -658h-62l141 658h-252zM234 -39q43 0 43 -51q0 -43 -29.5 -79t-76.5 -47l7 33q47 17 60 68h-5q-18 0 -29.5 9.5t-11.5 26.5t11.5 28.5t30.5 11.5z" />
    <glyph glyph-name="Udieresis.ss01" horiz-adv-x="653" 
d="M340 757q-28 0 -38.5 26t9.5 46q19 20 45.5 9.5t26.5 -39.5q0 -17 -12.5 -29.5t-30.5 -12.5zM542 770q-20 -20 -46.5 -9.5t-26.5 38.5q0 17 12.5 30t30.5 13q17 0 29.5 -12.5t12.5 -30.5q0 -17 -12 -29zM289 -15q-139 0 -200 80t-28 232l90 415h60l-92 -426
q-26 -124 20 -186t154 -62q200 0 247 221l95 453h59l-97 -465q-55 -262 -308 -262z" />
    <glyph glyph-name="Wdieresis.ss01" horiz-adv-x="961" 
d="M502 757q-28 0 -38.5 26t9.5 46q19 20 45.5 9.5t26.5 -39.5q0 -17 -12.5 -29.5t-30.5 -12.5zM704 770q-20 -20 -46.5 -9.5t-26.5 38.5q0 17 12.5 30t30.5 13q17 0 29.5 -12.5t12.5 -30.5q0 -17 -12 -29zM760 283l221 429h63l-366 -712h-67l-38 448q-11 178 -12 192
q-28 -60 -92 -191l-229 -449h-67l-64 712h60l39 -429q13 -209 13 -211q61 129 104 213l217 427h67l35 -427q6 -92 13 -213q65 137 103 211z" />
    <glyph glyph-name="Ydieresis.ss01" horiz-adv-x="637" 
d="M344 757q-28 0 -38.5 26t9.5 46q19 20 45.5 9.5t26.5 -39.5q0 -17 -12.5 -29.5t-30.5 -12.5zM546 770q-20 -20 -46.5 -9.5t-26.5 38.5q0 17 12.5 30t30.5 13q17 0 29.5 -12.5t12.5 -30.5q0 -17 -12 -29zM491 532l158 180h71l-363 -413l-64 -299h-59l64 299l-189 413h65
l82 -181q34 -77 77 -183q72 85 158 184z" />
    <glyph glyph-name="Zdotaccent.ss01" horiz-adv-x="589" 
d="M443 770q-19 -20 -45.5 -9.5t-26.5 38.5q0 18 12 30.5t30 12.5q17 0 29.5 -12.5t12.5 -30.5q0 -17 -12 -29zM653 712l-11 -54l-428 -442q-8 -9 -79 -82q-36 -37 -81 -82q90 2 205 2h260l-12 -54h-536l12 54l427 442q124 128 160 164q-92 -2 -206 -2h-234l12 54h511z" />
    <glyph glyph-name="G.ss03" horiz-adv-x="732" 
d="M729 479h-59q2 88 -56.5 141.5t-159.5 53.5q-117 0 -210 -84t-123 -226q-31 -148 25 -238q55 -88 183 -88q119 0 202 71.5t118 203.5h-265l11 54h325l-3 -6v-12q-32 -169 -135 -266q-104 -99 -257 -99q-155 0 -228 106q-74 106 -37 277q33 160 143 261q109 100 257 100
q127 0 200 -68q70 -69 69 -181z" />
    <glyph glyph-name="uni01F4.ss03" horiz-adv-x="732" 
d="M556 915h79l-145 -144h-55zM729 479h-59q2 88 -56.5 141.5t-159.5 53.5q-117 0 -210 -84t-123 -226q-31 -148 25 -238q55 -88 183 -88q119 0 202 71.5t118 203.5h-265l11 54h325l-3 -6v-12q-32 -169 -135 -266q-104 -99 -257 -99q-155 0 -228 106q-74 106 -37 277
q33 160 143 261q109 100 257 100q127 0 200 -68q70 -69 69 -181z" />
    <glyph glyph-name="Gbreve.ss03" horiz-adv-x="732" 
d="M479 767q-66 0 -101.5 38t-27.5 99h49q-3 -42 20 -66.5t66 -24.5q39 0 68 24.5t42 66.5h49q-15 -65 -59.5 -101t-105.5 -36zM729 479h-59q2 88 -56.5 141.5t-159.5 53.5q-117 0 -210 -84t-123 -226q-31 -148 25 -238q55 -88 183 -88q119 0 202 71.5t118 203.5h-265l11 54
h325l-3 -6v-12q-32 -169 -135 -266q-104 -99 -257 -99q-155 0 -228 106q-74 106 -37 277q33 160 143 261q109 100 257 100q127 0 200 -68q70 -69 69 -181z" />
    <glyph glyph-name="Gcircumflex.ss03" horiz-adv-x="732" 
d="M577 771l-79 110l-126 -110h-59l146 144h85l87 -144h-54zM729 479h-59q2 88 -56.5 141.5t-159.5 53.5q-117 0 -210 -84t-123 -226q-31 -148 25 -238q55 -88 183 -88q119 0 202 71.5t118 203.5h-265l11 54h325l-3 -6v-12q-32 -169 -135 -266q-104 -99 -257 -99
q-155 0 -228 106q-74 106 -37 277q33 160 143 261q109 100 257 100q127 0 200 -68q70 -69 69 -181z" />
    <glyph glyph-name="uni0122.ss03" horiz-adv-x="732" 
d="M729 479h-59q2 88 -56.5 141.5t-159.5 53.5q-117 0 -210 -84t-123 -226q-31 -148 25 -238q55 -88 183 -88q119 0 202 71.5t118 203.5h-265l11 54h325l-3 -6v-12q-32 -169 -135 -266q-104 -99 -257 -99q-155 0 -228 106q-74 106 -37 277q33 160 143 261q109 100 257 100
q127 0 200 -68q70 -69 69 -181zM304 -127h-41l14 68h76l-18 -87q-8 -39 -28 -58.5t-56 -24.5l-13 -2l7 32l10 1q35 8 44 50z" />
    <glyph glyph-name="Gdotaccent.ss03" horiz-adv-x="732" 
d="M461 865h60l-19 -94h-60zM729 479h-59q2 88 -56.5 141.5t-159.5 53.5q-117 0 -210 -84t-123 -226q-31 -148 25 -238q55 -88 183 -88q119 0 202 71.5t118 203.5h-265l11 54h325l-3 -6v-12q-32 -169 -135 -266q-104 -99 -257 -99q-155 0 -228 106q-74 106 -37 277
q33 160 143 261q109 100 257 100q127 0 200 -68q70 -69 69 -181z" />
    <glyph glyph-name="uni0122.ss01.ss03" horiz-adv-x="732" 
d="M729 479h-59q2 88 -56.5 141.5t-159.5 53.5q-117 0 -210 -84t-123 -226q-31 -148 25 -238q55 -88 183 -88q119 0 202 71.5t118 203.5h-265l11 54h325l-3 -6v-12q-32 -169 -135 -266q-104 -99 -257 -99q-155 0 -228 106q-74 106 -37 277q33 160 143 261q109 100 257 100
q127 0 200 -68q70 -69 69 -181zM306 -55q43 0 43 -51q0 -43 -29.5 -79t-76.5 -47l7 33q47 17 60 68h-5q-18 0 -29.5 9.5t-11.5 26.5t11.5 28.5t30.5 11.5z" />
    <glyph glyph-name="Gdotaccent.ss01.ss03" horiz-adv-x="732" 
d="M510 786q-20 -20 -46 -9.5t-26 38.5q0 18 12 30.5t30 12.5q17 0 29.5 -12.5t12.5 -30.5q0 -17 -12 -29zM729 479h-59q2 88 -56.5 141.5t-159.5 53.5q-117 0 -210 -84t-123 -226q-31 -148 25 -238q55 -88 183 -88q119 0 202 71.5t118 203.5h-265l11 54h325l-3 -6v-12
q-32 -169 -135 -266q-104 -99 -257 -99q-155 0 -228 106q-74 106 -37 277q33 160 143 261q109 100 257 100q127 0 200 -68q70 -69 69 -181z" />
    <glyph glyph-name="R.ss04" horiz-adv-x="621" 
d="M162 712h269q114 0 168 -59.5t32 -164.5q-16 -82 -78.5 -132.5t-157.5 -56.5l153 -299h-70l-151 298h-194l-63 -298h-59zM571 496q18 78 -20.5 120t-126.5 42h-214l-65 -306h232q78 0 128.5 38t65.5 106z" />
    <glyph glyph-name="Racute.ss04" horiz-adv-x="621" 
d="M489 899h79l-145 -144h-55zM162 712h269q114 0 168 -59.5t32 -164.5q-16 -82 -78.5 -132.5t-157.5 -56.5l153 -299h-70l-151 298h-194l-63 -298h-59zM571 496q18 78 -20.5 120t-126.5 42h-214l-65 -306h232q78 0 128.5 38t65.5 106z" />
    <glyph glyph-name="Rcaron.ss04" horiz-adv-x="621" 
d="M595 899l-146 -144h-85l-87 144h54l79 -110l126 110h59zM162 712h269q114 0 168 -59.5t32 -164.5q-16 -82 -78.5 -132.5t-157.5 -56.5l153 -299h-70l-151 298h-194l-63 -298h-59zM571 496q18 78 -20.5 120t-126.5 42h-214l-65 -306h232q78 0 128.5 38t65.5 106z" />
    <glyph glyph-name="uni0156.ss04" horiz-adv-x="621" 
d="M162 712h269q114 0 168 -59.5t32 -164.5q-16 -82 -78.5 -132.5t-157.5 -56.5l153 -299h-70l-151 298h-194l-63 -298h-59zM571 496q18 78 -20.5 120t-126.5 42h-214l-65 -306h232q78 0 128.5 38t65.5 106zM264 -111h-41l14 68h76l-18 -87q-8 -39 -28 -58.5t-56 -24.5
l-13 -2l7 32l10 1q35 8 44 50z" />
    <glyph glyph-name="uni0156.ss01.ss04" horiz-adv-x="621" 
d="M162 712h269q114 0 168 -59.5t32 -164.5q-16 -82 -78.5 -132.5t-157.5 -56.5l153 -299h-70l-151 298h-194l-63 -298h-59zM571 496q18 78 -20.5 120t-126.5 42h-214l-65 -306h232q78 0 128.5 38t65.5 106zM266 -39q43 0 43 -51q0 -43 -29.5 -79t-76.5 -47l7 33
q47 17 60 68h-5q-18 0 -29.5 9.5t-11.5 26.5t11.5 28.5t30.5 11.5z" />
    <glyph glyph-name="i.loclTRK" horiz-adv-x="176" 
d="M190 594h-60l19 94h60zM62 0h-57l110 516h57z" />
    <glyph glyph-name="adieresis.ss01" horiz-adv-x="511" 
d="M241 596q-28 0 -38.5 26t9.5 46q19 20 45 9t26 -39q0 -17 -12 -29.5t-30 -12.5zM412 596q-28 0 -38.5 26t9.5 46q19 20 45.5 9.5t26.5 -39.5q0 -17 -12.5 -29.5t-30.5 -12.5zM470 358l-55 -258q-10 -55 29 -55q2 0 11 0.5t12 0.5l-9 -46q-16 -3 -37 -3q-36 0 -53 22
t-10 63q-67 -94 -192 -94q-87 0 -128.5 46t-24.5 124q26 114 209 133l84 10q55 7 80 22.5t33 47.5q10 51 -19 79.5t-100 28.5q-73 0 -111.5 -27.5t-54.5 -90.5h-56q22 87 75 127t152 40t141 -44t24 -126zM176 37q74 0 130.5 41t74.5 117l20 94q-26 -22 -93 -31l-83 -10
q-137 -18 -155 -101q-11 -52 16 -81t90 -29z" />
    <glyph glyph-name="cdotaccent.ss01" horiz-adv-x="513" 
d="M371 609q-19 -20 -46 -9.5t-27 38.5q0 17 12.5 30t30.5 13q17 0 29.5 -12.5t12.5 -30.5q0 -17 -12 -29zM223 -12q-107 0 -158 78q-53 77 -24 214q24 110 98 180q74 68 178 68q88 0 137.5 -49.5t47.5 -132.5h-59q-1 61 -37 96t-97 35q-76 0 -133 -56t-78 -153
q-23 -110 13 -169.5t119 -59.5q62 0 110 36.5t71 101.5h58q-27 -87 -93 -138t-153 -51z" />
    <glyph glyph-name="edieresis.ss01" horiz-adv-x="536" 
d="M251 596q-28 0 -38.5 26t9.5 46q19 20 45 9t26 -39q0 -17 -12 -29.5t-30 -12.5zM422 596q-28 0 -38.5 26t9.5 46q19 20 45.5 9.5t26.5 -39.5q0 -17 -12.5 -29.5t-30.5 -12.5zM317 528q111 0 161 -77q49 -76 22 -192l-6 -20h-402q-15 -95 21 -147t115 -52q130 0 183 125
h59q-33 -86 -96 -131.5t-152 -45.5q-109 0 -159 77q-51 77 -24 207q24 112 100 184q77 72 178 72zM310 476q-73 0 -128.5 -49.5t-79.5 -136.5h344q14 83 -22 134.5t-114 51.5z" />
    <glyph glyph-name="edotaccent.ss01" horiz-adv-x="536" 
d="M371 609q-19 -20 -46 -9.5t-27 38.5q0 17 12.5 30t30.5 13q17 0 29.5 -12.5t12.5 -30.5q0 -17 -12 -29zM317 528q111 0 161 -77q49 -76 22 -192l-6 -20h-402q-15 -95 21 -147t115 -52q130 0 183 125h59q-33 -86 -96 -131.5t-152 -45.5q-109 0 -159 77q-51 77 -24 207
q24 112 100 184q77 72 178 72zM310 476q-73 0 -128.5 -49.5t-79.5 -136.5h344q14 83 -22 134.5t-114 51.5z" />
    <glyph glyph-name="uni0123.ss01" horiz-adv-x="563" 
d="M349 596q-43 0 -43 51q0 43 29 79t77 47l-8 -33q-46 -16 -59 -67h5q16 0 28 -10t12 -27t-11.5 -28.5t-29.5 -11.5zM484 423l21 93h54l-106 -496q-25 -116 -87.5 -172t-175.5 -56q-94 0 -142.5 43.5t-43.5 117.5h56q-2 -55 32.5 -84t103.5 -29q84 0 132 43.5t68 136.5
l12 56q-73 -88 -183 -88q-109 0 -161 81t-24 207q26 118 100.5 185t177.5 67q60 0 103 -27.5t63 -77.5zM233 39q82 0 141.5 59t79.5 160q22 102 -15.5 160.5t-121.5 58.5q-82 0 -139.5 -56t-77.5 -153q-22 -105 14 -167t119 -62z" />
    <glyph glyph-name="gdotaccent.ss01" horiz-adv-x="563" 
d="M381 609q-19 -20 -46 -9.5t-27 38.5q0 17 12.5 30t30.5 13q17 0 29.5 -12.5t12.5 -30.5q0 -17 -12 -29zM484 423l21 93h54l-106 -496q-25 -116 -87.5 -172t-175.5 -56q-94 0 -142.5 43.5t-43.5 117.5h56q-2 -55 32.5 -84t103.5 -29q84 0 132 43.5t68 136.5l12 56
q-73 -88 -183 -88q-109 0 -161 81t-24 207q26 118 100.5 185t177.5 67q60 0 103 -27.5t63 -77.5zM233 39q82 0 141.5 59t79.5 160q22 102 -15.5 160.5t-121.5 58.5q-82 0 -139.5 -56t-77.5 -153q-22 -105 14 -167t119 -62z" />
    <glyph glyph-name="i.ss01" horiz-adv-x="176" 
d="M169 596q-28 0 -38.5 26t9.5 46q19 20 45.5 9.5t26.5 -39.5q0 -17 -12.5 -29.5t-30.5 -12.5zM62 0h-57l110 516h57z" />
    <glyph glyph-name="idieresis.ss01" horiz-adv-x="176" 
d="M97 596q-28 0 -38.5 26t9.5 46q19 20 45 9t26 -39q0 -17 -12 -29.5t-30 -12.5zM241 596q-28 0 -38.5 26t9.5 46q19 20 45.5 9.5t26.5 -39.5q0 -17 -12.5 -29.5t-30.5 -12.5zM62 0h-57l110 516h57z" />
    <glyph glyph-name="i.loclTRK.ss01" horiz-adv-x="176" 
d="M169 596q-28 0 -38.5 26t9.5 46q19 20 45.5 9.5t26.5 -39.5q0 -17 -12.5 -29.5t-30.5 -12.5zM62 0h-57l110 516h57z" />
    <glyph glyph-name="ij.ss01" horiz-adv-x="355" 
d="M169 596q-28 0 -38.5 26t9.5 46q19 20 45.5 9.5t26.5 -39.5q0 -17 -12.5 -29.5t-30.5 -12.5zM345 596q-28 0 -38.5 26t9.5 46q19 20 45.5 9.5t26.5 -39.5q0 -17 -12.5 -29.5t-30.5 -12.5zM62 0h-57l110 516h57zM94 -199q-41 0 -51 1l11 49h40q56 0 70 71l127 594h57
l-128 -600q-25 -115 -126 -115z" />
    <glyph glyph-name="iogonek.ss01" horiz-adv-x="176" 
d="M140 668q19 20 45.5 9.5t26.5 -39.5q0 -17 -12.5 -29.5t-30.5 -12.5q-28 0 -38.5 26t9.5 46zM18 0h-13l110 516h57l-110 -516q-70 -54 -82 -111q-10 -51 34 -51q19 0 38 8l-9 -44q-19 -10 -46 -10q-37 0 -55.5 25t-9.5 66q15 61 86 117z" />
    <glyph glyph-name="j.ss01" horiz-adv-x="179" 
d="M169 596q-28 0 -38.5 26t9.5 46q19 20 45.5 9.5t26.5 -39.5q0 -17 -12.5 -29.5t-30.5 -12.5zM-82 -199q-41 0 -51 1l11 49h40q56 0 70 71l127 594h57l-128 -600q-25 -115 -126 -115z" />
    <glyph glyph-name="uni0137.ss01" horiz-adv-x="494" 
d="M448 516h77l-245 -192l150 -324h-59l-134 291l-135 -104l-40 -187h-57l152 712h57l-97 -452zM190 -39q43 0 43 -51q0 -43 -29.5 -79t-76.5 -47l7 33q47 17 60 68h-5q-18 0 -29.5 9.5t-11.5 26.5t11.5 28.5t30.5 11.5z" />
    <glyph glyph-name="uni013C.ss01" horiz-adv-x="177" 
d="M6 0l151 712h57l-151 -712h-57zM18 -39q43 0 43 -51q0 -43 -29.5 -79t-76.5 -47l7 33q47 17 60 68h-5q-18 0 -29.5 9.5t-11.5 26.5t11.5 28.5t30.5 11.5z" />
    <glyph glyph-name="ldot.ss01" horiz-adv-x="355" 
d="M63 0h-57l151 712h57zM287 309q-20 0 -33 13t-13 33q0 19 13 31t33 12q18 0 31.5 -12.5t13.5 -30.5q0 -20 -13.5 -33t-31.5 -13z" />
    <glyph glyph-name="napostrophe.ss01" horiz-adv-x="653" 
d="M219 658q0 -51 -34 -97q-36 -48 -92 -58l8 39q62 20 73 89h-2q-18 0 -30.5 11t-12.5 29t12 30t32 12q46 0 46 -55zM463 528q89 0 127.5 -54t15.5 -157l-68 -317h-56l67 321q33 156 -99 156q-72 0 -127.5 -49t-75.5 -139l-61 -289h-57l110 516h54l-19 -88q34 47 84 73.5
t105 26.5z" />
    <glyph glyph-name="uni0146.ss01" horiz-adv-x="529" 
d="M339 528q89 0 127.5 -54t15.5 -157l-68 -317h-56l67 321q33 156 -99 156q-72 0 -127.5 -49t-75.5 -139l-61 -289h-57l110 516h54l-19 -88q75 100 189 100zM198 -39q43 0 43 -51q0 -43 -29.5 -79t-76.5 -47l7 33q47 17 60 68h-5q-18 0 -29.5 9.5t-11.5 26.5t11.5 28.5
t30.5 11.5z" />
    <glyph glyph-name="odieresis.ss01" horiz-adv-x="555" 
d="M264 596q-28 0 -38.5 26t9.5 46q19 20 45 9t26 -39q0 -17 -12 -29.5t-30 -12.5zM435 596q-28 0 -38.5 26t9.5 46q19 20 45.5 9.5t26.5 -39.5q0 -17 -12.5 -29.5t-30.5 -12.5zM234 -12q-117 0 -169.5 76t-24.5 207q22 111 102 185q80 72 180 72q116 0 168.5 -76t24.5 -207
q-22 -112 -102 -184q-79 -73 -179 -73zM235 39q79 0 141 59q62 58 81 153q23 105 -13.5 165.5t-122.5 60.5q-81 0 -142 -60q-62 -60 -81 -151q-23 -106 14 -166.5t123 -60.5z" />
    <glyph glyph-name="uni0157.ss01" horiz-adv-x="345" 
d="M349 523q22 0 29 -1l-11 -54h-25q-86 0 -143.5 -48t-74.5 -133l-62 -287h-56l109 516h54l-20 -98q75 105 200 105zM16 -39q43 0 43 -51q0 -43 -29.5 -79t-76.5 -47l7 33q47 17 60 68h-5q-18 0 -29.5 9.5t-11.5 26.5t11.5 28.5t30.5 11.5z" />
    <glyph glyph-name="uni0219.ss01" horiz-adv-x="467" 
d="M450 368h-56q6 57 -23.5 84t-101.5 27q-59 0 -97 -22.5t-46 -61.5q-9 -44 15.5 -68.5t87.5 -36.5l47 -8q86 -17 117.5 -56t15.5 -111q-13 -59 -66.5 -93t-144.5 -34q-106 0 -154.5 44.5t-38.5 127.5h56q-6 -62 28.5 -92.5t114.5 -30.5q130 0 150 87q10 48 -13.5 72.5
t-90.5 36.5l-46 8q-162 30 -133 161q12 59 66.5 92.5t136.5 33.5q96 0 139 -40.5t37 -119.5zM181 -50q43 0 43 -51q0 -43 -29.5 -79t-76.5 -47l7 33q47 17 60 68h-5q-18 0 -29.5 9.5t-11.5 26.5t11.5 28.5t30.5 11.5z" />
    <glyph glyph-name="uni021B.ss01" horiz-adv-x="300" 
d="M322 466h-119l-73 -343q-16 -76 57 -76q36 0 46 1l-10 -48q-29 -3 -47 -3q-62 0 -89 33t-14 94l72 342h-87l11 50h87l31 146h57l-31 -146h120zM142 -39q43 0 43 -51q0 -43 -29.5 -79t-76.5 -47l7 33q47 17 60 68h-5q-18 0 -29.5 9.5t-11.5 26.5t11.5 28.5t30.5 11.5z" />
    <glyph glyph-name="udieresis.ss01" horiz-adv-x="529" 
d="M251 596q-28 0 -38.5 26t9.5 46q19 20 45 9t26 -39q0 -17 -12 -29.5t-30 -12.5zM422 596q-28 0 -38.5 26t9.5 46q19 20 45.5 9.5t26.5 -39.5q0 -17 -12.5 -29.5t-30.5 -12.5zM406 227l61 289h57l-110 -516h-54l19 88q-75 -100 -189 -100q-89 0 -127.5 54t-15.5 157
l68 317h56l-67 -321q-33 -156 99 -156q72 0 127.5 49t75.5 139z" />
    <glyph glyph-name="wdieresis.ss01" horiz-adv-x="788" 
d="M378 596q-28 0 -38.5 26t9.5 46q19 20 45 9t26 -39q0 -17 -12 -29.5t-30 -12.5zM549 596q-28 0 -38.5 26t9.5 46q19 20 45.5 9.5t26.5 -39.5q0 -17 -12.5 -29.5t-30.5 -12.5zM607 232l159 284h64l-292 -516h-60l-35 304q-1 8 -5 55t-8 90q-18 -37 -73 -145l-163 -304h-61
l-71 516h58l38 -284q1 -13 8 -77q4 -52 9 -91q50 102 86 168l152 284h60l31 -284q14 -162 15 -170q40 85 88 170z" />
    <glyph glyph-name="ydieresis.ss01" horiz-adv-x="477" 
d="M222 596q-28 0 -38.5 26t9.5 46q19 20 45 9t26 -39q0 -17 -12 -29.5t-30 -12.5zM393 596q-28 0 -38.5 26t9.5 46q19 20 45.5 9.5t26.5 -39.5q0 -17 -12.5 -29.5t-30.5 -12.5zM316 266l143 250h63l-344 -588q-40 -69 -78 -97t-98 -28q-25 0 -49 3l10 47h43q70 0 120 87
l27 45l-88 531h61l40 -250q1 -13 30 -214q8 14 29.5 52.5t32.5 59.5q14 25 33.5 58.5t24.5 43.5z" />
    <glyph glyph-name="zdotaccent.ss01" horiz-adv-x="478" 
d="M346 609q-20 -20 -46.5 -9.5t-26.5 38.5q0 17 12.5 30t30.5 13q17 0 29.5 -12.5t12.5 -30.5q0 -17 -12 -29zM476 472l-330 -339q-39 -40 -85 -85q48 2 108 2h232l-10 -50h-412l10 44l330 340q62 62 85 84q-48 -2 -108 -2h-207l11 50h385z" />
    <glyph glyph-name="a.ss02" horiz-adv-x="568" 
d="M485 415l21 101h57l-110 -516h-54l18 82q-78 -94 -193 -94q-109 0 -160 78q-51 76 -25 203q26 117 100 188t179 71q128 0 167 -113zM233 39q84 0 143.5 57t80.5 157q22 104 -16.5 164.5t-125.5 60.5q-79 0 -138 -59q-60 -60 -79 -155q-22 -105 14.5 -165t120.5 -60z" />
    <glyph glyph-name="aacute.ss02" horiz-adv-x="568" 
d="M416 738h74l-122 -144h-48zM485 415l21 101h57l-110 -516h-54l18 82q-78 -94 -193 -94q-109 0 -160 78q-51 76 -25 203q26 117 100 188t179 71q128 0 167 -113zM233 39q84 0 143.5 57t80.5 157q22 104 -16.5 164.5t-125.5 60.5q-79 0 -138 -59q-60 -60 -79 -155
q-22 -105 14.5 -165t120.5 -60z" />
    <glyph glyph-name="abreve.ss02" horiz-adv-x="568" 
d="M353 590q-66 0 -101.5 38t-27.5 99h49q-3 -43 20 -67t66 -24q39 0 68 24.5t42 66.5h49q-16 -65 -60 -101t-105 -36zM485 415l21 101h57l-110 -516h-54l18 82q-78 -94 -193 -94q-109 0 -160 78q-51 76 -25 203q26 117 100 188t179 71q128 0 167 -113zM233 39
q84 0 143.5 57t80.5 157q22 104 -16.5 164.5t-125.5 60.5q-79 0 -138 -59q-60 -60 -79 -155q-22 -105 14.5 -165t120.5 -60z" />
    <glyph glyph-name="acircumflex.ss02" horiz-adv-x="568" 
d="M446 594l-79 110l-126 -110h-59l146 144h85l87 -144h-54zM485 415l21 101h57l-110 -516h-54l18 82q-78 -94 -193 -94q-109 0 -160 78q-51 76 -25 203q26 117 100 188t179 71q128 0 167 -113zM233 39q84 0 143.5 57t80.5 157q22 104 -16.5 164.5t-125.5 60.5
q-79 0 -138 -59q-60 -60 -79 -155q-22 -105 14.5 -165t120.5 -60z" />
    <glyph glyph-name="adieresis.ss02" horiz-adv-x="568" 
d="M240 688h60l-20 -94h-60zM422 688h60l-20 -94h-60zM485 415l21 101h57l-110 -516h-54l18 82q-78 -94 -193 -94q-109 0 -160 78q-51 76 -25 203q26 117 100 188t179 71q128 0 167 -113zM233 39q84 0 143.5 57t80.5 157q22 104 -16.5 164.5t-125.5 60.5q-79 0 -138 -59
q-60 -60 -79 -155q-22 -105 14.5 -165t120.5 -60z" />
    <glyph glyph-name="agrave.ss02" horiz-adv-x="568" 
d="M333 738l35 -144h-46l-63 144h74zM485 415l21 101h57l-110 -516h-54l18 82q-78 -94 -193 -94q-109 0 -160 78q-51 76 -25 203q26 117 100 188t179 71q128 0 167 -113zM233 39q84 0 143.5 57t80.5 157q22 104 -16.5 164.5t-125.5 60.5q-79 0 -138 -59q-60 -60 -79 -155
q-22 -105 14.5 -165t120.5 -60z" />
    <glyph glyph-name="amacron.ss02" horiz-adv-x="568" 
d="M214 642h275l-11 -48h-275zM485 415l21 101h57l-110 -516h-54l18 82q-78 -94 -193 -94q-109 0 -160 78q-51 76 -25 203q26 117 100 188t179 71q128 0 167 -113zM233 39q84 0 143.5 57t80.5 157q22 104 -16.5 164.5t-125.5 60.5q-79 0 -138 -59q-60 -60 -79 -155
q-22 -105 14.5 -165t120.5 -60z" />
    <glyph glyph-name="aogonek.ss02" horiz-adv-x="568" 
d="M563 516l-110 -516q-123 -57 -134 -110q-6 -24 8 -37.5t39 -13.5q30 0 58 11l-10 -47q-33 -11 -64 -11q-43 0 -69 25t-18 64q7 35 41.5 66.5t90.5 53.5h4l18 81q-78 -94 -193 -94q-109 0 -160 78q-51 76 -25 203q26 117 100 188t179 71q128 0 167 -113l21 101h57zM233 39
q84 0 143.5 57t80.5 157q22 104 -16.5 164.5t-125.5 60.5q-79 0 -138 -59q-60 -60 -79 -155q-22 -105 14.5 -165t120.5 -60z" />
    <glyph glyph-name="aring.ss02" horiz-adv-x="568" 
d="M365 591q-50 0 -84 32.5t-34 81.5q0 48 34 81t84 33q49 0 83 -33t34 -81t-34 -81t-83 -33zM417 756q-22 21 -52 21t-51 -21q-22 -21 -22 -51t22 -51q21 -21 51 -21t52 21q21 21 21 51t-21 51zM485 415l21 101h57l-110 -516h-54l18 82q-78 -94 -193 -94q-109 0 -160 78
q-51 76 -25 203q26 117 100 188t179 71q128 0 167 -113zM233 39q84 0 143.5 57t80.5 157q22 104 -16.5 164.5t-125.5 60.5q-79 0 -138 -59q-60 -60 -79 -155q-22 -105 14.5 -165t120.5 -60z" />
    <glyph glyph-name="aringacute.ss02" horiz-adv-x="568" 
d="M475 1028h74l-121 -144h-49zM365 591q-50 0 -84 32.5t-34 81.5q0 48 34 81t84 33q49 0 83 -33t34 -81t-34 -81t-83 -33zM417 756q-22 21 -52 21t-51 -21q-22 -21 -22 -51t22 -51q21 -21 51 -21t52 21q21 21 21 51t-21 51zM485 415l21 101h57l-110 -516h-54l18 82
q-78 -94 -193 -94q-109 0 -160 78q-51 76 -25 203q26 117 100 188t179 71q128 0 167 -113zM233 39q84 0 143.5 57t80.5 157q22 104 -16.5 164.5t-125.5 60.5q-79 0 -138 -59q-60 -60 -79 -155q-22 -105 14.5 -165t120.5 -60z" />
    <glyph glyph-name="atilde.ss02" horiz-adv-x="568" 
d="M283 657q-38 0 -53 -63h-48q25 114 105 114q33 0 77 -33q37 -29 62 -29q37 0 52 62h48q-26 -114 -104 -114q-30 0 -80 35q-37 28 -59 28zM485 415l21 101h57l-110 -516h-54l18 82q-78 -94 -193 -94q-109 0 -160 78q-51 76 -25 203q26 117 100 188t179 71q128 0 167 -113z
M233 39q84 0 143.5 57t80.5 157q22 104 -16.5 164.5t-125.5 60.5q-79 0 -138 -59q-60 -60 -79 -155q-22 -105 14.5 -165t120.5 -60z" />
    <glyph glyph-name="adieresis.ss01.ss02" horiz-adv-x="568" 
d="M261 596q-28 0 -38.5 26t9.5 46q19 20 45 9t26 -39q0 -17 -12 -29.5t-30 -12.5zM432 596q-28 0 -38.5 26t9.5 46q19 20 45.5 9.5t26.5 -39.5q0 -17 -12.5 -29.5t-30.5 -12.5zM485 415l21 101h57l-110 -516h-54l18 82q-78 -94 -193 -94q-109 0 -160 78q-51 76 -25 203
q26 117 100 188t179 71q128 0 167 -113zM233 39q84 0 143.5 57t80.5 157q22 104 -16.5 164.5t-125.5 60.5q-79 0 -138 -59q-60 -60 -79 -155q-22 -105 14.5 -165t120.5 -60z" />
    <glyph glyph-name="uni021B.ss01.ss05" horiz-adv-x="284" 
d="M220 516h103l-11 -50h-102l-99 -466h-57l99 466h-88l11 50h87l31 146h57zM67 -39q43 0 43 -51q0 -43 -29.5 -79t-76.5 -47l7 33q47 17 60 68h-5q-18 0 -29.5 9.5t-11.5 26.5t11.5 28.5t30.5 11.5z" />
    <glyph glyph-name="udieresis.ss01.ss05" horiz-adv-x="529" 
d="M251 596q-28 0 -38.5 26t9.5 46q19 20 45 9t26 -39q0 -17 -12 -29.5t-30 -12.5zM422 596q-28 0 -38.5 26t9.5 46q19 20 45.5 9.5t26.5 -39.5q0 -17 -12.5 -29.5t-30.5 -12.5zM406 227l61 289h57l-110 -516h-54l19 88q-75 -100 -189 -100q-89 0 -127.5 54t-15.5 157
l68 317h56l-67 -321q-33 -156 99 -156q72 0 127.5 49t75.5 139z" />
    <glyph glyph-name="t.ss05" horiz-adv-x="284" 
d="M220 516h103l-11 -50h-102l-99 -466h-57l99 466h-88l11 50h87l31 146h57z" />
    <glyph glyph-name="tbar.ss05" horiz-adv-x="289" 
d="M328 516l-11 -50h-103l-38 -178h96l-9 -47h-97l-51 -241h-56l51 241h-91l8 47h93l38 178h-88l10 50h88l31 146h56l-31 -146h104z" />
    <glyph glyph-name="tcaron.ss05" horiz-adv-x="284" 
d="M278 546l80 166h60l-95 -166h-45zM194 662h57l-31 -146h103l-11 -50h-102l-99 -466h-57l99 466h-88l11 50h87z" />
    <glyph glyph-name="uni0163.ss05" horiz-adv-x="284" 
d="M323 516l-11 -50h-102l-98 -463l-1 -3h-2l-52 -52h5q44 0 67 -24.5t15 -60.5q-16 -78 -140 -78q-36 0 -61 6l7 34q24 -4 58 -4q73 0 82 48q4 23 -11.5 36t-49.5 13q-16 0 -23 -1l5 28l51 55h-8l99 466h-88l11 50h87l31 146h57l-31 -146h103z" />
    <glyph glyph-name="uni021B.ss05" horiz-adv-x="284" 
d="M220 516h103l-11 -50h-102l-99 -466h-57l99 466h-88l11 50h87l31 146h57zM65 -111h-41l14 68h76l-18 -87q-8 -39 -28 -58.5t-56 -24.5l-13 -2l7 32l10 1q35 8 44 50z" />
    <glyph glyph-name="udieresis.ss01.ss06" horiz-adv-x="529" 
d="M255 596q-28 0 -38.5 26t9.5 46q19 20 45 9t26 -39q0 -17 -12 -29.5t-30 -12.5zM426 596q-28 0 -38.5 26t9.5 46q19 20 45.5 9.5t26.5 -39.5q0 -17 -12.5 -29.5t-30.5 -12.5zM223 -12q-97 0 -146 61t-27 167l64 300h57l-67 -311q-17 -77 18 -122t105 -45q66 0 110.5 41
t60.5 116l69 321h56l-72 -336q-19 -89 -79 -140.5t-149 -51.5z" />
    <glyph glyph-name="u.ss06" horiz-adv-x="529" 
d="M223 -12q-97 0 -146 61t-27 167l64 300h57l-67 -311q-17 -77 18 -122t105 -45q66 0 110.5 41t60.5 116l69 321h56l-72 -336q-19 -89 -79 -140.5t-149 -51.5z" />
    <glyph glyph-name="uacute.ss06" horiz-adv-x="529" 
d="M362 594h-48l96 144h74zM223 -12q-97 0 -146 61t-27 167l64 300h57l-67 -311q-17 -77 18 -122t105 -45q66 0 110.5 41t60.5 116l69 321h56l-72 -336q-19 -89 -79 -140.5t-149 -51.5z" />
    <glyph glyph-name="ubreve.ss06" horiz-adv-x="529" 
d="M347 590q-66 0 -101.5 38t-27.5 99h49q-3 -43 20 -67t66 -24q39 0 68 24.5t42 66.5h49q-16 -65 -60 -101t-105 -36zM223 -12q-97 0 -146 61t-27 167l64 300h57l-67 -311q-17 -77 18 -122t105 -45q66 0 110.5 41t60.5 116l69 321h56l-72 -336q-19 -89 -79 -140.5
t-149 -51.5z" />
    <glyph glyph-name="ucircumflex.ss06" horiz-adv-x="529" 
d="M440 594l-79 110l-126 -110h-59l146 144h85l87 -144h-54zM398 195l69 321h56l-72 -336q-19 -89 -79 -140.5t-149 -51.5q-97 0 -146 61t-27 167l64 300h57l-67 -311q-17 -77 18 -122t105 -45q66 0 110.5 41t60.5 116z" />
    <glyph glyph-name="udieresis.ss06" horiz-adv-x="529" 
d="M274 594h-60l20 94h60zM456 594h-60l20 94h60zM223 -12q-97 0 -146 61t-27 167l64 300h57l-67 -311q-17 -77 18 -122t105 -45q66 0 110.5 41t60.5 116l69 321h56l-72 -336q-19 -89 -79 -140.5t-149 -51.5z" />
    <glyph glyph-name="ugrave.ss06" horiz-adv-x="529" 
d="M362 594h-46l-63 144h74zM223 -12q-97 0 -146 61t-27 167l64 300h57l-67 -311q-17 -77 18 -122t105 -45q66 0 110.5 41t60.5 116l69 321h56l-72 -336q-19 -89 -79 -140.5t-149 -51.5z" />
    <glyph glyph-name="uhungarumlaut.ss06" horiz-adv-x="529" 
d="M282 594h-48l94 144h74zM431 594h-48l94 144h73zM223 -12q-97 0 -146 61t-27 167l64 300h57l-67 -311q-17 -77 18 -122t105 -45q66 0 110.5 41t60.5 116l69 321h56l-72 -336q-19 -89 -79 -140.5t-149 -51.5z" />
    <glyph glyph-name="umacron.ss06" horiz-adv-x="529" 
d="M472 594h-275l11 48h275zM223 -12q-97 0 -146 61t-27 167l64 300h57l-67 -311q-17 -77 18 -122t105 -45q66 0 110.5 41t60.5 116l69 321h56l-72 -336q-19 -89 -79 -140.5t-149 -51.5z" />
    <glyph glyph-name="uogonek.ss06" horiz-adv-x="529" 
d="M398 195l69 321h56l-72 -336q-15 -69 -55 -116.5t-100 -65.5q-115 -55 -128 -107q-6 -24 8 -37.5t39 -13.5q30 0 58 11l-10 -47q-33 -11 -64 -11q-43 0 -69 25t-18 64q14 62 101 106q-92 3 -138 64q-47 62 -25 164l64 300h57l-67 -311q-17 -77 18 -122t105 -45
q66 0 110.5 41t60.5 116z" />
    <glyph glyph-name="uring.ss06" horiz-adv-x="529" 
d="M359 591q-50 0 -84 32.5t-34 81.5q0 48 34 81t84 33q49 0 83 -33t34 -81t-34 -81t-83 -33zM308 654q21 -21 51 -21t52 21q21 21 21 51t-21 51q-22 21 -52 21t-51 -21q-22 -21 -22 -51t22 -51zM223 -12q-97 0 -146 61t-27 167l64 300h57l-67 -311q-17 -77 18 -122t105 -45
q66 0 110.5 41t60.5 116l69 321h56l-72 -336q-19 -89 -79 -140.5t-149 -51.5z" />
    <glyph glyph-name="utilde.ss06" horiz-adv-x="529" 
d="M224 594h-48q25 114 105 114q33 0 77 -33q37 -29 62 -29q37 0 52 62h48q-25 -114 -104 -114q-30 0 -80 35q-37 28 -59 28q-38 0 -53 -63zM223 -12q-97 0 -146 61t-27 167l64 300h57l-67 -311q-17 -77 18 -122t105 -45q66 0 110.5 41t60.5 116l69 321h56l-72 -336
q-19 -89 -79 -140.5t-149 -51.5z" />
    <glyph glyph-name="ydieresis.ss01.ss07" horiz-adv-x="477" 
d="M231 596q-28 0 -38.5 26t9.5 46q19 20 45 9t26 -39q0 -17 -12 -29.5t-30 -12.5zM402 596q-28 0 -38.5 26t9.5 46q19 20 45.5 9.5t26.5 -39.5q0 -17 -12.5 -29.5t-30.5 -12.5zM317 275l142 241h63l-427 -712h-58l123 205l-95 507h60l43 -245q21 -130 33 -197q26 45 67 116
t49 85z" />
    <glyph glyph-name="y.ss07" horiz-adv-x="477" 
d="M317 275l142 241h63l-427 -712h-58l123 205l-95 507h60l43 -245q21 -130 33 -197q26 45 67 116t49 85z" />
    <glyph glyph-name="yacute.ss07" horiz-adv-x="477" 
d="M386 738h74l-122 -144h-48zM317 275l142 241h63l-427 -712h-58l123 205l-95 507h60l43 -245q21 -130 33 -197q26 45 67 116t49 85z" />
    <glyph glyph-name="ycircumflex.ss07" horiz-adv-x="477" 
d="M415 594l-79 110l-126 -110h-59l146 144h85l87 -144h-54zM317 275l142 241h63l-427 -712h-58l123 205l-95 507h60l43 -245q21 -130 33 -197q26 45 67 116t49 85z" />
    <glyph glyph-name="ydieresis.ss07" horiz-adv-x="477" 
d="M210 688h60l-20 -94h-60zM392 688h60l-20 -94h-60zM317 275l142 241h63l-427 -712h-58l123 205l-95 507h60l43 -245q21 -130 33 -197q26 45 67 116t49 85z" />
    <glyph glyph-name="ygrave.ss07" horiz-adv-x="477" 
d="M303 738l35 -144h-46l-63 144h74zM317 275l142 241h63l-427 -712h-58l123 205l-95 507h60l43 -245q21 -130 33 -197q26 45 67 116t49 85z" />
    <glyph glyph-name="l.ss08" horiz-adv-x="219" 
d="M123 -3q-55 0 -79.5 33.5t-11.5 93.5l125 588h57l-125 -590q-15 -75 48 -75q30 0 38 1l-10 -48q-25 -3 -42 -3z" />
    <glyph glyph-name="lacute.ss08" horiz-adv-x="219" 
d="M212 755h-55l121 144h79zM123 -3q-55 0 -79.5 33.5t-11.5 93.5l125 588h57l-125 -590q-15 -75 48 -75q30 0 38 1l-10 -48q-25 -3 -42 -3z" />
    <glyph glyph-name="lcaron.ss08" horiz-adv-x="256" 
d="M123 -3q-55 0 -79.5 33.5t-11.5 93.5l125 588h57l-125 -590q-15 -75 48 -75q30 0 38 1l-10 -48q-25 -3 -42 -3zM272 546h-45l80 166h60z" />
    <glyph glyph-name="uni013C.ss08" horiz-adv-x="219" 
d="M214 712l-125 -590q-15 -75 48 -75q30 0 38 1l-10 -48q-25 -3 -42 -3q-55 0 -79.5 33.5t-11.5 93.5l125 588h57zM16 -111h-41l14 68h76l-18 -87q-8 -39 -28 -58.5t-56 -24.5l-13 -2l7 32l10 1q35 8 44 50z" />
    <glyph glyph-name="ldot.ss08" horiz-adv-x="349" 
d="M123 -3q-55 0 -79.5 33.5t-11.5 93.5l125 588h57l-125 -590q-15 -75 48 -75q30 0 38 1l-10 -48q-25 -3 -42 -3zM308 315h-78l17 78h79z" />
    <glyph glyph-name="lslash.ss08" horiz-adv-x="235" 
d="M259 396l-95 -49l-48 -225q-15 -75 48 -75q30 0 38 1l-10 -48q-26 -3 -42 -3q-54 0 -78.5 33.5t-11.5 93.5l41 191l-101 -52l12 54l100 52l73 343h56l-66 -311l96 50z" />
    <glyph glyph-name="uni013C.ss01.ss08" horiz-adv-x="219" 
d="M214 712l-125 -590q-15 -75 48 -75q30 0 38 1l-10 -48q-25 -3 -42 -3q-55 0 -79.5 33.5t-11.5 93.5l125 588h57zM18 -39q43 0 43 -51q0 -43 -29.5 -79t-76.5 -47l7 33q47 17 60 68h-5q-18 0 -29.5 9.5t-11.5 26.5t11.5 28.5t30.5 11.5z" />
    <glyph glyph-name="ldot.ss01.ss08" horiz-adv-x="355" 
d="M123 -3q-55 0 -79.5 33.5t-11.5 93.5l125 588h57l-125 -590q-15 -75 48 -75q30 0 38 1l-10 -48q-25 -3 -42 -3zM287 309q-20 0 -33 13t-13 33q0 19 13 31t33 12q18 0 31.5 -12.5t13.5 -30.5q0 -20 -13.5 -33t-31.5 -13z" />
    <glyph glyph-name="fi.ss01" horiz-adv-x="470" 
d="M329 516l-11 -50h-116l-99 -466h-57l99 466h-87l11 50h87l16 75q25 124 155 124q16 0 48 -2l-11 -49q-9 1 -44 1q-75 0 -93 -83l-14 -66h116zM434 668q19 20 45.5 9.5t26.5 -39.5q0 -17 -12.5 -29.5t-30.5 -12.5q-28 0 -38.5 26t9.5 46zM356 0h-57l110 516h57z" />
    <glyph glyph-name="fl.ss08" horiz-adv-x="527" 
d="M329 516l-11 -50h-116l-99 -466h-57l99 466h-87l11 50h87l16 75q25 124 155 124q16 0 48 -2l-11 -49q-9 1 -44 1q-75 0 -93 -83l-14 -66h116zM495 712l-125 -590q-16 -75 48 -75q30 0 37 1l-9 -48q-27 -3 -43 -3q-54 0 -78.5 33.5t-11.5 93.5l125 588h57z" />
    <glyph glyph-name="ordfeminine.ss02" horiz-adv-x="502" 
d="M469 619l20 92h55l-95 -449h-53l17 83q-66 -93 -167 -93q-94 0 -141 69t-22 185q21 95 83 155t153 60q56 0 95 -27t55 -75zM152 353q32 -53 101 -53q70 0 120 50q49 49 69 136q18 84 -16 135.5t-106 51.5q-69 0 -116.5 -48t-63.5 -128q-20 -91 12 -144z" />
    <glyph glyph-name="t.sups.ss05" horiz-adv-x="275" 
d="M254 712h91l-10 -46h-91l-85 -404h-55l85 404h-76l10 46h76l27 128h55z" />
    <glyph glyph-name="zero.ss09" horiz-adv-x="956" 
d="M952 -88h-908v888h908v-888zM498 121q83 0 127.5 61.5t44.5 173.5q0 111 -44.5 173.5t-127.5 62.5t-127 -62q-44 -64 -44 -174q0 -112 45 -173q44 -62 126 -62zM584 217q-29 -50 -86 -50t-86 50t-29 139q0 90 29 140t86 50q58 0 86 -49q29 -50 29 -141q0 -89 -29 -139z
" />
    <glyph glyph-name="one.ss09" horiz-adv-x="956" 
d="M952 -88h-908v888h908v-888zM486 510v-376h54v452h-47q-33 -70 -126 -74v-39q82 3 119 37z" />
    <glyph glyph-name="two.ss09" horiz-adv-x="956" 
d="M952 -88h-908v888h908v-888zM340 163l-1 -21h317v46h-258q5 75 98 119l41 19q113 51 113 146q0 56 -40 93.5t-110 37.5q-74 0 -113 -38.5t-41 -101.5h53q1 43 27 68.5t72 25.5q47 0 73 -23.5t26 -63.5q0 -65 -83 -103l-36 -16q-135 -58 -138 -188z" />
    <glyph glyph-name="three.ss09" horiz-adv-x="956" 
d="M952 -88h-908v888h908v-888zM499 121q75 0 119.5 36.5t44.5 98.5q0 44 -24.5 75t-67.5 42q36 11 56.5 38.5t20.5 63.5q0 54 -40 85.5t-109 31.5t-109 -33t-42 -92h52q3 40 29 61t70 21t71 -21q27 -23 27 -59q0 -37 -27 -58q-26 -22 -74 -22h-28v-40h27q54 0 84 -23.5
t30 -67.5q0 -43 -30 -68.5t-80 -25.5q-54 0 -84 26t-31 74h-53q1 -68 45.5 -105.5t122.5 -37.5z" />
    <glyph glyph-name="four.ss09" horiz-adv-x="956" 
d="M952 -88h-908v888h908v-888zM532 260v-119h56v119h70v46h-70v286h-58l-234 -278v-54h236zM535 306h-191l191 226v-226z" />
    <glyph glyph-name="five.ss09" horiz-adv-x="956" 
d="M952 -88h-908v888h908v-888zM499 121q70 0 114.5 42.5t44.5 110.5t-40.5 110.5t-105.5 42.5q-71 0 -107 -44l26 153h207v46h-248l-46 -257h54q12 27 39 43.5t62 16.5q48 0 78 -31.5t30 -79.5t-30 -79t-78 -31q-43 0 -72 23t-37 62h-53q9 -58 53 -93t109 -35z" />
    <glyph glyph-name="six.ss09" horiz-adv-x="956" 
d="M952 -88h-908v888h908v-888zM499 121q71 0 115.5 42.5t44.5 110.5q0 67 -43 110t-110 43q-43 0 -77 -23.5t-48 -61.5q-2 16 -2 32q6 175 124 175q37 0 62.5 -19.5t33.5 -53.5h53q-11 54 -50.5 85t-98.5 31q-87 0 -131 -63t-44 -182q0 -140 69 -194q44 -32 102 -32z
M577 195q-31 -31 -78 -31t-77 31t-30 78t31 78q30 31 76 31t77 -31t31 -78t-30 -78z" />
    <glyph glyph-name="seven.ss09" horiz-adv-x="956" 
d="M952 -88h-908v888h908v-888zM426 122h58q3 244 172 404v48h-302v-46h250q-83 -77 -129 -183.5t-49 -222.5z" />
    <glyph glyph-name="eight.ss09" horiz-adv-x="956" 
d="M952 -88h-908v888h908v-888zM498 121q78 0 123.5 35.5t45.5 95.5q0 88 -94 119q72 30 72 102q0 54 -40 86.5t-107 32.5t-107 -32.5t-40 -86.5q0 -73 72 -102q-94 -31 -94 -119q0 -60 45.5 -95.5t123.5 -35.5zM498 387q-43 0 -70.5 23t-27.5 60q0 38 27.5 60t70.5 22
q44 0 71.5 -22.5t27.5 -59.5t-27.5 -60t-71.5 -23zM584 189q-32 -26 -86 -26t-85 26q-31 25 -31 68q0 44 31 69q31 26 85 26t86 -26q30 -26 30 -69t-30 -68z" />
    <glyph glyph-name="nine.ss09" horiz-adv-x="956" 
d="M952 -88h-908v888h908v-888zM497 121q86 0 130 63.5t44 181.5q0 140 -70 194q-41 32 -101 32q-71 0 -115.5 -42.5t-44.5 -110.5q0 -66 43 -109q44 -44 109 -44q42 0 75.5 22t46.5 58l3 7q3 -13 3 -32q-6 -177 -123 -177q-79 0 -98 73h-53q11 -54 51 -85t100 -31zM500 331
q-48 0 -78.5 31t-30.5 79q0 47 30.5 77.5t78.5 30.5q46 0 76 -30.5t30 -77.5q0 -48 -30 -79t-76 -31z" />
    <glyph glyph-name="zero.ss10" horiz-adv-x="956" 
d="M952 -88h-908v888h908v-888zM100 749v-786h796v786h-796zM627 184q-43 -64 -129 -64t-129 64q-44 64 -44 172q0 112 44.5 175t128.5 63t128.5 -63t44.5 -175q0 -108 -44 -172zM414 218q29 -50 84 -50q57 0 85 49t28 139q0 91 -28 140t-85 49q-56 0 -84 -49
q-29 -50 -29 -140q0 -88 29 -138z" />
    <glyph glyph-name="one.ss10" horiz-adv-x="956" 
d="M44 -88v888h908v-888h-908zM100 -37h796v786h-796v-786zM543 129h-57v372q-37 -31 -119 -33v42q49 3 78.5 19.5t46.5 54.5h51v-455z" />
    <glyph glyph-name="two.ss10" horiz-adv-x="956" 
d="M44 -88v888h908v-888h-908zM100 -37h796v786h-796v-786zM400 178h258v-49h-319v23q3 130 139 190l36 16q83 39 83 101q0 38 -25.5 62t-72.5 24t-72 -26t-26 -68h-56q2 64 42 103.5t114 39.5q72 0 112 -38t40 -95q0 -95 -115 -147l-40 -19q-91 -46 -98 -117z" />
    <glyph glyph-name="three.ss10" horiz-adv-x="956" 
d="M44 -88v888h908v-888h-908zM100 -37h796v786h-796v-786zM499 166q49 0 78.5 25t29.5 67q0 44 -29.5 66.5t-83.5 22.5h-28v43h30q45 0 72 21t27 58q0 36 -26 57t-70 21t-70 -21.5t-27 -60.5h-57q3 60 44 94.5t110 34.5q70 0 111 -32.5t41 -86.5q0 -35 -20 -62.5t-53 -40.5
q39 -10 62.5 -41t23.5 -75q0 -61 -45 -98.5t-120 -37.5q-79 0 -124 38.5t-45 107.5h56q0 -49 30 -74.5t83 -25.5z" />
    <glyph glyph-name="four.ss10" horiz-adv-x="956" 
d="M44 -88v888h908v-888h-908zM100 -37h796v786h-796v-786zM603 129h-59v119h-237v57l235 279h61v-286h69v-50h-69v-119zM546 298v220l-187 -220h187z" />
    <glyph glyph-name="five.ss10" horiz-adv-x="956" 
d="M44 -88v888h908v-888h-908zM100 -37h796v786h-796v-786zM499 166q47 0 76.5 30.5t29.5 77.5q0 48 -29.5 78.5t-76.5 30.5q-35 0 -62 -16.5t-39 -43.5h-56l45 261h252v-49h-206l-26 -147q38 41 104 41t107.5 -44t41.5 -111q0 -68 -45.5 -111t-115.5 -43q-66 0 -111 35.5
t-53 95.5h56q7 -39 35.5 -62t72.5 -23z" />
    <glyph glyph-name="six.ss10" horiz-adv-x="956" 
d="M44 -88v888h908v-888h-908zM100 -37h796v786h-796v-786zM401 152q-70 52 -70 195q0 119 44 183t132 64q62 0 102 -32t50 -87h-57q-18 72 -95 72q-120 0 -123 -189q44 71 127 71q67 0 111 -44q43 -44 43 -111q0 -68 -45.5 -111t-115.5 -43q-59 0 -103 32zM504 381
q-45 0 -75 -31t-30 -77t29 -76.5t76 -30.5t76.5 30.5t29.5 76.5t-29.5 77t-76.5 31z" />
    <glyph glyph-name="seven.ss10" horiz-adv-x="956" 
d="M44 -88v888h908v-888h-908zM100 -37h796v786h-796v-786zM482 129h-61q2 114 48 220.5t128 185.5h-248v49h305v-50q-169 -160 -172 -405z" />
    <glyph glyph-name="eight.ss10" horiz-adv-x="956" 
d="M44 -88v888h908v-888h-908zM100 -37h796v786h-796v-786zM327 252q0 88 88 119q-66 33 -66 102q0 54 40.5 87.5t108.5 33.5t108 -33.5t40 -87.5q0 -69 -65 -102q88 -31 88 -119q0 -59 -45.5 -95.5t-125.5 -36.5q-79 0 -125 36.5t-46 95.5zM568 529q-28 21 -70 21t-69 -21
q-28 -22 -28 -59q0 -36 27 -59q26 -22 70 -22t70 22q27 23 27 59t-27 59zM582 325q-29 25 -84 25t-84 -25q-30 -25 -30 -67t30 -67q29 -26 84 -26q54 0 85 26q29 26 29 67q0 42 -30 67z" />
    <glyph glyph-name="nine.ss10" horiz-adv-x="956" 
d="M44 -88v888h908v-888h-908zM100 -37h796v786h-796v-786zM486 284q-68 0 -111 45q-44 44 -44 109q0 69 46 112t116 43q61 0 102 -32q71 -57 71 -196q0 -118 -43 -182t-128 -64q-65 0 -106.5 32t-50.5 87h56q18 -73 101 -73q114 0 117 189q-19 -33 -52.5 -51.5t-73.5 -18.5
zM569 516q-29 30 -76 30t-77 -30t-30 -76q0 -45 30 -77q30 -31 77 -31q48 0 76 31q29 32 29 77t-29 76z" />
    <glyph glyph-name="zero.zero" horiz-adv-x="604" 
d="M392 728q126 0 173 -100.5t7 -284.5q-37 -171 -118.5 -265t-199.5 -94q-129 0 -175 100t-5 289q37 169 118.5 262t199.5 93zM137 369q-25 -114 -16 -194l388 426q-33 73 -121 73q-90 0 -155 -79.5t-96 -225.5zM509 344q27 124 15 204l-391 -429q31 -81 125 -81
q90 0 155.5 80t95.5 226z" />
    <glyph glyph-name="zero.dnom" horiz-adv-x="354" 
d="M135 -9q-79 0 -112.5 61.5t-9.5 170.5q21 95 68 147t118 52q79 0 112 -60.5t10 -168.5q-43 -202 -186 -202zM138 34q98 0 132 163q19 87 -0.5 134t-73.5 47q-99 0 -133 -163q-19 -85 2 -133t73 -48z" />
    <glyph glyph-name="one.dnom" horiz-adv-x="237" 
d="M104 0h-50l73 344q-42 -32 -115 -33l8 36q88 5 128 66h44z" />
    <glyph glyph-name="two.dnom" horiz-adv-x="323" 
d="M252 0h-291l4 20q24 113 164 172l36 16q85 36 96 89q7 37 -13 59t-64 22q-43 0 -70.5 -22.5t-34.5 -61.5h-49q10 59 50.5 93t107.5 34q68 0 100.5 -36.5t20.5 -91.5q-16 -76 -131 -125l-37 -16q-101 -44 -117 -109h237z" />
    <glyph glyph-name="three.dnom" horiz-adv-x="333" 
d="M121 -8q-69 0 -107.5 36.5t-30.5 95.5h47q-5 -40 20.5 -65.5t73.5 -25.5q94 0 110 75q10 45 -13 69t-72 24h-25l8 36h26q43 0 71.5 17.5t35.5 47.5q9 36 -13 57t-65 21q-81 0 -101 -74h-49q13 56 52.5 85.5t99.5 29.5q66 0 100.5 -33t22.5 -90q-6 -28 -30.5 -51
t-57.5 -30q35 -12 51 -41t7 -73q-12 -50 -54.5 -80.5t-106.5 -30.5z" />
    <glyph glyph-name="four.dnom" horiz-adv-x="359" 
d="M264 153h63l-10 -45h-63l-23 -108h-54l24 108h-216l11 52l268 253h55zM255 354l-212 -201h169z" />
    <glyph glyph-name="five.dnom" horiz-adv-x="337" 
d="M129 -9q-61 0 -99 32t-39 84l49 2q1 -35 26.5 -56t65.5 -21q43 0 72 25.5t38 69.5q10 48 -12.5 76t-67.5 28q-64 0 -101 -55h-49l93 237h228l-10 -43h-189l-56 -139q37 40 97 40q62 0 95 -42t18 -110q-13 -59 -55.5 -93.5t-103.5 -34.5z" />
    <glyph glyph-name="six.dnom" horiz-adv-x="349" 
d="M204 381q-53 0 -86.5 -35.5t-54.5 -112.5q0 -1 -1.5 -6.5t-3 -12.5t-2.5 -15q19 34 53 54t72 20q63 0 96.5 -42t20.5 -108q-12 -59 -55.5 -95t-103.5 -36q-62 0 -102 40q-48 48 -22 193q19 93 69 145t126 52q55 0 89 -29.5t33 -77.5h-49q-2 31 -22.5 48.5t-56.5 17.5z
M172 231q-43 0 -75 -25t-41 -60q-11 -51 13 -82.5t73 -31.5q40 0 69.5 26t37.5 68q10 46 -12 75.5t-65 29.5z" />
    <glyph glyph-name="seven.dnom" horiz-adv-x="304" 
d="M76 0h-56q25 106 87 203t151 168h-224l8 42h277l-9 -44q-183 -143 -234 -369z" />
    <glyph glyph-name="eight.dnom" horiz-adv-x="351" 
d="M132 -8q-74 0 -112.5 36.5t-26.5 99.5q7 34 36 59t73 33q-28 15 -41.5 42t-5.5 61q9 45 48 71.5t96 26.5q63 0 97 -34.5t23 -89.5q-5 -27 -27.5 -48.5t-54.5 -28.5q79 -30 60 -120q-9 -48 -54 -78t-111 -30zM175 235q39 0 66.5 18t33.5 50q8 36 -14 58t-65 22
q-38 0 -64.5 -18.5t-32.5 -46.5q-8 -36 13.5 -59.5t62.5 -23.5zM135 32q47 0 76.5 20.5t38.5 55.5q11 44 -12.5 69t-76.5 25q-50 0 -81 -20.5t-38 -56.5q-9 -44 16 -68.5t77 -24.5z" />
    <glyph glyph-name="nine.dnom" horiz-adv-x="349" 
d="M120 -8q-56 0 -90 29t-34 78h49q5 -66 81 -66q51 0 85 36t54 111q5 16 6 36q-16 -33 -50.5 -55t-73.5 -22q-63 0 -96.5 43t-19.5 108q11 59 54.5 95t103.5 36q63 0 102 -41q48 -48 23 -192q-43 -196 -194 -196zM92 211q22 -30 65 -30t75 26q33 26 40 60q11 51 -13 82
t-73 31q-40 0 -69.5 -26t-37.5 -67q-10 -46 13 -76z" />
    <glyph glyph-name="zero.numr" horiz-adv-x="354" 
d="M198 290q-79 0 -112.5 61.5t-9.5 170.5q21 95 68 147t118 52q79 0 112 -60.5t10 -168.5q-43 -202 -186 -202zM201 333q98 0 132 163q19 87 -0.5 134t-73.5 47q-99 0 -133 -163q-19 -85 2 -133t73 -48z" />
    <glyph glyph-name="one.numr" horiz-adv-x="236" 
d="M167 299h-50l74 344q-42 -31 -116 -33l8 36q87 4 129 66h43z" />
    <glyph glyph-name="two.numr" horiz-adv-x="323" 
d="M315 299h-291l4 20q24 113 164 172l36 16q85 36 96 89q7 37 -13 59t-64 22q-43 0 -70.5 -22.5t-34.5 -61.5h-49q10 59 50.5 93t107.5 34q68 0 100.5 -36.5t20.5 -91.5q-16 -76 -131 -125l-37 -16q-101 -44 -117 -109h237z" />
    <glyph glyph-name="three.numr" horiz-adv-x="333" 
d="M184 291q-69 0 -107.5 36.5t-30.5 95.5h47q-5 -40 20.5 -65.5t73.5 -25.5q93 0 110 75q10 45 -13 69t-72 24h-25l8 36h26q43 0 71.5 17.5t35.5 47.5q9 36 -13 57t-65 21q-81 0 -101 -74h-49q13 56 52.5 85.5t99.5 29.5q66 0 100.5 -33t22.5 -90q-6 -28 -30.5 -51
t-57.5 -30q35 -12 51 -41t7 -73q-12 -50 -54.5 -80.5t-106.5 -30.5z" />
    <glyph glyph-name="four.numr" horiz-adv-x="359" 
d="M327 452h63l-10 -45h-63l-23 -108h-54l24 108h-216l11 52l268 253h55zM318 653l-212 -201h169z" />
    <glyph glyph-name="five.numr" horiz-adv-x="337" 
d="M192 290q-61 0 -99 32t-39 84l49 2q1 -35 26.5 -56t65.5 -21q43 0 72 25.5t38 69.5q10 48 -12.5 76t-67.5 28q-64 0 -101 -55h-49l93 237h228l-10 -43h-189l-56 -139q37 40 97 40q62 0 95 -42t18 -110q-13 -59 -55.5 -93.5t-103.5 -34.5z" />
    <glyph glyph-name="six.numr" horiz-adv-x="349" 
d="M267 680q-105 0 -141 -148q0 -1 -1.5 -6.5t-3 -12.5t-2.5 -15q19 34 53 54t72 20q63 0 96.5 -42t20.5 -108q-12 -59 -55.5 -95t-103.5 -36q-62 0 -102 40q-48 48 -22 193q19 93 69 145t126 52q55 0 89 -29.5t33 -77.5h-49q-2 31 -22.5 48.5t-56.5 17.5zM235 530
q-43 0 -75 -25t-41 -60q-11 -51 13 -82.5t73 -31.5q40 0 69.5 26t37.5 68q10 46 -12 75.5t-65 29.5z" />
    <glyph glyph-name="seven.numr" horiz-adv-x="304" 
d="M139 299h-56q25 106 87 203t151 168h-224l8 42h277l-9 -44q-183 -142 -234 -369z" />
    <glyph glyph-name="eight.numr" horiz-adv-x="351" 
d="M195 291q-74 0 -112.5 36.5t-26.5 99.5q7 34 36 59t73 33q-28 15 -41.5 42t-5.5 61q9 45 48 71.5t96 26.5q63 0 97 -34.5t23 -89.5q-5 -27 -27.5 -48.5t-54.5 -28.5q80 -30 60 -120q-9 -48 -54 -78t-111 -30zM238 534q39 0 66.5 18t33.5 50q8 36 -14 58t-65 22
q-38 0 -64.5 -18.5t-32.5 -46.5q-8 -36 13.5 -59.5t62.5 -23.5zM198 331q47 0 76.5 20.5t38.5 55.5q11 44 -12.5 69t-76.5 25q-50 0 -81 -20.5t-38 -56.5q-9 -44 16 -68.5t77 -24.5z" />
    <glyph glyph-name="nine.numr" horiz-adv-x="349" 
d="M183 291q-56 0 -90 29t-34 78h49q4 -66 81 -66q51 0 85 36t54 111q4 17 6 36q-16 -33 -50.5 -55t-73.5 -22q-63 0 -96.5 43t-19.5 108q11 59 54.5 95t103.5 36q63 0 102 -41q48 -48 23 -192q-43 -196 -194 -196zM155 510q22 -30 65 -30t75 26q33 26 40 60q11 51 -13 82
t-73 31q-40 0 -69.5 -26t-37.5 -67q-10 -46 13 -76z" />
    <glyph glyph-name="zero.tf" horiz-adv-x="604" 
d="M254 -16q-129 0 -175 100t-5 289q37 169 118.5 262t199.5 93q126 0 173 -100.5t7 -284.5q-37 -171 -118.5 -265t-199.5 -94zM258 38q90 0 155.5 80t95.5 226q35 161 4.5 245.5t-125.5 84.5q-90 0 -155 -79.5t-96 -225.5q-70 -331 121 -331z" />
    <glyph glyph-name="one.tf" horiz-adv-x="604" 
d="M429 712l-141 -660h208l-12 -52h-464l12 52h197l119 555q-79 -58 -197 -63l10 49q151 4 219 119h49z" />
    <glyph glyph-name="two.tf" horiz-adv-x="604" 
d="M387 728q108 0 160 -61t32 -155q-14 -66 -62.5 -117.5t-138.5 -96.5l-84 -42q-86 -42 -130 -88.5t-63 -113.5h391l-12 -54h-461l8 28q22 88 73 152q50 63 156 116l94 47q78 40 117 79t51 91q15 74 -20.5 117.5t-117.5 43.5q-160 0 -195 -164h-60q44 218 262 218z" />
    <glyph glyph-name="three.tf" horiz-adv-x="604" 
d="M573 526q-22 -104 -145 -148q129 -51 96 -203q-19 -88 -87.5 -139.5t-174.5 -51.5q-114 0 -172 60q-60 58 -46 158h58q-10 -78 35 -121t131 -43q80 0 130.5 37.5t64.5 105.5q18 82 -22 127.5t-127 45.5h-48l11 49h44q77 0 128.5 35t64.5 93q15 67 -23 105t-115 38
q-71 0 -121 -37.5t-67 -108.5h-60q19 93 86.5 146.5t166.5 53.5q98 0 156 -53q57 -53 36 -149z" />
    <glyph glyph-name="four.tf" horiz-adv-x="604" 
d="M466 245h104l-11 -54h-104l-41 -191h-60l41 191h-370l12 57l463 464h66zM488 630l-384 -385h302z" />
    <glyph glyph-name="five.tf" horiz-adv-x="604" 
d="M591 712l-11 -54h-309l-94 -256q63 57 156 57q107 0 161 -72q53 -75 28 -189q-20 -92 -87 -153t-172 -61q-101 0 -160 57q-60 55 -55 149h59q-2 -72 41.5 -112t119.5 -40q72 0 125.5 47t69.5 123q19 89 -20.5 143t-121.5 54q-116 0 -176 -99h-59l148 406h357z" />
    <glyph glyph-name="six.tf" horiz-adv-x="604" 
d="M352 459q104 0 160 -72q56 -73 31 -187q-21 -96 -91 -155q-70 -61 -172 -61q-110 0 -167 75q-75 95 -28 313q35 162 117 259t210 97q89 0 140 -50t52 -135h-59q-3 63 -39.5 97t-102.5 34q-98 0 -164 -83t-99 -236q0 -3 -2 -12.5t-3 -11.5q34 60 91 94t126 34zM483 208
q18 89 -24 143t-120 54q-75 0 -131 -48q-56 -50 -72 -122q-20 -89 24 -143q42 -54 124 -54q74 0 129 48q55 47 70 122z" />
    <glyph glyph-name="seven.tf" horiz-adv-x="604" 
d="M147 658l11 54h469l-10 -48q-336 -279 -430 -664h-64q94 377 420 658h-396z" />
    <glyph glyph-name="eight.tf" horiz-adv-x="604" 
d="M585 528q-12 -54 -52.5 -92.5t-103.5 -56.5q66 -24 95.5 -77t14.5 -125q-18 -87 -92 -140t-186 -53q-126 0 -187 64t-37 169q15 64 62.5 107t119.5 61q-50 25 -72 70t-10 104q16 80 83 124.5t170 44.5q105 0 160 -55t35 -145zM526 528q15 66 -24.5 106t-116.5 40
t-128 -32t-63 -92q-14 -67 28 -106.5t119 -39.5q72 0 122 33.5t63 90.5zM479 188q16 78 -27.5 122.5t-134.5 44.5q-88 0 -147 -39t-73 -108q-17 -77 28 -123.5t138 -46.5q88 0 144.5 40.5t71.5 109.5z" />
    <glyph glyph-name="nine.tf" horiz-adv-x="604" 
d="M542 654q73 -97 27 -314q-35 -160 -117 -258q-82 -97 -210 -97q-89 0 -140 50t-52 135h59q3 -63 40 -97.5t103 -34.5q98 0 164.5 83.5t97.5 236.5q4 20 4 21q-33 -59 -89 -92t-126 -33q-105 0 -160 72q-57 72 -31 186q20 94 90 156q70 61 172 61q110 0 168 -75zM315 308
q77 0 132 48q56 48 71 122q20 90 -23 143q-43 54 -124 54q-75 0 -130 -48q-55 -47 -70 -123q-18 -88 24 -142t120 -54z" />
    <glyph glyph-name="zero.tf.zero" horiz-adv-x="604" 
d="M392 728q126 0 173 -100.5t7 -284.5q-37 -171 -118.5 -265t-199.5 -94q-129 0 -175 100t-5 289q37 169 118.5 262t199.5 93zM137 369q-25 -114 -16 -194l388 426q-33 73 -121 73q-90 0 -155 -79.5t-96 -225.5zM509 344q27 124 15 204l-391 -429q31 -81 125 -81
q90 0 155.5 80t95.5 226z" />
    <glyph glyph-name="period.ss01" horiz-adv-x="181" 
d="M47 -6q-20 0 -33.5 13t-13.5 32t13.5 32t33.5 13q18 0 31 -12.5t13 -31.5t-13 -32.5t-31 -13.5z" />
    <glyph glyph-name="comma.ss01" horiz-adv-x="177" 
d="M42 78q47 0 47 -55q0 -51 -35 -100q-34 -46 -94 -60l8 40q61 21 75 92h-2q-19 0 -31.5 11.5t-12.5 29.5t12.5 30t32.5 12z" />
    <glyph glyph-name="colon.ss01" horiz-adv-x="181" 
d="M132 403q-20 0 -33.5 12.5t-13.5 31.5t13.5 32t33.5 13q18 0 31 -12.5t13 -31.5t-13 -32t-31 -13zM47 -6q-20 0 -33.5 13t-13.5 32t13.5 32t33.5 13q18 0 31 -12.5t13 -31.5t-13 -32.5t-31 -13.5z" />
    <glyph glyph-name="semicolon.ss01" horiz-adv-x="191" 
d="M139 492q19 0 32 -12.5t13 -31.5t-13 -32t-32 -13q-28 -2 -40 21t0 46.5t40 21.5zM47 78q47 0 47 -55q0 -51 -35 -100q-34 -46 -94 -60l8 40q61 21 75 92h-2q-19 0 -31.5 11.5t-12.5 29.5t12.5 30t32.5 12z" />
    <glyph glyph-name="ellipsis.ss01" horiz-adv-x="654" 
d="M47 -6q-20 0 -33.5 13t-13.5 32t13.5 32t33.5 13q18 0 31 -12.5t13 -31.5t-13 -32.5t-31 -13.5zM286 -6q-20 0 -33 12.5t-13 32.5q0 19 13 32t33 13q18 0 31 -12.5t13 -31.5t-13 -32.5t-31 -13.5zM520 -6q-20 0 -33.5 13t-13.5 32t13.5 32t33.5 13q18 0 31 -12.5
t13 -31.5t-13 -32.5t-31 -13.5z" />
    <glyph glyph-name="exclam.ss01" horiz-adv-x="181" 
d="M94 183h-38l61 333l42 196h60l-42 -196zM47 -6q-20 0 -33.5 13t-13.5 32t13.5 32t33.5 13q18 0 31 -12.5t13 -31.5t-13 -32.5t-31 -13.5z" />
    <glyph glyph-name="exclamdown.ss01" horiz-adv-x="181" 
d="M152 502q-18 0 -31 12.5t-13 31.5t13 32.5t31 13.5q20 0 33.5 -13t13.5 -32t-13.5 -32t-33.5 -13zM40 -126h-60l42 196l83 333h38l-61 -333z" />
    <glyph glyph-name="question.ss01" horiz-adv-x="497" 
d="M253 183h-56q15 72 43 117q33 52 106 103q41 30 56 42q16 12 40 41q21 26 27 54q15 64 -17 99t-109 35q-80 0 -130.5 -40t-73.5 -130h-58q50 224 266 224q104 0 153 -50.5t28 -142.5q-9 -44 -40.5 -80t-90.5 -78q-81 -56 -109 -98q-22 -33 -35 -96zM194 -6
q-20 0 -33.5 13t-13.5 32t13.5 32t33.5 13q18 0 31 -12.5t13 -31.5t-13 -32.5t-31 -13.5z" />
    <glyph glyph-name="questiondown.ss01" horiz-adv-x="529" 
d="M370 515q-22 -21 -50 -9.5t-28 40.5q0 19 13 32.5t32 13.5q31 0 42.5 -28t-9.5 -49zM184 -142q-104 0 -153.5 50.5t-28.5 142.5q16 79 131 158q81 56 109 98q20 30 35 96h56q-17 -75 -43 -117q-34 -53 -105 -103q-33 -24 -56 -41q-17 -14 -39 -41q-22 -26 -28 -55
q-15 -64 17 -99t108 -35q80 0 130.5 40t73.5 130h58q-50 -224 -265 -224z" />
    <glyph glyph-name="periodcentered.ss01" horiz-adv-x="181" 
d="M113 317q-28 -3 -40 21t0 48t40 21q18 0 31 -12.5t13 -31.5t-13 -32.5t-31 -13.5z" />
    <glyph glyph-name="bullet.ss01" horiz-adv-x="266" 
d="M142 217q-35 0 -57.5 21.5t-22.5 55.5q0 33 23 55.5t57 22.5q33 0 55 -21.5t22 -54.5q0 -34 -22.5 -56.5t-54.5 -22.5z" />
    <glyph glyph-name="uni203D.ss01" horiz-adv-x="497" 
d="M347 728q104 0 153 -50.5t28 -142.5q-9 -44 -40.5 -80t-90.5 -78q-81 -56 -109 -98q-22 -33 -35 -96h-56q3 21 7 29l53 270l20 93h61l-20 -93l-27 -123q30 27 55 44q32 22 56 42q17 13 40 41q21 26 27 54q15 64 -17 99t-109 35q-80 0 -130.5 -40t-73.5 -130h-58
q50 224 266 224zM204 84q18 0 31 -12.5t13 -31.5t-13 -32.5t-31 -13.5q-20 0 -33 12.5t-13 32.5q0 19 13 32t33 13z" />
    </font>
</defs>
</svg>
